  0
SECTION
  2
HEADER
  9
$ACADVER
  1
AC1009
  9
$EXTMIN
 10
0.0
 20
0.0
 30
0.0
  9
$EXTMAX
 10
1000.0
 20
1000.0
 30
0.0
  9
$FILLMODE
 70
 0
  9
$SPLFRAME
 70
 1
  0
ENDSEC
  0
SECTION
  2
TABLES
  0
TABLE
  2
LAYER
 70
1
  0
LAYER
  2
0
 70
     0
 62
     7
  6
CONTINUOUS
  0
ENDTAB
  0
ENDSEC
  0
SECTION
  2
ENTITIES
  0
LINE
  8
0
 62
     0
 10
346.997
 20
107.502
 30
0.0
 11
347.781
 21
107.472
 31
0.0
  0
LINE
  8
0
 62
     0
 10
347.781
 20
107.472
 30
0.0
 11
348.561
 21
107.378
 31
0.0
  0
LINE
  8
0
 62
     0
 10
348.561
 20
107.378
 30
0.0
 11
349.33
 21
107.225
 31
0.0
  0
LINE
  8
0
 62
     0
 10
349.33
 20
107.225
 30
0.0
 11
350.086
 21
107.013
 31
0.0
  0
LINE
  8
0
 62
     0
 10
350.086
 20
107.013
 30
0.0
 11
350.822
 21
106.74
 31
0.0
  0
LINE
  8
0
 62
     0
 10
350.822
 20
106.74
 30
0.0
 11
351.536
 21
106.412
 31
0.0
  0
LINE
  8
0
 62
     0
 10
351.536
 20
106.412
 30
0.0
 11
352.221
 21
106.029
 31
0.0
  0
LINE
  8
0
 62
     0
 10
352.221
 20
106.029
 30
0.0
 11
352.873
 21
105.592
 31
0.0
  0
LINE
  8
0
 62
     0
 10
352.873
 20
105.592
 30
0.0
 11
353.49
 21
105.107
 31
0.0
  0
LINE
  8
0
 62
     0
 10
353.49
 20
105.107
 30
0.0
 11
354.069
 21
104.574
 31
0.0
  0
LINE
  8
0
 62
     0
 10
354.069
 20
104.574
 30
0.0
 11
354.602
 21
103.996
 31
0.0
  0
LINE
  8
0
 62
     0
 10
354.602
 20
103.996
 30
0.0
 11
355.085
 21
103.379
 31
0.0
  0
LINE
  8
0
 62
     0
 10
355.085
 20
103.379
 30
0.0
 11
355.522
 21
102.727
 31
0.0
  0
LINE
  8
0
 62
     0
 10
355.522
 20
102.727
 30
0.0
 11
355.907
 21
102.042
 31
0.0
  0
LINE
  8
0
 62
     0
 10
355.907
 20
102.042
 30
0.0
 11
356.235
 21
101.328
 31
0.0
  0
LINE
  8
0
 62
     0
 10
356.235
 20
101.328
 30
0.0
 11
356.507
 21
100.593
 31
0.0
  0
LINE
  8
0
 62
     0
 10
356.507
 20
100.593
 30
0.0
 11
356.718
 21
99.8361
 31
0.0
  0
LINE
  8
0
 62
     0
 10
356.718
 20
99.8361
 30
0.0
 11
356.874
 21
99.0671
 31
0.0
  0
LINE
  8
0
 62
     0
 10
356.874
 20
99.0671
 30
0.0
 11
356.965
 21
98.2871
 31
0.0
  0
LINE
  8
0
 62
     0
 10
356.965
 20
98.2871
 30
0.0
 11
356.997
 21
97.5018
 31
0.0
  0
LINE
  8
0
 62
     0
 10
356.997
 20
97.5018
 30
0.0
 11
356.997
 21
10.2512
 31
0.0
  0
LINE
  8
0
 62
     0
 10
356.997
 20
10.2512
 30
0.0
 11
356.965
 21
9.46711
 31
0.0
  0
LINE
  8
0
 62
     0
 10
356.965
 20
9.46711
 30
0.0
 11
356.874
 21
8.68715
 31
0.0
  0
LINE
  8
0
 62
     0
 10
356.874
 20
8.68715
 30
0.0
 11
356.718
 21
7.91683
 31
0.0
  0
LINE
  8
0
 62
     0
 10
356.718
 20
7.91683
 30
0.0
 11
356.507
 21
7.1603
 31
0.0
  0
LINE
  8
0
 62
     0
 10
356.507
 20
7.1603
 30
0.0
 11
356.235
 21
6.4244
 31
0.0
  0
LINE
  8
0
 62
     0
 10
356.235
 20
6.4244
 30
0.0
 11
355.907
 21
5.71197
 31
0.0
  0
LINE
  8
0
 62
     0
 10
355.907
 20
5.71197
 30
0.0
 11
355.522
 21
5.02708
 31
0.0
  0
LINE
  8
0
 62
     0
 10
355.522
 20
5.02708
 30
0.0
 11
355.085
 21
4.37388
 31
0.0
  0
LINE
  8
0
 62
     0
 10
355.085
 20
4.37388
 30
0.0
 11
354.602
 21
3.75652
 31
0.0
  0
LINE
  8
0
 62
     0
 10
354.602
 20
3.75652
 30
0.0
 11
354.069
 21
3.17913
 31
0.0
  0
LINE
  8
0
 62
     0
 10
354.069
 20
3.17913
 30
0.0
 11
353.49
 21
2.64721
 31
0.0
  0
LINE
  8
0
 62
     0
 10
353.49
 20
2.64721
 30
0.0
 11
352.873
 21
2.16076
 31
0.0
  0
LINE
  8
0
 62
     0
 10
352.873
 20
2.16076
 30
0.0
 11
352.221
 21
1.72531
 31
0.0
  0
LINE
  8
0
 62
     0
 10
352.221
 20
1.72531
 30
0.0
 11
351.536
 21
1.34083
 31
0.0
  0
LINE
  8
0
 62
     0
 10
351.536
 20
1.34083
 30
0.0
 11
350.822
 21
1.01286
 31
0.0
  0
LINE
  8
0
 62
     0
 10
350.822
 20
1.01286
 30
0.0
 11
350.086
 21
0.741384
 31
0.0
  0
LINE
  8
0
 62
     0
 10
350.086
 20
0.741384
 30
0.0
 11
349.33
 21
0.527787
 31
0.0
  0
LINE
  8
0
 62
     0
 10
349.33
 20
0.527787
 30
0.0
 11
348.561
 21
0.374826
 31
0.0
  0
LINE
  8
0
 62
     0
 10
348.561
 20
0.374826
 30
0.0
 11
347.781
 21
0.28112
 31
0.0
  0
LINE
  8
0
 62
     0
 10
347.781
 20
0.28112
 30
0.0
 11
346.997
 21
0.250803
 31
0.0
  0
LINE
  8
0
 62
     0
 10
346.997
 20
0.250803
 30
0.0
 11
10.0955
 21
0.252181
 31
0.0
  0
LINE
  8
0
 62
     0
 10
10.0955
 20
0.252181
 30
0.0
 11
9.31002
 21
0.28112
 31
0.0
  0
LINE
  8
0
 62
     0
 10
9.31002
 20
0.28112
 30
0.0
 11
8.53006
 21
0.374826
 31
0.0
  0
LINE
  8
0
 62
     0
 10
8.53006
 20
0.374826
 30
0.0
 11
7.76111
 21
0.527787
 31
0.0
  0
LINE
  8
0
 62
     0
 10
7.76111
 20
0.527787
 30
0.0
 11
7.00458
 21
0.741384
 31
0.0
  0
LINE
  8
0
 62
     0
 10
7.00458
 20
0.741384
 30
0.0
 11
6.26869
 21
1.01286
 31
0.0
  0
LINE
  8
0
 62
     0
 10
6.26869
 20
1.01286
 30
0.0
 11
5.55487
 21
1.34083
 31
0.0
  0
LINE
  8
0
 62
     0
 10
5.55487
 20
1.34083
 30
0.0
 11
4.86999
 21
1.72531
 31
0.0
  0
LINE
  8
0
 62
     0
 10
4.86999
 20
1.72531
 30
0.0
 11
4.21816
 21
2.16076
 31
0.0
  0
LINE
  8
0
 62
     0
 10
4.21816
 20
2.16076
 30
0.0
 11
3.6008
 21
2.64721
 31
0.0
  0
LINE
  8
0
 62
     0
 10
3.6008
 20
2.64721
 30
0.0
 11
3.02341
 21
3.17913
 31
0.0
  0
LINE
  8
0
 62
     0
 10
3.02341
 20
3.17913
 30
0.0
 11
2.49011
 21
3.75652
 31
0.0
  0
LINE
  8
0
 62
     0
 10
2.49011
 20
3.75652
 30
0.0
 11
2.00504
 21
4.37388
 31
0.0
  0
LINE
  8
0
 62
     0
 10
2.00504
 20
4.37388
 30
0.0
 11
1.56821
 21
5.02708
 31
0.0
  0
LINE
  8
0
 62
     0
 10
1.56821
 20
5.02708
 30
0.0
 11
1.18511
 21
5.71197
 31
0.0
  0
LINE
  8
0
 62
     0
 10
1.18511
 20
5.71197
 30
0.0
 11
0.857141
 21
6.4244
 31
0.0
  0
LINE
  8
0
 62
     0
 10
0.857141
 20
6.4244
 30
0.0
 11
0.584288
 21
7.1603
 31
0.0
  0
LINE
  8
0
 62
     0
 10
0.584288
 20
7.1603
 30
0.0
 11
0.372071
 21
7.91683
 31
0.0
  0
LINE
  8
0
 62
     0
 10
0.372071
 20
7.91683
 30
0.0
 11
0.219108
 21
8.68715
 31
0.0
  0
LINE
  8
0
 62
     0
 10
0.219108
 20
8.68715
 30
0.0
 11
0.125402
 21
9.46711
 31
0.0
  0
LINE
  8
0
 62
     0
 10
0.125402
 20
9.46711
 30
0.0
 11
0.0950846
 21
10.2512
 31
0.0
  0
LINE
  8
0
 62
     0
 10
0.0950846
 20
10.2512
 30
0.0
 11
0.0950846
 21
97.5018
 31
0.0
  0
LINE
  8
0
 62
     0
 10
0.0950846
 20
97.5018
 30
0.0
 11
0.125402
 21
98.2871
 31
0.0
  0
LINE
  8
0
 62
     0
 10
0.125402
 20
98.2871
 30
0.0
 11
0.219108
 21
99.0671
 31
0.0
  0
LINE
  8
0
 62
     0
 10
0.219108
 20
99.0671
 30
0.0
 11
0.372071
 21
99.8361
 31
0.0
  0
LINE
  8
0
 62
     0
 10
0.372071
 20
99.8361
 30
0.0
 11
0.584288
 21
100.593
 31
0.0
  0
LINE
  8
0
 62
     0
 10
0.584288
 20
100.593
 30
0.0
 11
0.857141
 21
101.328
 31
0.0
  0
LINE
  8
0
 62
     0
 10
0.857141
 20
101.328
 30
0.0
 11
1.18511
 21
102.042
 31
0.0
  0
LINE
  8
0
 62
     0
 10
1.18511
 20
102.042
 30
0.0
 11
1.56821
 21
102.727
 31
0.0
  0
LINE
  8
0
 62
     0
 10
1.56821
 20
102.727
 30
0.0
 11
2.00504
 21
103.379
 31
0.0
  0
LINE
  8
0
 62
     0
 10
2.00504
 20
103.379
 30
0.0
 11
2.49011
 21
103.996
 31
0.0
  0
LINE
  8
0
 62
     0
 10
2.49011
 20
103.996
 30
0.0
 11
3.02341
 21
104.574
 31
0.0
  0
LINE
  8
0
 62
     0
 10
3.02341
 20
104.574
 30
0.0
 11
3.6008
 21
105.107
 31
0.0
  0
LINE
  8
0
 62
     0
 10
3.6008
 20
105.107
 30
0.0
 11
4.21816
 21
105.592
 31
0.0
  0
LINE
  8
0
 62
     0
 10
4.21816
 20
105.592
 30
0.0
 11
4.86999
 21
106.029
 31
0.0
  0
LINE
  8
0
 62
     0
 10
4.86999
 20
106.029
 30
0.0
 11
5.55487
 21
106.412
 31
0.0
  0
LINE
  8
0
 62
     0
 10
5.55487
 20
106.412
 30
0.0
 11
6.26869
 21
106.74
 31
0.0
  0
LINE
  8
0
 62
     0
 10
6.26869
 20
106.74
 30
0.0
 11
7.00458
 21
107.013
 31
0.0
  0
LINE
  8
0
 62
     0
 10
7.00458
 20
107.013
 30
0.0
 11
7.76111
 21
107.225
 31
0.0
  0
LINE
  8
0
 62
     0
 10
7.76111
 20
107.225
 30
0.0
 11
8.53006
 21
107.378
 31
0.0
  0
LINE
  8
0
 62
     0
 10
8.53006
 20
107.378
 30
0.0
 11
9.31002
 21
107.472
 31
0.0
  0
LINE
  8
0
 62
     0
 10
9.31002
 20
107.472
 30
0.0
 11
10.0955
 21
107.502
 31
0.0
  0
LINE
  8
0
 62
     0
 10
10.0955
 20
107.502
 30
0.0
 11
346.997
 21
107.502
 31
0.0
  0
LINE
  8
0
 62
     0
 10
131.064
 20
22.7762
 30
0.0
 11
131.064
 21
21.7771
 31
0.0
  0
LINE
  8
0
 62
     0
 10
131.064
 20
21.7771
 30
0.0
 11
130.263
 21
21.7771
 31
0.0
  0
LINE
  8
0
 62
     0
 10
130.263
 20
21.7771
 30
0.0
 11
130.263
 21
18.6779
 31
0.0
  0
LINE
  8
0
 62
     0
 10
130.263
 20
18.6779
 30
0.0
 11
131.064
 21
18.6779
 31
0.0
  0
LINE
  8
0
 62
     0
 10
131.064
 20
18.6779
 30
0.0
 11
131.064
 21
18.0771
 31
0.0
  0
LINE
  8
0
 62
     0
 10
131.064
 20
18.0771
 30
0.0
 11
91.4382
 21
18.0771
 31
0.0
  0
LINE
  8
0
 62
     0
 10
91.4382
 20
18.0771
 30
0.0
 11
91.4382
 21
21.3072
 31
0.0
  0
LINE
  8
0
 62
     0
 10
91.4382
 20
21.3072
 30
0.0
 11
84.6889
 21
21.3072
 31
0.0
  0
LINE
  8
0
 62
     0
 10
84.6889
 20
21.3072
 30
0.0
 11
84.6889
 21
18.0771
 31
0.0
  0
LINE
  8
0
 62
     0
 10
84.6889
 20
18.0771
 30
0.0
 11
83.8634
 21
18.0771
 31
0.0
  0
LINE
  8
0
 62
     0
 10
83.8634
 20
18.0771
 30
0.0
 11
83.8634
 21
15.2769
 31
0.0
  0
LINE
  8
0
 62
     0
 10
83.8634
 20
15.2769
 30
0.0
 11
84.6889
 21
15.2769
 31
0.0
  0
LINE
  8
0
 62
     0
 10
84.6889
 20
15.2769
 30
0.0
 11
84.6889
 21
9.00825
 31
0.0
  0
LINE
  8
0
 62
     0
 10
84.6889
 20
9.00825
 30
0.0
 11
86.414
 21
9.00825
 31
0.0
  0
LINE
  8
0
 62
     0
 10
86.414
 20
9.00825
 30
0.0
 11
86.414
 21
7.80658
 31
0.0
  0
LINE
  8
0
 62
     0
 10
86.414
 20
7.80658
 30
0.0
 11
89.7132
 21
7.80658
 31
0.0
  0
LINE
  8
0
 62
     0
 10
89.7132
 20
7.80658
 30
0.0
 11
89.7132
 21
9.00825
 31
0.0
  0
LINE
  8
0
 62
     0
 10
89.7132
 20
9.00825
 30
0.0
 11
91.4382
 21
9.00825
 31
0.0
  0
LINE
  8
0
 62
     0
 10
91.4382
 20
9.00825
 30
0.0
 11
91.4382
 21
13.4772
 31
0.0
  0
LINE
  8
0
 62
     0
 10
91.4382
 20
13.4772
 30
0.0
 11
131.064
 21
13.4772
 31
0.0
  0
LINE
  8
0
 62
     0
 10
131.064
 20
13.4772
 30
0.0
 11
131.064
 21
12.8764
 31
0.0
  0
LINE
  8
0
 62
     0
 10
131.064
 20
12.8764
 30
0.0
 11
130.263
 21
12.8764
 31
0.0
  0
LINE
  8
0
 62
     0
 10
130.263
 20
12.8764
 30
0.0
 11
130.263
 21
9.77717
 31
0.0
  0
LINE
  8
0
 62
     0
 10
130.263
 20
9.77717
 30
0.0
 11
131.064
 21
9.77717
 31
0.0
  0
LINE
  8
0
 62
     0
 10
131.064
 20
9.77717
 30
0.0
 11
131.064
 21
8.77672
 31
0.0
  0
LINE
  8
0
 62
     0
 10
131.064
 20
8.77672
 30
0.0
 11
145.063
 21
8.77672
 31
0.0
  0
LINE
  8
0
 62
     0
 10
145.063
 20
8.77672
 30
0.0
 11
145.063
 21
9.77717
 31
0.0
  0
LINE
  8
0
 62
     0
 10
145.063
 20
9.77717
 30
0.0
 11
145.864
 21
9.77717
 31
0.0
  0
LINE
  8
0
 62
     0
 10
145.864
 20
9.77717
 30
0.0
 11
145.864
 21
12.8764
 31
0.0
  0
LINE
  8
0
 62
     0
 10
145.864
 20
12.8764
 30
0.0
 11
145.063
 21
12.8764
 31
0.0
  0
LINE
  8
0
 62
     0
 10
145.063
 20
12.8764
 30
0.0
 11
145.063
 21
13.4772
 31
0.0
  0
LINE
  8
0
 62
     0
 10
145.063
 20
13.4772
 30
0.0
 11
184.689
 21
13.4772
 31
0.0
  0
LINE
  8
0
 62
     0
 10
184.689
 20
13.4772
 30
0.0
 11
184.689
 21
9.00825
 31
0.0
  0
LINE
  8
0
 62
     0
 10
184.689
 20
9.00825
 30
0.0
 11
186.414
 21
9.00825
 31
0.0
  0
LINE
  8
0
 62
     0
 10
186.414
 20
9.00825
 30
0.0
 11
186.414
 21
7.80658
 31
0.0
  0
LINE
  8
0
 62
     0
 10
186.414
 20
7.80658
 30
0.0
 11
189.713
 21
7.80658
 31
0.0
  0
LINE
  8
0
 62
     0
 10
189.713
 20
7.80658
 30
0.0
 11
189.713
 21
9.00825
 31
0.0
  0
LINE
  8
0
 62
     0
 10
189.713
 20
9.00825
 30
0.0
 11
191.438
 21
9.00825
 31
0.0
  0
LINE
  8
0
 62
     0
 10
191.438
 20
9.00825
 30
0.0
 11
191.438
 21
15.2769
 31
0.0
  0
LINE
  8
0
 62
     0
 10
191.438
 20
15.2769
 30
0.0
 11
192.264
 21
15.2769
 31
0.0
  0
LINE
  8
0
 62
     0
 10
192.264
 20
15.2769
 30
0.0
 11
192.264
 21
18.0771
 31
0.0
  0
LINE
  8
0
 62
     0
 10
192.264
 20
18.0771
 30
0.0
 11
191.438
 21
18.0771
 31
0.0
  0
LINE
  8
0
 62
     0
 10
191.438
 20
18.0771
 30
0.0
 11
191.438
 21
21.3072
 31
0.0
  0
LINE
  8
0
 62
     0
 10
191.438
 20
21.3072
 30
0.0
 11
184.689
 21
21.3072
 31
0.0
  0
LINE
  8
0
 62
     0
 10
184.689
 20
21.3072
 30
0.0
 11
184.689
 21
18.0771
 31
0.0
  0
LINE
  8
0
 62
     0
 10
184.689
 20
18.0771
 30
0.0
 11
145.063
 21
18.0771
 31
0.0
  0
LINE
  8
0
 62
     0
 10
145.063
 20
18.0771
 30
0.0
 11
145.063
 21
18.6779
 31
0.0
  0
LINE
  8
0
 62
     0
 10
145.063
 20
18.6779
 30
0.0
 11
145.864
 21
18.6779
 31
0.0
  0
LINE
  8
0
 62
     0
 10
145.864
 20
18.6779
 30
0.0
 11
145.864
 21
21.7771
 31
0.0
  0
LINE
  8
0
 62
     0
 10
145.864
 20
21.7771
 30
0.0
 11
145.063
 21
21.7771
 31
0.0
  0
LINE
  8
0
 62
     0
 10
145.063
 20
21.7771
 30
0.0
 11
145.063
 21
22.7762
 31
0.0
  0
LINE
  8
0
 62
     0
 10
145.063
 20
22.7762
 30
0.0
 11
131.064
 21
22.7762
 31
0.0
  0
LINE
  8
0
 62
     0
 10
333.47
 20
22.7762
 30
0.0
 11
333.47
 21
21.7771
 31
0.0
  0
LINE
  8
0
 62
     0
 10
333.47
 20
21.7771
 30
0.0
 11
332.671
 21
21.7771
 31
0.0
  0
LINE
  8
0
 62
     0
 10
332.671
 20
21.7771
 30
0.0
 11
332.671
 21
18.6779
 31
0.0
  0
LINE
  8
0
 62
     0
 10
332.671
 20
18.6779
 30
0.0
 11
333.47
 21
18.6779
 31
0.0
  0
LINE
  8
0
 62
     0
 10
333.47
 20
18.6779
 30
0.0
 11
333.47
 21
12.8764
 31
0.0
  0
LINE
  8
0
 62
     0
 10
333.47
 20
12.8764
 30
0.0
 11
332.671
 21
12.8764
 31
0.0
  0
LINE
  8
0
 62
     0
 10
332.671
 20
12.8764
 30
0.0
 11
332.671
 21
9.77717
 31
0.0
  0
LINE
  8
0
 62
     0
 10
332.671
 20
9.77717
 30
0.0
 11
333.47
 21
9.77717
 31
0.0
  0
LINE
  8
0
 62
     0
 10
333.47
 20
9.77717
 30
0.0
 11
333.47
 21
8.77672
 31
0.0
  0
LINE
  8
0
 62
     0
 10
333.47
 20
8.77672
 30
0.0
 11
347.471
 21
8.77672
 31
0.0
  0
LINE
  8
0
 62
     0
 10
347.471
 20
8.77672
 30
0.0
 11
347.471
 21
9.77717
 31
0.0
  0
LINE
  8
0
 62
     0
 10
347.471
 20
9.77717
 30
0.0
 11
348.27
 21
9.77717
 31
0.0
  0
LINE
  8
0
 62
     0
 10
348.27
 20
9.77717
 30
0.0
 11
348.27
 21
12.8764
 31
0.0
  0
LINE
  8
0
 62
     0
 10
348.27
 20
12.8764
 30
0.0
 11
347.471
 21
12.8764
 31
0.0
  0
LINE
  8
0
 62
     0
 10
347.471
 20
12.8764
 30
0.0
 11
347.471
 21
18.6779
 31
0.0
  0
LINE
  8
0
 62
     0
 10
347.471
 20
18.6779
 30
0.0
 11
348.27
 21
18.6779
 31
0.0
  0
LINE
  8
0
 62
     0
 10
348.27
 20
18.6779
 30
0.0
 11
348.27
 21
21.7771
 31
0.0
  0
LINE
  8
0
 62
     0
 10
348.27
 20
21.7771
 30
0.0
 11
347.471
 21
21.7771
 31
0.0
  0
LINE
  8
0
 62
     0
 10
347.471
 20
21.7771
 30
0.0
 11
347.471
 21
22.7762
 31
0.0
  0
LINE
  8
0
 62
     0
 10
347.471
 20
22.7762
 30
0.0
 11
333.47
 21
22.7762
 31
0.0
  0
LINE
  8
0
 62
     0
 10
314.42
 20
22.7762
 30
0.0
 11
314.42
 21
21.7771
 31
0.0
  0
LINE
  8
0
 62
     0
 10
314.42
 20
21.7771
 30
0.0
 11
313.621
 21
21.7771
 31
0.0
  0
LINE
  8
0
 62
     0
 10
313.621
 20
21.7771
 30
0.0
 11
313.621
 21
18.6779
 31
0.0
  0
LINE
  8
0
 62
     0
 10
313.621
 20
18.6779
 30
0.0
 11
314.42
 21
18.6779
 31
0.0
  0
LINE
  8
0
 62
     0
 10
314.42
 20
18.6779
 30
0.0
 11
314.42
 21
12.8764
 31
0.0
  0
LINE
  8
0
 62
     0
 10
314.42
 20
12.8764
 30
0.0
 11
313.621
 21
12.8764
 31
0.0
  0
LINE
  8
0
 62
     0
 10
313.621
 20
12.8764
 30
0.0
 11
313.621
 21
9.77717
 31
0.0
  0
LINE
  8
0
 62
     0
 10
313.621
 20
9.77717
 30
0.0
 11
314.42
 21
9.77717
 31
0.0
  0
LINE
  8
0
 62
     0
 10
314.42
 20
9.77717
 30
0.0
 11
314.42
 21
8.77672
 31
0.0
  0
LINE
  8
0
 62
     0
 10
314.42
 20
8.77672
 30
0.0
 11
328.421
 21
8.77672
 31
0.0
  0
LINE
  8
0
 62
     0
 10
328.421
 20
8.77672
 30
0.0
 11
328.421
 21
9.77717
 31
0.0
  0
LINE
  8
0
 62
     0
 10
328.421
 20
9.77717
 30
0.0
 11
329.22
 21
9.77717
 31
0.0
  0
LINE
  8
0
 62
     0
 10
329.22
 20
9.77717
 30
0.0
 11
329.22
 21
12.8764
 31
0.0
  0
LINE
  8
0
 62
     0
 10
329.22
 20
12.8764
 30
0.0
 11
328.421
 21
12.8764
 31
0.0
  0
LINE
  8
0
 62
     0
 10
328.421
 20
12.8764
 30
0.0
 11
328.421
 21
18.6779
 31
0.0
  0
LINE
  8
0
 62
     0
 10
328.421
 20
18.6779
 30
0.0
 11
329.22
 21
18.6779
 31
0.0
  0
LINE
  8
0
 62
     0
 10
329.22
 20
18.6779
 30
0.0
 11
329.22
 21
21.7771
 31
0.0
  0
LINE
  8
0
 62
     0
 10
329.22
 20
21.7771
 30
0.0
 11
328.421
 21
21.7771
 31
0.0
  0
LINE
  8
0
 62
     0
 10
328.421
 20
21.7771
 30
0.0
 11
328.421
 21
22.7762
 31
0.0
  0
LINE
  8
0
 62
     0
 10
328.421
 20
22.7762
 30
0.0
 11
314.42
 21
22.7762
 31
0.0
  0
LINE
  8
0
 62
     0
 10
295.37
 20
22.7762
 30
0.0
 11
295.37
 21
21.7771
 31
0.0
  0
LINE
  8
0
 62
     0
 10
295.37
 20
21.7771
 30
0.0
 11
294.569
 21
21.7771
 31
0.0
  0
LINE
  8
0
 62
     0
 10
294.569
 20
21.7771
 30
0.0
 11
294.569
 21
18.6779
 31
0.0
  0
LINE
  8
0
 62
     0
 10
294.569
 20
18.6779
 30
0.0
 11
295.37
 21
18.6779
 31
0.0
  0
LINE
  8
0
 62
     0
 10
295.37
 20
18.6779
 30
0.0
 11
295.37
 21
12.8764
 31
0.0
  0
LINE
  8
0
 62
     0
 10
295.37
 20
12.8764
 30
0.0
 11
294.569
 21
12.8764
 31
0.0
  0
LINE
  8
0
 62
     0
 10
294.569
 20
12.8764
 30
0.0
 11
294.569
 21
9.77717
 31
0.0
  0
LINE
  8
0
 62
     0
 10
294.569
 20
9.77717
 30
0.0
 11
295.37
 21
9.77717
 31
0.0
  0
LINE
  8
0
 62
     0
 10
295.37
 20
9.77717
 30
0.0
 11
295.37
 21
8.77672
 31
0.0
  0
LINE
  8
0
 62
     0
 10
295.37
 20
8.77672
 30
0.0
 11
309.371
 21
8.77672
 31
0.0
  0
LINE
  8
0
 62
     0
 10
309.371
 20
8.77672
 30
0.0
 11
309.371
 21
9.77717
 31
0.0
  0
LINE
  8
0
 62
     0
 10
309.371
 20
9.77717
 30
0.0
 11
310.17
 21
9.77717
 31
0.0
  0
LINE
  8
0
 62
     0
 10
310.17
 20
9.77717
 30
0.0
 11
310.17
 21
12.8764
 31
0.0
  0
LINE
  8
0
 62
     0
 10
310.17
 20
12.8764
 30
0.0
 11
309.371
 21
12.8764
 31
0.0
  0
LINE
  8
0
 62
     0
 10
309.371
 20
12.8764
 30
0.0
 11
309.371
 21
18.6779
 31
0.0
  0
LINE
  8
0
 62
     0
 10
309.371
 20
18.6779
 30
0.0
 11
310.17
 21
18.6779
 31
0.0
  0
LINE
  8
0
 62
     0
 10
310.17
 20
18.6779
 30
0.0
 11
310.17
 21
21.7771
 31
0.0
  0
LINE
  8
0
 62
     0
 10
310.17
 20
21.7771
 30
0.0
 11
309.371
 21
21.7771
 31
0.0
  0
LINE
  8
0
 62
     0
 10
309.371
 20
21.7771
 30
0.0
 11
309.371
 21
22.7762
 31
0.0
  0
LINE
  8
0
 62
     0
 10
309.371
 20
22.7762
 30
0.0
 11
295.37
 21
22.7762
 31
0.0
  0
LINE
  8
0
 62
     0
 10
273.939
 20
22.7762
 30
0.0
 11
273.939
 21
21.7771
 31
0.0
  0
LINE
  8
0
 62
     0
 10
273.939
 20
21.7771
 30
0.0
 11
273.138
 21
21.7771
 31
0.0
  0
LINE
  8
0
 62
     0
 10
273.138
 20
21.7771
 30
0.0
 11
273.138
 21
18.6779
 31
0.0
  0
LINE
  8
0
 62
     0
 10
273.138
 20
18.6779
 30
0.0
 11
273.939
 21
18.6779
 31
0.0
  0
LINE
  8
0
 62
     0
 10
273.939
 20
18.6779
 30
0.0
 11
273.939
 21
12.8764
 31
0.0
  0
LINE
  8
0
 62
     0
 10
273.939
 20
12.8764
 30
0.0
 11
273.138
 21
12.8764
 31
0.0
  0
LINE
  8
0
 62
     0
 10
273.138
 20
12.8764
 30
0.0
 11
273.138
 21
9.77717
 31
0.0
  0
LINE
  8
0
 62
     0
 10
273.138
 20
9.77717
 30
0.0
 11
273.939
 21
9.77717
 31
0.0
  0
LINE
  8
0
 62
     0
 10
273.939
 20
9.77717
 30
0.0
 11
273.939
 21
8.77672
 31
0.0
  0
LINE
  8
0
 62
     0
 10
273.939
 20
8.77672
 30
0.0
 11
287.938
 21
8.77672
 31
0.0
  0
LINE
  8
0
 62
     0
 10
287.938
 20
8.77672
 30
0.0
 11
287.938
 21
9.77717
 31
0.0
  0
LINE
  8
0
 62
     0
 10
287.938
 20
9.77717
 30
0.0
 11
288.739
 21
9.77717
 31
0.0
  0
LINE
  8
0
 62
     0
 10
288.739
 20
9.77717
 30
0.0
 11
288.739
 21
12.8764
 31
0.0
  0
LINE
  8
0
 62
     0
 10
288.739
 20
12.8764
 30
0.0
 11
287.938
 21
12.8764
 31
0.0
  0
LINE
  8
0
 62
     0
 10
287.938
 20
12.8764
 30
0.0
 11
287.938
 21
18.6779
 31
0.0
  0
LINE
  8
0
 62
     0
 10
287.938
 20
18.6779
 30
0.0
 11
288.739
 21
18.6779
 31
0.0
  0
LINE
  8
0
 62
     0
 10
288.739
 20
18.6779
 30
0.0
 11
288.739
 21
21.7771
 31
0.0
  0
LINE
  8
0
 62
     0
 10
288.739
 20
21.7771
 30
0.0
 11
287.938
 21
21.7771
 31
0.0
  0
LINE
  8
0
 62
     0
 10
287.938
 20
21.7771
 30
0.0
 11
287.938
 21
22.7762
 31
0.0
  0
LINE
  8
0
 62
     0
 10
287.938
 20
22.7762
 30
0.0
 11
273.939
 21
22.7762
 31
0.0
  0
LINE
  8
0
 62
     0
 10
250.127
 20
22.7762
 30
0.0
 11
250.127
 21
21.7771
 31
0.0
  0
LINE
  8
0
 62
     0
 10
250.127
 20
21.7771
 30
0.0
 11
249.327
 21
21.7771
 31
0.0
  0
LINE
  8
0
 62
     0
 10
249.327
 20
21.7771
 30
0.0
 11
249.327
 21
18.6779
 31
0.0
  0
LINE
  8
0
 62
     0
 10
249.327
 20
18.6779
 30
0.0
 11
250.127
 21
18.6779
 31
0.0
  0
LINE
  8
0
 62
     0
 10
250.127
 20
18.6779
 30
0.0
 11
250.127
 21
12.8764
 31
0.0
  0
LINE
  8
0
 62
     0
 10
250.127
 20
12.8764
 30
0.0
 11
249.327
 21
12.8764
 31
0.0
  0
LINE
  8
0
 62
     0
 10
249.327
 20
12.8764
 30
0.0
 11
249.327
 21
9.77717
 31
0.0
  0
LINE
  8
0
 62
     0
 10
249.327
 20
9.77717
 30
0.0
 11
250.127
 21
9.77717
 31
0.0
  0
LINE
  8
0
 62
     0
 10
250.127
 20
9.77717
 30
0.0
 11
250.127
 21
8.77672
 31
0.0
  0
LINE
  8
0
 62
     0
 10
250.127
 20
8.77672
 30
0.0
 11
264.126
 21
8.77672
 31
0.0
  0
LINE
  8
0
 62
     0
 10
264.126
 20
8.77672
 30
0.0
 11
264.126
 21
9.77717
 31
0.0
  0
LINE
  8
0
 62
     0
 10
264.126
 20
9.77717
 30
0.0
 11
264.927
 21
9.77717
 31
0.0
  0
LINE
  8
0
 62
     0
 10
264.927
 20
9.77717
 30
0.0
 11
264.927
 21
12.8764
 31
0.0
  0
LINE
  8
0
 62
     0
 10
264.927
 20
12.8764
 30
0.0
 11
264.126
 21
12.8764
 31
0.0
  0
LINE
  8
0
 62
     0
 10
264.126
 20
12.8764
 30
0.0
 11
264.126
 21
18.6779
 31
0.0
  0
LINE
  8
0
 62
     0
 10
264.126
 20
18.6779
 30
0.0
 11
264.927
 21
18.6779
 31
0.0
  0
LINE
  8
0
 62
     0
 10
264.927
 20
18.6779
 30
0.0
 11
264.927
 21
21.7771
 31
0.0
  0
LINE
  8
0
 62
     0
 10
264.927
 20
21.7771
 30
0.0
 11
264.126
 21
21.7771
 31
0.0
  0
LINE
  8
0
 62
     0
 10
264.126
 20
21.7771
 30
0.0
 11
264.126
 21
22.7762
 31
0.0
  0
LINE
  8
0
 62
     0
 10
264.126
 20
22.7762
 30
0.0
 11
250.127
 21
22.7762
 31
0.0
  0
LINE
  8
0
 62
     0
 10
226.314
 20
22.7762
 30
0.0
 11
226.314
 21
21.7771
 31
0.0
  0
LINE
  8
0
 62
     0
 10
226.314
 20
21.7771
 30
0.0
 11
225.513
 21
21.7771
 31
0.0
  0
LINE
  8
0
 62
     0
 10
225.513
 20
21.7771
 30
0.0
 11
225.513
 21
18.6779
 31
0.0
  0
LINE
  8
0
 62
     0
 10
225.513
 20
18.6779
 30
0.0
 11
226.314
 21
18.6779
 31
0.0
  0
LINE
  8
0
 62
     0
 10
226.314
 20
18.6779
 30
0.0
 11
226.314
 21
12.8764
 31
0.0
  0
LINE
  8
0
 62
     0
 10
226.314
 20
12.8764
 30
0.0
 11
225.513
 21
12.8764
 31
0.0
  0
LINE
  8
0
 62
     0
 10
225.513
 20
12.8764
 30
0.0
 11
225.513
 21
9.77717
 31
0.0
  0
LINE
  8
0
 62
     0
 10
225.513
 20
9.77717
 30
0.0
 11
226.314
 21
9.77717
 31
0.0
  0
LINE
  8
0
 62
     0
 10
226.314
 20
9.77717
 30
0.0
 11
226.314
 21
8.77672
 31
0.0
  0
LINE
  8
0
 62
     0
 10
226.314
 20
8.77672
 30
0.0
 11
240.313
 21
8.77672
 31
0.0
  0
LINE
  8
0
 62
     0
 10
240.313
 20
8.77672
 30
0.0
 11
240.313
 21
9.77717
 31
0.0
  0
LINE
  8
0
 62
     0
 10
240.313
 20
9.77717
 30
0.0
 11
241.114
 21
9.77717
 31
0.0
  0
LINE
  8
0
 62
     0
 10
241.114
 20
9.77717
 30
0.0
 11
241.114
 21
12.8764
 31
0.0
  0
LINE
  8
0
 62
     0
 10
241.114
 20
12.8764
 30
0.0
 11
240.313
 21
12.8764
 31
0.0
  0
LINE
  8
0
 62
     0
 10
240.313
 20
12.8764
 30
0.0
 11
240.313
 21
18.6779
 31
0.0
  0
LINE
  8
0
 62
     0
 10
240.313
 20
18.6779
 30
0.0
 11
241.114
 21
18.6779
 31
0.0
  0
LINE
  8
0
 62
     0
 10
241.114
 20
18.6779
 30
0.0
 11
241.114
 21
21.7771
 31
0.0
  0
LINE
  8
0
 62
     0
 10
241.114
 20
21.7771
 30
0.0
 11
240.313
 21
21.7771
 31
0.0
  0
LINE
  8
0
 62
     0
 10
240.313
 20
21.7771
 30
0.0
 11
240.313
 21
22.7762
 31
0.0
  0
LINE
  8
0
 62
     0
 10
240.313
 20
22.7762
 30
0.0
 11
226.314
 21
22.7762
 31
0.0
  0
LINE
  8
0
 62
     0
 10
202.502
 20
22.7762
 30
0.0
 11
202.502
 21
21.7771
 31
0.0
  0
LINE
  8
0
 62
     0
 10
202.502
 20
21.7771
 30
0.0
 11
201.702
 21
21.7771
 31
0.0
  0
LINE
  8
0
 62
     0
 10
201.702
 20
21.7771
 30
0.0
 11
201.702
 21
18.6779
 31
0.0
  0
LINE
  8
0
 62
     0
 10
201.702
 20
18.6779
 30
0.0
 11
202.502
 21
18.6779
 31
0.0
  0
LINE
  8
0
 62
     0
 10
202.502
 20
18.6779
 30
0.0
 11
202.502
 21
12.8764
 31
0.0
  0
LINE
  8
0
 62
     0
 10
202.502
 20
12.8764
 30
0.0
 11
201.702
 21
12.8764
 31
0.0
  0
LINE
  8
0
 62
     0
 10
201.702
 20
12.8764
 30
0.0
 11
201.702
 21
9.77717
 31
0.0
  0
LINE
  8
0
 62
     0
 10
201.702
 20
9.77717
 30
0.0
 11
202.502
 21
9.77717
 31
0.0
  0
LINE
  8
0
 62
     0
 10
202.502
 20
9.77717
 30
0.0
 11
202.502
 21
8.77672
 31
0.0
  0
LINE
  8
0
 62
     0
 10
202.502
 20
8.77672
 30
0.0
 11
216.501
 21
8.77672
 31
0.0
  0
LINE
  8
0
 62
     0
 10
216.501
 20
8.77672
 30
0.0
 11
216.501
 21
9.77717
 31
0.0
  0
LINE
  8
0
 62
     0
 10
216.501
 20
9.77717
 30
0.0
 11
217.302
 21
9.77717
 31
0.0
  0
LINE
  8
0
 62
     0
 10
217.302
 20
9.77717
 30
0.0
 11
217.302
 21
12.8764
 31
0.0
  0
LINE
  8
0
 62
     0
 10
217.302
 20
12.8764
 30
0.0
 11
216.501
 21
12.8764
 31
0.0
  0
LINE
  8
0
 62
     0
 10
216.501
 20
12.8764
 30
0.0
 11
216.501
 21
18.6779
 31
0.0
  0
LINE
  8
0
 62
     0
 10
216.501
 20
18.6779
 30
0.0
 11
217.302
 21
18.6779
 31
0.0
  0
LINE
  8
0
 62
     0
 10
217.302
 20
18.6779
 30
0.0
 11
217.302
 21
21.7771
 31
0.0
  0
LINE
  8
0
 62
     0
 10
217.302
 20
21.7771
 30
0.0
 11
216.501
 21
21.7771
 31
0.0
  0
LINE
  8
0
 62
     0
 10
216.501
 20
21.7771
 30
0.0
 11
216.501
 21
22.7762
 31
0.0
  0
LINE
  8
0
 62
     0
 10
216.501
 20
22.7762
 30
0.0
 11
202.502
 21
22.7762
 31
0.0
  0
LINE
  8
0
 62
     0
 10
59.6265
 20
22.7762
 30
0.0
 11
59.6265
 21
21.7771
 31
0.0
  0
LINE
  8
0
 62
     0
 10
59.6265
 20
21.7771
 30
0.0
 11
58.8271
 21
21.7771
 31
0.0
  0
LINE
  8
0
 62
     0
 10
58.8271
 20
21.7771
 30
0.0
 11
58.8271
 21
18.6779
 31
0.0
  0
LINE
  8
0
 62
     0
 10
58.8271
 20
18.6779
 30
0.0
 11
59.6265
 21
18.6779
 31
0.0
  0
LINE
  8
0
 62
     0
 10
59.6265
 20
18.6779
 30
0.0
 11
59.6265
 21
12.8764
 31
0.0
  0
LINE
  8
0
 62
     0
 10
59.6265
 20
12.8764
 30
0.0
 11
58.8271
 21
12.8764
 31
0.0
  0
LINE
  8
0
 62
     0
 10
58.8271
 20
12.8764
 30
0.0
 11
58.8271
 21
9.77717
 31
0.0
  0
LINE
  8
0
 62
     0
 10
58.8271
 20
9.77717
 30
0.0
 11
59.6265
 21
9.77717
 31
0.0
  0
LINE
  8
0
 62
     0
 10
59.6265
 20
9.77717
 30
0.0
 11
59.6265
 21
8.77672
 31
0.0
  0
LINE
  8
0
 62
     0
 10
59.6265
 20
8.77672
 30
0.0
 11
73.6258
 21
8.77672
 31
0.0
  0
LINE
  8
0
 62
     0
 10
73.6258
 20
8.77672
 30
0.0
 11
73.6258
 21
9.77717
 31
0.0
  0
LINE
  8
0
 62
     0
 10
73.6258
 20
9.77717
 30
0.0
 11
74.4266
 21
9.77717
 31
0.0
  0
LINE
  8
0
 62
     0
 10
74.4266
 20
9.77717
 30
0.0
 11
74.4266
 21
12.8764
 31
0.0
  0
LINE
  8
0
 62
     0
 10
74.4266
 20
12.8764
 30
0.0
 11
73.6258
 21
12.8764
 31
0.0
  0
LINE
  8
0
 62
     0
 10
73.6258
 20
12.8764
 30
0.0
 11
73.6258
 21
18.6779
 31
0.0
  0
LINE
  8
0
 62
     0
 10
73.6258
 20
18.6779
 30
0.0
 11
74.4266
 21
18.6779
 31
0.0
  0
LINE
  8
0
 62
     0
 10
74.4266
 20
18.6779
 30
0.0
 11
74.4266
 21
21.7771
 31
0.0
  0
LINE
  8
0
 62
     0
 10
74.4266
 20
21.7771
 30
0.0
 11
73.6258
 21
21.7771
 31
0.0
  0
LINE
  8
0
 62
     0
 10
73.6258
 20
21.7771
 30
0.0
 11
73.6258
 21
22.7762
 31
0.0
  0
LINE
  8
0
 62
     0
 10
73.6258
 20
22.7762
 30
0.0
 11
59.6265
 21
22.7762
 31
0.0
  0
LINE
  8
0
 62
     0
 10
35.814
 20
22.7762
 30
0.0
 11
35.814
 21
21.7771
 31
0.0
  0
LINE
  8
0
 62
     0
 10
35.814
 20
21.7771
 30
0.0
 11
35.0132
 21
21.7771
 31
0.0
  0
LINE
  8
0
 62
     0
 10
35.0132
 20
21.7771
 30
0.0
 11
35.0132
 21
18.6779
 31
0.0
  0
LINE
  8
0
 62
     0
 10
35.0132
 20
18.6779
 30
0.0
 11
35.814
 21
18.6779
 31
0.0
  0
LINE
  8
0
 62
     0
 10
35.814
 20
18.6779
 30
0.0
 11
35.814
 21
12.8764
 31
0.0
  0
LINE
  8
0
 62
     0
 10
35.814
 20
12.8764
 30
0.0
 11
35.0132
 21
12.8764
 31
0.0
  0
LINE
  8
0
 62
     0
 10
35.0132
 20
12.8764
 30
0.0
 11
35.0132
 21
9.77717
 31
0.0
  0
LINE
  8
0
 62
     0
 10
35.0132
 20
9.77717
 30
0.0
 11
35.814
 21
9.77717
 31
0.0
  0
LINE
  8
0
 62
     0
 10
35.814
 20
9.77717
 30
0.0
 11
35.814
 21
8.77672
 31
0.0
  0
LINE
  8
0
 62
     0
 10
35.814
 20
8.77672
 30
0.0
 11
49.8133
 21
8.77672
 31
0.0
  0
LINE
  8
0
 62
     0
 10
49.8133
 20
8.77672
 30
0.0
 11
49.8133
 21
9.77717
 31
0.0
  0
LINE
  8
0
 62
     0
 10
49.8133
 20
9.77717
 30
0.0
 11
50.6141
 21
9.77717
 31
0.0
  0
LINE
  8
0
 62
     0
 10
50.6141
 20
9.77717
 30
0.0
 11
50.6141
 21
12.8764
 31
0.0
  0
LINE
  8
0
 62
     0
 10
50.6141
 20
12.8764
 30
0.0
 11
49.8133
 21
12.8764
 31
0.0
  0
LINE
  8
0
 62
     0
 10
49.8133
 20
12.8764
 30
0.0
 11
49.8133
 21
18.6779
 31
0.0
  0
LINE
  8
0
 62
     0
 10
49.8133
 20
18.6779
 30
0.0
 11
50.6141
 21
18.6779
 31
0.0
  0
LINE
  8
0
 62
     0
 10
50.6141
 20
18.6779
 30
0.0
 11
50.6141
 21
21.7771
 31
0.0
  0
LINE
  8
0
 62
     0
 10
50.6141
 20
21.7771
 30
0.0
 11
49.8133
 21
21.7771
 31
0.0
  0
LINE
  8
0
 62
     0
 10
49.8133
 20
21.7771
 30
0.0
 11
49.8133
 21
22.7762
 31
0.0
  0
LINE
  8
0
 62
     0
 10
49.8133
 20
22.7762
 30
0.0
 11
35.814
 21
22.7762
 31
0.0
  0
LINE
  8
0
 62
     0
 10
12.0013
 20
22.7762
 30
0.0
 11
12.0013
 21
21.7771
 31
0.0
  0
LINE
  8
0
 62
     0
 10
12.0013
 20
21.7771
 30
0.0
 11
11.2021
 21
21.7771
 31
0.0
  0
LINE
  8
0
 62
     0
 10
11.2021
 20
21.7771
 30
0.0
 11
11.2021
 21
18.6779
 31
0.0
  0
LINE
  8
0
 62
     0
 10
11.2021
 20
18.6779
 30
0.0
 11
12.0013
 21
18.6779
 31
0.0
  0
LINE
  8
0
 62
     0
 10
12.0013
 20
18.6779
 30
0.0
 11
12.0013
 21
12.8764
 31
0.0
  0
LINE
  8
0
 62
     0
 10
12.0013
 20
12.8764
 30
0.0
 11
11.2021
 21
12.8764
 31
0.0
  0
LINE
  8
0
 62
     0
 10
11.2021
 20
12.8764
 30
0.0
 11
11.2021
 21
9.77717
 31
0.0
  0
LINE
  8
0
 62
     0
 10
11.2021
 20
9.77717
 30
0.0
 11
12.0013
 21
9.77717
 31
0.0
  0
LINE
  8
0
 62
     0
 10
12.0013
 20
9.77717
 30
0.0
 11
12.0013
 21
8.77672
 31
0.0
  0
LINE
  8
0
 62
     0
 10
12.0013
 20
8.77672
 30
0.0
 11
26.0008
 21
8.77672
 31
0.0
  0
LINE
  8
0
 62
     0
 10
26.0008
 20
8.77672
 30
0.0
 11
26.0008
 21
9.77717
 31
0.0
  0
LINE
  8
0
 62
     0
 10
26.0008
 20
9.77717
 30
0.0
 11
26.8015
 21
9.77717
 31
0.0
  0
LINE
  8
0
 62
     0
 10
26.8015
 20
9.77717
 30
0.0
 11
26.8015
 21
12.8764
 31
0.0
  0
LINE
  8
0
 62
     0
 10
26.8015
 20
12.8764
 30
0.0
 11
26.0008
 21
12.8764
 31
0.0
  0
LINE
  8
0
 62
     0
 10
26.0008
 20
12.8764
 30
0.0
 11
26.0008
 21
18.6779
 31
0.0
  0
LINE
  8
0
 62
     0
 10
26.0008
 20
18.6779
 30
0.0
 11
26.8015
 21
18.6779
 31
0.0
  0
LINE
  8
0
 62
     0
 10
26.8015
 20
18.6779
 30
0.0
 11
26.8015
 21
21.7771
 31
0.0
  0
LINE
  8
0
 62
     0
 10
26.8015
 20
21.7771
 30
0.0
 11
26.0008
 21
21.7771
 31
0.0
  0
LINE
  8
0
 62
     0
 10
26.0008
 20
21.7771
 30
0.0
 11
26.0008
 21
22.7762
 31
0.0
  0
LINE
  8
0
 62
     0
 10
26.0008
 20
22.7762
 30
0.0
 11
12.0013
 21
22.7762
 31
0.0
  0
LINE
  8
0
 62
     0
 10
259.652
 20
41.8264
 30
0.0
 11
259.652
 21
40.827
 31
0.0
  0
LINE
  8
0
 62
     0
 10
259.652
 20
40.827
 30
0.0
 11
258.852
 21
40.827
 31
0.0
  0
LINE
  8
0
 62
     0
 10
258.852
 20
40.827
 30
0.0
 11
258.852
 21
37.7278
 31
0.0
  0
LINE
  8
0
 62
     0
 10
258.852
 20
37.7278
 30
0.0
 11
259.652
 21
37.7278
 31
0.0
  0
LINE
  8
0
 62
     0
 10
259.652
 20
37.7278
 30
0.0
 11
259.652
 21
37.127
 31
0.0
  0
LINE
  8
0
 62
     0
 10
259.652
 20
37.127
 30
0.0
 11
258.126
 21
37.127
 31
0.0
  0
LINE
  8
0
 62
     0
 10
258.126
 20
37.127
 30
0.0
 11
258.126
 21
40.3571
 31
0.0
  0
LINE
  8
0
 62
     0
 10
258.126
 20
40.3571
 30
0.0
 11
251.376
 21
40.3571
 31
0.0
  0
LINE
  8
0
 62
     0
 10
251.376
 20
40.3571
 30
0.0
 11
251.376
 21
37.127
 31
0.0
  0
LINE
  8
0
 62
     0
 10
251.376
 20
37.127
 30
0.0
 11
250.552
 21
37.127
 31
0.0
  0
LINE
  8
0
 62
     0
 10
250.552
 20
37.127
 30
0.0
 11
250.552
 21
34.3269
 31
0.0
  0
LINE
  8
0
 62
     0
 10
250.552
 20
34.3269
 30
0.0
 11
251.376
 21
34.3269
 31
0.0
  0
LINE
  8
0
 62
     0
 10
251.376
 20
34.3269
 30
0.0
 11
251.376
 21
28.0569
 31
0.0
  0
LINE
  8
0
 62
     0
 10
251.376
 20
28.0569
 30
0.0
 11
253.1
 21
28.0569
 31
0.0
  0
LINE
  8
0
 62
     0
 10
253.1
 20
28.0569
 30
0.0
 11
253.1
 21
26.8566
 31
0.0
  0
LINE
  8
0
 62
     0
 10
253.1
 20
26.8566
 30
0.0
 11
256.401
 21
26.8566
 31
0.0
  0
LINE
  8
0
 62
     0
 10
256.401
 20
26.8566
 30
0.0
 11
256.401
 21
28.0569
 31
0.0
  0
LINE
  8
0
 62
     0
 10
256.401
 20
28.0569
 30
0.0
 11
258.126
 21
28.0569
 31
0.0
  0
LINE
  8
0
 62
     0
 10
258.126
 20
28.0569
 30
0.0
 11
258.126
 21
32.5272
 31
0.0
  0
LINE
  8
0
 62
     0
 10
258.126
 20
32.5272
 30
0.0
 11
259.652
 21
32.5272
 31
0.0
  0
LINE
  8
0
 62
     0
 10
259.652
 20
32.5272
 30
0.0
 11
259.652
 21
31.9264
 31
0.0
  0
LINE
  8
0
 62
     0
 10
259.652
 20
31.9264
 30
0.0
 11
258.852
 21
31.9264
 31
0.0
  0
LINE
  8
0
 62
     0
 10
258.852
 20
31.9264
 30
0.0
 11
258.852
 21
28.8272
 31
0.0
  0
LINE
  8
0
 62
     0
 10
258.852
 20
28.8272
 30
0.0
 11
259.652
 21
28.8272
 31
0.0
  0
LINE
  8
0
 62
     0
 10
259.652
 20
28.8272
 30
0.0
 11
259.652
 21
27.8267
 31
0.0
  0
LINE
  8
0
 62
     0
 10
259.652
 20
27.8267
 30
0.0
 11
273.651
 21
27.8267
 31
0.0
  0
LINE
  8
0
 62
     0
 10
273.651
 20
27.8267
 30
0.0
 11
273.651
 21
28.8272
 31
0.0
  0
LINE
  8
0
 62
     0
 10
273.651
 20
28.8272
 30
0.0
 11
274.452
 21
28.8272
 31
0.0
  0
LINE
  8
0
 62
     0
 10
274.452
 20
28.8272
 30
0.0
 11
274.452
 21
31.9264
 31
0.0
  0
LINE
  8
0
 62
     0
 10
274.452
 20
31.9264
 30
0.0
 11
273.651
 21
31.9264
 31
0.0
  0
LINE
  8
0
 62
     0
 10
273.651
 20
31.9264
 30
0.0
 11
273.651
 21
32.5272
 31
0.0
  0
LINE
  8
0
 62
     0
 10
273.651
 20
32.5272
 30
0.0
 11
275.176
 21
32.5272
 31
0.0
  0
LINE
  8
0
 62
     0
 10
275.176
 20
32.5272
 30
0.0
 11
275.176
 21
28.0569
 31
0.0
  0
LINE
  8
0
 62
     0
 10
275.176
 20
28.0569
 30
0.0
 11
276.902
 21
28.0569
 31
0.0
  0
LINE
  8
0
 62
     0
 10
276.902
 20
28.0569
 30
0.0
 11
276.902
 21
26.8566
 31
0.0
  0
LINE
  8
0
 62
     0
 10
276.902
 20
26.8566
 30
0.0
 11
280.202
 21
26.8566
 31
0.0
  0
LINE
  8
0
 62
     0
 10
280.202
 20
26.8566
 30
0.0
 11
280.202
 21
28.0569
 31
0.0
  0
LINE
  8
0
 62
     0
 10
280.202
 20
28.0569
 30
0.0
 11
281.926
 21
28.0569
 31
0.0
  0
LINE
  8
0
 62
     0
 10
281.926
 20
28.0569
 30
0.0
 11
281.926
 21
34.3269
 31
0.0
  0
LINE
  8
0
 62
     0
 10
281.926
 20
34.3269
 30
0.0
 11
282.751
 21
34.3269
 31
0.0
  0
LINE
  8
0
 62
     0
 10
282.751
 20
34.3269
 30
0.0
 11
282.751
 21
37.127
 31
0.0
  0
LINE
  8
0
 62
     0
 10
282.751
 20
37.127
 30
0.0
 11
281.926
 21
37.127
 31
0.0
  0
LINE
  8
0
 62
     0
 10
281.926
 20
37.127
 30
0.0
 11
281.926
 21
40.3571
 31
0.0
  0
LINE
  8
0
 62
     0
 10
281.926
 20
40.3571
 30
0.0
 11
275.176
 21
40.3571
 31
0.0
  0
LINE
  8
0
 62
     0
 10
275.176
 20
40.3571
 30
0.0
 11
275.176
 21
37.127
 31
0.0
  0
LINE
  8
0
 62
     0
 10
275.176
 20
37.127
 30
0.0
 11
273.651
 21
37.127
 31
0.0
  0
LINE
  8
0
 62
     0
 10
273.651
 20
37.127
 30
0.0
 11
273.651
 21
37.7278
 31
0.0
  0
LINE
  8
0
 62
     0
 10
273.651
 20
37.7278
 30
0.0
 11
274.452
 21
37.7278
 31
0.0
  0
LINE
  8
0
 62
     0
 10
274.452
 20
37.7278
 30
0.0
 11
274.452
 21
40.827
 31
0.0
  0
LINE
  8
0
 62
     0
 10
274.452
 20
40.827
 30
0.0
 11
273.651
 21
40.827
 31
0.0
  0
LINE
  8
0
 62
     0
 10
273.651
 20
40.827
 30
0.0
 11
273.651
 21
41.8264
 31
0.0
  0
LINE
  8
0
 62
     0
 10
273.651
 20
41.8264
 30
0.0
 11
259.652
 21
41.8264
 31
0.0
  0
LINE
  8
0
 62
     0
 10
21.5263
 20
41.8264
 30
0.0
 11
21.5263
 21
40.827
 31
0.0
  0
LINE
  8
0
 62
     0
 10
21.5263
 20
40.827
 30
0.0
 11
20.7271
 21
40.827
 31
0.0
  0
LINE
  8
0
 62
     0
 10
20.7271
 20
40.827
 30
0.0
 11
20.7271
 21
37.7278
 31
0.0
  0
LINE
  8
0
 62
     0
 10
20.7271
 20
37.7278
 30
0.0
 11
21.5263
 21
37.7278
 31
0.0
  0
LINE
  8
0
 62
     0
 10
21.5263
 20
37.7278
 30
0.0
 11
21.5263
 21
37.127
 31
0.0
  0
LINE
  8
0
 62
     0
 10
21.5263
 20
37.127
 30
0.0
 11
20.0008
 21
37.127
 31
0.0
  0
LINE
  8
0
 62
     0
 10
20.0008
 20
37.127
 30
0.0
 11
20.0008
 21
40.3571
 31
0.0
  0
LINE
  8
0
 62
     0
 10
20.0008
 20
40.3571
 30
0.0
 11
13.2512
 21
40.3571
 31
0.0
  0
LINE
  8
0
 62
     0
 10
13.2512
 20
40.3571
 30
0.0
 11
13.2512
 21
37.127
 31
0.0
  0
LINE
  8
0
 62
     0
 10
13.2512
 20
37.127
 30
0.0
 11
12.4272
 21
37.127
 31
0.0
  0
LINE
  8
0
 62
     0
 10
12.4272
 20
37.127
 30
0.0
 11
12.4272
 21
34.3269
 31
0.0
  0
LINE
  8
0
 62
     0
 10
12.4272
 20
34.3269
 30
0.0
 11
13.2512
 21
34.3269
 31
0.0
  0
LINE
  8
0
 62
     0
 10
13.2512
 20
34.3269
 30
0.0
 11
13.2512
 21
28.0569
 31
0.0
  0
LINE
  8
0
 62
     0
 10
13.2512
 20
28.0569
 30
0.0
 11
14.9765
 21
28.0569
 31
0.0
  0
LINE
  8
0
 62
     0
 10
14.9765
 20
28.0569
 30
0.0
 11
14.9765
 21
26.8566
 31
0.0
  0
LINE
  8
0
 62
     0
 10
14.9765
 20
26.8566
 30
0.0
 11
18.2769
 21
26.8566
 31
0.0
  0
LINE
  8
0
 62
     0
 10
18.2769
 20
26.8566
 30
0.0
 11
18.2769
 21
28.0569
 31
0.0
  0
LINE
  8
0
 62
     0
 10
18.2769
 20
28.0569
 30
0.0
 11
20.0008
 21
28.0569
 31
0.0
  0
LINE
  8
0
 62
     0
 10
20.0008
 20
28.0569
 30
0.0
 11
20.0008
 21
32.5272
 31
0.0
  0
LINE
  8
0
 62
     0
 10
20.0008
 20
32.5272
 30
0.0
 11
21.5263
 21
32.5272
 31
0.0
  0
LINE
  8
0
 62
     0
 10
21.5263
 20
32.5272
 30
0.0
 11
21.5263
 21
31.9264
 31
0.0
  0
LINE
  8
0
 62
     0
 10
21.5263
 20
31.9264
 30
0.0
 11
20.7271
 21
31.9264
 31
0.0
  0
LINE
  8
0
 62
     0
 10
20.7271
 20
31.9264
 30
0.0
 11
20.7271
 21
28.8272
 31
0.0
  0
LINE
  8
0
 62
     0
 10
20.7271
 20
28.8272
 30
0.0
 11
21.5263
 21
28.8272
 31
0.0
  0
LINE
  8
0
 62
     0
 10
21.5263
 20
28.8272
 30
0.0
 11
21.5263
 21
27.8267
 31
0.0
  0
LINE
  8
0
 62
     0
 10
21.5263
 20
27.8267
 30
0.0
 11
35.5258
 21
27.8267
 31
0.0
  0
LINE
  8
0
 62
     0
 10
35.5258
 20
27.8267
 30
0.0
 11
35.5258
 21
28.8272
 31
0.0
  0
LINE
  8
0
 62
     0
 10
35.5258
 20
28.8272
 30
0.0
 11
36.3266
 21
28.8272
 31
0.0
  0
LINE
  8
0
 62
     0
 10
36.3266
 20
28.8272
 30
0.0
 11
36.3266
 21
31.9264
 31
0.0
  0
LINE
  8
0
 62
     0
 10
36.3266
 20
31.9264
 30
0.0
 11
35.5258
 21
31.9264
 31
0.0
  0
LINE
  8
0
 62
     0
 10
35.5258
 20
31.9264
 30
0.0
 11
35.5258
 21
32.5272
 31
0.0
  0
LINE
  8
0
 62
     0
 10
35.5258
 20
32.5272
 30
0.0
 11
37.0512
 21
32.5272
 31
0.0
  0
LINE
  8
0
 62
     0
 10
37.0512
 20
32.5272
 30
0.0
 11
37.0512
 21
28.0569
 31
0.0
  0
LINE
  8
0
 62
     0
 10
37.0512
 20
28.0569
 30
0.0
 11
38.7766
 21
28.0569
 31
0.0
  0
LINE
  8
0
 62
     0
 10
38.7766
 20
28.0569
 30
0.0
 11
38.7766
 21
26.8566
 31
0.0
  0
LINE
  8
0
 62
     0
 10
38.7766
 20
26.8566
 30
0.0
 11
42.0769
 21
26.8566
 31
0.0
  0
LINE
  8
0
 62
     0
 10
42.0769
 20
26.8566
 30
0.0
 11
42.0769
 21
28.0569
 31
0.0
  0
LINE
  8
0
 62
     0
 10
42.0769
 20
28.0569
 30
0.0
 11
43.8009
 21
28.0569
 31
0.0
  0
LINE
  8
0
 62
     0
 10
43.8009
 20
28.0569
 30
0.0
 11
43.8009
 21
34.3269
 31
0.0
  0
LINE
  8
0
 62
     0
 10
43.8009
 20
34.3269
 30
0.0
 11
44.6264
 21
34.3269
 31
0.0
  0
LINE
  8
0
 62
     0
 10
44.6264
 20
34.3269
 30
0.0
 11
44.6264
 21
37.127
 31
0.0
  0
LINE
  8
0
 62
     0
 10
44.6264
 20
37.127
 30
0.0
 11
43.8009
 21
37.127
 31
0.0
  0
LINE
  8
0
 62
     0
 10
43.8009
 20
37.127
 30
0.0
 11
43.8009
 21
40.3571
 31
0.0
  0
LINE
  8
0
 62
     0
 10
43.8009
 20
40.3571
 30
0.0
 11
37.0512
 21
40.3571
 31
0.0
  0
LINE
  8
0
 62
     0
 10
37.0512
 20
40.3571
 30
0.0
 11
37.0512
 21
37.127
 31
0.0
  0
LINE
  8
0
 62
     0
 10
37.0512
 20
37.127
 30
0.0
 11
35.5258
 21
37.127
 31
0.0
  0
LINE
  8
0
 62
     0
 10
35.5258
 20
37.127
 30
0.0
 11
35.5258
 21
37.7278
 31
0.0
  0
LINE
  8
0
 62
     0
 10
35.5258
 20
37.7278
 30
0.0
 11
36.3266
 21
37.7278
 31
0.0
  0
LINE
  8
0
 62
     0
 10
36.3266
 20
37.7278
 30
0.0
 11
36.3266
 21
40.827
 31
0.0
  0
LINE
  8
0
 62
     0
 10
36.3266
 20
40.827
 30
0.0
 11
35.5258
 21
40.827
 31
0.0
  0
LINE
  8
0
 62
     0
 10
35.5258
 20
40.827
 30
0.0
 11
35.5258
 21
41.8264
 31
0.0
  0
LINE
  8
0
 62
     0
 10
35.5258
 20
41.8264
 30
0.0
 11
21.5263
 21
41.8264
 31
0.0
  0
LINE
  8
0
 62
     0
 10
333.47
 20
41.8264
 30
0.0
 11
333.47
 21
40.827
 31
0.0
  0
LINE
  8
0
 62
     0
 10
333.47
 20
40.827
 30
0.0
 11
332.671
 21
40.827
 31
0.0
  0
LINE
  8
0
 62
     0
 10
332.671
 20
40.827
 30
0.0
 11
332.671
 21
37.7278
 31
0.0
  0
LINE
  8
0
 62
     0
 10
332.671
 20
37.7278
 30
0.0
 11
333.47
 21
37.7278
 31
0.0
  0
LINE
  8
0
 62
     0
 10
333.47
 20
37.7278
 30
0.0
 11
333.47
 21
31.9264
 31
0.0
  0
LINE
  8
0
 62
     0
 10
333.47
 20
31.9264
 30
0.0
 11
332.671
 21
31.9264
 31
0.0
  0
LINE
  8
0
 62
     0
 10
332.671
 20
31.9264
 30
0.0
 11
332.671
 21
28.8272
 31
0.0
  0
LINE
  8
0
 62
     0
 10
332.671
 20
28.8272
 30
0.0
 11
333.47
 21
28.8272
 31
0.0
  0
LINE
  8
0
 62
     0
 10
333.47
 20
28.8272
 30
0.0
 11
333.47
 21
27.8267
 31
0.0
  0
LINE
  8
0
 62
     0
 10
333.47
 20
27.8267
 30
0.0
 11
347.471
 21
27.8267
 31
0.0
  0
LINE
  8
0
 62
     0
 10
347.471
 20
27.8267
 30
0.0
 11
347.471
 21
28.8272
 31
0.0
  0
LINE
  8
0
 62
     0
 10
347.471
 20
28.8272
 30
0.0
 11
348.27
 21
28.8272
 31
0.0
  0
LINE
  8
0
 62
     0
 10
348.27
 20
28.8272
 30
0.0
 11
348.27
 21
31.9264
 31
0.0
  0
LINE
  8
0
 62
     0
 10
348.27
 20
31.9264
 30
0.0
 11
347.471
 21
31.9264
 31
0.0
  0
LINE
  8
0
 62
     0
 10
347.471
 20
31.9264
 30
0.0
 11
347.471
 21
37.7278
 31
0.0
  0
LINE
  8
0
 62
     0
 10
347.471
 20
37.7278
 30
0.0
 11
348.27
 21
37.7278
 31
0.0
  0
LINE
  8
0
 62
     0
 10
348.27
 20
37.7278
 30
0.0
 11
348.27
 21
40.827
 31
0.0
  0
LINE
  8
0
 62
     0
 10
348.27
 20
40.827
 30
0.0
 11
347.471
 21
40.827
 31
0.0
  0
LINE
  8
0
 62
     0
 10
347.471
 20
40.827
 30
0.0
 11
347.471
 21
41.8264
 31
0.0
  0
LINE
  8
0
 62
     0
 10
347.471
 20
41.8264
 30
0.0
 11
333.47
 21
41.8264
 31
0.0
  0
LINE
  8
0
 62
     0
 10
314.42
 20
41.8264
 30
0.0
 11
314.42
 21
40.827
 31
0.0
  0
LINE
  8
0
 62
     0
 10
314.42
 20
40.827
 30
0.0
 11
313.621
 21
40.827
 31
0.0
  0
LINE
  8
0
 62
     0
 10
313.621
 20
40.827
 30
0.0
 11
313.621
 21
37.7278
 31
0.0
  0
LINE
  8
0
 62
     0
 10
313.621
 20
37.7278
 30
0.0
 11
314.42
 21
37.7278
 31
0.0
  0
LINE
  8
0
 62
     0
 10
314.42
 20
37.7278
 30
0.0
 11
314.42
 21
31.9264
 31
0.0
  0
LINE
  8
0
 62
     0
 10
314.42
 20
31.9264
 30
0.0
 11
313.621
 21
31.9264
 31
0.0
  0
LINE
  8
0
 62
     0
 10
313.621
 20
31.9264
 30
0.0
 11
313.621
 21
28.8272
 31
0.0
  0
LINE
  8
0
 62
     0
 10
313.621
 20
28.8272
 30
0.0
 11
314.42
 21
28.8272
 31
0.0
  0
LINE
  8
0
 62
     0
 10
314.42
 20
28.8272
 30
0.0
 11
314.42
 21
27.8267
 31
0.0
  0
LINE
  8
0
 62
     0
 10
314.42
 20
27.8267
 30
0.0
 11
328.421
 21
27.8267
 31
0.0
  0
LINE
  8
0
 62
     0
 10
328.421
 20
27.8267
 30
0.0
 11
328.421
 21
28.8272
 31
0.0
  0
LINE
  8
0
 62
     0
 10
328.421
 20
28.8272
 30
0.0
 11
329.22
 21
28.8272
 31
0.0
  0
LINE
  8
0
 62
     0
 10
329.22
 20
28.8272
 30
0.0
 11
329.22
 21
31.9264
 31
0.0
  0
LINE
  8
0
 62
     0
 10
329.22
 20
31.9264
 30
0.0
 11
328.421
 21
31.9264
 31
0.0
  0
LINE
  8
0
 62
     0
 10
328.421
 20
31.9264
 30
0.0
 11
328.421
 21
37.7278
 31
0.0
  0
LINE
  8
0
 62
     0
 10
328.421
 20
37.7278
 30
0.0
 11
329.22
 21
37.7278
 31
0.0
  0
LINE
  8
0
 62
     0
 10
329.22
 20
37.7278
 30
0.0
 11
329.22
 21
40.827
 31
0.0
  0
LINE
  8
0
 62
     0
 10
329.22
 20
40.827
 30
0.0
 11
328.421
 21
40.827
 31
0.0
  0
LINE
  8
0
 62
     0
 10
328.421
 20
40.827
 30
0.0
 11
328.421
 21
41.8264
 31
0.0
  0
LINE
  8
0
 62
     0
 10
328.421
 20
41.8264
 30
0.0
 11
314.42
 21
41.8264
 31
0.0
  0
LINE
  8
0
 62
     0
 10
295.37
 20
41.8264
 30
0.0
 11
295.37
 21
40.827
 31
0.0
  0
LINE
  8
0
 62
     0
 10
295.37
 20
40.827
 30
0.0
 11
294.571
 21
40.827
 31
0.0
  0
LINE
  8
0
 62
     0
 10
294.571
 20
40.827
 30
0.0
 11
294.571
 21
37.7278
 31
0.0
  0
LINE
  8
0
 62
     0
 10
294.571
 20
37.7278
 30
0.0
 11
295.37
 21
37.7278
 31
0.0
  0
LINE
  8
0
 62
     0
 10
295.37
 20
37.7278
 30
0.0
 11
295.37
 21
31.9264
 31
0.0
  0
LINE
  8
0
 62
     0
 10
295.37
 20
31.9264
 30
0.0
 11
294.571
 21
31.9264
 31
0.0
  0
LINE
  8
0
 62
     0
 10
294.571
 20
31.9264
 30
0.0
 11
294.571
 21
28.8272
 31
0.0
  0
LINE
  8
0
 62
     0
 10
294.571
 20
28.8272
 30
0.0
 11
295.37
 21
28.8272
 31
0.0
  0
LINE
  8
0
 62
     0
 10
295.37
 20
28.8272
 30
0.0
 11
295.37
 21
27.8267
 31
0.0
  0
LINE
  8
0
 62
     0
 10
295.37
 20
27.8267
 30
0.0
 11
309.371
 21
27.8267
 31
0.0
  0
LINE
  8
0
 62
     0
 10
309.371
 20
27.8267
 30
0.0
 11
309.371
 21
28.8272
 31
0.0
  0
LINE
  8
0
 62
     0
 10
309.371
 20
28.8272
 30
0.0
 11
310.17
 21
28.8272
 31
0.0
  0
LINE
  8
0
 62
     0
 10
310.17
 20
28.8272
 30
0.0
 11
310.17
 21
31.9264
 31
0.0
  0
LINE
  8
0
 62
     0
 10
310.17
 20
31.9264
 30
0.0
 11
309.371
 21
31.9264
 31
0.0
  0
LINE
  8
0
 62
     0
 10
309.371
 20
31.9264
 30
0.0
 11
309.371
 21
37.7278
 31
0.0
  0
LINE
  8
0
 62
     0
 10
309.371
 20
37.7278
 30
0.0
 11
310.17
 21
37.7278
 31
0.0
  0
LINE
  8
0
 62
     0
 10
310.17
 20
37.7278
 30
0.0
 11
310.17
 21
40.827
 31
0.0
  0
LINE
  8
0
 62
     0
 10
310.17
 20
40.827
 30
0.0
 11
309.371
 21
40.827
 31
0.0
  0
LINE
  8
0
 62
     0
 10
309.371
 20
40.827
 30
0.0
 11
309.371
 21
41.8264
 31
0.0
  0
LINE
  8
0
 62
     0
 10
309.371
 20
41.8264
 30
0.0
 11
295.37
 21
41.8264
 31
0.0
  0
LINE
  8
0
 62
     0
 10
223.933
 20
41.8264
 30
0.0
 11
223.933
 21
40.827
 31
0.0
  0
LINE
  8
0
 62
     0
 10
223.933
 20
40.827
 30
0.0
 11
223.132
 21
40.827
 31
0.0
  0
LINE
  8
0
 62
     0
 10
223.132
 20
40.827
 30
0.0
 11
223.132
 21
37.7278
 31
0.0
  0
LINE
  8
0
 62
     0
 10
223.132
 20
37.7278
 30
0.0
 11
223.933
 21
37.7278
 31
0.0
  0
LINE
  8
0
 62
     0
 10
223.933
 20
37.7278
 30
0.0
 11
223.933
 21
31.9264
 31
0.0
  0
LINE
  8
0
 62
     0
 10
223.933
 20
31.9264
 30
0.0
 11
223.132
 21
31.9264
 31
0.0
  0
LINE
  8
0
 62
     0
 10
223.132
 20
31.9264
 30
0.0
 11
223.132
 21
28.8272
 31
0.0
  0
LINE
  8
0
 62
     0
 10
223.132
 20
28.8272
 30
0.0
 11
223.933
 21
28.8272
 31
0.0
  0
LINE
  8
0
 62
     0
 10
223.933
 20
28.8272
 30
0.0
 11
223.933
 21
27.8267
 31
0.0
  0
LINE
  8
0
 62
     0
 10
223.933
 20
27.8267
 30
0.0
 11
237.932
 21
27.8267
 31
0.0
  0
LINE
  8
0
 62
     0
 10
237.932
 20
27.8267
 30
0.0
 11
237.932
 21
28.8272
 31
0.0
  0
LINE
  8
0
 62
     0
 10
237.932
 20
28.8272
 30
0.0
 11
238.733
 21
28.8272
 31
0.0
  0
LINE
  8
0
 62
     0
 10
238.733
 20
28.8272
 30
0.0
 11
238.733
 21
31.9264
 31
0.0
  0
LINE
  8
0
 62
     0
 10
238.733
 20
31.9264
 30
0.0
 11
237.932
 21
31.9264
 31
0.0
  0
LINE
  8
0
 62
     0
 10
237.932
 20
31.9264
 30
0.0
 11
237.932
 21
37.7278
 31
0.0
  0
LINE
  8
0
 62
     0
 10
237.932
 20
37.7278
 30
0.0
 11
238.733
 21
37.7278
 31
0.0
  0
LINE
  8
0
 62
     0
 10
238.733
 20
37.7278
 30
0.0
 11
238.733
 21
40.827
 31
0.0
  0
LINE
  8
0
 62
     0
 10
238.733
 20
40.827
 30
0.0
 11
237.932
 21
40.827
 31
0.0
  0
LINE
  8
0
 62
     0
 10
237.932
 20
40.827
 30
0.0
 11
237.932
 21
41.8264
 31
0.0
  0
LINE
  8
0
 62
     0
 10
237.932
 20
41.8264
 30
0.0
 11
223.933
 21
41.8264
 31
0.0
  0
LINE
  8
0
 62
     0
 10
204.883
 20
41.8264
 30
0.0
 11
204.883
 21
40.827
 31
0.0
  0
LINE
  8
0
 62
     0
 10
204.883
 20
40.827
 30
0.0
 11
204.082
 21
40.827
 31
0.0
  0
LINE
  8
0
 62
     0
 10
204.082
 20
40.827
 30
0.0
 11
204.082
 21
37.7278
 31
0.0
  0
LINE
  8
0
 62
     0
 10
204.082
 20
37.7278
 30
0.0
 11
204.883
 21
37.7278
 31
0.0
  0
LINE
  8
0
 62
     0
 10
204.883
 20
37.7278
 30
0.0
 11
204.883
 21
31.9264
 31
0.0
  0
LINE
  8
0
 62
     0
 10
204.883
 20
31.9264
 30
0.0
 11
204.082
 21
31.9264
 31
0.0
  0
LINE
  8
0
 62
     0
 10
204.082
 20
31.9264
 30
0.0
 11
204.082
 21
28.8272
 31
0.0
  0
LINE
  8
0
 62
     0
 10
204.082
 20
28.8272
 30
0.0
 11
204.883
 21
28.8272
 31
0.0
  0
LINE
  8
0
 62
     0
 10
204.883
 20
28.8272
 30
0.0
 11
204.883
 21
27.8267
 31
0.0
  0
LINE
  8
0
 62
     0
 10
204.883
 20
27.8267
 30
0.0
 11
218.882
 21
27.8267
 31
0.0
  0
LINE
  8
0
 62
     0
 10
218.882
 20
27.8267
 30
0.0
 11
218.882
 21
28.8272
 31
0.0
  0
LINE
  8
0
 62
     0
 10
218.882
 20
28.8272
 30
0.0
 11
219.683
 21
28.8272
 31
0.0
  0
LINE
  8
0
 62
     0
 10
219.683
 20
28.8272
 30
0.0
 11
219.683
 21
31.9264
 31
0.0
  0
LINE
  8
0
 62
     0
 10
219.683
 20
31.9264
 30
0.0
 11
218.882
 21
31.9264
 31
0.0
  0
LINE
  8
0
 62
     0
 10
218.882
 20
31.9264
 30
0.0
 11
218.882
 21
37.7278
 31
0.0
  0
LINE
  8
0
 62
     0
 10
218.882
 20
37.7278
 30
0.0
 11
219.683
 21
37.7278
 31
0.0
  0
LINE
  8
0
 62
     0
 10
219.683
 20
37.7278
 30
0.0
 11
219.683
 21
40.827
 31
0.0
  0
LINE
  8
0
 62
     0
 10
219.683
 20
40.827
 30
0.0
 11
218.882
 21
40.827
 31
0.0
  0
LINE
  8
0
 62
     0
 10
218.882
 20
40.827
 30
0.0
 11
218.882
 21
41.8264
 31
0.0
  0
LINE
  8
0
 62
     0
 10
218.882
 20
41.8264
 30
0.0
 11
204.883
 21
41.8264
 31
0.0
  0
LINE
  8
0
 62
     0
 10
185.833
 20
41.8264
 30
0.0
 11
185.833
 21
40.827
 31
0.0
  0
LINE
  8
0
 62
     0
 10
185.833
 20
40.827
 30
0.0
 11
185.032
 21
40.827
 31
0.0
  0
LINE
  8
0
 62
     0
 10
185.032
 20
40.827
 30
0.0
 11
185.032
 21
37.7278
 31
0.0
  0
LINE
  8
0
 62
     0
 10
185.032
 20
37.7278
 30
0.0
 11
185.833
 21
37.7278
 31
0.0
  0
LINE
  8
0
 62
     0
 10
185.833
 20
37.7278
 30
0.0
 11
185.833
 21
31.9264
 31
0.0
  0
LINE
  8
0
 62
     0
 10
185.833
 20
31.9264
 30
0.0
 11
185.032
 21
31.9264
 31
0.0
  0
LINE
  8
0
 62
     0
 10
185.032
 20
31.9264
 30
0.0
 11
185.032
 21
28.8272
 31
0.0
  0
LINE
  8
0
 62
     0
 10
185.032
 20
28.8272
 30
0.0
 11
185.833
 21
28.8272
 31
0.0
  0
LINE
  8
0
 62
     0
 10
185.833
 20
28.8272
 30
0.0
 11
185.833
 21
27.8267
 31
0.0
  0
LINE
  8
0
 62
     0
 10
185.833
 20
27.8267
 30
0.0
 11
199.832
 21
27.8267
 31
0.0
  0
LINE
  8
0
 62
     0
 10
199.832
 20
27.8267
 30
0.0
 11
199.832
 21
28.8272
 31
0.0
  0
LINE
  8
0
 62
     0
 10
199.832
 20
28.8272
 30
0.0
 11
200.633
 21
28.8272
 31
0.0
  0
LINE
  8
0
 62
     0
 10
200.633
 20
28.8272
 30
0.0
 11
200.633
 21
31.9264
 31
0.0
  0
LINE
  8
0
 62
     0
 10
200.633
 20
31.9264
 30
0.0
 11
199.832
 21
31.9264
 31
0.0
  0
LINE
  8
0
 62
     0
 10
199.832
 20
31.9264
 30
0.0
 11
199.832
 21
37.7278
 31
0.0
  0
LINE
  8
0
 62
     0
 10
199.832
 20
37.7278
 30
0.0
 11
200.633
 21
37.7278
 31
0.0
  0
LINE
  8
0
 62
     0
 10
200.633
 20
37.7278
 30
0.0
 11
200.633
 21
40.827
 31
0.0
  0
LINE
  8
0
 62
     0
 10
200.633
 20
40.827
 30
0.0
 11
199.832
 21
40.827
 31
0.0
  0
LINE
  8
0
 62
     0
 10
199.832
 20
40.827
 30
0.0
 11
199.832
 21
41.8264
 31
0.0
  0
LINE
  8
0
 62
     0
 10
199.832
 20
41.8264
 30
0.0
 11
185.833
 21
41.8264
 31
0.0
  0
LINE
  8
0
 62
     0
 10
166.783
 20
41.8264
 30
0.0
 11
166.783
 21
40.827
 31
0.0
  0
LINE
  8
0
 62
     0
 10
166.783
 20
40.827
 30
0.0
 11
165.982
 21
40.827
 31
0.0
  0
LINE
  8
0
 62
     0
 10
165.982
 20
40.827
 30
0.0
 11
165.982
 21
37.7278
 31
0.0
  0
LINE
  8
0
 62
     0
 10
165.982
 20
37.7278
 30
0.0
 11
166.783
 21
37.7278
 31
0.0
  0
LINE
  8
0
 62
     0
 10
166.783
 20
37.7278
 30
0.0
 11
166.783
 21
31.9264
 31
0.0
  0
LINE
  8
0
 62
     0
 10
166.783
 20
31.9264
 30
0.0
 11
165.982
 21
31.9264
 31
0.0
  0
LINE
  8
0
 62
     0
 10
165.982
 20
31.9264
 30
0.0
 11
165.982
 21
28.8272
 31
0.0
  0
LINE
  8
0
 62
     0
 10
165.982
 20
28.8272
 30
0.0
 11
166.783
 21
28.8272
 31
0.0
  0
LINE
  8
0
 62
     0
 10
166.783
 20
28.8272
 30
0.0
 11
166.783
 21
27.8267
 31
0.0
  0
LINE
  8
0
 62
     0
 10
166.783
 20
27.8267
 30
0.0
 11
180.782
 21
27.8267
 31
0.0
  0
LINE
  8
0
 62
     0
 10
180.782
 20
27.8267
 30
0.0
 11
180.782
 21
28.8272
 31
0.0
  0
LINE
  8
0
 62
     0
 10
180.782
 20
28.8272
 30
0.0
 11
181.583
 21
28.8272
 31
0.0
  0
LINE
  8
0
 62
     0
 10
181.583
 20
28.8272
 30
0.0
 11
181.583
 21
31.9264
 31
0.0
  0
LINE
  8
0
 62
     0
 10
181.583
 20
31.9264
 30
0.0
 11
180.782
 21
31.9264
 31
0.0
  0
LINE
  8
0
 62
     0
 10
180.782
 20
31.9264
 30
0.0
 11
180.782
 21
37.7278
 31
0.0
  0
LINE
  8
0
 62
     0
 10
180.782
 20
37.7278
 30
0.0
 11
181.583
 21
37.7278
 31
0.0
  0
LINE
  8
0
 62
     0
 10
181.583
 20
37.7278
 30
0.0
 11
181.583
 21
40.827
 31
0.0
  0
LINE
  8
0
 62
     0
 10
181.583
 20
40.827
 30
0.0
 11
180.782
 21
40.827
 31
0.0
  0
LINE
  8
0
 62
     0
 10
180.782
 20
40.827
 30
0.0
 11
180.782
 21
41.8264
 31
0.0
  0
LINE
  8
0
 62
     0
 10
180.782
 20
41.8264
 30
0.0
 11
166.783
 21
41.8264
 31
0.0
  0
LINE
  8
0
 62
     0
 10
147.733
 20
41.8264
 30
0.0
 11
147.733
 21
40.827
 31
0.0
  0
LINE
  8
0
 62
     0
 10
147.733
 20
40.827
 30
0.0
 11
146.932
 21
40.827
 31
0.0
  0
LINE
  8
0
 62
     0
 10
146.932
 20
40.827
 30
0.0
 11
146.932
 21
37.7278
 31
0.0
  0
LINE
  8
0
 62
     0
 10
146.932
 20
37.7278
 30
0.0
 11
147.733
 21
37.7278
 31
0.0
  0
LINE
  8
0
 62
     0
 10
147.733
 20
37.7278
 30
0.0
 11
147.733
 21
31.9264
 31
0.0
  0
LINE
  8
0
 62
     0
 10
147.733
 20
31.9264
 30
0.0
 11
146.932
 21
31.9264
 31
0.0
  0
LINE
  8
0
 62
     0
 10
146.932
 20
31.9264
 30
0.0
 11
146.932
 21
28.8272
 31
0.0
  0
LINE
  8
0
 62
     0
 10
146.932
 20
28.8272
 30
0.0
 11
147.733
 21
28.8272
 31
0.0
  0
LINE
  8
0
 62
     0
 10
147.733
 20
28.8272
 30
0.0
 11
147.733
 21
27.8267
 31
0.0
  0
LINE
  8
0
 62
     0
 10
147.733
 20
27.8267
 30
0.0
 11
161.732
 21
27.8267
 31
0.0
  0
LINE
  8
0
 62
     0
 10
161.732
 20
27.8267
 30
0.0
 11
161.732
 21
28.8272
 31
0.0
  0
LINE
  8
0
 62
     0
 10
161.732
 20
28.8272
 30
0.0
 11
162.533
 21
28.8272
 31
0.0
  0
LINE
  8
0
 62
     0
 10
162.533
 20
28.8272
 30
0.0
 11
162.533
 21
31.9264
 31
0.0
  0
LINE
  8
0
 62
     0
 10
162.533
 20
31.9264
 30
0.0
 11
161.732
 21
31.9264
 31
0.0
  0
LINE
  8
0
 62
     0
 10
161.732
 20
31.9264
 30
0.0
 11
161.732
 21
37.7278
 31
0.0
  0
LINE
  8
0
 62
     0
 10
161.732
 20
37.7278
 30
0.0
 11
162.533
 21
37.7278
 31
0.0
  0
LINE
  8
0
 62
     0
 10
162.533
 20
37.7278
 30
0.0
 11
162.533
 21
40.827
 31
0.0
  0
LINE
  8
0
 62
     0
 10
162.533
 20
40.827
 30
0.0
 11
161.732
 21
40.827
 31
0.0
  0
LINE
  8
0
 62
     0
 10
161.732
 20
40.827
 30
0.0
 11
161.732
 21
41.8264
 31
0.0
  0
LINE
  8
0
 62
     0
 10
161.732
 20
41.8264
 30
0.0
 11
147.733
 21
41.8264
 31
0.0
  0
LINE
  8
0
 62
     0
 10
128.683
 20
41.8264
 30
0.0
 11
128.683
 21
40.827
 31
0.0
  0
LINE
  8
0
 62
     0
 10
128.683
 20
40.827
 30
0.0
 11
127.882
 21
40.827
 31
0.0
  0
LINE
  8
0
 62
     0
 10
127.882
 20
40.827
 30
0.0
 11
127.882
 21
37.7278
 31
0.0
  0
LINE
  8
0
 62
     0
 10
127.882
 20
37.7278
 30
0.0
 11
128.683
 21
37.7278
 31
0.0
  0
LINE
  8
0
 62
     0
 10
128.683
 20
37.7278
 30
0.0
 11
128.683
 21
31.9264
 31
0.0
  0
LINE
  8
0
 62
     0
 10
128.683
 20
31.9264
 30
0.0
 11
127.882
 21
31.9264
 31
0.0
  0
LINE
  8
0
 62
     0
 10
127.882
 20
31.9264
 30
0.0
 11
127.882
 21
28.8272
 31
0.0
  0
LINE
  8
0
 62
     0
 10
127.882
 20
28.8272
 30
0.0
 11
128.683
 21
28.8272
 31
0.0
  0
LINE
  8
0
 62
     0
 10
128.683
 20
28.8272
 30
0.0
 11
128.683
 21
27.8267
 31
0.0
  0
LINE
  8
0
 62
     0
 10
128.683
 20
27.8267
 30
0.0
 11
142.682
 21
27.8267
 31
0.0
  0
LINE
  8
0
 62
     0
 10
142.682
 20
27.8267
 30
0.0
 11
142.682
 21
28.8272
 31
0.0
  0
LINE
  8
0
 62
     0
 10
142.682
 20
28.8272
 30
0.0
 11
143.483
 21
28.8272
 31
0.0
  0
LINE
  8
0
 62
     0
 10
143.483
 20
28.8272
 30
0.0
 11
143.483
 21
31.9264
 31
0.0
  0
LINE
  8
0
 62
     0
 10
143.483
 20
31.9264
 30
0.0
 11
142.682
 21
31.9264
 31
0.0
  0
LINE
  8
0
 62
     0
 10
142.682
 20
31.9264
 30
0.0
 11
142.682
 21
37.7278
 31
0.0
  0
LINE
  8
0
 62
     0
 10
142.682
 20
37.7278
 30
0.0
 11
143.483
 21
37.7278
 31
0.0
  0
LINE
  8
0
 62
     0
 10
143.483
 20
37.7278
 30
0.0
 11
143.483
 21
40.827
 31
0.0
  0
LINE
  8
0
 62
     0
 10
143.483
 20
40.827
 30
0.0
 11
142.682
 21
40.827
 31
0.0
  0
LINE
  8
0
 62
     0
 10
142.682
 20
40.827
 30
0.0
 11
142.682
 21
41.8264
 31
0.0
  0
LINE
  8
0
 62
     0
 10
142.682
 20
41.8264
 30
0.0
 11
128.683
 21
41.8264
 31
0.0
  0
LINE
  8
0
 62
     0
 10
109.633
 20
41.8264
 30
0.0
 11
109.633
 21
40.827
 31
0.0
  0
LINE
  8
0
 62
     0
 10
109.633
 20
40.827
 30
0.0
 11
108.832
 21
40.827
 31
0.0
  0
LINE
  8
0
 62
     0
 10
108.832
 20
40.827
 30
0.0
 11
108.832
 21
37.7278
 31
0.0
  0
LINE
  8
0
 62
     0
 10
108.832
 20
37.7278
 30
0.0
 11
109.633
 21
37.7278
 31
0.0
  0
LINE
  8
0
 62
     0
 10
109.633
 20
37.7278
 30
0.0
 11
109.633
 21
31.9264
 31
0.0
  0
LINE
  8
0
 62
     0
 10
109.633
 20
31.9264
 30
0.0
 11
108.832
 21
31.9264
 31
0.0
  0
LINE
  8
0
 62
     0
 10
108.832
 20
31.9264
 30
0.0
 11
108.832
 21
28.8272
 31
0.0
  0
LINE
  8
0
 62
     0
 10
108.832
 20
28.8272
 30
0.0
 11
109.633
 21
28.8272
 31
0.0
  0
LINE
  8
0
 62
     0
 10
109.633
 20
28.8272
 30
0.0
 11
109.633
 21
27.8267
 31
0.0
  0
LINE
  8
0
 62
     0
 10
109.633
 20
27.8267
 30
0.0
 11
123.632
 21
27.8267
 31
0.0
  0
LINE
  8
0
 62
     0
 10
123.632
 20
27.8267
 30
0.0
 11
123.632
 21
28.8272
 31
0.0
  0
LINE
  8
0
 62
     0
 10
123.632
 20
28.8272
 30
0.0
 11
124.431
 21
28.8272
 31
0.0
  0
LINE
  8
0
 62
     0
 10
124.431
 20
28.8272
 30
0.0
 11
124.431
 21
31.9264
 31
0.0
  0
LINE
  8
0
 62
     0
 10
124.431
 20
31.9264
 30
0.0
 11
123.632
 21
31.9264
 31
0.0
  0
LINE
  8
0
 62
     0
 10
123.632
 20
31.9264
 30
0.0
 11
123.632
 21
37.7278
 31
0.0
  0
LINE
  8
0
 62
     0
 10
123.632
 20
37.7278
 30
0.0
 11
124.431
 21
37.7278
 31
0.0
  0
LINE
  8
0
 62
     0
 10
124.431
 20
37.7278
 30
0.0
 11
124.431
 21
40.827
 31
0.0
  0
LINE
  8
0
 62
     0
 10
124.431
 20
40.827
 30
0.0
 11
123.632
 21
40.827
 31
0.0
  0
LINE
  8
0
 62
     0
 10
123.632
 20
40.827
 30
0.0
 11
123.632
 21
41.8264
 31
0.0
  0
LINE
  8
0
 62
     0
 10
123.632
 20
41.8264
 30
0.0
 11
109.633
 21
41.8264
 31
0.0
  0
LINE
  8
0
 62
     0
 10
90.5827
 20
41.8264
 30
0.0
 11
90.5827
 21
40.827
 31
0.0
  0
LINE
  8
0
 62
     0
 10
90.5827
 20
40.827
 30
0.0
 11
89.7819
 21
40.827
 31
0.0
  0
LINE
  8
0
 62
     0
 10
89.7819
 20
40.827
 30
0.0
 11
89.7819
 21
37.7278
 31
0.0
  0
LINE
  8
0
 62
     0
 10
89.7819
 20
37.7278
 30
0.0
 11
90.5827
 21
37.7278
 31
0.0
  0
LINE
  8
0
 62
     0
 10
90.5827
 20
37.7278
 30
0.0
 11
90.5827
 21
31.9264
 31
0.0
  0
LINE
  8
0
 62
     0
 10
90.5827
 20
31.9264
 30
0.0
 11
89.7819
 21
31.9264
 31
0.0
  0
LINE
  8
0
 62
     0
 10
89.7819
 20
31.9264
 30
0.0
 11
89.7819
 21
28.8272
 31
0.0
  0
LINE
  8
0
 62
     0
 10
89.7819
 20
28.8272
 30
0.0
 11
90.5827
 21
28.8272
 31
0.0
  0
LINE
  8
0
 62
     0
 10
90.5827
 20
28.8272
 30
0.0
 11
90.5827
 21
27.8267
 31
0.0
  0
LINE
  8
0
 62
     0
 10
90.5827
 20
27.8267
 30
0.0
 11
104.582
 21
27.8267
 31
0.0
  0
LINE
  8
0
 62
     0
 10
104.582
 20
27.8267
 30
0.0
 11
104.582
 21
28.8272
 31
0.0
  0
LINE
  8
0
 62
     0
 10
104.582
 20
28.8272
 30
0.0
 11
105.383
 21
28.8272
 31
0.0
  0
LINE
  8
0
 62
     0
 10
105.383
 20
28.8272
 30
0.0
 11
105.383
 21
31.9264
 31
0.0
  0
LINE
  8
0
 62
     0
 10
105.383
 20
31.9264
 30
0.0
 11
104.582
 21
31.9264
 31
0.0
  0
LINE
  8
0
 62
     0
 10
104.582
 20
31.9264
 30
0.0
 11
104.582
 21
37.7278
 31
0.0
  0
LINE
  8
0
 62
     0
 10
104.582
 20
37.7278
 30
0.0
 11
105.383
 21
37.7278
 31
0.0
  0
LINE
  8
0
 62
     0
 10
105.383
 20
37.7278
 30
0.0
 11
105.383
 21
40.827
 31
0.0
  0
LINE
  8
0
 62
     0
 10
105.383
 20
40.827
 30
0.0
 11
104.582
 21
40.827
 31
0.0
  0
LINE
  8
0
 62
     0
 10
104.582
 20
40.827
 30
0.0
 11
104.582
 21
41.8264
 31
0.0
  0
LINE
  8
0
 62
     0
 10
104.582
 20
41.8264
 30
0.0
 11
90.5827
 21
41.8264
 31
0.0
  0
LINE
  8
0
 62
     0
 10
71.5328
 20
41.8264
 30
0.0
 11
71.5328
 21
40.827
 31
0.0
  0
LINE
  8
0
 62
     0
 10
71.5328
 20
40.827
 30
0.0
 11
70.7319
 21
40.827
 31
0.0
  0
LINE
  8
0
 62
     0
 10
70.7319
 20
40.827
 30
0.0
 11
70.7319
 21
37.7278
 31
0.0
  0
LINE
  8
0
 62
     0
 10
70.7319
 20
37.7278
 30
0.0
 11
71.5328
 21
37.7278
 31
0.0
  0
LINE
  8
0
 62
     0
 10
71.5328
 20
37.7278
 30
0.0
 11
71.5328
 21
31.9264
 31
0.0
  0
LINE
  8
0
 62
     0
 10
71.5328
 20
31.9264
 30
0.0
 11
70.7319
 21
31.9264
 31
0.0
  0
LINE
  8
0
 62
     0
 10
70.7319
 20
31.9264
 30
0.0
 11
70.7319
 21
28.8272
 31
0.0
  0
LINE
  8
0
 62
     0
 10
70.7319
 20
28.8272
 30
0.0
 11
71.5328
 21
28.8272
 31
0.0
  0
LINE
  8
0
 62
     0
 10
71.5328
 20
28.8272
 30
0.0
 11
71.5328
 21
27.8267
 31
0.0
  0
LINE
  8
0
 62
     0
 10
71.5328
 20
27.8267
 30
0.0
 11
85.532
 21
27.8267
 31
0.0
  0
LINE
  8
0
 62
     0
 10
85.532
 20
27.8267
 30
0.0
 11
85.532
 21
28.8272
 31
0.0
  0
LINE
  8
0
 62
     0
 10
85.532
 20
28.8272
 30
0.0
 11
86.3328
 21
28.8272
 31
0.0
  0
LINE
  8
0
 62
     0
 10
86.3328
 20
28.8272
 30
0.0
 11
86.3328
 21
31.9264
 31
0.0
  0
LINE
  8
0
 62
     0
 10
86.3328
 20
31.9264
 30
0.0
 11
85.532
 21
31.9264
 31
0.0
  0
LINE
  8
0
 62
     0
 10
85.532
 20
31.9264
 30
0.0
 11
85.532
 21
37.7278
 31
0.0
  0
LINE
  8
0
 62
     0
 10
85.532
 20
37.7278
 30
0.0
 11
86.3328
 21
37.7278
 31
0.0
  0
LINE
  8
0
 62
     0
 10
86.3328
 20
37.7278
 30
0.0
 11
86.3328
 21
40.827
 31
0.0
  0
LINE
  8
0
 62
     0
 10
86.3328
 20
40.827
 30
0.0
 11
85.532
 21
40.827
 31
0.0
  0
LINE
  8
0
 62
     0
 10
85.532
 20
40.827
 30
0.0
 11
85.532
 21
41.8264
 31
0.0
  0
LINE
  8
0
 62
     0
 10
85.532
 20
41.8264
 30
0.0
 11
71.5328
 21
41.8264
 31
0.0
  0
LINE
  8
0
 62
     0
 10
52.4828
 20
41.8264
 30
0.0
 11
52.4828
 21
40.827
 31
0.0
  0
LINE
  8
0
 62
     0
 10
52.4828
 20
40.827
 30
0.0
 11
51.6819
 21
40.827
 31
0.0
  0
LINE
  8
0
 62
     0
 10
51.6819
 20
40.827
 30
0.0
 11
51.6819
 21
37.7278
 31
0.0
  0
LINE
  8
0
 62
     0
 10
51.6819
 20
37.7278
 30
0.0
 11
52.4828
 21
37.7278
 31
0.0
  0
LINE
  8
0
 62
     0
 10
52.4828
 20
37.7278
 30
0.0
 11
52.4828
 21
31.9264
 31
0.0
  0
LINE
  8
0
 62
     0
 10
52.4828
 20
31.9264
 30
0.0
 11
51.6819
 21
31.9264
 31
0.0
  0
LINE
  8
0
 62
     0
 10
51.6819
 20
31.9264
 30
0.0
 11
51.6819
 21
28.8272
 31
0.0
  0
LINE
  8
0
 62
     0
 10
51.6819
 20
28.8272
 30
0.0
 11
52.4828
 21
28.8272
 31
0.0
  0
LINE
  8
0
 62
     0
 10
52.4828
 20
28.8272
 30
0.0
 11
52.4828
 21
27.8267
 31
0.0
  0
LINE
  8
0
 62
     0
 10
52.4828
 20
27.8267
 30
0.0
 11
66.482
 21
27.8267
 31
0.0
  0
LINE
  8
0
 62
     0
 10
66.482
 20
27.8267
 30
0.0
 11
66.482
 21
28.8272
 31
0.0
  0
LINE
  8
0
 62
     0
 10
66.482
 20
28.8272
 30
0.0
 11
67.2828
 21
28.8272
 31
0.0
  0
LINE
  8
0
 62
     0
 10
67.2828
 20
28.8272
 30
0.0
 11
67.2828
 21
31.9264
 31
0.0
  0
LINE
  8
0
 62
     0
 10
67.2828
 20
31.9264
 30
0.0
 11
66.482
 21
31.9264
 31
0.0
  0
LINE
  8
0
 62
     0
 10
66.482
 20
31.9264
 30
0.0
 11
66.482
 21
37.7278
 31
0.0
  0
LINE
  8
0
 62
     0
 10
66.482
 20
37.7278
 30
0.0
 11
67.2828
 21
37.7278
 31
0.0
  0
LINE
  8
0
 62
     0
 10
67.2828
 20
37.7278
 30
0.0
 11
67.2828
 21
40.827
 31
0.0
  0
LINE
  8
0
 62
     0
 10
67.2828
 20
40.827
 30
0.0
 11
66.482
 21
40.827
 31
0.0
  0
LINE
  8
0
 62
     0
 10
66.482
 20
40.827
 30
0.0
 11
66.482
 21
41.8264
 31
0.0
  0
LINE
  8
0
 62
     0
 10
66.482
 20
41.8264
 30
0.0
 11
52.4828
 21
41.8264
 31
0.0
  0
LINE
  8
0
 62
     0
 10
264.414
 20
60.8764
 30
0.0
 11
264.414
 21
59.877
 31
0.0
  0
LINE
  8
0
 62
     0
 10
264.414
 20
59.877
 30
0.0
 11
263.613
 21
59.877
 31
0.0
  0
LINE
  8
0
 62
     0
 10
263.613
 20
59.877
 30
0.0
 11
263.613
 21
56.7764
 31
0.0
  0
LINE
  8
0
 62
     0
 10
263.613
 20
56.7764
 30
0.0
 11
264.414
 21
56.7764
 31
0.0
  0
LINE
  8
0
 62
     0
 10
264.414
 20
56.7764
 30
0.0
 11
264.414
 21
56.177
 31
0.0
  0
LINE
  8
0
 62
     0
 10
264.414
 20
56.177
 30
0.0
 11
262.888
 21
56.177
 31
0.0
  0
LINE
  8
0
 62
     0
 10
262.888
 20
56.177
 30
0.0
 11
262.888
 21
59.4071
 31
0.0
  0
LINE
  8
0
 62
     0
 10
262.888
 20
59.4071
 30
0.0
 11
256.139
 21
59.4071
 31
0.0
  0
LINE
  8
0
 62
     0
 10
256.139
 20
59.4071
 30
0.0
 11
256.139
 21
56.177
 31
0.0
  0
LINE
  8
0
 62
     0
 10
256.139
 20
56.177
 30
0.0
 11
255.313
 21
56.177
 31
0.0
  0
LINE
  8
0
 62
     0
 10
255.313
 20
56.177
 30
0.0
 11
255.313
 21
53.377
 31
0.0
  0
LINE
  8
0
 62
     0
 10
255.313
 20
53.377
 30
0.0
 11
256.139
 21
53.377
 31
0.0
  0
LINE
  8
0
 62
     0
 10
256.139
 20
53.377
 30
0.0
 11
256.139
 21
47.1082
 31
0.0
  0
LINE
  8
0
 62
     0
 10
256.139
 20
47.1082
 30
0.0
 11
257.864
 21
47.1082
 31
0.0
  0
LINE
  8
0
 62
     0
 10
257.864
 20
47.1082
 30
0.0
 11
257.864
 21
45.9066
 31
0.0
  0
LINE
  8
0
 62
     0
 10
257.864
 20
45.9066
 30
0.0
 11
261.163
 21
45.9066
 31
0.0
  0
LINE
  8
0
 62
     0
 10
261.163
 20
45.9066
 30
0.0
 11
261.163
 21
47.1082
 31
0.0
  0
LINE
  8
0
 62
     0
 10
261.163
 20
47.1082
 30
0.0
 11
262.888
 21
47.1082
 31
0.0
  0
LINE
  8
0
 62
     0
 10
262.888
 20
47.1082
 30
0.0
 11
262.888
 21
51.5772
 31
0.0
  0
LINE
  8
0
 62
     0
 10
262.888
 20
51.5772
 30
0.0
 11
264.414
 21
51.5772
 31
0.0
  0
LINE
  8
0
 62
     0
 10
264.414
 20
51.5772
 30
0.0
 11
264.414
 21
50.9764
 31
0.0
  0
LINE
  8
0
 62
     0
 10
264.414
 20
50.9764
 30
0.0
 11
263.613
 21
50.9764
 31
0.0
  0
LINE
  8
0
 62
     0
 10
263.613
 20
50.9764
 30
0.0
 11
263.613
 21
47.8772
 31
0.0
  0
LINE
  8
0
 62
     0
 10
263.613
 20
47.8772
 30
0.0
 11
264.414
 21
47.8772
 31
0.0
  0
LINE
  8
0
 62
     0
 10
264.414
 20
47.8772
 30
0.0
 11
264.414
 21
46.8768
 31
0.0
  0
LINE
  8
0
 62
     0
 10
264.414
 20
46.8768
 30
0.0
 11
278.413
 21
46.8768
 31
0.0
  0
LINE
  8
0
 62
     0
 10
278.413
 20
46.8768
 30
0.0
 11
278.413
 21
47.8772
 31
0.0
  0
LINE
  8
0
 62
     0
 10
278.413
 20
47.8772
 30
0.0
 11
279.214
 21
47.8772
 31
0.0
  0
LINE
  8
0
 62
     0
 10
279.214
 20
47.8772
 30
0.0
 11
279.214
 21
50.9764
 31
0.0
  0
LINE
  8
0
 62
     0
 10
279.214
 20
50.9764
 30
0.0
 11
278.413
 21
50.9764
 31
0.0
  0
LINE
  8
0
 62
     0
 10
278.413
 20
50.9764
 30
0.0
 11
278.413
 21
51.5772
 31
0.0
  0
LINE
  8
0
 62
     0
 10
278.413
 20
51.5772
 30
0.0
 11
279.939
 21
51.5772
 31
0.0
  0
LINE
  8
0
 62
     0
 10
279.939
 20
51.5772
 30
0.0
 11
279.939
 21
47.1082
 31
0.0
  0
LINE
  8
0
 62
     0
 10
279.939
 20
47.1082
 30
0.0
 11
281.664
 21
47.1082
 31
0.0
  0
LINE
  8
0
 62
     0
 10
281.664
 20
47.1082
 30
0.0
 11
281.664
 21
45.9066
 31
0.0
  0
LINE
  8
0
 62
     0
 10
281.664
 20
45.9066
 30
0.0
 11
284.963
 21
45.9066
 31
0.0
  0
LINE
  8
0
 62
     0
 10
284.963
 20
45.9066
 30
0.0
 11
284.963
 21
47.1082
 31
0.0
  0
LINE
  8
0
 62
     0
 10
284.963
 20
47.1082
 30
0.0
 11
286.688
 21
47.1082
 31
0.0
  0
LINE
  8
0
 62
     0
 10
286.688
 20
47.1082
 30
0.0
 11
286.688
 21
53.377
 31
0.0
  0
LINE
  8
0
 62
     0
 10
286.688
 20
53.377
 30
0.0
 11
287.514
 21
53.377
 31
0.0
  0
LINE
  8
0
 62
     0
 10
287.514
 20
53.377
 30
0.0
 11
287.514
 21
56.177
 31
0.0
  0
LINE
  8
0
 62
     0
 10
287.514
 20
56.177
 30
0.0
 11
286.688
 21
56.177
 31
0.0
  0
LINE
  8
0
 62
     0
 10
286.688
 20
56.177
 30
0.0
 11
286.688
 21
59.4071
 31
0.0
  0
LINE
  8
0
 62
     0
 10
286.688
 20
59.4071
 30
0.0
 11
279.939
 21
59.4071
 31
0.0
  0
LINE
  8
0
 62
     0
 10
279.939
 20
59.4071
 30
0.0
 11
279.939
 21
56.177
 31
0.0
  0
LINE
  8
0
 62
     0
 10
279.939
 20
56.177
 30
0.0
 11
278.413
 21
56.177
 31
0.0
  0
LINE
  8
0
 62
     0
 10
278.413
 20
56.177
 30
0.0
 11
278.413
 21
56.7764
 31
0.0
  0
LINE
  8
0
 62
     0
 10
278.413
 20
56.7764
 30
0.0
 11
279.214
 21
56.7764
 31
0.0
  0
LINE
  8
0
 62
     0
 10
279.214
 20
56.7764
 30
0.0
 11
279.214
 21
59.877
 31
0.0
  0
LINE
  8
0
 62
     0
 10
279.214
 20
59.877
 30
0.0
 11
278.413
 21
59.877
 31
0.0
  0
LINE
  8
0
 62
     0
 10
278.413
 20
59.877
 30
0.0
 11
278.413
 21
60.8764
 31
0.0
  0
LINE
  8
0
 62
     0
 10
278.413
 20
60.8764
 30
0.0
 11
264.414
 21
60.8764
 31
0.0
  0
LINE
  8
0
 62
     0
 10
333.47
 20
60.8764
 30
0.0
 11
333.47
 21
59.877
 31
0.0
  0
LINE
  8
0
 62
     0
 10
333.47
 20
59.877
 30
0.0
 11
332.671
 21
59.877
 31
0.0
  0
LINE
  8
0
 62
     0
 10
332.671
 20
59.877
 30
0.0
 11
332.671
 21
56.7764
 31
0.0
  0
LINE
  8
0
 62
     0
 10
332.671
 20
56.7764
 30
0.0
 11
333.47
 21
56.7764
 31
0.0
  0
LINE
  8
0
 62
     0
 10
333.47
 20
56.7764
 30
0.0
 11
333.47
 21
50.9764
 31
0.0
  0
LINE
  8
0
 62
     0
 10
333.47
 20
50.9764
 30
0.0
 11
332.671
 21
50.9764
 31
0.0
  0
LINE
  8
0
 62
     0
 10
332.671
 20
50.9764
 30
0.0
 11
332.671
 21
47.8772
 31
0.0
  0
LINE
  8
0
 62
     0
 10
332.671
 20
47.8772
 30
0.0
 11
333.47
 21
47.8772
 31
0.0
  0
LINE
  8
0
 62
     0
 10
333.47
 20
47.8772
 30
0.0
 11
333.47
 21
46.8768
 31
0.0
  0
LINE
  8
0
 62
     0
 10
333.47
 20
46.8768
 30
0.0
 11
347.471
 21
46.8768
 31
0.0
  0
LINE
  8
0
 62
     0
 10
347.471
 20
46.8768
 30
0.0
 11
347.471
 21
47.8772
 31
0.0
  0
LINE
  8
0
 62
     0
 10
347.471
 20
47.8772
 30
0.0
 11
348.27
 21
47.8772
 31
0.0
  0
LINE
  8
0
 62
     0
 10
348.27
 20
47.8772
 30
0.0
 11
348.27
 21
50.9764
 31
0.0
  0
LINE
  8
0
 62
     0
 10
348.27
 20
50.9764
 30
0.0
 11
347.471
 21
50.9764
 31
0.0
  0
LINE
  8
0
 62
     0
 10
347.471
 20
50.9764
 30
0.0
 11
347.471
 21
56.7764
 31
0.0
  0
LINE
  8
0
 62
     0
 10
347.471
 20
56.7764
 30
0.0
 11
348.27
 21
56.7764
 31
0.0
  0
LINE
  8
0
 62
     0
 10
348.27
 20
56.7764
 30
0.0
 11
348.27
 21
59.877
 31
0.0
  0
LINE
  8
0
 62
     0
 10
348.27
 20
59.877
 30
0.0
 11
347.471
 21
59.877
 31
0.0
  0
LINE
  8
0
 62
     0
 10
347.471
 20
59.877
 30
0.0
 11
347.471
 21
60.8764
 31
0.0
  0
LINE
  8
0
 62
     0
 10
347.471
 20
60.8764
 30
0.0
 11
333.47
 21
60.8764
 31
0.0
  0
LINE
  8
0
 62
     0
 10
314.42
 20
60.8764
 30
0.0
 11
314.42
 21
59.877
 31
0.0
  0
LINE
  8
0
 62
     0
 10
314.42
 20
59.877
 30
0.0
 11
313.621
 21
59.877
 31
0.0
  0
LINE
  8
0
 62
     0
 10
313.621
 20
59.877
 30
0.0
 11
313.621
 21
56.7764
 31
0.0
  0
LINE
  8
0
 62
     0
 10
313.621
 20
56.7764
 30
0.0
 11
314.42
 21
56.7764
 31
0.0
  0
LINE
  8
0
 62
     0
 10
314.42
 20
56.7764
 30
0.0
 11
314.42
 21
50.9764
 31
0.0
  0
LINE
  8
0
 62
     0
 10
314.42
 20
50.9764
 30
0.0
 11
313.621
 21
50.9764
 31
0.0
  0
LINE
  8
0
 62
     0
 10
313.621
 20
50.9764
 30
0.0
 11
313.621
 21
47.8772
 31
0.0
  0
LINE
  8
0
 62
     0
 10
313.621
 20
47.8772
 30
0.0
 11
314.42
 21
47.8772
 31
0.0
  0
LINE
  8
0
 62
     0
 10
314.42
 20
47.8772
 30
0.0
 11
314.42
 21
46.8768
 31
0.0
  0
LINE
  8
0
 62
     0
 10
314.42
 20
46.8768
 30
0.0
 11
328.421
 21
46.8768
 31
0.0
  0
LINE
  8
0
 62
     0
 10
328.421
 20
46.8768
 30
0.0
 11
328.421
 21
47.8772
 31
0.0
  0
LINE
  8
0
 62
     0
 10
328.421
 20
47.8772
 30
0.0
 11
329.22
 21
47.8772
 31
0.0
  0
LINE
  8
0
 62
     0
 10
329.22
 20
47.8772
 30
0.0
 11
329.22
 21
50.9764
 31
0.0
  0
LINE
  8
0
 62
     0
 10
329.22
 20
50.9764
 30
0.0
 11
328.421
 21
50.9764
 31
0.0
  0
LINE
  8
0
 62
     0
 10
328.421
 20
50.9764
 30
0.0
 11
328.421
 21
56.7764
 31
0.0
  0
LINE
  8
0
 62
     0
 10
328.421
 20
56.7764
 30
0.0
 11
329.22
 21
56.7764
 31
0.0
  0
LINE
  8
0
 62
     0
 10
329.22
 20
56.7764
 30
0.0
 11
329.22
 21
59.877
 31
0.0
  0
LINE
  8
0
 62
     0
 10
329.22
 20
59.877
 30
0.0
 11
328.421
 21
59.877
 31
0.0
  0
LINE
  8
0
 62
     0
 10
328.421
 20
59.877
 30
0.0
 11
328.421
 21
60.8764
 31
0.0
  0
LINE
  8
0
 62
     0
 10
328.421
 20
60.8764
 30
0.0
 11
314.42
 21
60.8764
 31
0.0
  0
LINE
  8
0
 62
     0
 10
295.37
 20
60.8764
 30
0.0
 11
295.37
 21
59.877
 31
0.0
  0
LINE
  8
0
 62
     0
 10
295.37
 20
59.877
 30
0.0
 11
294.571
 21
59.877
 31
0.0
  0
LINE
  8
0
 62
     0
 10
294.571
 20
59.877
 30
0.0
 11
294.571
 21
56.7764
 31
0.0
  0
LINE
  8
0
 62
     0
 10
294.571
 20
56.7764
 30
0.0
 11
295.37
 21
56.7764
 31
0.0
  0
LINE
  8
0
 62
     0
 10
295.37
 20
56.7764
 30
0.0
 11
295.37
 21
50.9764
 31
0.0
  0
LINE
  8
0
 62
     0
 10
295.37
 20
50.9764
 30
0.0
 11
294.571
 21
50.9764
 31
0.0
  0
LINE
  8
0
 62
     0
 10
294.571
 20
50.9764
 30
0.0
 11
294.571
 21
47.8772
 31
0.0
  0
LINE
  8
0
 62
     0
 10
294.571
 20
47.8772
 30
0.0
 11
295.37
 21
47.8772
 31
0.0
  0
LINE
  8
0
 62
     0
 10
295.37
 20
47.8772
 30
0.0
 11
295.37
 21
46.8768
 31
0.0
  0
LINE
  8
0
 62
     0
 10
295.37
 20
46.8768
 30
0.0
 11
309.371
 21
46.8768
 31
0.0
  0
LINE
  8
0
 62
     0
 10
309.371
 20
46.8768
 30
0.0
 11
309.371
 21
47.8772
 31
0.0
  0
LINE
  8
0
 62
     0
 10
309.371
 20
47.8772
 30
0.0
 11
310.17
 21
47.8772
 31
0.0
  0
LINE
  8
0
 62
     0
 10
310.17
 20
47.8772
 30
0.0
 11
310.17
 21
50.9764
 31
0.0
  0
LINE
  8
0
 62
     0
 10
310.17
 20
50.9764
 30
0.0
 11
309.371
 21
50.9764
 31
0.0
  0
LINE
  8
0
 62
     0
 10
309.371
 20
50.9764
 30
0.0
 11
309.371
 21
56.7764
 31
0.0
  0
LINE
  8
0
 62
     0
 10
309.371
 20
56.7764
 30
0.0
 11
310.17
 21
56.7764
 31
0.0
  0
LINE
  8
0
 62
     0
 10
310.17
 20
56.7764
 30
0.0
 11
310.17
 21
59.877
 31
0.0
  0
LINE
  8
0
 62
     0
 10
310.17
 20
59.877
 30
0.0
 11
309.371
 21
59.877
 31
0.0
  0
LINE
  8
0
 62
     0
 10
309.371
 20
59.877
 30
0.0
 11
309.371
 21
60.8764
 31
0.0
  0
LINE
  8
0
 62
     0
 10
309.371
 20
60.8764
 30
0.0
 11
295.37
 21
60.8764
 31
0.0
  0
LINE
  8
0
 62
     0
 10
233.458
 20
60.8764
 30
0.0
 11
233.458
 21
59.877
 31
0.0
  0
LINE
  8
0
 62
     0
 10
233.458
 20
59.877
 30
0.0
 11
232.657
 21
59.877
 31
0.0
  0
LINE
  8
0
 62
     0
 10
232.657
 20
59.877
 30
0.0
 11
232.657
 21
56.7764
 31
0.0
  0
LINE
  8
0
 62
     0
 10
232.657
 20
56.7764
 30
0.0
 11
233.458
 21
56.7764
 31
0.0
  0
LINE
  8
0
 62
     0
 10
233.458
 20
56.7764
 30
0.0
 11
233.458
 21
50.9764
 31
0.0
  0
LINE
  8
0
 62
     0
 10
233.458
 20
50.9764
 30
0.0
 11
232.657
 21
50.9764
 31
0.0
  0
LINE
  8
0
 62
     0
 10
232.657
 20
50.9764
 30
0.0
 11
232.657
 21
47.8772
 31
0.0
  0
LINE
  8
0
 62
     0
 10
232.657
 20
47.8772
 30
0.0
 11
233.458
 21
47.8772
 31
0.0
  0
LINE
  8
0
 62
     0
 10
233.458
 20
47.8772
 30
0.0
 11
233.458
 21
46.8768
 31
0.0
  0
LINE
  8
0
 62
     0
 10
233.458
 20
46.8768
 30
0.0
 11
247.457
 21
46.8768
 31
0.0
  0
LINE
  8
0
 62
     0
 10
247.457
 20
46.8768
 30
0.0
 11
247.457
 21
47.8772
 31
0.0
  0
LINE
  8
0
 62
     0
 10
247.457
 20
47.8772
 30
0.0
 11
248.258
 21
47.8772
 31
0.0
  0
LINE
  8
0
 62
     0
 10
248.258
 20
47.8772
 30
0.0
 11
248.258
 21
50.9764
 31
0.0
  0
LINE
  8
0
 62
     0
 10
248.258
 20
50.9764
 30
0.0
 11
247.457
 21
50.9764
 31
0.0
  0
LINE
  8
0
 62
     0
 10
247.457
 20
50.9764
 30
0.0
 11
247.457
 21
56.7764
 31
0.0
  0
LINE
  8
0
 62
     0
 10
247.457
 20
56.7764
 30
0.0
 11
248.258
 21
56.7764
 31
0.0
  0
LINE
  8
0
 62
     0
 10
248.258
 20
56.7764
 30
0.0
 11
248.258
 21
59.877
 31
0.0
  0
LINE
  8
0
 62
     0
 10
248.258
 20
59.877
 30
0.0
 11
247.457
 21
59.877
 31
0.0
  0
LINE
  8
0
 62
     0
 10
247.457
 20
59.877
 30
0.0
 11
247.457
 21
60.8764
 31
0.0
  0
LINE
  8
0
 62
     0
 10
247.457
 20
60.8764
 30
0.0
 11
233.458
 21
60.8764
 31
0.0
  0
LINE
  8
0
 62
     0
 10
214.408
 20
60.8764
 30
0.0
 11
214.408
 21
59.877
 31
0.0
  0
LINE
  8
0
 62
     0
 10
214.408
 20
59.877
 30
0.0
 11
213.607
 21
59.877
 31
0.0
  0
LINE
  8
0
 62
     0
 10
213.607
 20
59.877
 30
0.0
 11
213.607
 21
56.7764
 31
0.0
  0
LINE
  8
0
 62
     0
 10
213.607
 20
56.7764
 30
0.0
 11
214.408
 21
56.7764
 31
0.0
  0
LINE
  8
0
 62
     0
 10
214.408
 20
56.7764
 30
0.0
 11
214.408
 21
50.9764
 31
0.0
  0
LINE
  8
0
 62
     0
 10
214.408
 20
50.9764
 30
0.0
 11
213.607
 21
50.9764
 31
0.0
  0
LINE
  8
0
 62
     0
 10
213.607
 20
50.9764
 30
0.0
 11
213.607
 21
47.8772
 31
0.0
  0
LINE
  8
0
 62
     0
 10
213.607
 20
47.8772
 30
0.0
 11
214.408
 21
47.8772
 31
0.0
  0
LINE
  8
0
 62
     0
 10
214.408
 20
47.8772
 30
0.0
 11
214.408
 21
46.8768
 31
0.0
  0
LINE
  8
0
 62
     0
 10
214.408
 20
46.8768
 30
0.0
 11
228.407
 21
46.8768
 31
0.0
  0
LINE
  8
0
 62
     0
 10
228.407
 20
46.8768
 30
0.0
 11
228.407
 21
47.8772
 31
0.0
  0
LINE
  8
0
 62
     0
 10
228.407
 20
47.8772
 30
0.0
 11
229.208
 21
47.8772
 31
0.0
  0
LINE
  8
0
 62
     0
 10
229.208
 20
47.8772
 30
0.0
 11
229.208
 21
50.9764
 31
0.0
  0
LINE
  8
0
 62
     0
 10
229.208
 20
50.9764
 30
0.0
 11
228.407
 21
50.9764
 31
0.0
  0
LINE
  8
0
 62
     0
 10
228.407
 20
50.9764
 30
0.0
 11
228.407
 21
56.7764
 31
0.0
  0
LINE
  8
0
 62
     0
 10
228.407
 20
56.7764
 30
0.0
 11
229.208
 21
56.7764
 31
0.0
  0
LINE
  8
0
 62
     0
 10
229.208
 20
56.7764
 30
0.0
 11
229.208
 21
59.877
 31
0.0
  0
LINE
  8
0
 62
     0
 10
229.208
 20
59.877
 30
0.0
 11
228.407
 21
59.877
 31
0.0
  0
LINE
  8
0
 62
     0
 10
228.407
 20
59.877
 30
0.0
 11
228.407
 21
60.8764
 31
0.0
  0
LINE
  8
0
 62
     0
 10
228.407
 20
60.8764
 30
0.0
 11
214.408
 21
60.8764
 31
0.0
  0
LINE
  8
0
 62
     0
 10
195.358
 20
60.8764
 30
0.0
 11
195.358
 21
59.877
 31
0.0
  0
LINE
  8
0
 62
     0
 10
195.358
 20
59.877
 30
0.0
 11
194.557
 21
59.877
 31
0.0
  0
LINE
  8
0
 62
     0
 10
194.557
 20
59.877
 30
0.0
 11
194.557
 21
56.7764
 31
0.0
  0
LINE
  8
0
 62
     0
 10
194.557
 20
56.7764
 30
0.0
 11
195.358
 21
56.7764
 31
0.0
  0
LINE
  8
0
 62
     0
 10
195.358
 20
56.7764
 30
0.0
 11
195.358
 21
50.9764
 31
0.0
  0
LINE
  8
0
 62
     0
 10
195.358
 20
50.9764
 30
0.0
 11
194.557
 21
50.9764
 31
0.0
  0
LINE
  8
0
 62
     0
 10
194.557
 20
50.9764
 30
0.0
 11
194.557
 21
47.8772
 31
0.0
  0
LINE
  8
0
 62
     0
 10
194.557
 20
47.8772
 30
0.0
 11
195.358
 21
47.8772
 31
0.0
  0
LINE
  8
0
 62
     0
 10
195.358
 20
47.8772
 30
0.0
 11
195.358
 21
46.8768
 31
0.0
  0
LINE
  8
0
 62
     0
 10
195.358
 20
46.8768
 30
0.0
 11
209.357
 21
46.8768
 31
0.0
  0
LINE
  8
0
 62
     0
 10
209.357
 20
46.8768
 30
0.0
 11
209.357
 21
47.8772
 31
0.0
  0
LINE
  8
0
 62
     0
 10
209.357
 20
47.8772
 30
0.0
 11
210.158
 21
47.8772
 31
0.0
  0
LINE
  8
0
 62
     0
 10
210.158
 20
47.8772
 30
0.0
 11
210.158
 21
50.9764
 31
0.0
  0
LINE
  8
0
 62
     0
 10
210.158
 20
50.9764
 30
0.0
 11
209.357
 21
50.9764
 31
0.0
  0
LINE
  8
0
 62
     0
 10
209.357
 20
50.9764
 30
0.0
 11
209.357
 21
56.7764
 31
0.0
  0
LINE
  8
0
 62
     0
 10
209.357
 20
56.7764
 30
0.0
 11
210.158
 21
56.7764
 31
0.0
  0
LINE
  8
0
 62
     0
 10
210.158
 20
56.7764
 30
0.0
 11
210.158
 21
59.877
 31
0.0
  0
LINE
  8
0
 62
     0
 10
210.158
 20
59.877
 30
0.0
 11
209.357
 21
59.877
 31
0.0
  0
LINE
  8
0
 62
     0
 10
209.357
 20
59.877
 30
0.0
 11
209.357
 21
60.8764
 31
0.0
  0
LINE
  8
0
 62
     0
 10
209.357
 20
60.8764
 30
0.0
 11
195.358
 21
60.8764
 31
0.0
  0
LINE
  8
0
 62
     0
 10
176.308
 20
60.8764
 30
0.0
 11
176.308
 21
59.877
 31
0.0
  0
LINE
  8
0
 62
     0
 10
176.308
 20
59.877
 30
0.0
 11
175.507
 21
59.877
 31
0.0
  0
LINE
  8
0
 62
     0
 10
175.507
 20
59.877
 30
0.0
 11
175.507
 21
56.7764
 31
0.0
  0
LINE
  8
0
 62
     0
 10
175.507
 20
56.7764
 30
0.0
 11
176.308
 21
56.7764
 31
0.0
  0
LINE
  8
0
 62
     0
 10
176.308
 20
56.7764
 30
0.0
 11
176.308
 21
50.9764
 31
0.0
  0
LINE
  8
0
 62
     0
 10
176.308
 20
50.9764
 30
0.0
 11
175.507
 21
50.9764
 31
0.0
  0
LINE
  8
0
 62
     0
 10
175.507
 20
50.9764
 30
0.0
 11
175.507
 21
47.8772
 31
0.0
  0
LINE
  8
0
 62
     0
 10
175.507
 20
47.8772
 30
0.0
 11
176.308
 21
47.8772
 31
0.0
  0
LINE
  8
0
 62
     0
 10
176.308
 20
47.8772
 30
0.0
 11
176.308
 21
46.8768
 31
0.0
  0
LINE
  8
0
 62
     0
 10
176.308
 20
46.8768
 30
0.0
 11
190.307
 21
46.8768
 31
0.0
  0
LINE
  8
0
 62
     0
 10
190.307
 20
46.8768
 30
0.0
 11
190.307
 21
47.8772
 31
0.0
  0
LINE
  8
0
 62
     0
 10
190.307
 20
47.8772
 30
0.0
 11
191.108
 21
47.8772
 31
0.0
  0
LINE
  8
0
 62
     0
 10
191.108
 20
47.8772
 30
0.0
 11
191.108
 21
50.9764
 31
0.0
  0
LINE
  8
0
 62
     0
 10
191.108
 20
50.9764
 30
0.0
 11
190.307
 21
50.9764
 31
0.0
  0
LINE
  8
0
 62
     0
 10
190.307
 20
50.9764
 30
0.0
 11
190.307
 21
56.7764
 31
0.0
  0
LINE
  8
0
 62
     0
 10
190.307
 20
56.7764
 30
0.0
 11
191.108
 21
56.7764
 31
0.0
  0
LINE
  8
0
 62
     0
 10
191.108
 20
56.7764
 30
0.0
 11
191.108
 21
59.877
 31
0.0
  0
LINE
  8
0
 62
     0
 10
191.108
 20
59.877
 30
0.0
 11
190.307
 21
59.877
 31
0.0
  0
LINE
  8
0
 62
     0
 10
190.307
 20
59.877
 30
0.0
 11
190.307
 21
60.8764
 31
0.0
  0
LINE
  8
0
 62
     0
 10
190.307
 20
60.8764
 30
0.0
 11
176.308
 21
60.8764
 31
0.0
  0
LINE
  8
0
 62
     0
 10
157.258
 20
60.8764
 30
0.0
 11
157.258
 21
59.877
 31
0.0
  0
LINE
  8
0
 62
     0
 10
157.258
 20
59.877
 30
0.0
 11
156.457
 21
59.877
 31
0.0
  0
LINE
  8
0
 62
     0
 10
156.457
 20
59.877
 30
0.0
 11
156.457
 21
56.7764
 31
0.0
  0
LINE
  8
0
 62
     0
 10
156.457
 20
56.7764
 30
0.0
 11
157.258
 21
56.7764
 31
0.0
  0
LINE
  8
0
 62
     0
 10
157.258
 20
56.7764
 30
0.0
 11
157.258
 21
50.9764
 31
0.0
  0
LINE
  8
0
 62
     0
 10
157.258
 20
50.9764
 30
0.0
 11
156.457
 21
50.9764
 31
0.0
  0
LINE
  8
0
 62
     0
 10
156.457
 20
50.9764
 30
0.0
 11
156.457
 21
47.8772
 31
0.0
  0
LINE
  8
0
 62
     0
 10
156.457
 20
47.8772
 30
0.0
 11
157.258
 21
47.8772
 31
0.0
  0
LINE
  8
0
 62
     0
 10
157.258
 20
47.8772
 30
0.0
 11
157.258
 21
46.8768
 31
0.0
  0
LINE
  8
0
 62
     0
 10
157.258
 20
46.8768
 30
0.0
 11
171.257
 21
46.8768
 31
0.0
  0
LINE
  8
0
 62
     0
 10
171.257
 20
46.8768
 30
0.0
 11
171.257
 21
47.8772
 31
0.0
  0
LINE
  8
0
 62
     0
 10
171.257
 20
47.8772
 30
0.0
 11
172.058
 21
47.8772
 31
0.0
  0
LINE
  8
0
 62
     0
 10
172.058
 20
47.8772
 30
0.0
 11
172.058
 21
50.9764
 31
0.0
  0
LINE
  8
0
 62
     0
 10
172.058
 20
50.9764
 30
0.0
 11
171.257
 21
50.9764
 31
0.0
  0
LINE
  8
0
 62
     0
 10
171.257
 20
50.9764
 30
0.0
 11
171.257
 21
56.7764
 31
0.0
  0
LINE
  8
0
 62
     0
 10
171.257
 20
56.7764
 30
0.0
 11
172.058
 21
56.7764
 31
0.0
  0
LINE
  8
0
 62
     0
 10
172.058
 20
56.7764
 30
0.0
 11
172.058
 21
59.877
 31
0.0
  0
LINE
  8
0
 62
     0
 10
172.058
 20
59.877
 30
0.0
 11
171.257
 21
59.877
 31
0.0
  0
LINE
  8
0
 62
     0
 10
171.257
 20
59.877
 30
0.0
 11
171.257
 21
60.8764
 31
0.0
  0
LINE
  8
0
 62
     0
 10
171.257
 20
60.8764
 30
0.0
 11
157.258
 21
60.8764
 31
0.0
  0
LINE
  8
0
 62
     0
 10
138.208
 20
60.8764
 30
0.0
 11
138.208
 21
59.877
 31
0.0
  0
LINE
  8
0
 62
     0
 10
138.208
 20
59.877
 30
0.0
 11
137.407
 21
59.877
 31
0.0
  0
LINE
  8
0
 62
     0
 10
137.407
 20
59.877
 30
0.0
 11
137.407
 21
56.7764
 31
0.0
  0
LINE
  8
0
 62
     0
 10
137.407
 20
56.7764
 30
0.0
 11
138.208
 21
56.7764
 31
0.0
  0
LINE
  8
0
 62
     0
 10
138.208
 20
56.7764
 30
0.0
 11
138.208
 21
50.9764
 31
0.0
  0
LINE
  8
0
 62
     0
 10
138.208
 20
50.9764
 30
0.0
 11
137.407
 21
50.9764
 31
0.0
  0
LINE
  8
0
 62
     0
 10
137.407
 20
50.9764
 30
0.0
 11
137.407
 21
47.8772
 31
0.0
  0
LINE
  8
0
 62
     0
 10
137.407
 20
47.8772
 30
0.0
 11
138.208
 21
47.8772
 31
0.0
  0
LINE
  8
0
 62
     0
 10
138.208
 20
47.8772
 30
0.0
 11
138.208
 21
46.8768
 31
0.0
  0
LINE
  8
0
 62
     0
 10
138.208
 20
46.8768
 30
0.0
 11
152.207
 21
46.8768
 31
0.0
  0
LINE
  8
0
 62
     0
 10
152.207
 20
46.8768
 30
0.0
 11
152.207
 21
47.8772
 31
0.0
  0
LINE
  8
0
 62
     0
 10
152.207
 20
47.8772
 30
0.0
 11
153.008
 21
47.8772
 31
0.0
  0
LINE
  8
0
 62
     0
 10
153.008
 20
47.8772
 30
0.0
 11
153.008
 21
50.9764
 31
0.0
  0
LINE
  8
0
 62
     0
 10
153.008
 20
50.9764
 30
0.0
 11
152.207
 21
50.9764
 31
0.0
  0
LINE
  8
0
 62
     0
 10
152.207
 20
50.9764
 30
0.0
 11
152.207
 21
56.7764
 31
0.0
  0
LINE
  8
0
 62
     0
 10
152.207
 20
56.7764
 30
0.0
 11
153.008
 21
56.7764
 31
0.0
  0
LINE
  8
0
 62
     0
 10
153.008
 20
56.7764
 30
0.0
 11
153.008
 21
59.877
 31
0.0
  0
LINE
  8
0
 62
     0
 10
153.008
 20
59.877
 30
0.0
 11
152.207
 21
59.877
 31
0.0
  0
LINE
  8
0
 62
     0
 10
152.207
 20
59.877
 30
0.0
 11
152.207
 21
60.8764
 31
0.0
  0
LINE
  8
0
 62
     0
 10
152.207
 20
60.8764
 30
0.0
 11
138.208
 21
60.8764
 31
0.0
  0
LINE
  8
0
 62
     0
 10
119.158
 20
60.8764
 30
0.0
 11
119.158
 21
59.877
 31
0.0
  0
LINE
  8
0
 62
     0
 10
119.158
 20
59.877
 30
0.0
 11
118.357
 21
59.877
 31
0.0
  0
LINE
  8
0
 62
     0
 10
118.357
 20
59.877
 30
0.0
 11
118.357
 21
56.7764
 31
0.0
  0
LINE
  8
0
 62
     0
 10
118.357
 20
56.7764
 30
0.0
 11
119.158
 21
56.7764
 31
0.0
  0
LINE
  8
0
 62
     0
 10
119.158
 20
56.7764
 30
0.0
 11
119.158
 21
50.9764
 31
0.0
  0
LINE
  8
0
 62
     0
 10
119.158
 20
50.9764
 30
0.0
 11
118.357
 21
50.9764
 31
0.0
  0
LINE
  8
0
 62
     0
 10
118.357
 20
50.9764
 30
0.0
 11
118.357
 21
47.8772
 31
0.0
  0
LINE
  8
0
 62
     0
 10
118.357
 20
47.8772
 30
0.0
 11
119.158
 21
47.8772
 31
0.0
  0
LINE
  8
0
 62
     0
 10
119.158
 20
47.8772
 30
0.0
 11
119.158
 21
46.8768
 31
0.0
  0
LINE
  8
0
 62
     0
 10
119.158
 20
46.8768
 30
0.0
 11
133.157
 21
46.8768
 31
0.0
  0
LINE
  8
0
 62
     0
 10
133.157
 20
46.8768
 30
0.0
 11
133.157
 21
47.8772
 31
0.0
  0
LINE
  8
0
 62
     0
 10
133.157
 20
47.8772
 30
0.0
 11
133.958
 21
47.8772
 31
0.0
  0
LINE
  8
0
 62
     0
 10
133.958
 20
47.8772
 30
0.0
 11
133.958
 21
50.9764
 31
0.0
  0
LINE
  8
0
 62
     0
 10
133.958
 20
50.9764
 30
0.0
 11
133.157
 21
50.9764
 31
0.0
  0
LINE
  8
0
 62
     0
 10
133.157
 20
50.9764
 30
0.0
 11
133.157
 21
56.7764
 31
0.0
  0
LINE
  8
0
 62
     0
 10
133.157
 20
56.7764
 30
0.0
 11
133.958
 21
56.7764
 31
0.0
  0
LINE
  8
0
 62
     0
 10
133.958
 20
56.7764
 30
0.0
 11
133.958
 21
59.877
 31
0.0
  0
LINE
  8
0
 62
     0
 10
133.958
 20
59.877
 30
0.0
 11
133.157
 21
59.877
 31
0.0
  0
LINE
  8
0
 62
     0
 10
133.157
 20
59.877
 30
0.0
 11
133.157
 21
60.8764
 31
0.0
  0
LINE
  8
0
 62
     0
 10
133.157
 20
60.8764
 30
0.0
 11
119.158
 21
60.8764
 31
0.0
  0
LINE
  8
0
 62
     0
 10
100.108
 20
60.8764
 30
0.0
 11
100.108
 21
59.877
 31
0.0
  0
LINE
  8
0
 62
     0
 10
100.108
 20
59.877
 30
0.0
 11
99.3069
 21
59.877
 31
0.0
  0
LINE
  8
0
 62
     0
 10
99.3069
 20
59.877
 30
0.0
 11
99.3069
 21
56.7764
 31
0.0
  0
LINE
  8
0
 62
     0
 10
99.3069
 20
56.7764
 30
0.0
 11
100.108
 21
56.7764
 31
0.0
  0
LINE
  8
0
 62
     0
 10
100.108
 20
56.7764
 30
0.0
 11
100.108
 21
50.9764
 31
0.0
  0
LINE
  8
0
 62
     0
 10
100.108
 20
50.9764
 30
0.0
 11
99.3069
 21
50.9764
 31
0.0
  0
LINE
  8
0
 62
     0
 10
99.3069
 20
50.9764
 30
0.0
 11
99.3069
 21
47.8772
 31
0.0
  0
LINE
  8
0
 62
     0
 10
99.3069
 20
47.8772
 30
0.0
 11
100.108
 21
47.8772
 31
0.0
  0
LINE
  8
0
 62
     0
 10
100.108
 20
47.8772
 30
0.0
 11
100.108
 21
46.8768
 31
0.0
  0
LINE
  8
0
 62
     0
 10
100.108
 20
46.8768
 30
0.0
 11
114.107
 21
46.8768
 31
0.0
  0
LINE
  8
0
 62
     0
 10
114.107
 20
46.8768
 30
0.0
 11
114.107
 21
47.8772
 31
0.0
  0
LINE
  8
0
 62
     0
 10
114.107
 20
47.8772
 30
0.0
 11
114.908
 21
47.8772
 31
0.0
  0
LINE
  8
0
 62
     0
 10
114.908
 20
47.8772
 30
0.0
 11
114.908
 21
50.9764
 31
0.0
  0
LINE
  8
0
 62
     0
 10
114.908
 20
50.9764
 30
0.0
 11
114.107
 21
50.9764
 31
0.0
  0
LINE
  8
0
 62
     0
 10
114.107
 20
50.9764
 30
0.0
 11
114.107
 21
56.7764
 31
0.0
  0
LINE
  8
0
 62
     0
 10
114.107
 20
56.7764
 30
0.0
 11
114.908
 21
56.7764
 31
0.0
  0
LINE
  8
0
 62
     0
 10
114.908
 20
56.7764
 30
0.0
 11
114.908
 21
59.877
 31
0.0
  0
LINE
  8
0
 62
     0
 10
114.908
 20
59.877
 30
0.0
 11
114.107
 21
59.877
 31
0.0
  0
LINE
  8
0
 62
     0
 10
114.107
 20
59.877
 30
0.0
 11
114.107
 21
60.8764
 31
0.0
  0
LINE
  8
0
 62
     0
 10
114.107
 20
60.8764
 30
0.0
 11
100.108
 21
60.8764
 31
0.0
  0
LINE
  8
0
 62
     0
 10
81.0578
 20
60.8764
 30
0.0
 11
81.0578
 21
59.877
 31
0.0
  0
LINE
  8
0
 62
     0
 10
81.0578
 20
59.877
 30
0.0
 11
80.2569
 21
59.877
 31
0.0
  0
LINE
  8
0
 62
     0
 10
80.2569
 20
59.877
 30
0.0
 11
80.2569
 21
56.7764
 31
0.0
  0
LINE
  8
0
 62
     0
 10
80.2569
 20
56.7764
 30
0.0
 11
81.0578
 21
56.7764
 31
0.0
  0
LINE
  8
0
 62
     0
 10
81.0578
 20
56.7764
 30
0.0
 11
81.0578
 21
50.9764
 31
0.0
  0
LINE
  8
0
 62
     0
 10
81.0578
 20
50.9764
 30
0.0
 11
80.2569
 21
50.9764
 31
0.0
  0
LINE
  8
0
 62
     0
 10
80.2569
 20
50.9764
 30
0.0
 11
80.2569
 21
47.8772
 31
0.0
  0
LINE
  8
0
 62
     0
 10
80.2569
 20
47.8772
 30
0.0
 11
81.0578
 21
47.8772
 31
0.0
  0
LINE
  8
0
 62
     0
 10
81.0578
 20
47.8772
 30
0.0
 11
81.0578
 21
46.8768
 31
0.0
  0
LINE
  8
0
 62
     0
 10
81.0578
 20
46.8768
 30
0.0
 11
95.057
 21
46.8768
 31
0.0
  0
LINE
  8
0
 62
     0
 10
95.057
 20
46.8768
 30
0.0
 11
95.057
 21
47.8772
 31
0.0
  0
LINE
  8
0
 62
     0
 10
95.057
 20
47.8772
 30
0.0
 11
95.8578
 21
47.8772
 31
0.0
  0
LINE
  8
0
 62
     0
 10
95.8578
 20
47.8772
 30
0.0
 11
95.8578
 21
50.9764
 31
0.0
  0
LINE
  8
0
 62
     0
 10
95.8578
 20
50.9764
 30
0.0
 11
95.057
 21
50.9764
 31
0.0
  0
LINE
  8
0
 62
     0
 10
95.057
 20
50.9764
 30
0.0
 11
95.057
 21
56.7764
 31
0.0
  0
LINE
  8
0
 62
     0
 10
95.057
 20
56.7764
 30
0.0
 11
95.8578
 21
56.7764
 31
0.0
  0
LINE
  8
0
 62
     0
 10
95.8578
 20
56.7764
 30
0.0
 11
95.8578
 21
59.877
 31
0.0
  0
LINE
  8
0
 62
     0
 10
95.8578
 20
59.877
 30
0.0
 11
95.057
 21
59.877
 31
0.0
  0
LINE
  8
0
 62
     0
 10
95.057
 20
59.877
 30
0.0
 11
95.057
 21
60.8764
 31
0.0
  0
LINE
  8
0
 62
     0
 10
95.057
 20
60.8764
 30
0.0
 11
81.0578
 21
60.8764
 31
0.0
  0
LINE
  8
0
 62
     0
 10
62.0078
 20
60.8764
 30
0.0
 11
62.0078
 21
59.877
 31
0.0
  0
LINE
  8
0
 62
     0
 10
62.0078
 20
59.877
 30
0.0
 11
61.2069
 21
59.877
 31
0.0
  0
LINE
  8
0
 62
     0
 10
61.2069
 20
59.877
 30
0.0
 11
61.2069
 21
56.7764
 31
0.0
  0
LINE
  8
0
 62
     0
 10
61.2069
 20
56.7764
 30
0.0
 11
62.0078
 21
56.7764
 31
0.0
  0
LINE
  8
0
 62
     0
 10
62.0078
 20
56.7764
 30
0.0
 11
62.0078
 21
50.9764
 31
0.0
  0
LINE
  8
0
 62
     0
 10
62.0078
 20
50.9764
 30
0.0
 11
61.2069
 21
50.9764
 31
0.0
  0
LINE
  8
0
 62
     0
 10
61.2069
 20
50.9764
 30
0.0
 11
61.2069
 21
47.8772
 31
0.0
  0
LINE
  8
0
 62
     0
 10
61.2069
 20
47.8772
 30
0.0
 11
62.0078
 21
47.8772
 31
0.0
  0
LINE
  8
0
 62
     0
 10
62.0078
 20
47.8772
 30
0.0
 11
62.0078
 21
46.8768
 31
0.0
  0
LINE
  8
0
 62
     0
 10
62.0078
 20
46.8768
 30
0.0
 11
76.007
 21
46.8768
 31
0.0
  0
LINE
  8
0
 62
     0
 10
76.007
 20
46.8768
 30
0.0
 11
76.007
 21
47.8772
 31
0.0
  0
LINE
  8
0
 62
     0
 10
76.007
 20
47.8772
 30
0.0
 11
76.8078
 21
47.8772
 31
0.0
  0
LINE
  8
0
 62
     0
 10
76.8078
 20
47.8772
 30
0.0
 11
76.8078
 21
50.9764
 31
0.0
  0
LINE
  8
0
 62
     0
 10
76.8078
 20
50.9764
 30
0.0
 11
76.007
 21
50.9764
 31
0.0
  0
LINE
  8
0
 62
     0
 10
76.007
 20
50.9764
 30
0.0
 11
76.007
 21
56.7764
 31
0.0
  0
LINE
  8
0
 62
     0
 10
76.007
 20
56.7764
 30
0.0
 11
76.8078
 21
56.7764
 31
0.0
  0
LINE
  8
0
 62
     0
 10
76.8078
 20
56.7764
 30
0.0
 11
76.8078
 21
59.877
 31
0.0
  0
LINE
  8
0
 62
     0
 10
76.8078
 20
59.877
 30
0.0
 11
76.007
 21
59.877
 31
0.0
  0
LINE
  8
0
 62
     0
 10
76.007
 20
59.877
 30
0.0
 11
76.007
 21
60.8764
 31
0.0
  0
LINE
  8
0
 62
     0
 10
76.007
 20
60.8764
 30
0.0
 11
62.0078
 21
60.8764
 31
0.0
  0
LINE
  8
0
 62
     0
 10
42.9577
 20
60.8764
 30
0.0
 11
42.9577
 21
59.877
 31
0.0
  0
LINE
  8
0
 62
     0
 10
42.9577
 20
59.877
 30
0.0
 11
42.1569
 21
59.877
 31
0.0
  0
LINE
  8
0
 62
     0
 10
42.1569
 20
59.877
 30
0.0
 11
42.1569
 21
56.7764
 31
0.0
  0
LINE
  8
0
 62
     0
 10
42.1569
 20
56.7764
 30
0.0
 11
42.9577
 21
56.7764
 31
0.0
  0
LINE
  8
0
 62
     0
 10
42.9577
 20
56.7764
 30
0.0
 11
42.9577
 21
50.9764
 31
0.0
  0
LINE
  8
0
 62
     0
 10
42.9577
 20
50.9764
 30
0.0
 11
42.1569
 21
50.9764
 31
0.0
  0
LINE
  8
0
 62
     0
 10
42.1569
 20
50.9764
 30
0.0
 11
42.1569
 21
47.8772
 31
0.0
  0
LINE
  8
0
 62
     0
 10
42.1569
 20
47.8772
 30
0.0
 11
42.9577
 21
47.8772
 31
0.0
  0
LINE
  8
0
 62
     0
 10
42.9577
 20
47.8772
 30
0.0
 11
42.9577
 21
46.8768
 31
0.0
  0
LINE
  8
0
 62
     0
 10
42.9577
 20
46.8768
 30
0.0
 11
56.957
 21
46.8768
 31
0.0
  0
LINE
  8
0
 62
     0
 10
56.957
 20
46.8768
 30
0.0
 11
56.957
 21
47.8772
 31
0.0
  0
LINE
  8
0
 62
     0
 10
56.957
 20
47.8772
 30
0.0
 11
57.7578
 21
47.8772
 31
0.0
  0
LINE
  8
0
 62
     0
 10
57.7578
 20
47.8772
 30
0.0
 11
57.7578
 21
50.9764
 31
0.0
  0
LINE
  8
0
 62
     0
 10
57.7578
 20
50.9764
 30
0.0
 11
56.957
 21
50.9764
 31
0.0
  0
LINE
  8
0
 62
     0
 10
56.957
 20
50.9764
 30
0.0
 11
56.957
 21
56.7764
 31
0.0
  0
LINE
  8
0
 62
     0
 10
56.957
 20
56.7764
 30
0.0
 11
57.7578
 21
56.7764
 31
0.0
  0
LINE
  8
0
 62
     0
 10
57.7578
 20
56.7764
 30
0.0
 11
57.7578
 21
59.877
 31
0.0
  0
LINE
  8
0
 62
     0
 10
57.7578
 20
59.877
 30
0.0
 11
56.957
 21
59.877
 31
0.0
  0
LINE
  8
0
 62
     0
 10
56.957
 20
59.877
 30
0.0
 11
56.957
 21
60.8764
 31
0.0
  0
LINE
  8
0
 62
     0
 10
56.957
 20
60.8764
 30
0.0
 11
42.9577
 21
60.8764
 31
0.0
  0
LINE
  8
0
 62
     0
 10
16.7638
 20
60.8764
 30
0.0
 11
16.7638
 21
59.877
 31
0.0
  0
LINE
  8
0
 62
     0
 10
16.7638
 20
59.877
 30
0.0
 11
15.9632
 21
59.877
 31
0.0
  0
LINE
  8
0
 62
     0
 10
15.9632
 20
59.877
 30
0.0
 11
15.9632
 21
56.7764
 31
0.0
  0
LINE
  8
0
 62
     0
 10
15.9632
 20
56.7764
 30
0.0
 11
16.7638
 21
56.7764
 31
0.0
  0
LINE
  8
0
 62
     0
 10
16.7638
 20
56.7764
 30
0.0
 11
16.7638
 21
50.9764
 31
0.0
  0
LINE
  8
0
 62
     0
 10
16.7638
 20
50.9764
 30
0.0
 11
15.9632
 21
50.9764
 31
0.0
  0
LINE
  8
0
 62
     0
 10
15.9632
 20
50.9764
 30
0.0
 11
15.9632
 21
47.8772
 31
0.0
  0
LINE
  8
0
 62
     0
 10
15.9632
 20
47.8772
 30
0.0
 11
16.7638
 21
47.8772
 31
0.0
  0
LINE
  8
0
 62
     0
 10
16.7638
 20
47.8772
 30
0.0
 11
16.7638
 21
46.8768
 31
0.0
  0
LINE
  8
0
 62
     0
 10
16.7638
 20
46.8768
 30
0.0
 11
30.7633
 21
46.8768
 31
0.0
  0
LINE
  8
0
 62
     0
 10
30.7633
 20
46.8768
 30
0.0
 11
30.7633
 21
47.8772
 31
0.0
  0
LINE
  8
0
 62
     0
 10
30.7633
 20
47.8772
 30
0.0
 11
31.564
 21
47.8772
 31
0.0
  0
LINE
  8
0
 62
     0
 10
31.564
 20
47.8772
 30
0.0
 11
31.564
 21
50.9764
 31
0.0
  0
LINE
  8
0
 62
     0
 10
31.564
 20
50.9764
 30
0.0
 11
30.7633
 21
50.9764
 31
0.0
  0
LINE
  8
0
 62
     0
 10
30.7633
 20
50.9764
 30
0.0
 11
30.7633
 21
56.7764
 31
0.0
  0
LINE
  8
0
 62
     0
 10
30.7633
 20
56.7764
 30
0.0
 11
31.564
 21
56.7764
 31
0.0
  0
LINE
  8
0
 62
     0
 10
31.564
 20
56.7764
 30
0.0
 11
31.564
 21
59.877
 31
0.0
  0
LINE
  8
0
 62
     0
 10
31.564
 20
59.877
 30
0.0
 11
30.7633
 21
59.877
 31
0.0
  0
LINE
  8
0
 62
     0
 10
30.7633
 20
59.877
 30
0.0
 11
30.7633
 21
60.8764
 31
0.0
  0
LINE
  8
0
 62
     0
 10
30.7633
 20
60.8764
 30
0.0
 11
16.7638
 21
60.8764
 31
0.0
  0
LINE
  8
0
 62
     0
 10
333.47
 20
79.9264
 30
0.0
 11
333.47
 21
78.927
 31
0.0
  0
LINE
  8
0
 62
     0
 10
333.47
 20
78.927
 30
0.0
 11
332.671
 21
78.927
 31
0.0
  0
LINE
  8
0
 62
     0
 10
332.671
 20
78.927
 30
0.0
 11
332.671
 21
75.8264
 31
0.0
  0
LINE
  8
0
 62
     0
 10
332.671
 20
75.8264
 30
0.0
 11
333.47
 21
75.8264
 31
0.0
  0
LINE
  8
0
 62
     0
 10
333.47
 20
75.8264
 30
0.0
 11
333.47
 21
70.0264
 31
0.0
  0
LINE
  8
0
 62
     0
 10
333.47
 20
70.0264
 30
0.0
 11
332.671
 21
70.0264
 31
0.0
  0
LINE
  8
0
 62
     0
 10
332.671
 20
70.0264
 30
0.0
 11
332.671
 21
66.9272
 31
0.0
  0
LINE
  8
0
 62
     0
 10
332.671
 20
66.9272
 30
0.0
 11
333.47
 21
66.9272
 31
0.0
  0
LINE
  8
0
 62
     0
 10
333.47
 20
66.9272
 30
0.0
 11
333.47
 21
65.9268
 31
0.0
  0
LINE
  8
0
 62
     0
 10
333.47
 20
65.9268
 30
0.0
 11
347.471
 21
65.9268
 31
0.0
  0
LINE
  8
0
 62
     0
 10
347.471
 20
65.9268
 30
0.0
 11
347.471
 21
66.9272
 31
0.0
  0
LINE
  8
0
 62
     0
 10
347.471
 20
66.9272
 30
0.0
 11
348.27
 21
66.9272
 31
0.0
  0
LINE
  8
0
 62
     0
 10
348.27
 20
66.9272
 30
0.0
 11
348.27
 21
70.0264
 31
0.0
  0
LINE
  8
0
 62
     0
 10
348.27
 20
70.0264
 30
0.0
 11
347.471
 21
70.0264
 31
0.0
  0
LINE
  8
0
 62
     0
 10
347.471
 20
70.0264
 30
0.0
 11
347.471
 21
75.8264
 31
0.0
  0
LINE
  8
0
 62
     0
 10
347.471
 20
75.8264
 30
0.0
 11
348.27
 21
75.8264
 31
0.0
  0
LINE
  8
0
 62
     0
 10
348.27
 20
75.8264
 30
0.0
 11
348.27
 21
78.927
 31
0.0
  0
LINE
  8
0
 62
     0
 10
348.27
 20
78.927
 30
0.0
 11
347.471
 21
78.927
 31
0.0
  0
LINE
  8
0
 62
     0
 10
347.471
 20
78.927
 30
0.0
 11
347.471
 21
79.9264
 31
0.0
  0
LINE
  8
0
 62
     0
 10
347.471
 20
79.9264
 30
0.0
 11
333.47
 21
79.9264
 31
0.0
  0
LINE
  8
0
 62
     0
 10
314.42
 20
79.9264
 30
0.0
 11
314.42
 21
78.927
 31
0.0
  0
LINE
  8
0
 62
     0
 10
314.42
 20
78.927
 30
0.0
 11
313.621
 21
78.927
 31
0.0
  0
LINE
  8
0
 62
     0
 10
313.621
 20
78.927
 30
0.0
 11
313.621
 21
75.8264
 31
0.0
  0
LINE
  8
0
 62
     0
 10
313.621
 20
75.8264
 30
0.0
 11
314.42
 21
75.8264
 31
0.0
  0
LINE
  8
0
 62
     0
 10
314.42
 20
75.8264
 30
0.0
 11
314.42
 21
70.0264
 31
0.0
  0
LINE
  8
0
 62
     0
 10
314.42
 20
70.0264
 30
0.0
 11
313.621
 21
70.0264
 31
0.0
  0
LINE
  8
0
 62
     0
 10
313.621
 20
70.0264
 30
0.0
 11
313.621
 21
66.9272
 31
0.0
  0
LINE
  8
0
 62
     0
 10
313.621
 20
66.9272
 30
0.0
 11
314.42
 21
66.9272
 31
0.0
  0
LINE
  8
0
 62
     0
 10
314.42
 20
66.9272
 30
0.0
 11
314.42
 21
65.9268
 31
0.0
  0
LINE
  8
0
 62
     0
 10
314.42
 20
65.9268
 30
0.0
 11
328.421
 21
65.9268
 31
0.0
  0
LINE
  8
0
 62
     0
 10
328.421
 20
65.9268
 30
0.0
 11
328.421
 21
66.9272
 31
0.0
  0
LINE
  8
0
 62
     0
 10
328.421
 20
66.9272
 30
0.0
 11
329.22
 21
66.9272
 31
0.0
  0
LINE
  8
0
 62
     0
 10
329.22
 20
66.9272
 30
0.0
 11
329.22
 21
70.0264
 31
0.0
  0
LINE
  8
0
 62
     0
 10
329.22
 20
70.0264
 30
0.0
 11
328.421
 21
70.0264
 31
0.0
  0
LINE
  8
0
 62
     0
 10
328.421
 20
70.0264
 30
0.0
 11
328.421
 21
75.8264
 31
0.0
  0
LINE
  8
0
 62
     0
 10
328.421
 20
75.8264
 30
0.0
 11
329.22
 21
75.8264
 31
0.0
  0
LINE
  8
0
 62
     0
 10
329.22
 20
75.8264
 30
0.0
 11
329.22
 21
78.927
 31
0.0
  0
LINE
  8
0
 62
     0
 10
329.22
 20
78.927
 30
0.0
 11
328.421
 21
78.927
 31
0.0
  0
LINE
  8
0
 62
     0
 10
328.421
 20
78.927
 30
0.0
 11
328.421
 21
79.9264
 31
0.0
  0
LINE
  8
0
 62
     0
 10
328.421
 20
79.9264
 30
0.0
 11
314.42
 21
79.9264
 31
0.0
  0
LINE
  8
0
 62
     0
 10
295.37
 20
79.9264
 30
0.0
 11
295.37
 21
78.927
 31
0.0
  0
LINE
  8
0
 62
     0
 10
295.37
 20
78.927
 30
0.0
 11
294.571
 21
78.927
 31
0.0
  0
LINE
  8
0
 62
     0
 10
294.571
 20
78.927
 30
0.0
 11
294.571
 21
75.8264
 31
0.0
  0
LINE
  8
0
 62
     0
 10
294.571
 20
75.8264
 30
0.0
 11
295.37
 21
75.8264
 31
0.0
  0
LINE
  8
0
 62
     0
 10
295.37
 20
75.8264
 30
0.0
 11
295.37
 21
70.0264
 31
0.0
  0
LINE
  8
0
 62
     0
 10
295.37
 20
70.0264
 30
0.0
 11
294.571
 21
70.0264
 31
0.0
  0
LINE
  8
0
 62
     0
 10
294.571
 20
70.0264
 30
0.0
 11
294.571
 21
66.9272
 31
0.0
  0
LINE
  8
0
 62
     0
 10
294.571
 20
66.9272
 30
0.0
 11
295.37
 21
66.9272
 31
0.0
  0
LINE
  8
0
 62
     0
 10
295.37
 20
66.9272
 30
0.0
 11
295.37
 21
65.9268
 31
0.0
  0
LINE
  8
0
 62
     0
 10
295.37
 20
65.9268
 30
0.0
 11
309.371
 21
65.9268
 31
0.0
  0
LINE
  8
0
 62
     0
 10
309.371
 20
65.9268
 30
0.0
 11
309.371
 21
66.9272
 31
0.0
  0
LINE
  8
0
 62
     0
 10
309.371
 20
66.9272
 30
0.0
 11
310.17
 21
66.9272
 31
0.0
  0
LINE
  8
0
 62
     0
 10
310.17
 20
66.9272
 30
0.0
 11
310.17
 21
70.0264
 31
0.0
  0
LINE
  8
0
 62
     0
 10
310.17
 20
70.0264
 30
0.0
 11
309.371
 21
70.0264
 31
0.0
  0
LINE
  8
0
 62
     0
 10
309.371
 20
70.0264
 30
0.0
 11
309.371
 21
75.8264
 31
0.0
  0
LINE
  8
0
 62
     0
 10
309.371
 20
75.8264
 30
0.0
 11
310.17
 21
75.8264
 31
0.0
  0
LINE
  8
0
 62
     0
 10
310.17
 20
75.8264
 30
0.0
 11
310.17
 21
78.927
 31
0.0
  0
LINE
  8
0
 62
     0
 10
310.17
 20
78.927
 30
0.0
 11
309.371
 21
78.927
 31
0.0
  0
LINE
  8
0
 62
     0
 10
309.371
 20
78.927
 30
0.0
 11
309.371
 21
79.9264
 31
0.0
  0
LINE
  8
0
 62
     0
 10
309.371
 20
79.9264
 30
0.0
 11
295.37
 21
79.9264
 31
0.0
  0
LINE
  8
0
 62
     0
 10
271.558
 20
79.9264
 30
0.0
 11
271.558
 21
78.927
 31
0.0
  0
LINE
  8
0
 62
     0
 10
271.558
 20
78.927
 30
0.0
 11
270.757
 21
78.927
 31
0.0
  0
LINE
  8
0
 62
     0
 10
270.757
 20
78.927
 30
0.0
 11
270.757
 21
75.8264
 31
0.0
  0
LINE
  8
0
 62
     0
 10
270.757
 20
75.8264
 30
0.0
 11
271.558
 21
75.8264
 31
0.0
  0
LINE
  8
0
 62
     0
 10
271.558
 20
75.8264
 30
0.0
 11
271.558
 21
70.0264
 31
0.0
  0
LINE
  8
0
 62
     0
 10
271.558
 20
70.0264
 30
0.0
 11
270.757
 21
70.0264
 31
0.0
  0
LINE
  8
0
 62
     0
 10
270.757
 20
70.0264
 30
0.0
 11
270.757
 21
66.9272
 31
0.0
  0
LINE
  8
0
 62
     0
 10
270.757
 20
66.9272
 30
0.0
 11
271.558
 21
66.9272
 31
0.0
  0
LINE
  8
0
 62
     0
 10
271.558
 20
66.9272
 30
0.0
 11
271.558
 21
65.9268
 31
0.0
  0
LINE
  8
0
 62
     0
 10
271.558
 20
65.9268
 30
0.0
 11
285.557
 21
65.9268
 31
0.0
  0
LINE
  8
0
 62
     0
 10
285.557
 20
65.9268
 30
0.0
 11
285.557
 21
66.9272
 31
0.0
  0
LINE
  8
0
 62
     0
 10
285.557
 20
66.9272
 30
0.0
 11
286.358
 21
66.9272
 31
0.0
  0
LINE
  8
0
 62
     0
 10
286.358
 20
66.9272
 30
0.0
 11
286.358
 21
70.0264
 31
0.0
  0
LINE
  8
0
 62
     0
 10
286.358
 20
70.0264
 30
0.0
 11
285.557
 21
70.0264
 31
0.0
  0
LINE
  8
0
 62
     0
 10
285.557
 20
70.0264
 30
0.0
 11
285.557
 21
75.8264
 31
0.0
  0
LINE
  8
0
 62
     0
 10
285.557
 20
75.8264
 30
0.0
 11
286.358
 21
75.8264
 31
0.0
  0
LINE
  8
0
 62
     0
 10
286.358
 20
75.8264
 30
0.0
 11
286.358
 21
78.927
 31
0.0
  0
LINE
  8
0
 62
     0
 10
286.358
 20
78.927
 30
0.0
 11
285.557
 21
78.927
 31
0.0
  0
LINE
  8
0
 62
     0
 10
285.557
 20
78.927
 30
0.0
 11
285.557
 21
79.9264
 31
0.0
  0
LINE
  8
0
 62
     0
 10
285.557
 20
79.9264
 30
0.0
 11
271.558
 21
79.9264
 31
0.0
  0
LINE
  8
0
 62
     0
 10
247.745
 20
79.9264
 30
0.0
 11
247.745
 21
78.927
 31
0.0
  0
LINE
  8
0
 62
     0
 10
247.745
 20
78.927
 30
0.0
 11
246.946
 21
78.927
 31
0.0
  0
LINE
  8
0
 62
     0
 10
246.946
 20
78.927
 30
0.0
 11
246.946
 21
75.8264
 31
0.0
  0
LINE
  8
0
 62
     0
 10
246.946
 20
75.8264
 30
0.0
 11
247.745
 21
75.8264
 31
0.0
  0
LINE
  8
0
 62
     0
 10
247.745
 20
75.8264
 30
0.0
 11
247.745
 21
70.0264
 31
0.0
  0
LINE
  8
0
 62
     0
 10
247.745
 20
70.0264
 30
0.0
 11
246.946
 21
70.0264
 31
0.0
  0
LINE
  8
0
 62
     0
 10
246.946
 20
70.0264
 30
0.0
 11
246.946
 21
66.9272
 31
0.0
  0
LINE
  8
0
 62
     0
 10
246.946
 20
66.9272
 30
0.0
 11
247.745
 21
66.9272
 31
0.0
  0
LINE
  8
0
 62
     0
 10
247.745
 20
66.9272
 30
0.0
 11
247.745
 21
65.9268
 31
0.0
  0
LINE
  8
0
 62
     0
 10
247.745
 20
65.9268
 30
0.0
 11
261.746
 21
65.9268
 31
0.0
  0
LINE
  8
0
 62
     0
 10
261.746
 20
65.9268
 30
0.0
 11
261.746
 21
66.9272
 31
0.0
  0
LINE
  8
0
 62
     0
 10
261.746
 20
66.9272
 30
0.0
 11
262.545
 21
66.9272
 31
0.0
  0
LINE
  8
0
 62
     0
 10
262.545
 20
66.9272
 30
0.0
 11
262.545
 21
70.0264
 31
0.0
  0
LINE
  8
0
 62
     0
 10
262.545
 20
70.0264
 30
0.0
 11
261.746
 21
70.0264
 31
0.0
  0
LINE
  8
0
 62
     0
 10
261.746
 20
70.0264
 30
0.0
 11
261.746
 21
75.8264
 31
0.0
  0
LINE
  8
0
 62
     0
 10
261.746
 20
75.8264
 30
0.0
 11
262.545
 21
75.8264
 31
0.0
  0
LINE
  8
0
 62
     0
 10
262.545
 20
75.8264
 30
0.0
 11
262.545
 21
78.927
 31
0.0
  0
LINE
  8
0
 62
     0
 10
262.545
 20
78.927
 30
0.0
 11
261.746
 21
78.927
 31
0.0
  0
LINE
  8
0
 62
     0
 10
261.746
 20
78.927
 30
0.0
 11
261.746
 21
79.9264
 31
0.0
  0
LINE
  8
0
 62
     0
 10
261.746
 20
79.9264
 30
0.0
 11
247.745
 21
79.9264
 31
0.0
  0
LINE
  8
0
 62
     0
 10
228.695
 20
79.9264
 30
0.0
 11
228.695
 21
78.927
 31
0.0
  0
LINE
  8
0
 62
     0
 10
228.695
 20
78.927
 30
0.0
 11
227.896
 21
78.927
 31
0.0
  0
LINE
  8
0
 62
     0
 10
227.896
 20
78.927
 30
0.0
 11
227.896
 21
75.8264
 31
0.0
  0
LINE
  8
0
 62
     0
 10
227.896
 20
75.8264
 30
0.0
 11
228.695
 21
75.8264
 31
0.0
  0
LINE
  8
0
 62
     0
 10
228.695
 20
75.8264
 30
0.0
 11
228.695
 21
70.0264
 31
0.0
  0
LINE
  8
0
 62
     0
 10
228.695
 20
70.0264
 30
0.0
 11
227.896
 21
70.0264
 31
0.0
  0
LINE
  8
0
 62
     0
 10
227.896
 20
70.0264
 30
0.0
 11
227.896
 21
66.9272
 31
0.0
  0
LINE
  8
0
 62
     0
 10
227.896
 20
66.9272
 30
0.0
 11
228.695
 21
66.9272
 31
0.0
  0
LINE
  8
0
 62
     0
 10
228.695
 20
66.9272
 30
0.0
 11
228.695
 21
65.9268
 31
0.0
  0
LINE
  8
0
 62
     0
 10
228.695
 20
65.9268
 30
0.0
 11
242.696
 21
65.9268
 31
0.0
  0
LINE
  8
0
 62
     0
 10
242.696
 20
65.9268
 30
0.0
 11
242.696
 21
66.9272
 31
0.0
  0
LINE
  8
0
 62
     0
 10
242.696
 20
66.9272
 30
0.0
 11
243.495
 21
66.9272
 31
0.0
  0
LINE
  8
0
 62
     0
 10
243.495
 20
66.9272
 30
0.0
 11
243.495
 21
70.0264
 31
0.0
  0
LINE
  8
0
 62
     0
 10
243.495
 20
70.0264
 30
0.0
 11
242.696
 21
70.0264
 31
0.0
  0
LINE
  8
0
 62
     0
 10
242.696
 20
70.0264
 30
0.0
 11
242.696
 21
75.8264
 31
0.0
  0
LINE
  8
0
 62
     0
 10
242.696
 20
75.8264
 30
0.0
 11
243.495
 21
75.8264
 31
0.0
  0
LINE
  8
0
 62
     0
 10
243.495
 20
75.8264
 30
0.0
 11
243.495
 21
78.927
 31
0.0
  0
LINE
  8
0
 62
     0
 10
243.495
 20
78.927
 30
0.0
 11
242.696
 21
78.927
 31
0.0
  0
LINE
  8
0
 62
     0
 10
242.696
 20
78.927
 30
0.0
 11
242.696
 21
79.9264
 31
0.0
  0
LINE
  8
0
 62
     0
 10
242.696
 20
79.9264
 30
0.0
 11
228.695
 21
79.9264
 31
0.0
  0
LINE
  8
0
 62
     0
 10
209.645
 20
79.9264
 30
0.0
 11
209.645
 21
78.927
 31
0.0
  0
LINE
  8
0
 62
     0
 10
209.645
 20
78.927
 30
0.0
 11
208.846
 21
78.927
 31
0.0
  0
LINE
  8
0
 62
     0
 10
208.846
 20
78.927
 30
0.0
 11
208.846
 21
75.8264
 31
0.0
  0
LINE
  8
0
 62
     0
 10
208.846
 20
75.8264
 30
0.0
 11
209.645
 21
75.8264
 31
0.0
  0
LINE
  8
0
 62
     0
 10
209.645
 20
75.8264
 30
0.0
 11
209.645
 21
70.0264
 31
0.0
  0
LINE
  8
0
 62
     0
 10
209.645
 20
70.0264
 30
0.0
 11
208.846
 21
70.0264
 31
0.0
  0
LINE
  8
0
 62
     0
 10
208.846
 20
70.0264
 30
0.0
 11
208.846
 21
66.9272
 31
0.0
  0
LINE
  8
0
 62
     0
 10
208.846
 20
66.9272
 30
0.0
 11
209.645
 21
66.9272
 31
0.0
  0
LINE
  8
0
 62
     0
 10
209.645
 20
66.9272
 30
0.0
 11
209.645
 21
65.9268
 31
0.0
  0
LINE
  8
0
 62
     0
 10
209.645
 20
65.9268
 30
0.0
 11
223.646
 21
65.9268
 31
0.0
  0
LINE
  8
0
 62
     0
 10
223.646
 20
65.9268
 30
0.0
 11
223.646
 21
66.9272
 31
0.0
  0
LINE
  8
0
 62
     0
 10
223.646
 20
66.9272
 30
0.0
 11
224.445
 21
66.9272
 31
0.0
  0
LINE
  8
0
 62
     0
 10
224.445
 20
66.9272
 30
0.0
 11
224.445
 21
70.0264
 31
0.0
  0
LINE
  8
0
 62
     0
 10
224.445
 20
70.0264
 30
0.0
 11
223.646
 21
70.0264
 31
0.0
  0
LINE
  8
0
 62
     0
 10
223.646
 20
70.0264
 30
0.0
 11
223.646
 21
75.8264
 31
0.0
  0
LINE
  8
0
 62
     0
 10
223.646
 20
75.8264
 30
0.0
 11
224.445
 21
75.8264
 31
0.0
  0
LINE
  8
0
 62
     0
 10
224.445
 20
75.8264
 30
0.0
 11
224.445
 21
78.927
 31
0.0
  0
LINE
  8
0
 62
     0
 10
224.445
 20
78.927
 30
0.0
 11
223.646
 21
78.927
 31
0.0
  0
LINE
  8
0
 62
     0
 10
223.646
 20
78.927
 30
0.0
 11
223.646
 21
79.9264
 31
0.0
  0
LINE
  8
0
 62
     0
 10
223.646
 20
79.9264
 30
0.0
 11
209.645
 21
79.9264
 31
0.0
  0
LINE
  8
0
 62
     0
 10
190.595
 20
79.9264
 30
0.0
 11
190.595
 21
78.927
 31
0.0
  0
LINE
  8
0
 62
     0
 10
190.595
 20
78.927
 30
0.0
 11
189.796
 21
78.927
 31
0.0
  0
LINE
  8
0
 62
     0
 10
189.796
 20
78.927
 30
0.0
 11
189.796
 21
75.8264
 31
0.0
  0
LINE
  8
0
 62
     0
 10
189.796
 20
75.8264
 30
0.0
 11
190.595
 21
75.8264
 31
0.0
  0
LINE
  8
0
 62
     0
 10
190.595
 20
75.8264
 30
0.0
 11
190.595
 21
70.0264
 31
0.0
  0
LINE
  8
0
 62
     0
 10
190.595
 20
70.0264
 30
0.0
 11
189.796
 21
70.0264
 31
0.0
  0
LINE
  8
0
 62
     0
 10
189.796
 20
70.0264
 30
0.0
 11
189.796
 21
66.9272
 31
0.0
  0
LINE
  8
0
 62
     0
 10
189.796
 20
66.9272
 30
0.0
 11
190.595
 21
66.9272
 31
0.0
  0
LINE
  8
0
 62
     0
 10
190.595
 20
66.9272
 30
0.0
 11
190.595
 21
65.9268
 31
0.0
  0
LINE
  8
0
 62
     0
 10
190.595
 20
65.9268
 30
0.0
 11
204.596
 21
65.9268
 31
0.0
  0
LINE
  8
0
 62
     0
 10
204.596
 20
65.9268
 30
0.0
 11
204.596
 21
66.9272
 31
0.0
  0
LINE
  8
0
 62
     0
 10
204.596
 20
66.9272
 30
0.0
 11
205.395
 21
66.9272
 31
0.0
  0
LINE
  8
0
 62
     0
 10
205.395
 20
66.9272
 30
0.0
 11
205.395
 21
70.0264
 31
0.0
  0
LINE
  8
0
 62
     0
 10
205.395
 20
70.0264
 30
0.0
 11
204.596
 21
70.0264
 31
0.0
  0
LINE
  8
0
 62
     0
 10
204.596
 20
70.0264
 30
0.0
 11
204.596
 21
75.8264
 31
0.0
  0
LINE
  8
0
 62
     0
 10
204.596
 20
75.8264
 30
0.0
 11
205.395
 21
75.8264
 31
0.0
  0
LINE
  8
0
 62
     0
 10
205.395
 20
75.8264
 30
0.0
 11
205.395
 21
78.927
 31
0.0
  0
LINE
  8
0
 62
     0
 10
205.395
 20
78.927
 30
0.0
 11
204.596
 21
78.927
 31
0.0
  0
LINE
  8
0
 62
     0
 10
204.596
 20
78.927
 30
0.0
 11
204.596
 21
79.9264
 31
0.0
  0
LINE
  8
0
 62
     0
 10
204.596
 20
79.9264
 30
0.0
 11
190.595
 21
79.9264
 31
0.0
  0
LINE
  8
0
 62
     0
 10
171.545
 20
79.9264
 30
0.0
 11
171.545
 21
78.927
 31
0.0
  0
LINE
  8
0
 62
     0
 10
171.545
 20
78.927
 30
0.0
 11
170.746
 21
78.927
 31
0.0
  0
LINE
  8
0
 62
     0
 10
170.746
 20
78.927
 30
0.0
 11
170.746
 21
75.8264
 31
0.0
  0
LINE
  8
0
 62
     0
 10
170.746
 20
75.8264
 30
0.0
 11
171.545
 21
75.8264
 31
0.0
  0
LINE
  8
0
 62
     0
 10
171.545
 20
75.8264
 30
0.0
 11
171.545
 21
70.0264
 31
0.0
  0
LINE
  8
0
 62
     0
 10
171.545
 20
70.0264
 30
0.0
 11
170.746
 21
70.0264
 31
0.0
  0
LINE
  8
0
 62
     0
 10
170.746
 20
70.0264
 30
0.0
 11
170.746
 21
66.9272
 31
0.0
  0
LINE
  8
0
 62
     0
 10
170.746
 20
66.9272
 30
0.0
 11
171.545
 21
66.9272
 31
0.0
  0
LINE
  8
0
 62
     0
 10
171.545
 20
66.9272
 30
0.0
 11
171.545
 21
65.9268
 31
0.0
  0
LINE
  8
0
 62
     0
 10
171.545
 20
65.9268
 30
0.0
 11
185.546
 21
65.9268
 31
0.0
  0
LINE
  8
0
 62
     0
 10
185.546
 20
65.9268
 30
0.0
 11
185.546
 21
66.9272
 31
0.0
  0
LINE
  8
0
 62
     0
 10
185.546
 20
66.9272
 30
0.0
 11
186.345
 21
66.9272
 31
0.0
  0
LINE
  8
0
 62
     0
 10
186.345
 20
66.9272
 30
0.0
 11
186.345
 21
70.0264
 31
0.0
  0
LINE
  8
0
 62
     0
 10
186.345
 20
70.0264
 30
0.0
 11
185.546
 21
70.0264
 31
0.0
  0
LINE
  8
0
 62
     0
 10
185.546
 20
70.0264
 30
0.0
 11
185.546
 21
75.8264
 31
0.0
  0
LINE
  8
0
 62
     0
 10
185.546
 20
75.8264
 30
0.0
 11
186.345
 21
75.8264
 31
0.0
  0
LINE
  8
0
 62
     0
 10
186.345
 20
75.8264
 30
0.0
 11
186.345
 21
78.927
 31
0.0
  0
LINE
  8
0
 62
     0
 10
186.345
 20
78.927
 30
0.0
 11
185.546
 21
78.927
 31
0.0
  0
LINE
  8
0
 62
     0
 10
185.546
 20
78.927
 30
0.0
 11
185.546
 21
79.9264
 31
0.0
  0
LINE
  8
0
 62
     0
 10
185.546
 20
79.9264
 30
0.0
 11
171.545
 21
79.9264
 31
0.0
  0
LINE
  8
0
 62
     0
 10
152.495
 20
79.9264
 30
0.0
 11
152.495
 21
78.927
 31
0.0
  0
LINE
  8
0
 62
     0
 10
152.495
 20
78.927
 30
0.0
 11
151.696
 21
78.927
 31
0.0
  0
LINE
  8
0
 62
     0
 10
151.696
 20
78.927
 30
0.0
 11
151.696
 21
75.8264
 31
0.0
  0
LINE
  8
0
 62
     0
 10
151.696
 20
75.8264
 30
0.0
 11
152.495
 21
75.8264
 31
0.0
  0
LINE
  8
0
 62
     0
 10
152.495
 20
75.8264
 30
0.0
 11
152.495
 21
70.0264
 31
0.0
  0
LINE
  8
0
 62
     0
 10
152.495
 20
70.0264
 30
0.0
 11
151.696
 21
70.0264
 31
0.0
  0
LINE
  8
0
 62
     0
 10
151.696
 20
70.0264
 30
0.0
 11
151.696
 21
66.9272
 31
0.0
  0
LINE
  8
0
 62
     0
 10
151.696
 20
66.9272
 30
0.0
 11
152.495
 21
66.9272
 31
0.0
  0
LINE
  8
0
 62
     0
 10
152.495
 20
66.9272
 30
0.0
 11
152.495
 21
65.9268
 31
0.0
  0
LINE
  8
0
 62
     0
 10
152.495
 20
65.9268
 30
0.0
 11
166.496
 21
65.9268
 31
0.0
  0
LINE
  8
0
 62
     0
 10
166.496
 20
65.9268
 30
0.0
 11
166.496
 21
66.9272
 31
0.0
  0
LINE
  8
0
 62
     0
 10
166.496
 20
66.9272
 30
0.0
 11
167.295
 21
66.9272
 31
0.0
  0
LINE
  8
0
 62
     0
 10
167.295
 20
66.9272
 30
0.0
 11
167.295
 21
70.0264
 31
0.0
  0
LINE
  8
0
 62
     0
 10
167.295
 20
70.0264
 30
0.0
 11
166.496
 21
70.0264
 31
0.0
  0
LINE
  8
0
 62
     0
 10
166.496
 20
70.0264
 30
0.0
 11
166.496
 21
75.8264
 31
0.0
  0
LINE
  8
0
 62
     0
 10
166.496
 20
75.8264
 30
0.0
 11
167.295
 21
75.8264
 31
0.0
  0
LINE
  8
0
 62
     0
 10
167.295
 20
75.8264
 30
0.0
 11
167.295
 21
78.927
 31
0.0
  0
LINE
  8
0
 62
     0
 10
167.295
 20
78.927
 30
0.0
 11
166.496
 21
78.927
 31
0.0
  0
LINE
  8
0
 62
     0
 10
166.496
 20
78.927
 30
0.0
 11
166.496
 21
79.9264
 31
0.0
  0
LINE
  8
0
 62
     0
 10
166.496
 20
79.9264
 30
0.0
 11
152.495
 21
79.9264
 31
0.0
  0
LINE
  8
0
 62
     0
 10
133.445
 20
79.9264
 30
0.0
 11
133.445
 21
78.927
 31
0.0
  0
LINE
  8
0
 62
     0
 10
133.445
 20
78.927
 30
0.0
 11
132.644
 21
78.927
 31
0.0
  0
LINE
  8
0
 62
     0
 10
132.644
 20
78.927
 30
0.0
 11
132.644
 21
75.8264
 31
0.0
  0
LINE
  8
0
 62
     0
 10
132.644
 20
75.8264
 30
0.0
 11
133.445
 21
75.8264
 31
0.0
  0
LINE
  8
0
 62
     0
 10
133.445
 20
75.8264
 30
0.0
 11
133.445
 21
70.0264
 31
0.0
  0
LINE
  8
0
 62
     0
 10
133.445
 20
70.0264
 30
0.0
 11
132.644
 21
70.0264
 31
0.0
  0
LINE
  8
0
 62
     0
 10
132.644
 20
70.0264
 30
0.0
 11
132.644
 21
66.9272
 31
0.0
  0
LINE
  8
0
 62
     0
 10
132.644
 20
66.9272
 30
0.0
 11
133.445
 21
66.9272
 31
0.0
  0
LINE
  8
0
 62
     0
 10
133.445
 20
66.9272
 30
0.0
 11
133.445
 21
65.9268
 31
0.0
  0
LINE
  8
0
 62
     0
 10
133.445
 20
65.9268
 30
0.0
 11
147.446
 21
65.9268
 31
0.0
  0
LINE
  8
0
 62
     0
 10
147.446
 20
65.9268
 30
0.0
 11
147.446
 21
66.9272
 31
0.0
  0
LINE
  8
0
 62
     0
 10
147.446
 20
66.9272
 30
0.0
 11
148.245
 21
66.9272
 31
0.0
  0
LINE
  8
0
 62
     0
 10
148.245
 20
66.9272
 30
0.0
 11
148.245
 21
70.0264
 31
0.0
  0
LINE
  8
0
 62
     0
 10
148.245
 20
70.0264
 30
0.0
 11
147.446
 21
70.0264
 31
0.0
  0
LINE
  8
0
 62
     0
 10
147.446
 20
70.0264
 30
0.0
 11
147.446
 21
75.8264
 31
0.0
  0
LINE
  8
0
 62
     0
 10
147.446
 20
75.8264
 30
0.0
 11
148.245
 21
75.8264
 31
0.0
  0
LINE
  8
0
 62
     0
 10
148.245
 20
75.8264
 30
0.0
 11
148.245
 21
78.927
 31
0.0
  0
LINE
  8
0
 62
     0
 10
148.245
 20
78.927
 30
0.0
 11
147.446
 21
78.927
 31
0.0
  0
LINE
  8
0
 62
     0
 10
147.446
 20
78.927
 30
0.0
 11
147.446
 21
79.9264
 31
0.0
  0
LINE
  8
0
 62
     0
 10
147.446
 20
79.9264
 30
0.0
 11
133.445
 21
79.9264
 31
0.0
  0
LINE
  8
0
 62
     0
 10
114.395
 20
79.9264
 30
0.0
 11
114.395
 21
78.927
 31
0.0
  0
LINE
  8
0
 62
     0
 10
114.395
 20
78.927
 30
0.0
 11
113.596
 21
78.927
 31
0.0
  0
LINE
  8
0
 62
     0
 10
113.596
 20
78.927
 30
0.0
 11
113.596
 21
75.8264
 31
0.0
  0
LINE
  8
0
 62
     0
 10
113.596
 20
75.8264
 30
0.0
 11
114.395
 21
75.8264
 31
0.0
  0
LINE
  8
0
 62
     0
 10
114.395
 20
75.8264
 30
0.0
 11
114.395
 21
70.0264
 31
0.0
  0
LINE
  8
0
 62
     0
 10
114.395
 20
70.0264
 30
0.0
 11
113.596
 21
70.0264
 31
0.0
  0
LINE
  8
0
 62
     0
 10
113.596
 20
70.0264
 30
0.0
 11
113.596
 21
66.9272
 31
0.0
  0
LINE
  8
0
 62
     0
 10
113.596
 20
66.9272
 30
0.0
 11
114.395
 21
66.9272
 31
0.0
  0
LINE
  8
0
 62
     0
 10
114.395
 20
66.9272
 30
0.0
 11
114.395
 21
65.9268
 31
0.0
  0
LINE
  8
0
 62
     0
 10
114.395
 20
65.9268
 30
0.0
 11
128.396
 21
65.9268
 31
0.0
  0
LINE
  8
0
 62
     0
 10
128.396
 20
65.9268
 30
0.0
 11
128.396
 21
66.9272
 31
0.0
  0
LINE
  8
0
 62
     0
 10
128.396
 20
66.9272
 30
0.0
 11
129.195
 21
66.9272
 31
0.0
  0
LINE
  8
0
 62
     0
 10
129.195
 20
66.9272
 30
0.0
 11
129.195
 21
70.0264
 31
0.0
  0
LINE
  8
0
 62
     0
 10
129.195
 20
70.0264
 30
0.0
 11
128.396
 21
70.0264
 31
0.0
  0
LINE
  8
0
 62
     0
 10
128.396
 20
70.0264
 30
0.0
 11
128.396
 21
75.8264
 31
0.0
  0
LINE
  8
0
 62
     0
 10
128.396
 20
75.8264
 30
0.0
 11
129.195
 21
75.8264
 31
0.0
  0
LINE
  8
0
 62
     0
 10
129.195
 20
75.8264
 30
0.0
 11
129.195
 21
78.927
 31
0.0
  0
LINE
  8
0
 62
     0
 10
129.195
 20
78.927
 30
0.0
 11
128.396
 21
78.927
 31
0.0
  0
LINE
  8
0
 62
     0
 10
128.396
 20
78.927
 30
0.0
 11
128.396
 21
79.9264
 31
0.0
  0
LINE
  8
0
 62
     0
 10
128.396
 20
79.9264
 30
0.0
 11
114.395
 21
79.9264
 31
0.0
  0
LINE
  8
0
 62
     0
 10
95.3452
 20
79.9264
 30
0.0
 11
95.3452
 21
78.927
 31
0.0
  0
LINE
  8
0
 62
     0
 10
95.3452
 20
78.927
 30
0.0
 11
94.5459
 21
78.927
 31
0.0
  0
LINE
  8
0
 62
     0
 10
94.5459
 20
78.927
 30
0.0
 11
94.5459
 21
75.8264
 31
0.0
  0
LINE
  8
0
 62
     0
 10
94.5459
 20
75.8264
 30
0.0
 11
95.3452
 21
75.8264
 31
0.0
  0
LINE
  8
0
 62
     0
 10
95.3452
 20
75.8264
 30
0.0
 11
95.3452
 21
70.0264
 31
0.0
  0
LINE
  8
0
 62
     0
 10
95.3452
 20
70.0264
 30
0.0
 11
94.5459
 21
70.0264
 31
0.0
  0
LINE
  8
0
 62
     0
 10
94.5459
 20
70.0264
 30
0.0
 11
94.5459
 21
66.9272
 31
0.0
  0
LINE
  8
0
 62
     0
 10
94.5459
 20
66.9272
 30
0.0
 11
95.3452
 21
66.9272
 31
0.0
  0
LINE
  8
0
 62
     0
 10
95.3452
 20
66.9272
 30
0.0
 11
95.3452
 21
65.9268
 31
0.0
  0
LINE
  8
0
 62
     0
 10
95.3452
 20
65.9268
 30
0.0
 11
109.346
 21
65.9268
 31
0.0
  0
LINE
  8
0
 62
     0
 10
109.346
 20
65.9268
 30
0.0
 11
109.346
 21
66.9272
 31
0.0
  0
LINE
  8
0
 62
     0
 10
109.346
 20
66.9272
 30
0.0
 11
110.145
 21
66.9272
 31
0.0
  0
LINE
  8
0
 62
     0
 10
110.145
 20
66.9272
 30
0.0
 11
110.145
 21
70.0264
 31
0.0
  0
LINE
  8
0
 62
     0
 10
110.145
 20
70.0264
 30
0.0
 11
109.346
 21
70.0264
 31
0.0
  0
LINE
  8
0
 62
     0
 10
109.346
 20
70.0264
 30
0.0
 11
109.346
 21
75.8264
 31
0.0
  0
LINE
  8
0
 62
     0
 10
109.346
 20
75.8264
 30
0.0
 11
110.145
 21
75.8264
 31
0.0
  0
LINE
  8
0
 62
     0
 10
110.145
 20
75.8264
 30
0.0
 11
110.145
 21
78.927
 31
0.0
  0
LINE
  8
0
 62
     0
 10
110.145
 20
78.927
 30
0.0
 11
109.346
 21
78.927
 31
0.0
  0
LINE
  8
0
 62
     0
 10
109.346
 20
78.927
 30
0.0
 11
109.346
 21
79.9264
 31
0.0
  0
LINE
  8
0
 62
     0
 10
109.346
 20
79.9264
 30
0.0
 11
95.3452
 21
79.9264
 31
0.0
  0
LINE
  8
0
 62
     0
 10
76.2953
 20
79.9264
 30
0.0
 11
76.2953
 21
78.927
 31
0.0
  0
LINE
  8
0
 62
     0
 10
76.2953
 20
78.927
 30
0.0
 11
75.4959
 21
78.927
 31
0.0
  0
LINE
  8
0
 62
     0
 10
75.4959
 20
78.927
 30
0.0
 11
75.4959
 21
75.8264
 31
0.0
  0
LINE
  8
0
 62
     0
 10
75.4959
 20
75.8264
 30
0.0
 11
76.2953
 21
75.8264
 31
0.0
  0
LINE
  8
0
 62
     0
 10
76.2953
 20
75.8264
 30
0.0
 11
76.2953
 21
70.0264
 31
0.0
  0
LINE
  8
0
 62
     0
 10
76.2953
 20
70.0264
 30
0.0
 11
75.4959
 21
70.0264
 31
0.0
  0
LINE
  8
0
 62
     0
 10
75.4959
 20
70.0264
 30
0.0
 11
75.4959
 21
66.9272
 31
0.0
  0
LINE
  8
0
 62
     0
 10
75.4959
 20
66.9272
 30
0.0
 11
76.2953
 21
66.9272
 31
0.0
  0
LINE
  8
0
 62
     0
 10
76.2953
 20
66.9272
 30
0.0
 11
76.2953
 21
65.9268
 31
0.0
  0
LINE
  8
0
 62
     0
 10
76.2953
 20
65.9268
 30
0.0
 11
90.2959
 21
65.9268
 31
0.0
  0
LINE
  8
0
 62
     0
 10
90.2959
 20
65.9268
 30
0.0
 11
90.2959
 21
66.9272
 31
0.0
  0
LINE
  8
0
 62
     0
 10
90.2959
 20
66.9272
 30
0.0
 11
91.0953
 21
66.9272
 31
0.0
  0
LINE
  8
0
 62
     0
 10
91.0953
 20
66.9272
 30
0.0
 11
91.0953
 21
70.0264
 31
0.0
  0
LINE
  8
0
 62
     0
 10
91.0953
 20
70.0264
 30
0.0
 11
90.2959
 21
70.0264
 31
0.0
  0
LINE
  8
0
 62
     0
 10
90.2959
 20
70.0264
 30
0.0
 11
90.2959
 21
75.8264
 31
0.0
  0
LINE
  8
0
 62
     0
 10
90.2959
 20
75.8264
 30
0.0
 11
91.0953
 21
75.8264
 31
0.0
  0
LINE
  8
0
 62
     0
 10
91.0953
 20
75.8264
 30
0.0
 11
91.0953
 21
78.927
 31
0.0
  0
LINE
  8
0
 62
     0
 10
91.0953
 20
78.927
 30
0.0
 11
90.2959
 21
78.927
 31
0.0
  0
LINE
  8
0
 62
     0
 10
90.2959
 20
78.927
 30
0.0
 11
90.2959
 21
79.9264
 31
0.0
  0
LINE
  8
0
 62
     0
 10
90.2959
 20
79.9264
 30
0.0
 11
76.2953
 21
79.9264
 31
0.0
  0
LINE
  8
0
 62
     0
 10
57.2453
 20
79.9264
 30
0.0
 11
57.2453
 21
78.927
 31
0.0
  0
LINE
  8
0
 62
     0
 10
57.2453
 20
78.927
 30
0.0
 11
56.4459
 21
78.927
 31
0.0
  0
LINE
  8
0
 62
     0
 10
56.4459
 20
78.927
 30
0.0
 11
56.4459
 21
75.8264
 31
0.0
  0
LINE
  8
0
 62
     0
 10
56.4459
 20
75.8264
 30
0.0
 11
57.2453
 21
75.8264
 31
0.0
  0
LINE
  8
0
 62
     0
 10
57.2453
 20
75.8264
 30
0.0
 11
57.2453
 21
70.0264
 31
0.0
  0
LINE
  8
0
 62
     0
 10
57.2453
 20
70.0264
 30
0.0
 11
56.4459
 21
70.0264
 31
0.0
  0
LINE
  8
0
 62
     0
 10
56.4459
 20
70.0264
 30
0.0
 11
56.4459
 21
66.9272
 31
0.0
  0
LINE
  8
0
 62
     0
 10
56.4459
 20
66.9272
 30
0.0
 11
57.2453
 21
66.9272
 31
0.0
  0
LINE
  8
0
 62
     0
 10
57.2453
 20
66.9272
 30
0.0
 11
57.2453
 21
65.9268
 31
0.0
  0
LINE
  8
0
 62
     0
 10
57.2453
 20
65.9268
 30
0.0
 11
71.2459
 21
65.9268
 31
0.0
  0
LINE
  8
0
 62
     0
 10
71.2459
 20
65.9268
 30
0.0
 11
71.2459
 21
66.9272
 31
0.0
  0
LINE
  8
0
 62
     0
 10
71.2459
 20
66.9272
 30
0.0
 11
72.0453
 21
66.9272
 31
0.0
  0
LINE
  8
0
 62
     0
 10
72.0453
 20
66.9272
 30
0.0
 11
72.0453
 21
70.0264
 31
0.0
  0
LINE
  8
0
 62
     0
 10
72.0453
 20
70.0264
 30
0.0
 11
71.2459
 21
70.0264
 31
0.0
  0
LINE
  8
0
 62
     0
 10
71.2459
 20
70.0264
 30
0.0
 11
71.2459
 21
75.8264
 31
0.0
  0
LINE
  8
0
 62
     0
 10
71.2459
 20
75.8264
 30
0.0
 11
72.0453
 21
75.8264
 31
0.0
  0
LINE
  8
0
 62
     0
 10
72.0453
 20
75.8264
 30
0.0
 11
72.0453
 21
78.927
 31
0.0
  0
LINE
  8
0
 62
     0
 10
72.0453
 20
78.927
 30
0.0
 11
71.2459
 21
78.927
 31
0.0
  0
LINE
  8
0
 62
     0
 10
71.2459
 20
78.927
 30
0.0
 11
71.2459
 21
79.9264
 31
0.0
  0
LINE
  8
0
 62
     0
 10
71.2459
 20
79.9264
 30
0.0
 11
57.2453
 21
79.9264
 31
0.0
  0
LINE
  8
0
 62
     0
 10
38.1952
 20
79.9264
 30
0.0
 11
38.1952
 21
78.927
 31
0.0
  0
LINE
  8
0
 62
     0
 10
38.1952
 20
78.927
 30
0.0
 11
37.3959
 21
78.927
 31
0.0
  0
LINE
  8
0
 62
     0
 10
37.3959
 20
78.927
 30
0.0
 11
37.3959
 21
75.8264
 31
0.0
  0
LINE
  8
0
 62
     0
 10
37.3959
 20
75.8264
 30
0.0
 11
38.1952
 21
75.8264
 31
0.0
  0
LINE
  8
0
 62
     0
 10
38.1952
 20
75.8264
 30
0.0
 11
38.1952
 21
70.0264
 31
0.0
  0
LINE
  8
0
 62
     0
 10
38.1952
 20
70.0264
 30
0.0
 11
37.3959
 21
70.0264
 31
0.0
  0
LINE
  8
0
 62
     0
 10
37.3959
 20
70.0264
 30
0.0
 11
37.3959
 21
66.9272
 31
0.0
  0
LINE
  8
0
 62
     0
 10
37.3959
 20
66.9272
 30
0.0
 11
38.1952
 21
66.9272
 31
0.0
  0
LINE
  8
0
 62
     0
 10
38.1952
 20
66.9272
 30
0.0
 11
38.1952
 21
65.9268
 31
0.0
  0
LINE
  8
0
 62
     0
 10
38.1952
 20
65.9268
 30
0.0
 11
52.1959
 21
65.9268
 31
0.0
  0
LINE
  8
0
 62
     0
 10
52.1959
 20
65.9268
 30
0.0
 11
52.1959
 21
66.9272
 31
0.0
  0
LINE
  8
0
 62
     0
 10
52.1959
 20
66.9272
 30
0.0
 11
52.9953
 21
66.9272
 31
0.0
  0
LINE
  8
0
 62
     0
 10
52.9953
 20
66.9272
 30
0.0
 11
52.9953
 21
70.0264
 31
0.0
  0
LINE
  8
0
 62
     0
 10
52.9953
 20
70.0264
 30
0.0
 11
52.1959
 21
70.0264
 31
0.0
  0
LINE
  8
0
 62
     0
 10
52.1959
 20
70.0264
 30
0.0
 11
52.1959
 21
75.8264
 31
0.0
  0
LINE
  8
0
 62
     0
 10
52.1959
 20
75.8264
 30
0.0
 11
52.9953
 21
75.8264
 31
0.0
  0
LINE
  8
0
 62
     0
 10
52.9953
 20
75.8264
 30
0.0
 11
52.9953
 21
78.927
 31
0.0
  0
LINE
  8
0
 62
     0
 10
52.9953
 20
78.927
 30
0.0
 11
52.1959
 21
78.927
 31
0.0
  0
LINE
  8
0
 62
     0
 10
52.1959
 20
78.927
 30
0.0
 11
52.1959
 21
79.9264
 31
0.0
  0
LINE
  8
0
 62
     0
 10
52.1959
 20
79.9264
 30
0.0
 11
38.1952
 21
79.9264
 31
0.0
  0
LINE
  8
0
 62
     0
 10
14.3826
 20
79.9264
 30
0.0
 11
14.3826
 21
78.927
 31
0.0
  0
LINE
  8
0
 62
     0
 10
14.3826
 20
78.927
 30
0.0
 11
13.5819
 21
78.927
 31
0.0
  0
LINE
  8
0
 62
     0
 10
13.5819
 20
78.927
 30
0.0
 11
13.5819
 21
75.8264
 31
0.0
  0
LINE
  8
0
 62
     0
 10
13.5819
 20
75.8264
 30
0.0
 11
14.3826
 21
75.8264
 31
0.0
  0
LINE
  8
0
 62
     0
 10
14.3826
 20
75.8264
 30
0.0
 11
14.3826
 21
70.0264
 31
0.0
  0
LINE
  8
0
 62
     0
 10
14.3826
 20
70.0264
 30
0.0
 11
13.5819
 21
70.0264
 31
0.0
  0
LINE
  8
0
 62
     0
 10
13.5819
 20
70.0264
 30
0.0
 11
13.5819
 21
66.9272
 31
0.0
  0
LINE
  8
0
 62
     0
 10
13.5819
 20
66.9272
 30
0.0
 11
14.3826
 21
66.9272
 31
0.0
  0
LINE
  8
0
 62
     0
 10
14.3826
 20
66.9272
 30
0.0
 11
14.3826
 21
65.9268
 31
0.0
  0
LINE
  8
0
 62
     0
 10
14.3826
 20
65.9268
 30
0.0
 11
28.3821
 21
65.9268
 31
0.0
  0
LINE
  8
0
 62
     0
 10
28.3821
 20
65.9268
 30
0.0
 11
28.3821
 21
66.9272
 31
0.0
  0
LINE
  8
0
 62
     0
 10
28.3821
 20
66.9272
 30
0.0
 11
29.1827
 21
66.9272
 31
0.0
  0
LINE
  8
0
 62
     0
 10
29.1827
 20
66.9272
 30
0.0
 11
29.1827
 21
70.0264
 31
0.0
  0
LINE
  8
0
 62
     0
 10
29.1827
 20
70.0264
 30
0.0
 11
28.3821
 21
70.0264
 31
0.0
  0
LINE
  8
0
 62
     0
 10
28.3821
 20
70.0264
 30
0.0
 11
28.3821
 21
75.8264
 31
0.0
  0
LINE
  8
0
 62
     0
 10
28.3821
 20
75.8264
 30
0.0
 11
29.1827
 21
75.8264
 31
0.0
  0
LINE
  8
0
 62
     0
 10
29.1827
 20
75.8264
 30
0.0
 11
29.1827
 21
78.927
 31
0.0
  0
LINE
  8
0
 62
     0
 10
29.1827
 20
78.927
 30
0.0
 11
28.3821
 21
78.927
 31
0.0
  0
LINE
  8
0
 62
     0
 10
28.3821
 20
78.927
 30
0.0
 11
28.3821
 21
79.9264
 31
0.0
  0
LINE
  8
0
 62
     0
 10
28.3821
 20
79.9264
 30
0.0
 11
14.3826
 21
79.9264
 31
0.0
  0
LINE
  8
0
 62
     0
 10
266.795
 20
98.9775
 30
0.0
 11
266.795
 21
97.977
 31
0.0
  0
LINE
  8
0
 62
     0
 10
266.795
 20
97.977
 30
0.0
 11
265.996
 21
97.977
 31
0.0
  0
LINE
  8
0
 62
     0
 10
265.996
 20
97.977
 30
0.0
 11
265.996
 21
94.8764
 31
0.0
  0
LINE
  8
0
 62
     0
 10
265.996
 20
94.8764
 30
0.0
 11
266.795
 21
94.8764
 31
0.0
  0
LINE
  8
0
 62
     0
 10
266.795
 20
94.8764
 30
0.0
 11
266.795
 21
94.277
 31
0.0
  0
LINE
  8
0
 62
     0
 10
266.795
 20
94.277
 30
0.0
 11
265.271
 21
94.277
 31
0.0
  0
LINE
  8
0
 62
     0
 10
265.271
 20
94.277
 30
0.0
 11
265.271
 21
97.5071
 31
0.0
  0
LINE
  8
0
 62
     0
 10
265.271
 20
97.5071
 30
0.0
 11
258.52
 21
97.5071
 31
0.0
  0
LINE
  8
0
 62
     0
 10
258.52
 20
97.5071
 30
0.0
 11
258.52
 21
94.277
 31
0.0
  0
LINE
  8
0
 62
     0
 10
258.52
 20
94.277
 30
0.0
 11
257.696
 21
94.277
 31
0.0
  0
LINE
  8
0
 62
     0
 10
257.696
 20
94.277
 30
0.0
 11
257.696
 21
91.477
 31
0.0
  0
LINE
  8
0
 62
     0
 10
257.696
 20
91.477
 30
0.0
 11
258.52
 21
91.477
 31
0.0
  0
LINE
  8
0
 62
     0
 10
258.52
 20
91.477
 30
0.0
 11
258.52
 21
85.2082
 31
0.0
  0
LINE
  8
0
 62
     0
 10
258.52
 20
85.2082
 30
0.0
 11
260.245
 21
85.2082
 31
0.0
  0
LINE
  8
0
 62
     0
 10
260.245
 20
85.2082
 30
0.0
 11
260.245
 21
84.008
 31
0.0
  0
LINE
  8
0
 62
     0
 10
260.245
 20
84.008
 30
0.0
 11
263.546
 21
84.008
 31
0.0
  0
LINE
  8
0
 62
     0
 10
263.546
 20
84.008
 30
0.0
 11
263.546
 21
85.2082
 31
0.0
  0
LINE
  8
0
 62
     0
 10
263.546
 20
85.2082
 30
0.0
 11
265.271
 21
85.2082
 31
0.0
  0
LINE
  8
0
 62
     0
 10
265.271
 20
85.2082
 30
0.0
 11
265.271
 21
89.6772
 31
0.0
  0
LINE
  8
0
 62
     0
 10
265.271
 20
89.6772
 30
0.0
 11
266.795
 21
89.6772
 31
0.0
  0
LINE
  8
0
 62
     0
 10
266.795
 20
89.6772
 30
0.0
 11
266.795
 21
89.0778
 31
0.0
  0
LINE
  8
0
 62
     0
 10
266.795
 20
89.0778
 30
0.0
 11
265.996
 21
89.0778
 31
0.0
  0
LINE
  8
0
 62
     0
 10
265.996
 20
89.0778
 30
0.0
 11
265.996
 21
85.9772
 31
0.0
  0
LINE
  8
0
 62
     0
 10
265.996
 20
85.9772
 30
0.0
 11
266.795
 21
85.9772
 31
0.0
  0
LINE
  8
0
 62
     0
 10
266.795
 20
85.9772
 30
0.0
 11
266.795
 21
84.9768
 31
0.0
  0
LINE
  8
0
 62
     0
 10
266.795
 20
84.9768
 30
0.0
 11
280.796
 21
84.9768
 31
0.0
  0
LINE
  8
0
 62
     0
 10
280.796
 20
84.9768
 30
0.0
 11
280.796
 21
85.9772
 31
0.0
  0
LINE
  8
0
 62
     0
 10
280.796
 20
85.9772
 30
0.0
 11
281.595
 21
85.9772
 31
0.0
  0
LINE
  8
0
 62
     0
 10
281.595
 20
85.9772
 30
0.0
 11
281.595
 21
89.0778
 31
0.0
  0
LINE
  8
0
 62
     0
 10
281.595
 20
89.0778
 30
0.0
 11
280.796
 21
89.0778
 31
0.0
  0
LINE
  8
0
 62
     0
 10
280.796
 20
89.0778
 30
0.0
 11
280.796
 21
89.6772
 31
0.0
  0
LINE
  8
0
 62
     0
 10
280.796
 20
89.6772
 30
0.0
 11
282.32
 21
89.6772
 31
0.0
  0
LINE
  8
0
 62
     0
 10
282.32
 20
89.6772
 30
0.0
 11
282.32
 21
85.2082
 31
0.0
  0
LINE
  8
0
 62
     0
 10
282.32
 20
85.2082
 30
0.0
 11
284.045
 21
85.2082
 31
0.0
  0
LINE
  8
0
 62
     0
 10
284.045
 20
85.2082
 30
0.0
 11
284.045
 21
84.008
 31
0.0
  0
LINE
  8
0
 62
     0
 10
284.045
 20
84.008
 30
0.0
 11
287.346
 21
84.008
 31
0.0
  0
LINE
  8
0
 62
     0
 10
287.346
 20
84.008
 30
0.0
 11
287.346
 21
85.2082
 31
0.0
  0
LINE
  8
0
 62
     0
 10
287.346
 20
85.2082
 30
0.0
 11
289.071
 21
85.2082
 31
0.0
  0
LINE
  8
0
 62
     0
 10
289.071
 20
85.2082
 30
0.0
 11
289.071
 21
91.477
 31
0.0
  0
LINE
  8
0
 62
     0
 10
289.071
 20
91.477
 30
0.0
 11
289.895
 21
91.477
 31
0.0
  0
LINE
  8
0
 62
     0
 10
289.895
 20
91.477
 30
0.0
 11
289.895
 21
94.277
 31
0.0
  0
LINE
  8
0
 62
     0
 10
289.895
 20
94.277
 30
0.0
 11
289.071
 21
94.277
 31
0.0
  0
LINE
  8
0
 62
     0
 10
289.071
 20
94.277
 30
0.0
 11
289.071
 21
97.5071
 31
0.0
  0
LINE
  8
0
 62
     0
 10
289.071
 20
97.5071
 30
0.0
 11
282.32
 21
97.5071
 31
0.0
  0
LINE
  8
0
 62
     0
 10
282.32
 20
97.5071
 30
0.0
 11
282.32
 21
94.277
 31
0.0
  0
LINE
  8
0
 62
     0
 10
282.32
 20
94.277
 30
0.0
 11
280.796
 21
94.277
 31
0.0
  0
LINE
  8
0
 62
     0
 10
280.796
 20
94.277
 30
0.0
 11
280.796
 21
94.8764
 31
0.0
  0
LINE
  8
0
 62
     0
 10
280.796
 20
94.8764
 30
0.0
 11
281.595
 21
94.8764
 31
0.0
  0
LINE
  8
0
 62
     0
 10
281.595
 20
94.8764
 30
0.0
 11
281.595
 21
97.977
 31
0.0
  0
LINE
  8
0
 62
     0
 10
281.595
 20
97.977
 30
0.0
 11
280.796
 21
97.977
 31
0.0
  0
LINE
  8
0
 62
     0
 10
280.796
 20
97.977
 30
0.0
 11
280.796
 21
98.9775
 31
0.0
  0
LINE
  8
0
 62
     0
 10
280.796
 20
98.9775
 30
0.0
 11
266.795
 21
98.9775
 31
0.0
  0
LINE
  8
0
 62
     0
 10
333.47
 20
98.9775
 30
0.0
 11
333.47
 21
97.977
 31
0.0
  0
LINE
  8
0
 62
     0
 10
333.47
 20
97.977
 30
0.0
 11
332.671
 21
97.977
 31
0.0
  0
LINE
  8
0
 62
     0
 10
332.671
 20
97.977
 30
0.0
 11
332.671
 21
94.8764
 31
0.0
  0
LINE
  8
0
 62
     0
 10
332.671
 20
94.8764
 30
0.0
 11
333.47
 21
94.8764
 31
0.0
  0
LINE
  8
0
 62
     0
 10
333.47
 20
94.8764
 30
0.0
 11
333.47
 21
89.0778
 31
0.0
  0
LINE
  8
0
 62
     0
 10
333.47
 20
89.0778
 30
0.0
 11
332.671
 21
89.0778
 31
0.0
  0
LINE
  8
0
 62
     0
 10
332.671
 20
89.0778
 30
0.0
 11
332.671
 21
85.9772
 31
0.0
  0
LINE
  8
0
 62
     0
 10
332.671
 20
85.9772
 30
0.0
 11
333.47
 21
85.9772
 31
0.0
  0
LINE
  8
0
 62
     0
 10
333.47
 20
85.9772
 30
0.0
 11
333.47
 21
84.9768
 31
0.0
  0
LINE
  8
0
 62
     0
 10
333.47
 20
84.9768
 30
0.0
 11
347.471
 21
84.9768
 31
0.0
  0
LINE
  8
0
 62
     0
 10
347.471
 20
84.9768
 30
0.0
 11
347.471
 21
85.9772
 31
0.0
  0
LINE
  8
0
 62
     0
 10
347.471
 20
85.9772
 30
0.0
 11
348.27
 21
85.9772
 31
0.0
  0
LINE
  8
0
 62
     0
 10
348.27
 20
85.9772
 30
0.0
 11
348.27
 21
89.0778
 31
0.0
  0
LINE
  8
0
 62
     0
 10
348.27
 20
89.0778
 30
0.0
 11
347.471
 21
89.0778
 31
0.0
  0
LINE
  8
0
 62
     0
 10
347.471
 20
89.0778
 30
0.0
 11
347.471
 21
94.8764
 31
0.0
  0
LINE
  8
0
 62
     0
 10
347.471
 20
94.8764
 30
0.0
 11
348.27
 21
94.8764
 31
0.0
  0
LINE
  8
0
 62
     0
 10
348.27
 20
94.8764
 30
0.0
 11
348.27
 21
97.977
 31
0.0
  0
LINE
  8
0
 62
     0
 10
348.27
 20
97.977
 30
0.0
 11
347.471
 21
97.977
 31
0.0
  0
LINE
  8
0
 62
     0
 10
347.471
 20
97.977
 30
0.0
 11
347.471
 21
98.9775
 31
0.0
  0
LINE
  8
0
 62
     0
 10
347.471
 20
98.9775
 30
0.0
 11
333.47
 21
98.9775
 31
0.0
  0
LINE
  8
0
 62
     0
 10
314.42
 20
98.9775
 30
0.0
 11
314.42
 21
97.977
 31
0.0
  0
LINE
  8
0
 62
     0
 10
314.42
 20
97.977
 30
0.0
 11
313.621
 21
97.977
 31
0.0
  0
LINE
  8
0
 62
     0
 10
313.621
 20
97.977
 30
0.0
 11
313.621
 21
94.8764
 31
0.0
  0
LINE
  8
0
 62
     0
 10
313.621
 20
94.8764
 30
0.0
 11
314.42
 21
94.8764
 31
0.0
  0
LINE
  8
0
 62
     0
 10
314.42
 20
94.8764
 30
0.0
 11
314.42
 21
89.0778
 31
0.0
  0
LINE
  8
0
 62
     0
 10
314.42
 20
89.0778
 30
0.0
 11
313.621
 21
89.0778
 31
0.0
  0
LINE
  8
0
 62
     0
 10
313.621
 20
89.0778
 30
0.0
 11
313.621
 21
85.9772
 31
0.0
  0
LINE
  8
0
 62
     0
 10
313.621
 20
85.9772
 30
0.0
 11
314.42
 21
85.9772
 31
0.0
  0
LINE
  8
0
 62
     0
 10
314.42
 20
85.9772
 30
0.0
 11
314.42
 21
84.9768
 31
0.0
  0
LINE
  8
0
 62
     0
 10
314.42
 20
84.9768
 30
0.0
 11
328.421
 21
84.9768
 31
0.0
  0
LINE
  8
0
 62
     0
 10
328.421
 20
84.9768
 30
0.0
 11
328.421
 21
85.9772
 31
0.0
  0
LINE
  8
0
 62
     0
 10
328.421
 20
85.9772
 30
0.0
 11
329.22
 21
85.9772
 31
0.0
  0
LINE
  8
0
 62
     0
 10
329.22
 20
85.9772
 30
0.0
 11
329.22
 21
89.0778
 31
0.0
  0
LINE
  8
0
 62
     0
 10
329.22
 20
89.0778
 30
0.0
 11
328.421
 21
89.0778
 31
0.0
  0
LINE
  8
0
 62
     0
 10
328.421
 20
89.0778
 30
0.0
 11
328.421
 21
94.8764
 31
0.0
  0
LINE
  8
0
 62
     0
 10
328.421
 20
94.8764
 30
0.0
 11
329.22
 21
94.8764
 31
0.0
  0
LINE
  8
0
 62
     0
 10
329.22
 20
94.8764
 30
0.0
 11
329.22
 21
97.977
 31
0.0
  0
LINE
  8
0
 62
     0
 10
329.22
 20
97.977
 30
0.0
 11
328.421
 21
97.977
 31
0.0
  0
LINE
  8
0
 62
     0
 10
328.421
 20
97.977
 30
0.0
 11
328.421
 21
98.9775
 31
0.0
  0
LINE
  8
0
 62
     0
 10
328.421
 20
98.9775
 30
0.0
 11
314.42
 21
98.9775
 31
0.0
  0
LINE
  8
0
 62
     0
 10
295.37
 20
98.9775
 30
0.0
 11
295.37
 21
97.977
 31
0.0
  0
LINE
  8
0
 62
     0
 10
295.37
 20
97.977
 30
0.0
 11
294.571
 21
97.977
 31
0.0
  0
LINE
  8
0
 62
     0
 10
294.571
 20
97.977
 30
0.0
 11
294.571
 21
94.8764
 31
0.0
  0
LINE
  8
0
 62
     0
 10
294.571
 20
94.8764
 30
0.0
 11
295.37
 21
94.8764
 31
0.0
  0
LINE
  8
0
 62
     0
 10
295.37
 20
94.8764
 30
0.0
 11
295.37
 21
89.0778
 31
0.0
  0
LINE
  8
0
 62
     0
 10
295.37
 20
89.0778
 30
0.0
 11
294.571
 21
89.0778
 31
0.0
  0
LINE
  8
0
 62
     0
 10
294.571
 20
89.0778
 30
0.0
 11
294.571
 21
85.9772
 31
0.0
  0
LINE
  8
0
 62
     0
 10
294.571
 20
85.9772
 30
0.0
 11
295.37
 21
85.9772
 31
0.0
  0
LINE
  8
0
 62
     0
 10
295.37
 20
85.9772
 30
0.0
 11
295.37
 21
84.9768
 31
0.0
  0
LINE
  8
0
 62
     0
 10
295.37
 20
84.9768
 30
0.0
 11
309.371
 21
84.9768
 31
0.0
  0
LINE
  8
0
 62
     0
 10
309.371
 20
84.9768
 30
0.0
 11
309.371
 21
85.9772
 31
0.0
  0
LINE
  8
0
 62
     0
 10
309.371
 20
85.9772
 30
0.0
 11
310.17
 21
85.9772
 31
0.0
  0
LINE
  8
0
 62
     0
 10
310.17
 20
85.9772
 30
0.0
 11
310.17
 21
89.0778
 31
0.0
  0
LINE
  8
0
 62
     0
 10
310.17
 20
89.0778
 30
0.0
 11
309.371
 21
89.0778
 31
0.0
  0
LINE
  8
0
 62
     0
 10
309.371
 20
89.0778
 30
0.0
 11
309.371
 21
94.8764
 31
0.0
  0
LINE
  8
0
 62
     0
 10
309.371
 20
94.8764
 30
0.0
 11
310.17
 21
94.8764
 31
0.0
  0
LINE
  8
0
 62
     0
 10
310.17
 20
94.8764
 30
0.0
 11
310.17
 21
97.977
 31
0.0
  0
LINE
  8
0
 62
     0
 10
310.17
 20
97.977
 30
0.0
 11
309.371
 21
97.977
 31
0.0
  0
LINE
  8
0
 62
     0
 10
309.371
 20
97.977
 30
0.0
 11
309.371
 21
98.9775
 31
0.0
  0
LINE
  8
0
 62
     0
 10
309.371
 20
98.9775
 30
0.0
 11
295.37
 21
98.9775
 31
0.0
  0
LINE
  8
0
 62
     0
 10
238.22
 20
98.9775
 30
0.0
 11
238.22
 21
97.977
 31
0.0
  0
LINE
  8
0
 62
     0
 10
238.22
 20
97.977
 30
0.0
 11
237.421
 21
97.977
 31
0.0
  0
LINE
  8
0
 62
     0
 10
237.421
 20
97.977
 30
0.0
 11
237.421
 21
94.8764
 31
0.0
  0
LINE
  8
0
 62
     0
 10
237.421
 20
94.8764
 30
0.0
 11
238.22
 21
94.8764
 31
0.0
  0
LINE
  8
0
 62
     0
 10
238.22
 20
94.8764
 30
0.0
 11
238.22
 21
89.0778
 31
0.0
  0
LINE
  8
0
 62
     0
 10
238.22
 20
89.0778
 30
0.0
 11
237.421
 21
89.0778
 31
0.0
  0
LINE
  8
0
 62
     0
 10
237.421
 20
89.0778
 30
0.0
 11
237.421
 21
85.9772
 31
0.0
  0
LINE
  8
0
 62
     0
 10
237.421
 20
85.9772
 30
0.0
 11
238.22
 21
85.9772
 31
0.0
  0
LINE
  8
0
 62
     0
 10
238.22
 20
85.9772
 30
0.0
 11
238.22
 21
84.9768
 31
0.0
  0
LINE
  8
0
 62
     0
 10
238.22
 20
84.9768
 30
0.0
 11
252.221
 21
84.9768
 31
0.0
  0
LINE
  8
0
 62
     0
 10
252.221
 20
84.9768
 30
0.0
 11
252.221
 21
85.9772
 31
0.0
  0
LINE
  8
0
 62
     0
 10
252.221
 20
85.9772
 30
0.0
 11
253.02
 21
85.9772
 31
0.0
  0
LINE
  8
0
 62
     0
 10
253.02
 20
85.9772
 30
0.0
 11
253.02
 21
89.0778
 31
0.0
  0
LINE
  8
0
 62
     0
 10
253.02
 20
89.0778
 30
0.0
 11
252.221
 21
89.0778
 31
0.0
  0
LINE
  8
0
 62
     0
 10
252.221
 20
89.0778
 30
0.0
 11
252.221
 21
94.8764
 31
0.0
  0
LINE
  8
0
 62
     0
 10
252.221
 20
94.8764
 30
0.0
 11
253.02
 21
94.8764
 31
0.0
  0
LINE
  8
0
 62
     0
 10
253.02
 20
94.8764
 30
0.0
 11
253.02
 21
97.977
 31
0.0
  0
LINE
  8
0
 62
     0
 10
253.02
 20
97.977
 30
0.0
 11
252.221
 21
97.977
 31
0.0
  0
LINE
  8
0
 62
     0
 10
252.221
 20
97.977
 30
0.0
 11
252.221
 21
98.9775
 31
0.0
  0
LINE
  8
0
 62
     0
 10
252.221
 20
98.9775
 30
0.0
 11
238.22
 21
98.9775
 31
0.0
  0
LINE
  8
0
 62
     0
 10
219.17
 20
98.9775
 30
0.0
 11
219.17
 21
97.977
 31
0.0
  0
LINE
  8
0
 62
     0
 10
219.17
 20
97.977
 30
0.0
 11
218.371
 21
97.977
 31
0.0
  0
LINE
  8
0
 62
     0
 10
218.371
 20
97.977
 30
0.0
 11
218.371
 21
94.8764
 31
0.0
  0
LINE
  8
0
 62
     0
 10
218.371
 20
94.8764
 30
0.0
 11
219.17
 21
94.8764
 31
0.0
  0
LINE
  8
0
 62
     0
 10
219.17
 20
94.8764
 30
0.0
 11
219.17
 21
89.0778
 31
0.0
  0
LINE
  8
0
 62
     0
 10
219.17
 20
89.0778
 30
0.0
 11
218.371
 21
89.0778
 31
0.0
  0
LINE
  8
0
 62
     0
 10
218.371
 20
89.0778
 30
0.0
 11
218.371
 21
85.9772
 31
0.0
  0
LINE
  8
0
 62
     0
 10
218.371
 20
85.9772
 30
0.0
 11
219.17
 21
85.9772
 31
0.0
  0
LINE
  8
0
 62
     0
 10
219.17
 20
85.9772
 30
0.0
 11
219.17
 21
84.9768
 31
0.0
  0
LINE
  8
0
 62
     0
 10
219.17
 20
84.9768
 30
0.0
 11
233.171
 21
84.9768
 31
0.0
  0
LINE
  8
0
 62
     0
 10
233.171
 20
84.9768
 30
0.0
 11
233.171
 21
85.9772
 31
0.0
  0
LINE
  8
0
 62
     0
 10
233.171
 20
85.9772
 30
0.0
 11
233.97
 21
85.9772
 31
0.0
  0
LINE
  8
0
 62
     0
 10
233.97
 20
85.9772
 30
0.0
 11
233.97
 21
89.0778
 31
0.0
  0
LINE
  8
0
 62
     0
 10
233.97
 20
89.0778
 30
0.0
 11
233.171
 21
89.0778
 31
0.0
  0
LINE
  8
0
 62
     0
 10
233.171
 20
89.0778
 30
0.0
 11
233.171
 21
94.8764
 31
0.0
  0
LINE
  8
0
 62
     0
 10
233.171
 20
94.8764
 30
0.0
 11
233.97
 21
94.8764
 31
0.0
  0
LINE
  8
0
 62
     0
 10
233.97
 20
94.8764
 30
0.0
 11
233.97
 21
97.977
 31
0.0
  0
LINE
  8
0
 62
     0
 10
233.97
 20
97.977
 30
0.0
 11
233.171
 21
97.977
 31
0.0
  0
LINE
  8
0
 62
     0
 10
233.171
 20
97.977
 30
0.0
 11
233.171
 21
98.9775
 31
0.0
  0
LINE
  8
0
 62
     0
 10
233.171
 20
98.9775
 30
0.0
 11
219.17
 21
98.9775
 31
0.0
  0
LINE
  8
0
 62
     0
 10
200.12
 20
98.9775
 30
0.0
 11
200.12
 21
97.977
 31
0.0
  0
LINE
  8
0
 62
     0
 10
200.12
 20
97.977
 30
0.0
 11
199.321
 21
97.977
 31
0.0
  0
LINE
  8
0
 62
     0
 10
199.321
 20
97.977
 30
0.0
 11
199.321
 21
94.8764
 31
0.0
  0
LINE
  8
0
 62
     0
 10
199.321
 20
94.8764
 30
0.0
 11
200.12
 21
94.8764
 31
0.0
  0
LINE
  8
0
 62
     0
 10
200.12
 20
94.8764
 30
0.0
 11
200.12
 21
89.0778
 31
0.0
  0
LINE
  8
0
 62
     0
 10
200.12
 20
89.0778
 30
0.0
 11
199.321
 21
89.0778
 31
0.0
  0
LINE
  8
0
 62
     0
 10
199.321
 20
89.0778
 30
0.0
 11
199.321
 21
85.9772
 31
0.0
  0
LINE
  8
0
 62
     0
 10
199.321
 20
85.9772
 30
0.0
 11
200.12
 21
85.9772
 31
0.0
  0
LINE
  8
0
 62
     0
 10
200.12
 20
85.9772
 30
0.0
 11
200.12
 21
84.9768
 31
0.0
  0
LINE
  8
0
 62
     0
 10
200.12
 20
84.9768
 30
0.0
 11
214.121
 21
84.9768
 31
0.0
  0
LINE
  8
0
 62
     0
 10
214.121
 20
84.9768
 30
0.0
 11
214.121
 21
85.9772
 31
0.0
  0
LINE
  8
0
 62
     0
 10
214.121
 20
85.9772
 30
0.0
 11
214.92
 21
85.9772
 31
0.0
  0
LINE
  8
0
 62
     0
 10
214.92
 20
85.9772
 30
0.0
 11
214.92
 21
89.0778
 31
0.0
  0
LINE
  8
0
 62
     0
 10
214.92
 20
89.0778
 30
0.0
 11
214.121
 21
89.0778
 31
0.0
  0
LINE
  8
0
 62
     0
 10
214.121
 20
89.0778
 30
0.0
 11
214.121
 21
94.8764
 31
0.0
  0
LINE
  8
0
 62
     0
 10
214.121
 20
94.8764
 30
0.0
 11
214.92
 21
94.8764
 31
0.0
  0
LINE
  8
0
 62
     0
 10
214.92
 20
94.8764
 30
0.0
 11
214.92
 21
97.977
 31
0.0
  0
LINE
  8
0
 62
     0
 10
214.92
 20
97.977
 30
0.0
 11
214.121
 21
97.977
 31
0.0
  0
LINE
  8
0
 62
     0
 10
214.121
 20
97.977
 30
0.0
 11
214.121
 21
98.9775
 31
0.0
  0
LINE
  8
0
 62
     0
 10
214.121
 20
98.9775
 30
0.0
 11
200.12
 21
98.9775
 31
0.0
  0
LINE
  8
0
 62
     0
 10
181.07
 20
98.9775
 30
0.0
 11
181.07
 21
97.977
 31
0.0
  0
LINE
  8
0
 62
     0
 10
181.07
 20
97.977
 30
0.0
 11
180.271
 21
97.977
 31
0.0
  0
LINE
  8
0
 62
     0
 10
180.271
 20
97.977
 30
0.0
 11
180.271
 21
94.8764
 31
0.0
  0
LINE
  8
0
 62
     0
 10
180.271
 20
94.8764
 30
0.0
 11
181.07
 21
94.8764
 31
0.0
  0
LINE
  8
0
 62
     0
 10
181.07
 20
94.8764
 30
0.0
 11
181.07
 21
89.0778
 31
0.0
  0
LINE
  8
0
 62
     0
 10
181.07
 20
89.0778
 30
0.0
 11
180.271
 21
89.0778
 31
0.0
  0
LINE
  8
0
 62
     0
 10
180.271
 20
89.0778
 30
0.0
 11
180.271
 21
85.9772
 31
0.0
  0
LINE
  8
0
 62
     0
 10
180.271
 20
85.9772
 30
0.0
 11
181.07
 21
85.9772
 31
0.0
  0
LINE
  8
0
 62
     0
 10
181.07
 20
85.9772
 30
0.0
 11
181.07
 21
84.9768
 31
0.0
  0
LINE
  8
0
 62
     0
 10
181.07
 20
84.9768
 30
0.0
 11
195.071
 21
84.9768
 31
0.0
  0
LINE
  8
0
 62
     0
 10
195.071
 20
84.9768
 30
0.0
 11
195.071
 21
85.9772
 31
0.0
  0
LINE
  8
0
 62
     0
 10
195.071
 20
85.9772
 30
0.0
 11
195.87
 21
85.9772
 31
0.0
  0
LINE
  8
0
 62
     0
 10
195.87
 20
85.9772
 30
0.0
 11
195.87
 21
89.0778
 31
0.0
  0
LINE
  8
0
 62
     0
 10
195.87
 20
89.0778
 30
0.0
 11
195.071
 21
89.0778
 31
0.0
  0
LINE
  8
0
 62
     0
 10
195.071
 20
89.0778
 30
0.0
 11
195.071
 21
94.8764
 31
0.0
  0
LINE
  8
0
 62
     0
 10
195.071
 20
94.8764
 30
0.0
 11
195.87
 21
94.8764
 31
0.0
  0
LINE
  8
0
 62
     0
 10
195.87
 20
94.8764
 30
0.0
 11
195.87
 21
97.977
 31
0.0
  0
LINE
  8
0
 62
     0
 10
195.87
 20
97.977
 30
0.0
 11
195.071
 21
97.977
 31
0.0
  0
LINE
  8
0
 62
     0
 10
195.071
 20
97.977
 30
0.0
 11
195.071
 21
98.9775
 31
0.0
  0
LINE
  8
0
 62
     0
 10
195.071
 20
98.9775
 30
0.0
 11
181.07
 21
98.9775
 31
0.0
  0
LINE
  8
0
 62
     0
 10
162.02
 20
98.9775
 30
0.0
 11
162.02
 21
97.977
 31
0.0
  0
LINE
  8
0
 62
     0
 10
162.02
 20
97.977
 30
0.0
 11
161.221
 21
97.977
 31
0.0
  0
LINE
  8
0
 62
     0
 10
161.221
 20
97.977
 30
0.0
 11
161.221
 21
94.8764
 31
0.0
  0
LINE
  8
0
 62
     0
 10
161.221
 20
94.8764
 30
0.0
 11
162.02
 21
94.8764
 31
0.0
  0
LINE
  8
0
 62
     0
 10
162.02
 20
94.8764
 30
0.0
 11
162.02
 21
89.0778
 31
0.0
  0
LINE
  8
0
 62
     0
 10
162.02
 20
89.0778
 30
0.0
 11
161.221
 21
89.0778
 31
0.0
  0
LINE
  8
0
 62
     0
 10
161.221
 20
89.0778
 30
0.0
 11
161.221
 21
85.9772
 31
0.0
  0
LINE
  8
0
 62
     0
 10
161.221
 20
85.9772
 30
0.0
 11
162.02
 21
85.9772
 31
0.0
  0
LINE
  8
0
 62
     0
 10
162.02
 20
85.9772
 30
0.0
 11
162.02
 21
84.9768
 31
0.0
  0
LINE
  8
0
 62
     0
 10
162.02
 20
84.9768
 30
0.0
 11
176.021
 21
84.9768
 31
0.0
  0
LINE
  8
0
 62
     0
 10
176.021
 20
84.9768
 30
0.0
 11
176.021
 21
85.9772
 31
0.0
  0
LINE
  8
0
 62
     0
 10
176.021
 20
85.9772
 30
0.0
 11
176.82
 21
85.9772
 31
0.0
  0
LINE
  8
0
 62
     0
 10
176.82
 20
85.9772
 30
0.0
 11
176.82
 21
89.0778
 31
0.0
  0
LINE
  8
0
 62
     0
 10
176.82
 20
89.0778
 30
0.0
 11
176.021
 21
89.0778
 31
0.0
  0
LINE
  8
0
 62
     0
 10
176.021
 20
89.0778
 30
0.0
 11
176.021
 21
94.8764
 31
0.0
  0
LINE
  8
0
 62
     0
 10
176.021
 20
94.8764
 30
0.0
 11
176.82
 21
94.8764
 31
0.0
  0
LINE
  8
0
 62
     0
 10
176.82
 20
94.8764
 30
0.0
 11
176.82
 21
97.977
 31
0.0
  0
LINE
  8
0
 62
     0
 10
176.82
 20
97.977
 30
0.0
 11
176.021
 21
97.977
 31
0.0
  0
LINE
  8
0
 62
     0
 10
176.021
 20
97.977
 30
0.0
 11
176.021
 21
98.9775
 31
0.0
  0
LINE
  8
0
 62
     0
 10
176.021
 20
98.9775
 30
0.0
 11
162.02
 21
98.9775
 31
0.0
  0
LINE
  8
0
 62
     0
 10
142.97
 20
98.9775
 30
0.0
 11
142.97
 21
97.977
 31
0.0
  0
LINE
  8
0
 62
     0
 10
142.97
 20
97.977
 30
0.0
 11
142.171
 21
97.977
 31
0.0
  0
LINE
  8
0
 62
     0
 10
142.171
 20
97.977
 30
0.0
 11
142.171
 21
94.8764
 31
0.0
  0
LINE
  8
0
 62
     0
 10
142.171
 20
94.8764
 30
0.0
 11
142.97
 21
94.8764
 31
0.0
  0
LINE
  8
0
 62
     0
 10
142.97
 20
94.8764
 30
0.0
 11
142.97
 21
89.0778
 31
0.0
  0
LINE
  8
0
 62
     0
 10
142.97
 20
89.0778
 30
0.0
 11
142.171
 21
89.0778
 31
0.0
  0
LINE
  8
0
 62
     0
 10
142.171
 20
89.0778
 30
0.0
 11
142.171
 21
85.9772
 31
0.0
  0
LINE
  8
0
 62
     0
 10
142.171
 20
85.9772
 30
0.0
 11
142.97
 21
85.9772
 31
0.0
  0
LINE
  8
0
 62
     0
 10
142.97
 20
85.9772
 30
0.0
 11
142.97
 21
84.9768
 31
0.0
  0
LINE
  8
0
 62
     0
 10
142.97
 20
84.9768
 30
0.0
 11
156.971
 21
84.9768
 31
0.0
  0
LINE
  8
0
 62
     0
 10
156.971
 20
84.9768
 30
0.0
 11
156.971
 21
85.9772
 31
0.0
  0
LINE
  8
0
 62
     0
 10
156.971
 20
85.9772
 30
0.0
 11
157.77
 21
85.9772
 31
0.0
  0
LINE
  8
0
 62
     0
 10
157.77
 20
85.9772
 30
0.0
 11
157.77
 21
89.0778
 31
0.0
  0
LINE
  8
0
 62
     0
 10
157.77
 20
89.0778
 30
0.0
 11
156.971
 21
89.0778
 31
0.0
  0
LINE
  8
0
 62
     0
 10
156.971
 20
89.0778
 30
0.0
 11
156.971
 21
94.8764
 31
0.0
  0
LINE
  8
0
 62
     0
 10
156.971
 20
94.8764
 30
0.0
 11
157.77
 21
94.8764
 31
0.0
  0
LINE
  8
0
 62
     0
 10
157.77
 20
94.8764
 30
0.0
 11
157.77
 21
97.977
 31
0.0
  0
LINE
  8
0
 62
     0
 10
157.77
 20
97.977
 30
0.0
 11
156.971
 21
97.977
 31
0.0
  0
LINE
  8
0
 62
     0
 10
156.971
 20
97.977
 30
0.0
 11
156.971
 21
98.9775
 31
0.0
  0
LINE
  8
0
 62
     0
 10
156.971
 20
98.9775
 30
0.0
 11
142.97
 21
98.9775
 31
0.0
  0
LINE
  8
0
 62
     0
 10
123.92
 20
98.9775
 30
0.0
 11
123.92
 21
97.977
 31
0.0
  0
LINE
  8
0
 62
     0
 10
123.92
 20
97.977
 30
0.0
 11
123.119
 21
97.977
 31
0.0
  0
LINE
  8
0
 62
     0
 10
123.119
 20
97.977
 30
0.0
 11
123.119
 21
94.8764
 31
0.0
  0
LINE
  8
0
 62
     0
 10
123.119
 20
94.8764
 30
0.0
 11
123.92
 21
94.8764
 31
0.0
  0
LINE
  8
0
 62
     0
 10
123.92
 20
94.8764
 30
0.0
 11
123.92
 21
89.0778
 31
0.0
  0
LINE
  8
0
 62
     0
 10
123.92
 20
89.0778
 30
0.0
 11
123.119
 21
89.0778
 31
0.0
  0
LINE
  8
0
 62
     0
 10
123.119
 20
89.0778
 30
0.0
 11
123.119
 21
85.9772
 31
0.0
  0
LINE
  8
0
 62
     0
 10
123.119
 20
85.9772
 30
0.0
 11
123.92
 21
85.9772
 31
0.0
  0
LINE
  8
0
 62
     0
 10
123.92
 20
85.9772
 30
0.0
 11
123.92
 21
84.9768
 31
0.0
  0
LINE
  8
0
 62
     0
 10
123.92
 20
84.9768
 30
0.0
 11
137.921
 21
84.9768
 31
0.0
  0
LINE
  8
0
 62
     0
 10
137.921
 20
84.9768
 30
0.0
 11
137.921
 21
85.9772
 31
0.0
  0
LINE
  8
0
 62
     0
 10
137.921
 20
85.9772
 30
0.0
 11
138.72
 21
85.9772
 31
0.0
  0
LINE
  8
0
 62
     0
 10
138.72
 20
85.9772
 30
0.0
 11
138.72
 21
89.0778
 31
0.0
  0
LINE
  8
0
 62
     0
 10
138.72
 20
89.0778
 30
0.0
 11
137.921
 21
89.0778
 31
0.0
  0
LINE
  8
0
 62
     0
 10
137.921
 20
89.0778
 30
0.0
 11
137.921
 21
94.8764
 31
0.0
  0
LINE
  8
0
 62
     0
 10
137.921
 20
94.8764
 30
0.0
 11
138.72
 21
94.8764
 31
0.0
  0
LINE
  8
0
 62
     0
 10
138.72
 20
94.8764
 30
0.0
 11
138.72
 21
97.977
 31
0.0
  0
LINE
  8
0
 62
     0
 10
138.72
 20
97.977
 30
0.0
 11
137.921
 21
97.977
 31
0.0
  0
LINE
  8
0
 62
     0
 10
137.921
 20
97.977
 30
0.0
 11
137.921
 21
98.9775
 31
0.0
  0
LINE
  8
0
 62
     0
 10
137.921
 20
98.9775
 30
0.0
 11
123.92
 21
98.9775
 31
0.0
  0
LINE
  8
0
 62
     0
 10
104.87
 20
98.9775
 30
0.0
 11
104.87
 21
97.977
 31
0.0
  0
LINE
  8
0
 62
     0
 10
104.87
 20
97.977
 30
0.0
 11
104.071
 21
97.977
 31
0.0
  0
LINE
  8
0
 62
     0
 10
104.071
 20
97.977
 30
0.0
 11
104.071
 21
94.8764
 31
0.0
  0
LINE
  8
0
 62
     0
 10
104.071
 20
94.8764
 30
0.0
 11
104.87
 21
94.8764
 31
0.0
  0
LINE
  8
0
 62
     0
 10
104.87
 20
94.8764
 30
0.0
 11
104.87
 21
89.0778
 31
0.0
  0
LINE
  8
0
 62
     0
 10
104.87
 20
89.0778
 30
0.0
 11
104.071
 21
89.0778
 31
0.0
  0
LINE
  8
0
 62
     0
 10
104.071
 20
89.0778
 30
0.0
 11
104.071
 21
85.9772
 31
0.0
  0
LINE
  8
0
 62
     0
 10
104.071
 20
85.9772
 30
0.0
 11
104.87
 21
85.9772
 31
0.0
  0
LINE
  8
0
 62
     0
 10
104.87
 20
85.9772
 30
0.0
 11
104.87
 21
84.9768
 31
0.0
  0
LINE
  8
0
 62
     0
 10
104.87
 20
84.9768
 30
0.0
 11
118.87
 21
84.9768
 31
0.0
  0
LINE
  8
0
 62
     0
 10
118.87
 20
84.9768
 30
0.0
 11
118.87
 21
85.9772
 31
0.0
  0
LINE
  8
0
 62
     0
 10
118.87
 20
85.9772
 30
0.0
 11
119.669
 21
85.9772
 31
0.0
  0
LINE
  8
0
 62
     0
 10
119.669
 20
85.9772
 30
0.0
 11
119.669
 21
89.0778
 31
0.0
  0
LINE
  8
0
 62
     0
 10
119.669
 20
89.0778
 30
0.0
 11
118.87
 21
89.0778
 31
0.0
  0
LINE
  8
0
 62
     0
 10
118.87
 20
89.0778
 30
0.0
 11
118.87
 21
94.8764
 31
0.0
  0
LINE
  8
0
 62
     0
 10
118.87
 20
94.8764
 30
0.0
 11
119.669
 21
94.8764
 31
0.0
  0
LINE
  8
0
 62
     0
 10
119.669
 20
94.8764
 30
0.0
 11
119.669
 21
97.977
 31
0.0
  0
LINE
  8
0
 62
     0
 10
119.669
 20
97.977
 30
0.0
 11
118.87
 21
97.977
 31
0.0
  0
LINE
  8
0
 62
     0
 10
118.87
 20
97.977
 30
0.0
 11
118.87
 21
98.9775
 31
0.0
  0
LINE
  8
0
 62
     0
 10
118.87
 20
98.9775
 30
0.0
 11
104.87
 21
98.9775
 31
0.0
  0
LINE
  8
0
 62
     0
 10
85.8203
 20
98.9775
 30
0.0
 11
85.8203
 21
97.977
 31
0.0
  0
LINE
  8
0
 62
     0
 10
85.8203
 20
97.977
 30
0.0
 11
85.0209
 21
97.977
 31
0.0
  0
LINE
  8
0
 62
     0
 10
85.0209
 20
97.977
 30
0.0
 11
85.0209
 21
94.8764
 31
0.0
  0
LINE
  8
0
 62
     0
 10
85.0209
 20
94.8764
 30
0.0
 11
85.8203
 21
94.8764
 31
0.0
  0
LINE
  8
0
 62
     0
 10
85.8203
 20
94.8764
 30
0.0
 11
85.8203
 21
89.0778
 31
0.0
  0
LINE
  8
0
 62
     0
 10
85.8203
 20
89.0778
 30
0.0
 11
85.0209
 21
89.0778
 31
0.0
  0
LINE
  8
0
 62
     0
 10
85.0209
 20
89.0778
 30
0.0
 11
85.0209
 21
85.9772
 31
0.0
  0
LINE
  8
0
 62
     0
 10
85.0209
 20
85.9772
 30
0.0
 11
85.8203
 21
85.9772
 31
0.0
  0
LINE
  8
0
 62
     0
 10
85.8203
 20
85.9772
 30
0.0
 11
85.8203
 21
84.9768
 31
0.0
  0
LINE
  8
0
 62
     0
 10
85.8203
 20
84.9768
 30
0.0
 11
99.8209
 21
84.9768
 31
0.0
  0
LINE
  8
0
 62
     0
 10
99.8209
 20
84.9768
 30
0.0
 11
99.8209
 21
85.9772
 31
0.0
  0
LINE
  8
0
 62
     0
 10
99.8209
 20
85.9772
 30
0.0
 11
100.619
 21
85.9772
 31
0.0
  0
LINE
  8
0
 62
     0
 10
100.619
 20
85.9772
 30
0.0
 11
100.619
 21
89.0778
 31
0.0
  0
LINE
  8
0
 62
     0
 10
100.619
 20
89.0778
 30
0.0
 11
99.8209
 21
89.0778
 31
0.0
  0
LINE
  8
0
 62
     0
 10
99.8209
 20
89.0778
 30
0.0
 11
99.8209
 21
94.8764
 31
0.0
  0
LINE
  8
0
 62
     0
 10
99.8209
 20
94.8764
 30
0.0
 11
100.619
 21
94.8764
 31
0.0
  0
LINE
  8
0
 62
     0
 10
100.619
 20
94.8764
 30
0.0
 11
100.619
 21
97.977
 31
0.0
  0
LINE
  8
0
 62
     0
 10
100.619
 20
97.977
 30
0.0
 11
99.8209
 21
97.977
 31
0.0
  0
LINE
  8
0
 62
     0
 10
99.8209
 20
97.977
 30
0.0
 11
99.8209
 21
98.9775
 31
0.0
  0
LINE
  8
0
 62
     0
 10
99.8209
 20
98.9775
 30
0.0
 11
85.8203
 21
98.9775
 31
0.0
  0
LINE
  8
0
 62
     0
 10
66.7703
 20
98.9775
 30
0.0
 11
66.7703
 21
97.977
 31
0.0
  0
LINE
  8
0
 62
     0
 10
66.7703
 20
97.977
 30
0.0
 11
65.9709
 21
97.977
 31
0.0
  0
LINE
  8
0
 62
     0
 10
65.9709
 20
97.977
 30
0.0
 11
65.9709
 21
94.8764
 31
0.0
  0
LINE
  8
0
 62
     0
 10
65.9709
 20
94.8764
 30
0.0
 11
66.7703
 21
94.8764
 31
0.0
  0
LINE
  8
0
 62
     0
 10
66.7703
 20
94.8764
 30
0.0
 11
66.7703
 21
89.0778
 31
0.0
  0
LINE
  8
0
 62
     0
 10
66.7703
 20
89.0778
 30
0.0
 11
65.9709
 21
89.0778
 31
0.0
  0
LINE
  8
0
 62
     0
 10
65.9709
 20
89.0778
 30
0.0
 11
65.9709
 21
85.9772
 31
0.0
  0
LINE
  8
0
 62
     0
 10
65.9709
 20
85.9772
 30
0.0
 11
66.7703
 21
85.9772
 31
0.0
  0
LINE
  8
0
 62
     0
 10
66.7703
 20
85.9772
 30
0.0
 11
66.7703
 21
84.9768
 31
0.0
  0
LINE
  8
0
 62
     0
 10
66.7703
 20
84.9768
 30
0.0
 11
80.7709
 21
84.9768
 31
0.0
  0
LINE
  8
0
 62
     0
 10
80.7709
 20
84.9768
 30
0.0
 11
80.7709
 21
85.9772
 31
0.0
  0
LINE
  8
0
 62
     0
 10
80.7709
 20
85.9772
 30
0.0
 11
81.5703
 21
85.9772
 31
0.0
  0
LINE
  8
0
 62
     0
 10
81.5703
 20
85.9772
 30
0.0
 11
81.5703
 21
89.0778
 31
0.0
  0
LINE
  8
0
 62
     0
 10
81.5703
 20
89.0778
 30
0.0
 11
80.7709
 21
89.0778
 31
0.0
  0
LINE
  8
0
 62
     0
 10
80.7709
 20
89.0778
 30
0.0
 11
80.7709
 21
94.8764
 31
0.0
  0
LINE
  8
0
 62
     0
 10
80.7709
 20
94.8764
 30
0.0
 11
81.5703
 21
94.8764
 31
0.0
  0
LINE
  8
0
 62
     0
 10
81.5703
 20
94.8764
 30
0.0
 11
81.5703
 21
97.977
 31
0.0
  0
LINE
  8
0
 62
     0
 10
81.5703
 20
97.977
 30
0.0
 11
80.7709
 21
97.977
 31
0.0
  0
LINE
  8
0
 62
     0
 10
80.7709
 20
97.977
 30
0.0
 11
80.7709
 21
98.9775
 31
0.0
  0
LINE
  8
0
 62
     0
 10
80.7709
 20
98.9775
 30
0.0
 11
66.7703
 21
98.9775
 31
0.0
  0
LINE
  8
0
 62
     0
 10
47.7203
 20
98.9775
 30
0.0
 11
47.7203
 21
97.977
 31
0.0
  0
LINE
  8
0
 62
     0
 10
47.7203
 20
97.977
 30
0.0
 11
46.9209
 21
97.977
 31
0.0
  0
LINE
  8
0
 62
     0
 10
46.9209
 20
97.977
 30
0.0
 11
46.9209
 21
94.8764
 31
0.0
  0
LINE
  8
0
 62
     0
 10
46.9209
 20
94.8764
 30
0.0
 11
47.7203
 21
94.8764
 31
0.0
  0
LINE
  8
0
 62
     0
 10
47.7203
 20
94.8764
 30
0.0
 11
47.7203
 21
89.0778
 31
0.0
  0
LINE
  8
0
 62
     0
 10
47.7203
 20
89.0778
 30
0.0
 11
46.9209
 21
89.0778
 31
0.0
  0
LINE
  8
0
 62
     0
 10
46.9209
 20
89.0778
 30
0.0
 11
46.9209
 21
85.9772
 31
0.0
  0
LINE
  8
0
 62
     0
 10
46.9209
 20
85.9772
 30
0.0
 11
47.7203
 21
85.9772
 31
0.0
  0
LINE
  8
0
 62
     0
 10
47.7203
 20
85.9772
 30
0.0
 11
47.7203
 21
84.9768
 31
0.0
  0
LINE
  8
0
 62
     0
 10
47.7203
 20
84.9768
 30
0.0
 11
61.7209
 21
84.9768
 31
0.0
  0
LINE
  8
0
 62
     0
 10
61.7209
 20
84.9768
 30
0.0
 11
61.7209
 21
85.9772
 31
0.0
  0
LINE
  8
0
 62
     0
 10
61.7209
 20
85.9772
 30
0.0
 11
62.5203
 21
85.9772
 31
0.0
  0
LINE
  8
0
 62
     0
 10
62.5203
 20
85.9772
 30
0.0
 11
62.5203
 21
89.0778
 31
0.0
  0
LINE
  8
0
 62
     0
 10
62.5203
 20
89.0778
 30
0.0
 11
61.7209
 21
89.0778
 31
0.0
  0
LINE
  8
0
 62
     0
 10
61.7209
 20
89.0778
 30
0.0
 11
61.7209
 21
94.8764
 31
0.0
  0
LINE
  8
0
 62
     0
 10
61.7209
 20
94.8764
 30
0.0
 11
62.5203
 21
94.8764
 31
0.0
  0
LINE
  8
0
 62
     0
 10
62.5203
 20
94.8764
 30
0.0
 11
62.5203
 21
97.977
 31
0.0
  0
LINE
  8
0
 62
     0
 10
62.5203
 20
97.977
 30
0.0
 11
61.7209
 21
97.977
 31
0.0
  0
LINE
  8
0
 62
     0
 10
61.7209
 20
97.977
 30
0.0
 11
61.7209
 21
98.9775
 31
0.0
  0
LINE
  8
0
 62
     0
 10
61.7209
 20
98.9775
 30
0.0
 11
47.7203
 21
98.9775
 31
0.0
  0
LINE
  8
0
 62
     0
 10
28.6701
 20
98.9775
 30
0.0
 11
28.6701
 21
97.977
 31
0.0
  0
LINE
  8
0
 62
     0
 10
28.6701
 20
97.977
 30
0.0
 11
27.8708
 21
97.977
 31
0.0
  0
LINE
  8
0
 62
     0
 10
27.8708
 20
97.977
 30
0.0
 11
27.8708
 21
94.8764
 31
0.0
  0
LINE
  8
0
 62
     0
 10
27.8708
 20
94.8764
 30
0.0
 11
28.6701
 21
94.8764
 31
0.0
  0
LINE
  8
0
 62
     0
 10
28.6701
 20
94.8764
 30
0.0
 11
28.6701
 21
89.0778
 31
0.0
  0
LINE
  8
0
 62
     0
 10
28.6701
 20
89.0778
 30
0.0
 11
27.8708
 21
89.0778
 31
0.0
  0
LINE
  8
0
 62
     0
 10
27.8708
 20
89.0778
 30
0.0
 11
27.8708
 21
85.9772
 31
0.0
  0
LINE
  8
0
 62
     0
 10
27.8708
 20
85.9772
 30
0.0
 11
28.6701
 21
85.9772
 31
0.0
  0
LINE
  8
0
 62
     0
 10
28.6701
 20
85.9772
 30
0.0
 11
28.6701
 21
84.9768
 31
0.0
  0
LINE
  8
0
 62
     0
 10
28.6701
 20
84.9768
 30
0.0
 11
42.6709
 21
84.9768
 31
0.0
  0
LINE
  8
0
 62
     0
 10
42.6709
 20
84.9768
 30
0.0
 11
42.6709
 21
85.9772
 31
0.0
  0
LINE
  8
0
 62
     0
 10
42.6709
 20
85.9772
 30
0.0
 11
43.4703
 21
85.9772
 31
0.0
  0
LINE
  8
0
 62
     0
 10
43.4703
 20
85.9772
 30
0.0
 11
43.4703
 21
89.0778
 31
0.0
  0
LINE
  8
0
 62
     0
 10
43.4703
 20
89.0778
 30
0.0
 11
42.6709
 21
89.0778
 31
0.0
  0
LINE
  8
0
 62
     0
 10
42.6709
 20
89.0778
 30
0.0
 11
42.6709
 21
94.8764
 31
0.0
  0
LINE
  8
0
 62
     0
 10
42.6709
 20
94.8764
 30
0.0
 11
43.4703
 21
94.8764
 31
0.0
  0
LINE
  8
0
 62
     0
 10
43.4703
 20
94.8764
 30
0.0
 11
43.4703
 21
97.977
 31
0.0
  0
LINE
  8
0
 62
     0
 10
43.4703
 20
97.977
 30
0.0
 11
42.6709
 21
97.977
 31
0.0
  0
LINE
  8
0
 62
     0
 10
42.6709
 20
97.977
 30
0.0
 11
42.6709
 21
98.9775
 31
0.0
  0
LINE
  8
0
 62
     0
 10
42.6709
 20
98.9775
 30
0.0
 11
28.6701
 21
98.9775
 31
0.0
  0
LINE
  8
0
 62
     0
 10
9.62007
 20
98.9775
 30
0.0
 11
9.62007
 21
97.977
 31
0.0
  0
LINE
  8
0
 62
     0
 10
9.62007
 20
97.977
 30
0.0
 11
8.81944
 21
97.977
 31
0.0
  0
LINE
  8
0
 62
     0
 10
8.81944
 20
97.977
 30
0.0
 11
8.81944
 21
94.8764
 31
0.0
  0
LINE
  8
0
 62
     0
 10
8.81944
 20
94.8764
 30
0.0
 11
9.62007
 21
94.8764
 31
0.0
  0
LINE
  8
0
 62
     0
 10
9.62007
 20
94.8764
 30
0.0
 11
9.62007
 21
89.0778
 31
0.0
  0
LINE
  8
0
 62
     0
 10
9.62007
 20
89.0778
 30
0.0
 11
8.81944
 21
89.0778
 31
0.0
  0
LINE
  8
0
 62
     0
 10
8.81944
 20
89.0778
 30
0.0
 11
8.81944
 21
85.9772
 31
0.0
  0
LINE
  8
0
 62
     0
 10
8.81944
 20
85.9772
 30
0.0
 11
9.62007
 21
85.9772
 31
0.0
  0
LINE
  8
0
 62
     0
 10
9.62007
 20
85.9772
 30
0.0
 11
9.62007
 21
84.9768
 31
0.0
  0
LINE
  8
0
 62
     0
 10
9.62007
 20
84.9768
 30
0.0
 11
23.6209
 21
84.9768
 31
0.0
  0
LINE
  8
0
 62
     0
 10
23.6209
 20
84.9768
 30
0.0
 11
23.6209
 21
85.9772
 31
0.0
  0
LINE
  8
0
 62
     0
 10
23.6209
 20
85.9772
 30
0.0
 11
24.4202
 21
85.9772
 31
0.0
  0
LINE
  8
0
 62
     0
 10
24.4202
 20
85.9772
 30
0.0
 11
24.4202
 21
89.0778
 31
0.0
  0
LINE
  8
0
 62
     0
 10
24.4202
 20
89.0778
 30
0.0
 11
23.6209
 21
89.0778
 31
0.0
  0
LINE
  8
0
 62
     0
 10
23.6209
 20
89.0778
 30
0.0
 11
23.6209
 21
94.8764
 31
0.0
  0
LINE
  8
0
 62
     0
 10
23.6209
 20
94.8764
 30
0.0
 11
24.4202
 21
94.8764
 31
0.0
  0
LINE
  8
0
 62
     0
 10
24.4202
 20
94.8764
 30
0.0
 11
24.4202
 21
97.977
 31
0.0
  0
LINE
  8
0
 62
     0
 10
24.4202
 20
97.977
 30
0.0
 11
23.6209
 21
97.977
 31
0.0
  0
LINE
  8
0
 62
     0
 10
23.6209
 20
97.977
 30
0.0
 11
23.6209
 21
98.9775
 31
0.0
  0
LINE
  8
0
 62
     0
 10
23.6209
 20
98.9775
 30
0.0
 11
9.62007
 21
98.9775
 31
0.0
  0
ENDSEC
  0
EOF
