G04*
G04 #@! TF.GenerationSoftware,Altium Limited,Altium Designer,20.1.14 (287)*
G04*
G04 Layer_Color=128*
%FSLAX25Y25*%
%MOIN*%
G70*
G04*
G04 #@! TF.SameCoordinates,522F5A3E-BD0F-4A6F-B551-BC927255FFFB*
G04*
G04*
G04 #@! TF.FilePolarity,Positive*
G04*
G01*
G75*
%ADD33R,0.05512X0.04724*%
%ADD34R,0.05906X0.03937*%
%ADD35R,0.02835X0.02992*%
%ADD36R,0.03937X0.05906*%
%ADD37R,0.02992X0.02835*%
%ADD38R,0.03740X0.03543*%
%ADD39R,0.02047X0.02047*%
%ADD40R,0.02047X0.02047*%
%ADD41O,0.02362X0.08071*%
%ADD42O,0.08071X0.02362*%
%ADD43R,0.02165X0.02165*%
%ADD44R,0.01772X0.01772*%
%ADD45R,0.02677X0.02520*%
%ADD46R,0.02520X0.02677*%
D33*
X644882Y11220D02*
D03*
Y4528D02*
D03*
X636221D02*
D03*
Y11220D02*
D03*
D34*
X947783Y16679D02*
D03*
X925342D02*
D03*
Y10773D02*
D03*
X947783D02*
D03*
X1027470Y16679D02*
D03*
X1005029D02*
D03*
Y10773D02*
D03*
X1027470D02*
D03*
X1107158Y16679D02*
D03*
X1084717D02*
D03*
Y10773D02*
D03*
X1107158D02*
D03*
X1186845Y16679D02*
D03*
X1164404D02*
D03*
Y10773D02*
D03*
X1186845D02*
D03*
X1266533Y16679D02*
D03*
X1244092D02*
D03*
Y10773D02*
D03*
X1266533D02*
D03*
X1346220Y16679D02*
D03*
X1323779D02*
D03*
Y10773D02*
D03*
X1346220D02*
D03*
X71220Y16679D02*
D03*
X48779D02*
D03*
Y10773D02*
D03*
X71220D02*
D03*
X150908Y16679D02*
D03*
X128467D02*
D03*
Y10773D02*
D03*
X150908D02*
D03*
X230595Y16679D02*
D03*
X208155D02*
D03*
Y10773D02*
D03*
X230595D02*
D03*
X310283Y16679D02*
D03*
X287842D02*
D03*
Y10773D02*
D03*
X310283D02*
D03*
X389970Y16679D02*
D03*
X367530D02*
D03*
Y10773D02*
D03*
X389970D02*
D03*
X469658Y16679D02*
D03*
X447217D02*
D03*
Y10773D02*
D03*
X469658D02*
D03*
X549345Y16679D02*
D03*
X526904D02*
D03*
Y10773D02*
D03*
X549345D02*
D03*
X610433Y16679D02*
D03*
X587992D02*
D03*
Y10773D02*
D03*
X610433D02*
D03*
X708720Y16679D02*
D03*
X686279D02*
D03*
Y10773D02*
D03*
X708720D02*
D03*
X788408Y16679D02*
D03*
X765967D02*
D03*
Y10773D02*
D03*
X788408D02*
D03*
X868095Y16679D02*
D03*
X845654D02*
D03*
Y10773D02*
D03*
X868095D02*
D03*
X447217Y403121D02*
D03*
X469658D02*
D03*
Y409027D02*
D03*
X447217D02*
D03*
X367530Y403121D02*
D03*
X389970D02*
D03*
Y409027D02*
D03*
X367530D02*
D03*
X287842Y403121D02*
D03*
X310283D02*
D03*
Y409027D02*
D03*
X287842D02*
D03*
X208155Y403121D02*
D03*
X230595D02*
D03*
Y409027D02*
D03*
X208155D02*
D03*
X128467Y403121D02*
D03*
X150908D02*
D03*
Y409027D02*
D03*
X128467D02*
D03*
X48779Y403121D02*
D03*
X71220D02*
D03*
Y409027D02*
D03*
X48779D02*
D03*
X1323779Y403121D02*
D03*
X1346220D02*
D03*
Y409027D02*
D03*
X1323779D02*
D03*
X1244092Y403121D02*
D03*
X1266533D02*
D03*
Y409027D02*
D03*
X1244092D02*
D03*
X1164404Y403121D02*
D03*
X1186845D02*
D03*
Y409027D02*
D03*
X1164404D02*
D03*
X1084717Y403121D02*
D03*
X1107158D02*
D03*
Y409027D02*
D03*
X1084717D02*
D03*
X1005029Y403121D02*
D03*
X1027470D02*
D03*
Y409027D02*
D03*
X1005029D02*
D03*
X925342Y403121D02*
D03*
X947783D02*
D03*
Y409027D02*
D03*
X925342D02*
D03*
X845654Y403121D02*
D03*
X868095D02*
D03*
Y409027D02*
D03*
X845654D02*
D03*
X765967Y403121D02*
D03*
X788408D02*
D03*
Y409027D02*
D03*
X765967D02*
D03*
X686279Y403121D02*
D03*
X708720D02*
D03*
Y409027D02*
D03*
X686279D02*
D03*
X606592Y403121D02*
D03*
X629033D02*
D03*
Y409027D02*
D03*
X606592D02*
D03*
X526904Y403121D02*
D03*
X549345D02*
D03*
Y409027D02*
D03*
X526904D02*
D03*
X147352Y344396D02*
D03*
Y338491D02*
D03*
X124911D02*
D03*
Y344396D02*
D03*
X199911D02*
D03*
Y338491D02*
D03*
X222352D02*
D03*
Y344396D02*
D03*
X297352D02*
D03*
Y338491D02*
D03*
X274911D02*
D03*
Y344396D02*
D03*
X349911D02*
D03*
Y338491D02*
D03*
X372352D02*
D03*
Y344396D02*
D03*
X447345D02*
D03*
Y338491D02*
D03*
X424904D02*
D03*
Y344396D02*
D03*
X499908Y344400D02*
D03*
Y338495D02*
D03*
X522349D02*
D03*
Y344400D02*
D03*
X672353Y344396D02*
D03*
Y338491D02*
D03*
X649912D02*
D03*
Y344396D02*
D03*
X724912D02*
D03*
Y338491D02*
D03*
X747353D02*
D03*
Y344396D02*
D03*
X822353D02*
D03*
Y338491D02*
D03*
X799912D02*
D03*
Y344396D02*
D03*
X874912D02*
D03*
Y338491D02*
D03*
X897353D02*
D03*
Y344396D02*
D03*
X972353D02*
D03*
Y338491D02*
D03*
X949912D02*
D03*
Y344396D02*
D03*
X1062412D02*
D03*
Y338491D02*
D03*
X1084853D02*
D03*
Y344396D02*
D03*
X1197353D02*
D03*
Y338491D02*
D03*
X1174912D02*
D03*
Y344396D02*
D03*
X1249909Y344399D02*
D03*
Y338493D02*
D03*
X1272350D02*
D03*
Y344399D02*
D03*
X1347353Y344396D02*
D03*
Y338491D02*
D03*
X1324912D02*
D03*
Y344396D02*
D03*
X78033Y194393D02*
D03*
Y188488D02*
D03*
X100474D02*
D03*
Y194393D02*
D03*
X203599Y194394D02*
D03*
Y188488D02*
D03*
X181158D02*
D03*
Y194394D02*
D03*
X256158D02*
D03*
Y188488D02*
D03*
X278599D02*
D03*
Y194394D02*
D03*
X353599D02*
D03*
Y188488D02*
D03*
X331158D02*
D03*
Y194394D02*
D03*
X406159Y194394D02*
D03*
Y188488D02*
D03*
X428600D02*
D03*
Y194394D02*
D03*
X503599Y194394D02*
D03*
Y188489D02*
D03*
X481158D02*
D03*
Y194394D02*
D03*
X556158D02*
D03*
Y188489D02*
D03*
X578599D02*
D03*
Y194394D02*
D03*
X653599D02*
D03*
Y188489D02*
D03*
X631158D02*
D03*
Y194394D02*
D03*
X706158D02*
D03*
Y188489D02*
D03*
X728599D02*
D03*
Y194394D02*
D03*
X803599D02*
D03*
Y188489D02*
D03*
X781158D02*
D03*
Y194394D02*
D03*
X856158D02*
D03*
Y188489D02*
D03*
X878599D02*
D03*
Y194394D02*
D03*
X953599D02*
D03*
Y188489D02*
D03*
X931158D02*
D03*
Y194394D02*
D03*
X1053032D02*
D03*
Y188489D02*
D03*
X1075473D02*
D03*
Y194394D02*
D03*
X1112973Y44395D02*
D03*
Y38489D02*
D03*
X1090532D02*
D03*
Y44395D02*
D03*
X1174912Y194396D02*
D03*
Y188491D02*
D03*
X1197353D02*
D03*
Y194396D02*
D03*
X1272353D02*
D03*
Y188491D02*
D03*
X1249912D02*
D03*
Y194396D02*
D03*
X1324912Y194396D02*
D03*
Y188491D02*
D03*
X1347353D02*
D03*
Y194396D02*
D03*
X81724Y44394D02*
D03*
Y38488D02*
D03*
X59283D02*
D03*
Y44394D02*
D03*
X153033Y44394D02*
D03*
Y38489D02*
D03*
X175474D02*
D03*
Y44394D02*
D03*
X269224Y44394D02*
D03*
Y38489D02*
D03*
X246783D02*
D03*
Y44394D02*
D03*
X528032Y44395D02*
D03*
Y38489D02*
D03*
X550473D02*
D03*
Y44395D02*
D03*
X831725D02*
D03*
Y38489D02*
D03*
X809284D02*
D03*
Y44395D02*
D03*
X903032D02*
D03*
Y38489D02*
D03*
X925473D02*
D03*
Y44395D02*
D03*
X1019225D02*
D03*
Y38489D02*
D03*
X996784D02*
D03*
Y44395D02*
D03*
X1174912Y44397D02*
D03*
Y38491D02*
D03*
X1197353D02*
D03*
Y44397D02*
D03*
X1347353Y44397D02*
D03*
Y38491D02*
D03*
X1324912D02*
D03*
Y44397D02*
D03*
X49908Y344399D02*
D03*
Y338493D02*
D03*
X72349D02*
D03*
Y344399D02*
D03*
X1272353Y44397D02*
D03*
Y38491D02*
D03*
X1249912D02*
D03*
Y44397D02*
D03*
X574912Y344396D02*
D03*
Y338491D02*
D03*
X597353D02*
D03*
Y344396D02*
D03*
X184852Y269396D02*
D03*
Y263491D02*
D03*
X162411D02*
D03*
Y269396D02*
D03*
X259852D02*
D03*
Y263491D02*
D03*
X237411D02*
D03*
Y269396D02*
D03*
X334852D02*
D03*
Y263491D02*
D03*
X312411D02*
D03*
Y269396D02*
D03*
X409853Y269397D02*
D03*
Y263491D02*
D03*
X387411D02*
D03*
Y269397D02*
D03*
X484853Y269396D02*
D03*
Y263491D02*
D03*
X462412D02*
D03*
Y269396D02*
D03*
X634853D02*
D03*
Y263491D02*
D03*
X612412D02*
D03*
Y269396D02*
D03*
X709853D02*
D03*
Y263491D02*
D03*
X687412D02*
D03*
Y269396D02*
D03*
X784853D02*
D03*
Y263491D02*
D03*
X762412D02*
D03*
Y269396D02*
D03*
X859853D02*
D03*
Y263491D02*
D03*
X837412D02*
D03*
Y269396D02*
D03*
X934853D02*
D03*
Y263491D02*
D03*
X912412D02*
D03*
Y269396D02*
D03*
X1009853D02*
D03*
Y263491D02*
D03*
X987412D02*
D03*
Y269396D02*
D03*
X1103599Y269394D02*
D03*
Y263489D02*
D03*
X1081158D02*
D03*
Y269394D02*
D03*
X1197353Y269396D02*
D03*
Y263491D02*
D03*
X1174912D02*
D03*
Y269396D02*
D03*
X1272353D02*
D03*
Y263491D02*
D03*
X1249912D02*
D03*
Y269396D02*
D03*
X1347353Y269396D02*
D03*
Y263491D02*
D03*
X1324912D02*
D03*
Y269396D02*
D03*
X119224Y119394D02*
D03*
Y113488D02*
D03*
X96783D02*
D03*
Y119394D02*
D03*
X241099Y119394D02*
D03*
Y113488D02*
D03*
X218658D02*
D03*
Y119394D02*
D03*
X316099D02*
D03*
Y113488D02*
D03*
X293658D02*
D03*
Y119394D02*
D03*
X391100Y119394D02*
D03*
Y113489D02*
D03*
X368659D02*
D03*
Y119394D02*
D03*
X466099Y119395D02*
D03*
Y113489D02*
D03*
X443658D02*
D03*
Y119395D02*
D03*
X541099D02*
D03*
Y113489D02*
D03*
X518658D02*
D03*
Y119395D02*
D03*
X616099D02*
D03*
Y113489D02*
D03*
X593658D02*
D03*
Y119395D02*
D03*
X691099D02*
D03*
Y113489D02*
D03*
X668658D02*
D03*
Y119395D02*
D03*
X766099D02*
D03*
Y113489D02*
D03*
X743658D02*
D03*
Y119395D02*
D03*
X841099D02*
D03*
Y113489D02*
D03*
X818658D02*
D03*
Y119395D02*
D03*
X916099D02*
D03*
Y113489D02*
D03*
X893658D02*
D03*
Y119395D02*
D03*
X1056725D02*
D03*
Y113489D02*
D03*
X1034284D02*
D03*
Y119395D02*
D03*
X1197353Y119397D02*
D03*
Y113491D02*
D03*
X1174912D02*
D03*
Y119397D02*
D03*
X1272353D02*
D03*
Y113491D02*
D03*
X1249912D02*
D03*
Y119397D02*
D03*
X1347353Y119397D02*
D03*
Y113491D02*
D03*
X1324912D02*
D03*
Y119397D02*
D03*
X91099Y269393D02*
D03*
Y263488D02*
D03*
X68658D02*
D03*
Y269393D02*
D03*
X559853Y269396D02*
D03*
Y263491D02*
D03*
X537412D02*
D03*
Y269396D02*
D03*
D35*
X918462Y10746D02*
D03*
Y6887D02*
D03*
X998149Y10746D02*
D03*
Y6887D02*
D03*
X1077837Y10746D02*
D03*
Y6887D02*
D03*
X1157524Y10746D02*
D03*
Y6887D02*
D03*
X1237212Y10746D02*
D03*
Y6887D02*
D03*
X1316899Y10746D02*
D03*
Y6887D02*
D03*
X41899Y10746D02*
D03*
Y6887D02*
D03*
X121587Y10746D02*
D03*
Y6887D02*
D03*
X201274Y10746D02*
D03*
Y6887D02*
D03*
X280962Y10746D02*
D03*
Y6887D02*
D03*
X360649Y10746D02*
D03*
Y6887D02*
D03*
X440337Y10746D02*
D03*
Y6887D02*
D03*
X520024Y10746D02*
D03*
Y6887D02*
D03*
X581112Y10746D02*
D03*
Y6887D02*
D03*
X679399Y10746D02*
D03*
Y6887D02*
D03*
X759087Y10746D02*
D03*
Y6887D02*
D03*
X838774Y10746D02*
D03*
Y6887D02*
D03*
X476538Y409054D02*
D03*
Y412913D02*
D03*
X396850Y409054D02*
D03*
Y412913D02*
D03*
X317163Y409054D02*
D03*
Y412913D02*
D03*
X237475Y409054D02*
D03*
Y412913D02*
D03*
X157788Y409054D02*
D03*
Y412913D02*
D03*
X78101Y409054D02*
D03*
Y412913D02*
D03*
X1353100Y409054D02*
D03*
Y412913D02*
D03*
X1273413Y409054D02*
D03*
Y412913D02*
D03*
X1193725Y409054D02*
D03*
Y412913D02*
D03*
X1114038Y409054D02*
D03*
Y412913D02*
D03*
X1034350Y409054D02*
D03*
Y412913D02*
D03*
X954663Y409054D02*
D03*
Y412913D02*
D03*
X874975Y409054D02*
D03*
Y412913D02*
D03*
X795288Y409054D02*
D03*
Y412913D02*
D03*
X715600Y409054D02*
D03*
Y412913D02*
D03*
X635913Y409054D02*
D03*
Y412913D02*
D03*
X556225Y409054D02*
D03*
Y412913D02*
D03*
X155131Y269484D02*
D03*
Y273342D02*
D03*
X230131Y269484D02*
D03*
Y273342D02*
D03*
X305131Y269484D02*
D03*
Y273342D02*
D03*
X380132Y269485D02*
D03*
Y273343D02*
D03*
X455132Y269484D02*
D03*
Y273342D02*
D03*
X605132Y269484D02*
D03*
Y273342D02*
D03*
X680132Y269484D02*
D03*
Y273342D02*
D03*
X755132Y269484D02*
D03*
Y273342D02*
D03*
X830132Y269484D02*
D03*
Y273342D02*
D03*
X905132Y269484D02*
D03*
Y273342D02*
D03*
X980132Y269484D02*
D03*
Y273342D02*
D03*
X1073878Y269482D02*
D03*
Y273341D02*
D03*
X1167632Y269484D02*
D03*
Y273342D02*
D03*
X1242632Y269484D02*
D03*
Y273342D02*
D03*
X1317632Y269484D02*
D03*
Y273342D02*
D03*
X89503Y119481D02*
D03*
Y123340D02*
D03*
X211379Y119482D02*
D03*
Y123340D02*
D03*
X286379Y119482D02*
D03*
Y123340D02*
D03*
X361379Y119482D02*
D03*
Y123340D02*
D03*
X436378Y119483D02*
D03*
Y123341D02*
D03*
X511378Y119483D02*
D03*
Y123341D02*
D03*
X586378Y119483D02*
D03*
Y123341D02*
D03*
X661378Y119483D02*
D03*
Y123341D02*
D03*
X736378Y119483D02*
D03*
Y123341D02*
D03*
X811378Y119483D02*
D03*
Y123341D02*
D03*
X886378Y119483D02*
D03*
Y123341D02*
D03*
X1027005Y119483D02*
D03*
Y123341D02*
D03*
X1167632Y119484D02*
D03*
Y123343D02*
D03*
X1242632Y119484D02*
D03*
Y123343D02*
D03*
X1317632Y119485D02*
D03*
Y123343D02*
D03*
X61378Y269481D02*
D03*
Y273340D02*
D03*
X530132Y269484D02*
D03*
Y273342D02*
D03*
X680315Y43071D02*
D03*
Y46850D02*
D03*
Y61890D02*
D03*
Y65669D02*
D03*
D36*
X1378121Y72350D02*
D03*
Y49909D02*
D03*
X1384027D02*
D03*
Y72350D02*
D03*
X1378121Y147349D02*
D03*
Y124908D02*
D03*
X1384027D02*
D03*
Y147349D02*
D03*
X1378121Y222349D02*
D03*
Y199908D02*
D03*
X1384027D02*
D03*
Y222349D02*
D03*
X1378121Y297349D02*
D03*
Y274908D02*
D03*
X1384027D02*
D03*
Y297349D02*
D03*
X19879Y349910D02*
D03*
Y372352D02*
D03*
X13973D02*
D03*
Y349910D02*
D03*
X19879Y274905D02*
D03*
Y297346D02*
D03*
X13973D02*
D03*
Y274905D02*
D03*
X19879Y199905D02*
D03*
Y222346D02*
D03*
X13973D02*
D03*
Y199905D02*
D03*
X19879Y124905D02*
D03*
Y147346D02*
D03*
X13973D02*
D03*
Y124905D02*
D03*
X19879Y49905D02*
D03*
Y72346D02*
D03*
X13973D02*
D03*
Y49905D02*
D03*
X1378121Y372349D02*
D03*
Y349908D02*
D03*
X1384027D02*
D03*
Y372349D02*
D03*
D37*
X1384054Y43029D02*
D03*
X1387912D02*
D03*
X1384054Y118028D02*
D03*
X1387912D02*
D03*
X1384054Y193028D02*
D03*
X1387912D02*
D03*
X1384054Y268028D02*
D03*
X1387912D02*
D03*
X13946Y379232D02*
D03*
X10087D02*
D03*
X13946Y304226D02*
D03*
X10087D02*
D03*
X13946Y229226D02*
D03*
X10087D02*
D03*
X13946Y154226D02*
D03*
X10087D02*
D03*
X13946Y79226D02*
D03*
X10087D02*
D03*
X1384054Y343028D02*
D03*
X1387912D02*
D03*
X154669Y338491D02*
D03*
X158527D02*
D03*
X233527D02*
D03*
X229669D02*
D03*
X304669D02*
D03*
X308527D02*
D03*
X383527D02*
D03*
X379669D02*
D03*
X454662D02*
D03*
X458520D02*
D03*
X533524Y338495D02*
D03*
X529666D02*
D03*
X679670Y338491D02*
D03*
X683528D02*
D03*
X758528D02*
D03*
X754670D02*
D03*
X829670D02*
D03*
X833528D02*
D03*
X908528D02*
D03*
X904670D02*
D03*
X979670D02*
D03*
X983528D02*
D03*
X1096028D02*
D03*
X1092170D02*
D03*
X1204670D02*
D03*
X1208528D02*
D03*
X1283525Y338493D02*
D03*
X1279667D02*
D03*
X1354670Y338491D02*
D03*
X1358528D02*
D03*
X111649Y188488D02*
D03*
X107791D02*
D03*
X210916Y188488D02*
D03*
X214774D02*
D03*
X289774D02*
D03*
X285916D02*
D03*
X360916D02*
D03*
X364774D02*
D03*
X439775Y188488D02*
D03*
X435916D02*
D03*
X510916Y188489D02*
D03*
X514774D02*
D03*
X589774D02*
D03*
X585916D02*
D03*
X660916D02*
D03*
X664774D02*
D03*
X739774D02*
D03*
X735916D02*
D03*
X810916D02*
D03*
X814774D02*
D03*
X889774D02*
D03*
X885916D02*
D03*
X960916D02*
D03*
X964774D02*
D03*
X1086648D02*
D03*
X1082790D02*
D03*
X1120290Y38489D02*
D03*
X1124148D02*
D03*
X1208528Y188491D02*
D03*
X1204670D02*
D03*
X1279670D02*
D03*
X1283528D02*
D03*
X1358528Y188491D02*
D03*
X1354670D02*
D03*
X89041Y38488D02*
D03*
X92899D02*
D03*
X186649Y38489D02*
D03*
X182791D02*
D03*
X276541Y38489D02*
D03*
X280399D02*
D03*
X561648Y38489D02*
D03*
X557790D02*
D03*
X839042D02*
D03*
X842900D02*
D03*
X936648D02*
D03*
X932790D02*
D03*
X1026542D02*
D03*
X1030400D02*
D03*
X1208528Y38491D02*
D03*
X1204670D02*
D03*
X1354670Y38491D02*
D03*
X1358528D02*
D03*
X83524Y338493D02*
D03*
X79666D02*
D03*
X1279670Y38491D02*
D03*
X1283528D02*
D03*
X608528Y338491D02*
D03*
X604670D02*
D03*
X648858Y81890D02*
D03*
X652716D02*
D03*
D38*
X157739Y386853D02*
D03*
X157739Y374452D02*
D03*
X232739D02*
D03*
X232739Y386853D02*
D03*
X307739D02*
D03*
X307739Y374452D02*
D03*
X382739D02*
D03*
X382739Y386853D02*
D03*
X457732D02*
D03*
X457732Y374452D02*
D03*
X532736Y374455D02*
D03*
X532736Y386857D02*
D03*
X682740Y386853D02*
D03*
X682740Y374452D02*
D03*
X757740D02*
D03*
X757740Y386853D02*
D03*
X832740D02*
D03*
X832740Y374452D02*
D03*
X907740D02*
D03*
X907740Y386853D02*
D03*
X982740D02*
D03*
X982740Y374452D02*
D03*
X1095240D02*
D03*
X1095240Y386853D02*
D03*
X1207740D02*
D03*
X1207740Y374452D02*
D03*
X1282737Y374454D02*
D03*
X1282737Y386856D02*
D03*
X1357740Y386853D02*
D03*
X1357740Y374452D02*
D03*
X110861Y224448D02*
D03*
X110861Y236850D02*
D03*
X213986Y236850D02*
D03*
X213986Y224449D02*
D03*
X288986D02*
D03*
X288986Y236850D02*
D03*
X363986D02*
D03*
X363986Y224449D02*
D03*
X438986Y224449D02*
D03*
X438986Y236851D02*
D03*
X513986Y236851D02*
D03*
X513986Y224450D02*
D03*
X588986D02*
D03*
X588986Y236851D02*
D03*
X663986D02*
D03*
X663986Y224450D02*
D03*
X738986D02*
D03*
X738986Y236851D02*
D03*
X813986D02*
D03*
X813986Y224450D02*
D03*
X888986D02*
D03*
X888986Y236851D02*
D03*
X963986D02*
D03*
X963986Y224450D02*
D03*
X1085860D02*
D03*
X1085860Y236851D02*
D03*
X1123360Y86852D02*
D03*
X1123360Y74450D02*
D03*
X1207740Y224452D02*
D03*
X1207740Y236853D02*
D03*
X1282740D02*
D03*
X1282740Y224452D02*
D03*
X1357740Y224452D02*
D03*
X1357740Y236853D02*
D03*
X92111Y86851D02*
D03*
X92111Y74449D02*
D03*
X185861Y74449D02*
D03*
X185861Y86851D02*
D03*
X279611Y86851D02*
D03*
X279611Y74449D02*
D03*
X560860Y74450D02*
D03*
X560860Y86852D02*
D03*
X842112D02*
D03*
X842112Y74450D02*
D03*
X935860D02*
D03*
X935860Y86852D02*
D03*
X1029612D02*
D03*
X1029612Y74450D02*
D03*
X1207740Y74452D02*
D03*
X1207740Y86854D02*
D03*
X1357740Y86854D02*
D03*
X1357740Y74452D02*
D03*
X82736Y374454D02*
D03*
X82736Y386856D02*
D03*
X1282740Y86854D02*
D03*
X1282740Y74452D02*
D03*
X607740Y374452D02*
D03*
X607740Y386853D02*
D03*
X195239Y311853D02*
D03*
X195239Y299452D02*
D03*
X270239Y311853D02*
D03*
X270239Y299452D02*
D03*
X345239Y311853D02*
D03*
X345239Y299452D02*
D03*
X420239Y311854D02*
D03*
X420239Y299452D02*
D03*
X495240Y311853D02*
D03*
X495240Y299452D02*
D03*
X645240Y311853D02*
D03*
X645240Y299452D02*
D03*
X720240Y311853D02*
D03*
X720240Y299452D02*
D03*
X795240Y311853D02*
D03*
X795240Y299452D02*
D03*
X870240Y311853D02*
D03*
X870240Y299452D02*
D03*
X945240Y311853D02*
D03*
X945240Y299452D02*
D03*
X1020240Y311853D02*
D03*
X1020240Y299452D02*
D03*
X1113986Y311851D02*
D03*
X1113986Y299450D02*
D03*
X1207740Y311853D02*
D03*
X1207740Y299452D02*
D03*
X1282740Y311853D02*
D03*
X1282740Y299452D02*
D03*
X1357740Y311853D02*
D03*
X1357740Y299452D02*
D03*
X129611Y161850D02*
D03*
X129611Y149449D02*
D03*
X251486Y161851D02*
D03*
X251486Y149449D02*
D03*
X326486Y161851D02*
D03*
X326486Y149449D02*
D03*
X401486Y161851D02*
D03*
X401486Y149450D02*
D03*
X476486Y161852D02*
D03*
X476486Y149450D02*
D03*
X551486Y161852D02*
D03*
X551486Y149450D02*
D03*
X626486Y161852D02*
D03*
X626486Y149450D02*
D03*
X701486Y161852D02*
D03*
X701486Y149450D02*
D03*
X776486Y161852D02*
D03*
X776486Y149450D02*
D03*
X851486Y161852D02*
D03*
X851486Y149450D02*
D03*
X926486Y161852D02*
D03*
X926486Y149450D02*
D03*
X1067112Y161852D02*
D03*
X1067112Y149450D02*
D03*
X1207740Y161854D02*
D03*
X1207740Y149452D02*
D03*
X1282740Y161854D02*
D03*
X1282740Y149452D02*
D03*
X1357740Y161854D02*
D03*
X1357740Y149452D02*
D03*
X101486Y311850D02*
D03*
X101486Y299449D02*
D03*
X570240Y311853D02*
D03*
X570240Y299452D02*
D03*
D39*
X670866Y62598D02*
D03*
Y46850D02*
D03*
X606299Y37402D02*
D03*
X674016Y62598D02*
D03*
X603150Y37402D02*
D03*
X674016Y46850D02*
D03*
D40*
X661417Y73622D02*
D03*
X623228Y81890D02*
D03*
X646589Y19906D02*
D03*
X623228Y85039D02*
D03*
X646589Y16757D02*
D03*
X661417Y76772D02*
D03*
D41*
X654724Y72441D02*
D03*
X623228D02*
D03*
X648425Y27559D02*
D03*
X623228D02*
D03*
X635827D02*
D03*
X632677D02*
D03*
X629528D02*
D03*
X626378D02*
D03*
X629528Y72441D02*
D03*
X626378D02*
D03*
X635827D02*
D03*
X632677D02*
D03*
X638976Y27559D02*
D03*
X645276D02*
D03*
X642126D02*
D03*
X651575D02*
D03*
X654724D02*
D03*
X638976Y72441D02*
D03*
X642126D02*
D03*
X648425D02*
D03*
X645276D02*
D03*
X651575D02*
D03*
D42*
X661417Y62598D02*
D03*
Y50000D02*
D03*
Y46850D02*
D03*
X616535Y37402D02*
D03*
Y34252D02*
D03*
Y40551D02*
D03*
Y50000D02*
D03*
Y53150D02*
D03*
Y43701D02*
D03*
Y46850D02*
D03*
Y62598D02*
D03*
Y65748D02*
D03*
Y56299D02*
D03*
Y59449D02*
D03*
X661417Y34252D02*
D03*
Y37402D02*
D03*
Y40551D02*
D03*
Y43701D02*
D03*
Y56299D02*
D03*
Y59449D02*
D03*
Y53150D02*
D03*
Y65748D02*
D03*
D43*
X652756Y16339D02*
D03*
Y19882D02*
D03*
D44*
X679528Y52362D02*
D03*
X682677D02*
D03*
X679528Y56693D02*
D03*
X682677D02*
D03*
D45*
X627008Y4331D02*
D03*
X630472D02*
D03*
D46*
X650925Y7155D02*
D03*
Y10620D02*
D03*
M02*
