G04*
G04 #@! TF.GenerationSoftware,Altium Limited,Altium Designer,20.1.14 (287)*
G04*
G04 Layer_Color=32768*
%FSLAX25Y25*%
%MOIN*%
G70*
G04*
G04 #@! TF.SameCoordinates,522F5A3E-BD0F-4A6F-B551-BC927255FFFB*
G04*
G04*
G04 #@! TF.FilePolarity,Positive*
G04*
G01*
G75*
%ADD69C,0.00394*%
%ADD73C,0.00197*%
D69*
X638976Y48031D02*
Y51968D01*
X637008Y50000D02*
X640945D01*
X651673Y18110D02*
X653839D01*
X652756Y17028D02*
Y19193D01*
X681102Y51279D02*
Y53445D01*
X680020Y52362D02*
X682185D01*
X681102Y55610D02*
Y57776D01*
X680020Y56693D02*
X682185D01*
X628740Y3150D02*
Y5512D01*
X627559Y4331D02*
X629921D01*
X650925Y7707D02*
Y10069D01*
X649744Y8888D02*
X652106D01*
X679232Y44961D02*
X681398D01*
X680315Y43878D02*
Y46043D01*
X679232Y63779D02*
X681398D01*
X680315Y62697D02*
Y64862D01*
X650787Y80807D02*
Y82972D01*
X649705Y81890D02*
X651870D01*
D73*
X610630Y21654D02*
Y78347D01*
Y21654D02*
X667323D01*
X610630Y78347D02*
X667323D01*
Y21654D02*
Y78347D01*
X650984Y14567D02*
Y21654D01*
Y14567D02*
X654528D01*
X650984Y21654D02*
X654528D01*
Y14567D02*
Y21654D01*
X678150Y50787D02*
Y53937D01*
Y50787D02*
X684055D01*
X678150Y53937D02*
X684055D01*
Y50787D02*
Y53937D01*
X678150Y55118D02*
Y58268D01*
Y55118D02*
X684055D01*
X678150Y58268D02*
X684055D01*
Y55118D02*
Y58268D01*
X625000Y2362D02*
X625000Y6299D01*
X625000Y2362D02*
X632480D01*
X625000Y6299D02*
X632480D01*
Y2362D02*
Y6299D01*
X648956Y5147D02*
Y12628D01*
Y5147D02*
X652893Y5147D01*
X648956Y12628D02*
X652893D01*
Y5147D02*
Y12628D01*
X677953Y40630D02*
Y49291D01*
Y40630D02*
X682677D01*
X677953Y49291D02*
X682677D01*
Y40630D02*
Y49291D01*
X677953Y59449D02*
Y68110D01*
Y59449D02*
X682677D01*
X677953Y68110D02*
X682677D01*
Y59449D02*
Y68110D01*
X646457Y79527D02*
Y84252D01*
Y79527D02*
X655118D01*
X646457Y84252D02*
X655118D01*
Y79527D02*
Y84252D01*
M02*
