0
SECTION
2
HEADER
9
$INSUNITS
70
4
9
$ACADVER
1
AC1014
9
$HANDSEED
5
FFFF
0
ENDSEC
0
SECTION
2
TABLES
0
TABLE
2
VPORT
5
8
100
AcDbSymbolTable
0
ENDTAB
0
TABLE
2
LTYPE
5
5
100
AcDbSymbolTable
0
LTYPE
5
14
100
AcDbSymbolTableRecord
100
AcDbLinetypeTableRecord
2
BYBLOCK
70
0
0
LTYPE
5
15
100
AcDbSymbolTableRecord
100
AcDbLinetypeTableRecord
2
BYLAYER
70
0
0
ENDTAB
0
TABLE
2
LAYER
5
2
100
AcDbSymbolTable
70
2
0
LAYER
5
50
100
AcDbSymbolTableRecord
100
AcDbLayerTableRecord
2
0
70
0
6
CONTINUOUS
0
ENDTAB
0
TABLE
2
STYLE
5
3
100
AcDbSymbolTable
70
1
0
STYLE
5
11
100
AcDbSymbolTableRecord
100
AcDbTextStyleTableRecord
2
STANDARD
70
0
0
ENDTAB
0
TABLE
2
VIEW
5
6
100
AcDbSymbolTable
70
0
0
ENDTAB
0
TABLE
2
UCS
5
7
100
AcDbSymbolTable
70
0
0
ENDTAB
0
TABLE
2
APPID
5
9
100
AcDbSymbolTable
70
2
0
APPID
5
12
100
AcDbSymbolTableRecord
100
AcDbRegAppTableRecord
2
ACAD
70
0
0
ENDTAB
0
TABLE
2
DIMSTYLE
5
A
100
AcDbSymbolTable
70
1
0
ENDTAB
0
TABLE
2
BLOCK_RECORD
5
1
100
AcDbSymbolTable
70
1
0
BLOCK_RECORD
5
1F
100
AcDbSymbolTableRecord
100
AcDbBlockTableRecord
2
*MODEL_SPACE
0
BLOCK_RECORD
5
1B
100
AcDbSymbolTableRecord
100
AcDbBlockTableRecord
2
*PAPER_SPACE
0
ENDTAB
0
ENDSEC
0
SECTION
2
BLOCKS
0
BLOCK
5
20
100
AcDbEntity
100
AcDbBlockBegin
2
*MODEL_SPACE
0
ENDBLK
5
21
100
AcDbEntity
100
AcDbBlockEnd
0
BLOCK
5
1C
100
AcDbEntity
100
AcDbBlockBegin
2
*PAPER_SPACE
0
ENDBLK
5
1D
100
AcDbEntity
100
AcDbBlockEnd
0
ENDSEC
0
SECTION
2
ENTITIES
0
LWPOLYLINE
5
100
100
AcDbEntity
8
0
100
AcDbPolyline
90
38
70
1
43
0.0
10
-116.4370811343866
20
-51.407473423778605
10
-80.785004344888335
20
-83.827925999780021
10
-80.628635992554621
20
-83.93217024244818
10
-68.848856627054843
20
-87.268033727784498
10
-68.848856627054829
20
-36.656686416446789
10
-72.132600476471396
20
-35.29451379696561
10
-72.132600476471396
20
-19.560368159114997
10
-106.16886416505551
20
-2.3598056591150085
10
-112.42361416505548
20
-2.3598056591150085
10
-142.31567280585261
20
-19.143054769657319
10
-265.61286704372105
20
-18.622155062615477
10
-266.08197011239071
20
-18.622155062615477
10
-267.85414609772704
20
-22.062267761448634
10
-266.29045859772697
20
-25.502381454447502
10
-204.3248557828577
20
-33.448010871805586
10
-200.84018966380006
20
-37.69931028988298
10
-285.15896079372101
20
-33.529311416446731
10
-288.4948242790573
20
-33.320818954447468
10
-290.94460772505136
20
-36.656686416446725
10
-289.38090431839959
20
-40.618031264443744
10
-227.84060145183827
20
-49.717977224042457
10
-226.08146143118805
20
-53.561012761778017
10
-256.33499423971512
20
-66.262496720452617
10
-259.35811704372105
20
-70.432330053785947
10
-259.35811704372105
20
-79.600347177833157
10
-292.24768064171803
20
-93.887650507111772
10
-292.29980673971505
20
-101.81033224977989
10
-288.70331276439362
20
-107.54386103643915
10
-242.41815322040264
20
-101.44548137710436
10
-214.37603041639676
20
-105.04195944577398
10
-209.4764794310604
20
-100.19452660510882
10
-206.92245969572411
20
-88.466870355108838
10
-203.2738555290575
20
-85.443739597776997
10
-202.85687855838489
20
-85.078880771775516
10
-182.4246968157168
20
-82.21212035510888
10
-179.67443256347889
20
-80.311936254809865
10
-146.30351397505169
20
-67.409207249780053
10
-125.61071367238732
20
-51.355351302444525
0
ENDSEC
0
SECTION
2
OBJECTS
0
DICTIONARY
5
C
100
AcDbDictionary
3
ACAD_GROUP
350
D
3
ACAD_MLINESTYLE
350
17
0
DICTIONARY
5
D
100
AcDbDictionary
0
DICTIONARY
5
1A
330
C
100
AcDbDictionary
0
DICTIONARY
5
17
100
AcDbDictionary
0
ENDSEC
0
EOF
