0
SECTION
2
HEADER
9
$INSUNITS
70
4
9
$ACADVER
1
AC1014
9
$HANDSEED
5
FFFF
0
ENDSEC
0
SECTION
2
TABLES
0
TABLE
2
VPORT
5
8
100
AcDbSymbolTable
0
ENDTAB
0
TABLE
2
LTYPE
5
5
100
AcDbSymbolTable
0
LTYPE
5
14
100
AcDbSymbolTableRecord
100
AcDbLinetypeTableRecord
2
BYBLOCK
70
0
0
LTYPE
5
15
100
AcDbSymbolTableRecord
100
AcDbLinetypeTableRecord
2
BYLAYER
70
0
0
ENDTAB
0
TABLE
2
LAYER
5
2
100
AcDbSymbolTable
70
2
0
LAYER
5
50
100
AcDbSymbolTableRecord
100
AcDbLayerTableRecord
2
0
70
0
6
CONTINUOUS
0
ENDTAB
0
TABLE
2
STYLE
5
3
100
AcDbSymbolTable
70
1
0
STYLE
5
11
100
AcDbSymbolTableRecord
100
AcDbTextStyleTableRecord
2
STANDARD
70
0
0
ENDTAB
0
TABLE
2
VIEW
5
6
100
AcDbSymbolTable
70
0
0
ENDTAB
0
TABLE
2
UCS
5
7
100
AcDbSymbolTable
70
0
0
ENDTAB
0
TABLE
2
APPID
5
9
100
AcDbSymbolTable
70
2
0
APPID
5
12
100
AcDbSymbolTableRecord
100
AcDbRegAppTableRecord
2
ACAD
70
0
0
ENDTAB
0
TABLE
2
DIMSTYLE
5
A
100
AcDbSymbolTable
70
1
0
ENDTAB
0
TABLE
2
BLOCK_RECORD
5
1
100
AcDbSymbolTable
70
1
0
BLOCK_RECORD
5
1F
100
AcDbSymbolTableRecord
100
AcDbBlockTableRecord
2
*MODEL_SPACE
0
BLOCK_RECORD
5
1B
100
AcDbSymbolTableRecord
100
AcDbBlockTableRecord
2
*PAPER_SPACE
0
ENDTAB
0
ENDSEC
0
SECTION
2
BLOCKS
0
BLOCK
5
20
100
AcDbEntity
100
AcDbBlockBegin
2
*MODEL_SPACE
0
ENDBLK
5
21
100
AcDbEntity
100
AcDbBlockEnd
0
BLOCK
5
1C
100
AcDbEntity
100
AcDbBlockBegin
2
*PAPER_SPACE
0
ENDBLK
5
1D
100
AcDbEntity
100
AcDbBlockEnd
0
ENDSEC
0
SECTION
2
ENTITIES
0
LWPOLYLINE
5
100
100
AcDbEntity
8
0
100
AcDbPolyline
90
8
70
1
43
0.0
10
-19.220400000000005
20
-42.085299999999997
10
-36.021000000000001
20
-42.085299999999997
10
-36.021000000000001
20
-43.668101389371394
10
-43.720999999999997
20
-43.668101389371394
10
-43.720999999999997
20
-24.859700000000004
10
-11.520400000000004
20
-24.859700000000004
10
-11.520400000000004
20
-43.668101389371394
10
-19.220400000000005
20
-43.668101389371394
0
LWPOLYLINE
5
101
100
AcDbEntity
8
0
100
AcDbPolyline
90
8
70
1
43
0.0
10
-264.48939999999999
20
-99.236700000000013
10
-281.28999999999996
20
-99.236700000000013
10
-281.28999999999996
20
-100.8195013893714
10
-288.98999999999995
20
-100.8195013893714
10
-288.98999999999995
20
-82.011100000000013
10
-256.7894
20
-82.011100000000013
10
-256.7894
20
-100.8195013893714
10
-264.48939999999999
20
-100.8195013893714
0
LWPOLYLINE
5
102
100
AcDbEntity
8
0
100
AcDbPolyline
90
12
70
1
43
0.0
10
-262.10739999999998
20
-61.135300000000008
10
-278.90800000000002
20
-61.135300000000008
10
-278.90800000000002
20
-62.718101389371405
10
-286.608
20
-62.718101389371405
10
-286.608
20
-43.668101389371394
10
-281.846
20
-43.668101389371394
10
-281.846
20
-24.859700000000004
10
-249.6454
20
-24.859700000000004
10
-249.6454
20
-43.668101389371394
10
-254.4074
20
-43.668101389371394
10
-254.4074
20
-62.718101389371405
10
-262.10739999999998
20
-62.718101389371405
0
LWPOLYLINE
5
103
100
AcDbEntity
8
0
100
AcDbPolyline
90
14
70
1
43
0.0
10
-191.35818041308497
20
-24.575554400500188
10
-191.35841941289931
20
-5.7855544020201677
10
-183.78341941351209
20
-5.7854580516426335
10
-90.532800000000009
20
-5.784864999999999
10
-82.957800000000006
20
-5.784864999999999
10
-82.957800000000006
20
-24.574864999999999
10
-90.657800000000009
20
-24.574864999999999
10
-90.657800000000009
20
-9.8098650000000056
10
-130.15799999999999
20
-9.8098650000000056
10
-130.15799999999999
20
-23.035299999999999
10
-144.15800000056623
20
-23.035300000000007
10
-144.15816822064232
20
-9.8099540377223562
10
-183.65836821682353
20
-9.8104564625711976
10
-183.65818041308498
20
-24.57545641474157
0
LWPOLYLINE
5
104
100
AcDbEntity
8
0
100
AcDbPolyline
90
4
70
1
43
0.0
10
-8.7133299999999991
20
-85.234300000000019
10
-8.7133299999999991
20
-99.236700000000013
10
-22.715600000000002
20
-99.236700000000013
10
-22.715600000000002
20
-85.234300000000019
0
LWPOLYLINE
5
105
100
AcDbEntity
8
0
100
AcDbPolyline
90
4
70
1
43
0.0
10
-27.764700000000001
20
-85.234300000000019
10
-27.764700000000001
20
-99.236700000000013
10
-41.76570000000001
20
-99.236700000000013
10
-41.76570000000001
20
-85.234300000000019
0
LWPOLYLINE
5
106
100
AcDbEntity
8
0
100
AcDbPolyline
90
4
70
1
43
0.0
10
-46.814700000000002
20
-85.234300000000019
10
-46.814700000000002
20
-99.236700000000013
10
-60.8157
20
-99.236700000000013
10
-60.8157
20
-85.234300000000019
0
LWPOLYLINE
5
107
100
AcDbEntity
8
0
100
AcDbPolyline
90
4
70
1
43
0.0
10
-65.864699999999999
20
-85.234300000000019
10
-65.864699999999999
20
-99.236700000000013
10
-79.865700000000004
20
-99.236700000000013
10
-79.865700000000004
20
-85.234300000000019
0
LWPOLYLINE
5
108
100
AcDbEntity
8
0
100
AcDbPolyline
90
4
70
1
43
0.0
10
-84.914699999999996
20
-85.234300000000019
10
-84.914699999999996
20
-99.236700000000013
10
-98.915700000000015
20
-99.236700000000013
10
-98.915700000000015
20
-85.234300000000019
0
LWPOLYLINE
5
109
100
AcDbEntity
8
0
100
AcDbPolyline
90
4
70
1
43
0.0
10
-103.96299999999999
20
-85.234300000000019
10
-103.96299999999999
20
-99.236700000000013
10
-117.964
20
-99.236700000000013
10
-117.964
20
-85.234300000000019
0
LWPOLYLINE
5
110
100
AcDbEntity
8
0
100
AcDbPolyline
90
4
70
1
43
0.0
10
-123.01299999999999
20
-85.234300000000019
10
-123.01299999999999
20
-99.236700000000013
10
-137.01599999999999
20
-99.236700000000013
10
-137.01599999999999
20
-85.234300000000019
0
LWPOLYLINE
5
111
100
AcDbEntity
8
0
100
AcDbPolyline
90
4
70
1
43
0.0
10
-142.065
20
-85.234300000000019
10
-142.065
20
-99.236700000000013
10
-156.066
20
-99.236700000000013
10
-156.066
20
-85.234300000000019
0
LWPOLYLINE
5
112
100
AcDbEntity
8
0
100
AcDbPolyline
90
4
70
1
43
0.0
10
-161.11500000000004
20
-85.234300000000019
10
-161.11500000000004
20
-99.236700000000013
10
-175.11599999999999
20
-99.236700000000013
10
-175.11599999999999
20
-85.234300000000019
0
LWPOLYLINE
5
113
100
AcDbEntity
8
0
100
AcDbPolyline
90
4
70
1
43
0.0
10
-180.16500000000002
20
-85.234300000000019
10
-180.16500000000002
20
-99.236700000000013
10
-194.16600000000003
20
-99.236700000000013
10
-194.16600000000003
20
-85.234300000000019
0
LWPOLYLINE
5
114
100
AcDbEntity
8
0
100
AcDbPolyline
90
4
70
1
43
0.0
10
-199.21500000000003
20
-85.234300000000019
10
-199.21500000000003
20
-99.236700000000013
10
-213.21600000000001
20
-99.236700000000013
10
-213.21600000000001
20
-85.234300000000019
0
LWPOLYLINE
5
115
100
AcDbEntity
8
0
100
AcDbPolyline
90
4
70
1
43
0.0
10
-218.26499999999999
20
-85.234300000000019
10
-218.26499999999999
20
-99.236700000000013
10
-232.26600000000002
20
-99.236700000000013
10
-232.26600000000002
20
-85.234300000000019
0
LWPOLYLINE
5
116
100
AcDbEntity
8
0
100
AcDbPolyline
90
4
70
1
43
0.0
10
-237.315
20
-85.234300000000019
10
-237.315
20
-99.236700000000013
10
-251.31599999999997
20
-99.236700000000013
10
-251.31599999999997
20
-85.234300000000019
0
LWPOLYLINE
5
117
100
AcDbEntity
8
0
100
AcDbPolyline
90
4
70
1
43
0.0
10
-294.46500000000003
20
-85.234300000000019
10
-294.46500000000003
20
-99.236700000000013
10
-308.46600000000001
20
-99.236700000000013
10
-308.46600000000001
20
-85.234300000000019
0
LWPOLYLINE
5
118
100
AcDbEntity
8
0
100
AcDbPolyline
90
4
70
1
43
0.0
10
-313.51499999999999
20
-85.234300000000019
10
-313.51499999999999
20
-99.236700000000013
10
-327.51599999999996
20
-99.236700000000013
10
-327.51599999999996
20
-85.234300000000019
0
LWPOLYLINE
5
119
100
AcDbEntity
8
0
100
AcDbPolyline
90
4
70
1
43
0.0
10
-332.56500000000005
20
-85.234300000000019
10
-332.56500000000005
20
-99.236700000000013
10
-346.56599999999997
20
-99.236700000000013
10
-346.56599999999997
20
-85.234300000000019
0
LWPOLYLINE
5
120
100
AcDbEntity
8
0
100
AcDbPolyline
90
4
70
1
43
0.0
10
-13.477199999999998
20
-66.184300000000007
10
-13.477199999999998
20
-80.185299999999998
10
-27.476700000000001
20
-80.185299999999998
10
-27.476700000000001
20
-66.184300000000007
0
LWPOLYLINE
5
121
100
AcDbEntity
8
0
100
AcDbPolyline
90
4
70
1
43
0.0
10
-37.289700000000003
20
-66.184300000000007
10
-37.289700000000003
20
-80.185299999999998
10
-51.290700000000001
20
-80.185299999999998
10
-51.290700000000001
20
-66.184300000000007
0
LWPOLYLINE
5
122
100
AcDbEntity
8
0
100
AcDbPolyline
90
4
70
1
43
0.0
10
-56.339700000000008
20
-66.184300000000007
10
-56.339700000000008
20
-80.185299999999998
10
-70.340699999999998
20
-80.185299999999998
10
-70.340699999999998
20
-66.184300000000007
0
LWPOLYLINE
5
123
100
AcDbEntity
8
0
100
AcDbPolyline
90
4
70
1
43
0.0
10
-75.389700000000005
20
-66.184300000000007
10
-75.389700000000005
20
-80.185299999999998
10
-89.390699999999995
20
-80.185299999999998
10
-89.390699999999995
20
-66.184300000000007
0
LWPOLYLINE
5
124
100
AcDbEntity
8
0
100
AcDbPolyline
90
4
70
1
43
0.0
10
-94.439700000000002
20
-66.184300000000007
10
-94.439700000000002
20
-80.185299999999998
10
-108.441
20
-80.185299999999998
10
-108.441
20
-66.184300000000007
0
LWPOLYLINE
5
125
100
AcDbEntity
8
0
100
AcDbPolyline
90
4
70
1
43
0.0
10
-113.49000000000001
20
-66.184300000000007
10
-113.49000000000001
20
-80.185299999999998
10
-127.491
20
-80.185299999999998
10
-127.491
20
-66.184300000000007
0
LWPOLYLINE
5
126
100
AcDbEntity
8
0
100
AcDbPolyline
90
4
70
1
43
0.0
10
-132.53999999999999
20
-66.184300000000007
10
-132.53999999999999
20
-80.185299999999998
10
-146.541
20
-80.185299999999998
10
-146.541
20
-66.184300000000007
0
LWPOLYLINE
5
127
100
AcDbEntity
8
0
100
AcDbPolyline
90
4
70
1
43
0.0
10
-151.59
20
-66.184300000000007
10
-151.59
20
-80.185299999999998
10
-165.59099999999998
20
-80.185299999999998
10
-165.59099999999998
20
-66.184300000000007
0
LWPOLYLINE
5
128
100
AcDbEntity
8
0
100
AcDbPolyline
90
4
70
1
43
0.0
10
-170.63999999999999
20
-66.184300000000007
10
-170.63999999999999
20
-80.185299999999998
10
-184.64099999999999
20
-80.185299999999998
10
-184.64099999999999
20
-66.184300000000007
0
LWPOLYLINE
5
129
100
AcDbEntity
8
0
100
AcDbPolyline
90
4
70
1
43
0.0
10
-189.69
20
-66.184300000000007
10
-189.69
20
-80.185299999999998
10
-203.691
20
-80.185299999999998
10
-203.691
20
-66.184300000000007
0
LWPOLYLINE
5
130
100
AcDbEntity
8
0
100
AcDbPolyline
90
4
70
1
43
0.0
10
-208.74000000000001
20
-66.184300000000007
10
-208.74000000000001
20
-80.185299999999998
10
-222.74100000000001
20
-80.185299999999998
10
-222.74100000000001
20
-66.184300000000007
0
LWPOLYLINE
5
131
100
AcDbEntity
8
0
100
AcDbPolyline
90
4
70
1
43
0.0
10
-227.78999999999999
20
-66.184300000000007
10
-227.78999999999999
20
-80.185299999999998
10
-241.79100000000003
20
-80.185299999999998
10
-241.79100000000003
20
-66.184300000000007
0
LWPOLYLINE
5
132
100
AcDbEntity
8
0
100
AcDbPolyline
90
4
70
1
43
0.0
10
-246.84
20
-66.184300000000007
10
-246.84
20
-80.185299999999998
10
-260.84100000000001
20
-80.185299999999998
10
-260.84100000000001
20
-66.184300000000007
0
LWPOLYLINE
5
133
100
AcDbEntity
8
0
100
AcDbPolyline
90
4
70
1
43
0.0
10
-270.65199999999999
20
-66.184300000000007
10
-270.65199999999999
20
-80.185299999999998
10
-284.65199999999999
20
-80.185299999999998
10
-284.65199999999999
20
-66.184300000000007
0
LWPOLYLINE
5
134
100
AcDbEntity
8
0
100
AcDbPolyline
90
4
70
1
43
0.0
10
-294.46500000000003
20
-66.184300000000007
10
-294.46500000000003
20
-80.185299999999998
10
-308.46600000000001
20
-80.185299999999998
10
-308.46600000000001
20
-66.184300000000007
0
LWPOLYLINE
5
135
100
AcDbEntity
8
0
100
AcDbPolyline
90
4
70
1
43
0.0
10
-313.51499999999999
20
-66.184300000000007
10
-313.51499999999999
20
-80.185299999999998
10
-327.51599999999996
20
-80.185299999999998
10
-327.51599999999996
20
-66.184300000000007
0
LWPOLYLINE
5
136
100
AcDbEntity
8
0
100
AcDbPolyline
90
4
70
1
43
0.0
10
-332.56500000000005
20
-66.184300000000007
10
-332.56500000000005
20
-80.185299999999998
10
-346.56599999999997
20
-80.185299999999998
10
-346.56599999999997
20
-66.184300000000007
0
LWPOLYLINE
5
137
100
AcDbEntity
8
0
100
AcDbPolyline
90
4
70
1
43
0.0
10
-15.858499999999998
20
-47.13430000000001
10
-15.858499999999998
20
-61.135300000000008
10
-29.857900000000001
20
-61.135300000000008
10
-29.857900000000001
20
-47.13430000000001
0
LWPOLYLINE
5
138
100
AcDbEntity
8
0
100
AcDbPolyline
90
4
70
1
43
0.0
10
-42.052199999999999
20
-47.13430000000001
10
-42.052199999999999
20
-61.135300000000008
10
-56.051800000000007
20
-61.135300000000008
10
-56.051800000000007
20
-47.13430000000001
0
LWPOLYLINE
5
139
100
AcDbEntity
8
0
100
AcDbPolyline
90
4
70
1
43
0.0
10
-61.102200000000011
20
-47.13430000000001
10
-61.102200000000011
20
-61.135300000000008
10
-75.101799999999997
20
-61.135300000000008
10
-75.101799999999997
20
-47.13430000000001
0
LWPOLYLINE
5
140
100
AcDbEntity
8
0
100
AcDbPolyline
90
4
70
1
43
0.0
10
-80.152199999999993
20
-47.13430000000001
10
-80.152199999999993
20
-61.135300000000008
10
-94.151799999999994
20
-61.135300000000008
10
-94.151799999999994
20
-47.13430000000001
0
LWPOLYLINE
5
141
100
AcDbEntity
8
0
100
AcDbPolyline
90
4
70
1
43
0.0
10
-99.202200000000005
20
-47.13430000000001
10
-99.202200000000005
20
-61.135300000000008
10
-113.20200000000001
20
-61.135300000000008
10
-113.20200000000001
20
-47.13430000000001
0
LWPOLYLINE
5
142
100
AcDbEntity
8
0
100
AcDbPolyline
90
4
70
1
43
0.0
10
-118.25200000000002
20
-47.13430000000001
10
-118.25200000000002
20
-61.135300000000008
10
-132.25200000000001
20
-61.135300000000008
10
-132.25200000000001
20
-47.13430000000001
0
LWPOLYLINE
5
143
100
AcDbEntity
8
0
100
AcDbPolyline
90
4
70
1
43
0.0
10
-137.30200000000002
20
-47.13430000000001
10
-137.30200000000002
20
-61.135300000000008
10
-151.30200000000002
20
-61.135300000000008
10
-151.30200000000002
20
-47.13430000000001
0
LWPOLYLINE
5
144
100
AcDbEntity
8
0
100
AcDbPolyline
90
4
70
1
43
0.0
10
-156.352
20
-47.13430000000001
10
-156.352
20
-61.135300000000008
10
-170.352
20
-61.135300000000008
10
-170.352
20
-47.13430000000001
0
LWPOLYLINE
5
145
100
AcDbEntity
8
0
100
AcDbPolyline
90
4
70
1
43
0.0
10
-175.40200000000002
20
-47.13430000000001
10
-175.40200000000002
20
-61.135300000000008
10
-189.40200000000002
20
-61.135300000000008
10
-189.40200000000002
20
-47.13430000000001
0
LWPOLYLINE
5
146
100
AcDbEntity
8
0
100
AcDbPolyline
90
4
70
1
43
0.0
10
-194.452
20
-47.13430000000001
10
-194.452
20
-61.135300000000008
10
-208.45200000000003
20
-61.135300000000008
10
-208.45200000000003
20
-47.13430000000001
0
LWPOLYLINE
5
147
100
AcDbEntity
8
0
100
AcDbPolyline
90
4
70
1
43
0.0
10
-213.50200000000001
20
-47.13430000000001
10
-213.50200000000001
20
-61.135300000000008
10
-227.50200000000004
20
-61.135300000000008
10
-227.50200000000004
20
-47.13430000000001
0
LWPOLYLINE
5
148
100
AcDbEntity
8
0
100
AcDbPolyline
90
4
70
1
43
0.0
10
-232.55200000000002
20
-47.13430000000001
10
-232.55200000000002
20
-61.135300000000008
10
-246.55200000000005
20
-61.135300000000008
10
-246.55200000000005
20
-47.13430000000001
0
LWPOLYLINE
5
149
100
AcDbEntity
8
0
100
AcDbPolyline
90
4
70
1
43
0.0
10
-294.46500000000003
20
-47.13430000000001
10
-294.46500000000003
20
-61.135300000000008
10
-308.46600000000001
20
-61.135300000000008
10
-308.46600000000001
20
-47.13430000000001
0
LWPOLYLINE
5
150
100
AcDbEntity
8
0
100
AcDbPolyline
90
4
70
1
43
0.0
10
-313.51499999999999
20
-47.13430000000001
10
-313.51499999999999
20
-61.135300000000008
10
-327.51599999999996
20
-61.135300000000008
10
-327.51599999999996
20
-47.13430000000001
0
LWPOLYLINE
5
151
100
AcDbEntity
8
0
100
AcDbPolyline
90
4
70
1
43
0.0
10
-332.56500000000005
20
-47.13430000000001
10
-332.56500000000005
20
-61.135300000000008
10
-346.56599999999997
20
-61.135300000000008
10
-346.56599999999997
20
-47.13430000000001
0
LWPOLYLINE
5
152
100
AcDbEntity
8
0
100
AcDbPolyline
90
4
70
1
43
0.0
10
-51.577200000000005
20
-28.084400000000002
10
-51.577200000000005
20
-42.085299999999997
10
-65.57680000000002
20
-42.085299999999997
10
-65.57680000000002
20
-28.084400000000002
0
LWPOLYLINE
5
153
100
AcDbEntity
8
0
100
AcDbPolyline
90
4
70
1
43
0.0
10
-70.627200000000002
20
-28.084400000000002
10
-70.627200000000002
20
-42.085299999999997
10
-84.626800000000003
20
-42.085299999999997
10
-84.626800000000003
20
-28.084400000000002
0
LWPOLYLINE
5
154
100
AcDbEntity
8
0
100
AcDbPolyline
90
4
70
1
43
0.0
10
-89.677199999999999
20
-28.084400000000002
10
-89.677199999999999
20
-42.085299999999997
10
-103.67700000000001
20
-42.085299999999997
10
-103.67700000000001
20
-28.084400000000002
0
LWPOLYLINE
5
155
100
AcDbEntity
8
0
100
AcDbPolyline
90
4
70
1
43
0.0
10
-108.72700000000002
20
-28.084400000000002
10
-108.72700000000002
20
-42.085299999999997
10
-122.727
20
-42.085299999999997
10
-122.727
20
-28.084400000000002
0
LWPOLYLINE
5
156
100
AcDbEntity
8
0
100
AcDbPolyline
90
4
70
1
43
0.0
10
-127.77700000000002
20
-28.084400000000002
10
-127.77700000000002
20
-42.085299999999997
10
-141.77700000000002
20
-42.085299999999997
10
-141.77700000000002
20
-28.084400000000002
0
LWPOLYLINE
5
157
100
AcDbEntity
8
0
100
AcDbPolyline
90
4
70
1
43
0.0
10
-146.827
20
-28.084400000000002
10
-146.827
20
-42.085299999999997
10
-160.827
20
-42.085299999999997
10
-160.827
20
-28.084400000000002
0
LWPOLYLINE
5
158
100
AcDbEntity
8
0
100
AcDbPolyline
90
4
70
1
43
0.0
10
-165.87700000000001
20
-28.084400000000002
10
-165.87700000000001
20
-42.085299999999997
10
-179.87700000000001
20
-42.085299999999997
10
-179.87700000000001
20
-28.084400000000002
0
LWPOLYLINE
5
159
100
AcDbEntity
8
0
100
AcDbPolyline
90
4
70
1
43
0.0
10
-184.92700000000002
20
-28.084400000000002
10
-184.92700000000002
20
-42.085299999999997
10
-198.92700000000005
20
-42.085299999999997
10
-198.92700000000005
20
-28.084400000000002
0
LWPOLYLINE
5
160
100
AcDbEntity
8
0
100
AcDbPolyline
90
4
70
1
43
0.0
10
-203.977
20
-28.084400000000002
10
-203.977
20
-42.085299999999997
10
-217.97700000000003
20
-42.085299999999997
10
-217.97700000000003
20
-28.084400000000002
0
LWPOLYLINE
5
161
100
AcDbEntity
8
0
100
AcDbPolyline
90
4
70
1
43
0.0
10
-223.02700000000002
20
-28.084400000000002
10
-223.02700000000002
20
-42.085299999999997
10
-237.02700000000004
20
-42.085299999999997
10
-237.02700000000004
20
-28.084400000000002
0
LWPOLYLINE
5
162
100
AcDbEntity
8
0
100
AcDbPolyline
90
4
70
1
43
0.0
10
-294.46500000000003
20
-28.084400000000002
10
-294.46500000000003
20
-42.085299999999997
10
-308.46600000000001
20
-42.085299999999997
10
-308.46600000000001
20
-28.084400000000002
0
LWPOLYLINE
5
163
100
AcDbEntity
8
0
100
AcDbPolyline
90
4
70
1
43
0.0
10
-313.51499999999999
20
-28.084400000000002
10
-313.51499999999999
20
-42.085299999999997
10
-327.51599999999996
20
-42.085299999999997
10
-327.51599999999996
20
-28.084400000000002
0
LWPOLYLINE
5
164
100
AcDbEntity
8
0
100
AcDbPolyline
90
4
70
1
43
0.0
10
-332.56500000000005
20
-28.084400000000002
10
-332.56500000000005
20
-42.085299999999997
10
-346.56599999999997
20
-42.085299999999997
10
-346.56599999999997
20
-28.084400000000002
0
LWPOLYLINE
5
165
100
AcDbEntity
8
0
100
AcDbPolyline
90
4
70
1
43
0.0
10
-11.096
20
-9.0344300000000022
10
-11.096
20
-23.035299999999999
10
-25.095400000000005
20
-23.035299999999999
10
-25.095400000000005
20
-9.0344300000000022
0
LWPOLYLINE
5
166
100
AcDbEntity
8
0
100
AcDbPolyline
90
4
70
1
43
0.0
10
-34.908500000000004
20
-9.0344300000000022
10
-34.908500000000004
20
-23.035299999999999
10
-48.908100000000005
20
-23.035299999999999
10
-48.908100000000005
20
-9.0344300000000022
0
LWPOLYLINE
5
167
100
AcDbEntity
8
0
100
AcDbPolyline
90
4
70
1
43
0.0
10
-58.7209
20
-9.0344300000000022
10
-58.7209
20
-23.035299999999999
10
-72.720600000000005
20
-23.035299999999999
10
-72.720600000000005
20
-9.0344300000000022
0
LWPOLYLINE
5
168
100
AcDbEntity
8
0
100
AcDbPolyline
90
4
70
1
43
0.0
10
-201.59599999999998
20
-9.0344300000000022
10
-201.59599999999998
20
-23.035299999999999
10
-215.596
20
-23.035299999999999
10
-215.596
20
-9.0344300000000022
0
LWPOLYLINE
5
169
100
AcDbEntity
8
0
100
AcDbPolyline
90
4
70
1
43
0.0
10
-225.40800000000002
20
-9.0344300000000022
10
-225.40800000000002
20
-23.035299999999999
10
-239.40799999999999
20
-23.035299999999999
10
-239.40799999999999
20
-9.0344300000000022
0
LWPOLYLINE
5
170
100
AcDbEntity
8
0
100
AcDbPolyline
90
4
70
1
43
0.0
10
-249.221
20
-9.0344300000000022
10
-249.221
20
-23.035299999999999
10
-263.221
20
-23.035299999999999
10
-263.221
20
-9.0344300000000022
0
LWPOLYLINE
5
171
100
AcDbEntity
8
0
100
AcDbPolyline
90
4
70
1
43
0.0
10
-273.03300000000002
20
-9.0344300000000022
10
-273.03300000000002
20
-23.035299999999999
10
-287.03300000000002
20
-23.035299999999999
10
-287.03300000000002
20
-9.0344300000000022
0
LWPOLYLINE
5
172
100
AcDbEntity
8
0
100
AcDbPolyline
90
4
70
1
43
0.0
10
-294.46500000000003
20
-9.0344300000000022
10
-294.46500000000003
20
-23.035299999999999
10
-308.46600000000001
20
-23.035299999999999
10
-308.46600000000001
20
-9.0344300000000022
0
LWPOLYLINE
5
173
100
AcDbEntity
8
0
100
AcDbPolyline
90
4
70
1
43
0.0
10
-313.51499999999999
20
-9.0344300000000022
10
-313.51499999999999
20
-23.035299999999999
10
-327.51599999999996
20
-23.035299999999999
10
-327.51599999999996
20
-9.0344300000000022
0
LWPOLYLINE
5
174
100
AcDbEntity
8
0
100
AcDbPolyline
90
4
70
1
43
0.0
10
-332.56500000000005
20
-9.0344300000000022
10
-332.56500000000005
20
-23.035299999999999
10
-346.56599999999997
20
-23.035299999999999
10
-346.56599999999997
20
-9.0344300000000022
0
LWPOLYLINE
5
175
100
AcDbEntity
8
0
100
AcDbPolyline
90
8
70
1
43
0.0
10
-10.190250764013856
20
-112.7610000010651
42
0.41417425678949482
10
4.8098310037963898
20
-97.759378969386546
10
4.8112089993763814
20
-10.510378969386451
42
0.4142555711853122
10
-10.190974674361307
20
4.490126996375146
10
-345.09097945657879
20
4.4915029999578016
42
0.41423536573983266
10
-360.09199999851626
20
-10.510510993579629
10
-360.09199999977341
20
-97.759382458531519
42
0.41420444394608691
10
-345.09102482809993
20
-112.75999999994485
0
ENDSEC
0
SECTION
2
OBJECTS
0
DICTIONARY
5
C
100
AcDbDictionary
3
ACAD_GROUP
350
D
3
ACAD_MLINESTYLE
350
17
0
DICTIONARY
5
D
100
AcDbDictionary
0
DICTIONARY
5
1A
330
C
100
AcDbDictionary
0
DICTIONARY
5
17
100
AcDbDictionary
0
ENDSEC
0
EOF
