M48
;Layer_Color=9474304
;FILE_FORMAT=2:4
INCH,TZ
;TYPE=PLATED
T1F00S00C0.0120
T2F00S00C0.0150
T3F00S00C0.0170
T4F00S00C0.0236
T5F00S00C0.0590
;TYPE=NON_PLATED
T6F00S00C0.1200
T7F00S00C0.1570
%
T01
X10957Y2723
X22670Y2944
X25157Y9331
X26613Y10787
X18630Y11501
X19535Y14611
X34234Y10666
X37550Y9210
X41694Y10705
X45010Y9249
X50298Y9240
X49275Y10705
X54002Y11902
X56859Y13082
X57300Y13078
X57724Y13065
X58630Y11340
X58506Y9387
X55472Y8993
X54948Y4405
X58099Y4521
X59840Y3080
X61227Y2518
X65000Y5315
X70684Y5005
X71780Y10690
X63838Y10251
X63215Y10254
X76642Y2289
X77322Y2633
X77979Y2973
X78549Y3315
X81026Y3854
X80552Y9506
X79275Y10785
X78444Y8637
X87827Y9211
X86738Y10938
X95395Y11018
X97128Y9285
X114742Y11324
X114738Y13159
X122244Y10827
Y9370
X129744
Y10827
X129882Y24331
X129902Y25748
X122402
X122382Y24331
X114882
X114902Y25748
X112913Y26024
Y24291
X97953Y24292
X96063Y25788
X90380Y24280
X88563Y25788
X82956Y24294
X81066Y25791
X75456Y24294
X73566Y25791
X67955Y24294
X66065Y25791
X60455Y24294
X58565Y25791
X53048Y26357
X52956Y24294
X53120Y23630
X51750Y24620
X51260Y24610
X51491Y27858
X50750Y27843
X48387Y26905
X45455Y24294
X43565Y25791
X37954Y24294
X36064Y25791
X30455Y24294
X28565Y25791
X22952Y24291
X21062Y25787
X13906Y24296
X12395Y25866
X47376Y38665
X138526Y37137
T02
X6026Y4405
T03
X4976Y1194
X12634
X10391Y9910
X9776Y11905
X1238Y14792
X533Y9164
X1218Y7123
X20420Y1194
X28206
X29464Y11905
X21964
X36964
X44464
X43777Y1194
X35991
X51565
X59348
X58941Y4752
X58513Y5596
X59456Y11902
X61798Y9888
X51954Y11902
X62660Y9200
X66964Y11905
X74464
X76567Y1194
X68598
X80120Y1750
X84536Y1194
X88030Y1770
X88660Y4380
X92505Y1194
X89464Y11905
X81964
X94460Y3860
X95940Y1750
X100473Y1194
X104360Y1760
X103780Y3860
X108442Y1194
X103526Y11905
X117589
X116411Y1194
X120200Y1750
X121470Y3850
X124380Y1194
X112300Y1760
X113260Y3750
X129030Y3770
X130860Y4520
X129080Y7210
X132589Y11905
X138526Y12579
X138533Y5082
X136828Y3378
X137260Y1070
X132353Y1190
X125089Y11905
X129340Y18350
X138530Y20085
X138527Y27542
X132589Y26905
X125089
X117589
X121930Y18340
X113652Y17450
X108570Y18310
X108206Y26913
X98839Y26905
X98190Y18380
X89750Y18350
X82350Y18340
X83839Y26905
X91339
X76339
X68839
X67470Y18355
X74900Y18350
X60063Y18355
X55860Y18090
X53839Y26905
X61339
X46339
X38839
X31339
X37290Y18380
X44710Y18370
X29870
X22440Y18360
X23839Y26905
X16339
X15040Y19850
X14091Y17425
X12560Y18370
X6964Y26905
X1238Y29812
Y22282
X1212Y37299
X7205Y41032
X15185
X11456Y32420
X9330Y33440
X16760Y33450
X24180
X23108Y41042
X31048Y41022
X39048Y41042
X39020Y33480
X31590Y33440
X46940
X54370Y33450
X61800
X54958Y41032
X46998Y41002
X62928Y41032
X70923Y41035
X69240Y33470
X76650Y33450
X84080Y33460
X92000Y33440
X86856Y41019
X78878Y41022
X94812Y41018
X102766Y41021
X99430Y33460
X109560Y33220
X114398Y32518
X121680Y33450
X118713Y41027
X110728Y41031
X126681Y41027
X134648Y41032
X138527Y35082
X139235Y32514
X129110Y33450
T04
X66480Y1100
Y1600
X68960Y5410
Y5910
T05
X5550Y7113
X8050Y8113
X9300Y14613
X14925Y7113
X17425Y8113
X24300Y7113
X26800Y8113
X28987Y14613
X21487
X36487
X43987
X51478Y14609
X58980
X54925Y8113
X52425Y7113
X66487Y14613
X73987
X81487
X88987
X89925Y7113
X92425Y8113
X83050
X80550Y7113
X99300
X101800Y8113
X103050Y14613
X108675Y7113
X111175Y8113
X117113Y7113
X119613Y8113
X124613Y7113
Y14613
X117113
X132113
Y7113
X134613Y8113
X127113
Y15613
X134613
Y23113
X132113Y22113
X127113Y23113
Y30613
X132113Y29613
X134613Y30613
X124613Y29613
X119613Y30613
X117113Y29613
Y22113
X119613Y23113
X124613Y22113
X119613Y15613
X110237Y30613
X107737Y29613
X107425Y23113
X104925Y22113
X105550Y15613
X95237Y23113
X98363Y29613
X100863Y30613
X93363
X90863Y29613
X85863Y30613
X83363Y29613
X78363Y30613
X80237Y23113
X85237Y22113
X87737Y23113
X92737Y22113
X91487Y15613
X83987
X76487
X68987
X70237Y22113
X72737Y23113
X77737Y22113
X75863Y29613
X70863Y30613
X68363Y29613
X63363Y30613
X62737Y22113
X65237Y23113
X57737
X55237Y22113
X50237Y23113
X47737Y22113
X48363Y30613
X53363Y29613
X55863Y30613
X60863Y29613
X61480Y15609
X53978
X46487Y15613
X38987
X31487
X32737Y22113
X35237Y23113
X40237Y22113
X42737Y23113
X40863Y30613
X38363Y29613
X33363Y30613
X45863Y29613
X30863
X25863Y30613
X23363Y29613
X18363Y30613
X15863Y29613
X17737Y22113
X20237Y23113
X25237Y22113
X27737Y23113
X23987Y15613
X11800
X9925Y23113
X7425Y22113
X6487Y29613
X8987Y30613
X7113Y38113
X4613Y37113
X12112
X14612Y38113
X19612Y37113
X22112Y38113
X27112Y37113
X29612Y38113
X34611Y37113
X37111Y38113
X42112Y37113
X44612Y38113
X49613Y37113
X52113Y38113
X57112Y37113
X59612Y38113
X64612Y37113
X67112Y38113
X72113Y37113
X74613Y38113
X79613Y37113
X82113Y38113
X87113Y37113
X89613Y38113
X94613Y37113
X97113Y38113
X105863Y37113
X108363Y38113
X117113Y37113
X119613Y38113
X124613Y37113
X127113Y38113
X132113Y37113
X134613Y38113
T06
X34237Y8863
X73612
X111125Y23863
X109250Y16363
X99850
X101725Y23863
X15500Y16363
X6100
X102663Y38863
X112063
T07
X6100Y10363
X15500
X34237Y2863
X73612
X99850Y10363
X109250
X111125Y17863
X101725
X102663Y32863
X112063
M30
