M48
;Layer_Color=9474304
;FILE_FORMAT=2:4
INCH,TZ
;TYPE=PLATED
T1F00S00C0.0120
T2F00S00C0.0150
T3F00S00C0.0220
T4F00S00C0.0236
T5F00S00C0.0350
T6F00S00C0.0590
T7F00S00C0.1200
T8F00S00C0.1570
%
T01
X18622Y11496
X19528Y14606
X26614Y10787
X25157Y9331
X41693Y9291
Y10787
X48307Y11220
X49094Y10945
X48307Y9291
X49961Y9370
X54881Y9094
X56654Y10591
X57126
X57559
X57992
Y12008
X58465Y9449
X58425Y4646
X60472Y4291
X62283Y2047
X61732Y551
X62635Y1881
X62947Y1640
X63268Y2008
X63580Y1724
X66142Y551
X67441Y2520
X67677Y2835
X67953Y3110
X68228Y3386
X68465Y3701
X67874Y8307
X68071Y8622
X68937Y9449
X72244Y9331
X71614Y10709
X63701
X63150
X75433Y3346
X75669Y2441
X81024Y3858
X80591Y9528
X79134Y10984
X86654Y10925
X87717Y9370
X95787Y11260
X98189Y10512
X111535Y11614
X111526Y12717
X112913Y11575
X114567Y11535
Y12913
X112913Y14291
X122244Y10827
Y9370
X129744
X129764Y10787
X129882Y24331
Y25748
X122402
X122382Y24331
X114921Y24291
Y25827
X112913Y26024
Y24291
X99173Y24370
X95984Y25866
X90453Y24291
X88563Y25787
X82953Y24291
X81063Y25787
X75453Y24291
X73563Y25787
X67953Y24291
X66063Y25787
X60453Y24291
X58563Y25787
X51535Y27520
X53701Y19134
X45452Y24291
X43562Y25787
X37953Y24291
X36063Y25787
X30452Y24276
X28562Y25772
X22953Y24291
X21063Y25787
X13898Y24291
X12244Y25945
X48228Y34213
T02
X65079Y5512
T03
X4976Y1074
X10633Y3665
X9764Y11929
X1394Y14606
X1397Y7136
X20203Y3657
X29600Y3646
X29449Y11929
X21969
X36969
X44449
X35276Y4882
X58425Y5276
Y5984
X57545Y3445
X59449Y11929
X51968
X62598Y9055
X66437Y8300
X66968Y11929
X70512Y9094
X74449Y11929
X81968
X89449
X85830Y3627
X95324Y3577
X104502Y3666
X103543Y11929
X117559
X113242Y3812
X121687Y3540
X129178Y3430
X132476Y1074
X138406Y5089
X138403Y12589
X132598Y11929
X125079
X129759Y18416
X138406Y20089
X138403Y27589
X132598Y26929
X125079
X117598
X113976Y17717
X122299Y18360
X108894Y19656
X108228Y26929
X98819
X98440Y18898
X100709Y19331
X90534Y18336
X83004Y18350
X83819Y26929
X91339
X76339
X68819
X68011Y18321
X75492Y18328
X60488Y18325
X51990Y18840
X52795Y25079
X50000
X53819Y26929
X61339
X46339
X38819
X31339
X37952Y18286
X45464Y18304
X30345Y18364
X22888Y18364
X23858Y26929
X16339
X6969
X1394Y29606
X1397Y22136
X12876Y18603
X13504Y17598
X9803Y32598
X9157Y33494
X7024Y40903
X14992Y40906
X1397Y37137
X17318Y33372
X24884Y33363
X22961Y40903
X30900Y40906
X38899Y40903
X39819Y33367
X32332Y33372
X47306Y33392
X54807Y33387
X62324Y33367
X54836Y40906
X46867Y40903
X62805Y40906
X70774Y40903
X69816Y33397
X77303Y33397
X84839Y33382
X92277Y33426
X86711Y40903
X78713Y40906
X94650
X102649
X105424Y35160
X105197Y32520
X99979Y34115
X109820Y34588
X110617Y40906
X118586Y40903
X122249Y33333
X129858Y33411
X138403Y35089
X134524Y40903
X126555Y40906
T04
X66154Y2008
X66654
X69213Y5197
Y5697
T05
X60276Y8543
X61811Y10118
T06
X5550Y7113
X8050Y8113
X9300Y14613
X14925Y7113
X17425Y8113
X24300Y7113
X26800Y8113
X28988Y14613
X21488
X36488Y14613
X43988Y14613
X51488
X58988
X54925Y8113
X52425Y7113
X66488Y14613
X73988
X81488
X88988
X89925Y7113
X92425Y8113
X83050
X80550Y7113
X99300
X101800Y8113
X103050Y14613
X108675Y7113
X111175Y8113
X117113Y7113
X119613Y8113
X124613Y7113
Y14613
X117113
X132113Y14613
Y7113
X134613Y8113
X127113Y8113
Y15613
Y23113
X132113Y22113
X134613Y23113
Y15613
Y30613
X132113Y29613
X127113Y30613
X124613Y29613
X119613Y30613
X117113Y29613
Y22113
X119613Y23113
X124613Y22113
X119613Y15613
X110238Y30613
X107738Y29613
X107425Y23113
X104925Y22113
X105550Y15613
X95238Y23113
X98363Y29613
X100863Y30613
X93363
X90863Y29613
X85863Y30613
X83363Y29613
X78363Y30613
X80238Y23113
X85238Y22113
X87738Y23113
X92738Y22113
X91488Y15613
X83988
X76488
X68988
X70238Y22113
X72738Y23113
X77738Y22113
X75863Y29613
X70863Y30613
X68363Y29613
X63363Y30613
X62738Y22113
X65238Y23113
X57738
X55238Y22113
X50238Y23113
X47738Y22113
X48363Y30613
X53363Y29613
X55863Y30613
X60863Y29613
X61488Y15613
X53988
X46488
X38988Y15613
X31488Y15613
X32738Y22113
X35238Y23113
X40238Y22113
X42738Y23113
X40863Y30613
X38363Y29613
X33363Y30613
X45863Y29613
X30863
X25863Y30613
X23363Y29613
X18363Y30613
X15863Y29613
X17738Y22113
X20238Y23113
X25238Y22113
X27738Y23113
X23988Y15613
X11800Y15613
X9925Y23113
X7425Y22113
X6488Y29613
X8988Y30613
X7113Y38113
X4613Y37113
X12113Y37113
X14613Y38113
X19613Y37113
X22113Y38113
X27113Y37113
X29613Y38113
X34613Y37113
X37113Y38113
X42112Y37113
X44612Y38113
X49613Y37113
X52113Y38113
X57113Y37113
X59613Y38113
X64613Y37113
X67113Y38113
X72113Y37113
X74613Y38113
X79613Y37113
X82113Y38113
X87113Y37113
X89613Y38113
X94613Y37113
X97113Y38113
X105863Y37113
X108363Y38113
X117113Y37113
X119613Y38113
X124613Y37113
X127113Y38113
X132113Y37113
X134613Y38113
T07
X34238Y8863
X73613
X111125Y23863
X109250Y16363
X99850
X101725Y23863
X15500Y16363
X6100
X102663Y38863
X112063
T08
X6100Y10363
X15500
X34238Y2863
X73613
X99850Y10363
X109250
X111125Y17863
X101725
X102663Y32863
X112063
M30
