  0
SECTION
  2
HEADER
  9
$ACADVER
  1
AC1009
  9
$EXTMIN
 10
0.0
 20
0.0
 30
0.0
  9
$EXTMAX
 10
1000.0
 20
1000.0
 30
0.0
  9
$FILLMODE
 70
 0
  9
$SPLFRAME
 70
 1
  0
ENDSEC
  0
SECTION
  2
TABLES
  0
TABLE
  2
LAYER
 70
1
  0
LAYER
  2
0
 70
     0
 62
     7
  6
CONTINUOUS
  0
ENDTAB
  0
ENDSEC
  0
SECTION
  2
ENTITIES
  0
LINE
  8
0
 62
     0
 10
345.091
 20
107.76
 30
0.0
 11
345.875
 21
107.73
 31
0.0
  0
LINE
  8
0
 62
     0
 10
345.875
 20
107.73
 30
0.0
 11
346.655
 21
107.637
 31
0.0
  0
LINE
  8
0
 62
     0
 10
346.655
 20
107.637
 30
0.0
 11
347.425
 21
107.484
 31
0.0
  0
LINE
  8
0
 62
     0
 10
347.425
 20
107.484
 30
0.0
 11
348.181
 21
107.271
 31
0.0
  0
LINE
  8
0
 62
     0
 10
348.181
 20
107.271
 30
0.0
 11
348.917
 21
106.999
 31
0.0
  0
LINE
  8
0
 62
     0
 10
348.917
 20
106.999
 30
0.0
 11
349.63
 21
106.671
 31
0.0
  0
LINE
  8
0
 62
     0
 10
349.63
 20
106.671
 30
0.0
 11
350.315
 21
106.287
 31
0.0
  0
LINE
  8
0
 62
     0
 10
350.315
 20
106.287
 30
0.0
 11
350.968
 21
105.851
 31
0.0
  0
LINE
  8
0
 62
     0
 10
350.968
 20
105.851
 30
0.0
 11
351.584
 21
105.365
 31
0.0
  0
LINE
  8
0
 62
     0
 10
351.584
 20
105.365
 30
0.0
 11
352.162
 21
104.831
 31
0.0
  0
LINE
  8
0
 62
     0
 10
352.162
 20
104.831
 30
0.0
 11
352.695
 21
104.255
 31
0.0
  0
LINE
  8
0
 62
     0
 10
352.695
 20
104.255
 30
0.0
 11
353.18
 21
103.638
 31
0.0
  0
LINE
  8
0
 62
     0
 10
353.18
 20
103.638
 30
0.0
 11
353.617
 21
102.985
 31
0.0
  0
LINE
  8
0
 62
     0
 10
353.617
 20
102.985
 30
0.0
 11
354.002
 21
102.3
 31
0.0
  0
LINE
  8
0
 62
     0
 10
354.002
 20
102.3
 30
0.0
 11
354.33
 21
101.588
 31
0.0
  0
LINE
  8
0
 62
     0
 10
354.33
 20
101.588
 30
0.0
 11
354.602
 21
100.85
 31
0.0
  0
LINE
  8
0
 62
     0
 10
354.602
 20
100.85
 30
0.0
 11
354.813
 21
100.095
 31
0.0
  0
LINE
  8
0
 62
     0
 10
354.813
 20
100.095
 30
0.0
 11
354.969
 21
99.3249
 31
0.0
  0
LINE
  8
0
 62
     0
 10
354.969
 20
99.3249
 30
0.0
 11
355.06
 21
98.5449
 31
0.0
  0
LINE
  8
0
 62
     0
 10
355.06
 20
98.5449
 30
0.0
 11
355.092
 21
97.7593
 31
0.0
  0
LINE
  8
0
 62
     0
 10
355.092
 20
97.7593
 30
0.0
 11
355.092
 21
10.5103
 31
0.0
  0
LINE
  8
0
 62
     0
 10
355.092
 20
10.5103
 30
0.0
 11
355.06
 21
9.72481
 31
0.0
  0
LINE
  8
0
 62
     0
 10
355.06
 20
9.72481
 30
0.0
 11
354.969
 21
8.94486
 31
0.0
  0
LINE
  8
0
 62
     0
 10
354.969
 20
8.94486
 30
0.0
 11
354.813
 21
8.17453
 31
0.0
  0
LINE
  8
0
 62
     0
 10
354.813
 20
8.17453
 30
0.0
 11
354.602
 21
7.41938
 31
0.0
  0
LINE
  8
0
 62
     0
 10
354.602
 20
7.41938
 30
0.0
 11
354.33
 21
6.68348
 31
0.0
  0
LINE
  8
0
 62
     0
 10
354.33
 20
6.68348
 30
0.0
 11
354.002
 21
5.96967
 31
0.0
  0
LINE
  8
0
 62
     0
 10
354.002
 20
5.96967
 30
0.0
 11
353.617
 21
5.28479
 31
0.0
  0
LINE
  8
0
 62
     0
 10
353.617
 20
5.28479
 30
0.0
 11
353.18
 21
4.63158
 31
0.0
  0
LINE
  8
0
 62
     0
 10
353.18
 20
4.63158
 30
0.0
 11
352.695
 21
4.0156
 31
0.0
  0
LINE
  8
0
 62
     0
 10
352.695
 20
4.0156
 30
0.0
 11
352.162
 21
3.4382
 31
0.0
  0
LINE
  8
0
 62
     0
 10
352.162
 20
3.4382
 30
0.0
 11
351.584
 21
2.90491
 31
0.0
  0
LINE
  8
0
 62
     0
 10
351.584
 20
2.90491
 30
0.0
 11
350.968
 21
2.41846
 31
0.0
  0
LINE
  8
0
 62
     0
 10
350.968
 20
2.41846
 30
0.0
 11
350.315
 21
1.983
 31
0.0
  0
LINE
  8
0
 62
     0
 10
350.315
 20
1.983
 30
0.0
 11
349.63
 21
1.59852
 31
0.0
  0
LINE
  8
0
 62
     0
 10
349.63
 20
1.59852
 30
0.0
 11
348.917
 21
1.27055
 31
0.0
  0
LINE
  8
0
 62
     0
 10
348.917
 20
1.27055
 30
0.0
 11
348.181
 21
0.999077
 31
0.0
  0
LINE
  8
0
 62
     0
 10
348.181
 20
0.999077
 30
0.0
 11
347.425
 21
0.785481
 31
0.0
  0
LINE
  8
0
 62
     0
 10
347.425
 20
0.785481
 30
0.0
 11
346.655
 21
0.63252
 31
0.0
  0
LINE
  8
0
 62
     0
 10
346.655
 20
0.63252
 30
0.0
 11
345.875
 21
0.540191
 31
0.0
  0
LINE
  8
0
 62
     0
 10
345.875
 20
0.540191
 30
0.0
 11
345.091
 21
0.508497
 31
0.0
  0
LINE
  8
0
 62
     0
 10
345.091
 20
0.508497
 30
0.0
 11
10.1906
 21
0.509873
 31
0.0
  0
LINE
  8
0
 62
     0
 10
10.1906
 20
0.509873
 30
0.0
 11
9.40513
 21
0.540191
 31
0.0
  0
LINE
  8
0
 62
     0
 10
9.40513
 20
0.540191
 30
0.0
 11
8.62513
 21
0.63252
 31
0.0
  0
LINE
  8
0
 62
     0
 10
8.62513
 20
0.63252
 30
0.0
 11
7.85481
 21
0.785481
 31
0.0
  0
LINE
  8
0
 62
     0
 10
7.85481
 20
0.785481
 30
0.0
 11
7.09965
 21
0.999077
 31
0.0
  0
LINE
  8
0
 62
     0
 10
7.09965
 20
0.999077
 30
0.0
 11
6.36242
 21
1.27055
 31
0.0
  0
LINE
  8
0
 62
     0
 10
6.36242
 20
1.27055
 30
0.0
 11
5.64995
 21
1.59852
 31
0.0
  0
LINE
  8
0
 62
     0
 10
5.64995
 20
1.59852
 30
0.0
 11
4.96506
 21
1.983
 31
0.0
  0
LINE
  8
0
 62
     0
 10
4.96506
 20
1.983
 30
0.0
 11
4.3119
 21
2.41846
 31
0.0
  0
LINE
  8
0
 62
     0
 10
4.3119
 20
2.41846
 30
0.0
 11
3.69454
 21
2.90491
 31
0.0
  0
LINE
  8
0
 62
     0
 10
3.69454
 20
2.90491
 30
0.0
 11
3.1185
 21
3.4382
 31
0.0
  0
LINE
  8
0
 62
     0
 10
3.1185
 20
3.4382
 30
0.0
 11
2.5852
 21
4.0156
 31
0.0
  0
LINE
  8
0
 62
     0
 10
2.5852
 20
4.0156
 30
0.0
 11
2.09875
 21
4.63158
 31
0.0
  0
LINE
  8
0
 62
     0
 10
2.09875
 20
4.63158
 30
0.0
 11
1.66329
 21
5.28479
 31
0.0
  0
LINE
  8
0
 62
     0
 10
1.66329
 20
5.28479
 30
0.0
 11
1.27882
 21
5.96967
 31
0.0
  0
LINE
  8
0
 62
     0
 10
1.27882
 20
5.96967
 30
0.0
 11
0.950846
 21
6.68348
 31
0.0
  0
LINE
  8
0
 62
     0
 10
0.950846
 20
6.68348
 30
0.0
 11
0.679372
 21
7.41938
 31
0.0
  0
LINE
  8
0
 62
     0
 10
0.679372
 20
7.41938
 30
0.0
 11
0.465776
 21
8.17453
 31
0.0
  0
LINE
  8
0
 62
     0
 10
0.465776
 20
8.17453
 30
0.0
 11
0.312815
 21
8.94486
 31
0.0
  0
LINE
  8
0
 62
     0
 10
0.312815
 20
8.94486
 30
0.0
 11
0.220486
 21
9.72481
 31
0.0
  0
LINE
  8
0
 62
     0
 10
0.220486
 20
9.72481
 30
0.0
 11
0.188791
 21
10.5103
 31
0.0
  0
LINE
  8
0
 62
     0
 10
0.188791
 20
10.5103
 30
0.0
 11
0.190169
 21
97.7593
 31
0.0
  0
LINE
  8
0
 62
     0
 10
0.190169
 20
97.7593
 30
0.0
 11
0.220486
 21
98.5449
 31
0.0
  0
LINE
  8
0
 62
     0
 10
0.220486
 20
98.5449
 30
0.0
 11
0.312815
 21
99.3249
 31
0.0
  0
LINE
  8
0
 62
     0
 10
0.312815
 20
99.3249
 30
0.0
 11
0.465776
 21
100.095
 31
0.0
  0
LINE
  8
0
 62
     0
 10
0.465776
 20
100.095
 30
0.0
 11
0.679372
 21
100.85
 31
0.0
  0
LINE
  8
0
 62
     0
 10
0.679372
 20
100.85
 30
0.0
 11
0.950846
 21
101.588
 31
0.0
  0
LINE
  8
0
 62
     0
 10
0.950846
 20
101.588
 30
0.0
 11
1.27882
 21
102.3
 31
0.0
  0
LINE
  8
0
 62
     0
 10
1.27882
 20
102.3
 30
0.0
 11
1.66329
 21
102.985
 31
0.0
  0
LINE
  8
0
 62
     0
 10
1.66329
 20
102.985
 30
0.0
 11
2.09875
 21
103.638
 31
0.0
  0
LINE
  8
0
 62
     0
 10
2.09875
 20
103.638
 30
0.0
 11
2.5852
 21
104.255
 31
0.0
  0
LINE
  8
0
 62
     0
 10
2.5852
 20
104.255
 30
0.0
 11
3.1185
 21
104.831
 31
0.0
  0
LINE
  8
0
 62
     0
 10
3.1185
 20
104.831
 30
0.0
 11
3.69454
 21
105.365
 31
0.0
  0
LINE
  8
0
 62
     0
 10
3.69454
 20
105.365
 30
0.0
 11
4.3119
 21
105.851
 31
0.0
  0
LINE
  8
0
 62
     0
 10
4.3119
 20
105.851
 30
0.0
 11
4.96506
 21
106.287
 31
0.0
  0
LINE
  8
0
 62
     0
 10
4.96506
 20
106.287
 30
0.0
 11
5.64995
 21
106.671
 31
0.0
  0
LINE
  8
0
 62
     0
 10
5.64995
 20
106.671
 30
0.0
 11
6.36242
 21
106.999
 31
0.0
  0
LINE
  8
0
 62
     0
 10
6.36242
 20
106.999
 30
0.0
 11
7.09965
 21
107.271
 31
0.0
  0
LINE
  8
0
 62
     0
 10
7.09965
 20
107.271
 30
0.0
 11
7.85481
 21
107.484
 31
0.0
  0
LINE
  8
0
 62
     0
 10
7.85481
 20
107.484
 30
0.0
 11
8.62513
 21
107.637
 31
0.0
  0
LINE
  8
0
 62
     0
 10
8.62513
 20
107.637
 30
0.0
 11
9.40513
 21
107.73
 31
0.0
  0
LINE
  8
0
 62
     0
 10
9.40513
 20
107.73
 30
0.0
 11
10.1906
 21
107.761
 31
0.0
  0
LINE
  8
0
 62
     0
 10
10.1906
 20
107.761
 30
0.0
 11
345.091
 21
107.76
 31
0.0
  0
LINE
  8
0
 62
     0
 10
130.158
 20
23.0353
 30
0.0
 11
130.158
 21
18.3348
 31
0.0
  0
LINE
  8
0
 62
     0
 10
130.158
 20
18.3348
 30
0.0
 11
90.533
 21
18.3348
 31
0.0
  0
LINE
  8
0
 62
     0
 10
90.533
 20
18.3348
 30
0.0
 11
90.533
 21
21.5649
 31
0.0
  0
LINE
  8
0
 62
     0
 10
90.533
 20
21.5649
 30
0.0
 11
83.7833
 21
21.5649
 31
0.0
  0
LINE
  8
0
 62
     0
 10
83.7833
 20
21.5649
 30
0.0
 11
83.7833
 21
18.3348
 31
0.0
  0
LINE
  8
0
 62
     0
 10
83.7833
 20
18.3348
 30
0.0
 11
82.9578
 21
18.3348
 31
0.0
  0
LINE
  8
0
 62
     0
 10
82.9578
 20
18.3348
 30
0.0
 11
82.9578
 21
15.5346
 31
0.0
  0
LINE
  8
0
 62
     0
 10
82.9578
 20
15.5346
 30
0.0
 11
83.7833
 21
15.5346
 31
0.0
  0
LINE
  8
0
 62
     0
 10
83.7833
 20
15.5346
 30
0.0
 11
83.7833
 21
9.26592
 31
0.0
  0
LINE
  8
0
 62
     0
 10
83.7833
 20
9.26592
 30
0.0
 11
85.5087
 21
9.26592
 31
0.0
  0
LINE
  8
0
 62
     0
 10
85.5087
 20
9.26592
 30
0.0
 11
85.5087
 21
8.06566
 31
0.0
  0
LINE
  8
0
 62
     0
 10
85.5087
 20
8.06566
 30
0.0
 11
88.8076
 21
8.06566
 31
0.0
  0
LINE
  8
0
 62
     0
 10
88.8076
 20
8.06566
 30
0.0
 11
88.8076
 21
9.26592
 31
0.0
  0
LINE
  8
0
 62
     0
 10
88.8076
 20
9.26592
 30
0.0
 11
90.533
 21
9.26592
 31
0.0
  0
LINE
  8
0
 62
     0
 10
90.533
 20
9.26592
 30
0.0
 11
90.533
 21
13.7363
 31
0.0
  0
LINE
  8
0
 62
     0
 10
90.533
 20
13.7363
 30
0.0
 11
130.158
 21
13.7363
 31
0.0
  0
LINE
  8
0
 62
     0
 10
130.158
 20
13.7363
 30
0.0
 11
130.158
 21
9.03443
 31
0.0
  0
LINE
  8
0
 62
     0
 10
130.158
 20
9.03443
 30
0.0
 11
144.158
 21
9.03443
 31
0.0
  0
LINE
  8
0
 62
     0
 10
144.158
 20
9.03443
 30
0.0
 11
144.158
 21
13.7363
 31
0.0
  0
LINE
  8
0
 62
     0
 10
144.158
 20
13.7363
 30
0.0
 11
183.783
 21
13.7363
 31
0.0
  0
LINE
  8
0
 62
     0
 10
183.783
 20
13.7363
 30
0.0
 11
183.783
 21
9.26592
 31
0.0
  0
LINE
  8
0
 62
     0
 10
183.783
 20
9.26592
 30
0.0
 11
185.507
 21
9.26592
 31
0.0
  0
LINE
  8
0
 62
     0
 10
185.507
 20
9.26592
 30
0.0
 11
185.507
 21
8.06566
 31
0.0
  0
LINE
  8
0
 62
     0
 10
185.507
 20
8.06566
 30
0.0
 11
188.808
 21
8.06566
 31
0.0
  0
LINE
  8
0
 62
     0
 10
188.808
 20
8.06566
 30
0.0
 11
188.808
 21
9.26592
 31
0.0
  0
LINE
  8
0
 62
     0
 10
188.808
 20
9.26592
 30
0.0
 11
190.533
 21
9.26592
 31
0.0
  0
LINE
  8
0
 62
     0
 10
190.533
 20
9.26592
 30
0.0
 11
190.533
 21
15.5346
 31
0.0
  0
LINE
  8
0
 62
     0
 10
190.533
 20
15.5346
 30
0.0
 11
191.359
 21
15.5346
 31
0.0
  0
LINE
  8
0
 62
     0
 10
191.359
 20
15.5346
 30
0.0
 11
191.359
 21
18.3348
 31
0.0
  0
LINE
  8
0
 62
     0
 10
191.359
 20
18.3348
 30
0.0
 11
190.533
 21
18.3348
 31
0.0
  0
LINE
  8
0
 62
     0
 10
190.533
 20
18.3348
 30
0.0
 11
190.533
 21
21.5649
 31
0.0
  0
LINE
  8
0
 62
     0
 10
190.533
 20
21.5649
 30
0.0
 11
183.783
 21
21.5649
 31
0.0
  0
LINE
  8
0
 62
     0
 10
183.783
 20
21.5649
 30
0.0
 11
183.783
 21
18.3348
 31
0.0
  0
LINE
  8
0
 62
     0
 10
183.783
 20
18.3348
 30
0.0
 11
144.158
 21
18.3348
 31
0.0
  0
LINE
  8
0
 62
     0
 10
144.158
 20
18.3348
 30
0.0
 11
144.158
 21
23.0353
 31
0.0
  0
LINE
  8
0
 62
     0
 10
144.158
 20
23.0353
 30
0.0
 11
130.158
 21
23.0353
 31
0.0
  0
LINE
  8
0
 62
     0
 10
332.565
 20
23.0353
 30
0.0
 11
346.566
 21
23.0353
 31
0.0
  0
LINE
  8
0
 62
     0
 10
346.566
 20
23.0353
 30
0.0
 11
346.566
 21
9.03443
 31
0.0
  0
LINE
  8
0
 62
     0
 10
346.566
 20
9.03443
 30
0.0
 11
332.565
 21
9.03443
 31
0.0
  0
LINE
  8
0
 62
     0
 10
332.565
 20
9.03443
 30
0.0
 11
332.565
 21
23.0353
 31
0.0
  0
LINE
  8
0
 62
     0
 10
313.515
 20
23.0353
 30
0.0
 11
327.516
 21
23.0353
 31
0.0
  0
LINE
  8
0
 62
     0
 10
327.516
 20
23.0353
 30
0.0
 11
327.516
 21
9.03443
 31
0.0
  0
LINE
  8
0
 62
     0
 10
327.516
 20
9.03443
 30
0.0
 11
313.515
 21
9.03443
 31
0.0
  0
LINE
  8
0
 62
     0
 10
313.515
 20
9.03443
 30
0.0
 11
313.515
 21
23.0353
 31
0.0
  0
LINE
  8
0
 62
     0
 10
294.465
 20
23.0353
 30
0.0
 11
308.466
 21
23.0353
 31
0.0
  0
LINE
  8
0
 62
     0
 10
308.466
 20
23.0353
 30
0.0
 11
308.466
 21
9.03443
 31
0.0
  0
LINE
  8
0
 62
     0
 10
308.466
 20
9.03443
 30
0.0
 11
294.465
 21
9.03443
 31
0.0
  0
LINE
  8
0
 62
     0
 10
294.465
 20
9.03443
 30
0.0
 11
294.465
 21
23.0353
 31
0.0
  0
LINE
  8
0
 62
     0
 10
273.033
 20
23.0353
 30
0.0
 11
287.033
 21
23.0353
 31
0.0
  0
LINE
  8
0
 62
     0
 10
287.033
 20
23.0353
 30
0.0
 11
287.033
 21
9.03443
 31
0.0
  0
LINE
  8
0
 62
     0
 10
287.033
 20
9.03443
 30
0.0
 11
273.033
 21
9.03443
 31
0.0
  0
LINE
  8
0
 62
     0
 10
273.033
 20
9.03443
 30
0.0
 11
273.033
 21
23.0353
 31
0.0
  0
LINE
  8
0
 62
     0
 10
249.221
 20
23.0353
 30
0.0
 11
263.221
 21
23.0353
 31
0.0
  0
LINE
  8
0
 62
     0
 10
263.221
 20
23.0353
 30
0.0
 11
263.221
 21
9.03443
 31
0.0
  0
LINE
  8
0
 62
     0
 10
263.221
 20
9.03443
 30
0.0
 11
249.221
 21
9.03443
 31
0.0
  0
LINE
  8
0
 62
     0
 10
249.221
 20
9.03443
 30
0.0
 11
249.221
 21
23.0353
 31
0.0
  0
LINE
  8
0
 62
     0
 10
225.408
 20
23.0353
 30
0.0
 11
239.408
 21
23.0353
 31
0.0
  0
LINE
  8
0
 62
     0
 10
239.408
 20
23.0353
 30
0.0
 11
239.408
 21
9.03443
 31
0.0
  0
LINE
  8
0
 62
     0
 10
239.408
 20
9.03443
 30
0.0
 11
225.408
 21
9.03443
 31
0.0
  0
LINE
  8
0
 62
     0
 10
225.408
 20
9.03443
 30
0.0
 11
225.408
 21
23.0353
 31
0.0
  0
LINE
  8
0
 62
     0
 10
201.596
 20
23.0353
 30
0.0
 11
215.596
 21
23.0353
 31
0.0
  0
LINE
  8
0
 62
     0
 10
215.596
 20
23.0353
 30
0.0
 11
215.596
 21
9.03443
 31
0.0
  0
LINE
  8
0
 62
     0
 10
215.596
 20
9.03443
 30
0.0
 11
201.596
 21
9.03443
 31
0.0
  0
LINE
  8
0
 62
     0
 10
201.596
 20
9.03443
 30
0.0
 11
201.596
 21
23.0353
 31
0.0
  0
LINE
  8
0
 62
     0
 10
58.7209
 20
23.0353
 30
0.0
 11
72.7206
 21
23.0353
 31
0.0
  0
LINE
  8
0
 62
     0
 10
72.7206
 20
23.0353
 30
0.0
 11
72.7206
 21
9.03443
 31
0.0
  0
LINE
  8
0
 62
     0
 10
72.7206
 20
9.03443
 30
0.0
 11
58.7209
 21
9.03443
 31
0.0
  0
LINE
  8
0
 62
     0
 10
58.7209
 20
9.03443
 30
0.0
 11
58.7209
 21
23.0353
 31
0.0
  0
LINE
  8
0
 62
     0
 10
34.9085
 20
23.0353
 30
0.0
 11
48.9081
 21
23.0353
 31
0.0
  0
LINE
  8
0
 62
     0
 10
48.9081
 20
23.0353
 30
0.0
 11
48.9081
 21
9.03443
 31
0.0
  0
LINE
  8
0
 62
     0
 10
48.9081
 20
9.03443
 30
0.0
 11
34.9085
 21
9.03443
 31
0.0
  0
LINE
  8
0
 62
     0
 10
34.9085
 20
9.03443
 30
0.0
 11
34.9085
 21
23.0353
 31
0.0
  0
LINE
  8
0
 62
     0
 10
11.096
 20
23.0353
 30
0.0
 11
25.0954
 21
23.0353
 31
0.0
  0
LINE
  8
0
 62
     0
 10
25.0954
 20
23.0353
 30
0.0
 11
25.0954
 21
9.03443
 31
0.0
  0
LINE
  8
0
 62
     0
 10
25.0954
 20
9.03443
 30
0.0
 11
11.096
 21
9.03443
 31
0.0
  0
LINE
  8
0
 62
     0
 10
11.096
 20
9.03443
 30
0.0
 11
11.096
 21
23.0353
 31
0.0
  0
LINE
  8
0
 62
     0
 10
258.746
 20
42.0853
 30
0.0
 11
258.746
 21
37.3849
 31
0.0
  0
LINE
  8
0
 62
     0
 10
258.746
 20
37.3849
 30
0.0
 11
257.221
 21
37.3849
 31
0.0
  0
LINE
  8
0
 62
     0
 10
257.221
 20
37.3849
 30
0.0
 11
257.221
 21
40.615
 31
0.0
  0
LINE
  8
0
 62
     0
 10
257.221
 20
40.615
 30
0.0
 11
250.471
 21
40.615
 31
0.0
  0
LINE
  8
0
 62
     0
 10
250.471
 20
40.615
 30
0.0
 11
250.471
 21
37.3849
 31
0.0
  0
LINE
  8
0
 62
     0
 10
250.471
 20
37.3849
 30
0.0
 11
249.645
 21
37.3849
 31
0.0
  0
LINE
  8
0
 62
     0
 10
249.645
 20
37.3849
 30
0.0
 11
249.645
 21
34.5846
 31
0.0
  0
LINE
  8
0
 62
     0
 10
249.645
 20
34.5846
 30
0.0
 11
250.471
 21
34.5846
 31
0.0
  0
LINE
  8
0
 62
     0
 10
250.471
 20
34.5846
 30
0.0
 11
250.471
 21
28.3145
 31
0.0
  0
LINE
  8
0
 62
     0
 10
250.471
 20
28.3145
 30
0.0
 11
252.195
 21
28.3145
 31
0.0
  0
LINE
  8
0
 62
     0
 10
252.195
 20
28.3145
 30
0.0
 11
252.195
 21
27.1157
 31
0.0
  0
LINE
  8
0
 62
     0
 10
252.195
 20
27.1157
 30
0.0
 11
255.495
 21
27.1157
 31
0.0
  0
LINE
  8
0
 62
     0
 10
255.495
 20
27.1157
 30
0.0
 11
255.495
 21
28.3145
 31
0.0
  0
LINE
  8
0
 62
     0
 10
255.495
 20
28.3145
 30
0.0
 11
257.221
 21
28.3145
 31
0.0
  0
LINE
  8
0
 62
     0
 10
257.221
 20
28.3145
 30
0.0
 11
257.221
 21
32.7849
 31
0.0
  0
LINE
  8
0
 62
     0
 10
257.221
 20
32.7849
 30
0.0
 11
258.746
 21
32.7849
 31
0.0
  0
LINE
  8
0
 62
     0
 10
258.746
 20
32.7849
 30
0.0
 11
258.746
 21
28.0844
 31
0.0
  0
LINE
  8
0
 62
     0
 10
258.746
 20
28.0844
 30
0.0
 11
272.746
 21
28.0844
 31
0.0
  0
LINE
  8
0
 62
     0
 10
272.746
 20
28.0844
 30
0.0
 11
272.746
 21
32.7849
 31
0.0
  0
LINE
  8
0
 62
     0
 10
272.746
 20
32.7849
 30
0.0
 11
274.271
 21
32.7849
 31
0.0
  0
LINE
  8
0
 62
     0
 10
274.271
 20
32.7849
 30
0.0
 11
274.271
 21
28.3145
 31
0.0
  0
LINE
  8
0
 62
     0
 10
274.271
 20
28.3145
 30
0.0
 11
275.996
 21
28.3145
 31
0.0
  0
LINE
  8
0
 62
     0
 10
275.996
 20
28.3145
 30
0.0
 11
275.996
 21
27.1157
 31
0.0
  0
LINE
  8
0
 62
     0
 10
275.996
 20
27.1157
 30
0.0
 11
279.297
 21
27.1157
 31
0.0
  0
LINE
  8
0
 62
     0
 10
279.297
 20
27.1157
 30
0.0
 11
279.297
 21
28.3145
 31
0.0
  0
LINE
  8
0
 62
     0
 10
279.297
 20
28.3145
 30
0.0
 11
281.021
 21
28.3145
 31
0.0
  0
LINE
  8
0
 62
     0
 10
281.021
 20
28.3145
 30
0.0
 11
281.021
 21
34.5846
 31
0.0
  0
LINE
  8
0
 62
     0
 10
281.021
 20
34.5846
 30
0.0
 11
281.846
 21
34.5846
 31
0.0
  0
LINE
  8
0
 62
     0
 10
281.846
 20
34.5846
 30
0.0
 11
281.846
 21
37.3849
 31
0.0
  0
LINE
  8
0
 62
     0
 10
281.846
 20
37.3849
 30
0.0
 11
281.021
 21
37.3849
 31
0.0
  0
LINE
  8
0
 62
     0
 10
281.021
 20
37.3849
 30
0.0
 11
281.021
 21
40.615
 31
0.0
  0
LINE
  8
0
 62
     0
 10
281.021
 20
40.615
 30
0.0
 11
274.271
 21
40.615
 31
0.0
  0
LINE
  8
0
 62
     0
 10
274.271
 20
40.615
 30
0.0
 11
274.271
 21
37.3849
 31
0.0
  0
LINE
  8
0
 62
     0
 10
274.271
 20
37.3849
 30
0.0
 11
272.746
 21
37.3849
 31
0.0
  0
LINE
  8
0
 62
     0
 10
272.746
 20
37.3849
 30
0.0
 11
272.746
 21
42.0853
 31
0.0
  0
LINE
  8
0
 62
     0
 10
272.746
 20
42.0853
 30
0.0
 11
258.746
 21
42.0853
 31
0.0
  0
LINE
  8
0
 62
     0
 10
20.621
 20
42.0853
 30
0.0
 11
20.621
 21
37.3849
 31
0.0
  0
LINE
  8
0
 62
     0
 10
20.621
 20
37.3849
 30
0.0
 11
19.0955
 21
37.3849
 31
0.0
  0
LINE
  8
0
 62
     0
 10
19.0955
 20
37.3849
 30
0.0
 11
19.0955
 21
40.615
 31
0.0
  0
LINE
  8
0
 62
     0
 10
19.0955
 20
40.615
 30
0.0
 11
12.3458
 21
40.615
 31
0.0
  0
LINE
  8
0
 62
     0
 10
12.3458
 20
40.615
 30
0.0
 11
12.3458
 21
37.3849
 31
0.0
  0
LINE
  8
0
 62
     0
 10
12.3458
 20
37.3849
 30
0.0
 11
11.5204
 21
37.3849
 31
0.0
  0
LINE
  8
0
 62
     0
 10
11.5204
 20
37.3849
 30
0.0
 11
11.5204
 21
34.5846
 31
0.0
  0
LINE
  8
0
 62
     0
 10
11.5204
 20
34.5846
 30
0.0
 11
12.3458
 21
34.5846
 31
0.0
  0
LINE
  8
0
 62
     0
 10
12.3458
 20
34.5846
 30
0.0
 11
12.3458
 21
28.3145
 31
0.0
  0
LINE
  8
0
 62
     0
 10
12.3458
 20
28.3145
 30
0.0
 11
14.0711
 21
28.3145
 31
0.0
  0
LINE
  8
0
 62
     0
 10
14.0711
 20
28.3145
 30
0.0
 11
14.0711
 21
27.1157
 31
0.0
  0
LINE
  8
0
 62
     0
 10
14.0711
 20
27.1157
 30
0.0
 11
17.3716
 21
27.1157
 31
0.0
  0
LINE
  8
0
 62
     0
 10
17.3716
 20
27.1157
 30
0.0
 11
17.3716
 21
28.3145
 31
0.0
  0
LINE
  8
0
 62
     0
 10
17.3716
 20
28.3145
 30
0.0
 11
19.0955
 21
28.3145
 31
0.0
  0
LINE
  8
0
 62
     0
 10
19.0955
 20
28.3145
 30
0.0
 11
19.0955
 21
32.7849
 31
0.0
  0
LINE
  8
0
 62
     0
 10
19.0955
 20
32.7849
 30
0.0
 11
20.621
 21
32.7849
 31
0.0
  0
LINE
  8
0
 62
     0
 10
20.621
 20
32.7849
 30
0.0
 11
20.621
 21
28.0844
 31
0.0
  0
LINE
  8
0
 62
     0
 10
20.621
 20
28.0844
 30
0.0
 11
34.6204
 21
28.0844
 31
0.0
  0
LINE
  8
0
 62
     0
 10
34.6204
 20
28.0844
 30
0.0
 11
34.6204
 21
32.7849
 31
0.0
  0
LINE
  8
0
 62
     0
 10
34.6204
 20
32.7849
 30
0.0
 11
36.146
 21
32.7849
 31
0.0
  0
LINE
  8
0
 62
     0
 10
36.146
 20
32.7849
 30
0.0
 11
36.146
 21
28.3145
 31
0.0
  0
LINE
  8
0
 62
     0
 10
36.146
 20
28.3145
 30
0.0
 11
37.8714
 21
28.3145
 31
0.0
  0
LINE
  8
0
 62
     0
 10
37.8714
 20
28.3145
 30
0.0
 11
37.8714
 21
27.1157
 31
0.0
  0
LINE
  8
0
 62
     0
 10
37.8714
 20
27.1157
 30
0.0
 11
41.1716
 21
27.1157
 31
0.0
  0
LINE
  8
0
 62
     0
 10
41.1716
 20
27.1157
 30
0.0
 11
41.1716
 21
28.3145
 31
0.0
  0
LINE
  8
0
 62
     0
 10
41.1716
 20
28.3145
 30
0.0
 11
42.8957
 21
28.3145
 31
0.0
  0
LINE
  8
0
 62
     0
 10
42.8957
 20
28.3145
 30
0.0
 11
42.8957
 21
34.5846
 31
0.0
  0
LINE
  8
0
 62
     0
 10
42.8957
 20
34.5846
 30
0.0
 11
43.7212
 21
34.5846
 31
0.0
  0
LINE
  8
0
 62
     0
 10
43.7212
 20
34.5846
 30
0.0
 11
43.7212
 21
37.3849
 31
0.0
  0
LINE
  8
0
 62
     0
 10
43.7212
 20
37.3849
 30
0.0
 11
42.8957
 21
37.3849
 31
0.0
  0
LINE
  8
0
 62
     0
 10
42.8957
 20
37.3849
 30
0.0
 11
42.8957
 21
40.615
 31
0.0
  0
LINE
  8
0
 62
     0
 10
42.8957
 20
40.615
 30
0.0
 11
36.146
 21
40.615
 31
0.0
  0
LINE
  8
0
 62
     0
 10
36.146
 20
40.615
 30
0.0
 11
36.146
 21
37.3849
 31
0.0
  0
LINE
  8
0
 62
     0
 10
36.146
 20
37.3849
 30
0.0
 11
34.6204
 21
37.3849
 31
0.0
  0
LINE
  8
0
 62
     0
 10
34.6204
 20
37.3849
 30
0.0
 11
34.6204
 21
42.0853
 31
0.0
  0
LINE
  8
0
 62
     0
 10
34.6204
 20
42.0853
 30
0.0
 11
20.621
 21
42.0853
 31
0.0
  0
LINE
  8
0
 62
     0
 10
332.565
 20
42.0853
 30
0.0
 11
346.566
 21
42.0853
 31
0.0
  0
LINE
  8
0
 62
     0
 10
346.566
 20
42.0853
 30
0.0
 11
346.566
 21
28.0844
 31
0.0
  0
LINE
  8
0
 62
     0
 10
346.566
 20
28.0844
 30
0.0
 11
332.565
 21
28.0844
 31
0.0
  0
LINE
  8
0
 62
     0
 10
332.565
 20
28.0844
 30
0.0
 11
332.565
 21
42.0853
 31
0.0
  0
LINE
  8
0
 62
     0
 10
313.515
 20
42.0853
 30
0.0
 11
327.516
 21
42.0853
 31
0.0
  0
LINE
  8
0
 62
     0
 10
327.516
 20
42.0853
 30
0.0
 11
327.516
 21
28.0844
 31
0.0
  0
LINE
  8
0
 62
     0
 10
327.516
 20
28.0844
 30
0.0
 11
313.515
 21
28.0844
 31
0.0
  0
LINE
  8
0
 62
     0
 10
313.515
 20
28.0844
 30
0.0
 11
313.515
 21
42.0853
 31
0.0
  0
LINE
  8
0
 62
     0
 10
294.465
 20
42.0853
 30
0.0
 11
308.466
 21
42.0853
 31
0.0
  0
LINE
  8
0
 62
     0
 10
308.466
 20
42.0853
 30
0.0
 11
308.466
 21
28.0844
 31
0.0
  0
LINE
  8
0
 62
     0
 10
308.466
 20
28.0844
 30
0.0
 11
294.465
 21
28.0844
 31
0.0
  0
LINE
  8
0
 62
     0
 10
294.465
 20
28.0844
 30
0.0
 11
294.465
 21
42.0853
 31
0.0
  0
LINE
  8
0
 62
     0
 10
223.027
 20
42.0853
 30
0.0
 11
237.027
 21
42.0853
 31
0.0
  0
LINE
  8
0
 62
     0
 10
237.027
 20
42.0853
 30
0.0
 11
237.027
 21
28.0844
 31
0.0
  0
LINE
  8
0
 62
     0
 10
237.027
 20
28.0844
 30
0.0
 11
223.027
 21
28.0844
 31
0.0
  0
LINE
  8
0
 62
     0
 10
223.027
 20
28.0844
 30
0.0
 11
223.027
 21
42.0853
 31
0.0
  0
LINE
  8
0
 62
     0
 10
203.977
 20
42.0853
 30
0.0
 11
217.977
 21
42.0853
 31
0.0
  0
LINE
  8
0
 62
     0
 10
217.977
 20
42.0853
 30
0.0
 11
217.977
 21
28.0844
 31
0.0
  0
LINE
  8
0
 62
     0
 10
217.977
 20
28.0844
 30
0.0
 11
203.977
 21
28.0844
 31
0.0
  0
LINE
  8
0
 62
     0
 10
203.977
 20
28.0844
 30
0.0
 11
203.977
 21
42.0853
 31
0.0
  0
LINE
  8
0
 62
     0
 10
184.927
 20
42.0853
 30
0.0
 11
198.927
 21
42.0853
 31
0.0
  0
LINE
  8
0
 62
     0
 10
198.927
 20
42.0853
 30
0.0
 11
198.927
 21
28.0844
 31
0.0
  0
LINE
  8
0
 62
     0
 10
198.927
 20
28.0844
 30
0.0
 11
184.927
 21
28.0844
 31
0.0
  0
LINE
  8
0
 62
     0
 10
184.927
 20
28.0844
 30
0.0
 11
184.927
 21
42.0853
 31
0.0
  0
LINE
  8
0
 62
     0
 10
165.877
 20
42.0853
 30
0.0
 11
179.877
 21
42.0853
 31
0.0
  0
LINE
  8
0
 62
     0
 10
179.877
 20
42.0853
 30
0.0
 11
179.877
 21
28.0844
 31
0.0
  0
LINE
  8
0
 62
     0
 10
179.877
 20
28.0844
 30
0.0
 11
165.877
 21
28.0844
 31
0.0
  0
LINE
  8
0
 62
     0
 10
165.877
 20
28.0844
 30
0.0
 11
165.877
 21
42.0853
 31
0.0
  0
LINE
  8
0
 62
     0
 10
146.827
 20
42.0853
 30
0.0
 11
160.827
 21
42.0853
 31
0.0
  0
LINE
  8
0
 62
     0
 10
160.827
 20
42.0853
 30
0.0
 11
160.827
 21
28.0844
 31
0.0
  0
LINE
  8
0
 62
     0
 10
160.827
 20
28.0844
 30
0.0
 11
146.827
 21
28.0844
 31
0.0
  0
LINE
  8
0
 62
     0
 10
146.827
 20
28.0844
 30
0.0
 11
146.827
 21
42.0853
 31
0.0
  0
LINE
  8
0
 62
     0
 10
127.777
 20
42.0853
 30
0.0
 11
141.777
 21
42.0853
 31
0.0
  0
LINE
  8
0
 62
     0
 10
141.777
 20
42.0853
 30
0.0
 11
141.777
 21
28.0844
 31
0.0
  0
LINE
  8
0
 62
     0
 10
141.777
 20
28.0844
 30
0.0
 11
127.777
 21
28.0844
 31
0.0
  0
LINE
  8
0
 62
     0
 10
127.777
 20
28.0844
 30
0.0
 11
127.777
 21
42.0853
 31
0.0
  0
LINE
  8
0
 62
     0
 10
108.727
 20
42.0853
 30
0.0
 11
122.727
 21
42.0853
 31
0.0
  0
LINE
  8
0
 62
     0
 10
122.727
 20
42.0853
 30
0.0
 11
122.727
 21
28.0844
 31
0.0
  0
LINE
  8
0
 62
     0
 10
122.727
 20
28.0844
 30
0.0
 11
108.727
 21
28.0844
 31
0.0
  0
LINE
  8
0
 62
     0
 10
108.727
 20
28.0844
 30
0.0
 11
108.727
 21
42.0853
 31
0.0
  0
LINE
  8
0
 62
     0
 10
89.6772
 20
42.0853
 30
0.0
 11
103.677
 21
42.0853
 31
0.0
  0
LINE
  8
0
 62
     0
 10
103.677
 20
42.0853
 30
0.0
 11
103.677
 21
28.0844
 31
0.0
  0
LINE
  8
0
 62
     0
 10
103.677
 20
28.0844
 30
0.0
 11
89.6772
 21
28.0844
 31
0.0
  0
LINE
  8
0
 62
     0
 10
89.6772
 20
28.0844
 30
0.0
 11
89.6772
 21
42.0853
 31
0.0
  0
LINE
  8
0
 62
     0
 10
70.6272
 20
42.0853
 30
0.0
 11
84.6268
 21
42.0853
 31
0.0
  0
LINE
  8
0
 62
     0
 10
84.6268
 20
42.0853
 30
0.0
 11
84.6268
 21
28.0844
 31
0.0
  0
LINE
  8
0
 62
     0
 10
84.6268
 20
28.0844
 30
0.0
 11
70.6272
 21
28.0844
 31
0.0
  0
LINE
  8
0
 62
     0
 10
70.6272
 20
28.0844
 30
0.0
 11
70.6272
 21
42.0853
 31
0.0
  0
LINE
  8
0
 62
     0
 10
51.5772
 20
42.0853
 30
0.0
 11
65.5768
 21
42.0853
 31
0.0
  0
LINE
  8
0
 62
     0
 10
65.5768
 20
42.0853
 30
0.0
 11
65.5768
 21
28.0844
 31
0.0
  0
LINE
  8
0
 62
     0
 10
65.5768
 20
28.0844
 30
0.0
 11
51.5772
 21
28.0844
 31
0.0
  0
LINE
  8
0
 62
     0
 10
51.5772
 20
28.0844
 30
0.0
 11
51.5772
 21
42.0853
 31
0.0
  0
LINE
  8
0
 62
     0
 10
263.508
 20
61.1353
 30
0.0
 11
263.508
 21
56.4349
 31
0.0
  0
LINE
  8
0
 62
     0
 10
263.508
 20
56.4349
 30
0.0
 11
261.983
 21
56.4349
 31
0.0
  0
LINE
  8
0
 62
     0
 10
261.983
 20
56.4349
 30
0.0
 11
261.983
 21
59.665
 31
0.0
  0
LINE
  8
0
 62
     0
 10
261.983
 20
59.665
 30
0.0
 11
255.233
 21
59.665
 31
0.0
  0
LINE
  8
0
 62
     0
 10
255.233
 20
59.665
 30
0.0
 11
255.233
 21
56.4349
 31
0.0
  0
LINE
  8
0
 62
     0
 10
255.233
 20
56.4349
 30
0.0
 11
254.408
 21
56.4349
 31
0.0
  0
LINE
  8
0
 62
     0
 10
254.408
 20
56.4349
 30
0.0
 11
254.408
 21
53.6346
 31
0.0
  0
LINE
  8
0
 62
     0
 10
254.408
 20
53.6346
 30
0.0
 11
255.233
 21
53.6346
 31
0.0
  0
LINE
  8
0
 62
     0
 10
255.233
 20
53.6346
 30
0.0
 11
255.233
 21
47.3661
 31
0.0
  0
LINE
  8
0
 62
     0
 10
255.233
 20
47.3661
 30
0.0
 11
256.957
 21
47.3661
 31
0.0
  0
LINE
  8
0
 62
     0
 10
256.957
 20
47.3661
 30
0.0
 11
256.957
 21
46.1656
 31
0.0
  0
LINE
  8
0
 62
     0
 10
256.957
 20
46.1656
 30
0.0
 11
260.258
 21
46.1656
 31
0.0
  0
LINE
  8
0
 62
     0
 10
260.258
 20
46.1656
 30
0.0
 11
260.258
 21
47.3661
 31
0.0
  0
LINE
  8
0
 62
     0
 10
260.258
 20
47.3661
 30
0.0
 11
261.983
 21
47.3661
 31
0.0
  0
LINE
  8
0
 62
     0
 10
261.983
 20
47.3661
 30
0.0
 11
261.983
 21
51.8351
 31
0.0
  0
LINE
  8
0
 62
     0
 10
261.983
 20
51.8351
 30
0.0
 11
263.508
 21
51.8351
 31
0.0
  0
LINE
  8
0
 62
     0
 10
263.508
 20
51.8351
 30
0.0
 11
263.508
 21
47.1343
 31
0.0
  0
LINE
  8
0
 62
     0
 10
263.508
 20
47.1343
 30
0.0
 11
277.508
 21
47.1343
 31
0.0
  0
LINE
  8
0
 62
     0
 10
277.508
 20
47.1343
 30
0.0
 11
277.508
 21
51.8351
 31
0.0
  0
LINE
  8
0
 62
     0
 10
277.508
 20
51.8351
 30
0.0
 11
279.033
 21
51.8351
 31
0.0
  0
LINE
  8
0
 62
     0
 10
279.033
 20
51.8351
 30
0.0
 11
279.033
 21
47.3661
 31
0.0
  0
LINE
  8
0
 62
     0
 10
279.033
 20
47.3661
 30
0.0
 11
280.757
 21
47.3661
 31
0.0
  0
LINE
  8
0
 62
     0
 10
280.757
 20
47.3661
 30
0.0
 11
280.757
 21
46.1656
 31
0.0
  0
LINE
  8
0
 62
     0
 10
280.757
 20
46.1656
 30
0.0
 11
284.058
 21
46.1656
 31
0.0
  0
LINE
  8
0
 62
     0
 10
284.058
 20
46.1656
 30
0.0
 11
284.058
 21
47.3661
 31
0.0
  0
LINE
  8
0
 62
     0
 10
284.058
 20
47.3661
 30
0.0
 11
285.783
 21
47.3661
 31
0.0
  0
LINE
  8
0
 62
     0
 10
285.783
 20
47.3661
 30
0.0
 11
285.783
 21
53.6346
 31
0.0
  0
LINE
  8
0
 62
     0
 10
285.783
 20
53.6346
 30
0.0
 11
286.609
 21
53.6346
 31
0.0
  0
LINE
  8
0
 62
     0
 10
286.609
 20
53.6346
 30
0.0
 11
286.609
 21
56.4349
 31
0.0
  0
LINE
  8
0
 62
     0
 10
286.609
 20
56.4349
 30
0.0
 11
285.783
 21
56.4349
 31
0.0
  0
LINE
  8
0
 62
     0
 10
285.783
 20
56.4349
 30
0.0
 11
285.783
 21
59.665
 31
0.0
  0
LINE
  8
0
 62
     0
 10
285.783
 20
59.665
 30
0.0
 11
279.033
 21
59.665
 31
0.0
  0
LINE
  8
0
 62
     0
 10
279.033
 20
59.665
 30
0.0
 11
279.033
 21
56.4349
 31
0.0
  0
LINE
  8
0
 62
     0
 10
279.033
 20
56.4349
 30
0.0
 11
277.508
 21
56.4349
 31
0.0
  0
LINE
  8
0
 62
     0
 10
277.508
 20
56.4349
 30
0.0
 11
277.508
 21
61.1353
 31
0.0
  0
LINE
  8
0
 62
     0
 10
277.508
 20
61.1353
 30
0.0
 11
263.508
 21
61.1353
 31
0.0
  0
LINE
  8
0
 62
     0
 10
332.565
 20
61.1353
 30
0.0
 11
346.566
 21
61.1353
 31
0.0
  0
LINE
  8
0
 62
     0
 10
346.566
 20
61.1353
 30
0.0
 11
346.566
 21
47.1343
 31
0.0
  0
LINE
  8
0
 62
     0
 10
346.566
 20
47.1343
 30
0.0
 11
332.565
 21
47.1343
 31
0.0
  0
LINE
  8
0
 62
     0
 10
332.565
 20
47.1343
 30
0.0
 11
332.565
 21
61.1353
 31
0.0
  0
LINE
  8
0
 62
     0
 10
313.515
 20
61.1353
 30
0.0
 11
327.516
 21
61.1353
 31
0.0
  0
LINE
  8
0
 62
     0
 10
327.516
 20
61.1353
 30
0.0
 11
327.516
 21
47.1343
 31
0.0
  0
LINE
  8
0
 62
     0
 10
327.516
 20
47.1343
 30
0.0
 11
313.515
 21
47.1343
 31
0.0
  0
LINE
  8
0
 62
     0
 10
313.515
 20
47.1343
 30
0.0
 11
313.515
 21
61.1353
 31
0.0
  0
LINE
  8
0
 62
     0
 10
294.465
 20
61.1353
 30
0.0
 11
308.466
 21
61.1353
 31
0.0
  0
LINE
  8
0
 62
     0
 10
308.466
 20
61.1353
 30
0.0
 11
308.466
 21
47.1343
 31
0.0
  0
LINE
  8
0
 62
     0
 10
308.466
 20
47.1343
 30
0.0
 11
294.465
 21
47.1343
 31
0.0
  0
LINE
  8
0
 62
     0
 10
294.465
 20
47.1343
 30
0.0
 11
294.465
 21
61.1353
 31
0.0
  0
LINE
  8
0
 62
     0
 10
232.552
 20
61.1353
 30
0.0
 11
246.552
 21
61.1353
 31
0.0
  0
LINE
  8
0
 62
     0
 10
246.552
 20
61.1353
 30
0.0
 11
246.552
 21
47.1343
 31
0.0
  0
LINE
  8
0
 62
     0
 10
246.552
 20
47.1343
 30
0.0
 11
232.552
 21
47.1343
 31
0.0
  0
LINE
  8
0
 62
     0
 10
232.552
 20
47.1343
 30
0.0
 11
232.552
 21
61.1353
 31
0.0
  0
LINE
  8
0
 62
     0
 10
213.502
 20
61.1353
 30
0.0
 11
227.502
 21
61.1353
 31
0.0
  0
LINE
  8
0
 62
     0
 10
227.502
 20
61.1353
 30
0.0
 11
227.502
 21
47.1343
 31
0.0
  0
LINE
  8
0
 62
     0
 10
227.502
 20
47.1343
 30
0.0
 11
213.502
 21
47.1343
 31
0.0
  0
LINE
  8
0
 62
     0
 10
213.502
 20
47.1343
 30
0.0
 11
213.502
 21
61.1353
 31
0.0
  0
LINE
  8
0
 62
     0
 10
194.452
 20
61.1353
 30
0.0
 11
208.452
 21
61.1353
 31
0.0
  0
LINE
  8
0
 62
     0
 10
208.452
 20
61.1353
 30
0.0
 11
208.452
 21
47.1343
 31
0.0
  0
LINE
  8
0
 62
     0
 10
208.452
 20
47.1343
 30
0.0
 11
194.452
 21
47.1343
 31
0.0
  0
LINE
  8
0
 62
     0
 10
194.452
 20
47.1343
 30
0.0
 11
194.452
 21
61.1353
 31
0.0
  0
LINE
  8
0
 62
     0
 10
175.402
 20
61.1353
 30
0.0
 11
189.402
 21
61.1353
 31
0.0
  0
LINE
  8
0
 62
     0
 10
189.402
 20
61.1353
 30
0.0
 11
189.402
 21
47.1343
 31
0.0
  0
LINE
  8
0
 62
     0
 10
189.402
 20
47.1343
 30
0.0
 11
175.402
 21
47.1343
 31
0.0
  0
LINE
  8
0
 62
     0
 10
175.402
 20
47.1343
 30
0.0
 11
175.402
 21
61.1353
 31
0.0
  0
LINE
  8
0
 62
     0
 10
156.352
 20
61.1353
 30
0.0
 11
170.352
 21
61.1353
 31
0.0
  0
LINE
  8
0
 62
     0
 10
170.352
 20
61.1353
 30
0.0
 11
170.352
 21
47.1343
 31
0.0
  0
LINE
  8
0
 62
     0
 10
170.352
 20
47.1343
 30
0.0
 11
156.352
 21
47.1343
 31
0.0
  0
LINE
  8
0
 62
     0
 10
156.352
 20
47.1343
 30
0.0
 11
156.352
 21
61.1353
 31
0.0
  0
LINE
  8
0
 62
     0
 10
137.302
 20
61.1353
 30
0.0
 11
151.302
 21
61.1353
 31
0.0
  0
LINE
  8
0
 62
     0
 10
151.302
 20
61.1353
 30
0.0
 11
151.302
 21
47.1343
 31
0.0
  0
LINE
  8
0
 62
     0
 10
151.302
 20
47.1343
 30
0.0
 11
137.302
 21
47.1343
 31
0.0
  0
LINE
  8
0
 62
     0
 10
137.302
 20
47.1343
 30
0.0
 11
137.302
 21
61.1353
 31
0.0
  0
LINE
  8
0
 62
     0
 10
118.252
 20
61.1353
 30
0.0
 11
132.252
 21
61.1353
 31
0.0
  0
LINE
  8
0
 62
     0
 10
132.252
 20
61.1353
 30
0.0
 11
132.252
 21
47.1343
 31
0.0
  0
LINE
  8
0
 62
     0
 10
132.252
 20
47.1343
 30
0.0
 11
118.252
 21
47.1343
 31
0.0
  0
LINE
  8
0
 62
     0
 10
118.252
 20
47.1343
 30
0.0
 11
118.252
 21
61.1353
 31
0.0
  0
LINE
  8
0
 62
     0
 10
99.2022
 20
61.1353
 30
0.0
 11
113.202
 21
61.1353
 31
0.0
  0
LINE
  8
0
 62
     0
 10
113.202
 20
61.1353
 30
0.0
 11
113.202
 21
47.1343
 31
0.0
  0
LINE
  8
0
 62
     0
 10
113.202
 20
47.1343
 30
0.0
 11
99.2022
 21
47.1343
 31
0.0
  0
LINE
  8
0
 62
     0
 10
99.2022
 20
47.1343
 30
0.0
 11
99.2022
 21
61.1353
 31
0.0
  0
LINE
  8
0
 62
     0
 10
80.1522
 20
61.1353
 30
0.0
 11
94.1518
 21
61.1353
 31
0.0
  0
LINE
  8
0
 62
     0
 10
94.1518
 20
61.1353
 30
0.0
 11
94.1518
 21
47.1343
 31
0.0
  0
LINE
  8
0
 62
     0
 10
94.1518
 20
47.1343
 30
0.0
 11
80.1522
 21
47.1343
 31
0.0
  0
LINE
  8
0
 62
     0
 10
80.1522
 20
47.1343
 30
0.0
 11
80.1522
 21
61.1353
 31
0.0
  0
LINE
  8
0
 62
     0
 10
61.1022
 20
61.1353
 30
0.0
 11
75.1018
 21
61.1353
 31
0.0
  0
LINE
  8
0
 62
     0
 10
75.1018
 20
61.1353
 30
0.0
 11
75.1018
 21
47.1343
 31
0.0
  0
LINE
  8
0
 62
     0
 10
75.1018
 20
47.1343
 30
0.0
 11
61.1022
 21
47.1343
 31
0.0
  0
LINE
  8
0
 62
     0
 10
61.1022
 20
47.1343
 30
0.0
 11
61.1022
 21
61.1353
 31
0.0
  0
LINE
  8
0
 62
     0
 10
42.0522
 20
61.1353
 30
0.0
 11
56.0518
 21
61.1353
 31
0.0
  0
LINE
  8
0
 62
     0
 10
56.0518
 20
61.1353
 30
0.0
 11
56.0518
 21
47.1343
 31
0.0
  0
LINE
  8
0
 62
     0
 10
56.0518
 20
47.1343
 30
0.0
 11
42.0522
 21
47.1343
 31
0.0
  0
LINE
  8
0
 62
     0
 10
42.0522
 20
47.1343
 30
0.0
 11
42.0522
 21
61.1353
 31
0.0
  0
LINE
  8
0
 62
     0
 10
15.8585
 20
61.1353
 30
0.0
 11
29.8579
 21
61.1353
 31
0.0
  0
LINE
  8
0
 62
     0
 10
29.8579
 20
61.1353
 30
0.0
 11
29.8579
 21
47.1343
 31
0.0
  0
LINE
  8
0
 62
     0
 10
29.8579
 20
47.1343
 30
0.0
 11
15.8585
 21
47.1343
 31
0.0
  0
LINE
  8
0
 62
     0
 10
15.8585
 20
47.1343
 30
0.0
 11
15.8585
 21
61.1353
 31
0.0
  0
LINE
  8
0
 62
     0
 10
332.565
 20
80.1853
 30
0.0
 11
346.566
 21
80.1853
 31
0.0
  0
LINE
  8
0
 62
     0
 10
346.566
 20
80.1853
 30
0.0
 11
346.566
 21
66.1843
 31
0.0
  0
LINE
  8
0
 62
     0
 10
346.566
 20
66.1843
 30
0.0
 11
332.565
 21
66.1843
 31
0.0
  0
LINE
  8
0
 62
     0
 10
332.565
 20
66.1843
 30
0.0
 11
332.565
 21
80.1853
 31
0.0
  0
LINE
  8
0
 62
     0
 10
313.515
 20
80.1853
 30
0.0
 11
327.516
 21
80.1853
 31
0.0
  0
LINE
  8
0
 62
     0
 10
327.516
 20
80.1853
 30
0.0
 11
327.516
 21
66.1843
 31
0.0
  0
LINE
  8
0
 62
     0
 10
327.516
 20
66.1843
 30
0.0
 11
313.515
 21
66.1843
 31
0.0
  0
LINE
  8
0
 62
     0
 10
313.515
 20
66.1843
 30
0.0
 11
313.515
 21
80.1853
 31
0.0
  0
LINE
  8
0
 62
     0
 10
294.465
 20
80.1853
 30
0.0
 11
308.466
 21
80.1853
 31
0.0
  0
LINE
  8
0
 62
     0
 10
308.466
 20
80.1853
 30
0.0
 11
308.466
 21
66.1843
 31
0.0
  0
LINE
  8
0
 62
     0
 10
308.466
 20
66.1843
 30
0.0
 11
294.465
 21
66.1843
 31
0.0
  0
LINE
  8
0
 62
     0
 10
294.465
 20
66.1843
 30
0.0
 11
294.465
 21
80.1853
 31
0.0
  0
LINE
  8
0
 62
     0
 10
270.652
 20
80.1853
 30
0.0
 11
284.652
 21
80.1853
 31
0.0
  0
LINE
  8
0
 62
     0
 10
284.652
 20
80.1853
 30
0.0
 11
284.652
 21
66.1843
 31
0.0
  0
LINE
  8
0
 62
     0
 10
284.652
 20
66.1843
 30
0.0
 11
270.652
 21
66.1843
 31
0.0
  0
LINE
  8
0
 62
     0
 10
270.652
 20
66.1843
 30
0.0
 11
270.652
 21
80.1853
 31
0.0
  0
LINE
  8
0
 62
     0
 10
246.84
 20
80.1853
 30
0.0
 11
260.841
 21
80.1853
 31
0.0
  0
LINE
  8
0
 62
     0
 10
260.841
 20
80.1853
 30
0.0
 11
260.841
 21
66.1843
 31
0.0
  0
LINE
  8
0
 62
     0
 10
260.841
 20
66.1843
 30
0.0
 11
246.84
 21
66.1843
 31
0.0
  0
LINE
  8
0
 62
     0
 10
246.84
 20
66.1843
 30
0.0
 11
246.84
 21
80.1853
 31
0.0
  0
LINE
  8
0
 62
     0
 10
227.79
 20
80.1853
 30
0.0
 11
241.791
 21
80.1853
 31
0.0
  0
LINE
  8
0
 62
     0
 10
241.791
 20
80.1853
 30
0.0
 11
241.791
 21
66.1843
 31
0.0
  0
LINE
  8
0
 62
     0
 10
241.791
 20
66.1843
 30
0.0
 11
227.79
 21
66.1843
 31
0.0
  0
LINE
  8
0
 62
     0
 10
227.79
 20
66.1843
 30
0.0
 11
227.79
 21
80.1853
 31
0.0
  0
LINE
  8
0
 62
     0
 10
208.74
 20
80.1853
 30
0.0
 11
222.741
 21
80.1853
 31
0.0
  0
LINE
  8
0
 62
     0
 10
222.741
 20
80.1853
 30
0.0
 11
222.741
 21
66.1843
 31
0.0
  0
LINE
  8
0
 62
     0
 10
222.741
 20
66.1843
 30
0.0
 11
208.74
 21
66.1843
 31
0.0
  0
LINE
  8
0
 62
     0
 10
208.74
 20
66.1843
 30
0.0
 11
208.74
 21
80.1853
 31
0.0
  0
LINE
  8
0
 62
     0
 10
189.69
 20
80.1853
 30
0.0
 11
203.691
 21
80.1853
 31
0.0
  0
LINE
  8
0
 62
     0
 10
203.691
 20
80.1853
 30
0.0
 11
203.691
 21
66.1843
 31
0.0
  0
LINE
  8
0
 62
     0
 10
203.691
 20
66.1843
 30
0.0
 11
189.69
 21
66.1843
 31
0.0
  0
LINE
  8
0
 62
     0
 10
189.69
 20
66.1843
 30
0.0
 11
189.69
 21
80.1853
 31
0.0
  0
LINE
  8
0
 62
     0
 10
170.64
 20
80.1853
 30
0.0
 11
184.641
 21
80.1853
 31
0.0
  0
LINE
  8
0
 62
     0
 10
184.641
 20
80.1853
 30
0.0
 11
184.641
 21
66.1843
 31
0.0
  0
LINE
  8
0
 62
     0
 10
184.641
 20
66.1843
 30
0.0
 11
170.64
 21
66.1843
 31
0.0
  0
LINE
  8
0
 62
     0
 10
170.64
 20
66.1843
 30
0.0
 11
170.64
 21
80.1853
 31
0.0
  0
LINE
  8
0
 62
     0
 10
151.59
 20
80.1853
 30
0.0
 11
165.591
 21
80.1853
 31
0.0
  0
LINE
  8
0
 62
     0
 10
165.591
 20
80.1853
 30
0.0
 11
165.591
 21
66.1843
 31
0.0
  0
LINE
  8
0
 62
     0
 10
165.591
 20
66.1843
 30
0.0
 11
151.59
 21
66.1843
 31
0.0
  0
LINE
  8
0
 62
     0
 10
151.59
 20
66.1843
 30
0.0
 11
151.59
 21
80.1853
 31
0.0
  0
LINE
  8
0
 62
     0
 10
132.54
 20
80.1853
 30
0.0
 11
146.541
 21
80.1853
 31
0.0
  0
LINE
  8
0
 62
     0
 10
146.541
 20
80.1853
 30
0.0
 11
146.541
 21
66.1843
 31
0.0
  0
LINE
  8
0
 62
     0
 10
146.541
 20
66.1843
 30
0.0
 11
132.54
 21
66.1843
 31
0.0
  0
LINE
  8
0
 62
     0
 10
132.54
 20
66.1843
 30
0.0
 11
132.54
 21
80.1853
 31
0.0
  0
LINE
  8
0
 62
     0
 10
113.49
 20
80.1853
 30
0.0
 11
127.491
 21
80.1853
 31
0.0
  0
LINE
  8
0
 62
     0
 10
127.491
 20
80.1853
 30
0.0
 11
127.491
 21
66.1843
 31
0.0
  0
LINE
  8
0
 62
     0
 10
127.491
 20
66.1843
 30
0.0
 11
113.49
 21
66.1843
 31
0.0
  0
LINE
  8
0
 62
     0
 10
113.49
 20
66.1843
 30
0.0
 11
113.49
 21
80.1853
 31
0.0
  0
LINE
  8
0
 62
     0
 10
94.4397
 20
80.1853
 30
0.0
 11
108.441
 21
80.1853
 31
0.0
  0
LINE
  8
0
 62
     0
 10
108.441
 20
80.1853
 30
0.0
 11
108.441
 21
66.1843
 31
0.0
  0
LINE
  8
0
 62
     0
 10
108.441
 20
66.1843
 30
0.0
 11
94.4397
 21
66.1843
 31
0.0
  0
LINE
  8
0
 62
     0
 10
94.4397
 20
66.1843
 30
0.0
 11
94.4397
 21
80.1853
 31
0.0
  0
LINE
  8
0
 62
     0
 10
75.3897
 20
80.1853
 30
0.0
 11
89.3907
 21
80.1853
 31
0.0
  0
LINE
  8
0
 62
     0
 10
89.3907
 20
80.1853
 30
0.0
 11
89.3907
 21
66.1843
 31
0.0
  0
LINE
  8
0
 62
     0
 10
89.3907
 20
66.1843
 30
0.0
 11
75.3897
 21
66.1843
 31
0.0
  0
LINE
  8
0
 62
     0
 10
75.3897
 20
66.1843
 30
0.0
 11
75.3897
 21
80.1853
 31
0.0
  0
LINE
  8
0
 62
     0
 10
56.3397
 20
80.1853
 30
0.0
 11
70.3407
 21
80.1853
 31
0.0
  0
LINE
  8
0
 62
     0
 10
70.3407
 20
80.1853
 30
0.0
 11
70.3407
 21
66.1843
 31
0.0
  0
LINE
  8
0
 62
     0
 10
70.3407
 20
66.1843
 30
0.0
 11
56.3397
 21
66.1843
 31
0.0
  0
LINE
  8
0
 62
     0
 10
56.3397
 20
66.1843
 30
0.0
 11
56.3397
 21
80.1853
 31
0.0
  0
LINE
  8
0
 62
     0
 10
37.2897
 20
80.1853
 30
0.0
 11
51.2907
 21
80.1853
 31
0.0
  0
LINE
  8
0
 62
     0
 10
51.2907
 20
80.1853
 30
0.0
 11
51.2907
 21
66.1843
 31
0.0
  0
LINE
  8
0
 62
     0
 10
51.2907
 20
66.1843
 30
0.0
 11
37.2897
 21
66.1843
 31
0.0
  0
LINE
  8
0
 62
     0
 10
37.2897
 20
66.1843
 30
0.0
 11
37.2897
 21
80.1853
 31
0.0
  0
LINE
  8
0
 62
     0
 10
13.4772
 20
80.1853
 30
0.0
 11
27.4767
 21
80.1853
 31
0.0
  0
LINE
  8
0
 62
     0
 10
27.4767
 20
80.1853
 30
0.0
 11
27.4767
 21
66.1843
 31
0.0
  0
LINE
  8
0
 62
     0
 10
27.4767
 20
66.1843
 30
0.0
 11
13.4772
 21
66.1843
 31
0.0
  0
LINE
  8
0
 62
     0
 10
13.4772
 20
66.1843
 30
0.0
 11
13.4772
 21
80.1853
 31
0.0
  0
LINE
  8
0
 62
     0
 10
265.89
 20
99.2367
 30
0.0
 11
265.89
 21
94.5363
 31
0.0
  0
LINE
  8
0
 62
     0
 10
265.89
 20
94.5363
 30
0.0
 11
264.366
 21
94.5363
 31
0.0
  0
LINE
  8
0
 62
     0
 10
264.366
 20
94.5363
 30
0.0
 11
264.366
 21
97.7664
 31
0.0
  0
LINE
  8
0
 62
     0
 10
264.366
 20
97.7664
 30
0.0
 11
257.615
 21
97.7664
 31
0.0
  0
LINE
  8
0
 62
     0
 10
257.615
 20
97.7664
 30
0.0
 11
257.615
 21
94.5363
 31
0.0
  0
LINE
  8
0
 62
     0
 10
257.615
 20
94.5363
 30
0.0
 11
256.79
 21
94.5363
 31
0.0
  0
LINE
  8
0
 62
     0
 10
256.79
 20
94.5363
 30
0.0
 11
256.79
 21
91.7346
 31
0.0
  0
LINE
  8
0
 62
     0
 10
256.79
 20
91.7346
 30
0.0
 11
257.615
 21
91.7346
 31
0.0
  0
LINE
  8
0
 62
     0
 10
257.615
 20
91.7346
 30
0.0
 11
257.615
 21
85.4661
 31
0.0
  0
LINE
  8
0
 62
     0
 10
257.615
 20
85.4661
 30
0.0
 11
259.34
 21
85.4661
 31
0.0
  0
LINE
  8
0
 62
     0
 10
259.34
 20
85.4661
 30
0.0
 11
259.34
 21
84.2656
 31
0.0
  0
LINE
  8
0
 62
     0
 10
259.34
 20
84.2656
 30
0.0
 11
262.64
 21
84.2656
 31
0.0
  0
LINE
  8
0
 62
     0
 10
262.64
 20
84.2656
 30
0.0
 11
262.64
 21
85.4661
 31
0.0
  0
LINE
  8
0
 62
     0
 10
262.64
 20
85.4661
 30
0.0
 11
264.366
 21
85.4661
 31
0.0
  0
LINE
  8
0
 62
     0
 10
264.366
 20
85.4661
 30
0.0
 11
264.366
 21
89.9351
 31
0.0
  0
LINE
  8
0
 62
     0
 10
264.366
 20
89.9351
 30
0.0
 11
265.89
 21
89.9351
 31
0.0
  0
LINE
  8
0
 62
     0
 10
265.89
 20
89.9351
 30
0.0
 11
265.89
 21
85.2343
 31
0.0
  0
LINE
  8
0
 62
     0
 10
265.89
 20
85.2343
 30
0.0
 11
279.891
 21
85.2343
 31
0.0
  0
LINE
  8
0
 62
     0
 10
279.891
 20
85.2343
 30
0.0
 11
279.891
 21
89.9351
 31
0.0
  0
LINE
  8
0
 62
     0
 10
279.891
 20
89.9351
 30
0.0
 11
281.415
 21
89.9351
 31
0.0
  0
LINE
  8
0
 62
     0
 10
281.415
 20
89.9351
 30
0.0
 11
281.415
 21
85.4661
 31
0.0
  0
LINE
  8
0
 62
     0
 10
281.415
 20
85.4661
 30
0.0
 11
283.14
 21
85.4661
 31
0.0
  0
LINE
  8
0
 62
     0
 10
283.14
 20
85.4661
 30
0.0
 11
283.14
 21
84.2656
 31
0.0
  0
LINE
  8
0
 62
     0
 10
283.14
 20
84.2656
 30
0.0
 11
286.44
 21
84.2656
 31
0.0
  0
LINE
  8
0
 62
     0
 10
286.44
 20
84.2656
 30
0.0
 11
286.44
 21
85.4661
 31
0.0
  0
LINE
  8
0
 62
     0
 10
286.44
 20
85.4661
 30
0.0
 11
288.164
 21
85.4661
 31
0.0
  0
LINE
  8
0
 62
     0
 10
288.164
 20
85.4661
 30
0.0
 11
288.164
 21
91.7346
 31
0.0
  0
LINE
  8
0
 62
     0
 10
288.164
 20
91.7346
 30
0.0
 11
288.99
 21
91.7346
 31
0.0
  0
LINE
  8
0
 62
     0
 10
288.99
 20
91.7346
 30
0.0
 11
288.99
 21
94.5363
 31
0.0
  0
LINE
  8
0
 62
     0
 10
288.99
 20
94.5363
 30
0.0
 11
288.164
 21
94.5363
 31
0.0
  0
LINE
  8
0
 62
     0
 10
288.164
 20
94.5363
 30
0.0
 11
288.164
 21
97.7664
 31
0.0
  0
LINE
  8
0
 62
     0
 10
288.164
 20
97.7664
 30
0.0
 11
281.415
 21
97.7664
 31
0.0
  0
LINE
  8
0
 62
     0
 10
281.415
 20
97.7664
 30
0.0
 11
281.415
 21
94.5363
 31
0.0
  0
LINE
  8
0
 62
     0
 10
281.415
 20
94.5363
 30
0.0
 11
279.891
 21
94.5363
 31
0.0
  0
LINE
  8
0
 62
     0
 10
279.891
 20
94.5363
 30
0.0
 11
279.891
 21
99.2367
 31
0.0
  0
LINE
  8
0
 62
     0
 10
279.891
 20
99.2367
 30
0.0
 11
265.89
 21
99.2367
 31
0.0
  0
LINE
  8
0
 62
     0
 10
332.565
 20
99.2367
 30
0.0
 11
346.566
 21
99.2367
 31
0.0
  0
LINE
  8
0
 62
     0
 10
346.566
 20
99.2367
 30
0.0
 11
346.566
 21
85.2343
 31
0.0
  0
LINE
  8
0
 62
     0
 10
346.566
 20
85.2343
 30
0.0
 11
332.565
 21
85.2343
 31
0.0
  0
LINE
  8
0
 62
     0
 10
332.565
 20
85.2343
 30
0.0
 11
332.565
 21
99.2367
 31
0.0
  0
LINE
  8
0
 62
     0
 10
313.515
 20
99.2367
 30
0.0
 11
327.516
 21
99.2367
 31
0.0
  0
LINE
  8
0
 62
     0
 10
327.516
 20
99.2367
 30
0.0
 11
327.516
 21
85.2343
 31
0.0
  0
LINE
  8
0
 62
     0
 10
327.516
 20
85.2343
 30
0.0
 11
313.515
 21
85.2343
 31
0.0
  0
LINE
  8
0
 62
     0
 10
313.515
 20
85.2343
 30
0.0
 11
313.515
 21
99.2367
 31
0.0
  0
LINE
  8
0
 62
     0
 10
294.465
 20
99.2367
 30
0.0
 11
308.466
 21
99.2367
 31
0.0
  0
LINE
  8
0
 62
     0
 10
308.466
 20
99.2367
 30
0.0
 11
308.466
 21
85.2343
 31
0.0
  0
LINE
  8
0
 62
     0
 10
308.466
 20
85.2343
 30
0.0
 11
294.465
 21
85.2343
 31
0.0
  0
LINE
  8
0
 62
     0
 10
294.465
 20
85.2343
 30
0.0
 11
294.465
 21
99.2367
 31
0.0
  0
LINE
  8
0
 62
     0
 10
237.315
 20
99.2367
 30
0.0
 11
251.316
 21
99.2367
 31
0.0
  0
LINE
  8
0
 62
     0
 10
251.316
 20
99.2367
 30
0.0
 11
251.316
 21
85.2343
 31
0.0
  0
LINE
  8
0
 62
     0
 10
251.316
 20
85.2343
 30
0.0
 11
237.315
 21
85.2343
 31
0.0
  0
LINE
  8
0
 62
     0
 10
237.315
 20
85.2343
 30
0.0
 11
237.315
 21
99.2367
 31
0.0
  0
LINE
  8
0
 62
     0
 10
218.265
 20
99.2367
 30
0.0
 11
232.266
 21
99.2367
 31
0.0
  0
LINE
  8
0
 62
     0
 10
232.266
 20
99.2367
 30
0.0
 11
232.266
 21
85.2343
 31
0.0
  0
LINE
  8
0
 62
     0
 10
232.266
 20
85.2343
 30
0.0
 11
218.265
 21
85.2343
 31
0.0
  0
LINE
  8
0
 62
     0
 10
218.265
 20
85.2343
 30
0.0
 11
218.265
 21
99.2367
 31
0.0
  0
LINE
  8
0
 62
     0
 10
199.215
 20
99.2367
 30
0.0
 11
213.216
 21
99.2367
 31
0.0
  0
LINE
  8
0
 62
     0
 10
213.216
 20
99.2367
 30
0.0
 11
213.216
 21
85.2343
 31
0.0
  0
LINE
  8
0
 62
     0
 10
213.216
 20
85.2343
 30
0.0
 11
199.215
 21
85.2343
 31
0.0
  0
LINE
  8
0
 62
     0
 10
199.215
 20
85.2343
 30
0.0
 11
199.215
 21
99.2367
 31
0.0
  0
LINE
  8
0
 62
     0
 10
180.165
 20
99.2367
 30
0.0
 11
194.166
 21
99.2367
 31
0.0
  0
LINE
  8
0
 62
     0
 10
194.166
 20
99.2367
 30
0.0
 11
194.166
 21
85.2343
 31
0.0
  0
LINE
  8
0
 62
     0
 10
194.166
 20
85.2343
 30
0.0
 11
180.165
 21
85.2343
 31
0.0
  0
LINE
  8
0
 62
     0
 10
180.165
 20
85.2343
 30
0.0
 11
180.165
 21
99.2367
 31
0.0
  0
LINE
  8
0
 62
     0
 10
161.115
 20
99.2367
 30
0.0
 11
175.116
 21
99.2367
 31
0.0
  0
LINE
  8
0
 62
     0
 10
175.116
 20
99.2367
 30
0.0
 11
175.116
 21
85.2343
 31
0.0
  0
LINE
  8
0
 62
     0
 10
175.116
 20
85.2343
 30
0.0
 11
161.115
 21
85.2343
 31
0.0
  0
LINE
  8
0
 62
     0
 10
161.115
 20
85.2343
 30
0.0
 11
161.115
 21
99.2367
 31
0.0
  0
LINE
  8
0
 62
     0
 10
142.065
 20
99.2367
 30
0.0
 11
156.066
 21
99.2367
 31
0.0
  0
LINE
  8
0
 62
     0
 10
156.066
 20
99.2367
 30
0.0
 11
156.066
 21
85.2343
 31
0.0
  0
LINE
  8
0
 62
     0
 10
156.066
 20
85.2343
 30
0.0
 11
142.065
 21
85.2343
 31
0.0
  0
LINE
  8
0
 62
     0
 10
142.065
 20
85.2343
 30
0.0
 11
142.065
 21
99.2367
 31
0.0
  0
LINE
  8
0
 62
     0
 10
123.013
 20
99.2367
 30
0.0
 11
137.016
 21
99.2367
 31
0.0
  0
LINE
  8
0
 62
     0
 10
137.016
 20
99.2367
 30
0.0
 11
137.016
 21
85.2343
 31
0.0
  0
LINE
  8
0
 62
     0
 10
137.016
 20
85.2343
 30
0.0
 11
123.013
 21
85.2343
 31
0.0
  0
LINE
  8
0
 62
     0
 10
123.013
 20
85.2343
 30
0.0
 11
123.013
 21
99.2367
 31
0.0
  0
LINE
  8
0
 62
     0
 10
103.963
 20
99.2367
 30
0.0
 11
117.964
 21
99.2367
 31
0.0
  0
LINE
  8
0
 62
     0
 10
117.964
 20
99.2367
 30
0.0
 11
117.964
 21
85.2343
 31
0.0
  0
LINE
  8
0
 62
     0
 10
117.964
 20
85.2343
 30
0.0
 11
103.963
 21
85.2343
 31
0.0
  0
LINE
  8
0
 62
     0
 10
103.963
 20
85.2343
 30
0.0
 11
103.963
 21
99.2367
 31
0.0
  0
LINE
  8
0
 62
     0
 10
84.9147
 20
99.2367
 30
0.0
 11
98.9157
 21
99.2367
 31
0.0
  0
LINE
  8
0
 62
     0
 10
98.9157
 20
99.2367
 30
0.0
 11
98.9157
 21
85.2343
 31
0.0
  0
LINE
  8
0
 62
     0
 10
98.9157
 20
85.2343
 30
0.0
 11
84.9147
 21
85.2343
 31
0.0
  0
LINE
  8
0
 62
     0
 10
84.9147
 20
85.2343
 30
0.0
 11
84.9147
 21
99.2367
 31
0.0
  0
LINE
  8
0
 62
     0
 10
65.8647
 20
99.2367
 30
0.0
 11
79.8657
 21
99.2367
 31
0.0
  0
LINE
  8
0
 62
     0
 10
79.8657
 20
99.2367
 30
0.0
 11
79.8657
 21
85.2343
 31
0.0
  0
LINE
  8
0
 62
     0
 10
79.8657
 20
85.2343
 30
0.0
 11
65.8647
 21
85.2343
 31
0.0
  0
LINE
  8
0
 62
     0
 10
65.8647
 20
85.2343
 30
0.0
 11
65.8647
 21
99.2367
 31
0.0
  0
LINE
  8
0
 62
     0
 10
46.8147
 20
99.2367
 30
0.0
 11
60.8157
 21
99.2367
 31
0.0
  0
LINE
  8
0
 62
     0
 10
60.8157
 20
99.2367
 30
0.0
 11
60.8157
 21
85.2343
 31
0.0
  0
LINE
  8
0
 62
     0
 10
60.8157
 20
85.2343
 30
0.0
 11
46.8147
 21
85.2343
 31
0.0
  0
LINE
  8
0
 62
     0
 10
46.8147
 20
85.2343
 30
0.0
 11
46.8147
 21
99.2367
 31
0.0
  0
LINE
  8
0
 62
     0
 10
27.7647
 20
99.2367
 30
0.0
 11
41.7657
 21
99.2367
 31
0.0
  0
LINE
  8
0
 62
     0
 10
41.7657
 20
99.2367
 30
0.0
 11
41.7657
 21
85.2343
 31
0.0
  0
LINE
  8
0
 62
     0
 10
41.7657
 20
85.2343
 30
0.0
 11
27.7647
 21
85.2343
 31
0.0
  0
LINE
  8
0
 62
     0
 10
27.7647
 20
85.2343
 30
0.0
 11
27.7647
 21
99.2367
 31
0.0
  0
LINE
  8
0
 62
     0
 10
8.71333
 20
99.2367
 30
0.0
 11
22.7156
 21
99.2367
 31
0.0
  0
LINE
  8
0
 62
     0
 10
22.7156
 20
99.2367
 30
0.0
 11
22.7156
 21
85.2343
 31
0.0
  0
LINE
  8
0
 62
     0
 10
22.7156
 20
85.2343
 30
0.0
 11
8.71333
 21
85.2343
 31
0.0
  0
LINE
  8
0
 62
     0
 10
8.71333
 20
85.2343
 30
0.0
 11
8.71333
 21
99.2367
 31
0.0
  0
ENDSEC
  0
EOF
