<?xml version="1.0"?>
<!-- Generated by SVGo -->
<svg width="364.902mm" height="117.252mm"
     viewBox="0.000 0.000 364.902 117.252"
     xmlns="http://www.w3.org/2000/svg" 
     xmlns:xlink="http://www.w3.org/1999/xlink">
<polygon points="349.902,5.001 350.686,5.031 351.466,5.124 352.236,5.277 352.992,5.490 353.728,5.762 354.441,6.090 355.126,6.474 355.779,6.910 356.396,7.396 356.973,7.929 357.506,8.506 357.992,9.123 358.428,9.776 358.812,10.461 359.140,11.174 359.412,11.910 359.625,12.666 359.778,13.436 359.871,14.216 359.902,15.001 359.902,102.251 359.871,103.036 359.778,103.816 359.625,104.586 359.412,105.342 359.140,106.078 358.812,106.791 358.428,107.476 357.992,108.129 357.506,108.746 356.973,109.323 356.396,109.856 355.779,110.342 355.126,110.778 354.441,111.162 353.728,111.490 352.992,111.762 352.236,111.975 351.466,112.128 350.686,112.221 349.902,112.252 15.001,112.251 14.216,112.221 13.436,112.128 12.666,111.975 11.910,111.762 11.174,111.490 10.461,111.162 9.776,110.778 9.123,110.342 8.506,109.856 7.929,109.323 7.396,108.746 6.910,108.129 6.474,107.476 6.090,106.791 5.762,106.078 5.490,105.342 5.277,104.586 5.124,103.816 5.031,103.036 5.000,102.251 5.001,15.001 5.031,14.216 5.124,13.436 5.277,12.666 5.490,11.910 5.762,11.174 6.090,10.461 6.474,9.776 6.910,9.123 7.396,8.506 7.929,7.929 8.506,7.396 9.123,6.910 9.776,6.474 10.461,6.090 11.174,5.762 11.910,5.490 12.666,5.277 13.436,5.124 14.216,5.031 15.001,5.000" style="fill:none;stroke-width:0.100000mm;stroke:black"/>
<polygon points="134.969,89.726 134.969,94.426 95.344,94.426 95.344,91.196 88.594,91.196 88.594,94.426 87.769,94.426 87.769,97.226 88.594,97.226 88.594,103.495 90.319,103.495 90.319,104.696 93.619,104.696 93.619,103.495 95.344,103.495 95.344,99.025 134.969,99.025 134.969,103.726 148.969,103.726 148.969,99.025 188.594,99.025 188.594,103.495 190.319,103.495 190.319,104.696 193.619,104.696 193.619,103.495 195.344,103.495 195.344,97.226 196.169,97.226 196.169,94.426 195.344,94.426 195.344,91.196 188.594,91.196 188.594,94.426 148.969,94.426 148.969,89.726" style="fill:none;stroke-width:0.100000mm;stroke:black"/>
<polygon points="337.376,89.726 337.376,103.726 351.376,103.726 351.376,89.726" style="fill:none;stroke-width:0.100000mm;stroke:black"/>
<polygon points="318.326,89.726 318.326,103.726 332.326,103.726 332.326,89.726" style="fill:none;stroke-width:0.100000mm;stroke:black"/>
<polygon points="299.276,89.726 299.276,103.726 313.276,103.726 313.276,89.726" style="fill:none;stroke-width:0.100000mm;stroke:black"/>
<polygon points="277.844,89.726 277.844,103.726 291.844,103.726 291.844,89.726" style="fill:none;stroke-width:0.100000mm;stroke:black"/>
<polygon points="254.032,89.726 254.032,103.726 268.032,103.726 268.032,89.726" style="fill:none;stroke-width:0.100000mm;stroke:black"/>
<polygon points="230.219,89.726 230.219,103.726 244.219,103.726 244.219,89.726" style="fill:none;stroke-width:0.100000mm;stroke:black"/>
<polygon points="206.407,89.726 206.407,103.726 220.407,103.726 220.407,89.726" style="fill:none;stroke-width:0.100000mm;stroke:black"/>
<polygon points="63.532,89.726 63.532,103.726 77.532,103.726 77.532,89.726" style="fill:none;stroke-width:0.100000mm;stroke:black"/>
<polygon points="39.719,89.726 39.719,103.726 53.719,103.726 53.719,89.726" style="fill:none;stroke-width:0.100000mm;stroke:black"/>
<polygon points="15.907,89.726 15.907,103.726 29.907,103.726 29.907,89.726" style="fill:none;stroke-width:0.100000mm;stroke:black"/>
<polygon points="263.557,70.676 263.557,75.376 262.032,75.376 262.032,72.146 255.282,72.146 255.282,75.376 254.457,75.376 254.457,78.176 255.282,78.176 255.282,84.446 257.006,84.446 257.006,85.646 260.306,85.646 260.306,84.446 262.032,84.446 262.032,79.976 263.557,79.976 263.557,84.676 277.557,84.676 277.557,79.976 279.082,79.976 279.082,84.446 280.807,84.446 280.807,85.646 284.107,85.646 284.107,84.446 285.832,84.446 285.832,78.176 286.657,78.176 286.657,75.376 285.832,75.376 285.832,72.146 279.082,72.146 279.082,75.376 277.557,75.376 277.557,70.676" style="fill:none;stroke-width:0.100000mm;stroke:black"/>
<polygon points="25.432,70.676 25.432,75.376 23.907,75.376 23.907,72.146 17.157,72.146 17.157,75.376 16.332,75.376 16.332,78.176 17.157,78.176 17.157,84.446 18.882,84.446 18.882,85.646 22.182,85.646 22.182,84.446 23.907,84.446 23.907,79.976 25.432,79.976 25.432,84.676 39.432,84.676 39.432,79.976 40.957,79.976 40.957,84.446 42.682,84.446 42.682,85.646 45.982,85.646 45.982,84.446 47.707,84.446 47.707,78.176 48.532,78.176 48.532,75.376 47.707,75.376 47.707,72.146 40.957,72.146 40.957,75.376 39.432,75.376 39.432,70.676" style="fill:none;stroke-width:0.100000mm;stroke:black"/>
<polygon points="337.376,70.676 337.376,84.676 351.376,84.676 351.376,70.676" style="fill:none;stroke-width:0.100000mm;stroke:black"/>
<polygon points="318.326,70.676 318.326,84.676 332.326,84.676 332.326,70.676" style="fill:none;stroke-width:0.100000mm;stroke:black"/>
<polygon points="299.276,70.676 299.276,84.676 313.276,84.676 313.276,70.676" style="fill:none;stroke-width:0.100000mm;stroke:black"/>
<polygon points="227.838,70.676 227.838,84.676 241.838,84.676 241.838,70.676" style="fill:none;stroke-width:0.100000mm;stroke:black"/>
<polygon points="208.788,70.676 208.788,84.676 222.788,84.676 222.788,70.676" style="fill:none;stroke-width:0.100000mm;stroke:black"/>
<polygon points="189.738,70.676 189.738,84.676 203.738,84.676 203.738,70.676" style="fill:none;stroke-width:0.100000mm;stroke:black"/>
<polygon points="170.688,70.676 170.688,84.676 184.688,84.676 184.688,70.676" style="fill:none;stroke-width:0.100000mm;stroke:black"/>
<polygon points="151.638,70.676 151.638,84.676 165.638,84.676 165.638,70.676" style="fill:none;stroke-width:0.100000mm;stroke:black"/>
<polygon points="132.588,70.676 132.588,84.676 146.588,84.676 146.588,70.676" style="fill:none;stroke-width:0.100000mm;stroke:black"/>
<polygon points="113.538,70.676 113.538,84.676 127.538,84.676 127.538,70.676" style="fill:none;stroke-width:0.100000mm;stroke:black"/>
<polygon points="94.488,70.676 94.488,84.676 108.488,84.676 108.488,70.676" style="fill:none;stroke-width:0.100000mm;stroke:black"/>
<polygon points="75.438,70.676 75.438,84.676 89.438,84.676 89.438,70.676" style="fill:none;stroke-width:0.100000mm;stroke:black"/>
<polygon points="56.388,70.676 56.388,84.676 70.388,84.676 70.388,70.676" style="fill:none;stroke-width:0.100000mm;stroke:black"/>
<polygon points="268.319,51.626 268.319,56.326 266.794,56.326 266.794,53.096 260.044,53.096 260.044,56.326 259.219,56.326 259.219,59.126 260.044,59.126 260.044,65.395 261.768,65.395 261.768,66.596 265.069,66.596 265.069,65.395 266.794,65.395 266.794,60.926 268.319,60.926 268.319,65.626 282.319,65.626 282.319,60.926 283.844,60.926 283.844,65.395 285.569,65.395 285.569,66.596 288.869,66.596 288.869,65.395 290.594,65.395 290.594,59.126 291.419,59.126 291.419,56.326 290.594,56.326 290.594,53.096 283.844,53.096 283.844,56.326 282.319,56.326 282.319,51.626" style="fill:none;stroke-width:0.100000mm;stroke:black"/>
<polygon points="337.376,51.626 337.376,65.626 351.376,65.626 351.376,51.626" style="fill:none;stroke-width:0.100000mm;stroke:black"/>
<polygon points="318.326,51.626 318.326,65.626 332.326,65.626 332.326,51.626" style="fill:none;stroke-width:0.100000mm;stroke:black"/>
<polygon points="299.276,51.626 299.276,65.626 313.276,65.626 313.276,51.626" style="fill:none;stroke-width:0.100000mm;stroke:black"/>
<polygon points="237.363,51.626 237.363,65.626 251.363,65.626 251.363,51.626" style="fill:none;stroke-width:0.100000mm;stroke:black"/>
<polygon points="218.313,51.626 218.313,65.626 232.313,65.626 232.313,51.626" style="fill:none;stroke-width:0.100000mm;stroke:black"/>
<polygon points="199.263,51.626 199.263,65.626 213.263,65.626 213.263,51.626" style="fill:none;stroke-width:0.100000mm;stroke:black"/>
<polygon points="180.213,51.626 180.213,65.626 194.213,65.626 194.213,51.626" style="fill:none;stroke-width:0.100000mm;stroke:black"/>
<polygon points="161.163,51.626 161.163,65.626 175.163,65.626 175.163,51.626" style="fill:none;stroke-width:0.100000mm;stroke:black"/>
<polygon points="142.113,51.626 142.113,65.626 156.113,65.626 156.113,51.626" style="fill:none;stroke-width:0.100000mm;stroke:black"/>
<polygon points="123.063,51.626 123.063,65.626 137.063,65.626 137.063,51.626" style="fill:none;stroke-width:0.100000mm;stroke:black"/>
<polygon points="104.013,51.626 104.013,65.626 118.013,65.626 118.013,51.626" style="fill:none;stroke-width:0.100000mm;stroke:black"/>
<polygon points="84.963,51.626 84.963,65.626 98.963,65.626 98.963,51.626" style="fill:none;stroke-width:0.100000mm;stroke:black"/>
<polygon points="65.913,51.626 65.913,65.626 79.913,65.626 79.913,51.626" style="fill:none;stroke-width:0.100000mm;stroke:black"/>
<polygon points="46.863,51.626 46.863,65.626 60.863,65.626 60.863,51.626" style="fill:none;stroke-width:0.100000mm;stroke:black"/>
<polygon points="20.669,51.626 20.669,65.626 34.669,65.626 34.669,51.626" style="fill:none;stroke-width:0.100000mm;stroke:black"/>
<polygon points="337.376,32.576 337.376,46.576 351.376,46.576 351.376,32.576" style="fill:none;stroke-width:0.100000mm;stroke:black"/>
<polygon points="318.326,32.576 318.326,46.576 332.326,46.576 332.326,32.576" style="fill:none;stroke-width:0.100000mm;stroke:black"/>
<polygon points="299.276,32.576 299.276,46.576 313.276,46.576 313.276,32.576" style="fill:none;stroke-width:0.100000mm;stroke:black"/>
<polygon points="275.463,32.576 275.463,46.576 289.463,46.576 289.463,32.576" style="fill:none;stroke-width:0.100000mm;stroke:black"/>
<polygon points="251.651,32.576 251.651,46.576 265.651,46.576 265.651,32.576" style="fill:none;stroke-width:0.100000mm;stroke:black"/>
<polygon points="232.601,32.576 232.601,46.576 246.601,46.576 246.601,32.576" style="fill:none;stroke-width:0.100000mm;stroke:black"/>
<polygon points="213.551,32.576 213.551,46.576 227.551,46.576 227.551,32.576" style="fill:none;stroke-width:0.100000mm;stroke:black"/>
<polygon points="194.501,32.576 194.501,46.576 208.501,46.576 208.501,32.576" style="fill:none;stroke-width:0.100000mm;stroke:black"/>
<polygon points="175.451,32.576 175.451,46.576 189.451,46.576 189.451,32.576" style="fill:none;stroke-width:0.100000mm;stroke:black"/>
<polygon points="156.401,32.576 156.401,46.576 170.401,46.576 170.401,32.576" style="fill:none;stroke-width:0.100000mm;stroke:black"/>
<polygon points="137.351,32.576 137.351,46.576 151.351,46.576 151.351,32.576" style="fill:none;stroke-width:0.100000mm;stroke:black"/>
<polygon points="118.301,32.576 118.301,46.576 132.301,46.576 132.301,32.576" style="fill:none;stroke-width:0.100000mm;stroke:black"/>
<polygon points="99.251,32.576 99.251,46.576 113.251,46.576 113.251,32.576" style="fill:none;stroke-width:0.100000mm;stroke:black"/>
<polygon points="80.201,32.576 80.201,46.576 94.201,46.576 94.201,32.576" style="fill:none;stroke-width:0.100000mm;stroke:black"/>
<polygon points="61.151,32.576 61.151,46.576 75.151,46.576 75.151,32.576" style="fill:none;stroke-width:0.100000mm;stroke:black"/>
<polygon points="42.101,32.576 42.101,46.576 56.101,46.576 56.101,32.576" style="fill:none;stroke-width:0.100000mm;stroke:black"/>
<polygon points="18.288,32.576 18.288,46.576 32.288,46.576 32.288,32.576" style="fill:none;stroke-width:0.100000mm;stroke:black"/>
<polygon points="270.701,13.525 270.701,18.225 269.176,18.225 269.176,14.995 262.426,14.995 262.426,18.225 261.601,18.225 261.601,21.026 262.426,21.026 262.426,27.295 264.151,27.295 264.151,28.495 267.451,28.495 267.451,27.295 269.176,27.295 269.176,22.826 270.701,22.826 270.701,27.526 284.701,27.526 284.701,22.826 286.226,22.826 286.226,27.295 287.951,27.295 287.951,28.495 291.251,28.495 291.251,27.295 292.976,27.295 292.976,21.026 293.801,21.026 293.801,18.225 292.976,18.225 292.976,14.995 286.226,14.995 286.226,18.225 284.701,18.225 284.701,13.525" style="fill:none;stroke-width:0.100000mm;stroke:black"/>
<polygon points="337.376,13.525 337.376,27.526 351.376,27.526 351.376,13.525" style="fill:none;stroke-width:0.100000mm;stroke:black"/>
<polygon points="318.326,13.525 318.326,27.526 332.326,27.526 332.326,13.525" style="fill:none;stroke-width:0.100000mm;stroke:black"/>
<polygon points="299.276,13.525 299.276,27.526 313.276,27.526 313.276,13.525" style="fill:none;stroke-width:0.100000mm;stroke:black"/>
<polygon points="242.126,13.525 242.126,27.526 256.126,27.526 256.126,13.525" style="fill:none;stroke-width:0.100000mm;stroke:black"/>
<polygon points="223.076,13.525 223.076,27.526 237.076,27.526 237.076,13.525" style="fill:none;stroke-width:0.100000mm;stroke:black"/>
<polygon points="204.026,13.525 204.026,27.526 218.026,27.526 218.026,13.525" style="fill:none;stroke-width:0.100000mm;stroke:black"/>
<polygon points="184.976,13.525 184.976,27.526 198.976,27.526 198.976,13.525" style="fill:none;stroke-width:0.100000mm;stroke:black"/>
<polygon points="165.926,13.525 165.926,27.526 179.926,27.526 179.926,13.525" style="fill:none;stroke-width:0.100000mm;stroke:black"/>
<polygon points="146.876,13.525 146.876,27.526 160.876,27.526 160.876,13.525" style="fill:none;stroke-width:0.100000mm;stroke:black"/>
<polygon points="127.825,13.525 127.825,27.526 141.826,27.526 141.826,13.525" style="fill:none;stroke-width:0.100000mm;stroke:black"/>
<polygon points="108.775,13.525 108.775,27.526 122.775,27.526 122.775,13.525" style="fill:none;stroke-width:0.100000mm;stroke:black"/>
<polygon points="89.726,13.525 89.726,27.526 103.726,27.526 103.726,13.525" style="fill:none;stroke-width:0.100000mm;stroke:black"/>
<polygon points="70.676,13.525 70.676,27.526 84.676,27.526 84.676,13.525" style="fill:none;stroke-width:0.100000mm;stroke:black"/>
<polygon points="51.626,13.525 51.626,27.526 65.626,27.526 65.626,13.525" style="fill:none;stroke-width:0.100000mm;stroke:black"/>
<polygon points="32.576,13.525 32.576,27.526 46.576,27.526 46.576,13.525" style="fill:none;stroke-width:0.100000mm;stroke:black"/>
<polygon points="13.525,13.525 13.525,27.526 27.526,27.526 27.526,13.525" style="fill:none;stroke-width:0.100000mm;stroke:black"/>
</svg>
