  0
SECTION
  2
HEADER
  9
$ACADVER
  1
AC1009
  9
$EXTMIN
 10
0.0
 20
0.0
 30
0.0
  9
$EXTMAX
 10
1000.0
 20
1000.0
 30
0.0
  9
$FILLMODE
 70
 0
  9
$SPLFRAME
 70
 1
  0
ENDSEC
  0
SECTION
  2
TABLES
  0
TABLE
  2
LAYER
 70
1
  0
LAYER
  2
0
 70
     0
 62
     7
  6
CONTINUOUS
  0
ENDTAB
  0
ENDSEC
  0
SECTION
  2
ENTITIES
  0
LINE
  8
0
 62
     0
 10
343.997
 20
109.619
 30
0.0
 11
345.015
 21
109.579
 31
0.0
  0
LINE
  8
0
 62
     0
 10
345.015
 20
109.579
 30
0.0
 11
346.029
 21
109.459
 31
0.0
  0
LINE
  8
0
 62
     0
 10
346.029
 20
109.459
 30
0.0
 11
347.03
 21
109.259
 31
0.0
  0
LINE
  8
0
 62
     0
 10
347.03
 20
109.259
 30
0.0
 11
348.014
 21
108.982
 31
0.0
  0
LINE
  8
0
 62
     0
 10
348.014
 20
108.982
 30
0.0
 11
348.97
 21
108.629
 31
0.0
  0
LINE
  8
0
 62
     0
 10
348.97
 20
108.629
 30
0.0
 11
349.898
 21
108.202
 31
0.0
  0
LINE
  8
0
 62
     0
 10
349.898
 20
108.202
 30
0.0
 11
350.788
 21
107.703
 31
0.0
  0
LINE
  8
0
 62
     0
 10
350.788
 20
107.703
 30
0.0
 11
351.638
 21
107.137
 31
0.0
  0
LINE
  8
0
 62
     0
 10
351.638
 20
107.137
 30
0.0
 11
352.439
 21
106.504
 31
0.0
  0
LINE
  8
0
 62
     0
 10
352.439
 20
106.504
 30
0.0
 11
353.187
 21
105.811
 31
0.0
  0
LINE
  8
0
 62
     0
 10
353.187
 20
105.811
 30
0.0
 11
353.882
 21
105.062
 31
0.0
  0
LINE
  8
0
 62
     0
 10
353.882
 20
105.062
 30
0.0
 11
354.513
 21
104.261
 31
0.0
  0
LINE
  8
0
 62
     0
 10
354.513
 20
104.261
 30
0.0
 11
355.081
 21
103.411
 31
0.0
  0
LINE
  8
0
 62
     0
 10
355.081
 20
103.411
 30
0.0
 11
355.579
 21
102.52
 31
0.0
  0
LINE
  8
0
 62
     0
 10
355.579
 20
102.52
 30
0.0
 11
356.006
 21
101.593
 31
0.0
  0
LINE
  8
0
 62
     0
 10
356.006
 20
101.593
 30
0.0
 11
356.358
 21
100.637
 31
0.0
  0
LINE
  8
0
 62
     0
 10
356.358
 20
100.637
 30
0.0
 11
356.637
 21
99.6527
 31
0.0
  0
LINE
  8
0
 62
     0
 10
356.637
 20
99.6527
 30
0.0
 11
356.835
 21
98.6525
 31
0.0
  0
LINE
  8
0
 62
     0
 10
356.835
 20
98.6525
 30
0.0
 11
356.955
 21
97.6383
 31
0.0
  0
LINE
  8
0
 62
     0
 10
356.955
 20
97.6383
 30
0.0
 11
356.997
 21
96.6184
 31
0.0
  0
LINE
  8
0
 62
     0
 10
356.997
 20
96.6184
 30
0.0
 11
356.997
 21
13.3683
 31
0.0
  0
LINE
  8
0
 62
     0
 10
356.997
 20
13.3683
 30
0.0
 11
356.955
 21
12.3486
 31
0.0
  0
LINE
  8
0
 62
     0
 10
356.955
 20
12.3486
 30
0.0
 11
356.835
 21
11.3344
 31
0.0
  0
LINE
  8
0
 62
     0
 10
356.835
 20
11.3344
 30
0.0
 11
356.637
 21
10.3339
 31
0.0
  0
LINE
  8
0
 62
     0
 10
356.637
 20
10.3339
 30
0.0
 11
356.358
 21
9.34999
 31
0.0
  0
LINE
  8
0
 62
     0
 10
356.358
 20
9.34999
 30
0.0
 11
356.006
 21
8.39364
 31
0.0
  0
LINE
  8
0
 62
     0
 10
356.006
 20
8.39364
 30
0.0
 11
355.579
 21
7.46622
 31
0.0
  0
LINE
  8
0
 62
     0
 10
355.579
 20
7.46622
 30
0.0
 11
355.081
 21
6.57599
 31
0.0
  0
LINE
  8
0
 62
     0
 10
355.081
 20
6.57599
 30
0.0
 11
354.513
 21
5.72576
 31
0.0
  0
LINE
  8
0
 62
     0
 10
354.513
 20
5.72576
 30
0.0
 11
353.882
 21
4.9251
 31
0.0
  0
LINE
  8
0
 62
     0
 10
353.882
 20
4.9251
 30
0.0
 11
353.187
 21
4.17544
 31
0.0
  0
LINE
  8
0
 62
     0
 10
353.187
 20
4.17544
 30
0.0
 11
352.439
 21
3.4823
 31
0.0
  0
LINE
  8
0
 62
     0
 10
352.439
 20
3.4823
 30
0.0
 11
351.638
 21
2.84978
 31
0.0
  0
LINE
  8
0
 62
     0
 10
351.638
 20
2.84978
 30
0.0
 11
350.788
 21
2.28341
 31
0.0
  0
LINE
  8
0
 62
     0
 10
350.788
 20
2.28341
 30
0.0
 11
349.898
 21
1.78456
 31
0.0
  0
LINE
  8
0
 62
     0
 10
349.898
 20
1.78456
 30
0.0
 11
348.97
 21
1.35737
 31
0.0
  0
LINE
  8
0
 62
     0
 10
348.97
 20
1.35737
 30
0.0
 11
348.014
 21
1.00459
 31
0.0
  0
LINE
  8
0
 62
     0
 10
348.014
 20
1.00459
 30
0.0
 11
347.03
 21
0.727604
 31
0.0
  0
LINE
  8
0
 62
     0
 10
347.03
 20
0.727604
 30
0.0
 11
346.029
 21
0.527787
 31
0.0
  0
LINE
  8
0
 62
     0
 10
346.029
 20
0.527787
 30
0.0
 11
345.015
 21
0.407899
 31
0.0
  0
LINE
  8
0
 62
     0
 10
345.015
 20
0.407899
 30
0.0
 11
343.997
 21
0.367937
 31
0.0
  0
LINE
  8
0
 62
     0
 10
343.997
 20
0.367937
 30
0.0
 11
13.0955
 21
0.367937
 31
0.0
  0
LINE
  8
0
 62
     0
 10
13.0955
 20
0.367937
 30
0.0
 11
12.0758
 21
0.407899
 31
0.0
  0
LINE
  8
0
 62
     0
 10
12.0758
 20
0.407899
 30
0.0
 11
11.0615
 21
0.527787
 31
0.0
  0
LINE
  8
0
 62
     0
 10
11.0615
 20
0.527787
 30
0.0
 11
10.061
 21
0.727604
 31
0.0
  0
LINE
  8
0
 62
     0
 10
10.061
 20
0.727604
 30
0.0
 11
9.07715
 21
1.00459
 31
0.0
  0
LINE
  8
0
 62
     0
 10
9.07715
 20
1.00459
 30
0.0
 11
8.12077
 21
1.35737
 31
0.0
  0
LINE
  8
0
 62
     0
 10
8.12077
 20
1.35737
 30
0.0
 11
7.19335
 21
1.78456
 31
0.0
  0
LINE
  8
0
 62
     0
 10
7.19335
 20
1.78456
 30
0.0
 11
6.30315
 21
2.28341
 31
0.0
  0
LINE
  8
0
 62
     0
 10
6.30315
 20
2.28341
 30
0.0
 11
5.45289
 21
2.84978
 31
0.0
  0
LINE
  8
0
 62
     0
 10
5.45289
 20
2.84978
 30
0.0
 11
4.65226
 21
3.4823
 31
0.0
  0
LINE
  8
0
 62
     0
 10
4.65226
 20
3.4823
 30
0.0
 11
3.9026
 21
4.17544
 31
0.0
  0
LINE
  8
0
 62
     0
 10
3.9026
 20
4.17544
 30
0.0
 11
3.20945
 21
4.9251
 31
0.0
  0
LINE
  8
0
 62
     0
 10
3.20945
 20
4.9251
 30
0.0
 11
2.57693
 21
5.72576
 31
0.0
  0
LINE
  8
0
 62
     0
 10
2.57693
 20
5.72576
 30
0.0
 11
2.01056
 21
6.57599
 31
0.0
  0
LINE
  8
0
 62
     0
 10
2.01056
 20
6.57599
 30
0.0
 11
1.51171
 21
7.46622
 31
0.0
  0
LINE
  8
0
 62
     0
 10
1.51171
 20
7.46622
 30
0.0
 11
1.08452
 21
8.39364
 31
0.0
  0
LINE
  8
0
 62
     0
 10
1.08452
 20
8.39364
 30
0.0
 11
0.731739
 21
9.34999
 31
0.0
  0
LINE
  8
0
 62
     0
 10
0.731739
 20
9.34999
 30
0.0
 11
0.454752
 21
10.3339
 31
0.0
  0
LINE
  8
0
 62
     0
 10
0.454752
 20
10.3339
 30
0.0
 11
0.254937
 21
11.3344
 31
0.0
  0
LINE
  8
0
 62
     0
 10
0.254937
 20
11.3344
 30
0.0
 11
0.135048
 21
12.3486
 31
0.0
  0
LINE
  8
0
 62
     0
 10
0.135048
 20
12.3486
 30
0.0
 11
0.0950846
 21
13.3683
 31
0.0
  0
LINE
  8
0
 62
     0
 10
0.0950846
 20
13.3683
 30
0.0
 11
0.0950846
 21
96.6184
 31
0.0
  0
LINE
  8
0
 62
     0
 10
0.0950846
 20
96.6184
 30
0.0
 11
0.135048
 21
97.6383
 31
0.0
  0
LINE
  8
0
 62
     0
 10
0.135048
 20
97.6383
 30
0.0
 11
0.254937
 21
98.6525
 31
0.0
  0
LINE
  8
0
 62
     0
 10
0.254937
 20
98.6525
 30
0.0
 11
0.454752
 21
99.6527
 31
0.0
  0
LINE
  8
0
 62
     0
 10
0.454752
 20
99.6527
 30
0.0
 11
0.731739
 21
100.637
 31
0.0
  0
LINE
  8
0
 62
     0
 10
0.731739
 20
100.637
 30
0.0
 11
1.08452
 21
101.593
 31
0.0
  0
LINE
  8
0
 62
     0
 10
1.08452
 20
101.593
 30
0.0
 11
1.51171
 21
102.52
 31
0.0
  0
LINE
  8
0
 62
     0
 10
1.51171
 20
102.52
 30
0.0
 11
2.01056
 21
103.411
 31
0.0
  0
LINE
  8
0
 62
     0
 10
2.01056
 20
103.411
 30
0.0
 11
2.57693
 21
104.261
 31
0.0
  0
LINE
  8
0
 62
     0
 10
2.57693
 20
104.261
 30
0.0
 11
3.20945
 21
105.062
 31
0.0
  0
LINE
  8
0
 62
     0
 10
3.20945
 20
105.062
 30
0.0
 11
3.9026
 21
105.811
 31
0.0
  0
LINE
  8
0
 62
     0
 10
3.9026
 20
105.811
 30
0.0
 11
4.65226
 21
106.504
 31
0.0
  0
LINE
  8
0
 62
     0
 10
4.65226
 20
106.504
 30
0.0
 11
5.45289
 21
107.137
 31
0.0
  0
LINE
  8
0
 62
     0
 10
5.45289
 20
107.137
 30
0.0
 11
6.30315
 21
107.703
 31
0.0
  0
LINE
  8
0
 62
     0
 10
6.30315
 20
107.703
 30
0.0
 11
7.19335
 21
108.202
 31
0.0
  0
LINE
  8
0
 62
     0
 10
7.19335
 20
108.202
 30
0.0
 11
8.12077
 21
108.629
 31
0.0
  0
LINE
  8
0
 62
     0
 10
8.12077
 20
108.629
 30
0.0
 11
9.07715
 21
108.982
 31
0.0
  0
LINE
  8
0
 62
     0
 10
9.07715
 20
108.982
 30
0.0
 11
10.061
 21
109.259
 31
0.0
  0
LINE
  8
0
 62
     0
 10
10.061
 20
109.259
 30
0.0
 11
11.0615
 21
109.459
 31
0.0
  0
LINE
  8
0
 62
     0
 10
11.0615
 20
109.459
 30
0.0
 11
12.0758
 21
109.579
 31
0.0
  0
LINE
  8
0
 62
     0
 10
12.0758
 20
109.579
 30
0.0
 11
13.0955
 21
109.619
 31
0.0
  0
LINE
  8
0
 62
     0
 10
13.0955
 20
109.619
 30
0.0
 11
343.997
 21
109.619
 31
0.0
  0
LINE
  8
0
 62
     0
 10
131.064
 20
23.8938
 30
0.0
 11
131.064
 21
22.8933
 31
0.0
  0
LINE
  8
0
 62
     0
 10
131.064
 20
22.8933
 30
0.0
 11
130.263
 21
22.8933
 31
0.0
  0
LINE
  8
0
 62
     0
 10
130.263
 20
22.8933
 30
0.0
 11
130.263
 21
19.7942
 31
0.0
  0
LINE
  8
0
 62
     0
 10
130.263
 20
19.7942
 30
0.0
 11
131.064
 21
19.7942
 31
0.0
  0
LINE
  8
0
 62
     0
 10
131.064
 20
19.7942
 30
0.0
 11
131.064
 21
19.1933
 31
0.0
  0
LINE
  8
0
 62
     0
 10
131.064
 20
19.1933
 30
0.0
 11
91.4382
 21
19.1933
 31
0.0
  0
LINE
  8
0
 62
     0
 10
91.4382
 20
19.1933
 30
0.0
 11
91.4382
 21
22.4234
 31
0.0
  0
LINE
  8
0
 62
     0
 10
91.4382
 20
22.4234
 30
0.0
 11
84.6889
 21
22.4234
 31
0.0
  0
LINE
  8
0
 62
     0
 10
84.6889
 20
22.4234
 30
0.0
 11
84.6889
 21
19.1933
 31
0.0
  0
LINE
  8
0
 62
     0
 10
84.6889
 20
19.1933
 30
0.0
 11
83.8634
 21
19.1933
 31
0.0
  0
LINE
  8
0
 62
     0
 10
83.8634
 20
19.1933
 30
0.0
 11
83.8634
 21
16.3932
 31
0.0
  0
LINE
  8
0
 62
     0
 10
83.8634
 20
16.3932
 30
0.0
 11
84.6889
 21
16.3932
 31
0.0
  0
LINE
  8
0
 62
     0
 10
84.6889
 20
16.3932
 30
0.0
 11
84.6889
 21
10.1244
 31
0.0
  0
LINE
  8
0
 62
     0
 10
84.6889
 20
10.1244
 30
0.0
 11
86.414
 21
10.1244
 31
0.0
  0
LINE
  8
0
 62
     0
 10
86.414
 20
10.1244
 30
0.0
 11
86.414
 21
8.92281
 31
0.0
  0
LINE
  8
0
 62
     0
 10
86.414
 20
8.92281
 30
0.0
 11
89.7132
 21
8.92281
 31
0.0
  0
LINE
  8
0
 62
     0
 10
89.7132
 20
8.92281
 30
0.0
 11
89.7132
 21
10.1244
 31
0.0
  0
LINE
  8
0
 62
     0
 10
89.7132
 20
10.1244
 30
0.0
 11
91.4382
 21
10.1244
 31
0.0
  0
LINE
  8
0
 62
     0
 10
91.4382
 20
10.1244
 30
0.0
 11
91.4382
 21
14.5948
 31
0.0
  0
LINE
  8
0
 62
     0
 10
91.4382
 20
14.5948
 30
0.0
 11
131.064
 21
14.5948
 31
0.0
  0
LINE
  8
0
 62
     0
 10
131.064
 20
14.5948
 30
0.0
 11
131.064
 21
13.994
 31
0.0
  0
LINE
  8
0
 62
     0
 10
131.064
 20
13.994
 30
0.0
 11
130.263
 21
13.994
 31
0.0
  0
LINE
  8
0
 62
     0
 10
130.263
 20
13.994
 30
0.0
 11
130.263
 21
10.8934
 31
0.0
  0
LINE
  8
0
 62
     0
 10
130.263
 20
10.8934
 30
0.0
 11
131.064
 21
10.8934
 31
0.0
  0
LINE
  8
0
 62
     0
 10
131.064
 20
10.8934
 30
0.0
 11
131.064
 21
9.89295
 31
0.0
  0
LINE
  8
0
 62
     0
 10
131.064
 20
9.89295
 30
0.0
 11
145.063
 21
9.89295
 31
0.0
  0
LINE
  8
0
 62
     0
 10
145.063
 20
9.89295
 30
0.0
 11
145.063
 21
10.8934
 31
0.0
  0
LINE
  8
0
 62
     0
 10
145.063
 20
10.8934
 30
0.0
 11
145.864
 21
10.8934
 31
0.0
  0
LINE
  8
0
 62
     0
 10
145.864
 20
10.8934
 30
0.0
 11
145.864
 21
13.994
 31
0.0
  0
LINE
  8
0
 62
     0
 10
145.864
 20
13.994
 30
0.0
 11
145.063
 21
13.994
 31
0.0
  0
LINE
  8
0
 62
     0
 10
145.063
 20
13.994
 30
0.0
 11
145.063
 21
14.5948
 31
0.0
  0
LINE
  8
0
 62
     0
 10
145.063
 20
14.5948
 30
0.0
 11
184.689
 21
14.5948
 31
0.0
  0
LINE
  8
0
 62
     0
 10
184.689
 20
14.5948
 30
0.0
 11
184.689
 21
10.1244
 31
0.0
  0
LINE
  8
0
 62
     0
 10
184.689
 20
10.1244
 30
0.0
 11
186.414
 21
10.1244
 31
0.0
  0
LINE
  8
0
 62
     0
 10
186.414
 20
10.1244
 30
0.0
 11
186.414
 21
8.92281
 31
0.0
  0
LINE
  8
0
 62
     0
 10
186.414
 20
8.92281
 30
0.0
 11
189.713
 21
8.92281
 31
0.0
  0
LINE
  8
0
 62
     0
 10
189.713
 20
8.92281
 30
0.0
 11
189.713
 21
10.1244
 31
0.0
  0
LINE
  8
0
 62
     0
 10
189.713
 20
10.1244
 30
0.0
 11
191.438
 21
10.1244
 31
0.0
  0
LINE
  8
0
 62
     0
 10
191.438
 20
10.1244
 30
0.0
 11
191.438
 21
16.3932
 31
0.0
  0
LINE
  8
0
 62
     0
 10
191.438
 20
16.3932
 30
0.0
 11
192.264
 21
16.3932
 31
0.0
  0
LINE
  8
0
 62
     0
 10
192.264
 20
16.3932
 30
0.0
 11
192.264
 21
19.1933
 31
0.0
  0
LINE
  8
0
 62
     0
 10
192.264
 20
19.1933
 30
0.0
 11
191.438
 21
19.1933
 31
0.0
  0
LINE
  8
0
 62
     0
 10
191.438
 20
19.1933
 30
0.0
 11
191.438
 21
22.4234
 31
0.0
  0
LINE
  8
0
 62
     0
 10
191.438
 20
22.4234
 30
0.0
 11
184.689
 21
22.4234
 31
0.0
  0
LINE
  8
0
 62
     0
 10
184.689
 20
22.4234
 30
0.0
 11
184.689
 21
19.1933
 31
0.0
  0
LINE
  8
0
 62
     0
 10
184.689
 20
19.1933
 30
0.0
 11
145.063
 21
19.1933
 31
0.0
  0
LINE
  8
0
 62
     0
 10
145.063
 20
19.1933
 30
0.0
 11
145.063
 21
19.7942
 31
0.0
  0
LINE
  8
0
 62
     0
 10
145.063
 20
19.7942
 30
0.0
 11
145.864
 21
19.7942
 31
0.0
  0
LINE
  8
0
 62
     0
 10
145.864
 20
19.7942
 30
0.0
 11
145.864
 21
22.8933
 31
0.0
  0
LINE
  8
0
 62
     0
 10
145.864
 20
22.8933
 30
0.0
 11
145.063
 21
22.8933
 31
0.0
  0
LINE
  8
0
 62
     0
 10
145.063
 20
22.8933
 30
0.0
 11
145.063
 21
23.8938
 31
0.0
  0
LINE
  8
0
 62
     0
 10
145.063
 20
23.8938
 30
0.0
 11
131.064
 21
23.8938
 31
0.0
  0
LINE
  8
0
 62
     0
 10
333.47
 20
23.8938
 30
0.0
 11
333.47
 21
22.8933
 31
0.0
  0
LINE
  8
0
 62
     0
 10
333.47
 20
22.8933
 30
0.0
 11
332.671
 21
22.8933
 31
0.0
  0
LINE
  8
0
 62
     0
 10
332.671
 20
22.8933
 30
0.0
 11
332.671
 21
19.7942
 31
0.0
  0
LINE
  8
0
 62
     0
 10
332.671
 20
19.7942
 30
0.0
 11
333.47
 21
19.7942
 31
0.0
  0
LINE
  8
0
 62
     0
 10
333.47
 20
19.7942
 30
0.0
 11
333.47
 21
13.994
 31
0.0
  0
LINE
  8
0
 62
     0
 10
333.47
 20
13.994
 30
0.0
 11
332.671
 21
13.994
 31
0.0
  0
LINE
  8
0
 62
     0
 10
332.671
 20
13.994
 30
0.0
 11
332.671
 21
10.8934
 31
0.0
  0
LINE
  8
0
 62
     0
 10
332.671
 20
10.8934
 30
0.0
 11
333.47
 21
10.8934
 31
0.0
  0
LINE
  8
0
 62
     0
 10
333.47
 20
10.8934
 30
0.0
 11
333.47
 21
9.89295
 31
0.0
  0
LINE
  8
0
 62
     0
 10
333.47
 20
9.89295
 30
0.0
 11
347.471
 21
9.89295
 31
0.0
  0
LINE
  8
0
 62
     0
 10
347.471
 20
9.89295
 30
0.0
 11
347.471
 21
10.8934
 31
0.0
  0
LINE
  8
0
 62
     0
 10
347.471
 20
10.8934
 30
0.0
 11
348.27
 21
10.8934
 31
0.0
  0
LINE
  8
0
 62
     0
 10
348.27
 20
10.8934
 30
0.0
 11
348.27
 21
13.994
 31
0.0
  0
LINE
  8
0
 62
     0
 10
348.27
 20
13.994
 30
0.0
 11
347.471
 21
13.994
 31
0.0
  0
LINE
  8
0
 62
     0
 10
347.471
 20
13.994
 30
0.0
 11
347.471
 21
19.7942
 31
0.0
  0
LINE
  8
0
 62
     0
 10
347.471
 20
19.7942
 30
0.0
 11
348.27
 21
19.7942
 31
0.0
  0
LINE
  8
0
 62
     0
 10
348.27
 20
19.7942
 30
0.0
 11
348.27
 21
22.8933
 31
0.0
  0
LINE
  8
0
 62
     0
 10
348.27
 20
22.8933
 30
0.0
 11
347.471
 21
22.8933
 31
0.0
  0
LINE
  8
0
 62
     0
 10
347.471
 20
22.8933
 30
0.0
 11
347.471
 21
23.8938
 31
0.0
  0
LINE
  8
0
 62
     0
 10
347.471
 20
23.8938
 30
0.0
 11
333.47
 21
23.8938
 31
0.0
  0
LINE
  8
0
 62
     0
 10
314.42
 20
23.8938
 30
0.0
 11
314.42
 21
22.8933
 31
0.0
  0
LINE
  8
0
 62
     0
 10
314.42
 20
22.8933
 30
0.0
 11
313.621
 21
22.8933
 31
0.0
  0
LINE
  8
0
 62
     0
 10
313.621
 20
22.8933
 30
0.0
 11
313.621
 21
19.7942
 31
0.0
  0
LINE
  8
0
 62
     0
 10
313.621
 20
19.7942
 30
0.0
 11
314.42
 21
19.7942
 31
0.0
  0
LINE
  8
0
 62
     0
 10
314.42
 20
19.7942
 30
0.0
 11
314.42
 21
13.994
 31
0.0
  0
LINE
  8
0
 62
     0
 10
314.42
 20
13.994
 30
0.0
 11
313.621
 21
13.994
 31
0.0
  0
LINE
  8
0
 62
     0
 10
313.621
 20
13.994
 30
0.0
 11
313.621
 21
10.8934
 31
0.0
  0
LINE
  8
0
 62
     0
 10
313.621
 20
10.8934
 30
0.0
 11
314.42
 21
10.8934
 31
0.0
  0
LINE
  8
0
 62
     0
 10
314.42
 20
10.8934
 30
0.0
 11
314.42
 21
9.89295
 31
0.0
  0
LINE
  8
0
 62
     0
 10
314.42
 20
9.89295
 30
0.0
 11
328.421
 21
9.89295
 31
0.0
  0
LINE
  8
0
 62
     0
 10
328.421
 20
9.89295
 30
0.0
 11
328.421
 21
10.8934
 31
0.0
  0
LINE
  8
0
 62
     0
 10
328.421
 20
10.8934
 30
0.0
 11
329.22
 21
10.8934
 31
0.0
  0
LINE
  8
0
 62
     0
 10
329.22
 20
10.8934
 30
0.0
 11
329.22
 21
13.994
 31
0.0
  0
LINE
  8
0
 62
     0
 10
329.22
 20
13.994
 30
0.0
 11
328.421
 21
13.994
 31
0.0
  0
LINE
  8
0
 62
     0
 10
328.421
 20
13.994
 30
0.0
 11
328.421
 21
19.7942
 31
0.0
  0
LINE
  8
0
 62
     0
 10
328.421
 20
19.7942
 30
0.0
 11
329.22
 21
19.7942
 31
0.0
  0
LINE
  8
0
 62
     0
 10
329.22
 20
19.7942
 30
0.0
 11
329.22
 21
22.8933
 31
0.0
  0
LINE
  8
0
 62
     0
 10
329.22
 20
22.8933
 30
0.0
 11
328.421
 21
22.8933
 31
0.0
  0
LINE
  8
0
 62
     0
 10
328.421
 20
22.8933
 30
0.0
 11
328.421
 21
23.8938
 31
0.0
  0
LINE
  8
0
 62
     0
 10
328.421
 20
23.8938
 30
0.0
 11
314.42
 21
23.8938
 31
0.0
  0
LINE
  8
0
 62
     0
 10
295.37
 20
23.8938
 30
0.0
 11
295.37
 21
22.8933
 31
0.0
  0
LINE
  8
0
 62
     0
 10
295.37
 20
22.8933
 30
0.0
 11
294.569
 21
22.8933
 31
0.0
  0
LINE
  8
0
 62
     0
 10
294.569
 20
22.8933
 30
0.0
 11
294.569
 21
19.7942
 31
0.0
  0
LINE
  8
0
 62
     0
 10
294.569
 20
19.7942
 30
0.0
 11
295.37
 21
19.7942
 31
0.0
  0
LINE
  8
0
 62
     0
 10
295.37
 20
19.7942
 30
0.0
 11
295.37
 21
13.994
 31
0.0
  0
LINE
  8
0
 62
     0
 10
295.37
 20
13.994
 30
0.0
 11
294.569
 21
13.994
 31
0.0
  0
LINE
  8
0
 62
     0
 10
294.569
 20
13.994
 30
0.0
 11
294.569
 21
10.8934
 31
0.0
  0
LINE
  8
0
 62
     0
 10
294.569
 20
10.8934
 30
0.0
 11
295.37
 21
10.8934
 31
0.0
  0
LINE
  8
0
 62
     0
 10
295.37
 20
10.8934
 30
0.0
 11
295.37
 21
9.89295
 31
0.0
  0
LINE
  8
0
 62
     0
 10
295.37
 20
9.89295
 30
0.0
 11
309.371
 21
9.89295
 31
0.0
  0
LINE
  8
0
 62
     0
 10
309.371
 20
9.89295
 30
0.0
 11
309.371
 21
10.8934
 31
0.0
  0
LINE
  8
0
 62
     0
 10
309.371
 20
10.8934
 30
0.0
 11
310.17
 21
10.8934
 31
0.0
  0
LINE
  8
0
 62
     0
 10
310.17
 20
10.8934
 30
0.0
 11
310.17
 21
13.994
 31
0.0
  0
LINE
  8
0
 62
     0
 10
310.17
 20
13.994
 30
0.0
 11
309.371
 21
13.994
 31
0.0
  0
LINE
  8
0
 62
     0
 10
309.371
 20
13.994
 30
0.0
 11
309.371
 21
19.7942
 31
0.0
  0
LINE
  8
0
 62
     0
 10
309.371
 20
19.7942
 30
0.0
 11
310.17
 21
19.7942
 31
0.0
  0
LINE
  8
0
 62
     0
 10
310.17
 20
19.7942
 30
0.0
 11
310.17
 21
22.8933
 31
0.0
  0
LINE
  8
0
 62
     0
 10
310.17
 20
22.8933
 30
0.0
 11
309.371
 21
22.8933
 31
0.0
  0
LINE
  8
0
 62
     0
 10
309.371
 20
22.8933
 30
0.0
 11
309.371
 21
23.8938
 31
0.0
  0
LINE
  8
0
 62
     0
 10
309.371
 20
23.8938
 30
0.0
 11
295.37
 21
23.8938
 31
0.0
  0
LINE
  8
0
 62
     0
 10
273.939
 20
23.8938
 30
0.0
 11
273.939
 21
22.8933
 31
0.0
  0
LINE
  8
0
 62
     0
 10
273.939
 20
22.8933
 30
0.0
 11
273.138
 21
22.8933
 31
0.0
  0
LINE
  8
0
 62
     0
 10
273.138
 20
22.8933
 30
0.0
 11
273.138
 21
19.7942
 31
0.0
  0
LINE
  8
0
 62
     0
 10
273.138
 20
19.7942
 30
0.0
 11
273.939
 21
19.7942
 31
0.0
  0
LINE
  8
0
 62
     0
 10
273.939
 20
19.7942
 30
0.0
 11
273.939
 21
13.994
 31
0.0
  0
LINE
  8
0
 62
     0
 10
273.939
 20
13.994
 30
0.0
 11
273.138
 21
13.994
 31
0.0
  0
LINE
  8
0
 62
     0
 10
273.138
 20
13.994
 30
0.0
 11
273.138
 21
10.8934
 31
0.0
  0
LINE
  8
0
 62
     0
 10
273.138
 20
10.8934
 30
0.0
 11
273.939
 21
10.8934
 31
0.0
  0
LINE
  8
0
 62
     0
 10
273.939
 20
10.8934
 30
0.0
 11
273.939
 21
9.89295
 31
0.0
  0
LINE
  8
0
 62
     0
 10
273.939
 20
9.89295
 30
0.0
 11
287.938
 21
9.89295
 31
0.0
  0
LINE
  8
0
 62
     0
 10
287.938
 20
9.89295
 30
0.0
 11
287.938
 21
10.8934
 31
0.0
  0
LINE
  8
0
 62
     0
 10
287.938
 20
10.8934
 30
0.0
 11
288.739
 21
10.8934
 31
0.0
  0
LINE
  8
0
 62
     0
 10
288.739
 20
10.8934
 30
0.0
 11
288.739
 21
13.994
 31
0.0
  0
LINE
  8
0
 62
     0
 10
288.739
 20
13.994
 30
0.0
 11
287.938
 21
13.994
 31
0.0
  0
LINE
  8
0
 62
     0
 10
287.938
 20
13.994
 30
0.0
 11
287.938
 21
19.7942
 31
0.0
  0
LINE
  8
0
 62
     0
 10
287.938
 20
19.7942
 30
0.0
 11
288.739
 21
19.7942
 31
0.0
  0
LINE
  8
0
 62
     0
 10
288.739
 20
19.7942
 30
0.0
 11
288.739
 21
22.8933
 31
0.0
  0
LINE
  8
0
 62
     0
 10
288.739
 20
22.8933
 30
0.0
 11
287.938
 21
22.8933
 31
0.0
  0
LINE
  8
0
 62
     0
 10
287.938
 20
22.8933
 30
0.0
 11
287.938
 21
23.8938
 31
0.0
  0
LINE
  8
0
 62
     0
 10
287.938
 20
23.8938
 30
0.0
 11
273.939
 21
23.8938
 31
0.0
  0
LINE
  8
0
 62
     0
 10
250.127
 20
23.8938
 30
0.0
 11
250.127
 21
22.8933
 31
0.0
  0
LINE
  8
0
 62
     0
 10
250.127
 20
22.8933
 30
0.0
 11
249.327
 21
22.8933
 31
0.0
  0
LINE
  8
0
 62
     0
 10
249.327
 20
22.8933
 30
0.0
 11
249.327
 21
19.7942
 31
0.0
  0
LINE
  8
0
 62
     0
 10
249.327
 20
19.7942
 30
0.0
 11
250.127
 21
19.7942
 31
0.0
  0
LINE
  8
0
 62
     0
 10
250.127
 20
19.7942
 30
0.0
 11
250.127
 21
13.994
 31
0.0
  0
LINE
  8
0
 62
     0
 10
250.127
 20
13.994
 30
0.0
 11
249.327
 21
13.994
 31
0.0
  0
LINE
  8
0
 62
     0
 10
249.327
 20
13.994
 30
0.0
 11
249.327
 21
10.8934
 31
0.0
  0
LINE
  8
0
 62
     0
 10
249.327
 20
10.8934
 30
0.0
 11
250.127
 21
10.8934
 31
0.0
  0
LINE
  8
0
 62
     0
 10
250.127
 20
10.8934
 30
0.0
 11
250.127
 21
9.89295
 31
0.0
  0
LINE
  8
0
 62
     0
 10
250.127
 20
9.89295
 30
0.0
 11
264.126
 21
9.89295
 31
0.0
  0
LINE
  8
0
 62
     0
 10
264.126
 20
9.89295
 30
0.0
 11
264.126
 21
10.8934
 31
0.0
  0
LINE
  8
0
 62
     0
 10
264.126
 20
10.8934
 30
0.0
 11
264.927
 21
10.8934
 31
0.0
  0
LINE
  8
0
 62
     0
 10
264.927
 20
10.8934
 30
0.0
 11
264.927
 21
13.994
 31
0.0
  0
LINE
  8
0
 62
     0
 10
264.927
 20
13.994
 30
0.0
 11
264.126
 21
13.994
 31
0.0
  0
LINE
  8
0
 62
     0
 10
264.126
 20
13.994
 30
0.0
 11
264.126
 21
19.7942
 31
0.0
  0
LINE
  8
0
 62
     0
 10
264.126
 20
19.7942
 30
0.0
 11
264.927
 21
19.7942
 31
0.0
  0
LINE
  8
0
 62
     0
 10
264.927
 20
19.7942
 30
0.0
 11
264.927
 21
22.8933
 31
0.0
  0
LINE
  8
0
 62
     0
 10
264.927
 20
22.8933
 30
0.0
 11
264.126
 21
22.8933
 31
0.0
  0
LINE
  8
0
 62
     0
 10
264.126
 20
22.8933
 30
0.0
 11
264.126
 21
23.8938
 31
0.0
  0
LINE
  8
0
 62
     0
 10
264.126
 20
23.8938
 30
0.0
 11
250.127
 21
23.8938
 31
0.0
  0
LINE
  8
0
 62
     0
 10
226.314
 20
23.8938
 30
0.0
 11
226.314
 21
22.8933
 31
0.0
  0
LINE
  8
0
 62
     0
 10
226.314
 20
22.8933
 30
0.0
 11
225.513
 21
22.8933
 31
0.0
  0
LINE
  8
0
 62
     0
 10
225.513
 20
22.8933
 30
0.0
 11
225.513
 21
19.7942
 31
0.0
  0
LINE
  8
0
 62
     0
 10
225.513
 20
19.7942
 30
0.0
 11
226.314
 21
19.7942
 31
0.0
  0
LINE
  8
0
 62
     0
 10
226.314
 20
19.7942
 30
0.0
 11
226.314
 21
13.994
 31
0.0
  0
LINE
  8
0
 62
     0
 10
226.314
 20
13.994
 30
0.0
 11
225.513
 21
13.994
 31
0.0
  0
LINE
  8
0
 62
     0
 10
225.513
 20
13.994
 30
0.0
 11
225.513
 21
10.8934
 31
0.0
  0
LINE
  8
0
 62
     0
 10
225.513
 20
10.8934
 30
0.0
 11
226.314
 21
10.8934
 31
0.0
  0
LINE
  8
0
 62
     0
 10
226.314
 20
10.8934
 30
0.0
 11
226.314
 21
9.89295
 31
0.0
  0
LINE
  8
0
 62
     0
 10
226.314
 20
9.89295
 30
0.0
 11
240.313
 21
9.89295
 31
0.0
  0
LINE
  8
0
 62
     0
 10
240.313
 20
9.89295
 30
0.0
 11
240.313
 21
10.8934
 31
0.0
  0
LINE
  8
0
 62
     0
 10
240.313
 20
10.8934
 30
0.0
 11
241.114
 21
10.8934
 31
0.0
  0
LINE
  8
0
 62
     0
 10
241.114
 20
10.8934
 30
0.0
 11
241.114
 21
13.994
 31
0.0
  0
LINE
  8
0
 62
     0
 10
241.114
 20
13.994
 30
0.0
 11
240.313
 21
13.994
 31
0.0
  0
LINE
  8
0
 62
     0
 10
240.313
 20
13.994
 30
0.0
 11
240.313
 21
19.7942
 31
0.0
  0
LINE
  8
0
 62
     0
 10
240.313
 20
19.7942
 30
0.0
 11
241.114
 21
19.7942
 31
0.0
  0
LINE
  8
0
 62
     0
 10
241.114
 20
19.7942
 30
0.0
 11
241.114
 21
22.8933
 31
0.0
  0
LINE
  8
0
 62
     0
 10
241.114
 20
22.8933
 30
0.0
 11
240.313
 21
22.8933
 31
0.0
  0
LINE
  8
0
 62
     0
 10
240.313
 20
22.8933
 30
0.0
 11
240.313
 21
23.8938
 31
0.0
  0
LINE
  8
0
 62
     0
 10
240.313
 20
23.8938
 30
0.0
 11
226.314
 21
23.8938
 31
0.0
  0
LINE
  8
0
 62
     0
 10
202.502
 20
23.8938
 30
0.0
 11
202.502
 21
22.8933
 31
0.0
  0
LINE
  8
0
 62
     0
 10
202.502
 20
22.8933
 30
0.0
 11
201.702
 21
22.8933
 31
0.0
  0
LINE
  8
0
 62
     0
 10
201.702
 20
22.8933
 30
0.0
 11
201.702
 21
19.7942
 31
0.0
  0
LINE
  8
0
 62
     0
 10
201.702
 20
19.7942
 30
0.0
 11
202.502
 21
19.7942
 31
0.0
  0
LINE
  8
0
 62
     0
 10
202.502
 20
19.7942
 30
0.0
 11
202.502
 21
13.994
 31
0.0
  0
LINE
  8
0
 62
     0
 10
202.502
 20
13.994
 30
0.0
 11
201.702
 21
13.994
 31
0.0
  0
LINE
  8
0
 62
     0
 10
201.702
 20
13.994
 30
0.0
 11
201.702
 21
10.8934
 31
0.0
  0
LINE
  8
0
 62
     0
 10
201.702
 20
10.8934
 30
0.0
 11
202.502
 21
10.8934
 31
0.0
  0
LINE
  8
0
 62
     0
 10
202.502
 20
10.8934
 30
0.0
 11
202.502
 21
9.89295
 31
0.0
  0
LINE
  8
0
 62
     0
 10
202.502
 20
9.89295
 30
0.0
 11
216.501
 21
9.89295
 31
0.0
  0
LINE
  8
0
 62
     0
 10
216.501
 20
9.89295
 30
0.0
 11
216.501
 21
10.8934
 31
0.0
  0
LINE
  8
0
 62
     0
 10
216.501
 20
10.8934
 30
0.0
 11
217.302
 21
10.8934
 31
0.0
  0
LINE
  8
0
 62
     0
 10
217.302
 20
10.8934
 30
0.0
 11
217.302
 21
13.994
 31
0.0
  0
LINE
  8
0
 62
     0
 10
217.302
 20
13.994
 30
0.0
 11
216.501
 21
13.994
 31
0.0
  0
LINE
  8
0
 62
     0
 10
216.501
 20
13.994
 30
0.0
 11
216.501
 21
19.7942
 31
0.0
  0
LINE
  8
0
 62
     0
 10
216.501
 20
19.7942
 30
0.0
 11
217.302
 21
19.7942
 31
0.0
  0
LINE
  8
0
 62
     0
 10
217.302
 20
19.7942
 30
0.0
 11
217.302
 21
22.8933
 31
0.0
  0
LINE
  8
0
 62
     0
 10
217.302
 20
22.8933
 30
0.0
 11
216.501
 21
22.8933
 31
0.0
  0
LINE
  8
0
 62
     0
 10
216.501
 20
22.8933
 30
0.0
 11
216.501
 21
23.8938
 31
0.0
  0
LINE
  8
0
 62
     0
 10
216.501
 20
23.8938
 30
0.0
 11
202.502
 21
23.8938
 31
0.0
  0
LINE
  8
0
 62
     0
 10
59.6265
 20
23.8938
 30
0.0
 11
59.6265
 21
22.8933
 31
0.0
  0
LINE
  8
0
 62
     0
 10
59.6265
 20
22.8933
 30
0.0
 11
58.8271
 21
22.8933
 31
0.0
  0
LINE
  8
0
 62
     0
 10
58.8271
 20
22.8933
 30
0.0
 11
58.8271
 21
19.7942
 31
0.0
  0
LINE
  8
0
 62
     0
 10
58.8271
 20
19.7942
 30
0.0
 11
59.6265
 21
19.7942
 31
0.0
  0
LINE
  8
0
 62
     0
 10
59.6265
 20
19.7942
 30
0.0
 11
59.6265
 21
13.994
 31
0.0
  0
LINE
  8
0
 62
     0
 10
59.6265
 20
13.994
 30
0.0
 11
58.8271
 21
13.994
 31
0.0
  0
LINE
  8
0
 62
     0
 10
58.8271
 20
13.994
 30
0.0
 11
58.8271
 21
10.8934
 31
0.0
  0
LINE
  8
0
 62
     0
 10
58.8271
 20
10.8934
 30
0.0
 11
59.6265
 21
10.8934
 31
0.0
  0
LINE
  8
0
 62
     0
 10
59.6265
 20
10.8934
 30
0.0
 11
59.6265
 21
9.89295
 31
0.0
  0
LINE
  8
0
 62
     0
 10
59.6265
 20
9.89295
 30
0.0
 11
73.6258
 21
9.89295
 31
0.0
  0
LINE
  8
0
 62
     0
 10
73.6258
 20
9.89295
 30
0.0
 11
73.6258
 21
10.8934
 31
0.0
  0
LINE
  8
0
 62
     0
 10
73.6258
 20
10.8934
 30
0.0
 11
74.4266
 21
10.8934
 31
0.0
  0
LINE
  8
0
 62
     0
 10
74.4266
 20
10.8934
 30
0.0
 11
74.4266
 21
13.994
 31
0.0
  0
LINE
  8
0
 62
     0
 10
74.4266
 20
13.994
 30
0.0
 11
73.6258
 21
13.994
 31
0.0
  0
LINE
  8
0
 62
     0
 10
73.6258
 20
13.994
 30
0.0
 11
73.6258
 21
19.7942
 31
0.0
  0
LINE
  8
0
 62
     0
 10
73.6258
 20
19.7942
 30
0.0
 11
74.4266
 21
19.7942
 31
0.0
  0
LINE
  8
0
 62
     0
 10
74.4266
 20
19.7942
 30
0.0
 11
74.4266
 21
22.8933
 31
0.0
  0
LINE
  8
0
 62
     0
 10
74.4266
 20
22.8933
 30
0.0
 11
73.6258
 21
22.8933
 31
0.0
  0
LINE
  8
0
 62
     0
 10
73.6258
 20
22.8933
 30
0.0
 11
73.6258
 21
23.8938
 31
0.0
  0
LINE
  8
0
 62
     0
 10
73.6258
 20
23.8938
 30
0.0
 11
59.6265
 21
23.8938
 31
0.0
  0
LINE
  8
0
 62
     0
 10
35.814
 20
23.8938
 30
0.0
 11
35.814
 21
22.8933
 31
0.0
  0
LINE
  8
0
 62
     0
 10
35.814
 20
22.8933
 30
0.0
 11
35.0132
 21
22.8933
 31
0.0
  0
LINE
  8
0
 62
     0
 10
35.0132
 20
22.8933
 30
0.0
 11
35.0132
 21
19.7942
 31
0.0
  0
LINE
  8
0
 62
     0
 10
35.0132
 20
19.7942
 30
0.0
 11
35.814
 21
19.7942
 31
0.0
  0
LINE
  8
0
 62
     0
 10
35.814
 20
19.7942
 30
0.0
 11
35.814
 21
13.994
 31
0.0
  0
LINE
  8
0
 62
     0
 10
35.814
 20
13.994
 30
0.0
 11
35.0132
 21
13.994
 31
0.0
  0
LINE
  8
0
 62
     0
 10
35.0132
 20
13.994
 30
0.0
 11
35.0132
 21
10.8934
 31
0.0
  0
LINE
  8
0
 62
     0
 10
35.0132
 20
10.8934
 30
0.0
 11
35.814
 21
10.8934
 31
0.0
  0
LINE
  8
0
 62
     0
 10
35.814
 20
10.8934
 30
0.0
 11
35.814
 21
9.89295
 31
0.0
  0
LINE
  8
0
 62
     0
 10
35.814
 20
9.89295
 30
0.0
 11
49.8133
 21
9.89295
 31
0.0
  0
LINE
  8
0
 62
     0
 10
49.8133
 20
9.89295
 30
0.0
 11
49.8133
 21
10.8934
 31
0.0
  0
LINE
  8
0
 62
     0
 10
49.8133
 20
10.8934
 30
0.0
 11
50.6141
 21
10.8934
 31
0.0
  0
LINE
  8
0
 62
     0
 10
50.6141
 20
10.8934
 30
0.0
 11
50.6141
 21
13.994
 31
0.0
  0
LINE
  8
0
 62
     0
 10
50.6141
 20
13.994
 30
0.0
 11
49.8133
 21
13.994
 31
0.0
  0
LINE
  8
0
 62
     0
 10
49.8133
 20
13.994
 30
0.0
 11
49.8133
 21
19.7942
 31
0.0
  0
LINE
  8
0
 62
     0
 10
49.8133
 20
19.7942
 30
0.0
 11
50.6141
 21
19.7942
 31
0.0
  0
LINE
  8
0
 62
     0
 10
50.6141
 20
19.7942
 30
0.0
 11
50.6141
 21
22.8933
 31
0.0
  0
LINE
  8
0
 62
     0
 10
50.6141
 20
22.8933
 30
0.0
 11
49.8133
 21
22.8933
 31
0.0
  0
LINE
  8
0
 62
     0
 10
49.8133
 20
22.8933
 30
0.0
 11
49.8133
 21
23.8938
 31
0.0
  0
LINE
  8
0
 62
     0
 10
49.8133
 20
23.8938
 30
0.0
 11
35.814
 21
23.8938
 31
0.0
  0
LINE
  8
0
 62
     0
 10
12.0013
 20
23.8938
 30
0.0
 11
12.0013
 21
22.8933
 31
0.0
  0
LINE
  8
0
 62
     0
 10
12.0013
 20
22.8933
 30
0.0
 11
11.2021
 21
22.8933
 31
0.0
  0
LINE
  8
0
 62
     0
 10
11.2021
 20
22.8933
 30
0.0
 11
11.2021
 21
19.7942
 31
0.0
  0
LINE
  8
0
 62
     0
 10
11.2021
 20
19.7942
 30
0.0
 11
12.0013
 21
19.7942
 31
0.0
  0
LINE
  8
0
 62
     0
 10
12.0013
 20
19.7942
 30
0.0
 11
12.0013
 21
13.994
 31
0.0
  0
LINE
  8
0
 62
     0
 10
12.0013
 20
13.994
 30
0.0
 11
11.2021
 21
13.994
 31
0.0
  0
LINE
  8
0
 62
     0
 10
11.2021
 20
13.994
 30
0.0
 11
11.2021
 21
10.8934
 31
0.0
  0
LINE
  8
0
 62
     0
 10
11.2021
 20
10.8934
 30
0.0
 11
12.0013
 21
10.8934
 31
0.0
  0
LINE
  8
0
 62
     0
 10
12.0013
 20
10.8934
 30
0.0
 11
12.0013
 21
9.89295
 31
0.0
  0
LINE
  8
0
 62
     0
 10
12.0013
 20
9.89295
 30
0.0
 11
26.0008
 21
9.89295
 31
0.0
  0
LINE
  8
0
 62
     0
 10
26.0008
 20
9.89295
 30
0.0
 11
26.0008
 21
10.8934
 31
0.0
  0
LINE
  8
0
 62
     0
 10
26.0008
 20
10.8934
 30
0.0
 11
26.8015
 21
10.8934
 31
0.0
  0
LINE
  8
0
 62
     0
 10
26.8015
 20
10.8934
 30
0.0
 11
26.8015
 21
13.994
 31
0.0
  0
LINE
  8
0
 62
     0
 10
26.8015
 20
13.994
 30
0.0
 11
26.0008
 21
13.994
 31
0.0
  0
LINE
  8
0
 62
     0
 10
26.0008
 20
13.994
 30
0.0
 11
26.0008
 21
19.7942
 31
0.0
  0
LINE
  8
0
 62
     0
 10
26.0008
 20
19.7942
 30
0.0
 11
26.8015
 21
19.7942
 31
0.0
  0
LINE
  8
0
 62
     0
 10
26.8015
 20
19.7942
 30
0.0
 11
26.8015
 21
22.8933
 31
0.0
  0
LINE
  8
0
 62
     0
 10
26.8015
 20
22.8933
 30
0.0
 11
26.0008
 21
22.8933
 31
0.0
  0
LINE
  8
0
 62
     0
 10
26.0008
 20
22.8933
 30
0.0
 11
26.0008
 21
23.8938
 31
0.0
  0
LINE
  8
0
 62
     0
 10
26.0008
 20
23.8938
 30
0.0
 11
12.0013
 21
23.8938
 31
0.0
  0
LINE
  8
0
 62
     0
 10
259.652
 20
42.9436
 30
0.0
 11
259.652
 21
41.9435
 31
0.0
  0
LINE
  8
0
 62
     0
 10
259.652
 20
41.9435
 30
0.0
 11
258.852
 21
41.9435
 31
0.0
  0
LINE
  8
0
 62
     0
 10
258.852
 20
41.9435
 30
0.0
 11
258.852
 21
38.844
 31
0.0
  0
LINE
  8
0
 62
     0
 10
258.852
 20
38.844
 30
0.0
 11
259.652
 21
38.844
 31
0.0
  0
LINE
  8
0
 62
     0
 10
259.652
 20
38.844
 30
0.0
 11
259.652
 21
38.2432
 31
0.0
  0
LINE
  8
0
 62
     0
 10
259.652
 20
38.2432
 30
0.0
 11
258.126
 21
38.2432
 31
0.0
  0
LINE
  8
0
 62
     0
 10
258.126
 20
38.2432
 30
0.0
 11
258.126
 21
41.4736
 31
0.0
  0
LINE
  8
0
 62
     0
 10
258.126
 20
41.4736
 30
0.0
 11
251.376
 21
41.4736
 31
0.0
  0
LINE
  8
0
 62
     0
 10
251.376
 20
41.4736
 30
0.0
 11
251.376
 21
38.2432
 31
0.0
  0
LINE
  8
0
 62
     0
 10
251.376
 20
38.2432
 30
0.0
 11
250.552
 21
38.2432
 31
0.0
  0
LINE
  8
0
 62
     0
 10
250.552
 20
38.2432
 30
0.0
 11
250.552
 21
35.4432
 31
0.0
  0
LINE
  8
0
 62
     0
 10
250.552
 20
35.4432
 30
0.0
 11
251.376
 21
35.4432
 31
0.0
  0
LINE
  8
0
 62
     0
 10
251.376
 20
35.4432
 30
0.0
 11
251.376
 21
29.1731
 31
0.0
  0
LINE
  8
0
 62
     0
 10
251.376
 20
29.1731
 30
0.0
 11
253.1
 21
29.1731
 31
0.0
  0
LINE
  8
0
 62
     0
 10
253.1
 20
29.1731
 30
0.0
 11
253.1
 21
27.9728
 31
0.0
  0
LINE
  8
0
 62
     0
 10
253.1
 20
27.9728
 30
0.0
 11
256.401
 21
27.9728
 31
0.0
  0
LINE
  8
0
 62
     0
 10
256.401
 20
27.9728
 30
0.0
 11
256.401
 21
29.1731
 31
0.0
  0
LINE
  8
0
 62
     0
 10
256.401
 20
29.1731
 30
0.0
 11
258.126
 21
29.1731
 31
0.0
  0
LINE
  8
0
 62
     0
 10
258.126
 20
29.1731
 30
0.0
 11
258.126
 21
33.6434
 31
0.0
  0
LINE
  8
0
 62
     0
 10
258.126
 20
33.6434
 30
0.0
 11
259.652
 21
33.6434
 31
0.0
  0
LINE
  8
0
 62
     0
 10
259.652
 20
33.6434
 30
0.0
 11
259.652
 21
33.044
 31
0.0
  0
LINE
  8
0
 62
     0
 10
259.652
 20
33.044
 30
0.0
 11
258.852
 21
33.044
 31
0.0
  0
LINE
  8
0
 62
     0
 10
258.852
 20
33.044
 30
0.0
 11
258.852
 21
29.9434
 31
0.0
  0
LINE
  8
0
 62
     0
 10
258.852
 20
29.9434
 30
0.0
 11
259.652
 21
29.9434
 31
0.0
  0
LINE
  8
0
 62
     0
 10
259.652
 20
29.9434
 30
0.0
 11
259.652
 21
28.9429
 31
0.0
  0
LINE
  8
0
 62
     0
 10
259.652
 20
28.9429
 30
0.0
 11
273.651
 21
28.9429
 31
0.0
  0
LINE
  8
0
 62
     0
 10
273.651
 20
28.9429
 30
0.0
 11
273.651
 21
29.9434
 31
0.0
  0
LINE
  8
0
 62
     0
 10
273.651
 20
29.9434
 30
0.0
 11
274.452
 21
29.9434
 31
0.0
  0
LINE
  8
0
 62
     0
 10
274.452
 20
29.9434
 30
0.0
 11
274.452
 21
33.044
 31
0.0
  0
LINE
  8
0
 62
     0
 10
274.452
 20
33.044
 30
0.0
 11
273.651
 21
33.044
 31
0.0
  0
LINE
  8
0
 62
     0
 10
273.651
 20
33.044
 30
0.0
 11
273.651
 21
33.6434
 31
0.0
  0
LINE
  8
0
 62
     0
 10
273.651
 20
33.6434
 30
0.0
 11
275.176
 21
33.6434
 31
0.0
  0
LINE
  8
0
 62
     0
 10
275.176
 20
33.6434
 30
0.0
 11
275.176
 21
29.1731
 31
0.0
  0
LINE
  8
0
 62
     0
 10
275.176
 20
29.1731
 30
0.0
 11
276.902
 21
29.1731
 31
0.0
  0
LINE
  8
0
 62
     0
 10
276.902
 20
29.1731
 30
0.0
 11
276.902
 21
27.9728
 31
0.0
  0
LINE
  8
0
 62
     0
 10
276.902
 20
27.9728
 30
0.0
 11
280.202
 21
27.9728
 31
0.0
  0
LINE
  8
0
 62
     0
 10
280.202
 20
27.9728
 30
0.0
 11
280.202
 21
29.1731
 31
0.0
  0
LINE
  8
0
 62
     0
 10
280.202
 20
29.1731
 30
0.0
 11
281.926
 21
29.1731
 31
0.0
  0
LINE
  8
0
 62
     0
 10
281.926
 20
29.1731
 30
0.0
 11
281.926
 21
35.4432
 31
0.0
  0
LINE
  8
0
 62
     0
 10
281.926
 20
35.4432
 30
0.0
 11
282.751
 21
35.4432
 31
0.0
  0
LINE
  8
0
 62
     0
 10
282.751
 20
35.4432
 30
0.0
 11
282.751
 21
38.2432
 31
0.0
  0
LINE
  8
0
 62
     0
 10
282.751
 20
38.2432
 30
0.0
 11
281.926
 21
38.2432
 31
0.0
  0
LINE
  8
0
 62
     0
 10
281.926
 20
38.2432
 30
0.0
 11
281.926
 21
41.4736
 31
0.0
  0
LINE
  8
0
 62
     0
 10
281.926
 20
41.4736
 30
0.0
 11
275.176
 21
41.4736
 31
0.0
  0
LINE
  8
0
 62
     0
 10
275.176
 20
41.4736
 30
0.0
 11
275.176
 21
38.2432
 31
0.0
  0
LINE
  8
0
 62
     0
 10
275.176
 20
38.2432
 30
0.0
 11
273.651
 21
38.2432
 31
0.0
  0
LINE
  8
0
 62
     0
 10
273.651
 20
38.2432
 30
0.0
 11
273.651
 21
38.844
 31
0.0
  0
LINE
  8
0
 62
     0
 10
273.651
 20
38.844
 30
0.0
 11
274.452
 21
38.844
 31
0.0
  0
LINE
  8
0
 62
     0
 10
274.452
 20
38.844
 30
0.0
 11
274.452
 21
41.9435
 31
0.0
  0
LINE
  8
0
 62
     0
 10
274.452
 20
41.9435
 30
0.0
 11
273.651
 21
41.9435
 31
0.0
  0
LINE
  8
0
 62
     0
 10
273.651
 20
41.9435
 30
0.0
 11
273.651
 21
42.9436
 31
0.0
  0
LINE
  8
0
 62
     0
 10
273.651
 20
42.9436
 30
0.0
 11
259.652
 21
42.9436
 31
0.0
  0
LINE
  8
0
 62
     0
 10
21.5263
 20
42.9436
 30
0.0
 11
21.5263
 21
41.9435
 31
0.0
  0
LINE
  8
0
 62
     0
 10
21.5263
 20
41.9435
 30
0.0
 11
20.7271
 21
41.9435
 31
0.0
  0
LINE
  8
0
 62
     0
 10
20.7271
 20
41.9435
 30
0.0
 11
20.7271
 21
38.844
 31
0.0
  0
LINE
  8
0
 62
     0
 10
20.7271
 20
38.844
 30
0.0
 11
21.5263
 21
38.844
 31
0.0
  0
LINE
  8
0
 62
     0
 10
21.5263
 20
38.844
 30
0.0
 11
21.5263
 21
38.2432
 31
0.0
  0
LINE
  8
0
 62
     0
 10
21.5263
 20
38.2432
 30
0.0
 11
20.0008
 21
38.2432
 31
0.0
  0
LINE
  8
0
 62
     0
 10
20.0008
 20
38.2432
 30
0.0
 11
20.0008
 21
41.4736
 31
0.0
  0
LINE
  8
0
 62
     0
 10
20.0008
 20
41.4736
 30
0.0
 11
13.2512
 21
41.4736
 31
0.0
  0
LINE
  8
0
 62
     0
 10
13.2512
 20
41.4736
 30
0.0
 11
13.2512
 21
38.2432
 31
0.0
  0
LINE
  8
0
 62
     0
 10
13.2512
 20
38.2432
 30
0.0
 11
12.4272
 21
38.2432
 31
0.0
  0
LINE
  8
0
 62
     0
 10
12.4272
 20
38.2432
 30
0.0
 11
12.4272
 21
35.4432
 31
0.0
  0
LINE
  8
0
 62
     0
 10
12.4272
 20
35.4432
 30
0.0
 11
13.2512
 21
35.4432
 31
0.0
  0
LINE
  8
0
 62
     0
 10
13.2512
 20
35.4432
 30
0.0
 11
13.2512
 21
29.1731
 31
0.0
  0
LINE
  8
0
 62
     0
 10
13.2512
 20
29.1731
 30
0.0
 11
14.9765
 21
29.1731
 31
0.0
  0
LINE
  8
0
 62
     0
 10
14.9765
 20
29.1731
 30
0.0
 11
14.9765
 21
27.9728
 31
0.0
  0
LINE
  8
0
 62
     0
 10
14.9765
 20
27.9728
 30
0.0
 11
18.2769
 21
27.9728
 31
0.0
  0
LINE
  8
0
 62
     0
 10
18.2769
 20
27.9728
 30
0.0
 11
18.2769
 21
29.1731
 31
0.0
  0
LINE
  8
0
 62
     0
 10
18.2769
 20
29.1731
 30
0.0
 11
20.0008
 21
29.1731
 31
0.0
  0
LINE
  8
0
 62
     0
 10
20.0008
 20
29.1731
 30
0.0
 11
20.0008
 21
33.6434
 31
0.0
  0
LINE
  8
0
 62
     0
 10
20.0008
 20
33.6434
 30
0.0
 11
21.5263
 21
33.6434
 31
0.0
  0
LINE
  8
0
 62
     0
 10
21.5263
 20
33.6434
 30
0.0
 11
21.5263
 21
33.044
 31
0.0
  0
LINE
  8
0
 62
     0
 10
21.5263
 20
33.044
 30
0.0
 11
20.7271
 21
33.044
 31
0.0
  0
LINE
  8
0
 62
     0
 10
20.7271
 20
33.044
 30
0.0
 11
20.7271
 21
29.9434
 31
0.0
  0
LINE
  8
0
 62
     0
 10
20.7271
 20
29.9434
 30
0.0
 11
21.5263
 21
29.9434
 31
0.0
  0
LINE
  8
0
 62
     0
 10
21.5263
 20
29.9434
 30
0.0
 11
21.5263
 21
28.9429
 31
0.0
  0
LINE
  8
0
 62
     0
 10
21.5263
 20
28.9429
 30
0.0
 11
35.5258
 21
28.9429
 31
0.0
  0
LINE
  8
0
 62
     0
 10
35.5258
 20
28.9429
 30
0.0
 11
35.5258
 21
29.9434
 31
0.0
  0
LINE
  8
0
 62
     0
 10
35.5258
 20
29.9434
 30
0.0
 11
36.3266
 21
29.9434
 31
0.0
  0
LINE
  8
0
 62
     0
 10
36.3266
 20
29.9434
 30
0.0
 11
36.3266
 21
33.044
 31
0.0
  0
LINE
  8
0
 62
     0
 10
36.3266
 20
33.044
 30
0.0
 11
35.5258
 21
33.044
 31
0.0
  0
LINE
  8
0
 62
     0
 10
35.5258
 20
33.044
 30
0.0
 11
35.5258
 21
33.6434
 31
0.0
  0
LINE
  8
0
 62
     0
 10
35.5258
 20
33.6434
 30
0.0
 11
37.0512
 21
33.6434
 31
0.0
  0
LINE
  8
0
 62
     0
 10
37.0512
 20
33.6434
 30
0.0
 11
37.0512
 21
29.1731
 31
0.0
  0
LINE
  8
0
 62
     0
 10
37.0512
 20
29.1731
 30
0.0
 11
38.7766
 21
29.1731
 31
0.0
  0
LINE
  8
0
 62
     0
 10
38.7766
 20
29.1731
 30
0.0
 11
38.7766
 21
27.9728
 31
0.0
  0
LINE
  8
0
 62
     0
 10
38.7766
 20
27.9728
 30
0.0
 11
42.0769
 21
27.9728
 31
0.0
  0
LINE
  8
0
 62
     0
 10
42.0769
 20
27.9728
 30
0.0
 11
42.0769
 21
29.1731
 31
0.0
  0
LINE
  8
0
 62
     0
 10
42.0769
 20
29.1731
 30
0.0
 11
43.8009
 21
29.1731
 31
0.0
  0
LINE
  8
0
 62
     0
 10
43.8009
 20
29.1731
 30
0.0
 11
43.8009
 21
35.4432
 31
0.0
  0
LINE
  8
0
 62
     0
 10
43.8009
 20
35.4432
 30
0.0
 11
44.6264
 21
35.4432
 31
0.0
  0
LINE
  8
0
 62
     0
 10
44.6264
 20
35.4432
 30
0.0
 11
44.6264
 21
38.2432
 31
0.0
  0
LINE
  8
0
 62
     0
 10
44.6264
 20
38.2432
 30
0.0
 11
43.8009
 21
38.2432
 31
0.0
  0
LINE
  8
0
 62
     0
 10
43.8009
 20
38.2432
 30
0.0
 11
43.8009
 21
41.4736
 31
0.0
  0
LINE
  8
0
 62
     0
 10
43.8009
 20
41.4736
 30
0.0
 11
37.0512
 21
41.4736
 31
0.0
  0
LINE
  8
0
 62
     0
 10
37.0512
 20
41.4736
 30
0.0
 11
37.0512
 21
38.2432
 31
0.0
  0
LINE
  8
0
 62
     0
 10
37.0512
 20
38.2432
 30
0.0
 11
35.5258
 21
38.2432
 31
0.0
  0
LINE
  8
0
 62
     0
 10
35.5258
 20
38.2432
 30
0.0
 11
35.5258
 21
38.844
 31
0.0
  0
LINE
  8
0
 62
     0
 10
35.5258
 20
38.844
 30
0.0
 11
36.3266
 21
38.844
 31
0.0
  0
LINE
  8
0
 62
     0
 10
36.3266
 20
38.844
 30
0.0
 11
36.3266
 21
41.9435
 31
0.0
  0
LINE
  8
0
 62
     0
 10
36.3266
 20
41.9435
 30
0.0
 11
35.5258
 21
41.9435
 31
0.0
  0
LINE
  8
0
 62
     0
 10
35.5258
 20
41.9435
 30
0.0
 11
35.5258
 21
42.9436
 31
0.0
  0
LINE
  8
0
 62
     0
 10
35.5258
 20
42.9436
 30
0.0
 11
21.5263
 21
42.9436
 31
0.0
  0
LINE
  8
0
 62
     0
 10
333.47
 20
42.9436
 30
0.0
 11
333.47
 21
41.9435
 31
0.0
  0
LINE
  8
0
 62
     0
 10
333.47
 20
41.9435
 30
0.0
 11
332.671
 21
41.9435
 31
0.0
  0
LINE
  8
0
 62
     0
 10
332.671
 20
41.9435
 30
0.0
 11
332.671
 21
38.844
 31
0.0
  0
LINE
  8
0
 62
     0
 10
332.671
 20
38.844
 30
0.0
 11
333.47
 21
38.844
 31
0.0
  0
LINE
  8
0
 62
     0
 10
333.47
 20
38.844
 30
0.0
 11
333.47
 21
33.044
 31
0.0
  0
LINE
  8
0
 62
     0
 10
333.47
 20
33.044
 30
0.0
 11
332.671
 21
33.044
 31
0.0
  0
LINE
  8
0
 62
     0
 10
332.671
 20
33.044
 30
0.0
 11
332.671
 21
29.9434
 31
0.0
  0
LINE
  8
0
 62
     0
 10
332.671
 20
29.9434
 30
0.0
 11
333.47
 21
29.9434
 31
0.0
  0
LINE
  8
0
 62
     0
 10
333.47
 20
29.9434
 30
0.0
 11
333.47
 21
28.9429
 31
0.0
  0
LINE
  8
0
 62
     0
 10
333.47
 20
28.9429
 30
0.0
 11
347.471
 21
28.9429
 31
0.0
  0
LINE
  8
0
 62
     0
 10
347.471
 20
28.9429
 30
0.0
 11
347.471
 21
29.9434
 31
0.0
  0
LINE
  8
0
 62
     0
 10
347.471
 20
29.9434
 30
0.0
 11
348.27
 21
29.9434
 31
0.0
  0
LINE
  8
0
 62
     0
 10
348.27
 20
29.9434
 30
0.0
 11
348.27
 21
33.044
 31
0.0
  0
LINE
  8
0
 62
     0
 10
348.27
 20
33.044
 30
0.0
 11
347.471
 21
33.044
 31
0.0
  0
LINE
  8
0
 62
     0
 10
347.471
 20
33.044
 30
0.0
 11
347.471
 21
38.844
 31
0.0
  0
LINE
  8
0
 62
     0
 10
347.471
 20
38.844
 30
0.0
 11
348.27
 21
38.844
 31
0.0
  0
LINE
  8
0
 62
     0
 10
348.27
 20
38.844
 30
0.0
 11
348.27
 21
41.9435
 31
0.0
  0
LINE
  8
0
 62
     0
 10
348.27
 20
41.9435
 30
0.0
 11
347.471
 21
41.9435
 31
0.0
  0
LINE
  8
0
 62
     0
 10
347.471
 20
41.9435
 30
0.0
 11
347.471
 21
42.9436
 31
0.0
  0
LINE
  8
0
 62
     0
 10
347.471
 20
42.9436
 30
0.0
 11
333.47
 21
42.9436
 31
0.0
  0
LINE
  8
0
 62
     0
 10
314.42
 20
42.9436
 30
0.0
 11
314.42
 21
41.9435
 31
0.0
  0
LINE
  8
0
 62
     0
 10
314.42
 20
41.9435
 30
0.0
 11
313.621
 21
41.9435
 31
0.0
  0
LINE
  8
0
 62
     0
 10
313.621
 20
41.9435
 30
0.0
 11
313.621
 21
38.844
 31
0.0
  0
LINE
  8
0
 62
     0
 10
313.621
 20
38.844
 30
0.0
 11
314.42
 21
38.844
 31
0.0
  0
LINE
  8
0
 62
     0
 10
314.42
 20
38.844
 30
0.0
 11
314.42
 21
33.044
 31
0.0
  0
LINE
  8
0
 62
     0
 10
314.42
 20
33.044
 30
0.0
 11
313.621
 21
33.044
 31
0.0
  0
LINE
  8
0
 62
     0
 10
313.621
 20
33.044
 30
0.0
 11
313.621
 21
29.9434
 31
0.0
  0
LINE
  8
0
 62
     0
 10
313.621
 20
29.9434
 30
0.0
 11
314.42
 21
29.9434
 31
0.0
  0
LINE
  8
0
 62
     0
 10
314.42
 20
29.9434
 30
0.0
 11
314.42
 21
28.9429
 31
0.0
  0
LINE
  8
0
 62
     0
 10
314.42
 20
28.9429
 30
0.0
 11
328.421
 21
28.9429
 31
0.0
  0
LINE
  8
0
 62
     0
 10
328.421
 20
28.9429
 30
0.0
 11
328.421
 21
29.9434
 31
0.0
  0
LINE
  8
0
 62
     0
 10
328.421
 20
29.9434
 30
0.0
 11
329.22
 21
29.9434
 31
0.0
  0
LINE
  8
0
 62
     0
 10
329.22
 20
29.9434
 30
0.0
 11
329.22
 21
33.044
 31
0.0
  0
LINE
  8
0
 62
     0
 10
329.22
 20
33.044
 30
0.0
 11
328.421
 21
33.044
 31
0.0
  0
LINE
  8
0
 62
     0
 10
328.421
 20
33.044
 30
0.0
 11
328.421
 21
38.844
 31
0.0
  0
LINE
  8
0
 62
     0
 10
328.421
 20
38.844
 30
0.0
 11
329.22
 21
38.844
 31
0.0
  0
LINE
  8
0
 62
     0
 10
329.22
 20
38.844
 30
0.0
 11
329.22
 21
41.9435
 31
0.0
  0
LINE
  8
0
 62
     0
 10
329.22
 20
41.9435
 30
0.0
 11
328.421
 21
41.9435
 31
0.0
  0
LINE
  8
0
 62
     0
 10
328.421
 20
41.9435
 30
0.0
 11
328.421
 21
42.9436
 31
0.0
  0
LINE
  8
0
 62
     0
 10
328.421
 20
42.9436
 30
0.0
 11
314.42
 21
42.9436
 31
0.0
  0
LINE
  8
0
 62
     0
 10
295.37
 20
42.9436
 30
0.0
 11
295.37
 21
41.9435
 31
0.0
  0
LINE
  8
0
 62
     0
 10
295.37
 20
41.9435
 30
0.0
 11
294.571
 21
41.9435
 31
0.0
  0
LINE
  8
0
 62
     0
 10
294.571
 20
41.9435
 30
0.0
 11
294.571
 21
38.844
 31
0.0
  0
LINE
  8
0
 62
     0
 10
294.571
 20
38.844
 30
0.0
 11
295.37
 21
38.844
 31
0.0
  0
LINE
  8
0
 62
     0
 10
295.37
 20
38.844
 30
0.0
 11
295.37
 21
33.044
 31
0.0
  0
LINE
  8
0
 62
     0
 10
295.37
 20
33.044
 30
0.0
 11
294.571
 21
33.044
 31
0.0
  0
LINE
  8
0
 62
     0
 10
294.571
 20
33.044
 30
0.0
 11
294.571
 21
29.9434
 31
0.0
  0
LINE
  8
0
 62
     0
 10
294.571
 20
29.9434
 30
0.0
 11
295.37
 21
29.9434
 31
0.0
  0
LINE
  8
0
 62
     0
 10
295.37
 20
29.9434
 30
0.0
 11
295.37
 21
28.9429
 31
0.0
  0
LINE
  8
0
 62
     0
 10
295.37
 20
28.9429
 30
0.0
 11
309.371
 21
28.9429
 31
0.0
  0
LINE
  8
0
 62
     0
 10
309.371
 20
28.9429
 30
0.0
 11
309.371
 21
29.9434
 31
0.0
  0
LINE
  8
0
 62
     0
 10
309.371
 20
29.9434
 30
0.0
 11
310.17
 21
29.9434
 31
0.0
  0
LINE
  8
0
 62
     0
 10
310.17
 20
29.9434
 30
0.0
 11
310.17
 21
33.044
 31
0.0
  0
LINE
  8
0
 62
     0
 10
310.17
 20
33.044
 30
0.0
 11
309.371
 21
33.044
 31
0.0
  0
LINE
  8
0
 62
     0
 10
309.371
 20
33.044
 30
0.0
 11
309.371
 21
38.844
 31
0.0
  0
LINE
  8
0
 62
     0
 10
309.371
 20
38.844
 30
0.0
 11
310.17
 21
38.844
 31
0.0
  0
LINE
  8
0
 62
     0
 10
310.17
 20
38.844
 30
0.0
 11
310.17
 21
41.9435
 31
0.0
  0
LINE
  8
0
 62
     0
 10
310.17
 20
41.9435
 30
0.0
 11
309.371
 21
41.9435
 31
0.0
  0
LINE
  8
0
 62
     0
 10
309.371
 20
41.9435
 30
0.0
 11
309.371
 21
42.9436
 31
0.0
  0
LINE
  8
0
 62
     0
 10
309.371
 20
42.9436
 30
0.0
 11
295.37
 21
42.9436
 31
0.0
  0
LINE
  8
0
 62
     0
 10
223.933
 20
42.9436
 30
0.0
 11
223.933
 21
41.9435
 31
0.0
  0
LINE
  8
0
 62
     0
 10
223.933
 20
41.9435
 30
0.0
 11
223.132
 21
41.9435
 31
0.0
  0
LINE
  8
0
 62
     0
 10
223.132
 20
41.9435
 30
0.0
 11
223.132
 21
38.844
 31
0.0
  0
LINE
  8
0
 62
     0
 10
223.132
 20
38.844
 30
0.0
 11
223.933
 21
38.844
 31
0.0
  0
LINE
  8
0
 62
     0
 10
223.933
 20
38.844
 30
0.0
 11
223.933
 21
33.044
 31
0.0
  0
LINE
  8
0
 62
     0
 10
223.933
 20
33.044
 30
0.0
 11
223.132
 21
33.044
 31
0.0
  0
LINE
  8
0
 62
     0
 10
223.132
 20
33.044
 30
0.0
 11
223.132
 21
29.9434
 31
0.0
  0
LINE
  8
0
 62
     0
 10
223.132
 20
29.9434
 30
0.0
 11
223.933
 21
29.9434
 31
0.0
  0
LINE
  8
0
 62
     0
 10
223.933
 20
29.9434
 30
0.0
 11
223.933
 21
28.9429
 31
0.0
  0
LINE
  8
0
 62
     0
 10
223.933
 20
28.9429
 30
0.0
 11
237.932
 21
28.9429
 31
0.0
  0
LINE
  8
0
 62
     0
 10
237.932
 20
28.9429
 30
0.0
 11
237.932
 21
29.9434
 31
0.0
  0
LINE
  8
0
 62
     0
 10
237.932
 20
29.9434
 30
0.0
 11
238.733
 21
29.9434
 31
0.0
  0
LINE
  8
0
 62
     0
 10
238.733
 20
29.9434
 30
0.0
 11
238.733
 21
33.044
 31
0.0
  0
LINE
  8
0
 62
     0
 10
238.733
 20
33.044
 30
0.0
 11
237.932
 21
33.044
 31
0.0
  0
LINE
  8
0
 62
     0
 10
237.932
 20
33.044
 30
0.0
 11
237.932
 21
38.844
 31
0.0
  0
LINE
  8
0
 62
     0
 10
237.932
 20
38.844
 30
0.0
 11
238.733
 21
38.844
 31
0.0
  0
LINE
  8
0
 62
     0
 10
238.733
 20
38.844
 30
0.0
 11
238.733
 21
41.9435
 31
0.0
  0
LINE
  8
0
 62
     0
 10
238.733
 20
41.9435
 30
0.0
 11
237.932
 21
41.9435
 31
0.0
  0
LINE
  8
0
 62
     0
 10
237.932
 20
41.9435
 30
0.0
 11
237.932
 21
42.9436
 31
0.0
  0
LINE
  8
0
 62
     0
 10
237.932
 20
42.9436
 30
0.0
 11
223.933
 21
42.9436
 31
0.0
  0
LINE
  8
0
 62
     0
 10
204.883
 20
42.9436
 30
0.0
 11
204.883
 21
41.9435
 31
0.0
  0
LINE
  8
0
 62
     0
 10
204.883
 20
41.9435
 30
0.0
 11
204.082
 21
41.9435
 31
0.0
  0
LINE
  8
0
 62
     0
 10
204.082
 20
41.9435
 30
0.0
 11
204.082
 21
38.844
 31
0.0
  0
LINE
  8
0
 62
     0
 10
204.082
 20
38.844
 30
0.0
 11
204.883
 21
38.844
 31
0.0
  0
LINE
  8
0
 62
     0
 10
204.883
 20
38.844
 30
0.0
 11
204.883
 21
33.044
 31
0.0
  0
LINE
  8
0
 62
     0
 10
204.883
 20
33.044
 30
0.0
 11
204.082
 21
33.044
 31
0.0
  0
LINE
  8
0
 62
     0
 10
204.082
 20
33.044
 30
0.0
 11
204.082
 21
29.9434
 31
0.0
  0
LINE
  8
0
 62
     0
 10
204.082
 20
29.9434
 30
0.0
 11
204.883
 21
29.9434
 31
0.0
  0
LINE
  8
0
 62
     0
 10
204.883
 20
29.9434
 30
0.0
 11
204.883
 21
28.9429
 31
0.0
  0
LINE
  8
0
 62
     0
 10
204.883
 20
28.9429
 30
0.0
 11
218.882
 21
28.9429
 31
0.0
  0
LINE
  8
0
 62
     0
 10
218.882
 20
28.9429
 30
0.0
 11
218.882
 21
29.9434
 31
0.0
  0
LINE
  8
0
 62
     0
 10
218.882
 20
29.9434
 30
0.0
 11
219.683
 21
29.9434
 31
0.0
  0
LINE
  8
0
 62
     0
 10
219.683
 20
29.9434
 30
0.0
 11
219.683
 21
33.044
 31
0.0
  0
LINE
  8
0
 62
     0
 10
219.683
 20
33.044
 30
0.0
 11
218.882
 21
33.044
 31
0.0
  0
LINE
  8
0
 62
     0
 10
218.882
 20
33.044
 30
0.0
 11
218.882
 21
38.844
 31
0.0
  0
LINE
  8
0
 62
     0
 10
218.882
 20
38.844
 30
0.0
 11
219.683
 21
38.844
 31
0.0
  0
LINE
  8
0
 62
     0
 10
219.683
 20
38.844
 30
0.0
 11
219.683
 21
41.9435
 31
0.0
  0
LINE
  8
0
 62
     0
 10
219.683
 20
41.9435
 30
0.0
 11
218.882
 21
41.9435
 31
0.0
  0
LINE
  8
0
 62
     0
 10
218.882
 20
41.9435
 30
0.0
 11
218.882
 21
42.9436
 31
0.0
  0
LINE
  8
0
 62
     0
 10
218.882
 20
42.9436
 30
0.0
 11
204.883
 21
42.9436
 31
0.0
  0
LINE
  8
0
 62
     0
 10
185.833
 20
42.9436
 30
0.0
 11
185.833
 21
41.9435
 31
0.0
  0
LINE
  8
0
 62
     0
 10
185.833
 20
41.9435
 30
0.0
 11
185.032
 21
41.9435
 31
0.0
  0
LINE
  8
0
 62
     0
 10
185.032
 20
41.9435
 30
0.0
 11
185.032
 21
38.844
 31
0.0
  0
LINE
  8
0
 62
     0
 10
185.032
 20
38.844
 30
0.0
 11
185.833
 21
38.844
 31
0.0
  0
LINE
  8
0
 62
     0
 10
185.833
 20
38.844
 30
0.0
 11
185.833
 21
33.044
 31
0.0
  0
LINE
  8
0
 62
     0
 10
185.833
 20
33.044
 30
0.0
 11
185.032
 21
33.044
 31
0.0
  0
LINE
  8
0
 62
     0
 10
185.032
 20
33.044
 30
0.0
 11
185.032
 21
29.9434
 31
0.0
  0
LINE
  8
0
 62
     0
 10
185.032
 20
29.9434
 30
0.0
 11
185.833
 21
29.9434
 31
0.0
  0
LINE
  8
0
 62
     0
 10
185.833
 20
29.9434
 30
0.0
 11
185.833
 21
28.9429
 31
0.0
  0
LINE
  8
0
 62
     0
 10
185.833
 20
28.9429
 30
0.0
 11
199.832
 21
28.9429
 31
0.0
  0
LINE
  8
0
 62
     0
 10
199.832
 20
28.9429
 30
0.0
 11
199.832
 21
29.9434
 31
0.0
  0
LINE
  8
0
 62
     0
 10
199.832
 20
29.9434
 30
0.0
 11
200.633
 21
29.9434
 31
0.0
  0
LINE
  8
0
 62
     0
 10
200.633
 20
29.9434
 30
0.0
 11
200.633
 21
33.044
 31
0.0
  0
LINE
  8
0
 62
     0
 10
200.633
 20
33.044
 30
0.0
 11
199.832
 21
33.044
 31
0.0
  0
LINE
  8
0
 62
     0
 10
199.832
 20
33.044
 30
0.0
 11
199.832
 21
38.844
 31
0.0
  0
LINE
  8
0
 62
     0
 10
199.832
 20
38.844
 30
0.0
 11
200.633
 21
38.844
 31
0.0
  0
LINE
  8
0
 62
     0
 10
200.633
 20
38.844
 30
0.0
 11
200.633
 21
41.9435
 31
0.0
  0
LINE
  8
0
 62
     0
 10
200.633
 20
41.9435
 30
0.0
 11
199.832
 21
41.9435
 31
0.0
  0
LINE
  8
0
 62
     0
 10
199.832
 20
41.9435
 30
0.0
 11
199.832
 21
42.9436
 31
0.0
  0
LINE
  8
0
 62
     0
 10
199.832
 20
42.9436
 30
0.0
 11
185.833
 21
42.9436
 31
0.0
  0
LINE
  8
0
 62
     0
 10
166.783
 20
42.9436
 30
0.0
 11
166.783
 21
41.9435
 31
0.0
  0
LINE
  8
0
 62
     0
 10
166.783
 20
41.9435
 30
0.0
 11
165.982
 21
41.9435
 31
0.0
  0
LINE
  8
0
 62
     0
 10
165.982
 20
41.9435
 30
0.0
 11
165.982
 21
38.844
 31
0.0
  0
LINE
  8
0
 62
     0
 10
165.982
 20
38.844
 30
0.0
 11
166.783
 21
38.844
 31
0.0
  0
LINE
  8
0
 62
     0
 10
166.783
 20
38.844
 30
0.0
 11
166.783
 21
33.044
 31
0.0
  0
LINE
  8
0
 62
     0
 10
166.783
 20
33.044
 30
0.0
 11
165.982
 21
33.044
 31
0.0
  0
LINE
  8
0
 62
     0
 10
165.982
 20
33.044
 30
0.0
 11
165.982
 21
29.9434
 31
0.0
  0
LINE
  8
0
 62
     0
 10
165.982
 20
29.9434
 30
0.0
 11
166.783
 21
29.9434
 31
0.0
  0
LINE
  8
0
 62
     0
 10
166.783
 20
29.9434
 30
0.0
 11
166.783
 21
28.9429
 31
0.0
  0
LINE
  8
0
 62
     0
 10
166.783
 20
28.9429
 30
0.0
 11
180.782
 21
28.9429
 31
0.0
  0
LINE
  8
0
 62
     0
 10
180.782
 20
28.9429
 30
0.0
 11
180.782
 21
29.9434
 31
0.0
  0
LINE
  8
0
 62
     0
 10
180.782
 20
29.9434
 30
0.0
 11
181.583
 21
29.9434
 31
0.0
  0
LINE
  8
0
 62
     0
 10
181.583
 20
29.9434
 30
0.0
 11
181.583
 21
33.044
 31
0.0
  0
LINE
  8
0
 62
     0
 10
181.583
 20
33.044
 30
0.0
 11
180.782
 21
33.044
 31
0.0
  0
LINE
  8
0
 62
     0
 10
180.782
 20
33.044
 30
0.0
 11
180.782
 21
38.844
 31
0.0
  0
LINE
  8
0
 62
     0
 10
180.782
 20
38.844
 30
0.0
 11
181.583
 21
38.844
 31
0.0
  0
LINE
  8
0
 62
     0
 10
181.583
 20
38.844
 30
0.0
 11
181.583
 21
41.9435
 31
0.0
  0
LINE
  8
0
 62
     0
 10
181.583
 20
41.9435
 30
0.0
 11
180.782
 21
41.9435
 31
0.0
  0
LINE
  8
0
 62
     0
 10
180.782
 20
41.9435
 30
0.0
 11
180.782
 21
42.9436
 31
0.0
  0
LINE
  8
0
 62
     0
 10
180.782
 20
42.9436
 30
0.0
 11
166.783
 21
42.9436
 31
0.0
  0
LINE
  8
0
 62
     0
 10
147.733
 20
42.9436
 30
0.0
 11
147.733
 21
41.9435
 31
0.0
  0
LINE
  8
0
 62
     0
 10
147.733
 20
41.9435
 30
0.0
 11
146.932
 21
41.9435
 31
0.0
  0
LINE
  8
0
 62
     0
 10
146.932
 20
41.9435
 30
0.0
 11
146.932
 21
38.844
 31
0.0
  0
LINE
  8
0
 62
     0
 10
146.932
 20
38.844
 30
0.0
 11
147.733
 21
38.844
 31
0.0
  0
LINE
  8
0
 62
     0
 10
147.733
 20
38.844
 30
0.0
 11
147.733
 21
33.044
 31
0.0
  0
LINE
  8
0
 62
     0
 10
147.733
 20
33.044
 30
0.0
 11
146.932
 21
33.044
 31
0.0
  0
LINE
  8
0
 62
     0
 10
146.932
 20
33.044
 30
0.0
 11
146.932
 21
29.9434
 31
0.0
  0
LINE
  8
0
 62
     0
 10
146.932
 20
29.9434
 30
0.0
 11
147.733
 21
29.9434
 31
0.0
  0
LINE
  8
0
 62
     0
 10
147.733
 20
29.9434
 30
0.0
 11
147.733
 21
28.9429
 31
0.0
  0
LINE
  8
0
 62
     0
 10
147.733
 20
28.9429
 30
0.0
 11
161.732
 21
28.9429
 31
0.0
  0
LINE
  8
0
 62
     0
 10
161.732
 20
28.9429
 30
0.0
 11
161.732
 21
29.9434
 31
0.0
  0
LINE
  8
0
 62
     0
 10
161.732
 20
29.9434
 30
0.0
 11
162.533
 21
29.9434
 31
0.0
  0
LINE
  8
0
 62
     0
 10
162.533
 20
29.9434
 30
0.0
 11
162.533
 21
33.044
 31
0.0
  0
LINE
  8
0
 62
     0
 10
162.533
 20
33.044
 30
0.0
 11
161.732
 21
33.044
 31
0.0
  0
LINE
  8
0
 62
     0
 10
161.732
 20
33.044
 30
0.0
 11
161.732
 21
38.844
 31
0.0
  0
LINE
  8
0
 62
     0
 10
161.732
 20
38.844
 30
0.0
 11
162.533
 21
38.844
 31
0.0
  0
LINE
  8
0
 62
     0
 10
162.533
 20
38.844
 30
0.0
 11
162.533
 21
41.9435
 31
0.0
  0
LINE
  8
0
 62
     0
 10
162.533
 20
41.9435
 30
0.0
 11
161.732
 21
41.9435
 31
0.0
  0
LINE
  8
0
 62
     0
 10
161.732
 20
41.9435
 30
0.0
 11
161.732
 21
42.9436
 31
0.0
  0
LINE
  8
0
 62
     0
 10
161.732
 20
42.9436
 30
0.0
 11
147.733
 21
42.9436
 31
0.0
  0
LINE
  8
0
 62
     0
 10
128.683
 20
42.9436
 30
0.0
 11
128.683
 21
41.9435
 31
0.0
  0
LINE
  8
0
 62
     0
 10
128.683
 20
41.9435
 30
0.0
 11
127.882
 21
41.9435
 31
0.0
  0
LINE
  8
0
 62
     0
 10
127.882
 20
41.9435
 30
0.0
 11
127.882
 21
38.844
 31
0.0
  0
LINE
  8
0
 62
     0
 10
127.882
 20
38.844
 30
0.0
 11
128.683
 21
38.844
 31
0.0
  0
LINE
  8
0
 62
     0
 10
128.683
 20
38.844
 30
0.0
 11
128.683
 21
33.044
 31
0.0
  0
LINE
  8
0
 62
     0
 10
128.683
 20
33.044
 30
0.0
 11
127.882
 21
33.044
 31
0.0
  0
LINE
  8
0
 62
     0
 10
127.882
 20
33.044
 30
0.0
 11
127.882
 21
29.9434
 31
0.0
  0
LINE
  8
0
 62
     0
 10
127.882
 20
29.9434
 30
0.0
 11
128.683
 21
29.9434
 31
0.0
  0
LINE
  8
0
 62
     0
 10
128.683
 20
29.9434
 30
0.0
 11
128.683
 21
28.9429
 31
0.0
  0
LINE
  8
0
 62
     0
 10
128.683
 20
28.9429
 30
0.0
 11
142.682
 21
28.9429
 31
0.0
  0
LINE
  8
0
 62
     0
 10
142.682
 20
28.9429
 30
0.0
 11
142.682
 21
29.9434
 31
0.0
  0
LINE
  8
0
 62
     0
 10
142.682
 20
29.9434
 30
0.0
 11
143.483
 21
29.9434
 31
0.0
  0
LINE
  8
0
 62
     0
 10
143.483
 20
29.9434
 30
0.0
 11
143.483
 21
33.044
 31
0.0
  0
LINE
  8
0
 62
     0
 10
143.483
 20
33.044
 30
0.0
 11
142.682
 21
33.044
 31
0.0
  0
LINE
  8
0
 62
     0
 10
142.682
 20
33.044
 30
0.0
 11
142.682
 21
38.844
 31
0.0
  0
LINE
  8
0
 62
     0
 10
142.682
 20
38.844
 30
0.0
 11
143.483
 21
38.844
 31
0.0
  0
LINE
  8
0
 62
     0
 10
143.483
 20
38.844
 30
0.0
 11
143.483
 21
41.9435
 31
0.0
  0
LINE
  8
0
 62
     0
 10
143.483
 20
41.9435
 30
0.0
 11
142.682
 21
41.9435
 31
0.0
  0
LINE
  8
0
 62
     0
 10
142.682
 20
41.9435
 30
0.0
 11
142.682
 21
42.9436
 31
0.0
  0
LINE
  8
0
 62
     0
 10
142.682
 20
42.9436
 30
0.0
 11
128.683
 21
42.9436
 31
0.0
  0
LINE
  8
0
 62
     0
 10
109.633
 20
42.9436
 30
0.0
 11
109.633
 21
41.9435
 31
0.0
  0
LINE
  8
0
 62
     0
 10
109.633
 20
41.9435
 30
0.0
 11
108.832
 21
41.9435
 31
0.0
  0
LINE
  8
0
 62
     0
 10
108.832
 20
41.9435
 30
0.0
 11
108.832
 21
38.844
 31
0.0
  0
LINE
  8
0
 62
     0
 10
108.832
 20
38.844
 30
0.0
 11
109.633
 21
38.844
 31
0.0
  0
LINE
  8
0
 62
     0
 10
109.633
 20
38.844
 30
0.0
 11
109.633
 21
33.044
 31
0.0
  0
LINE
  8
0
 62
     0
 10
109.633
 20
33.044
 30
0.0
 11
108.832
 21
33.044
 31
0.0
  0
LINE
  8
0
 62
     0
 10
108.832
 20
33.044
 30
0.0
 11
108.832
 21
29.9434
 31
0.0
  0
LINE
  8
0
 62
     0
 10
108.832
 20
29.9434
 30
0.0
 11
109.633
 21
29.9434
 31
0.0
  0
LINE
  8
0
 62
     0
 10
109.633
 20
29.9434
 30
0.0
 11
109.633
 21
28.9429
 31
0.0
  0
LINE
  8
0
 62
     0
 10
109.633
 20
28.9429
 30
0.0
 11
123.632
 21
28.9429
 31
0.0
  0
LINE
  8
0
 62
     0
 10
123.632
 20
28.9429
 30
0.0
 11
123.632
 21
29.9434
 31
0.0
  0
LINE
  8
0
 62
     0
 10
123.632
 20
29.9434
 30
0.0
 11
124.431
 21
29.9434
 31
0.0
  0
LINE
  8
0
 62
     0
 10
124.431
 20
29.9434
 30
0.0
 11
124.431
 21
33.044
 31
0.0
  0
LINE
  8
0
 62
     0
 10
124.431
 20
33.044
 30
0.0
 11
123.632
 21
33.044
 31
0.0
  0
LINE
  8
0
 62
     0
 10
123.632
 20
33.044
 30
0.0
 11
123.632
 21
38.844
 31
0.0
  0
LINE
  8
0
 62
     0
 10
123.632
 20
38.844
 30
0.0
 11
124.431
 21
38.844
 31
0.0
  0
LINE
  8
0
 62
     0
 10
124.431
 20
38.844
 30
0.0
 11
124.431
 21
41.9435
 31
0.0
  0
LINE
  8
0
 62
     0
 10
124.431
 20
41.9435
 30
0.0
 11
123.632
 21
41.9435
 31
0.0
  0
LINE
  8
0
 62
     0
 10
123.632
 20
41.9435
 30
0.0
 11
123.632
 21
42.9436
 31
0.0
  0
LINE
  8
0
 62
     0
 10
123.632
 20
42.9436
 30
0.0
 11
109.633
 21
42.9436
 31
0.0
  0
LINE
  8
0
 62
     0
 10
90.5827
 20
42.9436
 30
0.0
 11
90.5827
 21
41.9435
 31
0.0
  0
LINE
  8
0
 62
     0
 10
90.5827
 20
41.9435
 30
0.0
 11
89.7819
 21
41.9435
 31
0.0
  0
LINE
  8
0
 62
     0
 10
89.7819
 20
41.9435
 30
0.0
 11
89.7819
 21
38.844
 31
0.0
  0
LINE
  8
0
 62
     0
 10
89.7819
 20
38.844
 30
0.0
 11
90.5827
 21
38.844
 31
0.0
  0
LINE
  8
0
 62
     0
 10
90.5827
 20
38.844
 30
0.0
 11
90.5827
 21
33.044
 31
0.0
  0
LINE
  8
0
 62
     0
 10
90.5827
 20
33.044
 30
0.0
 11
89.7819
 21
33.044
 31
0.0
  0
LINE
  8
0
 62
     0
 10
89.7819
 20
33.044
 30
0.0
 11
89.7819
 21
29.9434
 31
0.0
  0
LINE
  8
0
 62
     0
 10
89.7819
 20
29.9434
 30
0.0
 11
90.5827
 21
29.9434
 31
0.0
  0
LINE
  8
0
 62
     0
 10
90.5827
 20
29.9434
 30
0.0
 11
90.5827
 21
28.9429
 31
0.0
  0
LINE
  8
0
 62
     0
 10
90.5827
 20
28.9429
 30
0.0
 11
104.582
 21
28.9429
 31
0.0
  0
LINE
  8
0
 62
     0
 10
104.582
 20
28.9429
 30
0.0
 11
104.582
 21
29.9434
 31
0.0
  0
LINE
  8
0
 62
     0
 10
104.582
 20
29.9434
 30
0.0
 11
105.383
 21
29.9434
 31
0.0
  0
LINE
  8
0
 62
     0
 10
105.383
 20
29.9434
 30
0.0
 11
105.383
 21
33.044
 31
0.0
  0
LINE
  8
0
 62
     0
 10
105.383
 20
33.044
 30
0.0
 11
104.582
 21
33.044
 31
0.0
  0
LINE
  8
0
 62
     0
 10
104.582
 20
33.044
 30
0.0
 11
104.582
 21
38.844
 31
0.0
  0
LINE
  8
0
 62
     0
 10
104.582
 20
38.844
 30
0.0
 11
105.383
 21
38.844
 31
0.0
  0
LINE
  8
0
 62
     0
 10
105.383
 20
38.844
 30
0.0
 11
105.383
 21
41.9435
 31
0.0
  0
LINE
  8
0
 62
     0
 10
105.383
 20
41.9435
 30
0.0
 11
104.582
 21
41.9435
 31
0.0
  0
LINE
  8
0
 62
     0
 10
104.582
 20
41.9435
 30
0.0
 11
104.582
 21
42.9436
 31
0.0
  0
LINE
  8
0
 62
     0
 10
104.582
 20
42.9436
 30
0.0
 11
90.5827
 21
42.9436
 31
0.0
  0
LINE
  8
0
 62
     0
 10
71.5328
 20
42.9436
 30
0.0
 11
71.5328
 21
41.9435
 31
0.0
  0
LINE
  8
0
 62
     0
 10
71.5328
 20
41.9435
 30
0.0
 11
70.7319
 21
41.9435
 31
0.0
  0
LINE
  8
0
 62
     0
 10
70.7319
 20
41.9435
 30
0.0
 11
70.7319
 21
38.844
 31
0.0
  0
LINE
  8
0
 62
     0
 10
70.7319
 20
38.844
 30
0.0
 11
71.5328
 21
38.844
 31
0.0
  0
LINE
  8
0
 62
     0
 10
71.5328
 20
38.844
 30
0.0
 11
71.5328
 21
33.044
 31
0.0
  0
LINE
  8
0
 62
     0
 10
71.5328
 20
33.044
 30
0.0
 11
70.7319
 21
33.044
 31
0.0
  0
LINE
  8
0
 62
     0
 10
70.7319
 20
33.044
 30
0.0
 11
70.7319
 21
29.9434
 31
0.0
  0
LINE
  8
0
 62
     0
 10
70.7319
 20
29.9434
 30
0.0
 11
71.5328
 21
29.9434
 31
0.0
  0
LINE
  8
0
 62
     0
 10
71.5328
 20
29.9434
 30
0.0
 11
71.5328
 21
28.9429
 31
0.0
  0
LINE
  8
0
 62
     0
 10
71.5328
 20
28.9429
 30
0.0
 11
85.532
 21
28.9429
 31
0.0
  0
LINE
  8
0
 62
     0
 10
85.532
 20
28.9429
 30
0.0
 11
85.532
 21
29.9434
 31
0.0
  0
LINE
  8
0
 62
     0
 10
85.532
 20
29.9434
 30
0.0
 11
86.3328
 21
29.9434
 31
0.0
  0
LINE
  8
0
 62
     0
 10
86.3328
 20
29.9434
 30
0.0
 11
86.3328
 21
33.044
 31
0.0
  0
LINE
  8
0
 62
     0
 10
86.3328
 20
33.044
 30
0.0
 11
85.532
 21
33.044
 31
0.0
  0
LINE
  8
0
 62
     0
 10
85.532
 20
33.044
 30
0.0
 11
85.532
 21
38.844
 31
0.0
  0
LINE
  8
0
 62
     0
 10
85.532
 20
38.844
 30
0.0
 11
86.3328
 21
38.844
 31
0.0
  0
LINE
  8
0
 62
     0
 10
86.3328
 20
38.844
 30
0.0
 11
86.3328
 21
41.9435
 31
0.0
  0
LINE
  8
0
 62
     0
 10
86.3328
 20
41.9435
 30
0.0
 11
85.532
 21
41.9435
 31
0.0
  0
LINE
  8
0
 62
     0
 10
85.532
 20
41.9435
 30
0.0
 11
85.532
 21
42.9436
 31
0.0
  0
LINE
  8
0
 62
     0
 10
85.532
 20
42.9436
 30
0.0
 11
71.5328
 21
42.9436
 31
0.0
  0
LINE
  8
0
 62
     0
 10
52.4828
 20
42.9436
 30
0.0
 11
52.4828
 21
41.9435
 31
0.0
  0
LINE
  8
0
 62
     0
 10
52.4828
 20
41.9435
 30
0.0
 11
51.6819
 21
41.9435
 31
0.0
  0
LINE
  8
0
 62
     0
 10
51.6819
 20
41.9435
 30
0.0
 11
51.6819
 21
38.844
 31
0.0
  0
LINE
  8
0
 62
     0
 10
51.6819
 20
38.844
 30
0.0
 11
52.4828
 21
38.844
 31
0.0
  0
LINE
  8
0
 62
     0
 10
52.4828
 20
38.844
 30
0.0
 11
52.4828
 21
33.044
 31
0.0
  0
LINE
  8
0
 62
     0
 10
52.4828
 20
33.044
 30
0.0
 11
51.6819
 21
33.044
 31
0.0
  0
LINE
  8
0
 62
     0
 10
51.6819
 20
33.044
 30
0.0
 11
51.6819
 21
29.9434
 31
0.0
  0
LINE
  8
0
 62
     0
 10
51.6819
 20
29.9434
 30
0.0
 11
52.4828
 21
29.9434
 31
0.0
  0
LINE
  8
0
 62
     0
 10
52.4828
 20
29.9434
 30
0.0
 11
52.4828
 21
28.9429
 31
0.0
  0
LINE
  8
0
 62
     0
 10
52.4828
 20
28.9429
 30
0.0
 11
66.482
 21
28.9429
 31
0.0
  0
LINE
  8
0
 62
     0
 10
66.482
 20
28.9429
 30
0.0
 11
66.482
 21
29.9434
 31
0.0
  0
LINE
  8
0
 62
     0
 10
66.482
 20
29.9434
 30
0.0
 11
67.2828
 21
29.9434
 31
0.0
  0
LINE
  8
0
 62
     0
 10
67.2828
 20
29.9434
 30
0.0
 11
67.2828
 21
33.044
 31
0.0
  0
LINE
  8
0
 62
     0
 10
67.2828
 20
33.044
 30
0.0
 11
66.482
 21
33.044
 31
0.0
  0
LINE
  8
0
 62
     0
 10
66.482
 20
33.044
 30
0.0
 11
66.482
 21
38.844
 31
0.0
  0
LINE
  8
0
 62
     0
 10
66.482
 20
38.844
 30
0.0
 11
67.2828
 21
38.844
 31
0.0
  0
LINE
  8
0
 62
     0
 10
67.2828
 20
38.844
 30
0.0
 11
67.2828
 21
41.9435
 31
0.0
  0
LINE
  8
0
 62
     0
 10
67.2828
 20
41.9435
 30
0.0
 11
66.482
 21
41.9435
 31
0.0
  0
LINE
  8
0
 62
     0
 10
66.482
 20
41.9435
 30
0.0
 11
66.482
 21
42.9436
 31
0.0
  0
LINE
  8
0
 62
     0
 10
66.482
 20
42.9436
 30
0.0
 11
52.4828
 21
42.9436
 31
0.0
  0
LINE
  8
0
 62
     0
 10
264.414
 20
61.9936
 30
0.0
 11
264.414
 21
60.9935
 31
0.0
  0
LINE
  8
0
 62
     0
 10
264.414
 20
60.9935
 30
0.0
 11
263.613
 21
60.9935
 31
0.0
  0
LINE
  8
0
 62
     0
 10
263.613
 20
60.9935
 30
0.0
 11
263.613
 21
57.8926
 31
0.0
  0
LINE
  8
0
 62
     0
 10
263.613
 20
57.8926
 30
0.0
 11
264.414
 21
57.8926
 31
0.0
  0
LINE
  8
0
 62
     0
 10
264.414
 20
57.8926
 30
0.0
 11
264.414
 21
57.2932
 31
0.0
  0
LINE
  8
0
 62
     0
 10
264.414
 20
57.2932
 30
0.0
 11
262.888
 21
57.2932
 31
0.0
  0
LINE
  8
0
 62
     0
 10
262.888
 20
57.2932
 30
0.0
 11
262.888
 21
60.5236
 31
0.0
  0
LINE
  8
0
 62
     0
 10
262.888
 20
60.5236
 30
0.0
 11
256.139
 21
60.5236
 31
0.0
  0
LINE
  8
0
 62
     0
 10
256.139
 20
60.5236
 30
0.0
 11
256.139
 21
57.2932
 31
0.0
  0
LINE
  8
0
 62
     0
 10
256.139
 20
57.2932
 30
0.0
 11
255.313
 21
57.2932
 31
0.0
  0
LINE
  8
0
 62
     0
 10
255.313
 20
57.2932
 30
0.0
 11
255.313
 21
54.4932
 31
0.0
  0
LINE
  8
0
 62
     0
 10
255.313
 20
54.4932
 30
0.0
 11
256.139
 21
54.4932
 31
0.0
  0
LINE
  8
0
 62
     0
 10
256.139
 20
54.4932
 30
0.0
 11
256.139
 21
48.223
 31
0.0
  0
LINE
  8
0
 62
     0
 10
256.139
 20
48.223
 30
0.0
 11
257.864
 21
48.223
 31
0.0
  0
LINE
  8
0
 62
     0
 10
257.864
 20
48.223
 30
0.0
 11
257.864
 21
47.0228
 31
0.0
  0
LINE
  8
0
 62
     0
 10
257.864
 20
47.0228
 30
0.0
 11
261.163
 21
47.0228
 31
0.0
  0
LINE
  8
0
 62
     0
 10
261.163
 20
47.0228
 30
0.0
 11
261.163
 21
48.223
 31
0.0
  0
LINE
  8
0
 62
     0
 10
261.163
 20
48.223
 30
0.0
 11
262.888
 21
48.223
 31
0.0
  0
LINE
  8
0
 62
     0
 10
262.888
 20
48.223
 30
0.0
 11
262.888
 21
52.6934
 31
0.0
  0
LINE
  8
0
 62
     0
 10
262.888
 20
52.6934
 30
0.0
 11
264.414
 21
52.6934
 31
0.0
  0
LINE
  8
0
 62
     0
 10
264.414
 20
52.6934
 30
0.0
 11
264.414
 21
52.094
 31
0.0
  0
LINE
  8
0
 62
     0
 10
264.414
 20
52.094
 30
0.0
 11
263.613
 21
52.094
 31
0.0
  0
LINE
  8
0
 62
     0
 10
263.613
 20
52.094
 30
0.0
 11
263.613
 21
48.9934
 31
0.0
  0
LINE
  8
0
 62
     0
 10
263.613
 20
48.9934
 30
0.0
 11
264.414
 21
48.9934
 31
0.0
  0
LINE
  8
0
 62
     0
 10
264.414
 20
48.9934
 30
0.0
 11
264.414
 21
47.9929
 31
0.0
  0
LINE
  8
0
 62
     0
 10
264.414
 20
47.9929
 30
0.0
 11
278.413
 21
47.9929
 31
0.0
  0
LINE
  8
0
 62
     0
 10
278.413
 20
47.9929
 30
0.0
 11
278.413
 21
48.9934
 31
0.0
  0
LINE
  8
0
 62
     0
 10
278.413
 20
48.9934
 30
0.0
 11
279.214
 21
48.9934
 31
0.0
  0
LINE
  8
0
 62
     0
 10
279.214
 20
48.9934
 30
0.0
 11
279.214
 21
52.094
 31
0.0
  0
LINE
  8
0
 62
     0
 10
279.214
 20
52.094
 30
0.0
 11
278.413
 21
52.094
 31
0.0
  0
LINE
  8
0
 62
     0
 10
278.413
 20
52.094
 30
0.0
 11
278.413
 21
52.6934
 31
0.0
  0
LINE
  8
0
 62
     0
 10
278.413
 20
52.6934
 30
0.0
 11
279.939
 21
52.6934
 31
0.0
  0
LINE
  8
0
 62
     0
 10
279.939
 20
52.6934
 30
0.0
 11
279.939
 21
48.223
 31
0.0
  0
LINE
  8
0
 62
     0
 10
279.939
 20
48.223
 30
0.0
 11
281.664
 21
48.223
 31
0.0
  0
LINE
  8
0
 62
     0
 10
281.664
 20
48.223
 30
0.0
 11
281.664
 21
47.0228
 31
0.0
  0
LINE
  8
0
 62
     0
 10
281.664
 20
47.0228
 30
0.0
 11
284.963
 21
47.0228
 31
0.0
  0
LINE
  8
0
 62
     0
 10
284.963
 20
47.0228
 30
0.0
 11
284.963
 21
48.223
 31
0.0
  0
LINE
  8
0
 62
     0
 10
284.963
 20
48.223
 30
0.0
 11
286.688
 21
48.223
 31
0.0
  0
LINE
  8
0
 62
     0
 10
286.688
 20
48.223
 30
0.0
 11
286.688
 21
54.4932
 31
0.0
  0
LINE
  8
0
 62
     0
 10
286.688
 20
54.4932
 30
0.0
 11
287.514
 21
54.4932
 31
0.0
  0
LINE
  8
0
 62
     0
 10
287.514
 20
54.4932
 30
0.0
 11
287.514
 21
57.2932
 31
0.0
  0
LINE
  8
0
 62
     0
 10
287.514
 20
57.2932
 30
0.0
 11
286.688
 21
57.2932
 31
0.0
  0
LINE
  8
0
 62
     0
 10
286.688
 20
57.2932
 30
0.0
 11
286.688
 21
60.5236
 31
0.0
  0
LINE
  8
0
 62
     0
 10
286.688
 20
60.5236
 30
0.0
 11
279.939
 21
60.5236
 31
0.0
  0
LINE
  8
0
 62
     0
 10
279.939
 20
60.5236
 30
0.0
 11
279.939
 21
57.2932
 31
0.0
  0
LINE
  8
0
 62
     0
 10
279.939
 20
57.2932
 30
0.0
 11
278.413
 21
57.2932
 31
0.0
  0
LINE
  8
0
 62
     0
 10
278.413
 20
57.2932
 30
0.0
 11
278.413
 21
57.8926
 31
0.0
  0
LINE
  8
0
 62
     0
 10
278.413
 20
57.8926
 30
0.0
 11
279.214
 21
57.8926
 31
0.0
  0
LINE
  8
0
 62
     0
 10
279.214
 20
57.8926
 30
0.0
 11
279.214
 21
60.9935
 31
0.0
  0
LINE
  8
0
 62
     0
 10
279.214
 20
60.9935
 30
0.0
 11
278.413
 21
60.9935
 31
0.0
  0
LINE
  8
0
 62
     0
 10
278.413
 20
60.9935
 30
0.0
 11
278.413
 21
61.9936
 31
0.0
  0
LINE
  8
0
 62
     0
 10
278.413
 20
61.9936
 30
0.0
 11
264.414
 21
61.9936
 31
0.0
  0
LINE
  8
0
 62
     0
 10
333.47
 20
61.9936
 30
0.0
 11
333.47
 21
60.9935
 31
0.0
  0
LINE
  8
0
 62
     0
 10
333.47
 20
60.9935
 30
0.0
 11
332.671
 21
60.9935
 31
0.0
  0
LINE
  8
0
 62
     0
 10
332.671
 20
60.9935
 30
0.0
 11
332.671
 21
57.8926
 31
0.0
  0
LINE
  8
0
 62
     0
 10
332.671
 20
57.8926
 30
0.0
 11
333.47
 21
57.8926
 31
0.0
  0
LINE
  8
0
 62
     0
 10
333.47
 20
57.8926
 30
0.0
 11
333.47
 21
52.094
 31
0.0
  0
LINE
  8
0
 62
     0
 10
333.47
 20
52.094
 30
0.0
 11
332.671
 21
52.094
 31
0.0
  0
LINE
  8
0
 62
     0
 10
332.671
 20
52.094
 30
0.0
 11
332.671
 21
48.9934
 31
0.0
  0
LINE
  8
0
 62
     0
 10
332.671
 20
48.9934
 30
0.0
 11
333.47
 21
48.9934
 31
0.0
  0
LINE
  8
0
 62
     0
 10
333.47
 20
48.9934
 30
0.0
 11
333.47
 21
47.9929
 31
0.0
  0
LINE
  8
0
 62
     0
 10
333.47
 20
47.9929
 30
0.0
 11
347.471
 21
47.9929
 31
0.0
  0
LINE
  8
0
 62
     0
 10
347.471
 20
47.9929
 30
0.0
 11
347.471
 21
48.9934
 31
0.0
  0
LINE
  8
0
 62
     0
 10
347.471
 20
48.9934
 30
0.0
 11
348.27
 21
48.9934
 31
0.0
  0
LINE
  8
0
 62
     0
 10
348.27
 20
48.9934
 30
0.0
 11
348.27
 21
52.094
 31
0.0
  0
LINE
  8
0
 62
     0
 10
348.27
 20
52.094
 30
0.0
 11
347.471
 21
52.094
 31
0.0
  0
LINE
  8
0
 62
     0
 10
347.471
 20
52.094
 30
0.0
 11
347.471
 21
57.8926
 31
0.0
  0
LINE
  8
0
 62
     0
 10
347.471
 20
57.8926
 30
0.0
 11
348.27
 21
57.8926
 31
0.0
  0
LINE
  8
0
 62
     0
 10
348.27
 20
57.8926
 30
0.0
 11
348.27
 21
60.9935
 31
0.0
  0
LINE
  8
0
 62
     0
 10
348.27
 20
60.9935
 30
0.0
 11
347.471
 21
60.9935
 31
0.0
  0
LINE
  8
0
 62
     0
 10
347.471
 20
60.9935
 30
0.0
 11
347.471
 21
61.9936
 31
0.0
  0
LINE
  8
0
 62
     0
 10
347.471
 20
61.9936
 30
0.0
 11
333.47
 21
61.9936
 31
0.0
  0
LINE
  8
0
 62
     0
 10
314.42
 20
61.9936
 30
0.0
 11
314.42
 21
60.9935
 31
0.0
  0
LINE
  8
0
 62
     0
 10
314.42
 20
60.9935
 30
0.0
 11
313.621
 21
60.9935
 31
0.0
  0
LINE
  8
0
 62
     0
 10
313.621
 20
60.9935
 30
0.0
 11
313.621
 21
57.8926
 31
0.0
  0
LINE
  8
0
 62
     0
 10
313.621
 20
57.8926
 30
0.0
 11
314.42
 21
57.8926
 31
0.0
  0
LINE
  8
0
 62
     0
 10
314.42
 20
57.8926
 30
0.0
 11
314.42
 21
52.094
 31
0.0
  0
LINE
  8
0
 62
     0
 10
314.42
 20
52.094
 30
0.0
 11
313.621
 21
52.094
 31
0.0
  0
LINE
  8
0
 62
     0
 10
313.621
 20
52.094
 30
0.0
 11
313.621
 21
48.9934
 31
0.0
  0
LINE
  8
0
 62
     0
 10
313.621
 20
48.9934
 30
0.0
 11
314.42
 21
48.9934
 31
0.0
  0
LINE
  8
0
 62
     0
 10
314.42
 20
48.9934
 30
0.0
 11
314.42
 21
47.9929
 31
0.0
  0
LINE
  8
0
 62
     0
 10
314.42
 20
47.9929
 30
0.0
 11
328.421
 21
47.9929
 31
0.0
  0
LINE
  8
0
 62
     0
 10
328.421
 20
47.9929
 30
0.0
 11
328.421
 21
48.9934
 31
0.0
  0
LINE
  8
0
 62
     0
 10
328.421
 20
48.9934
 30
0.0
 11
329.22
 21
48.9934
 31
0.0
  0
LINE
  8
0
 62
     0
 10
329.22
 20
48.9934
 30
0.0
 11
329.22
 21
52.094
 31
0.0
  0
LINE
  8
0
 62
     0
 10
329.22
 20
52.094
 30
0.0
 11
328.421
 21
52.094
 31
0.0
  0
LINE
  8
0
 62
     0
 10
328.421
 20
52.094
 30
0.0
 11
328.421
 21
57.8926
 31
0.0
  0
LINE
  8
0
 62
     0
 10
328.421
 20
57.8926
 30
0.0
 11
329.22
 21
57.8926
 31
0.0
  0
LINE
  8
0
 62
     0
 10
329.22
 20
57.8926
 30
0.0
 11
329.22
 21
60.9935
 31
0.0
  0
LINE
  8
0
 62
     0
 10
329.22
 20
60.9935
 30
0.0
 11
328.421
 21
60.9935
 31
0.0
  0
LINE
  8
0
 62
     0
 10
328.421
 20
60.9935
 30
0.0
 11
328.421
 21
61.9936
 31
0.0
  0
LINE
  8
0
 62
     0
 10
328.421
 20
61.9936
 30
0.0
 11
314.42
 21
61.9936
 31
0.0
  0
LINE
  8
0
 62
     0
 10
295.37
 20
61.9936
 30
0.0
 11
295.37
 21
60.9935
 31
0.0
  0
LINE
  8
0
 62
     0
 10
295.37
 20
60.9935
 30
0.0
 11
294.571
 21
60.9935
 31
0.0
  0
LINE
  8
0
 62
     0
 10
294.571
 20
60.9935
 30
0.0
 11
294.571
 21
57.8926
 31
0.0
  0
LINE
  8
0
 62
     0
 10
294.571
 20
57.8926
 30
0.0
 11
295.37
 21
57.8926
 31
0.0
  0
LINE
  8
0
 62
     0
 10
295.37
 20
57.8926
 30
0.0
 11
295.37
 21
52.094
 31
0.0
  0
LINE
  8
0
 62
     0
 10
295.37
 20
52.094
 30
0.0
 11
294.571
 21
52.094
 31
0.0
  0
LINE
  8
0
 62
     0
 10
294.571
 20
52.094
 30
0.0
 11
294.571
 21
48.9934
 31
0.0
  0
LINE
  8
0
 62
     0
 10
294.571
 20
48.9934
 30
0.0
 11
295.37
 21
48.9934
 31
0.0
  0
LINE
  8
0
 62
     0
 10
295.37
 20
48.9934
 30
0.0
 11
295.37
 21
47.9929
 31
0.0
  0
LINE
  8
0
 62
     0
 10
295.37
 20
47.9929
 30
0.0
 11
309.371
 21
47.9929
 31
0.0
  0
LINE
  8
0
 62
     0
 10
309.371
 20
47.9929
 30
0.0
 11
309.371
 21
48.9934
 31
0.0
  0
LINE
  8
0
 62
     0
 10
309.371
 20
48.9934
 30
0.0
 11
310.17
 21
48.9934
 31
0.0
  0
LINE
  8
0
 62
     0
 10
310.17
 20
48.9934
 30
0.0
 11
310.17
 21
52.094
 31
0.0
  0
LINE
  8
0
 62
     0
 10
310.17
 20
52.094
 30
0.0
 11
309.371
 21
52.094
 31
0.0
  0
LINE
  8
0
 62
     0
 10
309.371
 20
52.094
 30
0.0
 11
309.371
 21
57.8926
 31
0.0
  0
LINE
  8
0
 62
     0
 10
309.371
 20
57.8926
 30
0.0
 11
310.17
 21
57.8926
 31
0.0
  0
LINE
  8
0
 62
     0
 10
310.17
 20
57.8926
 30
0.0
 11
310.17
 21
60.9935
 31
0.0
  0
LINE
  8
0
 62
     0
 10
310.17
 20
60.9935
 30
0.0
 11
309.371
 21
60.9935
 31
0.0
  0
LINE
  8
0
 62
     0
 10
309.371
 20
60.9935
 30
0.0
 11
309.371
 21
61.9936
 31
0.0
  0
LINE
  8
0
 62
     0
 10
309.371
 20
61.9936
 30
0.0
 11
295.37
 21
61.9936
 31
0.0
  0
LINE
  8
0
 62
     0
 10
233.458
 20
61.9936
 30
0.0
 11
233.458
 21
60.9935
 31
0.0
  0
LINE
  8
0
 62
     0
 10
233.458
 20
60.9935
 30
0.0
 11
232.657
 21
60.9935
 31
0.0
  0
LINE
  8
0
 62
     0
 10
232.657
 20
60.9935
 30
0.0
 11
232.657
 21
57.8926
 31
0.0
  0
LINE
  8
0
 62
     0
 10
232.657
 20
57.8926
 30
0.0
 11
233.458
 21
57.8926
 31
0.0
  0
LINE
  8
0
 62
     0
 10
233.458
 20
57.8926
 30
0.0
 11
233.458
 21
52.094
 31
0.0
  0
LINE
  8
0
 62
     0
 10
233.458
 20
52.094
 30
0.0
 11
232.657
 21
52.094
 31
0.0
  0
LINE
  8
0
 62
     0
 10
232.657
 20
52.094
 30
0.0
 11
232.657
 21
48.9934
 31
0.0
  0
LINE
  8
0
 62
     0
 10
232.657
 20
48.9934
 30
0.0
 11
233.458
 21
48.9934
 31
0.0
  0
LINE
  8
0
 62
     0
 10
233.458
 20
48.9934
 30
0.0
 11
233.458
 21
47.9929
 31
0.0
  0
LINE
  8
0
 62
     0
 10
233.458
 20
47.9929
 30
0.0
 11
247.457
 21
47.9929
 31
0.0
  0
LINE
  8
0
 62
     0
 10
247.457
 20
47.9929
 30
0.0
 11
247.457
 21
48.9934
 31
0.0
  0
LINE
  8
0
 62
     0
 10
247.457
 20
48.9934
 30
0.0
 11
248.258
 21
48.9934
 31
0.0
  0
LINE
  8
0
 62
     0
 10
248.258
 20
48.9934
 30
0.0
 11
248.258
 21
52.094
 31
0.0
  0
LINE
  8
0
 62
     0
 10
248.258
 20
52.094
 30
0.0
 11
247.457
 21
52.094
 31
0.0
  0
LINE
  8
0
 62
     0
 10
247.457
 20
52.094
 30
0.0
 11
247.457
 21
57.8926
 31
0.0
  0
LINE
  8
0
 62
     0
 10
247.457
 20
57.8926
 30
0.0
 11
248.258
 21
57.8926
 31
0.0
  0
LINE
  8
0
 62
     0
 10
248.258
 20
57.8926
 30
0.0
 11
248.258
 21
60.9935
 31
0.0
  0
LINE
  8
0
 62
     0
 10
248.258
 20
60.9935
 30
0.0
 11
247.457
 21
60.9935
 31
0.0
  0
LINE
  8
0
 62
     0
 10
247.457
 20
60.9935
 30
0.0
 11
247.457
 21
61.9936
 31
0.0
  0
LINE
  8
0
 62
     0
 10
247.457
 20
61.9936
 30
0.0
 11
233.458
 21
61.9936
 31
0.0
  0
LINE
  8
0
 62
     0
 10
214.408
 20
61.9936
 30
0.0
 11
214.408
 21
60.9935
 31
0.0
  0
LINE
  8
0
 62
     0
 10
214.408
 20
60.9935
 30
0.0
 11
213.607
 21
60.9935
 31
0.0
  0
LINE
  8
0
 62
     0
 10
213.607
 20
60.9935
 30
0.0
 11
213.607
 21
57.8926
 31
0.0
  0
LINE
  8
0
 62
     0
 10
213.607
 20
57.8926
 30
0.0
 11
214.408
 21
57.8926
 31
0.0
  0
LINE
  8
0
 62
     0
 10
214.408
 20
57.8926
 30
0.0
 11
214.408
 21
52.094
 31
0.0
  0
LINE
  8
0
 62
     0
 10
214.408
 20
52.094
 30
0.0
 11
213.607
 21
52.094
 31
0.0
  0
LINE
  8
0
 62
     0
 10
213.607
 20
52.094
 30
0.0
 11
213.607
 21
48.9934
 31
0.0
  0
LINE
  8
0
 62
     0
 10
213.607
 20
48.9934
 30
0.0
 11
214.408
 21
48.9934
 31
0.0
  0
LINE
  8
0
 62
     0
 10
214.408
 20
48.9934
 30
0.0
 11
214.408
 21
47.9929
 31
0.0
  0
LINE
  8
0
 62
     0
 10
214.408
 20
47.9929
 30
0.0
 11
228.407
 21
47.9929
 31
0.0
  0
LINE
  8
0
 62
     0
 10
228.407
 20
47.9929
 30
0.0
 11
228.407
 21
48.9934
 31
0.0
  0
LINE
  8
0
 62
     0
 10
228.407
 20
48.9934
 30
0.0
 11
229.208
 21
48.9934
 31
0.0
  0
LINE
  8
0
 62
     0
 10
229.208
 20
48.9934
 30
0.0
 11
229.208
 21
52.094
 31
0.0
  0
LINE
  8
0
 62
     0
 10
229.208
 20
52.094
 30
0.0
 11
228.407
 21
52.094
 31
0.0
  0
LINE
  8
0
 62
     0
 10
228.407
 20
52.094
 30
0.0
 11
228.407
 21
57.8926
 31
0.0
  0
LINE
  8
0
 62
     0
 10
228.407
 20
57.8926
 30
0.0
 11
229.208
 21
57.8926
 31
0.0
  0
LINE
  8
0
 62
     0
 10
229.208
 20
57.8926
 30
0.0
 11
229.208
 21
60.9935
 31
0.0
  0
LINE
  8
0
 62
     0
 10
229.208
 20
60.9935
 30
0.0
 11
228.407
 21
60.9935
 31
0.0
  0
LINE
  8
0
 62
     0
 10
228.407
 20
60.9935
 30
0.0
 11
228.407
 21
61.9936
 31
0.0
  0
LINE
  8
0
 62
     0
 10
228.407
 20
61.9936
 30
0.0
 11
214.408
 21
61.9936
 31
0.0
  0
LINE
  8
0
 62
     0
 10
195.358
 20
61.9936
 30
0.0
 11
195.358
 21
60.9935
 31
0.0
  0
LINE
  8
0
 62
     0
 10
195.358
 20
60.9935
 30
0.0
 11
194.557
 21
60.9935
 31
0.0
  0
LINE
  8
0
 62
     0
 10
194.557
 20
60.9935
 30
0.0
 11
194.557
 21
57.8926
 31
0.0
  0
LINE
  8
0
 62
     0
 10
194.557
 20
57.8926
 30
0.0
 11
195.358
 21
57.8926
 31
0.0
  0
LINE
  8
0
 62
     0
 10
195.358
 20
57.8926
 30
0.0
 11
195.358
 21
52.094
 31
0.0
  0
LINE
  8
0
 62
     0
 10
195.358
 20
52.094
 30
0.0
 11
194.557
 21
52.094
 31
0.0
  0
LINE
  8
0
 62
     0
 10
194.557
 20
52.094
 30
0.0
 11
194.557
 21
48.9934
 31
0.0
  0
LINE
  8
0
 62
     0
 10
194.557
 20
48.9934
 30
0.0
 11
195.358
 21
48.9934
 31
0.0
  0
LINE
  8
0
 62
     0
 10
195.358
 20
48.9934
 30
0.0
 11
195.358
 21
47.9929
 31
0.0
  0
LINE
  8
0
 62
     0
 10
195.358
 20
47.9929
 30
0.0
 11
209.357
 21
47.9929
 31
0.0
  0
LINE
  8
0
 62
     0
 10
209.357
 20
47.9929
 30
0.0
 11
209.357
 21
48.9934
 31
0.0
  0
LINE
  8
0
 62
     0
 10
209.357
 20
48.9934
 30
0.0
 11
210.158
 21
48.9934
 31
0.0
  0
LINE
  8
0
 62
     0
 10
210.158
 20
48.9934
 30
0.0
 11
210.158
 21
52.094
 31
0.0
  0
LINE
  8
0
 62
     0
 10
210.158
 20
52.094
 30
0.0
 11
209.357
 21
52.094
 31
0.0
  0
LINE
  8
0
 62
     0
 10
209.357
 20
52.094
 30
0.0
 11
209.357
 21
57.8926
 31
0.0
  0
LINE
  8
0
 62
     0
 10
209.357
 20
57.8926
 30
0.0
 11
210.158
 21
57.8926
 31
0.0
  0
LINE
  8
0
 62
     0
 10
210.158
 20
57.8926
 30
0.0
 11
210.158
 21
60.9935
 31
0.0
  0
LINE
  8
0
 62
     0
 10
210.158
 20
60.9935
 30
0.0
 11
209.357
 21
60.9935
 31
0.0
  0
LINE
  8
0
 62
     0
 10
209.357
 20
60.9935
 30
0.0
 11
209.357
 21
61.9936
 31
0.0
  0
LINE
  8
0
 62
     0
 10
209.357
 20
61.9936
 30
0.0
 11
195.358
 21
61.9936
 31
0.0
  0
LINE
  8
0
 62
     0
 10
176.308
 20
61.9936
 30
0.0
 11
176.308
 21
60.9935
 31
0.0
  0
LINE
  8
0
 62
     0
 10
176.308
 20
60.9935
 30
0.0
 11
175.507
 21
60.9935
 31
0.0
  0
LINE
  8
0
 62
     0
 10
175.507
 20
60.9935
 30
0.0
 11
175.507
 21
57.8926
 31
0.0
  0
LINE
  8
0
 62
     0
 10
175.507
 20
57.8926
 30
0.0
 11
176.308
 21
57.8926
 31
0.0
  0
LINE
  8
0
 62
     0
 10
176.308
 20
57.8926
 30
0.0
 11
176.308
 21
52.094
 31
0.0
  0
LINE
  8
0
 62
     0
 10
176.308
 20
52.094
 30
0.0
 11
175.507
 21
52.094
 31
0.0
  0
LINE
  8
0
 62
     0
 10
175.507
 20
52.094
 30
0.0
 11
175.507
 21
48.9934
 31
0.0
  0
LINE
  8
0
 62
     0
 10
175.507
 20
48.9934
 30
0.0
 11
176.308
 21
48.9934
 31
0.0
  0
LINE
  8
0
 62
     0
 10
176.308
 20
48.9934
 30
0.0
 11
176.308
 21
47.9929
 31
0.0
  0
LINE
  8
0
 62
     0
 10
176.308
 20
47.9929
 30
0.0
 11
190.307
 21
47.9929
 31
0.0
  0
LINE
  8
0
 62
     0
 10
190.307
 20
47.9929
 30
0.0
 11
190.307
 21
48.9934
 31
0.0
  0
LINE
  8
0
 62
     0
 10
190.307
 20
48.9934
 30
0.0
 11
191.108
 21
48.9934
 31
0.0
  0
LINE
  8
0
 62
     0
 10
191.108
 20
48.9934
 30
0.0
 11
191.108
 21
52.094
 31
0.0
  0
LINE
  8
0
 62
     0
 10
191.108
 20
52.094
 30
0.0
 11
190.307
 21
52.094
 31
0.0
  0
LINE
  8
0
 62
     0
 10
190.307
 20
52.094
 30
0.0
 11
190.307
 21
57.8926
 31
0.0
  0
LINE
  8
0
 62
     0
 10
190.307
 20
57.8926
 30
0.0
 11
191.108
 21
57.8926
 31
0.0
  0
LINE
  8
0
 62
     0
 10
191.108
 20
57.8926
 30
0.0
 11
191.108
 21
60.9935
 31
0.0
  0
LINE
  8
0
 62
     0
 10
191.108
 20
60.9935
 30
0.0
 11
190.307
 21
60.9935
 31
0.0
  0
LINE
  8
0
 62
     0
 10
190.307
 20
60.9935
 30
0.0
 11
190.307
 21
61.9936
 31
0.0
  0
LINE
  8
0
 62
     0
 10
190.307
 20
61.9936
 30
0.0
 11
176.308
 21
61.9936
 31
0.0
  0
LINE
  8
0
 62
     0
 10
157.258
 20
61.9936
 30
0.0
 11
157.258
 21
60.9935
 31
0.0
  0
LINE
  8
0
 62
     0
 10
157.258
 20
60.9935
 30
0.0
 11
156.457
 21
60.9935
 31
0.0
  0
LINE
  8
0
 62
     0
 10
156.457
 20
60.9935
 30
0.0
 11
156.457
 21
57.8926
 31
0.0
  0
LINE
  8
0
 62
     0
 10
156.457
 20
57.8926
 30
0.0
 11
157.258
 21
57.8926
 31
0.0
  0
LINE
  8
0
 62
     0
 10
157.258
 20
57.8926
 30
0.0
 11
157.258
 21
52.094
 31
0.0
  0
LINE
  8
0
 62
     0
 10
157.258
 20
52.094
 30
0.0
 11
156.457
 21
52.094
 31
0.0
  0
LINE
  8
0
 62
     0
 10
156.457
 20
52.094
 30
0.0
 11
156.457
 21
48.9934
 31
0.0
  0
LINE
  8
0
 62
     0
 10
156.457
 20
48.9934
 30
0.0
 11
157.258
 21
48.9934
 31
0.0
  0
LINE
  8
0
 62
     0
 10
157.258
 20
48.9934
 30
0.0
 11
157.258
 21
47.9929
 31
0.0
  0
LINE
  8
0
 62
     0
 10
157.258
 20
47.9929
 30
0.0
 11
171.257
 21
47.9929
 31
0.0
  0
LINE
  8
0
 62
     0
 10
171.257
 20
47.9929
 30
0.0
 11
171.257
 21
48.9934
 31
0.0
  0
LINE
  8
0
 62
     0
 10
171.257
 20
48.9934
 30
0.0
 11
172.058
 21
48.9934
 31
0.0
  0
LINE
  8
0
 62
     0
 10
172.058
 20
48.9934
 30
0.0
 11
172.058
 21
52.094
 31
0.0
  0
LINE
  8
0
 62
     0
 10
172.058
 20
52.094
 30
0.0
 11
171.257
 21
52.094
 31
0.0
  0
LINE
  8
0
 62
     0
 10
171.257
 20
52.094
 30
0.0
 11
171.257
 21
57.8926
 31
0.0
  0
LINE
  8
0
 62
     0
 10
171.257
 20
57.8926
 30
0.0
 11
172.058
 21
57.8926
 31
0.0
  0
LINE
  8
0
 62
     0
 10
172.058
 20
57.8926
 30
0.0
 11
172.058
 21
60.9935
 31
0.0
  0
LINE
  8
0
 62
     0
 10
172.058
 20
60.9935
 30
0.0
 11
171.257
 21
60.9935
 31
0.0
  0
LINE
  8
0
 62
     0
 10
171.257
 20
60.9935
 30
0.0
 11
171.257
 21
61.9936
 31
0.0
  0
LINE
  8
0
 62
     0
 10
171.257
 20
61.9936
 30
0.0
 11
157.258
 21
61.9936
 31
0.0
  0
LINE
  8
0
 62
     0
 10
138.208
 20
61.9936
 30
0.0
 11
138.208
 21
60.9935
 31
0.0
  0
LINE
  8
0
 62
     0
 10
138.208
 20
60.9935
 30
0.0
 11
137.407
 21
60.9935
 31
0.0
  0
LINE
  8
0
 62
     0
 10
137.407
 20
60.9935
 30
0.0
 11
137.407
 21
57.8926
 31
0.0
  0
LINE
  8
0
 62
     0
 10
137.407
 20
57.8926
 30
0.0
 11
138.208
 21
57.8926
 31
0.0
  0
LINE
  8
0
 62
     0
 10
138.208
 20
57.8926
 30
0.0
 11
138.208
 21
52.094
 31
0.0
  0
LINE
  8
0
 62
     0
 10
138.208
 20
52.094
 30
0.0
 11
137.407
 21
52.094
 31
0.0
  0
LINE
  8
0
 62
     0
 10
137.407
 20
52.094
 30
0.0
 11
137.407
 21
48.9934
 31
0.0
  0
LINE
  8
0
 62
     0
 10
137.407
 20
48.9934
 30
0.0
 11
138.208
 21
48.9934
 31
0.0
  0
LINE
  8
0
 62
     0
 10
138.208
 20
48.9934
 30
0.0
 11
138.208
 21
47.9929
 31
0.0
  0
LINE
  8
0
 62
     0
 10
138.208
 20
47.9929
 30
0.0
 11
152.207
 21
47.9929
 31
0.0
  0
LINE
  8
0
 62
     0
 10
152.207
 20
47.9929
 30
0.0
 11
152.207
 21
48.9934
 31
0.0
  0
LINE
  8
0
 62
     0
 10
152.207
 20
48.9934
 30
0.0
 11
153.008
 21
48.9934
 31
0.0
  0
LINE
  8
0
 62
     0
 10
153.008
 20
48.9934
 30
0.0
 11
153.008
 21
52.094
 31
0.0
  0
LINE
  8
0
 62
     0
 10
153.008
 20
52.094
 30
0.0
 11
152.207
 21
52.094
 31
0.0
  0
LINE
  8
0
 62
     0
 10
152.207
 20
52.094
 30
0.0
 11
152.207
 21
57.8926
 31
0.0
  0
LINE
  8
0
 62
     0
 10
152.207
 20
57.8926
 30
0.0
 11
153.008
 21
57.8926
 31
0.0
  0
LINE
  8
0
 62
     0
 10
153.008
 20
57.8926
 30
0.0
 11
153.008
 21
60.9935
 31
0.0
  0
LINE
  8
0
 62
     0
 10
153.008
 20
60.9935
 30
0.0
 11
152.207
 21
60.9935
 31
0.0
  0
LINE
  8
0
 62
     0
 10
152.207
 20
60.9935
 30
0.0
 11
152.207
 21
61.9936
 31
0.0
  0
LINE
  8
0
 62
     0
 10
152.207
 20
61.9936
 30
0.0
 11
138.208
 21
61.9936
 31
0.0
  0
LINE
  8
0
 62
     0
 10
119.158
 20
61.9936
 30
0.0
 11
119.158
 21
60.9935
 31
0.0
  0
LINE
  8
0
 62
     0
 10
119.158
 20
60.9935
 30
0.0
 11
118.357
 21
60.9935
 31
0.0
  0
LINE
  8
0
 62
     0
 10
118.357
 20
60.9935
 30
0.0
 11
118.357
 21
57.8926
 31
0.0
  0
LINE
  8
0
 62
     0
 10
118.357
 20
57.8926
 30
0.0
 11
119.158
 21
57.8926
 31
0.0
  0
LINE
  8
0
 62
     0
 10
119.158
 20
57.8926
 30
0.0
 11
119.158
 21
52.094
 31
0.0
  0
LINE
  8
0
 62
     0
 10
119.158
 20
52.094
 30
0.0
 11
118.357
 21
52.094
 31
0.0
  0
LINE
  8
0
 62
     0
 10
118.357
 20
52.094
 30
0.0
 11
118.357
 21
48.9934
 31
0.0
  0
LINE
  8
0
 62
     0
 10
118.357
 20
48.9934
 30
0.0
 11
119.158
 21
48.9934
 31
0.0
  0
LINE
  8
0
 62
     0
 10
119.158
 20
48.9934
 30
0.0
 11
119.158
 21
47.9929
 31
0.0
  0
LINE
  8
0
 62
     0
 10
119.158
 20
47.9929
 30
0.0
 11
133.157
 21
47.9929
 31
0.0
  0
LINE
  8
0
 62
     0
 10
133.157
 20
47.9929
 30
0.0
 11
133.157
 21
48.9934
 31
0.0
  0
LINE
  8
0
 62
     0
 10
133.157
 20
48.9934
 30
0.0
 11
133.958
 21
48.9934
 31
0.0
  0
LINE
  8
0
 62
     0
 10
133.958
 20
48.9934
 30
0.0
 11
133.958
 21
52.094
 31
0.0
  0
LINE
  8
0
 62
     0
 10
133.958
 20
52.094
 30
0.0
 11
133.157
 21
52.094
 31
0.0
  0
LINE
  8
0
 62
     0
 10
133.157
 20
52.094
 30
0.0
 11
133.157
 21
57.8926
 31
0.0
  0
LINE
  8
0
 62
     0
 10
133.157
 20
57.8926
 30
0.0
 11
133.958
 21
57.8926
 31
0.0
  0
LINE
  8
0
 62
     0
 10
133.958
 20
57.8926
 30
0.0
 11
133.958
 21
60.9935
 31
0.0
  0
LINE
  8
0
 62
     0
 10
133.958
 20
60.9935
 30
0.0
 11
133.157
 21
60.9935
 31
0.0
  0
LINE
  8
0
 62
     0
 10
133.157
 20
60.9935
 30
0.0
 11
133.157
 21
61.9936
 31
0.0
  0
LINE
  8
0
 62
     0
 10
133.157
 20
61.9936
 30
0.0
 11
119.158
 21
61.9936
 31
0.0
  0
LINE
  8
0
 62
     0
 10
100.108
 20
61.9936
 30
0.0
 11
100.108
 21
60.9935
 31
0.0
  0
LINE
  8
0
 62
     0
 10
100.108
 20
60.9935
 30
0.0
 11
99.3069
 21
60.9935
 31
0.0
  0
LINE
  8
0
 62
     0
 10
99.3069
 20
60.9935
 30
0.0
 11
99.3069
 21
57.8926
 31
0.0
  0
LINE
  8
0
 62
     0
 10
99.3069
 20
57.8926
 30
0.0
 11
100.108
 21
57.8926
 31
0.0
  0
LINE
  8
0
 62
     0
 10
100.108
 20
57.8926
 30
0.0
 11
100.108
 21
52.094
 31
0.0
  0
LINE
  8
0
 62
     0
 10
100.108
 20
52.094
 30
0.0
 11
99.3069
 21
52.094
 31
0.0
  0
LINE
  8
0
 62
     0
 10
99.3069
 20
52.094
 30
0.0
 11
99.3069
 21
48.9934
 31
0.0
  0
LINE
  8
0
 62
     0
 10
99.3069
 20
48.9934
 30
0.0
 11
100.108
 21
48.9934
 31
0.0
  0
LINE
  8
0
 62
     0
 10
100.108
 20
48.9934
 30
0.0
 11
100.108
 21
47.9929
 31
0.0
  0
LINE
  8
0
 62
     0
 10
100.108
 20
47.9929
 30
0.0
 11
114.107
 21
47.9929
 31
0.0
  0
LINE
  8
0
 62
     0
 10
114.107
 20
47.9929
 30
0.0
 11
114.107
 21
48.9934
 31
0.0
  0
LINE
  8
0
 62
     0
 10
114.107
 20
48.9934
 30
0.0
 11
114.908
 21
48.9934
 31
0.0
  0
LINE
  8
0
 62
     0
 10
114.908
 20
48.9934
 30
0.0
 11
114.908
 21
52.094
 31
0.0
  0
LINE
  8
0
 62
     0
 10
114.908
 20
52.094
 30
0.0
 11
114.107
 21
52.094
 31
0.0
  0
LINE
  8
0
 62
     0
 10
114.107
 20
52.094
 30
0.0
 11
114.107
 21
57.8926
 31
0.0
  0
LINE
  8
0
 62
     0
 10
114.107
 20
57.8926
 30
0.0
 11
114.908
 21
57.8926
 31
0.0
  0
LINE
  8
0
 62
     0
 10
114.908
 20
57.8926
 30
0.0
 11
114.908
 21
60.9935
 31
0.0
  0
LINE
  8
0
 62
     0
 10
114.908
 20
60.9935
 30
0.0
 11
114.107
 21
60.9935
 31
0.0
  0
LINE
  8
0
 62
     0
 10
114.107
 20
60.9935
 30
0.0
 11
114.107
 21
61.9936
 31
0.0
  0
LINE
  8
0
 62
     0
 10
114.107
 20
61.9936
 30
0.0
 11
100.108
 21
61.9936
 31
0.0
  0
LINE
  8
0
 62
     0
 10
81.0578
 20
61.9936
 30
0.0
 11
81.0578
 21
60.9935
 31
0.0
  0
LINE
  8
0
 62
     0
 10
81.0578
 20
60.9935
 30
0.0
 11
80.2569
 21
60.9935
 31
0.0
  0
LINE
  8
0
 62
     0
 10
80.2569
 20
60.9935
 30
0.0
 11
80.2569
 21
57.8926
 31
0.0
  0
LINE
  8
0
 62
     0
 10
80.2569
 20
57.8926
 30
0.0
 11
81.0578
 21
57.8926
 31
0.0
  0
LINE
  8
0
 62
     0
 10
81.0578
 20
57.8926
 30
0.0
 11
81.0578
 21
52.094
 31
0.0
  0
LINE
  8
0
 62
     0
 10
81.0578
 20
52.094
 30
0.0
 11
80.2569
 21
52.094
 31
0.0
  0
LINE
  8
0
 62
     0
 10
80.2569
 20
52.094
 30
0.0
 11
80.2569
 21
48.9934
 31
0.0
  0
LINE
  8
0
 62
     0
 10
80.2569
 20
48.9934
 30
0.0
 11
81.0578
 21
48.9934
 31
0.0
  0
LINE
  8
0
 62
     0
 10
81.0578
 20
48.9934
 30
0.0
 11
81.0578
 21
47.9929
 31
0.0
  0
LINE
  8
0
 62
     0
 10
81.0578
 20
47.9929
 30
0.0
 11
95.057
 21
47.9929
 31
0.0
  0
LINE
  8
0
 62
     0
 10
95.057
 20
47.9929
 30
0.0
 11
95.057
 21
48.9934
 31
0.0
  0
LINE
  8
0
 62
     0
 10
95.057
 20
48.9934
 30
0.0
 11
95.8578
 21
48.9934
 31
0.0
  0
LINE
  8
0
 62
     0
 10
95.8578
 20
48.9934
 30
0.0
 11
95.8578
 21
52.094
 31
0.0
  0
LINE
  8
0
 62
     0
 10
95.8578
 20
52.094
 30
0.0
 11
95.057
 21
52.094
 31
0.0
  0
LINE
  8
0
 62
     0
 10
95.057
 20
52.094
 30
0.0
 11
95.057
 21
57.8926
 31
0.0
  0
LINE
  8
0
 62
     0
 10
95.057
 20
57.8926
 30
0.0
 11
95.8578
 21
57.8926
 31
0.0
  0
LINE
  8
0
 62
     0
 10
95.8578
 20
57.8926
 30
0.0
 11
95.8578
 21
60.9935
 31
0.0
  0
LINE
  8
0
 62
     0
 10
95.8578
 20
60.9935
 30
0.0
 11
95.057
 21
60.9935
 31
0.0
  0
LINE
  8
0
 62
     0
 10
95.057
 20
60.9935
 30
0.0
 11
95.057
 21
61.9936
 31
0.0
  0
LINE
  8
0
 62
     0
 10
95.057
 20
61.9936
 30
0.0
 11
81.0578
 21
61.9936
 31
0.0
  0
LINE
  8
0
 62
     0
 10
62.0078
 20
61.9936
 30
0.0
 11
62.0078
 21
60.9935
 31
0.0
  0
LINE
  8
0
 62
     0
 10
62.0078
 20
60.9935
 30
0.0
 11
61.2069
 21
60.9935
 31
0.0
  0
LINE
  8
0
 62
     0
 10
61.2069
 20
60.9935
 30
0.0
 11
61.2069
 21
57.8926
 31
0.0
  0
LINE
  8
0
 62
     0
 10
61.2069
 20
57.8926
 30
0.0
 11
62.0078
 21
57.8926
 31
0.0
  0
LINE
  8
0
 62
     0
 10
62.0078
 20
57.8926
 30
0.0
 11
62.0078
 21
52.094
 31
0.0
  0
LINE
  8
0
 62
     0
 10
62.0078
 20
52.094
 30
0.0
 11
61.2069
 21
52.094
 31
0.0
  0
LINE
  8
0
 62
     0
 10
61.2069
 20
52.094
 30
0.0
 11
61.2069
 21
48.9934
 31
0.0
  0
LINE
  8
0
 62
     0
 10
61.2069
 20
48.9934
 30
0.0
 11
62.0078
 21
48.9934
 31
0.0
  0
LINE
  8
0
 62
     0
 10
62.0078
 20
48.9934
 30
0.0
 11
62.0078
 21
47.9929
 31
0.0
  0
LINE
  8
0
 62
     0
 10
62.0078
 20
47.9929
 30
0.0
 11
76.007
 21
47.9929
 31
0.0
  0
LINE
  8
0
 62
     0
 10
76.007
 20
47.9929
 30
0.0
 11
76.007
 21
48.9934
 31
0.0
  0
LINE
  8
0
 62
     0
 10
76.007
 20
48.9934
 30
0.0
 11
76.8078
 21
48.9934
 31
0.0
  0
LINE
  8
0
 62
     0
 10
76.8078
 20
48.9934
 30
0.0
 11
76.8078
 21
52.094
 31
0.0
  0
LINE
  8
0
 62
     0
 10
76.8078
 20
52.094
 30
0.0
 11
76.007
 21
52.094
 31
0.0
  0
LINE
  8
0
 62
     0
 10
76.007
 20
52.094
 30
0.0
 11
76.007
 21
57.8926
 31
0.0
  0
LINE
  8
0
 62
     0
 10
76.007
 20
57.8926
 30
0.0
 11
76.8078
 21
57.8926
 31
0.0
  0
LINE
  8
0
 62
     0
 10
76.8078
 20
57.8926
 30
0.0
 11
76.8078
 21
60.9935
 31
0.0
  0
LINE
  8
0
 62
     0
 10
76.8078
 20
60.9935
 30
0.0
 11
76.007
 21
60.9935
 31
0.0
  0
LINE
  8
0
 62
     0
 10
76.007
 20
60.9935
 30
0.0
 11
76.007
 21
61.9936
 31
0.0
  0
LINE
  8
0
 62
     0
 10
76.007
 20
61.9936
 30
0.0
 11
62.0078
 21
61.9936
 31
0.0
  0
LINE
  8
0
 62
     0
 10
42.9577
 20
61.9936
 30
0.0
 11
42.9577
 21
60.9935
 31
0.0
  0
LINE
  8
0
 62
     0
 10
42.9577
 20
60.9935
 30
0.0
 11
42.1569
 21
60.9935
 31
0.0
  0
LINE
  8
0
 62
     0
 10
42.1569
 20
60.9935
 30
0.0
 11
42.1569
 21
57.8926
 31
0.0
  0
LINE
  8
0
 62
     0
 10
42.1569
 20
57.8926
 30
0.0
 11
42.9577
 21
57.8926
 31
0.0
  0
LINE
  8
0
 62
     0
 10
42.9577
 20
57.8926
 30
0.0
 11
42.9577
 21
52.094
 31
0.0
  0
LINE
  8
0
 62
     0
 10
42.9577
 20
52.094
 30
0.0
 11
42.1569
 21
52.094
 31
0.0
  0
LINE
  8
0
 62
     0
 10
42.1569
 20
52.094
 30
0.0
 11
42.1569
 21
48.9934
 31
0.0
  0
LINE
  8
0
 62
     0
 10
42.1569
 20
48.9934
 30
0.0
 11
42.9577
 21
48.9934
 31
0.0
  0
LINE
  8
0
 62
     0
 10
42.9577
 20
48.9934
 30
0.0
 11
42.9577
 21
47.9929
 31
0.0
  0
LINE
  8
0
 62
     0
 10
42.9577
 20
47.9929
 30
0.0
 11
56.957
 21
47.9929
 31
0.0
  0
LINE
  8
0
 62
     0
 10
56.957
 20
47.9929
 30
0.0
 11
56.957
 21
48.9934
 31
0.0
  0
LINE
  8
0
 62
     0
 10
56.957
 20
48.9934
 30
0.0
 11
57.7578
 21
48.9934
 31
0.0
  0
LINE
  8
0
 62
     0
 10
57.7578
 20
48.9934
 30
0.0
 11
57.7578
 21
52.094
 31
0.0
  0
LINE
  8
0
 62
     0
 10
57.7578
 20
52.094
 30
0.0
 11
56.957
 21
52.094
 31
0.0
  0
LINE
  8
0
 62
     0
 10
56.957
 20
52.094
 30
0.0
 11
56.957
 21
57.8926
 31
0.0
  0
LINE
  8
0
 62
     0
 10
56.957
 20
57.8926
 30
0.0
 11
57.7578
 21
57.8926
 31
0.0
  0
LINE
  8
0
 62
     0
 10
57.7578
 20
57.8926
 30
0.0
 11
57.7578
 21
60.9935
 31
0.0
  0
LINE
  8
0
 62
     0
 10
57.7578
 20
60.9935
 30
0.0
 11
56.957
 21
60.9935
 31
0.0
  0
LINE
  8
0
 62
     0
 10
56.957
 20
60.9935
 30
0.0
 11
56.957
 21
61.9936
 31
0.0
  0
LINE
  8
0
 62
     0
 10
56.957
 20
61.9936
 30
0.0
 11
42.9577
 21
61.9936
 31
0.0
  0
LINE
  8
0
 62
     0
 10
16.7638
 20
61.9936
 30
0.0
 11
16.7638
 21
60.9935
 31
0.0
  0
LINE
  8
0
 62
     0
 10
16.7638
 20
60.9935
 30
0.0
 11
15.9632
 21
60.9935
 31
0.0
  0
LINE
  8
0
 62
     0
 10
15.9632
 20
60.9935
 30
0.0
 11
15.9632
 21
57.8926
 31
0.0
  0
LINE
  8
0
 62
     0
 10
15.9632
 20
57.8926
 30
0.0
 11
16.7638
 21
57.8926
 31
0.0
  0
LINE
  8
0
 62
     0
 10
16.7638
 20
57.8926
 30
0.0
 11
16.7638
 21
52.094
 31
0.0
  0
LINE
  8
0
 62
     0
 10
16.7638
 20
52.094
 30
0.0
 11
15.9632
 21
52.094
 31
0.0
  0
LINE
  8
0
 62
     0
 10
15.9632
 20
52.094
 30
0.0
 11
15.9632
 21
48.9934
 31
0.0
  0
LINE
  8
0
 62
     0
 10
15.9632
 20
48.9934
 30
0.0
 11
16.7638
 21
48.9934
 31
0.0
  0
LINE
  8
0
 62
     0
 10
16.7638
 20
48.9934
 30
0.0
 11
16.7638
 21
47.9929
 31
0.0
  0
LINE
  8
0
 62
     0
 10
16.7638
 20
47.9929
 30
0.0
 11
30.7633
 21
47.9929
 31
0.0
  0
LINE
  8
0
 62
     0
 10
30.7633
 20
47.9929
 30
0.0
 11
30.7633
 21
48.9934
 31
0.0
  0
LINE
  8
0
 62
     0
 10
30.7633
 20
48.9934
 30
0.0
 11
31.564
 21
48.9934
 31
0.0
  0
LINE
  8
0
 62
     0
 10
31.564
 20
48.9934
 30
0.0
 11
31.564
 21
52.094
 31
0.0
  0
LINE
  8
0
 62
     0
 10
31.564
 20
52.094
 30
0.0
 11
30.7633
 21
52.094
 31
0.0
  0
LINE
  8
0
 62
     0
 10
30.7633
 20
52.094
 30
0.0
 11
30.7633
 21
57.8926
 31
0.0
  0
LINE
  8
0
 62
     0
 10
30.7633
 20
57.8926
 30
0.0
 11
31.564
 21
57.8926
 31
0.0
  0
LINE
  8
0
 62
     0
 10
31.564
 20
57.8926
 30
0.0
 11
31.564
 21
60.9935
 31
0.0
  0
LINE
  8
0
 62
     0
 10
31.564
 20
60.9935
 30
0.0
 11
30.7633
 21
60.9935
 31
0.0
  0
LINE
  8
0
 62
     0
 10
30.7633
 20
60.9935
 30
0.0
 11
30.7633
 21
61.9936
 31
0.0
  0
LINE
  8
0
 62
     0
 10
30.7633
 20
61.9936
 30
0.0
 11
16.7638
 21
61.9936
 31
0.0
  0
LINE
  8
0
 62
     0
 10
333.47
 20
81.0436
 30
0.0
 11
333.47
 21
80.0435
 31
0.0
  0
LINE
  8
0
 62
     0
 10
333.47
 20
80.0435
 30
0.0
 11
332.671
 21
80.0435
 31
0.0
  0
LINE
  8
0
 62
     0
 10
332.671
 20
80.0435
 30
0.0
 11
332.671
 21
76.9426
 31
0.0
  0
LINE
  8
0
 62
     0
 10
332.671
 20
76.9426
 30
0.0
 11
333.47
 21
76.9426
 31
0.0
  0
LINE
  8
0
 62
     0
 10
333.47
 20
76.9426
 30
0.0
 11
333.47
 21
71.144
 31
0.0
  0
LINE
  8
0
 62
     0
 10
333.47
 20
71.144
 30
0.0
 11
332.671
 21
71.144
 31
0.0
  0
LINE
  8
0
 62
     0
 10
332.671
 20
71.144
 30
0.0
 11
332.671
 21
68.0434
 31
0.0
  0
LINE
  8
0
 62
     0
 10
332.671
 20
68.0434
 30
0.0
 11
333.47
 21
68.0434
 31
0.0
  0
LINE
  8
0
 62
     0
 10
333.47
 20
68.0434
 30
0.0
 11
333.47
 21
67.0429
 31
0.0
  0
LINE
  8
0
 62
     0
 10
333.47
 20
67.0429
 30
0.0
 11
347.471
 21
67.0429
 31
0.0
  0
LINE
  8
0
 62
     0
 10
347.471
 20
67.0429
 30
0.0
 11
347.471
 21
68.0434
 31
0.0
  0
LINE
  8
0
 62
     0
 10
347.471
 20
68.0434
 30
0.0
 11
348.27
 21
68.0434
 31
0.0
  0
LINE
  8
0
 62
     0
 10
348.27
 20
68.0434
 30
0.0
 11
348.27
 21
71.144
 31
0.0
  0
LINE
  8
0
 62
     0
 10
348.27
 20
71.144
 30
0.0
 11
347.471
 21
71.144
 31
0.0
  0
LINE
  8
0
 62
     0
 10
347.471
 20
71.144
 30
0.0
 11
347.471
 21
76.9426
 31
0.0
  0
LINE
  8
0
 62
     0
 10
347.471
 20
76.9426
 30
0.0
 11
348.27
 21
76.9426
 31
0.0
  0
LINE
  8
0
 62
     0
 10
348.27
 20
76.9426
 30
0.0
 11
348.27
 21
80.0435
 31
0.0
  0
LINE
  8
0
 62
     0
 10
348.27
 20
80.0435
 30
0.0
 11
347.471
 21
80.0435
 31
0.0
  0
LINE
  8
0
 62
     0
 10
347.471
 20
80.0435
 30
0.0
 11
347.471
 21
81.0436
 31
0.0
  0
LINE
  8
0
 62
     0
 10
347.471
 20
81.0436
 30
0.0
 11
333.47
 21
81.0436
 31
0.0
  0
LINE
  8
0
 62
     0
 10
314.42
 20
81.0436
 30
0.0
 11
314.42
 21
80.0435
 31
0.0
  0
LINE
  8
0
 62
     0
 10
314.42
 20
80.0435
 30
0.0
 11
313.621
 21
80.0435
 31
0.0
  0
LINE
  8
0
 62
     0
 10
313.621
 20
80.0435
 30
0.0
 11
313.621
 21
76.9426
 31
0.0
  0
LINE
  8
0
 62
     0
 10
313.621
 20
76.9426
 30
0.0
 11
314.42
 21
76.9426
 31
0.0
  0
LINE
  8
0
 62
     0
 10
314.42
 20
76.9426
 30
0.0
 11
314.42
 21
71.144
 31
0.0
  0
LINE
  8
0
 62
     0
 10
314.42
 20
71.144
 30
0.0
 11
313.621
 21
71.144
 31
0.0
  0
LINE
  8
0
 62
     0
 10
313.621
 20
71.144
 30
0.0
 11
313.621
 21
68.0434
 31
0.0
  0
LINE
  8
0
 62
     0
 10
313.621
 20
68.0434
 30
0.0
 11
314.42
 21
68.0434
 31
0.0
  0
LINE
  8
0
 62
     0
 10
314.42
 20
68.0434
 30
0.0
 11
314.42
 21
67.0429
 31
0.0
  0
LINE
  8
0
 62
     0
 10
314.42
 20
67.0429
 30
0.0
 11
328.421
 21
67.0429
 31
0.0
  0
LINE
  8
0
 62
     0
 10
328.421
 20
67.0429
 30
0.0
 11
328.421
 21
68.0434
 31
0.0
  0
LINE
  8
0
 62
     0
 10
328.421
 20
68.0434
 30
0.0
 11
329.22
 21
68.0434
 31
0.0
  0
LINE
  8
0
 62
     0
 10
329.22
 20
68.0434
 30
0.0
 11
329.22
 21
71.144
 31
0.0
  0
LINE
  8
0
 62
     0
 10
329.22
 20
71.144
 30
0.0
 11
328.421
 21
71.144
 31
0.0
  0
LINE
  8
0
 62
     0
 10
328.421
 20
71.144
 30
0.0
 11
328.421
 21
76.9426
 31
0.0
  0
LINE
  8
0
 62
     0
 10
328.421
 20
76.9426
 30
0.0
 11
329.22
 21
76.9426
 31
0.0
  0
LINE
  8
0
 62
     0
 10
329.22
 20
76.9426
 30
0.0
 11
329.22
 21
80.0435
 31
0.0
  0
LINE
  8
0
 62
     0
 10
329.22
 20
80.0435
 30
0.0
 11
328.421
 21
80.0435
 31
0.0
  0
LINE
  8
0
 62
     0
 10
328.421
 20
80.0435
 30
0.0
 11
328.421
 21
81.0436
 31
0.0
  0
LINE
  8
0
 62
     0
 10
328.421
 20
81.0436
 30
0.0
 11
314.42
 21
81.0436
 31
0.0
  0
LINE
  8
0
 62
     0
 10
295.37
 20
81.0436
 30
0.0
 11
295.37
 21
80.0435
 31
0.0
  0
LINE
  8
0
 62
     0
 10
295.37
 20
80.0435
 30
0.0
 11
294.571
 21
80.0435
 31
0.0
  0
LINE
  8
0
 62
     0
 10
294.571
 20
80.0435
 30
0.0
 11
294.571
 21
76.9426
 31
0.0
  0
LINE
  8
0
 62
     0
 10
294.571
 20
76.9426
 30
0.0
 11
295.37
 21
76.9426
 31
0.0
  0
LINE
  8
0
 62
     0
 10
295.37
 20
76.9426
 30
0.0
 11
295.37
 21
71.144
 31
0.0
  0
LINE
  8
0
 62
     0
 10
295.37
 20
71.144
 30
0.0
 11
294.571
 21
71.144
 31
0.0
  0
LINE
  8
0
 62
     0
 10
294.571
 20
71.144
 30
0.0
 11
294.571
 21
68.0434
 31
0.0
  0
LINE
  8
0
 62
     0
 10
294.571
 20
68.0434
 30
0.0
 11
295.37
 21
68.0434
 31
0.0
  0
LINE
  8
0
 62
     0
 10
295.37
 20
68.0434
 30
0.0
 11
295.37
 21
67.0429
 31
0.0
  0
LINE
  8
0
 62
     0
 10
295.37
 20
67.0429
 30
0.0
 11
309.371
 21
67.0429
 31
0.0
  0
LINE
  8
0
 62
     0
 10
309.371
 20
67.0429
 30
0.0
 11
309.371
 21
68.0434
 31
0.0
  0
LINE
  8
0
 62
     0
 10
309.371
 20
68.0434
 30
0.0
 11
310.17
 21
68.0434
 31
0.0
  0
LINE
  8
0
 62
     0
 10
310.17
 20
68.0434
 30
0.0
 11
310.17
 21
71.144
 31
0.0
  0
LINE
  8
0
 62
     0
 10
310.17
 20
71.144
 30
0.0
 11
309.371
 21
71.144
 31
0.0
  0
LINE
  8
0
 62
     0
 10
309.371
 20
71.144
 30
0.0
 11
309.371
 21
76.9426
 31
0.0
  0
LINE
  8
0
 62
     0
 10
309.371
 20
76.9426
 30
0.0
 11
310.17
 21
76.9426
 31
0.0
  0
LINE
  8
0
 62
     0
 10
310.17
 20
76.9426
 30
0.0
 11
310.17
 21
80.0435
 31
0.0
  0
LINE
  8
0
 62
     0
 10
310.17
 20
80.0435
 30
0.0
 11
309.371
 21
80.0435
 31
0.0
  0
LINE
  8
0
 62
     0
 10
309.371
 20
80.0435
 30
0.0
 11
309.371
 21
81.0436
 31
0.0
  0
LINE
  8
0
 62
     0
 10
309.371
 20
81.0436
 30
0.0
 11
295.37
 21
81.0436
 31
0.0
  0
LINE
  8
0
 62
     0
 10
271.558
 20
81.0436
 30
0.0
 11
271.558
 21
80.0435
 31
0.0
  0
LINE
  8
0
 62
     0
 10
271.558
 20
80.0435
 30
0.0
 11
270.757
 21
80.0435
 31
0.0
  0
LINE
  8
0
 62
     0
 10
270.757
 20
80.0435
 30
0.0
 11
270.757
 21
76.9426
 31
0.0
  0
LINE
  8
0
 62
     0
 10
270.757
 20
76.9426
 30
0.0
 11
271.558
 21
76.9426
 31
0.0
  0
LINE
  8
0
 62
     0
 10
271.558
 20
76.9426
 30
0.0
 11
271.558
 21
71.144
 31
0.0
  0
LINE
  8
0
 62
     0
 10
271.558
 20
71.144
 30
0.0
 11
270.757
 21
71.144
 31
0.0
  0
LINE
  8
0
 62
     0
 10
270.757
 20
71.144
 30
0.0
 11
270.757
 21
68.0434
 31
0.0
  0
LINE
  8
0
 62
     0
 10
270.757
 20
68.0434
 30
0.0
 11
271.558
 21
68.0434
 31
0.0
  0
LINE
  8
0
 62
     0
 10
271.558
 20
68.0434
 30
0.0
 11
271.558
 21
67.0429
 31
0.0
  0
LINE
  8
0
 62
     0
 10
271.558
 20
67.0429
 30
0.0
 11
285.557
 21
67.0429
 31
0.0
  0
LINE
  8
0
 62
     0
 10
285.557
 20
67.0429
 30
0.0
 11
285.557
 21
68.0434
 31
0.0
  0
LINE
  8
0
 62
     0
 10
285.557
 20
68.0434
 30
0.0
 11
286.358
 21
68.0434
 31
0.0
  0
LINE
  8
0
 62
     0
 10
286.358
 20
68.0434
 30
0.0
 11
286.358
 21
71.144
 31
0.0
  0
LINE
  8
0
 62
     0
 10
286.358
 20
71.144
 30
0.0
 11
285.557
 21
71.144
 31
0.0
  0
LINE
  8
0
 62
     0
 10
285.557
 20
71.144
 30
0.0
 11
285.557
 21
76.9426
 31
0.0
  0
LINE
  8
0
 62
     0
 10
285.557
 20
76.9426
 30
0.0
 11
286.358
 21
76.9426
 31
0.0
  0
LINE
  8
0
 62
     0
 10
286.358
 20
76.9426
 30
0.0
 11
286.358
 21
80.0435
 31
0.0
  0
LINE
  8
0
 62
     0
 10
286.358
 20
80.0435
 30
0.0
 11
285.557
 21
80.0435
 31
0.0
  0
LINE
  8
0
 62
     0
 10
285.557
 20
80.0435
 30
0.0
 11
285.557
 21
81.0436
 31
0.0
  0
LINE
  8
0
 62
     0
 10
285.557
 20
81.0436
 30
0.0
 11
271.558
 21
81.0436
 31
0.0
  0
LINE
  8
0
 62
     0
 10
247.745
 20
81.0436
 30
0.0
 11
247.745
 21
80.0435
 31
0.0
  0
LINE
  8
0
 62
     0
 10
247.745
 20
80.0435
 30
0.0
 11
246.946
 21
80.0435
 31
0.0
  0
LINE
  8
0
 62
     0
 10
246.946
 20
80.0435
 30
0.0
 11
246.946
 21
76.9426
 31
0.0
  0
LINE
  8
0
 62
     0
 10
246.946
 20
76.9426
 30
0.0
 11
247.745
 21
76.9426
 31
0.0
  0
LINE
  8
0
 62
     0
 10
247.745
 20
76.9426
 30
0.0
 11
247.745
 21
71.144
 31
0.0
  0
LINE
  8
0
 62
     0
 10
247.745
 20
71.144
 30
0.0
 11
246.946
 21
71.144
 31
0.0
  0
LINE
  8
0
 62
     0
 10
246.946
 20
71.144
 30
0.0
 11
246.946
 21
68.0434
 31
0.0
  0
LINE
  8
0
 62
     0
 10
246.946
 20
68.0434
 30
0.0
 11
247.745
 21
68.0434
 31
0.0
  0
LINE
  8
0
 62
     0
 10
247.745
 20
68.0434
 30
0.0
 11
247.745
 21
67.0429
 31
0.0
  0
LINE
  8
0
 62
     0
 10
247.745
 20
67.0429
 30
0.0
 11
261.746
 21
67.0429
 31
0.0
  0
LINE
  8
0
 62
     0
 10
261.746
 20
67.0429
 30
0.0
 11
261.746
 21
68.0434
 31
0.0
  0
LINE
  8
0
 62
     0
 10
261.746
 20
68.0434
 30
0.0
 11
262.545
 21
68.0434
 31
0.0
  0
LINE
  8
0
 62
     0
 10
262.545
 20
68.0434
 30
0.0
 11
262.545
 21
71.144
 31
0.0
  0
LINE
  8
0
 62
     0
 10
262.545
 20
71.144
 30
0.0
 11
261.746
 21
71.144
 31
0.0
  0
LINE
  8
0
 62
     0
 10
261.746
 20
71.144
 30
0.0
 11
261.746
 21
76.9426
 31
0.0
  0
LINE
  8
0
 62
     0
 10
261.746
 20
76.9426
 30
0.0
 11
262.545
 21
76.9426
 31
0.0
  0
LINE
  8
0
 62
     0
 10
262.545
 20
76.9426
 30
0.0
 11
262.545
 21
80.0435
 31
0.0
  0
LINE
  8
0
 62
     0
 10
262.545
 20
80.0435
 30
0.0
 11
261.746
 21
80.0435
 31
0.0
  0
LINE
  8
0
 62
     0
 10
261.746
 20
80.0435
 30
0.0
 11
261.746
 21
81.0436
 31
0.0
  0
LINE
  8
0
 62
     0
 10
261.746
 20
81.0436
 30
0.0
 11
247.745
 21
81.0436
 31
0.0
  0
LINE
  8
0
 62
     0
 10
228.695
 20
81.0436
 30
0.0
 11
228.695
 21
80.0435
 31
0.0
  0
LINE
  8
0
 62
     0
 10
228.695
 20
80.0435
 30
0.0
 11
227.896
 21
80.0435
 31
0.0
  0
LINE
  8
0
 62
     0
 10
227.896
 20
80.0435
 30
0.0
 11
227.896
 21
76.9426
 31
0.0
  0
LINE
  8
0
 62
     0
 10
227.896
 20
76.9426
 30
0.0
 11
228.695
 21
76.9426
 31
0.0
  0
LINE
  8
0
 62
     0
 10
228.695
 20
76.9426
 30
0.0
 11
228.695
 21
71.144
 31
0.0
  0
LINE
  8
0
 62
     0
 10
228.695
 20
71.144
 30
0.0
 11
227.896
 21
71.144
 31
0.0
  0
LINE
  8
0
 62
     0
 10
227.896
 20
71.144
 30
0.0
 11
227.896
 21
68.0434
 31
0.0
  0
LINE
  8
0
 62
     0
 10
227.896
 20
68.0434
 30
0.0
 11
228.695
 21
68.0434
 31
0.0
  0
LINE
  8
0
 62
     0
 10
228.695
 20
68.0434
 30
0.0
 11
228.695
 21
67.0429
 31
0.0
  0
LINE
  8
0
 62
     0
 10
228.695
 20
67.0429
 30
0.0
 11
242.696
 21
67.0429
 31
0.0
  0
LINE
  8
0
 62
     0
 10
242.696
 20
67.0429
 30
0.0
 11
242.696
 21
68.0434
 31
0.0
  0
LINE
  8
0
 62
     0
 10
242.696
 20
68.0434
 30
0.0
 11
243.495
 21
68.0434
 31
0.0
  0
LINE
  8
0
 62
     0
 10
243.495
 20
68.0434
 30
0.0
 11
243.495
 21
71.144
 31
0.0
  0
LINE
  8
0
 62
     0
 10
243.495
 20
71.144
 30
0.0
 11
242.696
 21
71.144
 31
0.0
  0
LINE
  8
0
 62
     0
 10
242.696
 20
71.144
 30
0.0
 11
242.696
 21
76.9426
 31
0.0
  0
LINE
  8
0
 62
     0
 10
242.696
 20
76.9426
 30
0.0
 11
243.495
 21
76.9426
 31
0.0
  0
LINE
  8
0
 62
     0
 10
243.495
 20
76.9426
 30
0.0
 11
243.495
 21
80.0435
 31
0.0
  0
LINE
  8
0
 62
     0
 10
243.495
 20
80.0435
 30
0.0
 11
242.696
 21
80.0435
 31
0.0
  0
LINE
  8
0
 62
     0
 10
242.696
 20
80.0435
 30
0.0
 11
242.696
 21
81.0436
 31
0.0
  0
LINE
  8
0
 62
     0
 10
242.696
 20
81.0436
 30
0.0
 11
228.695
 21
81.0436
 31
0.0
  0
LINE
  8
0
 62
     0
 10
209.645
 20
81.0436
 30
0.0
 11
209.645
 21
80.0435
 31
0.0
  0
LINE
  8
0
 62
     0
 10
209.645
 20
80.0435
 30
0.0
 11
208.846
 21
80.0435
 31
0.0
  0
LINE
  8
0
 62
     0
 10
208.846
 20
80.0435
 30
0.0
 11
208.846
 21
76.9426
 31
0.0
  0
LINE
  8
0
 62
     0
 10
208.846
 20
76.9426
 30
0.0
 11
209.645
 21
76.9426
 31
0.0
  0
LINE
  8
0
 62
     0
 10
209.645
 20
76.9426
 30
0.0
 11
209.645
 21
71.144
 31
0.0
  0
LINE
  8
0
 62
     0
 10
209.645
 20
71.144
 30
0.0
 11
208.846
 21
71.144
 31
0.0
  0
LINE
  8
0
 62
     0
 10
208.846
 20
71.144
 30
0.0
 11
208.846
 21
68.0434
 31
0.0
  0
LINE
  8
0
 62
     0
 10
208.846
 20
68.0434
 30
0.0
 11
209.645
 21
68.0434
 31
0.0
  0
LINE
  8
0
 62
     0
 10
209.645
 20
68.0434
 30
0.0
 11
209.645
 21
67.0429
 31
0.0
  0
LINE
  8
0
 62
     0
 10
209.645
 20
67.0429
 30
0.0
 11
223.646
 21
67.0429
 31
0.0
  0
LINE
  8
0
 62
     0
 10
223.646
 20
67.0429
 30
0.0
 11
223.646
 21
68.0434
 31
0.0
  0
LINE
  8
0
 62
     0
 10
223.646
 20
68.0434
 30
0.0
 11
224.445
 21
68.0434
 31
0.0
  0
LINE
  8
0
 62
     0
 10
224.445
 20
68.0434
 30
0.0
 11
224.445
 21
71.144
 31
0.0
  0
LINE
  8
0
 62
     0
 10
224.445
 20
71.144
 30
0.0
 11
223.646
 21
71.144
 31
0.0
  0
LINE
  8
0
 62
     0
 10
223.646
 20
71.144
 30
0.0
 11
223.646
 21
76.9426
 31
0.0
  0
LINE
  8
0
 62
     0
 10
223.646
 20
76.9426
 30
0.0
 11
224.445
 21
76.9426
 31
0.0
  0
LINE
  8
0
 62
     0
 10
224.445
 20
76.9426
 30
0.0
 11
224.445
 21
80.0435
 31
0.0
  0
LINE
  8
0
 62
     0
 10
224.445
 20
80.0435
 30
0.0
 11
223.646
 21
80.0435
 31
0.0
  0
LINE
  8
0
 62
     0
 10
223.646
 20
80.0435
 30
0.0
 11
223.646
 21
81.0436
 31
0.0
  0
LINE
  8
0
 62
     0
 10
223.646
 20
81.0436
 30
0.0
 11
209.645
 21
81.0436
 31
0.0
  0
LINE
  8
0
 62
     0
 10
190.595
 20
81.0436
 30
0.0
 11
190.595
 21
80.0435
 31
0.0
  0
LINE
  8
0
 62
     0
 10
190.595
 20
80.0435
 30
0.0
 11
189.796
 21
80.0435
 31
0.0
  0
LINE
  8
0
 62
     0
 10
189.796
 20
80.0435
 30
0.0
 11
189.796
 21
76.9426
 31
0.0
  0
LINE
  8
0
 62
     0
 10
189.796
 20
76.9426
 30
0.0
 11
190.595
 21
76.9426
 31
0.0
  0
LINE
  8
0
 62
     0
 10
190.595
 20
76.9426
 30
0.0
 11
190.595
 21
71.144
 31
0.0
  0
LINE
  8
0
 62
     0
 10
190.595
 20
71.144
 30
0.0
 11
189.796
 21
71.144
 31
0.0
  0
LINE
  8
0
 62
     0
 10
189.796
 20
71.144
 30
0.0
 11
189.796
 21
68.0434
 31
0.0
  0
LINE
  8
0
 62
     0
 10
189.796
 20
68.0434
 30
0.0
 11
190.595
 21
68.0434
 31
0.0
  0
LINE
  8
0
 62
     0
 10
190.595
 20
68.0434
 30
0.0
 11
190.595
 21
67.0429
 31
0.0
  0
LINE
  8
0
 62
     0
 10
190.595
 20
67.0429
 30
0.0
 11
204.596
 21
67.0429
 31
0.0
  0
LINE
  8
0
 62
     0
 10
204.596
 20
67.0429
 30
0.0
 11
204.596
 21
68.0434
 31
0.0
  0
LINE
  8
0
 62
     0
 10
204.596
 20
68.0434
 30
0.0
 11
205.395
 21
68.0434
 31
0.0
  0
LINE
  8
0
 62
     0
 10
205.395
 20
68.0434
 30
0.0
 11
205.395
 21
71.144
 31
0.0
  0
LINE
  8
0
 62
     0
 10
205.395
 20
71.144
 30
0.0
 11
204.596
 21
71.144
 31
0.0
  0
LINE
  8
0
 62
     0
 10
204.596
 20
71.144
 30
0.0
 11
204.596
 21
76.9426
 31
0.0
  0
LINE
  8
0
 62
     0
 10
204.596
 20
76.9426
 30
0.0
 11
205.395
 21
76.9426
 31
0.0
  0
LINE
  8
0
 62
     0
 10
205.395
 20
76.9426
 30
0.0
 11
205.395
 21
80.0435
 31
0.0
  0
LINE
  8
0
 62
     0
 10
205.395
 20
80.0435
 30
0.0
 11
204.596
 21
80.0435
 31
0.0
  0
LINE
  8
0
 62
     0
 10
204.596
 20
80.0435
 30
0.0
 11
204.596
 21
81.0436
 31
0.0
  0
LINE
  8
0
 62
     0
 10
204.596
 20
81.0436
 30
0.0
 11
190.595
 21
81.0436
 31
0.0
  0
LINE
  8
0
 62
     0
 10
171.545
 20
81.0436
 30
0.0
 11
171.545
 21
80.0435
 31
0.0
  0
LINE
  8
0
 62
     0
 10
171.545
 20
80.0435
 30
0.0
 11
170.746
 21
80.0435
 31
0.0
  0
LINE
  8
0
 62
     0
 10
170.746
 20
80.0435
 30
0.0
 11
170.746
 21
76.9426
 31
0.0
  0
LINE
  8
0
 62
     0
 10
170.746
 20
76.9426
 30
0.0
 11
171.545
 21
76.9426
 31
0.0
  0
LINE
  8
0
 62
     0
 10
171.545
 20
76.9426
 30
0.0
 11
171.545
 21
71.144
 31
0.0
  0
LINE
  8
0
 62
     0
 10
171.545
 20
71.144
 30
0.0
 11
170.746
 21
71.144
 31
0.0
  0
LINE
  8
0
 62
     0
 10
170.746
 20
71.144
 30
0.0
 11
170.746
 21
68.0434
 31
0.0
  0
LINE
  8
0
 62
     0
 10
170.746
 20
68.0434
 30
0.0
 11
171.545
 21
68.0434
 31
0.0
  0
LINE
  8
0
 62
     0
 10
171.545
 20
68.0434
 30
0.0
 11
171.545
 21
67.0429
 31
0.0
  0
LINE
  8
0
 62
     0
 10
171.545
 20
67.0429
 30
0.0
 11
185.546
 21
67.0429
 31
0.0
  0
LINE
  8
0
 62
     0
 10
185.546
 20
67.0429
 30
0.0
 11
185.546
 21
68.0434
 31
0.0
  0
LINE
  8
0
 62
     0
 10
185.546
 20
68.0434
 30
0.0
 11
186.345
 21
68.0434
 31
0.0
  0
LINE
  8
0
 62
     0
 10
186.345
 20
68.0434
 30
0.0
 11
186.345
 21
71.144
 31
0.0
  0
LINE
  8
0
 62
     0
 10
186.345
 20
71.144
 30
0.0
 11
185.546
 21
71.144
 31
0.0
  0
LINE
  8
0
 62
     0
 10
185.546
 20
71.144
 30
0.0
 11
185.546
 21
76.9426
 31
0.0
  0
LINE
  8
0
 62
     0
 10
185.546
 20
76.9426
 30
0.0
 11
186.345
 21
76.9426
 31
0.0
  0
LINE
  8
0
 62
     0
 10
186.345
 20
76.9426
 30
0.0
 11
186.345
 21
80.0435
 31
0.0
  0
LINE
  8
0
 62
     0
 10
186.345
 20
80.0435
 30
0.0
 11
185.546
 21
80.0435
 31
0.0
  0
LINE
  8
0
 62
     0
 10
185.546
 20
80.0435
 30
0.0
 11
185.546
 21
81.0436
 31
0.0
  0
LINE
  8
0
 62
     0
 10
185.546
 20
81.0436
 30
0.0
 11
171.545
 21
81.0436
 31
0.0
  0
LINE
  8
0
 62
     0
 10
152.495
 20
81.0436
 30
0.0
 11
152.495
 21
80.0435
 31
0.0
  0
LINE
  8
0
 62
     0
 10
152.495
 20
80.0435
 30
0.0
 11
151.696
 21
80.0435
 31
0.0
  0
LINE
  8
0
 62
     0
 10
151.696
 20
80.0435
 30
0.0
 11
151.696
 21
76.9426
 31
0.0
  0
LINE
  8
0
 62
     0
 10
151.696
 20
76.9426
 30
0.0
 11
152.495
 21
76.9426
 31
0.0
  0
LINE
  8
0
 62
     0
 10
152.495
 20
76.9426
 30
0.0
 11
152.495
 21
71.144
 31
0.0
  0
LINE
  8
0
 62
     0
 10
152.495
 20
71.144
 30
0.0
 11
151.696
 21
71.144
 31
0.0
  0
LINE
  8
0
 62
     0
 10
151.696
 20
71.144
 30
0.0
 11
151.696
 21
68.0434
 31
0.0
  0
LINE
  8
0
 62
     0
 10
151.696
 20
68.0434
 30
0.0
 11
152.495
 21
68.0434
 31
0.0
  0
LINE
  8
0
 62
     0
 10
152.495
 20
68.0434
 30
0.0
 11
152.495
 21
67.0429
 31
0.0
  0
LINE
  8
0
 62
     0
 10
152.495
 20
67.0429
 30
0.0
 11
166.496
 21
67.0429
 31
0.0
  0
LINE
  8
0
 62
     0
 10
166.496
 20
67.0429
 30
0.0
 11
166.496
 21
68.0434
 31
0.0
  0
LINE
  8
0
 62
     0
 10
166.496
 20
68.0434
 30
0.0
 11
167.295
 21
68.0434
 31
0.0
  0
LINE
  8
0
 62
     0
 10
167.295
 20
68.0434
 30
0.0
 11
167.295
 21
71.144
 31
0.0
  0
LINE
  8
0
 62
     0
 10
167.295
 20
71.144
 30
0.0
 11
166.496
 21
71.144
 31
0.0
  0
LINE
  8
0
 62
     0
 10
166.496
 20
71.144
 30
0.0
 11
166.496
 21
76.9426
 31
0.0
  0
LINE
  8
0
 62
     0
 10
166.496
 20
76.9426
 30
0.0
 11
167.295
 21
76.9426
 31
0.0
  0
LINE
  8
0
 62
     0
 10
167.295
 20
76.9426
 30
0.0
 11
167.295
 21
80.0435
 31
0.0
  0
LINE
  8
0
 62
     0
 10
167.295
 20
80.0435
 30
0.0
 11
166.496
 21
80.0435
 31
0.0
  0
LINE
  8
0
 62
     0
 10
166.496
 20
80.0435
 30
0.0
 11
166.496
 21
81.0436
 31
0.0
  0
LINE
  8
0
 62
     0
 10
166.496
 20
81.0436
 30
0.0
 11
152.495
 21
81.0436
 31
0.0
  0
LINE
  8
0
 62
     0
 10
133.445
 20
81.0436
 30
0.0
 11
133.445
 21
80.0435
 31
0.0
  0
LINE
  8
0
 62
     0
 10
133.445
 20
80.0435
 30
0.0
 11
132.644
 21
80.0435
 31
0.0
  0
LINE
  8
0
 62
     0
 10
132.644
 20
80.0435
 30
0.0
 11
132.644
 21
76.9426
 31
0.0
  0
LINE
  8
0
 62
     0
 10
132.644
 20
76.9426
 30
0.0
 11
133.445
 21
76.9426
 31
0.0
  0
LINE
  8
0
 62
     0
 10
133.445
 20
76.9426
 30
0.0
 11
133.445
 21
71.144
 31
0.0
  0
LINE
  8
0
 62
     0
 10
133.445
 20
71.144
 30
0.0
 11
132.644
 21
71.144
 31
0.0
  0
LINE
  8
0
 62
     0
 10
132.644
 20
71.144
 30
0.0
 11
132.644
 21
68.0434
 31
0.0
  0
LINE
  8
0
 62
     0
 10
132.644
 20
68.0434
 30
0.0
 11
133.445
 21
68.0434
 31
0.0
  0
LINE
  8
0
 62
     0
 10
133.445
 20
68.0434
 30
0.0
 11
133.445
 21
67.0429
 31
0.0
  0
LINE
  8
0
 62
     0
 10
133.445
 20
67.0429
 30
0.0
 11
147.446
 21
67.0429
 31
0.0
  0
LINE
  8
0
 62
     0
 10
147.446
 20
67.0429
 30
0.0
 11
147.446
 21
68.0434
 31
0.0
  0
LINE
  8
0
 62
     0
 10
147.446
 20
68.0434
 30
0.0
 11
148.245
 21
68.0434
 31
0.0
  0
LINE
  8
0
 62
     0
 10
148.245
 20
68.0434
 30
0.0
 11
148.245
 21
71.144
 31
0.0
  0
LINE
  8
0
 62
     0
 10
148.245
 20
71.144
 30
0.0
 11
147.446
 21
71.144
 31
0.0
  0
LINE
  8
0
 62
     0
 10
147.446
 20
71.144
 30
0.0
 11
147.446
 21
76.9426
 31
0.0
  0
LINE
  8
0
 62
     0
 10
147.446
 20
76.9426
 30
0.0
 11
148.245
 21
76.9426
 31
0.0
  0
LINE
  8
0
 62
     0
 10
148.245
 20
76.9426
 30
0.0
 11
148.245
 21
80.0435
 31
0.0
  0
LINE
  8
0
 62
     0
 10
148.245
 20
80.0435
 30
0.0
 11
147.446
 21
80.0435
 31
0.0
  0
LINE
  8
0
 62
     0
 10
147.446
 20
80.0435
 30
0.0
 11
147.446
 21
81.0436
 31
0.0
  0
LINE
  8
0
 62
     0
 10
147.446
 20
81.0436
 30
0.0
 11
133.445
 21
81.0436
 31
0.0
  0
LINE
  8
0
 62
     0
 10
114.395
 20
81.0436
 30
0.0
 11
114.395
 21
80.0435
 31
0.0
  0
LINE
  8
0
 62
     0
 10
114.395
 20
80.0435
 30
0.0
 11
113.596
 21
80.0435
 31
0.0
  0
LINE
  8
0
 62
     0
 10
113.596
 20
80.0435
 30
0.0
 11
113.596
 21
76.9426
 31
0.0
  0
LINE
  8
0
 62
     0
 10
113.596
 20
76.9426
 30
0.0
 11
114.395
 21
76.9426
 31
0.0
  0
LINE
  8
0
 62
     0
 10
114.395
 20
76.9426
 30
0.0
 11
114.395
 21
71.144
 31
0.0
  0
LINE
  8
0
 62
     0
 10
114.395
 20
71.144
 30
0.0
 11
113.596
 21
71.144
 31
0.0
  0
LINE
  8
0
 62
     0
 10
113.596
 20
71.144
 30
0.0
 11
113.596
 21
68.0434
 31
0.0
  0
LINE
  8
0
 62
     0
 10
113.596
 20
68.0434
 30
0.0
 11
114.395
 21
68.0434
 31
0.0
  0
LINE
  8
0
 62
     0
 10
114.395
 20
68.0434
 30
0.0
 11
114.395
 21
67.0429
 31
0.0
  0
LINE
  8
0
 62
     0
 10
114.395
 20
67.0429
 30
0.0
 11
128.396
 21
67.0429
 31
0.0
  0
LINE
  8
0
 62
     0
 10
128.396
 20
67.0429
 30
0.0
 11
128.396
 21
68.0434
 31
0.0
  0
LINE
  8
0
 62
     0
 10
128.396
 20
68.0434
 30
0.0
 11
129.195
 21
68.0434
 31
0.0
  0
LINE
  8
0
 62
     0
 10
129.195
 20
68.0434
 30
0.0
 11
129.195
 21
71.144
 31
0.0
  0
LINE
  8
0
 62
     0
 10
129.195
 20
71.144
 30
0.0
 11
128.396
 21
71.144
 31
0.0
  0
LINE
  8
0
 62
     0
 10
128.396
 20
71.144
 30
0.0
 11
128.396
 21
76.9426
 31
0.0
  0
LINE
  8
0
 62
     0
 10
128.396
 20
76.9426
 30
0.0
 11
129.195
 21
76.9426
 31
0.0
  0
LINE
  8
0
 62
     0
 10
129.195
 20
76.9426
 30
0.0
 11
129.195
 21
80.0435
 31
0.0
  0
LINE
  8
0
 62
     0
 10
129.195
 20
80.0435
 30
0.0
 11
128.396
 21
80.0435
 31
0.0
  0
LINE
  8
0
 62
     0
 10
128.396
 20
80.0435
 30
0.0
 11
128.396
 21
81.0436
 31
0.0
  0
LINE
  8
0
 62
     0
 10
128.396
 20
81.0436
 30
0.0
 11
114.395
 21
81.0436
 31
0.0
  0
LINE
  8
0
 62
     0
 10
95.3452
 20
81.0436
 30
0.0
 11
95.3452
 21
80.0435
 31
0.0
  0
LINE
  8
0
 62
     0
 10
95.3452
 20
80.0435
 30
0.0
 11
94.5459
 21
80.0435
 31
0.0
  0
LINE
  8
0
 62
     0
 10
94.5459
 20
80.0435
 30
0.0
 11
94.5459
 21
76.9426
 31
0.0
  0
LINE
  8
0
 62
     0
 10
94.5459
 20
76.9426
 30
0.0
 11
95.3452
 21
76.9426
 31
0.0
  0
LINE
  8
0
 62
     0
 10
95.3452
 20
76.9426
 30
0.0
 11
95.3452
 21
71.144
 31
0.0
  0
LINE
  8
0
 62
     0
 10
95.3452
 20
71.144
 30
0.0
 11
94.5459
 21
71.144
 31
0.0
  0
LINE
  8
0
 62
     0
 10
94.5459
 20
71.144
 30
0.0
 11
94.5459
 21
68.0434
 31
0.0
  0
LINE
  8
0
 62
     0
 10
94.5459
 20
68.0434
 30
0.0
 11
95.3452
 21
68.0434
 31
0.0
  0
LINE
  8
0
 62
     0
 10
95.3452
 20
68.0434
 30
0.0
 11
95.3452
 21
67.0429
 31
0.0
  0
LINE
  8
0
 62
     0
 10
95.3452
 20
67.0429
 30
0.0
 11
109.346
 21
67.0429
 31
0.0
  0
LINE
  8
0
 62
     0
 10
109.346
 20
67.0429
 30
0.0
 11
109.346
 21
68.0434
 31
0.0
  0
LINE
  8
0
 62
     0
 10
109.346
 20
68.0434
 30
0.0
 11
110.145
 21
68.0434
 31
0.0
  0
LINE
  8
0
 62
     0
 10
110.145
 20
68.0434
 30
0.0
 11
110.145
 21
71.144
 31
0.0
  0
LINE
  8
0
 62
     0
 10
110.145
 20
71.144
 30
0.0
 11
109.346
 21
71.144
 31
0.0
  0
LINE
  8
0
 62
     0
 10
109.346
 20
71.144
 30
0.0
 11
109.346
 21
76.9426
 31
0.0
  0
LINE
  8
0
 62
     0
 10
109.346
 20
76.9426
 30
0.0
 11
110.145
 21
76.9426
 31
0.0
  0
LINE
  8
0
 62
     0
 10
110.145
 20
76.9426
 30
0.0
 11
110.145
 21
80.0435
 31
0.0
  0
LINE
  8
0
 62
     0
 10
110.145
 20
80.0435
 30
0.0
 11
109.346
 21
80.0435
 31
0.0
  0
LINE
  8
0
 62
     0
 10
109.346
 20
80.0435
 30
0.0
 11
109.346
 21
81.0436
 31
0.0
  0
LINE
  8
0
 62
     0
 10
109.346
 20
81.0436
 30
0.0
 11
95.3452
 21
81.0436
 31
0.0
  0
LINE
  8
0
 62
     0
 10
76.2953
 20
81.0436
 30
0.0
 11
76.2953
 21
80.0435
 31
0.0
  0
LINE
  8
0
 62
     0
 10
76.2953
 20
80.0435
 30
0.0
 11
75.4959
 21
80.0435
 31
0.0
  0
LINE
  8
0
 62
     0
 10
75.4959
 20
80.0435
 30
0.0
 11
75.4959
 21
76.9426
 31
0.0
  0
LINE
  8
0
 62
     0
 10
75.4959
 20
76.9426
 30
0.0
 11
76.2953
 21
76.9426
 31
0.0
  0
LINE
  8
0
 62
     0
 10
76.2953
 20
76.9426
 30
0.0
 11
76.2953
 21
71.144
 31
0.0
  0
LINE
  8
0
 62
     0
 10
76.2953
 20
71.144
 30
0.0
 11
75.4959
 21
71.144
 31
0.0
  0
LINE
  8
0
 62
     0
 10
75.4959
 20
71.144
 30
0.0
 11
75.4959
 21
68.0434
 31
0.0
  0
LINE
  8
0
 62
     0
 10
75.4959
 20
68.0434
 30
0.0
 11
76.2953
 21
68.0434
 31
0.0
  0
LINE
  8
0
 62
     0
 10
76.2953
 20
68.0434
 30
0.0
 11
76.2953
 21
67.0429
 31
0.0
  0
LINE
  8
0
 62
     0
 10
76.2953
 20
67.0429
 30
0.0
 11
90.2959
 21
67.0429
 31
0.0
  0
LINE
  8
0
 62
     0
 10
90.2959
 20
67.0429
 30
0.0
 11
90.2959
 21
68.0434
 31
0.0
  0
LINE
  8
0
 62
     0
 10
90.2959
 20
68.0434
 30
0.0
 11
91.0953
 21
68.0434
 31
0.0
  0
LINE
  8
0
 62
     0
 10
91.0953
 20
68.0434
 30
0.0
 11
91.0953
 21
71.144
 31
0.0
  0
LINE
  8
0
 62
     0
 10
91.0953
 20
71.144
 30
0.0
 11
90.2959
 21
71.144
 31
0.0
  0
LINE
  8
0
 62
     0
 10
90.2959
 20
71.144
 30
0.0
 11
90.2959
 21
76.9426
 31
0.0
  0
LINE
  8
0
 62
     0
 10
90.2959
 20
76.9426
 30
0.0
 11
91.0953
 21
76.9426
 31
0.0
  0
LINE
  8
0
 62
     0
 10
91.0953
 20
76.9426
 30
0.0
 11
91.0953
 21
80.0435
 31
0.0
  0
LINE
  8
0
 62
     0
 10
91.0953
 20
80.0435
 30
0.0
 11
90.2959
 21
80.0435
 31
0.0
  0
LINE
  8
0
 62
     0
 10
90.2959
 20
80.0435
 30
0.0
 11
90.2959
 21
81.0436
 31
0.0
  0
LINE
  8
0
 62
     0
 10
90.2959
 20
81.0436
 30
0.0
 11
76.2953
 21
81.0436
 31
0.0
  0
LINE
  8
0
 62
     0
 10
57.2453
 20
81.0436
 30
0.0
 11
57.2453
 21
80.0435
 31
0.0
  0
LINE
  8
0
 62
     0
 10
57.2453
 20
80.0435
 30
0.0
 11
56.4459
 21
80.0435
 31
0.0
  0
LINE
  8
0
 62
     0
 10
56.4459
 20
80.0435
 30
0.0
 11
56.4459
 21
76.9426
 31
0.0
  0
LINE
  8
0
 62
     0
 10
56.4459
 20
76.9426
 30
0.0
 11
57.2453
 21
76.9426
 31
0.0
  0
LINE
  8
0
 62
     0
 10
57.2453
 20
76.9426
 30
0.0
 11
57.2453
 21
71.144
 31
0.0
  0
LINE
  8
0
 62
     0
 10
57.2453
 20
71.144
 30
0.0
 11
56.4459
 21
71.144
 31
0.0
  0
LINE
  8
0
 62
     0
 10
56.4459
 20
71.144
 30
0.0
 11
56.4459
 21
68.0434
 31
0.0
  0
LINE
  8
0
 62
     0
 10
56.4459
 20
68.0434
 30
0.0
 11
57.2453
 21
68.0434
 31
0.0
  0
LINE
  8
0
 62
     0
 10
57.2453
 20
68.0434
 30
0.0
 11
57.2453
 21
67.0429
 31
0.0
  0
LINE
  8
0
 62
     0
 10
57.2453
 20
67.0429
 30
0.0
 11
71.2459
 21
67.0429
 31
0.0
  0
LINE
  8
0
 62
     0
 10
71.2459
 20
67.0429
 30
0.0
 11
71.2459
 21
68.0434
 31
0.0
  0
LINE
  8
0
 62
     0
 10
71.2459
 20
68.0434
 30
0.0
 11
72.0453
 21
68.0434
 31
0.0
  0
LINE
  8
0
 62
     0
 10
72.0453
 20
68.0434
 30
0.0
 11
72.0453
 21
71.144
 31
0.0
  0
LINE
  8
0
 62
     0
 10
72.0453
 20
71.144
 30
0.0
 11
71.2459
 21
71.144
 31
0.0
  0
LINE
  8
0
 62
     0
 10
71.2459
 20
71.144
 30
0.0
 11
71.2459
 21
76.9426
 31
0.0
  0
LINE
  8
0
 62
     0
 10
71.2459
 20
76.9426
 30
0.0
 11
72.0453
 21
76.9426
 31
0.0
  0
LINE
  8
0
 62
     0
 10
72.0453
 20
76.9426
 30
0.0
 11
72.0453
 21
80.0435
 31
0.0
  0
LINE
  8
0
 62
     0
 10
72.0453
 20
80.0435
 30
0.0
 11
71.2459
 21
80.0435
 31
0.0
  0
LINE
  8
0
 62
     0
 10
71.2459
 20
80.0435
 30
0.0
 11
71.2459
 21
81.0436
 31
0.0
  0
LINE
  8
0
 62
     0
 10
71.2459
 20
81.0436
 30
0.0
 11
57.2453
 21
81.0436
 31
0.0
  0
LINE
  8
0
 62
     0
 10
38.1952
 20
81.0436
 30
0.0
 11
38.1952
 21
80.0435
 31
0.0
  0
LINE
  8
0
 62
     0
 10
38.1952
 20
80.0435
 30
0.0
 11
37.3959
 21
80.0435
 31
0.0
  0
LINE
  8
0
 62
     0
 10
37.3959
 20
80.0435
 30
0.0
 11
37.3959
 21
76.9426
 31
0.0
  0
LINE
  8
0
 62
     0
 10
37.3959
 20
76.9426
 30
0.0
 11
38.1952
 21
76.9426
 31
0.0
  0
LINE
  8
0
 62
     0
 10
38.1952
 20
76.9426
 30
0.0
 11
38.1952
 21
71.144
 31
0.0
  0
LINE
  8
0
 62
     0
 10
38.1952
 20
71.144
 30
0.0
 11
37.3959
 21
71.144
 31
0.0
  0
LINE
  8
0
 62
     0
 10
37.3959
 20
71.144
 30
0.0
 11
37.3959
 21
68.0434
 31
0.0
  0
LINE
  8
0
 62
     0
 10
37.3959
 20
68.0434
 30
0.0
 11
38.1952
 21
68.0434
 31
0.0
  0
LINE
  8
0
 62
     0
 10
38.1952
 20
68.0434
 30
0.0
 11
38.1952
 21
67.0429
 31
0.0
  0
LINE
  8
0
 62
     0
 10
38.1952
 20
67.0429
 30
0.0
 11
52.1959
 21
67.0429
 31
0.0
  0
LINE
  8
0
 62
     0
 10
52.1959
 20
67.0429
 30
0.0
 11
52.1959
 21
68.0434
 31
0.0
  0
LINE
  8
0
 62
     0
 10
52.1959
 20
68.0434
 30
0.0
 11
52.9953
 21
68.0434
 31
0.0
  0
LINE
  8
0
 62
     0
 10
52.9953
 20
68.0434
 30
0.0
 11
52.9953
 21
71.144
 31
0.0
  0
LINE
  8
0
 62
     0
 10
52.9953
 20
71.144
 30
0.0
 11
52.1959
 21
71.144
 31
0.0
  0
LINE
  8
0
 62
     0
 10
52.1959
 20
71.144
 30
0.0
 11
52.1959
 21
76.9426
 31
0.0
  0
LINE
  8
0
 62
     0
 10
52.1959
 20
76.9426
 30
0.0
 11
52.9953
 21
76.9426
 31
0.0
  0
LINE
  8
0
 62
     0
 10
52.9953
 20
76.9426
 30
0.0
 11
52.9953
 21
80.0435
 31
0.0
  0
LINE
  8
0
 62
     0
 10
52.9953
 20
80.0435
 30
0.0
 11
52.1959
 21
80.0435
 31
0.0
  0
LINE
  8
0
 62
     0
 10
52.1959
 20
80.0435
 30
0.0
 11
52.1959
 21
81.0436
 31
0.0
  0
LINE
  8
0
 62
     0
 10
52.1959
 20
81.0436
 30
0.0
 11
38.1952
 21
81.0436
 31
0.0
  0
LINE
  8
0
 62
     0
 10
14.3826
 20
81.0436
 30
0.0
 11
14.3826
 21
80.0435
 31
0.0
  0
LINE
  8
0
 62
     0
 10
14.3826
 20
80.0435
 30
0.0
 11
13.5819
 21
80.0435
 31
0.0
  0
LINE
  8
0
 62
     0
 10
13.5819
 20
80.0435
 30
0.0
 11
13.5819
 21
76.9426
 31
0.0
  0
LINE
  8
0
 62
     0
 10
13.5819
 20
76.9426
 30
0.0
 11
14.3826
 21
76.9426
 31
0.0
  0
LINE
  8
0
 62
     0
 10
14.3826
 20
76.9426
 30
0.0
 11
14.3826
 21
71.144
 31
0.0
  0
LINE
  8
0
 62
     0
 10
14.3826
 20
71.144
 30
0.0
 11
13.5819
 21
71.144
 31
0.0
  0
LINE
  8
0
 62
     0
 10
13.5819
 20
71.144
 30
0.0
 11
13.5819
 21
68.0434
 31
0.0
  0
LINE
  8
0
 62
     0
 10
13.5819
 20
68.0434
 30
0.0
 11
14.3826
 21
68.0434
 31
0.0
  0
LINE
  8
0
 62
     0
 10
14.3826
 20
68.0434
 30
0.0
 11
14.3826
 21
67.0429
 31
0.0
  0
LINE
  8
0
 62
     0
 10
14.3826
 20
67.0429
 30
0.0
 11
28.3821
 21
67.0429
 31
0.0
  0
LINE
  8
0
 62
     0
 10
28.3821
 20
67.0429
 30
0.0
 11
28.3821
 21
68.0434
 31
0.0
  0
LINE
  8
0
 62
     0
 10
28.3821
 20
68.0434
 30
0.0
 11
29.1827
 21
68.0434
 31
0.0
  0
LINE
  8
0
 62
     0
 10
29.1827
 20
68.0434
 30
0.0
 11
29.1827
 21
71.144
 31
0.0
  0
LINE
  8
0
 62
     0
 10
29.1827
 20
71.144
 30
0.0
 11
28.3821
 21
71.144
 31
0.0
  0
LINE
  8
0
 62
     0
 10
28.3821
 20
71.144
 30
0.0
 11
28.3821
 21
76.9426
 31
0.0
  0
LINE
  8
0
 62
     0
 10
28.3821
 20
76.9426
 30
0.0
 11
29.1827
 21
76.9426
 31
0.0
  0
LINE
  8
0
 62
     0
 10
29.1827
 20
76.9426
 30
0.0
 11
29.1827
 21
80.0435
 31
0.0
  0
LINE
  8
0
 62
     0
 10
29.1827
 20
80.0435
 30
0.0
 11
28.3821
 21
80.0435
 31
0.0
  0
LINE
  8
0
 62
     0
 10
28.3821
 20
80.0435
 30
0.0
 11
28.3821
 21
81.0436
 31
0.0
  0
LINE
  8
0
 62
     0
 10
28.3821
 20
81.0436
 30
0.0
 11
14.3826
 21
81.0436
 31
0.0
  0
LINE
  8
0
 62
     0
 10
266.795
 20
100.094
 30
0.0
 11
266.795
 21
99.0946
 31
0.0
  0
LINE
  8
0
 62
     0
 10
266.795
 20
99.0946
 30
0.0
 11
265.996
 21
99.0946
 31
0.0
  0
LINE
  8
0
 62
     0
 10
265.996
 20
99.0946
 30
0.0
 11
265.996
 21
95.9926
 31
0.0
  0
LINE
  8
0
 62
     0
 10
265.996
 20
95.9926
 30
0.0
 11
266.795
 21
95.9926
 31
0.0
  0
LINE
  8
0
 62
     0
 10
266.795
 20
95.9926
 30
0.0
 11
266.795
 21
95.3946
 31
0.0
  0
LINE
  8
0
 62
     0
 10
266.795
 20
95.3946
 30
0.0
 11
265.271
 21
95.3946
 31
0.0
  0
LINE
  8
0
 62
     0
 10
265.271
 20
95.3946
 30
0.0
 11
265.271
 21
98.6247
 31
0.0
  0
LINE
  8
0
 62
     0
 10
265.271
 20
98.6247
 30
0.0
 11
258.52
 21
98.6247
 31
0.0
  0
LINE
  8
0
 62
     0
 10
258.52
 20
98.6247
 30
0.0
 11
258.52
 21
95.3946
 31
0.0
  0
LINE
  8
0
 62
     0
 10
258.52
 20
95.3946
 30
0.0
 11
257.696
 21
95.3946
 31
0.0
  0
LINE
  8
0
 62
     0
 10
257.696
 20
95.3946
 30
0.0
 11
257.696
 21
92.5932
 31
0.0
  0
LINE
  8
0
 62
     0
 10
257.696
 20
92.5932
 30
0.0
 11
258.52
 21
92.5932
 31
0.0
  0
LINE
  8
0
 62
     0
 10
258.52
 20
92.5932
 30
0.0
 11
258.52
 21
86.3244
 31
0.0
  0
LINE
  8
0
 62
     0
 10
258.52
 20
86.3244
 30
0.0
 11
260.245
 21
86.3244
 31
0.0
  0
LINE
  8
0
 62
     0
 10
260.245
 20
86.3244
 30
0.0
 11
260.245
 21
85.1242
 31
0.0
  0
LINE
  8
0
 62
     0
 10
260.245
 20
85.1242
 30
0.0
 11
263.546
 21
85.1242
 31
0.0
  0
LINE
  8
0
 62
     0
 10
263.546
 20
85.1242
 30
0.0
 11
263.546
 21
86.3244
 31
0.0
  0
LINE
  8
0
 62
     0
 10
263.546
 20
86.3244
 30
0.0
 11
265.271
 21
86.3244
 31
0.0
  0
LINE
  8
0
 62
     0
 10
265.271
 20
86.3244
 30
0.0
 11
265.271
 21
90.7934
 31
0.0
  0
LINE
  8
0
 62
     0
 10
265.271
 20
90.7934
 30
0.0
 11
266.795
 21
90.7934
 31
0.0
  0
LINE
  8
0
 62
     0
 10
266.795
 20
90.7934
 30
0.0
 11
266.795
 21
90.194
 31
0.0
  0
LINE
  8
0
 62
     0
 10
266.795
 20
90.194
 30
0.0
 11
265.996
 21
90.194
 31
0.0
  0
LINE
  8
0
 62
     0
 10
265.996
 20
90.194
 30
0.0
 11
265.996
 21
87.0934
 31
0.0
  0
LINE
  8
0
 62
     0
 10
265.996
 20
87.0934
 30
0.0
 11
266.795
 21
87.0934
 31
0.0
  0
LINE
  8
0
 62
     0
 10
266.795
 20
87.0934
 30
0.0
 11
266.795
 21
86.0929
 31
0.0
  0
LINE
  8
0
 62
     0
 10
266.795
 20
86.0929
 30
0.0
 11
280.796
 21
86.0929
 31
0.0
  0
LINE
  8
0
 62
     0
 10
280.796
 20
86.0929
 30
0.0
 11
280.796
 21
87.0934
 31
0.0
  0
LINE
  8
0
 62
     0
 10
280.796
 20
87.0934
 30
0.0
 11
281.595
 21
87.0934
 31
0.0
  0
LINE
  8
0
 62
     0
 10
281.595
 20
87.0934
 30
0.0
 11
281.595
 21
90.194
 31
0.0
  0
LINE
  8
0
 62
     0
 10
281.595
 20
90.194
 30
0.0
 11
280.796
 21
90.194
 31
0.0
  0
LINE
  8
0
 62
     0
 10
280.796
 20
90.194
 30
0.0
 11
280.796
 21
90.7934
 31
0.0
  0
LINE
  8
0
 62
     0
 10
280.796
 20
90.7934
 30
0.0
 11
282.32
 21
90.7934
 31
0.0
  0
LINE
  8
0
 62
     0
 10
282.32
 20
90.7934
 30
0.0
 11
282.32
 21
86.3244
 31
0.0
  0
LINE
  8
0
 62
     0
 10
282.32
 20
86.3244
 30
0.0
 11
284.045
 21
86.3244
 31
0.0
  0
LINE
  8
0
 62
     0
 10
284.045
 20
86.3244
 30
0.0
 11
284.045
 21
85.1242
 31
0.0
  0
LINE
  8
0
 62
     0
 10
284.045
 20
85.1242
 30
0.0
 11
287.346
 21
85.1242
 31
0.0
  0
LINE
  8
0
 62
     0
 10
287.346
 20
85.1242
 30
0.0
 11
287.346
 21
86.3244
 31
0.0
  0
LINE
  8
0
 62
     0
 10
287.346
 20
86.3244
 30
0.0
 11
289.071
 21
86.3244
 31
0.0
  0
LINE
  8
0
 62
     0
 10
289.071
 20
86.3244
 30
0.0
 11
289.071
 21
92.5932
 31
0.0
  0
LINE
  8
0
 62
     0
 10
289.071
 20
92.5932
 30
0.0
 11
289.895
 21
92.5932
 31
0.0
  0
LINE
  8
0
 62
     0
 10
289.895
 20
92.5932
 30
0.0
 11
289.895
 21
95.3946
 31
0.0
  0
LINE
  8
0
 62
     0
 10
289.895
 20
95.3946
 30
0.0
 11
289.071
 21
95.3946
 31
0.0
  0
LINE
  8
0
 62
     0
 10
289.071
 20
95.3946
 30
0.0
 11
289.071
 21
98.6247
 31
0.0
  0
LINE
  8
0
 62
     0
 10
289.071
 20
98.6247
 30
0.0
 11
282.32
 21
98.6247
 31
0.0
  0
LINE
  8
0
 62
     0
 10
282.32
 20
98.6247
 30
0.0
 11
282.32
 21
95.3946
 31
0.0
  0
LINE
  8
0
 62
     0
 10
282.32
 20
95.3946
 30
0.0
 11
280.796
 21
95.3946
 31
0.0
  0
LINE
  8
0
 62
     0
 10
280.796
 20
95.3946
 30
0.0
 11
280.796
 21
95.9926
 31
0.0
  0
LINE
  8
0
 62
     0
 10
280.796
 20
95.9926
 30
0.0
 11
281.595
 21
95.9926
 31
0.0
  0
LINE
  8
0
 62
     0
 10
281.595
 20
95.9926
 30
0.0
 11
281.595
 21
99.0946
 31
0.0
  0
LINE
  8
0
 62
     0
 10
281.595
 20
99.0946
 30
0.0
 11
280.796
 21
99.0946
 31
0.0
  0
LINE
  8
0
 62
     0
 10
280.796
 20
99.0946
 30
0.0
 11
280.796
 21
100.094
 31
0.0
  0
LINE
  8
0
 62
     0
 10
280.796
 20
100.094
 30
0.0
 11
266.795
 21
100.094
 31
0.0
  0
LINE
  8
0
 62
     0
 10
333.47
 20
100.094
 30
0.0
 11
333.47
 21
99.0946
 31
0.0
  0
LINE
  8
0
 62
     0
 10
333.47
 20
99.0946
 30
0.0
 11
332.671
 21
99.0946
 31
0.0
  0
LINE
  8
0
 62
     0
 10
332.671
 20
99.0946
 30
0.0
 11
332.671
 21
95.9926
 31
0.0
  0
LINE
  8
0
 62
     0
 10
332.671
 20
95.9926
 30
0.0
 11
333.47
 21
95.9926
 31
0.0
  0
LINE
  8
0
 62
     0
 10
333.47
 20
95.9926
 30
0.0
 11
333.47
 21
90.194
 31
0.0
  0
LINE
  8
0
 62
     0
 10
333.47
 20
90.194
 30
0.0
 11
332.671
 21
90.194
 31
0.0
  0
LINE
  8
0
 62
     0
 10
332.671
 20
90.194
 30
0.0
 11
332.671
 21
87.0934
 31
0.0
  0
LINE
  8
0
 62
     0
 10
332.671
 20
87.0934
 30
0.0
 11
333.47
 21
87.0934
 31
0.0
  0
LINE
  8
0
 62
     0
 10
333.47
 20
87.0934
 30
0.0
 11
333.47
 21
86.0929
 31
0.0
  0
LINE
  8
0
 62
     0
 10
333.47
 20
86.0929
 30
0.0
 11
347.471
 21
86.0929
 31
0.0
  0
LINE
  8
0
 62
     0
 10
347.471
 20
86.0929
 30
0.0
 11
347.471
 21
87.0934
 31
0.0
  0
LINE
  8
0
 62
     0
 10
347.471
 20
87.0934
 30
0.0
 11
348.27
 21
87.0934
 31
0.0
  0
LINE
  8
0
 62
     0
 10
348.27
 20
87.0934
 30
0.0
 11
348.27
 21
90.194
 31
0.0
  0
LINE
  8
0
 62
     0
 10
348.27
 20
90.194
 30
0.0
 11
347.471
 21
90.194
 31
0.0
  0
LINE
  8
0
 62
     0
 10
347.471
 20
90.194
 30
0.0
 11
347.471
 21
95.9926
 31
0.0
  0
LINE
  8
0
 62
     0
 10
347.471
 20
95.9926
 30
0.0
 11
348.27
 21
95.9926
 31
0.0
  0
LINE
  8
0
 62
     0
 10
348.27
 20
95.9926
 30
0.0
 11
348.27
 21
99.0946
 31
0.0
  0
LINE
  8
0
 62
     0
 10
348.27
 20
99.0946
 30
0.0
 11
347.471
 21
99.0946
 31
0.0
  0
LINE
  8
0
 62
     0
 10
347.471
 20
99.0946
 30
0.0
 11
347.471
 21
100.094
 31
0.0
  0
LINE
  8
0
 62
     0
 10
347.471
 20
100.094
 30
0.0
 11
333.47
 21
100.094
 31
0.0
  0
LINE
  8
0
 62
     0
 10
314.42
 20
100.094
 30
0.0
 11
314.42
 21
99.0946
 31
0.0
  0
LINE
  8
0
 62
     0
 10
314.42
 20
99.0946
 30
0.0
 11
313.621
 21
99.0946
 31
0.0
  0
LINE
  8
0
 62
     0
 10
313.621
 20
99.0946
 30
0.0
 11
313.621
 21
95.9926
 31
0.0
  0
LINE
  8
0
 62
     0
 10
313.621
 20
95.9926
 30
0.0
 11
314.42
 21
95.9926
 31
0.0
  0
LINE
  8
0
 62
     0
 10
314.42
 20
95.9926
 30
0.0
 11
314.42
 21
90.194
 31
0.0
  0
LINE
  8
0
 62
     0
 10
314.42
 20
90.194
 30
0.0
 11
313.621
 21
90.194
 31
0.0
  0
LINE
  8
0
 62
     0
 10
313.621
 20
90.194
 30
0.0
 11
313.621
 21
87.0934
 31
0.0
  0
LINE
  8
0
 62
     0
 10
313.621
 20
87.0934
 30
0.0
 11
314.42
 21
87.0934
 31
0.0
  0
LINE
  8
0
 62
     0
 10
314.42
 20
87.0934
 30
0.0
 11
314.42
 21
86.0929
 31
0.0
  0
LINE
  8
0
 62
     0
 10
314.42
 20
86.0929
 30
0.0
 11
328.421
 21
86.0929
 31
0.0
  0
LINE
  8
0
 62
     0
 10
328.421
 20
86.0929
 30
0.0
 11
328.421
 21
87.0934
 31
0.0
  0
LINE
  8
0
 62
     0
 10
328.421
 20
87.0934
 30
0.0
 11
329.22
 21
87.0934
 31
0.0
  0
LINE
  8
0
 62
     0
 10
329.22
 20
87.0934
 30
0.0
 11
329.22
 21
90.194
 31
0.0
  0
LINE
  8
0
 62
     0
 10
329.22
 20
90.194
 30
0.0
 11
328.421
 21
90.194
 31
0.0
  0
LINE
  8
0
 62
     0
 10
328.421
 20
90.194
 30
0.0
 11
328.421
 21
95.9926
 31
0.0
  0
LINE
  8
0
 62
     0
 10
328.421
 20
95.9926
 30
0.0
 11
329.22
 21
95.9926
 31
0.0
  0
LINE
  8
0
 62
     0
 10
329.22
 20
95.9926
 30
0.0
 11
329.22
 21
99.0946
 31
0.0
  0
LINE
  8
0
 62
     0
 10
329.22
 20
99.0946
 30
0.0
 11
328.421
 21
99.0946
 31
0.0
  0
LINE
  8
0
 62
     0
 10
328.421
 20
99.0946
 30
0.0
 11
328.421
 21
100.094
 31
0.0
  0
LINE
  8
0
 62
     0
 10
328.421
 20
100.094
 30
0.0
 11
314.42
 21
100.094
 31
0.0
  0
LINE
  8
0
 62
     0
 10
295.37
 20
100.094
 30
0.0
 11
295.37
 21
99.0946
 31
0.0
  0
LINE
  8
0
 62
     0
 10
295.37
 20
99.0946
 30
0.0
 11
294.571
 21
99.0946
 31
0.0
  0
LINE
  8
0
 62
     0
 10
294.571
 20
99.0946
 30
0.0
 11
294.571
 21
95.9926
 31
0.0
  0
LINE
  8
0
 62
     0
 10
294.571
 20
95.9926
 30
0.0
 11
295.37
 21
95.9926
 31
0.0
  0
LINE
  8
0
 62
     0
 10
295.37
 20
95.9926
 30
0.0
 11
295.37
 21
90.194
 31
0.0
  0
LINE
  8
0
 62
     0
 10
295.37
 20
90.194
 30
0.0
 11
294.571
 21
90.194
 31
0.0
  0
LINE
  8
0
 62
     0
 10
294.571
 20
90.194
 30
0.0
 11
294.571
 21
87.0934
 31
0.0
  0
LINE
  8
0
 62
     0
 10
294.571
 20
87.0934
 30
0.0
 11
295.37
 21
87.0934
 31
0.0
  0
LINE
  8
0
 62
     0
 10
295.37
 20
87.0934
 30
0.0
 11
295.37
 21
86.0929
 31
0.0
  0
LINE
  8
0
 62
     0
 10
295.37
 20
86.0929
 30
0.0
 11
309.371
 21
86.0929
 31
0.0
  0
LINE
  8
0
 62
     0
 10
309.371
 20
86.0929
 30
0.0
 11
309.371
 21
87.0934
 31
0.0
  0
LINE
  8
0
 62
     0
 10
309.371
 20
87.0934
 30
0.0
 11
310.17
 21
87.0934
 31
0.0
  0
LINE
  8
0
 62
     0
 10
310.17
 20
87.0934
 30
0.0
 11
310.17
 21
90.194
 31
0.0
  0
LINE
  8
0
 62
     0
 10
310.17
 20
90.194
 30
0.0
 11
309.371
 21
90.194
 31
0.0
  0
LINE
  8
0
 62
     0
 10
309.371
 20
90.194
 30
0.0
 11
309.371
 21
95.9926
 31
0.0
  0
LINE
  8
0
 62
     0
 10
309.371
 20
95.9926
 30
0.0
 11
310.17
 21
95.9926
 31
0.0
  0
LINE
  8
0
 62
     0
 10
310.17
 20
95.9926
 30
0.0
 11
310.17
 21
99.0946
 31
0.0
  0
LINE
  8
0
 62
     0
 10
310.17
 20
99.0946
 30
0.0
 11
309.371
 21
99.0946
 31
0.0
  0
LINE
  8
0
 62
     0
 10
309.371
 20
99.0946
 30
0.0
 11
309.371
 21
100.094
 31
0.0
  0
LINE
  8
0
 62
     0
 10
309.371
 20
100.094
 30
0.0
 11
295.37
 21
100.094
 31
0.0
  0
LINE
  8
0
 62
     0
 10
238.22
 20
100.094
 30
0.0
 11
238.22
 21
99.0946
 31
0.0
  0
LINE
  8
0
 62
     0
 10
238.22
 20
99.0946
 30
0.0
 11
237.421
 21
99.0946
 31
0.0
  0
LINE
  8
0
 62
     0
 10
237.421
 20
99.0946
 30
0.0
 11
237.421
 21
95.9926
 31
0.0
  0
LINE
  8
0
 62
     0
 10
237.421
 20
95.9926
 30
0.0
 11
238.22
 21
95.9926
 31
0.0
  0
LINE
  8
0
 62
     0
 10
238.22
 20
95.9926
 30
0.0
 11
238.22
 21
90.194
 31
0.0
  0
LINE
  8
0
 62
     0
 10
238.22
 20
90.194
 30
0.0
 11
237.421
 21
90.194
 31
0.0
  0
LINE
  8
0
 62
     0
 10
237.421
 20
90.194
 30
0.0
 11
237.421
 21
87.0934
 31
0.0
  0
LINE
  8
0
 62
     0
 10
237.421
 20
87.0934
 30
0.0
 11
238.22
 21
87.0934
 31
0.0
  0
LINE
  8
0
 62
     0
 10
238.22
 20
87.0934
 30
0.0
 11
238.22
 21
86.0929
 31
0.0
  0
LINE
  8
0
 62
     0
 10
238.22
 20
86.0929
 30
0.0
 11
252.221
 21
86.0929
 31
0.0
  0
LINE
  8
0
 62
     0
 10
252.221
 20
86.0929
 30
0.0
 11
252.221
 21
87.0934
 31
0.0
  0
LINE
  8
0
 62
     0
 10
252.221
 20
87.0934
 30
0.0
 11
253.02
 21
87.0934
 31
0.0
  0
LINE
  8
0
 62
     0
 10
253.02
 20
87.0934
 30
0.0
 11
253.02
 21
90.194
 31
0.0
  0
LINE
  8
0
 62
     0
 10
253.02
 20
90.194
 30
0.0
 11
252.221
 21
90.194
 31
0.0
  0
LINE
  8
0
 62
     0
 10
252.221
 20
90.194
 30
0.0
 11
252.221
 21
95.9926
 31
0.0
  0
LINE
  8
0
 62
     0
 10
252.221
 20
95.9926
 30
0.0
 11
253.02
 21
95.9926
 31
0.0
  0
LINE
  8
0
 62
     0
 10
253.02
 20
95.9926
 30
0.0
 11
253.02
 21
99.0946
 31
0.0
  0
LINE
  8
0
 62
     0
 10
253.02
 20
99.0946
 30
0.0
 11
252.221
 21
99.0946
 31
0.0
  0
LINE
  8
0
 62
     0
 10
252.221
 20
99.0946
 30
0.0
 11
252.221
 21
100.094
 31
0.0
  0
LINE
  8
0
 62
     0
 10
252.221
 20
100.094
 30
0.0
 11
238.22
 21
100.094
 31
0.0
  0
LINE
  8
0
 62
     0
 10
219.17
 20
100.094
 30
0.0
 11
219.17
 21
99.0946
 31
0.0
  0
LINE
  8
0
 62
     0
 10
219.17
 20
99.0946
 30
0.0
 11
218.371
 21
99.0946
 31
0.0
  0
LINE
  8
0
 62
     0
 10
218.371
 20
99.0946
 30
0.0
 11
218.371
 21
95.9926
 31
0.0
  0
LINE
  8
0
 62
     0
 10
218.371
 20
95.9926
 30
0.0
 11
219.17
 21
95.9926
 31
0.0
  0
LINE
  8
0
 62
     0
 10
219.17
 20
95.9926
 30
0.0
 11
219.17
 21
90.194
 31
0.0
  0
LINE
  8
0
 62
     0
 10
219.17
 20
90.194
 30
0.0
 11
218.371
 21
90.194
 31
0.0
  0
LINE
  8
0
 62
     0
 10
218.371
 20
90.194
 30
0.0
 11
218.371
 21
87.0934
 31
0.0
  0
LINE
  8
0
 62
     0
 10
218.371
 20
87.0934
 30
0.0
 11
219.17
 21
87.0934
 31
0.0
  0
LINE
  8
0
 62
     0
 10
219.17
 20
87.0934
 30
0.0
 11
219.17
 21
86.0929
 31
0.0
  0
LINE
  8
0
 62
     0
 10
219.17
 20
86.0929
 30
0.0
 11
233.171
 21
86.0929
 31
0.0
  0
LINE
  8
0
 62
     0
 10
233.171
 20
86.0929
 30
0.0
 11
233.171
 21
87.0934
 31
0.0
  0
LINE
  8
0
 62
     0
 10
233.171
 20
87.0934
 30
0.0
 11
233.97
 21
87.0934
 31
0.0
  0
LINE
  8
0
 62
     0
 10
233.97
 20
87.0934
 30
0.0
 11
233.97
 21
90.194
 31
0.0
  0
LINE
  8
0
 62
     0
 10
233.97
 20
90.194
 30
0.0
 11
233.171
 21
90.194
 31
0.0
  0
LINE
  8
0
 62
     0
 10
233.171
 20
90.194
 30
0.0
 11
233.171
 21
95.9926
 31
0.0
  0
LINE
  8
0
 62
     0
 10
233.171
 20
95.9926
 30
0.0
 11
233.97
 21
95.9926
 31
0.0
  0
LINE
  8
0
 62
     0
 10
233.97
 20
95.9926
 30
0.0
 11
233.97
 21
99.0946
 31
0.0
  0
LINE
  8
0
 62
     0
 10
233.97
 20
99.0946
 30
0.0
 11
233.171
 21
99.0946
 31
0.0
  0
LINE
  8
0
 62
     0
 10
233.171
 20
99.0946
 30
0.0
 11
233.171
 21
100.094
 31
0.0
  0
LINE
  8
0
 62
     0
 10
233.171
 20
100.094
 30
0.0
 11
219.17
 21
100.094
 31
0.0
  0
LINE
  8
0
 62
     0
 10
200.12
 20
100.094
 30
0.0
 11
200.12
 21
99.0946
 31
0.0
  0
LINE
  8
0
 62
     0
 10
200.12
 20
99.0946
 30
0.0
 11
199.321
 21
99.0946
 31
0.0
  0
LINE
  8
0
 62
     0
 10
199.321
 20
99.0946
 30
0.0
 11
199.321
 21
95.9926
 31
0.0
  0
LINE
  8
0
 62
     0
 10
199.321
 20
95.9926
 30
0.0
 11
200.12
 21
95.9926
 31
0.0
  0
LINE
  8
0
 62
     0
 10
200.12
 20
95.9926
 30
0.0
 11
200.12
 21
90.194
 31
0.0
  0
LINE
  8
0
 62
     0
 10
200.12
 20
90.194
 30
0.0
 11
199.321
 21
90.194
 31
0.0
  0
LINE
  8
0
 62
     0
 10
199.321
 20
90.194
 30
0.0
 11
199.321
 21
87.0934
 31
0.0
  0
LINE
  8
0
 62
     0
 10
199.321
 20
87.0934
 30
0.0
 11
200.12
 21
87.0934
 31
0.0
  0
LINE
  8
0
 62
     0
 10
200.12
 20
87.0934
 30
0.0
 11
200.12
 21
86.0929
 31
0.0
  0
LINE
  8
0
 62
     0
 10
200.12
 20
86.0929
 30
0.0
 11
214.121
 21
86.0929
 31
0.0
  0
LINE
  8
0
 62
     0
 10
214.121
 20
86.0929
 30
0.0
 11
214.121
 21
87.0934
 31
0.0
  0
LINE
  8
0
 62
     0
 10
214.121
 20
87.0934
 30
0.0
 11
214.92
 21
87.0934
 31
0.0
  0
LINE
  8
0
 62
     0
 10
214.92
 20
87.0934
 30
0.0
 11
214.92
 21
90.194
 31
0.0
  0
LINE
  8
0
 62
     0
 10
214.92
 20
90.194
 30
0.0
 11
214.121
 21
90.194
 31
0.0
  0
LINE
  8
0
 62
     0
 10
214.121
 20
90.194
 30
0.0
 11
214.121
 21
95.9926
 31
0.0
  0
LINE
  8
0
 62
     0
 10
214.121
 20
95.9926
 30
0.0
 11
214.92
 21
95.9926
 31
0.0
  0
LINE
  8
0
 62
     0
 10
214.92
 20
95.9926
 30
0.0
 11
214.92
 21
99.0946
 31
0.0
  0
LINE
  8
0
 62
     0
 10
214.92
 20
99.0946
 30
0.0
 11
214.121
 21
99.0946
 31
0.0
  0
LINE
  8
0
 62
     0
 10
214.121
 20
99.0946
 30
0.0
 11
214.121
 21
100.094
 31
0.0
  0
LINE
  8
0
 62
     0
 10
214.121
 20
100.094
 30
0.0
 11
200.12
 21
100.094
 31
0.0
  0
LINE
  8
0
 62
     0
 10
181.07
 20
100.094
 30
0.0
 11
181.07
 21
99.0946
 31
0.0
  0
LINE
  8
0
 62
     0
 10
181.07
 20
99.0946
 30
0.0
 11
180.271
 21
99.0946
 31
0.0
  0
LINE
  8
0
 62
     0
 10
180.271
 20
99.0946
 30
0.0
 11
180.271
 21
95.9926
 31
0.0
  0
LINE
  8
0
 62
     0
 10
180.271
 20
95.9926
 30
0.0
 11
181.07
 21
95.9926
 31
0.0
  0
LINE
  8
0
 62
     0
 10
181.07
 20
95.9926
 30
0.0
 11
181.07
 21
90.194
 31
0.0
  0
LINE
  8
0
 62
     0
 10
181.07
 20
90.194
 30
0.0
 11
180.271
 21
90.194
 31
0.0
  0
LINE
  8
0
 62
     0
 10
180.271
 20
90.194
 30
0.0
 11
180.271
 21
87.0934
 31
0.0
  0
LINE
  8
0
 62
     0
 10
180.271
 20
87.0934
 30
0.0
 11
181.07
 21
87.0934
 31
0.0
  0
LINE
  8
0
 62
     0
 10
181.07
 20
87.0934
 30
0.0
 11
181.07
 21
86.0929
 31
0.0
  0
LINE
  8
0
 62
     0
 10
181.07
 20
86.0929
 30
0.0
 11
195.071
 21
86.0929
 31
0.0
  0
LINE
  8
0
 62
     0
 10
195.071
 20
86.0929
 30
0.0
 11
195.071
 21
87.0934
 31
0.0
  0
LINE
  8
0
 62
     0
 10
195.071
 20
87.0934
 30
0.0
 11
195.87
 21
87.0934
 31
0.0
  0
LINE
  8
0
 62
     0
 10
195.87
 20
87.0934
 30
0.0
 11
195.87
 21
90.194
 31
0.0
  0
LINE
  8
0
 62
     0
 10
195.87
 20
90.194
 30
0.0
 11
195.071
 21
90.194
 31
0.0
  0
LINE
  8
0
 62
     0
 10
195.071
 20
90.194
 30
0.0
 11
195.071
 21
95.9926
 31
0.0
  0
LINE
  8
0
 62
     0
 10
195.071
 20
95.9926
 30
0.0
 11
195.87
 21
95.9926
 31
0.0
  0
LINE
  8
0
 62
     0
 10
195.87
 20
95.9926
 30
0.0
 11
195.87
 21
99.0946
 31
0.0
  0
LINE
  8
0
 62
     0
 10
195.87
 20
99.0946
 30
0.0
 11
195.071
 21
99.0946
 31
0.0
  0
LINE
  8
0
 62
     0
 10
195.071
 20
99.0946
 30
0.0
 11
195.071
 21
100.094
 31
0.0
  0
LINE
  8
0
 62
     0
 10
195.071
 20
100.094
 30
0.0
 11
181.07
 21
100.094
 31
0.0
  0
LINE
  8
0
 62
     0
 10
162.02
 20
100.094
 30
0.0
 11
162.02
 21
99.0946
 31
0.0
  0
LINE
  8
0
 62
     0
 10
162.02
 20
99.0946
 30
0.0
 11
161.221
 21
99.0946
 31
0.0
  0
LINE
  8
0
 62
     0
 10
161.221
 20
99.0946
 30
0.0
 11
161.221
 21
95.9926
 31
0.0
  0
LINE
  8
0
 62
     0
 10
161.221
 20
95.9926
 30
0.0
 11
162.02
 21
95.9926
 31
0.0
  0
LINE
  8
0
 62
     0
 10
162.02
 20
95.9926
 30
0.0
 11
162.02
 21
90.194
 31
0.0
  0
LINE
  8
0
 62
     0
 10
162.02
 20
90.194
 30
0.0
 11
161.221
 21
90.194
 31
0.0
  0
LINE
  8
0
 62
     0
 10
161.221
 20
90.194
 30
0.0
 11
161.221
 21
87.0934
 31
0.0
  0
LINE
  8
0
 62
     0
 10
161.221
 20
87.0934
 30
0.0
 11
162.02
 21
87.0934
 31
0.0
  0
LINE
  8
0
 62
     0
 10
162.02
 20
87.0934
 30
0.0
 11
162.02
 21
86.0929
 31
0.0
  0
LINE
  8
0
 62
     0
 10
162.02
 20
86.0929
 30
0.0
 11
176.021
 21
86.0929
 31
0.0
  0
LINE
  8
0
 62
     0
 10
176.021
 20
86.0929
 30
0.0
 11
176.021
 21
87.0934
 31
0.0
  0
LINE
  8
0
 62
     0
 10
176.021
 20
87.0934
 30
0.0
 11
176.82
 21
87.0934
 31
0.0
  0
LINE
  8
0
 62
     0
 10
176.82
 20
87.0934
 30
0.0
 11
176.82
 21
90.194
 31
0.0
  0
LINE
  8
0
 62
     0
 10
176.82
 20
90.194
 30
0.0
 11
176.021
 21
90.194
 31
0.0
  0
LINE
  8
0
 62
     0
 10
176.021
 20
90.194
 30
0.0
 11
176.021
 21
95.9926
 31
0.0
  0
LINE
  8
0
 62
     0
 10
176.021
 20
95.9926
 30
0.0
 11
176.82
 21
95.9926
 31
0.0
  0
LINE
  8
0
 62
     0
 10
176.82
 20
95.9926
 30
0.0
 11
176.82
 21
99.0946
 31
0.0
  0
LINE
  8
0
 62
     0
 10
176.82
 20
99.0946
 30
0.0
 11
176.021
 21
99.0946
 31
0.0
  0
LINE
  8
0
 62
     0
 10
176.021
 20
99.0946
 30
0.0
 11
176.021
 21
100.094
 31
0.0
  0
LINE
  8
0
 62
     0
 10
176.021
 20
100.094
 30
0.0
 11
162.02
 21
100.094
 31
0.0
  0
LINE
  8
0
 62
     0
 10
142.97
 20
100.094
 30
0.0
 11
142.97
 21
99.0946
 31
0.0
  0
LINE
  8
0
 62
     0
 10
142.97
 20
99.0946
 30
0.0
 11
142.171
 21
99.0946
 31
0.0
  0
LINE
  8
0
 62
     0
 10
142.171
 20
99.0946
 30
0.0
 11
142.171
 21
95.9926
 31
0.0
  0
LINE
  8
0
 62
     0
 10
142.171
 20
95.9926
 30
0.0
 11
142.97
 21
95.9926
 31
0.0
  0
LINE
  8
0
 62
     0
 10
142.97
 20
95.9926
 30
0.0
 11
142.97
 21
90.194
 31
0.0
  0
LINE
  8
0
 62
     0
 10
142.97
 20
90.194
 30
0.0
 11
142.171
 21
90.194
 31
0.0
  0
LINE
  8
0
 62
     0
 10
142.171
 20
90.194
 30
0.0
 11
142.171
 21
87.0934
 31
0.0
  0
LINE
  8
0
 62
     0
 10
142.171
 20
87.0934
 30
0.0
 11
142.97
 21
87.0934
 31
0.0
  0
LINE
  8
0
 62
     0
 10
142.97
 20
87.0934
 30
0.0
 11
142.97
 21
86.0929
 31
0.0
  0
LINE
  8
0
 62
     0
 10
142.97
 20
86.0929
 30
0.0
 11
156.971
 21
86.0929
 31
0.0
  0
LINE
  8
0
 62
     0
 10
156.971
 20
86.0929
 30
0.0
 11
156.971
 21
87.0934
 31
0.0
  0
LINE
  8
0
 62
     0
 10
156.971
 20
87.0934
 30
0.0
 11
157.77
 21
87.0934
 31
0.0
  0
LINE
  8
0
 62
     0
 10
157.77
 20
87.0934
 30
0.0
 11
157.77
 21
90.194
 31
0.0
  0
LINE
  8
0
 62
     0
 10
157.77
 20
90.194
 30
0.0
 11
156.971
 21
90.194
 31
0.0
  0
LINE
  8
0
 62
     0
 10
156.971
 20
90.194
 30
0.0
 11
156.971
 21
95.9926
 31
0.0
  0
LINE
  8
0
 62
     0
 10
156.971
 20
95.9926
 30
0.0
 11
157.77
 21
95.9926
 31
0.0
  0
LINE
  8
0
 62
     0
 10
157.77
 20
95.9926
 30
0.0
 11
157.77
 21
99.0946
 31
0.0
  0
LINE
  8
0
 62
     0
 10
157.77
 20
99.0946
 30
0.0
 11
156.971
 21
99.0946
 31
0.0
  0
LINE
  8
0
 62
     0
 10
156.971
 20
99.0946
 30
0.0
 11
156.971
 21
100.094
 31
0.0
  0
LINE
  8
0
 62
     0
 10
156.971
 20
100.094
 30
0.0
 11
142.97
 21
100.094
 31
0.0
  0
LINE
  8
0
 62
     0
 10
123.92
 20
100.094
 30
0.0
 11
123.92
 21
99.0946
 31
0.0
  0
LINE
  8
0
 62
     0
 10
123.92
 20
99.0946
 30
0.0
 11
123.119
 21
99.0946
 31
0.0
  0
LINE
  8
0
 62
     0
 10
123.119
 20
99.0946
 30
0.0
 11
123.119
 21
95.9926
 31
0.0
  0
LINE
  8
0
 62
     0
 10
123.119
 20
95.9926
 30
0.0
 11
123.92
 21
95.9926
 31
0.0
  0
LINE
  8
0
 62
     0
 10
123.92
 20
95.9926
 30
0.0
 11
123.92
 21
90.194
 31
0.0
  0
LINE
  8
0
 62
     0
 10
123.92
 20
90.194
 30
0.0
 11
123.119
 21
90.194
 31
0.0
  0
LINE
  8
0
 62
     0
 10
123.119
 20
90.194
 30
0.0
 11
123.119
 21
87.0934
 31
0.0
  0
LINE
  8
0
 62
     0
 10
123.119
 20
87.0934
 30
0.0
 11
123.92
 21
87.0934
 31
0.0
  0
LINE
  8
0
 62
     0
 10
123.92
 20
87.0934
 30
0.0
 11
123.92
 21
86.0929
 31
0.0
  0
LINE
  8
0
 62
     0
 10
123.92
 20
86.0929
 30
0.0
 11
137.921
 21
86.0929
 31
0.0
  0
LINE
  8
0
 62
     0
 10
137.921
 20
86.0929
 30
0.0
 11
137.921
 21
87.0934
 31
0.0
  0
LINE
  8
0
 62
     0
 10
137.921
 20
87.0934
 30
0.0
 11
138.72
 21
87.0934
 31
0.0
  0
LINE
  8
0
 62
     0
 10
138.72
 20
87.0934
 30
0.0
 11
138.72
 21
90.194
 31
0.0
  0
LINE
  8
0
 62
     0
 10
138.72
 20
90.194
 30
0.0
 11
137.921
 21
90.194
 31
0.0
  0
LINE
  8
0
 62
     0
 10
137.921
 20
90.194
 30
0.0
 11
137.921
 21
95.9926
 31
0.0
  0
LINE
  8
0
 62
     0
 10
137.921
 20
95.9926
 30
0.0
 11
138.72
 21
95.9926
 31
0.0
  0
LINE
  8
0
 62
     0
 10
138.72
 20
95.9926
 30
0.0
 11
138.72
 21
99.0946
 31
0.0
  0
LINE
  8
0
 62
     0
 10
138.72
 20
99.0946
 30
0.0
 11
137.921
 21
99.0946
 31
0.0
  0
LINE
  8
0
 62
     0
 10
137.921
 20
99.0946
 30
0.0
 11
137.921
 21
100.094
 31
0.0
  0
LINE
  8
0
 62
     0
 10
137.921
 20
100.094
 30
0.0
 11
123.92
 21
100.094
 31
0.0
  0
LINE
  8
0
 62
     0
 10
104.87
 20
100.094
 30
0.0
 11
104.87
 21
99.0946
 31
0.0
  0
LINE
  8
0
 62
     0
 10
104.87
 20
99.0946
 30
0.0
 11
104.071
 21
99.0946
 31
0.0
  0
LINE
  8
0
 62
     0
 10
104.071
 20
99.0946
 30
0.0
 11
104.071
 21
95.9926
 31
0.0
  0
LINE
  8
0
 62
     0
 10
104.071
 20
95.9926
 30
0.0
 11
104.87
 21
95.9926
 31
0.0
  0
LINE
  8
0
 62
     0
 10
104.87
 20
95.9926
 30
0.0
 11
104.87
 21
90.194
 31
0.0
  0
LINE
  8
0
 62
     0
 10
104.87
 20
90.194
 30
0.0
 11
104.071
 21
90.194
 31
0.0
  0
LINE
  8
0
 62
     0
 10
104.071
 20
90.194
 30
0.0
 11
104.071
 21
87.0934
 31
0.0
  0
LINE
  8
0
 62
     0
 10
104.071
 20
87.0934
 30
0.0
 11
104.87
 21
87.0934
 31
0.0
  0
LINE
  8
0
 62
     0
 10
104.87
 20
87.0934
 30
0.0
 11
104.87
 21
86.0929
 31
0.0
  0
LINE
  8
0
 62
     0
 10
104.87
 20
86.0929
 30
0.0
 11
118.87
 21
86.0929
 31
0.0
  0
LINE
  8
0
 62
     0
 10
118.87
 20
86.0929
 30
0.0
 11
118.87
 21
87.0934
 31
0.0
  0
LINE
  8
0
 62
     0
 10
118.87
 20
87.0934
 30
0.0
 11
119.669
 21
87.0934
 31
0.0
  0
LINE
  8
0
 62
     0
 10
119.669
 20
87.0934
 30
0.0
 11
119.669
 21
90.194
 31
0.0
  0
LINE
  8
0
 62
     0
 10
119.669
 20
90.194
 30
0.0
 11
118.87
 21
90.194
 31
0.0
  0
LINE
  8
0
 62
     0
 10
118.87
 20
90.194
 30
0.0
 11
118.87
 21
95.9926
 31
0.0
  0
LINE
  8
0
 62
     0
 10
118.87
 20
95.9926
 30
0.0
 11
119.669
 21
95.9926
 31
0.0
  0
LINE
  8
0
 62
     0
 10
119.669
 20
95.9926
 30
0.0
 11
119.669
 21
99.0946
 31
0.0
  0
LINE
  8
0
 62
     0
 10
119.669
 20
99.0946
 30
0.0
 11
118.87
 21
99.0946
 31
0.0
  0
LINE
  8
0
 62
     0
 10
118.87
 20
99.0946
 30
0.0
 11
118.87
 21
100.094
 31
0.0
  0
LINE
  8
0
 62
     0
 10
118.87
 20
100.094
 30
0.0
 11
104.87
 21
100.094
 31
0.0
  0
LINE
  8
0
 62
     0
 10
85.8203
 20
100.094
 30
0.0
 11
85.8203
 21
99.0946
 31
0.0
  0
LINE
  8
0
 62
     0
 10
85.8203
 20
99.0946
 30
0.0
 11
85.0209
 21
99.0946
 31
0.0
  0
LINE
  8
0
 62
     0
 10
85.0209
 20
99.0946
 30
0.0
 11
85.0209
 21
95.9926
 31
0.0
  0
LINE
  8
0
 62
     0
 10
85.0209
 20
95.9926
 30
0.0
 11
85.8203
 21
95.9926
 31
0.0
  0
LINE
  8
0
 62
     0
 10
85.8203
 20
95.9926
 30
0.0
 11
85.8203
 21
90.194
 31
0.0
  0
LINE
  8
0
 62
     0
 10
85.8203
 20
90.194
 30
0.0
 11
85.0209
 21
90.194
 31
0.0
  0
LINE
  8
0
 62
     0
 10
85.0209
 20
90.194
 30
0.0
 11
85.0209
 21
87.0934
 31
0.0
  0
LINE
  8
0
 62
     0
 10
85.0209
 20
87.0934
 30
0.0
 11
85.8203
 21
87.0934
 31
0.0
  0
LINE
  8
0
 62
     0
 10
85.8203
 20
87.0934
 30
0.0
 11
85.8203
 21
86.0929
 31
0.0
  0
LINE
  8
0
 62
     0
 10
85.8203
 20
86.0929
 30
0.0
 11
99.8209
 21
86.0929
 31
0.0
  0
LINE
  8
0
 62
     0
 10
99.8209
 20
86.0929
 30
0.0
 11
99.8209
 21
87.0934
 31
0.0
  0
LINE
  8
0
 62
     0
 10
99.8209
 20
87.0934
 30
0.0
 11
100.619
 21
87.0934
 31
0.0
  0
LINE
  8
0
 62
     0
 10
100.619
 20
87.0934
 30
0.0
 11
100.619
 21
90.194
 31
0.0
  0
LINE
  8
0
 62
     0
 10
100.619
 20
90.194
 30
0.0
 11
99.8209
 21
90.194
 31
0.0
  0
LINE
  8
0
 62
     0
 10
99.8209
 20
90.194
 30
0.0
 11
99.8209
 21
95.9926
 31
0.0
  0
LINE
  8
0
 62
     0
 10
99.8209
 20
95.9926
 30
0.0
 11
100.619
 21
95.9926
 31
0.0
  0
LINE
  8
0
 62
     0
 10
100.619
 20
95.9926
 30
0.0
 11
100.619
 21
99.0946
 31
0.0
  0
LINE
  8
0
 62
     0
 10
100.619
 20
99.0946
 30
0.0
 11
99.8209
 21
99.0946
 31
0.0
  0
LINE
  8
0
 62
     0
 10
99.8209
 20
99.0946
 30
0.0
 11
99.8209
 21
100.094
 31
0.0
  0
LINE
  8
0
 62
     0
 10
99.8209
 20
100.094
 30
0.0
 11
85.8203
 21
100.094
 31
0.0
  0
LINE
  8
0
 62
     0
 10
66.7703
 20
100.094
 30
0.0
 11
66.7703
 21
99.0946
 31
0.0
  0
LINE
  8
0
 62
     0
 10
66.7703
 20
99.0946
 30
0.0
 11
65.9709
 21
99.0946
 31
0.0
  0
LINE
  8
0
 62
     0
 10
65.9709
 20
99.0946
 30
0.0
 11
65.9709
 21
95.9926
 31
0.0
  0
LINE
  8
0
 62
     0
 10
65.9709
 20
95.9926
 30
0.0
 11
66.7703
 21
95.9926
 31
0.0
  0
LINE
  8
0
 62
     0
 10
66.7703
 20
95.9926
 30
0.0
 11
66.7703
 21
90.194
 31
0.0
  0
LINE
  8
0
 62
     0
 10
66.7703
 20
90.194
 30
0.0
 11
65.9709
 21
90.194
 31
0.0
  0
LINE
  8
0
 62
     0
 10
65.9709
 20
90.194
 30
0.0
 11
65.9709
 21
87.0934
 31
0.0
  0
LINE
  8
0
 62
     0
 10
65.9709
 20
87.0934
 30
0.0
 11
66.7703
 21
87.0934
 31
0.0
  0
LINE
  8
0
 62
     0
 10
66.7703
 20
87.0934
 30
0.0
 11
66.7703
 21
86.0929
 31
0.0
  0
LINE
  8
0
 62
     0
 10
66.7703
 20
86.0929
 30
0.0
 11
80.7709
 21
86.0929
 31
0.0
  0
LINE
  8
0
 62
     0
 10
80.7709
 20
86.0929
 30
0.0
 11
80.7709
 21
87.0934
 31
0.0
  0
LINE
  8
0
 62
     0
 10
80.7709
 20
87.0934
 30
0.0
 11
81.5703
 21
87.0934
 31
0.0
  0
LINE
  8
0
 62
     0
 10
81.5703
 20
87.0934
 30
0.0
 11
81.5703
 21
90.194
 31
0.0
  0
LINE
  8
0
 62
     0
 10
81.5703
 20
90.194
 30
0.0
 11
80.7709
 21
90.194
 31
0.0
  0
LINE
  8
0
 62
     0
 10
80.7709
 20
90.194
 30
0.0
 11
80.7709
 21
95.9926
 31
0.0
  0
LINE
  8
0
 62
     0
 10
80.7709
 20
95.9926
 30
0.0
 11
81.5703
 21
95.9926
 31
0.0
  0
LINE
  8
0
 62
     0
 10
81.5703
 20
95.9926
 30
0.0
 11
81.5703
 21
99.0946
 31
0.0
  0
LINE
  8
0
 62
     0
 10
81.5703
 20
99.0946
 30
0.0
 11
80.7709
 21
99.0946
 31
0.0
  0
LINE
  8
0
 62
     0
 10
80.7709
 20
99.0946
 30
0.0
 11
80.7709
 21
100.094
 31
0.0
  0
LINE
  8
0
 62
     0
 10
80.7709
 20
100.094
 30
0.0
 11
66.7703
 21
100.094
 31
0.0
  0
LINE
  8
0
 62
     0
 10
47.7203
 20
100.094
 30
0.0
 11
47.7203
 21
99.0946
 31
0.0
  0
LINE
  8
0
 62
     0
 10
47.7203
 20
99.0946
 30
0.0
 11
46.9209
 21
99.0946
 31
0.0
  0
LINE
  8
0
 62
     0
 10
46.9209
 20
99.0946
 30
0.0
 11
46.9209
 21
95.9926
 31
0.0
  0
LINE
  8
0
 62
     0
 10
46.9209
 20
95.9926
 30
0.0
 11
47.7203
 21
95.9926
 31
0.0
  0
LINE
  8
0
 62
     0
 10
47.7203
 20
95.9926
 30
0.0
 11
47.7203
 21
90.194
 31
0.0
  0
LINE
  8
0
 62
     0
 10
47.7203
 20
90.194
 30
0.0
 11
46.9209
 21
90.194
 31
0.0
  0
LINE
  8
0
 62
     0
 10
46.9209
 20
90.194
 30
0.0
 11
46.9209
 21
87.0934
 31
0.0
  0
LINE
  8
0
 62
     0
 10
46.9209
 20
87.0934
 30
0.0
 11
47.7203
 21
87.0934
 31
0.0
  0
LINE
  8
0
 62
     0
 10
47.7203
 20
87.0934
 30
0.0
 11
47.7203
 21
86.0929
 31
0.0
  0
LINE
  8
0
 62
     0
 10
47.7203
 20
86.0929
 30
0.0
 11
61.7209
 21
86.0929
 31
0.0
  0
LINE
  8
0
 62
     0
 10
61.7209
 20
86.0929
 30
0.0
 11
61.7209
 21
87.0934
 31
0.0
  0
LINE
  8
0
 62
     0
 10
61.7209
 20
87.0934
 30
0.0
 11
62.5203
 21
87.0934
 31
0.0
  0
LINE
  8
0
 62
     0
 10
62.5203
 20
87.0934
 30
0.0
 11
62.5203
 21
90.194
 31
0.0
  0
LINE
  8
0
 62
     0
 10
62.5203
 20
90.194
 30
0.0
 11
61.7209
 21
90.194
 31
0.0
  0
LINE
  8
0
 62
     0
 10
61.7209
 20
90.194
 30
0.0
 11
61.7209
 21
95.9926
 31
0.0
  0
LINE
  8
0
 62
     0
 10
61.7209
 20
95.9926
 30
0.0
 11
62.5203
 21
95.9926
 31
0.0
  0
LINE
  8
0
 62
     0
 10
62.5203
 20
95.9926
 30
0.0
 11
62.5203
 21
99.0946
 31
0.0
  0
LINE
  8
0
 62
     0
 10
62.5203
 20
99.0946
 30
0.0
 11
61.7209
 21
99.0946
 31
0.0
  0
LINE
  8
0
 62
     0
 10
61.7209
 20
99.0946
 30
0.0
 11
61.7209
 21
100.094
 31
0.0
  0
LINE
  8
0
 62
     0
 10
61.7209
 20
100.094
 30
0.0
 11
47.7203
 21
100.094
 31
0.0
  0
LINE
  8
0
 62
     0
 10
28.6701
 20
100.094
 30
0.0
 11
28.6701
 21
99.0946
 31
0.0
  0
LINE
  8
0
 62
     0
 10
28.6701
 20
99.0946
 30
0.0
 11
27.8708
 21
99.0946
 31
0.0
  0
LINE
  8
0
 62
     0
 10
27.8708
 20
99.0946
 30
0.0
 11
27.8708
 21
95.9926
 31
0.0
  0
LINE
  8
0
 62
     0
 10
27.8708
 20
95.9926
 30
0.0
 11
28.6701
 21
95.9926
 31
0.0
  0
LINE
  8
0
 62
     0
 10
28.6701
 20
95.9926
 30
0.0
 11
28.6701
 21
90.194
 31
0.0
  0
LINE
  8
0
 62
     0
 10
28.6701
 20
90.194
 30
0.0
 11
27.8708
 21
90.194
 31
0.0
  0
LINE
  8
0
 62
     0
 10
27.8708
 20
90.194
 30
0.0
 11
27.8708
 21
87.0934
 31
0.0
  0
LINE
  8
0
 62
     0
 10
27.8708
 20
87.0934
 30
0.0
 11
28.6701
 21
87.0934
 31
0.0
  0
LINE
  8
0
 62
     0
 10
28.6701
 20
87.0934
 30
0.0
 11
28.6701
 21
86.0929
 31
0.0
  0
LINE
  8
0
 62
     0
 10
28.6701
 20
86.0929
 30
0.0
 11
42.6709
 21
86.0929
 31
0.0
  0
LINE
  8
0
 62
     0
 10
42.6709
 20
86.0929
 30
0.0
 11
42.6709
 21
87.0934
 31
0.0
  0
LINE
  8
0
 62
     0
 10
42.6709
 20
87.0934
 30
0.0
 11
43.4703
 21
87.0934
 31
0.0
  0
LINE
  8
0
 62
     0
 10
43.4703
 20
87.0934
 30
0.0
 11
43.4703
 21
90.194
 31
0.0
  0
LINE
  8
0
 62
     0
 10
43.4703
 20
90.194
 30
0.0
 11
42.6709
 21
90.194
 31
0.0
  0
LINE
  8
0
 62
     0
 10
42.6709
 20
90.194
 30
0.0
 11
42.6709
 21
95.9926
 31
0.0
  0
LINE
  8
0
 62
     0
 10
42.6709
 20
95.9926
 30
0.0
 11
43.4703
 21
95.9926
 31
0.0
  0
LINE
  8
0
 62
     0
 10
43.4703
 20
95.9926
 30
0.0
 11
43.4703
 21
99.0946
 31
0.0
  0
LINE
  8
0
 62
     0
 10
43.4703
 20
99.0946
 30
0.0
 11
42.6709
 21
99.0946
 31
0.0
  0
LINE
  8
0
 62
     0
 10
42.6709
 20
99.0946
 30
0.0
 11
42.6709
 21
100.094
 31
0.0
  0
LINE
  8
0
 62
     0
 10
42.6709
 20
100.094
 30
0.0
 11
28.6701
 21
100.094
 31
0.0
  0
LINE
  8
0
 62
     0
 10
9.62007
 20
100.094
 30
0.0
 11
9.62007
 21
99.0946
 31
0.0
  0
LINE
  8
0
 62
     0
 10
9.62007
 20
99.0946
 30
0.0
 11
8.81944
 21
99.0946
 31
0.0
  0
LINE
  8
0
 62
     0
 10
8.81944
 20
99.0946
 30
0.0
 11
8.81944
 21
95.9926
 31
0.0
  0
LINE
  8
0
 62
     0
 10
8.81944
 20
95.9926
 30
0.0
 11
9.62007
 21
95.9926
 31
0.0
  0
LINE
  8
0
 62
     0
 10
9.62007
 20
95.9926
 30
0.0
 11
9.62007
 21
90.194
 31
0.0
  0
LINE
  8
0
 62
     0
 10
9.62007
 20
90.194
 30
0.0
 11
8.81944
 21
90.194
 31
0.0
  0
LINE
  8
0
 62
     0
 10
8.81944
 20
90.194
 30
0.0
 11
8.81944
 21
87.0934
 31
0.0
  0
LINE
  8
0
 62
     0
 10
8.81944
 20
87.0934
 30
0.0
 11
9.62007
 21
87.0934
 31
0.0
  0
LINE
  8
0
 62
     0
 10
9.62007
 20
87.0934
 30
0.0
 11
9.62007
 21
86.0929
 31
0.0
  0
LINE
  8
0
 62
     0
 10
9.62007
 20
86.0929
 30
0.0
 11
23.6209
 21
86.0929
 31
0.0
  0
LINE
  8
0
 62
     0
 10
23.6209
 20
86.0929
 30
0.0
 11
23.6209
 21
87.0934
 31
0.0
  0
LINE
  8
0
 62
     0
 10
23.6209
 20
87.0934
 30
0.0
 11
24.4202
 21
87.0934
 31
0.0
  0
LINE
  8
0
 62
     0
 10
24.4202
 20
87.0934
 30
0.0
 11
24.4202
 21
90.194
 31
0.0
  0
LINE
  8
0
 62
     0
 10
24.4202
 20
90.194
 30
0.0
 11
23.6209
 21
90.194
 31
0.0
  0
LINE
  8
0
 62
     0
 10
23.6209
 20
90.194
 30
0.0
 11
23.6209
 21
95.9926
 31
0.0
  0
LINE
  8
0
 62
     0
 10
23.6209
 20
95.9926
 30
0.0
 11
24.4202
 21
95.9926
 31
0.0
  0
LINE
  8
0
 62
     0
 10
24.4202
 20
95.9926
 30
0.0
 11
24.4202
 21
99.0946
 31
0.0
  0
LINE
  8
0
 62
     0
 10
24.4202
 20
99.0946
 30
0.0
 11
23.6209
 21
99.0946
 31
0.0
  0
LINE
  8
0
 62
     0
 10
23.6209
 20
99.0946
 30
0.0
 11
23.6209
 21
100.094
 31
0.0
  0
LINE
  8
0
 62
     0
 10
23.6209
 20
100.094
 30
0.0
 11
9.62007
 21
100.094
 31
0.0
  0
ENDSEC
  0
EOF
