G04*
G04 #@! TF.GenerationSoftware,Altium Limited,Altium Designer,21.2.2 (38)*
G04*
G04 Layer_Color=65535*
%FSLAX25Y25*%
%MOIN*%
G70*
G04*
G04 #@! TF.SameCoordinates,D2681F19-CCD1-4E4B-9F87-FD34C08DC50C*
G04*
G04*
G04 #@! TF.FilePolarity,Positive*
G04*
G01*
G75*
%ADD10C,0.00500*%
%ADD11C,0.01000*%
G36*
X40000Y276695D02*
Y273710D01*
X37570Y274543D01*
Y273848D01*
X38774Y273432D01*
Y272205D01*
X40000Y271789D01*
Y267578D01*
X38774Y267994D01*
Y266768D01*
X37547Y267184D01*
Y265958D01*
X36321Y266374D01*
Y265148D01*
X29703Y267392D01*
Y268619D01*
X28476Y269035D01*
Y270262D01*
X27250Y270678D01*
Y271905D01*
X26023Y272321D01*
Y276533D01*
X27250Y276116D01*
Y277343D01*
X28476Y276926D01*
Y277620D01*
X22344Y279703D01*
Y282688D01*
X40000Y276695D01*
D02*
G37*
G36*
X31438Y264569D02*
Y261584D01*
X30212Y262001D01*
Y260774D01*
X28985Y261191D01*
Y259270D01*
X30212Y258854D01*
Y257627D01*
X31438Y257211D01*
Y255984D01*
X32665Y255568D01*
Y254341D01*
X40000Y251865D01*
Y248880D01*
X26023Y253624D01*
Y256609D01*
X28476Y255776D01*
Y256470D01*
X27250Y256887D01*
Y258113D01*
X26023Y258530D01*
X26023Y263968D01*
X27250Y263551D01*
Y264778D01*
X28476Y264361D01*
Y265564D01*
X31438Y264569D01*
D02*
G37*
G36*
X40000Y246659D02*
Y243674D01*
X38774Y244090D01*
Y243396D01*
X40000Y242980D01*
Y236315D01*
X38774Y236709D01*
Y235482D01*
X37547Y235922D01*
Y234696D01*
X32155Y236524D01*
Y237750D01*
X30906Y238167D01*
Y239393D01*
X29703Y239809D01*
Y246474D01*
X30906Y246057D01*
Y246751D01*
X28985Y247423D01*
Y246196D01*
X27759Y246589D01*
Y240481D01*
X24797Y241476D01*
Y249366D01*
X26023Y248950D01*
Y250176D01*
X27250Y249760D01*
Y250986D01*
X40000Y246659D01*
D02*
G37*
G36*
X37547Y232451D02*
Y231225D01*
X38774Y230808D01*
Y229582D01*
X40000Y229165D01*
Y221298D01*
X38774Y221714D01*
Y220488D01*
X37547Y220904D01*
Y219678D01*
X28476Y222755D01*
Y223982D01*
X27250Y224398D01*
Y225625D01*
X26023Y226041D01*
Y233909D01*
X27250Y233492D01*
Y234719D01*
X28476Y234302D01*
Y235529D01*
X37547Y232451D01*
D02*
G37*
G36*
X36321Y217873D02*
Y216646D01*
X37547Y216230D01*
Y215003D01*
X38774Y214587D01*
Y213361D01*
X40000Y212944D01*
Y208733D01*
X38774Y209149D01*
Y207923D01*
X37570Y208339D01*
Y207645D01*
X40000Y206812D01*
Y203827D01*
X22344Y209820D01*
Y212805D01*
X28476Y210722D01*
Y211417D01*
X27250Y211833D01*
Y213060D01*
X26023Y213476D01*
Y217688D01*
X27250Y217271D01*
Y218498D01*
X28476Y218081D01*
Y219307D01*
X29703Y218891D01*
Y220117D01*
X36321Y217873D01*
D02*
G37*
G36*
X37547Y202415D02*
Y201189D01*
X38774Y200772D01*
Y199546D01*
X40000Y199129D01*
Y191262D01*
X37038Y192257D01*
Y198366D01*
X35812Y198782D01*
Y200009D01*
X32642Y201096D01*
Y200402D01*
X33868Y199986D01*
Y198759D01*
X35094Y198343D01*
Y192928D01*
X33868Y193344D01*
Y192118D01*
X32642Y192534D01*
Y191308D01*
X24797Y193969D01*
Y196954D01*
X30906Y194872D01*
Y196098D01*
X32132Y195682D01*
Y197602D01*
X30906Y198019D01*
Y199222D01*
X29703Y199638D01*
Y200865D01*
X27250Y201698D01*
Y202924D01*
X24797Y203757D01*
Y206742D01*
X37547Y202415D01*
D02*
G37*
G36*
X40000Y186588D02*
Y183602D01*
X38774Y184019D01*
Y183325D01*
X40000Y182908D01*
Y176244D01*
X38774Y176637D01*
Y175411D01*
X37547Y175850D01*
Y174624D01*
X32155Y176452D01*
Y177679D01*
X30906Y178095D01*
Y179322D01*
X29703Y179738D01*
Y186402D01*
X30906Y185986D01*
Y186680D01*
X28985Y187351D01*
Y186125D01*
X27759Y186518D01*
Y180409D01*
X24797Y181404D01*
Y189295D01*
X26023Y188878D01*
Y190105D01*
X27250Y189688D01*
Y190915D01*
X40000Y186588D01*
D02*
G37*
G36*
X28985Y175295D02*
Y174069D01*
X30212Y173652D01*
Y172426D01*
X31438Y172009D01*
Y170783D01*
X32665Y170366D01*
Y169140D01*
X33359Y168885D01*
Y170112D01*
X34585Y169695D01*
Y170922D01*
X35812Y170505D01*
Y171732D01*
X37038Y171315D01*
Y172541D01*
X40000Y171546D01*
Y168561D01*
X38774Y168978D01*
Y167752D01*
X37547Y168168D01*
Y166942D01*
X36344Y167358D01*
Y166132D01*
X35117Y166548D01*
Y165854D01*
X36344Y165437D01*
Y164211D01*
X37547Y163795D01*
Y162591D01*
X40000Y161758D01*
Y158773D01*
X22344Y164767D01*
Y167752D01*
X33359Y164003D01*
Y164697D01*
X32155Y165114D01*
Y166340D01*
X30929Y166756D01*
Y167960D01*
X29703Y168376D01*
Y169603D01*
X28476Y170019D01*
Y171246D01*
X27250Y171662D01*
Y172889D01*
X26023Y173305D01*
Y176290D01*
X28985Y175295D01*
D02*
G37*
G36*
X27759Y160694D02*
Y157709D01*
X26533Y158125D01*
Y156899D01*
X25306Y157315D01*
Y152965D01*
X26533Y152549D01*
Y151322D01*
X28476Y150651D01*
Y151877D01*
X29703Y151461D01*
Y157570D01*
X30929Y157153D01*
Y158380D01*
X32155Y157963D01*
Y159190D01*
X37547Y157362D01*
Y156135D01*
X38774Y155719D01*
Y154492D01*
X40000Y154076D01*
Y146208D01*
X38774Y146625D01*
Y145398D01*
X37547Y145815D01*
Y144588D01*
X34585Y145583D01*
Y148568D01*
X35812Y148152D01*
Y149378D01*
X37038Y148962D01*
Y153312D01*
X35812Y153729D01*
Y154955D01*
X33891Y155603D01*
Y154377D01*
X32665Y154793D01*
Y148684D01*
X31438Y149101D01*
Y147874D01*
X30212Y148291D01*
Y147064D01*
X24797Y148916D01*
Y150142D01*
X23571Y150558D01*
Y151785D01*
X22344Y152201D01*
Y160069D01*
X23571Y159652D01*
Y160879D01*
X24797Y160462D01*
Y161689D01*
X27759Y160694D01*
D02*
G37*
G36*
X47000Y280487D02*
X46300D01*
Y281187D01*
X42801D01*
Y280487D01*
X42101D01*
Y282587D01*
X42801D01*
Y281887D01*
X46300D01*
Y282587D01*
X47000D01*
Y280487D01*
D02*
G37*
G36*
Y278388D02*
X45950D01*
Y278038D01*
X45600D01*
Y277688D01*
X45250D01*
Y277338D01*
X44901D01*
Y276988D01*
X44550D01*
Y276638D01*
X44201D01*
Y276288D01*
X47000D01*
Y275588D01*
X42101D01*
Y276288D01*
X43157D01*
Y276638D01*
X43507D01*
Y276988D01*
X43857D01*
Y277338D01*
X44207D01*
Y277688D01*
X44557D01*
Y278038D01*
X44907D01*
Y278388D01*
X42101D01*
Y279088D01*
X47000D01*
Y278388D01*
D02*
G37*
G36*
Y274189D02*
X45950D01*
Y273839D01*
X45600D01*
Y273489D01*
X45250D01*
Y273139D01*
X44901D01*
Y272789D01*
X44550D01*
Y272439D01*
X44201D01*
Y272089D01*
X47000D01*
Y271389D01*
X42101D01*
Y272089D01*
X43157D01*
Y272439D01*
X43507D01*
Y272789D01*
X43857D01*
Y273139D01*
X44207D01*
Y273489D01*
X44557D01*
Y273839D01*
X44907D01*
Y274189D01*
X42101D01*
Y274888D01*
X47000D01*
Y274189D01*
D02*
G37*
G36*
Y269990D02*
X45950D01*
Y269640D01*
X45600D01*
Y269290D01*
X45250D01*
Y268940D01*
X44901D01*
Y268590D01*
X44550D01*
Y268240D01*
X44201D01*
Y267890D01*
X47000D01*
Y267190D01*
X42101D01*
Y267890D01*
X43157D01*
Y268240D01*
X43507D01*
Y268590D01*
X43857D01*
Y268940D01*
X44207D01*
Y269290D01*
X44557D01*
Y269640D01*
X44907D01*
Y269990D01*
X42101D01*
Y270690D01*
X47000D01*
Y269990D01*
D02*
G37*
G36*
Y261592D02*
X46300D01*
Y261242D01*
X46650D01*
Y260892D01*
X47000D01*
Y259842D01*
X46650D01*
Y259492D01*
X46300D01*
Y259142D01*
X45950D01*
Y258792D01*
X44201D01*
Y259142D01*
X43851D01*
Y259492D01*
X43501D01*
Y259842D01*
X43151D01*
Y260892D01*
X43501D01*
Y261242D01*
X43851D01*
Y261592D01*
X42101D01*
Y262291D01*
X47000D01*
Y261592D01*
D02*
G37*
G36*
Y257393D02*
X44201D01*
Y257043D01*
X43851D01*
Y255643D01*
X44201D01*
Y255293D01*
X47000D01*
Y254593D01*
X43151D01*
Y255293D01*
X43501D01*
Y255643D01*
X43151D01*
Y257393D01*
X43501D01*
Y257743D01*
X43851D01*
Y258092D01*
X47000D01*
Y257393D01*
D02*
G37*
G36*
Y253193D02*
X46650D01*
Y252844D01*
X47000D01*
Y251094D01*
X46650D01*
Y250744D01*
X46300D01*
Y250394D01*
X44901D01*
Y250744D01*
X44550D01*
Y251094D01*
X44201D01*
Y252844D01*
X44550D01*
Y253193D01*
X43851D01*
Y252844D01*
X43501D01*
Y251094D01*
X42801D01*
Y253193D01*
X43151D01*
Y253543D01*
X43501D01*
Y253893D01*
X47000D01*
Y253193D01*
D02*
G37*
G36*
Y244795D02*
X44201D01*
Y244445D01*
X43851D01*
Y244096D01*
X47000D01*
Y243396D01*
X43851D01*
Y243046D01*
X44201D01*
Y242696D01*
X47000D01*
Y241996D01*
X43151D01*
Y242696D01*
X43501D01*
Y243046D01*
X43151D01*
Y244795D01*
X43501D01*
Y245145D01*
X43851D01*
Y245495D01*
X47000D01*
Y244795D01*
D02*
G37*
G36*
X46300Y240946D02*
X46650D01*
Y240596D01*
X47000D01*
Y238497D01*
X46650D01*
Y238147D01*
X46300D01*
Y237797D01*
X43151D01*
Y238497D01*
X45950D01*
Y238847D01*
X46300D01*
Y240247D01*
X45950D01*
Y240596D01*
X43151D01*
Y241296D01*
X46300D01*
Y240946D01*
D02*
G37*
G36*
X43151Y234998D02*
X42451D01*
Y235698D01*
X43151D01*
Y234998D01*
D02*
G37*
G36*
X47000Y235698D02*
X46650D01*
Y235348D01*
X46300D01*
Y234998D01*
X44550D01*
Y234298D01*
X43851D01*
Y235698D01*
X45950D01*
Y236047D01*
X46300D01*
Y236397D01*
X47000D01*
Y235698D01*
D02*
G37*
G36*
X46300Y232548D02*
X46650D01*
Y232198D01*
X47000D01*
Y230099D01*
X46650D01*
Y229749D01*
X46300D01*
Y229399D01*
X43851D01*
Y229749D01*
X43501D01*
Y230099D01*
X43151D01*
Y232198D01*
X43501D01*
Y232548D01*
X43851D01*
Y232898D01*
X44550D01*
Y232198D01*
X44201D01*
Y231848D01*
X43851D01*
Y230449D01*
X44201D01*
Y230099D01*
X45950D01*
Y230449D01*
X46300D01*
Y231848D01*
X45950D01*
Y232198D01*
X45600D01*
Y232898D01*
X46300D01*
Y232548D01*
D02*
G37*
G36*
X47000Y227999D02*
X46650D01*
Y227649D01*
X47000D01*
Y225900D01*
X46650D01*
Y225550D01*
X46300D01*
Y225200D01*
X44901D01*
Y225550D01*
X44550D01*
Y225900D01*
X44201D01*
Y227649D01*
X44550D01*
Y227999D01*
X43851D01*
Y227649D01*
X43501D01*
Y225900D01*
X42801D01*
Y227999D01*
X43151D01*
Y228349D01*
X43501D01*
Y228699D01*
X47000D01*
Y227999D01*
D02*
G37*
G36*
Y223100D02*
X46650D01*
Y222750D01*
X46300D01*
Y222400D01*
X43851D01*
Y221701D01*
X43151D01*
Y222400D01*
X42101D01*
Y223100D01*
X43151D01*
Y223800D01*
X43851D01*
Y223100D01*
X45950D01*
Y223450D01*
X46300D01*
Y223800D01*
X47000D01*
Y223100D01*
D02*
G37*
G36*
X46300Y219951D02*
X46650D01*
Y219601D01*
X47000D01*
Y217502D01*
X46300D01*
Y219251D01*
X45950D01*
Y219601D01*
X44901D01*
Y219251D01*
X45250D01*
Y218901D01*
X45600D01*
Y217502D01*
X45250D01*
Y217152D01*
X44901D01*
Y216802D01*
X42801D01*
Y217502D01*
X44550D01*
Y217852D01*
X44901D01*
Y218551D01*
X44550D01*
Y218901D01*
X44201D01*
Y219251D01*
X43501D01*
Y219601D01*
X42801D01*
Y220301D01*
X46300D01*
Y219951D01*
D02*
G37*
G36*
X47000Y215402D02*
X46650D01*
Y215052D01*
X47000D01*
Y213303D01*
X46650D01*
Y212953D01*
X46300D01*
Y212603D01*
X44901D01*
Y212953D01*
X44550D01*
Y213303D01*
X44201D01*
Y215052D01*
X44550D01*
Y215402D01*
X43851D01*
Y215052D01*
X43501D01*
Y213303D01*
X42801D01*
Y215402D01*
X43151D01*
Y215752D01*
X43501D01*
Y216102D01*
X47000D01*
Y215402D01*
D02*
G37*
G36*
Y211203D02*
X46650D01*
Y210853D01*
X46300D01*
Y210503D01*
X45950D01*
Y210153D01*
X45600D01*
Y209803D01*
X45950D01*
Y209454D01*
X46300D01*
Y209104D01*
X47000D01*
Y208404D01*
X42101D01*
Y209104D01*
X45250D01*
Y209454D01*
X44901D01*
Y209803D01*
X44550D01*
Y210153D01*
X44201D01*
Y210503D01*
X43851D01*
Y210853D01*
X43501D01*
Y211203D01*
X43151D01*
Y211903D01*
X43851D01*
Y211553D01*
X44201D01*
Y211203D01*
X44550D01*
Y210853D01*
X44901D01*
Y210503D01*
X45250D01*
Y210853D01*
X45600D01*
Y211203D01*
X45950D01*
Y211553D01*
X46300D01*
Y211903D01*
X47000D01*
Y211203D01*
D02*
G37*
G36*
X46300Y207354D02*
X46650D01*
Y207004D01*
X47000D01*
Y204905D01*
X46650D01*
Y204555D01*
X46300D01*
Y204205D01*
X45600D01*
Y204905D01*
X45950D01*
Y205255D01*
X46300D01*
Y206654D01*
X45950D01*
Y207004D01*
X45250D01*
Y206654D01*
X44901D01*
Y204905D01*
X44550D01*
Y204555D01*
X44201D01*
Y204205D01*
X42801D01*
Y204555D01*
X42451D01*
Y204905D01*
X42101D01*
Y207004D01*
X42451D01*
Y207354D01*
X42801D01*
Y207704D01*
X43501D01*
Y207004D01*
X43151D01*
Y206654D01*
X42801D01*
Y205255D01*
X43151D01*
Y204905D01*
X43851D01*
Y205255D01*
X44201D01*
Y207004D01*
X44550D01*
Y207354D01*
X44901D01*
Y207704D01*
X46300D01*
Y207354D01*
D02*
G37*
G36*
Y198956D02*
X46650D01*
Y198606D01*
X47000D01*
Y196507D01*
X46300D01*
Y198256D01*
X45950D01*
Y198606D01*
X44901D01*
Y198256D01*
X45250D01*
Y197906D01*
X45600D01*
Y196507D01*
X45250D01*
Y196157D01*
X44901D01*
Y195807D01*
X42801D01*
Y196507D01*
X44550D01*
Y196856D01*
X44901D01*
Y197556D01*
X44550D01*
Y197906D01*
X44201D01*
Y198256D01*
X43501D01*
Y198606D01*
X42801D01*
Y199306D01*
X46300D01*
Y198956D01*
D02*
G37*
G36*
Y194757D02*
X46650D01*
Y194407D01*
X47000D01*
Y191608D01*
X42101D01*
Y194407D01*
X42451D01*
Y194757D01*
X42801D01*
Y195107D01*
X44201D01*
Y194757D01*
X44901D01*
Y195107D01*
X46300D01*
Y194757D01*
D02*
G37*
G36*
X44901Y183559D02*
X44201D01*
Y186359D01*
X44901D01*
Y183559D01*
D02*
G37*
%LPC*%
G36*
X31438Y275376D02*
Y274149D01*
X30212Y274566D01*
Y273339D01*
X29008Y273756D01*
Y273062D01*
X30212Y272645D01*
Y271419D01*
X31438Y271002D01*
Y269776D01*
X34585Y268711D01*
Y269938D01*
X35812Y269521D01*
Y270748D01*
X37038Y270331D01*
Y271025D01*
X35812Y271442D01*
Y272668D01*
X34585Y273085D01*
Y274311D01*
X31438Y275376D01*
D02*
G37*
G36*
X33868Y245757D02*
Y244530D01*
X32665Y244923D01*
Y240550D01*
X33868Y240157D01*
Y238930D01*
X35812Y238259D01*
Y239486D01*
X37038Y239069D01*
Y243443D01*
X35812Y243859D01*
Y245085D01*
X33868Y245757D01*
D02*
G37*
G36*
X30212Y231942D02*
Y230715D01*
X28985Y231155D01*
Y226805D01*
X30212Y226365D01*
Y225139D01*
X35812Y223241D01*
Y224468D01*
X37038Y224051D01*
Y228401D01*
X35812Y228818D01*
Y230044D01*
X30212Y231942D01*
D02*
G37*
G36*
X31438Y216531D02*
Y215304D01*
X30212Y215721D01*
Y214494D01*
X29008Y214911D01*
Y214217D01*
X30212Y213800D01*
Y212574D01*
X31438Y212157D01*
Y210931D01*
X34585Y209866D01*
Y211093D01*
X35812Y210676D01*
Y211903D01*
X37038Y211486D01*
Y212180D01*
X35812Y212597D01*
Y213823D01*
X34585Y214240D01*
Y215466D01*
X31438Y216531D01*
D02*
G37*
G36*
X33868Y185685D02*
Y184459D01*
X32665Y184852D01*
Y180479D01*
X33868Y180085D01*
Y178859D01*
X35812Y178188D01*
Y179414D01*
X37038Y178998D01*
Y183371D01*
X35812Y183788D01*
Y185014D01*
X33868Y185685D01*
D02*
G37*
G36*
X45600Y261242D02*
X44550D01*
Y260892D01*
X44201D01*
Y260542D01*
X43851D01*
Y260192D01*
X44201D01*
Y259842D01*
X44550D01*
Y259492D01*
X45600D01*
Y259842D01*
X45950D01*
Y260192D01*
X46300D01*
Y260542D01*
X45950D01*
Y260892D01*
X45600D01*
Y261242D01*
D02*
G37*
G36*
X45950Y253193D02*
X45250D01*
Y252844D01*
X44901D01*
Y251444D01*
X45250D01*
Y251094D01*
X45950D01*
Y251444D01*
X46300D01*
Y252844D01*
X45950D01*
Y253193D01*
D02*
G37*
G36*
Y227999D02*
X45250D01*
Y227649D01*
X44901D01*
Y226250D01*
X45250D01*
Y225900D01*
X45950D01*
Y226250D01*
X46300D01*
Y227649D01*
X45950D01*
Y227999D01*
D02*
G37*
G36*
Y215402D02*
X45250D01*
Y215052D01*
X44901D01*
Y213652D01*
X45250D01*
Y213303D01*
X45950D01*
Y213652D01*
X46300D01*
Y215052D01*
X45950D01*
Y215402D01*
D02*
G37*
G36*
Y194407D02*
X45250D01*
Y194057D01*
X44901D01*
Y192307D01*
X46300D01*
Y194057D01*
X45950D01*
Y194407D01*
D02*
G37*
G36*
X43851D02*
X43151D01*
Y194057D01*
X42801D01*
Y192307D01*
X44201D01*
Y194057D01*
X43851D01*
Y194407D01*
D02*
G37*
%LPD*%
D10*
X245621Y111570D02*
Y115507D01*
X564378Y261570D02*
Y265507D01*
X320621Y111570D02*
Y115507D01*
X264377Y261570D02*
Y265507D01*
X470622Y111570D02*
Y115507D01*
X1276878Y111570D02*
Y115507D01*
X1377776Y376880D02*
X1381713D01*
X1377776Y301874D02*
X1381713D01*
X1377776Y226874D02*
X1381713D01*
X1377776Y151874D02*
X1381713D01*
X1377776Y76874D02*
X1381713D01*
X1350748Y15487D02*
Y19424D01*
X1271060Y15487D02*
Y19424D01*
X1191373Y15487D02*
Y19424D01*
X1111685Y15487D02*
Y19424D01*
X1031998Y15487D02*
Y19424D01*
X952310Y15487D02*
Y19424D01*
X872623Y15487D02*
Y19424D01*
X792936Y15487D02*
Y19424D01*
X713248Y15487D02*
Y19424D01*
X620748Y15487D02*
Y19424D01*
X542891Y15487D02*
Y19424D01*
X465034Y15487D02*
Y19424D01*
X387176Y15487D02*
Y19424D01*
X309319Y15487D02*
Y19424D01*
X231462Y15487D02*
Y19424D01*
X153605Y15487D02*
Y19424D01*
X75748Y15487D02*
Y19424D01*
X15787Y43652D02*
X19724D01*
X15787Y120378D02*
X19724D01*
X15787Y195378D02*
X19724D01*
X15787Y270378D02*
X19724D01*
X15787Y345384D02*
X19724D01*
X44252Y402776D02*
Y406713D01*
X123940Y402776D02*
Y406713D01*
X203627Y402776D02*
Y406713D01*
X283314Y402776D02*
Y406713D01*
X363002Y402776D02*
Y406713D01*
X442690Y402776D02*
Y406713D01*
X522377Y402776D02*
Y406713D01*
X602065Y402776D02*
Y406713D01*
X681752Y402776D02*
Y406713D01*
X761440Y402776D02*
Y406713D01*
X841127Y402776D02*
Y406713D01*
X920815Y402776D02*
Y406713D01*
X1000502Y402776D02*
Y406713D01*
X1080190Y402776D02*
Y406713D01*
X1159877Y402776D02*
Y406713D01*
X1239565Y402776D02*
Y406713D01*
X1319252Y402776D02*
Y406713D01*
X639378Y261570D02*
Y265507D01*
X95621Y261570D02*
Y265507D01*
X489378Y261570D02*
Y265507D01*
X523500Y42082D02*
Y46019D01*
X1351878Y111570D02*
Y115507D01*
X1201878Y111570D02*
Y115507D01*
X1320382Y192082D02*
Y196019D01*
X1245382Y192082D02*
Y196019D01*
X1170382Y192082D02*
Y196019D01*
X251625Y192082D02*
Y196019D01*
X898500Y42082D02*
Y46019D01*
X1061248Y111570D02*
Y115507D01*
X1320382Y42082D02*
Y46019D01*
X1086000Y42082D02*
Y46019D01*
X804752Y42082D02*
Y46019D01*
X414378Y261570D02*
Y265507D01*
X189377Y261570D02*
Y265507D01*
X1320382Y342087D02*
Y346024D01*
X1351878Y261570D02*
Y265507D01*
X864378Y261570D02*
Y265507D01*
X789378Y261570D02*
Y265507D01*
X620544Y111535D02*
Y115472D01*
X992252Y42082D02*
Y46019D01*
X695622Y111570D02*
Y115507D01*
X148501Y42082D02*
Y46019D01*
X123746Y111570D02*
Y115507D01*
X1170382Y42082D02*
Y46019D01*
X54750Y42082D02*
Y46019D01*
X242251Y42082D02*
Y46019D01*
X776626Y192082D02*
Y196019D01*
X701626Y192082D02*
Y196019D01*
X626626Y192082D02*
Y196019D01*
X1170382Y342087D02*
Y346024D01*
X714378Y261570D02*
Y265507D01*
X1245382Y342087D02*
Y346024D01*
X551626Y192082D02*
Y196019D01*
X476626Y192082D02*
Y196019D01*
X401626Y192082D02*
Y196019D01*
X45380Y342087D02*
Y346024D01*
X1048500Y192082D02*
Y196019D01*
X1276878Y261570D02*
Y265507D01*
X339377Y261570D02*
Y265507D01*
X1245382Y42082D02*
Y46019D01*
X1201878Y261570D02*
Y265507D01*
X326625Y192082D02*
Y196019D01*
X73500Y192082D02*
Y196019D01*
X395622Y111570D02*
Y115507D01*
X1057882Y342087D02*
Y346024D01*
X545527Y111535D02*
Y115472D01*
X176625Y192082D02*
Y196019D01*
X1014378Y261570D02*
Y265507D01*
X1108122Y261570D02*
Y265507D01*
X939378Y261570D02*
Y265507D01*
X945382Y342087D02*
Y346024D01*
X851626Y192082D02*
Y196019D01*
X920622Y111570D02*
Y115507D01*
X845622Y111570D02*
Y115507D01*
X870382Y342087D02*
Y346024D01*
X770622Y111570D02*
Y115507D01*
X926626Y192082D02*
Y196019D01*
X720382Y342087D02*
Y346024D01*
X645374Y342087D02*
Y346024D01*
X570374Y342087D02*
Y346024D01*
X495382Y342087D02*
Y346024D01*
X420374Y342087D02*
Y346024D01*
X345366Y342087D02*
Y346024D01*
X270373Y342087D02*
Y346024D01*
X195373Y342087D02*
Y346024D01*
X120373Y342087D02*
Y346024D01*
X795382Y342087D02*
Y346024D01*
D11*
X199165Y166835D02*
X260582D01*
X199165Y105417D02*
X260582D01*
Y166835D01*
X199165Y105417D02*
Y166835D01*
X405414Y391840D02*
X466831D01*
X405414Y330423D02*
X466831D01*
Y391840D01*
X405414Y330423D02*
Y391840D01*
X1305421Y241835D02*
X1366839D01*
X1305421Y180417D02*
X1366839D01*
Y241835D01*
X1305421Y180417D02*
Y241835D01*
X574087Y105382D02*
Y166799D01*
X635505Y105382D02*
Y166799D01*
X574087Y105382D02*
X635505D01*
X574087Y166799D02*
X635505D01*
X499070Y105382D02*
Y166799D01*
X560488Y105382D02*
Y166799D01*
X499070Y105382D02*
X560488D01*
X499070Y166799D02*
X560488D01*
X517921Y255417D02*
Y316835D01*
X579339Y255417D02*
Y316835D01*
X517921Y255417D02*
X579339D01*
X517921Y316835D02*
X579339D01*
X536666Y180417D02*
Y241835D01*
X598083Y180417D02*
Y241835D01*
X536666Y180417D02*
X598083D01*
X536666Y241835D02*
X598083D01*
X967921Y255417D02*
Y316835D01*
X1029339Y255417D02*
Y316835D01*
X967921Y255417D02*
X1029339D01*
X967921Y316835D02*
X1029339D01*
X1061666Y255417D02*
Y316835D01*
X1123083Y255417D02*
Y316835D01*
X1061666Y255417D02*
X1123083D01*
X1061666Y316835D02*
X1123083D01*
X892921Y255417D02*
Y316835D01*
X954339Y255417D02*
Y316835D01*
X892921Y255417D02*
X954339D01*
X892921Y316835D02*
X954339D01*
X274165Y105417D02*
Y166835D01*
X335582Y105417D02*
Y166835D01*
X274165Y105417D02*
X335582D01*
X274165Y166835D02*
X335582D01*
X217920Y255417D02*
Y316835D01*
X279338Y255417D02*
Y316835D01*
X217920Y255417D02*
X279338D01*
X217920Y316835D02*
X279338D01*
X424166Y105417D02*
Y166835D01*
X485583Y105417D02*
Y166835D01*
X424166Y105417D02*
X485583D01*
X424166Y166835D02*
X485583D01*
X1230421Y105417D02*
Y166835D01*
X1291839Y105417D02*
Y166835D01*
X1230421Y105417D02*
X1291839D01*
X1230421Y166835D02*
X1291839D01*
X592921Y255417D02*
Y316835D01*
X654339Y255417D02*
Y316835D01*
X592921Y255417D02*
X654339D01*
X592921Y316835D02*
X654339D01*
X49164Y255417D02*
Y316835D01*
X110582Y255417D02*
Y316835D01*
X49164Y255417D02*
X110582D01*
X49164Y316835D02*
X110582D01*
X442921Y255417D02*
Y316835D01*
X504339Y255417D02*
Y316835D01*
X442921Y255417D02*
X504339D01*
X442921Y316835D02*
X504339D01*
X508540Y30417D02*
Y91835D01*
X569957Y30417D02*
Y91835D01*
X508540Y30417D02*
X569957D01*
X508540Y91835D02*
X569957D01*
X1305421Y105417D02*
Y166835D01*
X1366839Y105417D02*
Y166835D01*
X1305421Y105417D02*
X1366839D01*
X1305421Y166835D02*
X1366839D01*
X1155421Y105417D02*
Y166835D01*
X1216839Y105417D02*
Y166835D01*
X1155421Y105417D02*
X1216839D01*
X1155421Y166835D02*
X1216839D01*
X1230421Y180417D02*
Y241835D01*
X1291839Y180417D02*
Y241835D01*
X1230421Y180417D02*
X1291839D01*
X1230421Y241835D02*
X1291839D01*
X1155421Y180417D02*
Y241835D01*
X1216839Y180417D02*
Y241835D01*
X1155421Y180417D02*
X1216839D01*
X1155421Y241835D02*
X1216839D01*
X236665Y180417D02*
Y241835D01*
X298082Y180417D02*
Y241835D01*
X236665Y180417D02*
X298082D01*
X236665Y241835D02*
X298082D01*
X883540Y30417D02*
Y91835D01*
X944957Y30417D02*
Y91835D01*
X883540Y30417D02*
X944957D01*
X883540Y91835D02*
X944957D01*
X1014792Y105417D02*
Y166835D01*
X1076209Y105417D02*
Y166835D01*
X1014792Y105417D02*
X1076209D01*
X1014792Y166835D02*
X1076209D01*
X1305421Y30417D02*
Y91835D01*
X1366839Y30417D02*
Y91835D01*
X1305421Y30417D02*
X1366839D01*
X1305421Y91835D02*
X1366839D01*
X1071040Y30417D02*
Y91835D01*
X1132457Y30417D02*
Y91835D01*
X1071040Y30417D02*
X1132457D01*
X1071040Y91835D02*
X1132457D01*
X789792Y30417D02*
Y91835D01*
X851209Y30417D02*
Y91835D01*
X789792Y30417D02*
X851209D01*
X789792Y91835D02*
X851209D01*
X367921Y255417D02*
Y316835D01*
X429339Y255417D02*
Y316835D01*
X367921Y255417D02*
X429339D01*
X367921Y316835D02*
X429339D01*
X142920Y255417D02*
Y316835D01*
X204338Y255417D02*
Y316835D01*
X142920Y255417D02*
X204338D01*
X142920Y316835D02*
X204338D01*
X1305421Y330423D02*
Y391840D01*
X1366839Y330423D02*
Y391840D01*
X1305421Y330423D02*
X1366839D01*
X1305421Y391840D02*
X1366839D01*
X1305421Y255417D02*
Y316835D01*
X1366839Y255417D02*
Y316835D01*
X1305421Y255417D02*
X1366839D01*
X1305421Y316835D02*
X1366839D01*
X817921Y255417D02*
Y316835D01*
X879339Y255417D02*
Y316835D01*
X817921Y255417D02*
X879339D01*
X817921Y316835D02*
X879339D01*
X742921Y255417D02*
Y316835D01*
X804339Y255417D02*
Y316835D01*
X742921Y255417D02*
X804339D01*
X742921Y316835D02*
X804339D01*
X977292Y30417D02*
Y91835D01*
X1038709Y30417D02*
Y91835D01*
X977292Y30417D02*
X1038709D01*
X977292Y91835D02*
X1038709D01*
X649166Y105417D02*
Y166835D01*
X710583Y105417D02*
Y166835D01*
X649166Y105417D02*
X710583D01*
X649166Y166835D02*
X710583D01*
X133540Y30417D02*
Y91835D01*
X194957Y30417D02*
Y91835D01*
X133540Y30417D02*
X194957D01*
X133540Y91835D02*
X194957D01*
X77289Y105417D02*
Y166835D01*
X138707Y105417D02*
Y166835D01*
X77289Y105417D02*
X138707D01*
X77289Y166835D02*
X138707D01*
X1155421Y30417D02*
Y91835D01*
X1216839Y30417D02*
Y91835D01*
X1155421Y30417D02*
X1216839D01*
X1155421Y91835D02*
X1216839D01*
X39789Y30417D02*
Y91835D01*
X101207Y30417D02*
Y91835D01*
X39789Y30417D02*
X101207D01*
X39789Y91835D02*
X101207D01*
X227290Y30417D02*
Y91835D01*
X288707Y30417D02*
Y91835D01*
X227290Y30417D02*
X288707D01*
X227290Y91835D02*
X288707D01*
X761666Y180417D02*
Y241835D01*
X823083Y180417D02*
Y241835D01*
X761666Y180417D02*
X823083D01*
X761666Y241835D02*
X823083D01*
X686666Y180417D02*
Y241835D01*
X748083Y180417D02*
Y241835D01*
X686666Y180417D02*
X748083D01*
X686666Y241835D02*
X748083D01*
X611666Y180417D02*
Y241835D01*
X673083Y180417D02*
Y241835D01*
X611666Y180417D02*
X673083D01*
X611666Y241835D02*
X673083D01*
X1155421Y330423D02*
Y391840D01*
X1216839Y330423D02*
Y391840D01*
X1155421Y330423D02*
X1216839D01*
X1155421Y391840D02*
X1216839D01*
X667921Y255417D02*
Y316835D01*
X729339Y255417D02*
Y316835D01*
X667921Y255417D02*
X729339D01*
X667921Y316835D02*
X729339D01*
X1230421Y330423D02*
Y391840D01*
X1291839Y330423D02*
Y391840D01*
X1230421Y330423D02*
X1291839D01*
X1230421Y391840D02*
X1291839D01*
X461666Y180417D02*
Y241835D01*
X523083Y180417D02*
Y241835D01*
X461666Y180417D02*
X523083D01*
X461666Y241835D02*
X523083D01*
X386666Y180417D02*
Y241835D01*
X448083Y180417D02*
Y241835D01*
X386666Y180417D02*
X448083D01*
X386666Y241835D02*
X448083D01*
X30420Y330423D02*
Y391840D01*
X91837Y330423D02*
Y391840D01*
X30420Y330423D02*
X91837D01*
X30420Y391840D02*
X91837D01*
X1033540Y180417D02*
Y241835D01*
X1094957Y180417D02*
Y241835D01*
X1033540Y180417D02*
X1094957D01*
X1033540Y241835D02*
X1094957D01*
X1230421Y255417D02*
Y316835D01*
X1291839Y255417D02*
Y316835D01*
X1230421Y255417D02*
X1291839D01*
X1230421Y316835D02*
X1291839D01*
X292920Y255417D02*
Y316835D01*
X354338Y255417D02*
Y316835D01*
X292920Y255417D02*
X354338D01*
X292920Y316835D02*
X354338D01*
X1230421Y30417D02*
Y91835D01*
X1291839Y30417D02*
Y91835D01*
X1230421Y30417D02*
X1291839D01*
X1230421Y91835D02*
X1291839D01*
X1155421Y255417D02*
Y316835D01*
X1216839Y255417D02*
Y316835D01*
X1155421Y255417D02*
X1216839D01*
X1155421Y316835D02*
X1216839D01*
X311665Y180417D02*
Y241835D01*
X373082Y180417D02*
Y241835D01*
X311665Y180417D02*
X373082D01*
X311665Y241835D02*
X373082D01*
X58539Y180417D02*
Y241835D01*
X119957Y180417D02*
Y241835D01*
X58539Y180417D02*
X119957D01*
X58539Y241835D02*
X119957D01*
X349166Y105417D02*
Y166835D01*
X410583Y105417D02*
Y166835D01*
X349166Y105417D02*
X410583D01*
X349166Y166835D02*
X410583D01*
X1042921Y330423D02*
Y391840D01*
X1104339Y330423D02*
Y391840D01*
X1042921Y330423D02*
X1104339D01*
X1042921Y391840D02*
X1104339D01*
X161665Y180417D02*
Y241835D01*
X223082Y180417D02*
Y241835D01*
X161665Y180417D02*
X223082D01*
X161665Y241835D02*
X223082D01*
X930421Y330423D02*
Y391840D01*
X991839Y330423D02*
Y391840D01*
X930421Y330423D02*
X991839D01*
X930421Y391840D02*
X991839D01*
X836666Y180417D02*
Y241835D01*
X898083Y180417D02*
Y241835D01*
X836666Y180417D02*
X898083D01*
X836666Y241835D02*
X898083D01*
X705421Y330423D02*
Y391840D01*
X766839Y330423D02*
Y391840D01*
X705421Y330423D02*
X766839D01*
X705421Y391840D02*
X766839D01*
X630414Y330423D02*
Y391840D01*
X691831Y330423D02*
Y391840D01*
X630414Y330423D02*
X691831D01*
X630414Y391840D02*
X691831D01*
X555414Y330423D02*
Y391840D01*
X616831Y330423D02*
Y391840D01*
X555414Y330423D02*
X616831D01*
X555414Y391840D02*
X616831D01*
X480421Y330423D02*
Y391840D01*
X541839Y330423D02*
Y391840D01*
X480421Y330423D02*
X541839D01*
X480421Y391840D02*
X541839D01*
X330406Y330423D02*
Y391840D01*
X391823Y330423D02*
Y391840D01*
X330406Y330423D02*
X391823D01*
X330406Y391840D02*
X391823D01*
X255412Y330423D02*
Y391840D01*
X316830Y330423D02*
Y391840D01*
X255412Y330423D02*
X316830D01*
X255412Y391840D02*
X316830D01*
X180412Y330423D02*
Y391840D01*
X241830Y330423D02*
Y391840D01*
X180412Y330423D02*
X241830D01*
X180412Y391840D02*
X241830D01*
X105412Y330423D02*
Y391840D01*
X166830Y330423D02*
Y391840D01*
X105412Y330423D02*
X166830D01*
X105412Y391840D02*
X166830D01*
X780421Y330423D02*
Y391840D01*
X841839Y330423D02*
Y391840D01*
X780421Y330423D02*
X841839D01*
X780421Y391840D02*
X841839D01*
X874166Y105417D02*
Y166835D01*
X935583Y105417D02*
Y166835D01*
X874166Y105417D02*
X935583D01*
X874166Y166835D02*
X935583D01*
X799166Y105417D02*
Y166835D01*
X860583Y105417D02*
Y166835D01*
X799166Y105417D02*
X860583D01*
X799166Y166835D02*
X860583D01*
X855421Y330423D02*
Y391840D01*
X916839Y330423D02*
Y391840D01*
X855421Y330423D02*
X916839D01*
X855421Y391840D02*
X916839D01*
X724166Y105417D02*
Y166835D01*
X785583Y105417D02*
Y166835D01*
X724166Y105417D02*
X785583D01*
X724166Y166835D02*
X785583D01*
X911666Y180417D02*
Y241835D01*
X973083Y180417D02*
Y241835D01*
X911666Y180417D02*
X973083D01*
X911666Y241835D02*
X973083D01*
M02*
