G04*
G04 #@! TF.GenerationSoftware,Altium Limited,Altium Designer,21.2.2 (38)*
G04*
G04 Layer_Color=32896*
%FSLAX25Y25*%
%MOIN*%
G70*
G04*
G04 #@! TF.SameCoordinates,D2681F19-CCD1-4E4B-9F87-FD34C08DC50C*
G04*
G04*
G04 #@! TF.FilePolarity,Positive*
G04*
G01*
G75*
%ADD10C,0.00500*%
%ADD54C,0.02362*%
%ADD55C,0.00984*%
%ADD56C,0.00787*%
%ADD57C,0.01575*%
D10*
X633650Y15400D02*
X640656D01*
X633650Y9277D02*
Y15400D01*
X245621Y111570D02*
Y115507D01*
X564378Y261570D02*
Y265507D01*
X320621Y111570D02*
Y115507D01*
X264377Y261570D02*
Y265507D01*
X470622Y111570D02*
Y115507D01*
X1276878Y111570D02*
Y115507D01*
X1377776Y376880D02*
X1381713D01*
X1377776Y301874D02*
X1381713D01*
X1377776Y226874D02*
X1381713D01*
X1377776Y151874D02*
X1381713D01*
X1377776Y76874D02*
X1381713D01*
X1350748Y15487D02*
Y19424D01*
X1271060Y15487D02*
Y19424D01*
X1191373Y15487D02*
Y19424D01*
X1111685Y15487D02*
Y19424D01*
X1031998Y15487D02*
Y19424D01*
X952310Y15487D02*
Y19424D01*
X872623Y15487D02*
Y19424D01*
X792936Y15487D02*
Y19424D01*
X713248Y15487D02*
Y19424D01*
X620748Y15487D02*
Y19424D01*
X542891Y15487D02*
Y19424D01*
X465034Y15487D02*
Y19424D01*
X387176Y15487D02*
Y19424D01*
X309319Y15487D02*
Y19424D01*
X231462Y15487D02*
Y19424D01*
X153605Y15487D02*
Y19424D01*
X75748Y15487D02*
Y19424D01*
X15787Y43652D02*
X19724D01*
X15787Y120378D02*
X19724D01*
X15787Y195378D02*
X19724D01*
X15787Y270378D02*
X19724D01*
X15787Y345384D02*
X19724D01*
X44252Y402776D02*
Y406713D01*
X123940Y402776D02*
Y406713D01*
X203627Y402776D02*
Y406713D01*
X283314Y402776D02*
Y406713D01*
X363002Y402776D02*
Y406713D01*
X442690Y402776D02*
Y406713D01*
X522377Y402776D02*
Y406713D01*
X602065Y402776D02*
Y406713D01*
X681752Y402776D02*
Y406713D01*
X761440Y402776D02*
Y406713D01*
X841127Y402776D02*
Y406713D01*
X920815Y402776D02*
Y406713D01*
X1000502Y402776D02*
Y406713D01*
X1080190Y402776D02*
Y406713D01*
X1159877Y402776D02*
Y406713D01*
X1239565Y402776D02*
Y406713D01*
X1319252Y402776D02*
Y406713D01*
X639378Y261570D02*
Y265507D01*
X95621Y261570D02*
Y265507D01*
X489378Y261570D02*
Y265507D01*
X523500Y42082D02*
Y46019D01*
X1351878Y111570D02*
Y115507D01*
X1201878Y111570D02*
Y115507D01*
X1320382Y192082D02*
Y196019D01*
X1245382Y192082D02*
Y196019D01*
X1170382Y192082D02*
Y196019D01*
X251625Y192082D02*
Y196019D01*
X898500Y42082D02*
Y46019D01*
X1061248Y111570D02*
Y115507D01*
X1320382Y42082D02*
Y46019D01*
X1086000Y42082D02*
Y46019D01*
X804752Y42082D02*
Y46019D01*
X414378Y261570D02*
Y265507D01*
X189377Y261570D02*
Y265507D01*
X1320382Y342087D02*
Y346024D01*
X1351878Y261570D02*
Y265507D01*
X864378Y261570D02*
Y265507D01*
X789378Y261570D02*
Y265507D01*
X620544Y111535D02*
Y115472D01*
X992252Y42082D02*
Y46019D01*
X695622Y111570D02*
Y115507D01*
X148501Y42082D02*
Y46019D01*
X123746Y111570D02*
Y115507D01*
X1170382Y42082D02*
Y46019D01*
X54750Y42082D02*
Y46019D01*
X242251Y42082D02*
Y46019D01*
X776626Y192082D02*
Y196019D01*
X701626Y192082D02*
Y196019D01*
X626626Y192082D02*
Y196019D01*
X1170382Y342087D02*
Y346024D01*
X714378Y261570D02*
Y265507D01*
X1245382Y342087D02*
Y346024D01*
X551626Y192082D02*
Y196019D01*
X476626Y192082D02*
Y196019D01*
X401626Y192082D02*
Y196019D01*
X45380Y342087D02*
Y346024D01*
X1048500Y192082D02*
Y196019D01*
X1276878Y261570D02*
Y265507D01*
X339377Y261570D02*
Y265507D01*
X1245382Y42082D02*
Y46019D01*
X1201878Y261570D02*
Y265507D01*
X326625Y192082D02*
Y196019D01*
X73500Y192082D02*
Y196019D01*
X395622Y111570D02*
Y115507D01*
X1057882Y342087D02*
Y346024D01*
X545527Y111535D02*
Y115472D01*
X176625Y192082D02*
Y196019D01*
X1014378Y261570D02*
Y265507D01*
X1108122Y261570D02*
Y265507D01*
X939378Y261570D02*
Y265507D01*
X945382Y342087D02*
Y346024D01*
X851626Y192082D02*
Y196019D01*
X920622Y111570D02*
Y115507D01*
X845622Y111570D02*
Y115507D01*
X870382Y342087D02*
Y346024D01*
X770622Y111570D02*
Y115507D01*
X926626Y192082D02*
Y196019D01*
X720382Y342087D02*
Y346024D01*
X645374Y342087D02*
Y346024D01*
X570374Y342087D02*
Y346024D01*
X495382Y342087D02*
Y346024D01*
X420374Y342087D02*
Y346024D01*
X345366Y342087D02*
Y346024D01*
X270373Y342087D02*
Y346024D01*
X195373Y342087D02*
Y346024D01*
X120373Y342087D02*
Y346024D01*
X795382Y342087D02*
Y346024D01*
D54*
X653976Y62795D02*
X653532Y63719D01*
X652532Y63947D01*
X651731Y63308D01*
Y62283D01*
X652532Y61644D01*
X653532Y61872D01*
X653976Y62795D01*
D55*
X662933Y69095D02*
X662195Y69521D01*
Y68668D01*
X662933Y69095D01*
D56*
X254304Y154148D02*
Y160841D01*
X249186Y154148D02*
Y160841D01*
X623268Y33268D02*
X656732D01*
X623268Y66732D02*
X656732D01*
X623268Y33268D02*
Y66732D01*
X656732Y33268D02*
Y66732D01*
X686057Y50557D02*
Y62643D01*
Y50557D02*
X693143D01*
Y62643D01*
X686057D02*
X693143D01*
X460553Y379153D02*
Y385846D01*
X455435Y379153D02*
Y385846D01*
X661257Y7457D02*
X668343D01*
X661257D02*
Y19543D01*
X668343D01*
Y7457D02*
Y19543D01*
X624109Y154113D02*
Y160806D01*
X629227Y154113D02*
Y160806D01*
X549091Y154113D02*
Y160806D01*
X554209Y154113D02*
Y160806D01*
X567942Y304148D02*
Y310841D01*
X573061Y304148D02*
Y310841D01*
X586687Y229148D02*
Y235841D01*
X591805Y229148D02*
Y235841D01*
X1017943Y304148D02*
Y310841D01*
X1023061Y304148D02*
Y310841D01*
X1111687Y304148D02*
Y310841D01*
X1116805Y304148D02*
Y310841D01*
X942943Y304148D02*
Y310841D01*
X948061Y304148D02*
Y310841D01*
X324186Y154148D02*
Y160841D01*
X329304Y154148D02*
Y160841D01*
X267941Y304148D02*
Y310841D01*
X273059Y304148D02*
Y310841D01*
X474187Y154148D02*
Y160841D01*
X479305Y154148D02*
Y160841D01*
X1280443Y154148D02*
Y160841D01*
X1285561Y154148D02*
Y160841D01*
X642942Y304148D02*
Y310841D01*
X648061Y304148D02*
Y310841D01*
X99186Y304148D02*
Y310841D01*
X104304Y304148D02*
Y310841D01*
X492942Y304148D02*
Y310841D01*
X498061Y304148D02*
Y310841D01*
X558561Y79148D02*
Y85841D01*
X563679Y79148D02*
Y85841D01*
X1355443Y154148D02*
Y160841D01*
X1360561Y154148D02*
Y160841D01*
X1205443Y154148D02*
Y160841D01*
X1210561Y154148D02*
Y160841D01*
X1355443Y229148D02*
Y235841D01*
X1360561Y229148D02*
Y235841D01*
X1280443Y229148D02*
Y235841D01*
X1285561Y229148D02*
Y235841D01*
X1205443Y229148D02*
Y235841D01*
X1210561Y229148D02*
Y235841D01*
X286686Y229148D02*
Y235841D01*
X291804Y229148D02*
Y235841D01*
X933561Y79148D02*
Y85841D01*
X938679Y79148D02*
Y85841D01*
X1064813Y154148D02*
Y160841D01*
X1069931Y154148D02*
Y160841D01*
X1355443Y79148D02*
Y85841D01*
X1360561Y79148D02*
Y85841D01*
X1121061Y79148D02*
Y85841D01*
X1126179Y79148D02*
Y85841D01*
X839813Y79148D02*
Y85841D01*
X844931Y79148D02*
Y85841D01*
X417942Y304148D02*
Y310841D01*
X423061Y304148D02*
Y310841D01*
X192941Y304148D02*
Y310841D01*
X198059Y304148D02*
Y310841D01*
X1355443Y379153D02*
Y385846D01*
X1360561Y379153D02*
Y385846D01*
X1355443Y304148D02*
Y310841D01*
X1360561Y304148D02*
Y310841D01*
X867943Y304148D02*
Y310841D01*
X873061Y304148D02*
Y310841D01*
X792942Y304148D02*
Y310841D01*
X798061Y304148D02*
Y310841D01*
X1027313Y79148D02*
Y85841D01*
X1032431Y79148D02*
Y85841D01*
X699187Y154148D02*
Y160841D01*
X704305Y154148D02*
Y160841D01*
X183561Y79148D02*
Y85841D01*
X188679Y79148D02*
Y85841D01*
X127310Y154148D02*
Y160841D01*
X132428Y154148D02*
Y160841D01*
X1205443Y79148D02*
Y85841D01*
X1210561Y79148D02*
Y85841D01*
X89810Y79148D02*
Y85841D01*
X94928Y79148D02*
Y85841D01*
X277311Y79148D02*
Y85841D01*
X282429Y79148D02*
Y85841D01*
X811687Y229148D02*
Y235841D01*
X816805Y229148D02*
Y235841D01*
X736687Y229148D02*
Y235841D01*
X741805Y229148D02*
Y235841D01*
X661687Y229148D02*
Y235841D01*
X666805Y229148D02*
Y235841D01*
X1205443Y379153D02*
Y385846D01*
X1210561Y379153D02*
Y385846D01*
X717942Y304148D02*
Y310841D01*
X723061Y304148D02*
Y310841D01*
X1280443Y379153D02*
Y385846D01*
X1285561Y379153D02*
Y385846D01*
X511687Y229148D02*
Y235841D01*
X516805Y229148D02*
Y235841D01*
X436687Y229148D02*
Y235841D01*
X441805Y229148D02*
Y235841D01*
X80441Y379153D02*
Y385846D01*
X85559Y379153D02*
Y385846D01*
X1083561Y229148D02*
Y235841D01*
X1088679Y229148D02*
Y235841D01*
X1280443Y304148D02*
Y310841D01*
X1285561Y304148D02*
Y310841D01*
X342941Y304148D02*
Y310841D01*
X348059Y304148D02*
Y310841D01*
X1280443Y79148D02*
Y85841D01*
X1285561Y79148D02*
Y85841D01*
X1205443Y304148D02*
Y310841D01*
X1210561Y304148D02*
Y310841D01*
X361686Y229148D02*
Y235841D01*
X366804Y229148D02*
Y235841D01*
X108560Y229148D02*
Y235841D01*
X113678Y229148D02*
Y235841D01*
X399187Y154148D02*
Y160841D01*
X404305Y154148D02*
Y160841D01*
X1092943Y379153D02*
Y385846D01*
X1098061Y379153D02*
Y385846D01*
X211686Y229148D02*
Y235841D01*
X216804Y229148D02*
Y235841D01*
X980443Y379153D02*
Y385846D01*
X985561Y379153D02*
Y385846D01*
X886687Y229148D02*
Y235841D01*
X891805Y229148D02*
Y235841D01*
X755442Y379153D02*
Y385846D01*
X760561Y379153D02*
Y385846D01*
X680435Y379153D02*
Y385846D01*
X685553Y379153D02*
Y385846D01*
X605435Y379153D02*
Y385846D01*
X610553Y379153D02*
Y385846D01*
X530442Y379153D02*
Y385846D01*
X535561Y379153D02*
Y385846D01*
X380427Y379153D02*
Y385846D01*
X385545Y379153D02*
Y385846D01*
X305434Y379153D02*
Y385846D01*
X310552Y379153D02*
Y385846D01*
X230434Y379153D02*
Y385846D01*
X235552Y379153D02*
Y385846D01*
X155433Y379153D02*
Y385846D01*
X160552Y379153D02*
Y385846D01*
X830443Y379153D02*
Y385846D01*
X835561Y379153D02*
Y385846D01*
X924187Y154148D02*
Y160841D01*
X929305Y154148D02*
Y160841D01*
X849187Y154148D02*
Y160841D01*
X854305Y154148D02*
Y160841D01*
X905443Y379153D02*
Y385846D01*
X910561Y379153D02*
Y385846D01*
X774187Y154148D02*
Y160841D01*
X779305Y154148D02*
Y160841D01*
X961687Y229148D02*
Y235841D01*
X966805Y229148D02*
Y235841D01*
D57*
X249186Y164778D02*
X254304D01*
X455435Y389783D02*
X460553D01*
X624109Y164743D02*
X629227D01*
X549091D02*
X554209D01*
X567942Y314778D02*
X573061D01*
X586687Y239778D02*
X591805D01*
X1017943Y314778D02*
X1023061D01*
X1111687D02*
X1116805D01*
X942943D02*
X948061D01*
X324186Y164778D02*
X329304D01*
X267941Y314778D02*
X273059D01*
X474187Y164778D02*
X479305D01*
X1280443D02*
X1285561D01*
X642942Y314778D02*
X648061D01*
X99186D02*
X104304D01*
X492942D02*
X498061D01*
X558561Y89778D02*
X563679D01*
X1355443Y164778D02*
X1360561D01*
X1205443D02*
X1210561D01*
X1355443Y239778D02*
X1360561D01*
X1280443D02*
X1285561D01*
X1205443D02*
X1210561D01*
X286686D02*
X291804D01*
X933561Y89778D02*
X938679D01*
X1064813Y164778D02*
X1069931D01*
X1355443Y89778D02*
X1360561D01*
X1121061D02*
X1126179D01*
X839813D02*
X844931D01*
X417942Y314778D02*
X423061D01*
X192941D02*
X198059D01*
X1355443Y389783D02*
X1360561D01*
X1355443Y314778D02*
X1360561D01*
X867943D02*
X873061D01*
X792942D02*
X798061D01*
X1027313Y89778D02*
X1032431D01*
X699187Y164778D02*
X704305D01*
X183561Y89778D02*
X188679D01*
X127310Y164778D02*
X132428D01*
X1205443Y89778D02*
X1210561D01*
X89810D02*
X94928D01*
X277311D02*
X282429D01*
X811687Y239778D02*
X816805D01*
X736687D02*
X741805D01*
X661687D02*
X666805D01*
X1205443Y389783D02*
X1210561D01*
X717942Y314778D02*
X723061D01*
X1280443Y389783D02*
X1285561D01*
X511687Y239778D02*
X516805D01*
X436687D02*
X441805D01*
X80441Y389783D02*
X85559D01*
X1083561Y239778D02*
X1088679D01*
X1280443Y314778D02*
X1285561D01*
X342941D02*
X348059D01*
X1280443Y89778D02*
X1285561D01*
X1205443Y314778D02*
X1210561D01*
X361686Y239778D02*
X366804D01*
X108560D02*
X113678D01*
X399187Y164778D02*
X404305D01*
X1092943Y389783D02*
X1098061D01*
X211686Y239778D02*
X216804D01*
X980443Y389783D02*
X985561D01*
X886687Y239778D02*
X891805D01*
X755442Y389783D02*
X760561D01*
X680435D02*
X685553D01*
X605435D02*
X610553D01*
X530442D02*
X535561D01*
X380427D02*
X385545D01*
X305434D02*
X310552D01*
X230434D02*
X235552D01*
X155433D02*
X160552D01*
X830443D02*
X835561D01*
X924187Y164778D02*
X929305D01*
X849187D02*
X854305D01*
X905443Y389783D02*
X910561D01*
X774187Y164778D02*
X779305D01*
X961687Y239778D02*
X966805D01*
M02*
