G04*
G04 #@! TF.GenerationSoftware,Altium Limited,Altium Designer,20.1.14 (287)*
G04*
G04 Layer_Color=65535*
%FSLAX25Y25*%
%MOIN*%
G70*
G04*
G04 #@! TF.SameCoordinates,F18565B3-5AEE-427A-983D-E8141EFD77F9*
G04*
G04*
G04 #@! TF.FilePolarity,Positive*
G04*
G01*
G75*
%ADD10C,0.00500*%
%ADD11C,0.01000*%
G36*
X36360Y276619D02*
Y273662D01*
X33917Y274495D01*
Y273759D01*
X35138Y273343D01*
Y272135D01*
X36360Y271719D01*
Y267527D01*
X35138Y267944D01*
Y266708D01*
X33917Y267125D01*
Y265903D01*
X32682Y266334D01*
Y265112D01*
X26061Y267361D01*
Y268582D01*
X24839Y268999D01*
Y270220D01*
X23604Y270650D01*
Y271872D01*
X22383Y272288D01*
Y276480D01*
X23604Y276063D01*
Y277271D01*
X24839Y276855D01*
Y277590D01*
X18718Y279672D01*
Y282629D01*
X36360Y276619D01*
D02*
G37*
G36*
X27782Y264515D02*
Y261559D01*
X26561Y261975D01*
Y260754D01*
X25325Y261170D01*
X25339Y259227D01*
X26561Y258811D01*
Y257589D01*
X27782Y257173D01*
Y255951D01*
X29017Y255535D01*
Y254313D01*
X36360Y251801D01*
Y248845D01*
X22383Y253606D01*
Y256562D01*
X24826Y255729D01*
Y256437D01*
X23604Y256854D01*
Y258075D01*
X22383Y258491D01*
X22383Y263905D01*
X23604Y263488D01*
Y264710D01*
X24839Y264293D01*
X24853Y265515D01*
X27782Y264515D01*
D02*
G37*
G36*
X36360Y246596D02*
Y243640D01*
X35125Y244070D01*
Y243348D01*
X36360Y242918D01*
Y236283D01*
X35125Y236714D01*
Y235492D01*
X33917Y235909D01*
Y234673D01*
X28504Y236519D01*
Y237741D01*
X27282Y238157D01*
Y239379D01*
X26061Y239809D01*
Y246416D01*
X27282Y246013D01*
Y246735D01*
X25339Y247401D01*
Y246166D01*
X24104Y246582D01*
Y240461D01*
X21161Y241461D01*
Y249331D01*
X22383Y248914D01*
Y250136D01*
X23604Y249719D01*
Y250941D01*
X36360Y246596D01*
D02*
G37*
G36*
X33917Y232439D02*
Y231217D01*
X35138Y230801D01*
Y229579D01*
X36360Y229163D01*
Y221279D01*
X35138Y221695D01*
Y220474D01*
X33917Y220890D01*
Y219669D01*
X24826Y222764D01*
Y223986D01*
X23604Y224402D01*
Y225623D01*
X22383Y226040D01*
Y233924D01*
X23604Y233507D01*
Y234729D01*
X24826Y234312D01*
Y235534D01*
X33917Y232439D01*
D02*
G37*
G36*
X32682Y217865D02*
Y216643D01*
X33917Y216213D01*
Y214978D01*
X35138Y214561D01*
Y213340D01*
X36360Y212923D01*
Y208732D01*
X35138Y209148D01*
Y207927D01*
X33917Y208343D01*
Y207621D01*
X36360Y206788D01*
Y203832D01*
X18718Y209842D01*
Y212798D01*
X24839Y210716D01*
Y211438D01*
X23604Y211855D01*
Y213076D01*
X22383Y213492D01*
Y217684D01*
X23604Y217268D01*
Y218489D01*
X24839Y218073D01*
Y219308D01*
X26061Y218892D01*
Y220113D01*
X32682Y217865D01*
D02*
G37*
G36*
X33917Y202430D02*
Y201209D01*
X35138Y200792D01*
Y199571D01*
X36360Y199154D01*
Y191270D01*
X33417Y192284D01*
Y198419D01*
X32196Y198835D01*
Y200071D01*
X29017Y201139D01*
Y200417D01*
X30239Y200001D01*
Y198780D01*
X31460Y198363D01*
Y192936D01*
X30239Y193352D01*
Y192131D01*
X29017Y192548D01*
Y191326D01*
X21161Y194005D01*
Y196961D01*
X27282Y194879D01*
Y196101D01*
X28518Y195684D01*
Y197628D01*
X27282Y198044D01*
Y199265D01*
X26061Y199682D01*
Y200917D01*
X23618Y201750D01*
Y202985D01*
X21161Y203818D01*
Y206774D01*
X33917Y202430D01*
D02*
G37*
G36*
X36360Y186579D02*
Y183623D01*
X35125Y184053D01*
Y183331D01*
X36360Y182901D01*
Y176266D01*
X35125Y176697D01*
Y175475D01*
X33917Y175891D01*
Y174656D01*
X28504Y176502D01*
Y177724D01*
X27282Y178140D01*
Y179361D01*
X26061Y179792D01*
Y186399D01*
X27282Y185996D01*
Y186718D01*
X25339Y187384D01*
Y186149D01*
X24104Y186565D01*
Y180444D01*
X21161Y181444D01*
Y189313D01*
X22383Y188897D01*
Y190119D01*
X23604Y189702D01*
Y190924D01*
X36360Y186579D01*
D02*
G37*
G36*
X25339Y175350D02*
Y174115D01*
X26561Y173698D01*
Y172477D01*
X27782Y172061D01*
Y170839D01*
X29004Y170423D01*
Y169187D01*
X29725Y168938D01*
Y170173D01*
X30961Y169756D01*
Y170978D01*
X32182Y170562D01*
Y171783D01*
X33404Y171367D01*
Y172602D01*
X36360Y171575D01*
Y168618D01*
X35138Y169049D01*
Y167827D01*
X33903Y168244D01*
Y167008D01*
X32682Y167425D01*
Y166203D01*
X31460Y166620D01*
Y165898D01*
X32682Y165481D01*
Y164260D01*
X33903Y163844D01*
Y162622D01*
X36360Y161776D01*
Y158819D01*
X18718Y164829D01*
Y167786D01*
X29725Y164038D01*
Y164746D01*
X28504Y165162D01*
Y166398D01*
X27282Y166814D01*
Y168035D01*
X26061Y168452D01*
Y169673D01*
X24839Y170090D01*
Y171325D01*
X23604Y171741D01*
Y172963D01*
X22383Y173379D01*
Y176336D01*
X25339Y175350D01*
D02*
G37*
G36*
X24104Y160762D02*
Y157806D01*
X22896Y158208D01*
Y156973D01*
X21661Y157389D01*
Y153003D01*
X22896Y152587D01*
Y151352D01*
X24839Y150699D01*
Y151935D01*
X26061Y151518D01*
Y157653D01*
X27282Y157237D01*
Y158458D01*
X28504Y158042D01*
Y159263D01*
X33917Y157417D01*
Y156196D01*
X35138Y155779D01*
Y154558D01*
X36360Y154141D01*
Y146258D01*
X35138Y146674D01*
Y145453D01*
X33917Y145869D01*
Y144648D01*
X30961Y145661D01*
Y148617D01*
X32182Y148201D01*
Y149436D01*
X33417Y149020D01*
Y153406D01*
X32182Y153822D01*
Y155058D01*
X30239Y155724D01*
Y154489D01*
X29004Y154905D01*
Y148770D01*
X27782Y149186D01*
Y147965D01*
X26561Y148368D01*
Y147146D01*
X21161Y148992D01*
Y150214D01*
X19926Y150630D01*
Y151851D01*
X18718Y152268D01*
Y160152D01*
X19926Y159735D01*
Y160957D01*
X21161Y160540D01*
Y161762D01*
X24104Y160762D01*
D02*
G37*
G36*
X45186Y280292D02*
X44488D01*
Y280990D01*
X40996D01*
Y280292D01*
X40297D01*
Y282383D01*
X40996D01*
Y281688D01*
X44488D01*
Y282383D01*
X45186D01*
Y280292D01*
D02*
G37*
G36*
Y278197D02*
X44142D01*
Y277847D01*
X43793D01*
Y277498D01*
X43444D01*
Y277149D01*
X43095D01*
Y276800D01*
X42746D01*
Y276450D01*
X42396D01*
Y276101D01*
X45186D01*
Y275403D01*
X40297D01*
Y276101D01*
X41345D01*
Y276450D01*
X41694D01*
Y276800D01*
X42043D01*
Y277149D01*
X42392D01*
Y277498D01*
X42742D01*
Y277847D01*
X43091D01*
Y278197D01*
X40297D01*
Y278895D01*
X45186D01*
Y278197D01*
D02*
G37*
G36*
Y274006D02*
X44142D01*
Y273657D01*
X43793D01*
Y273308D01*
X43444D01*
Y272958D01*
X43095D01*
Y272609D01*
X42746D01*
Y272260D01*
X42396D01*
Y271911D01*
X45186D01*
Y271213D01*
X40297D01*
Y271911D01*
X41345D01*
Y272260D01*
X41694D01*
Y272609D01*
X42043D01*
Y272958D01*
X42392D01*
Y273308D01*
X42742D01*
Y273657D01*
X43091D01*
Y274006D01*
X40297D01*
Y274705D01*
X45186D01*
Y274006D01*
D02*
G37*
G36*
Y269816D02*
X44142D01*
Y269466D01*
X43793D01*
Y269117D01*
X43444D01*
Y268768D01*
X43095D01*
Y268419D01*
X42746D01*
Y268070D01*
X42396D01*
Y267721D01*
X45186D01*
Y267022D01*
X40297D01*
Y267721D01*
X41345D01*
Y268070D01*
X41694D01*
Y268419D01*
X42043D01*
Y268768D01*
X42392D01*
Y269117D01*
X42742D01*
Y269466D01*
X43091D01*
Y269816D01*
X40297D01*
Y270514D01*
X45186D01*
Y269816D01*
D02*
G37*
G36*
Y261435D02*
X44491D01*
Y261086D01*
X44837D01*
Y260736D01*
X45186D01*
Y259689D01*
X44837D01*
Y259340D01*
X44488D01*
Y258991D01*
X44138D01*
Y258641D01*
X42392D01*
Y258991D01*
X42043D01*
Y259340D01*
X41694Y259336D01*
Y259689D01*
X41345D01*
Y260736D01*
X41694D01*
Y261086D01*
X42043D01*
Y261435D01*
X40297D01*
Y262133D01*
X45186D01*
Y261435D01*
D02*
G37*
G36*
Y257244D02*
X42392D01*
Y256895D01*
X42043D01*
Y255499D01*
X42392D01*
Y255149D01*
X45186D01*
Y254451D01*
X41345D01*
Y255149D01*
X41694D01*
Y255499D01*
X41345D01*
Y257244D01*
X41694D01*
Y257594D01*
X42043D01*
Y257943D01*
X45186D01*
Y257244D01*
D02*
G37*
G36*
Y253054D02*
X44837D01*
Y252705D01*
X45186D01*
Y250959D01*
X44837Y250955D01*
Y250606D01*
X44488D01*
Y250260D01*
X43091D01*
Y250610D01*
X42742D01*
Y250959D01*
X42392Y250955D01*
Y252705D01*
X42742Y252701D01*
Y253054D01*
X42043D01*
Y252705D01*
X41694Y252701D01*
Y250959D01*
X40996Y250955D01*
Y253054D01*
X41345D01*
Y253403D01*
X41694D01*
Y253752D01*
X45186D01*
Y253054D01*
D02*
G37*
G36*
Y244673D02*
X42392D01*
Y244324D01*
X42043D01*
Y243975D01*
X45186D01*
Y243277D01*
X42043D01*
Y242927D01*
X42392D01*
Y242578D01*
X45186D01*
Y241880D01*
X41345D01*
Y242578D01*
X41694D01*
Y242927D01*
X41345D01*
Y244673D01*
X41694D01*
Y245023D01*
X42043D01*
Y245372D01*
X45186D01*
Y244673D01*
D02*
G37*
G36*
X44488Y240832D02*
X44837D01*
Y240483D01*
X45186D01*
Y238388D01*
X44837D01*
Y238038D01*
X44488D01*
Y237689D01*
X41345D01*
Y238388D01*
X44138D01*
Y238737D01*
X44488D01*
Y240134D01*
X44138D01*
Y240483D01*
X41345D01*
Y241181D01*
X44488D01*
Y240832D01*
D02*
G37*
G36*
X41345Y234896D02*
X40646D01*
Y235594D01*
X41345D01*
Y234896D01*
D02*
G37*
G36*
X45186Y235594D02*
X44837Y235590D01*
Y235241D01*
X44488D01*
Y234896D01*
X42742D01*
Y234197D01*
X42043D01*
Y235594D01*
X44138D01*
Y235939D01*
X44488D01*
Y236289D01*
X45186D01*
Y235594D01*
D02*
G37*
G36*
X44488Y232451D02*
X44837D01*
Y232102D01*
X45186D01*
Y230007D01*
X44837D01*
Y229658D01*
X44488D01*
Y229309D01*
X42043D01*
Y229658D01*
X41694D01*
Y230007D01*
X41345D01*
Y232102D01*
X41694D01*
Y232451D01*
X42043D01*
Y232801D01*
X42742D01*
Y232102D01*
X42392D01*
Y231753D01*
X42043D01*
Y230356D01*
X42392D01*
Y230007D01*
X44138D01*
Y230356D01*
X44488D01*
Y231753D01*
X44138D01*
Y232102D01*
X43789D01*
Y232801D01*
X44488D01*
Y232451D01*
D02*
G37*
G36*
X45186Y227912D02*
X44837D01*
Y227562D01*
X45186D01*
Y225816D01*
X44837Y225813D01*
Y225463D01*
X44488D01*
Y225118D01*
X43091D01*
Y225467D01*
X42742D01*
Y225816D01*
X42392Y225813D01*
Y227562D01*
X42742Y227559D01*
Y227912D01*
X42043D01*
Y227562D01*
X41694Y227559D01*
Y225816D01*
X40996Y225813D01*
Y227912D01*
X41345D01*
Y228261D01*
X41694D01*
Y228610D01*
X45186D01*
Y227912D01*
D02*
G37*
G36*
Y223023D02*
X44837D01*
Y222674D01*
X44488D01*
Y222324D01*
X42043D01*
Y221626D01*
X41345D01*
Y222324D01*
X40297D01*
Y223023D01*
X41345D01*
Y223717D01*
X42043D01*
Y223023D01*
X44138D01*
Y223368D01*
X44488D01*
Y223717D01*
X45186D01*
Y223023D01*
D02*
G37*
G36*
X44488Y219880D02*
X44837D01*
Y219531D01*
X45186D01*
Y217436D01*
X44488D01*
Y219182D01*
X44138D01*
Y219531D01*
X43091D01*
Y219182D01*
X43440D01*
Y218832D01*
X43789D01*
Y217436D01*
X43440D01*
Y217087D01*
X43091D01*
Y216737D01*
X40996D01*
Y217436D01*
X42742D01*
Y217785D01*
X43091D01*
Y218483D01*
X42742D01*
Y218832D01*
X42392D01*
Y219182D01*
X41694D01*
Y219531D01*
X40996D01*
Y220229D01*
X44488D01*
Y219880D01*
D02*
G37*
G36*
X45186Y215340D02*
X44837D01*
Y214991D01*
X45186D01*
Y213245D01*
X44837Y213241D01*
Y212892D01*
X44488D01*
Y212547D01*
X43091D01*
Y212896D01*
X42742D01*
Y213245D01*
X42392Y213241D01*
Y214991D01*
X42742Y214987D01*
Y215340D01*
X42043D01*
Y214991D01*
X41694Y214987D01*
Y213245D01*
X40996Y213241D01*
Y215340D01*
X41345D01*
Y215690D01*
X41694D01*
Y216039D01*
X45186D01*
Y215340D01*
D02*
G37*
G36*
Y211150D02*
X44837Y211146D01*
Y210801D01*
X44488D01*
Y210452D01*
X44138D01*
Y210103D01*
X43793D01*
Y209753D01*
X44138D01*
Y209404D01*
X44488D01*
Y209055D01*
X45186D01*
Y208356D01*
X40297D01*
Y209055D01*
X43440D01*
Y209404D01*
X43091D01*
Y209753D01*
X42746D01*
Y210103D01*
X42396D01*
Y210452D01*
X42047D01*
Y210801D01*
X41698D01*
Y211150D01*
X41349D01*
Y211848D01*
X42047D01*
Y211499D01*
X42396D01*
Y211150D01*
X42746D01*
Y210801D01*
X43091D01*
Y210452D01*
X43440D01*
Y210801D01*
X43789D01*
Y211150D01*
X44138Y211146D01*
Y211499D01*
X44488D01*
Y211848D01*
X45186D01*
Y211150D01*
D02*
G37*
G36*
X44488Y207654D02*
Y207305D01*
X44837D01*
Y206960D01*
X45186D01*
Y204865D01*
X44837D01*
Y204515D01*
X44488D01*
Y204166D01*
X43789D01*
Y204865D01*
X44138D01*
Y205214D01*
X44488D01*
Y206610D01*
X44138D01*
Y206960D01*
X43440D01*
Y206610D01*
X43091D01*
Y204865D01*
X42742D01*
Y204515D01*
X42392D01*
Y204166D01*
X40996D01*
Y204515D01*
X40646D01*
Y204865D01*
X40297D01*
Y206960D01*
X40646D01*
Y207309D01*
X40996D01*
Y207658D01*
X41694D01*
Y206960D01*
X41345D01*
Y206610D01*
X40996D01*
Y205214D01*
X41345D01*
Y204865D01*
X42043D01*
Y205214D01*
X42392D01*
Y206960D01*
X42742D01*
Y207309D01*
X43091D01*
Y207658D01*
X44488Y207654D01*
D02*
G37*
G36*
Y198928D02*
X44837D01*
Y198579D01*
X45186D01*
Y196484D01*
X44488D01*
Y198230D01*
X44138D01*
Y198579D01*
X43091D01*
Y198230D01*
X43440D01*
Y197880D01*
X43789D01*
Y196484D01*
X43440D01*
Y196134D01*
X43091D01*
Y195785D01*
X40996D01*
Y196484D01*
X42742D01*
Y196833D01*
X43091D01*
Y197531D01*
X42742D01*
Y197880D01*
X42392D01*
Y198230D01*
X41694D01*
Y198579D01*
X40996D01*
Y199277D01*
X44488D01*
Y198928D01*
D02*
G37*
G36*
Y194738D02*
X44837D01*
Y194388D01*
X45186D01*
Y191595D01*
X40297D01*
Y194388D01*
X40646D01*
Y194738D01*
X40996D01*
Y195087D01*
X42392D01*
Y194738D01*
X43091D01*
Y195087D01*
X44488D01*
Y194738D01*
D02*
G37*
G36*
X43091Y183559D02*
X42392D01*
Y186353D01*
X43091D01*
Y183559D01*
D02*
G37*
%LPC*%
G36*
X27782Y275342D02*
Y274134D01*
X26561Y274537D01*
Y273315D01*
X25339Y273732D01*
Y273010D01*
X26561Y272593D01*
Y271372D01*
X27782Y270970D01*
Y269734D01*
X30961Y268652D01*
Y269887D01*
X32182Y269471D01*
Y270692D01*
X33417Y270275D01*
Y270997D01*
X32182Y271414D01*
Y272635D01*
X30961Y273052D01*
Y274259D01*
X27782Y275342D01*
D02*
G37*
G36*
X30225Y245736D02*
Y244500D01*
X29004Y244917D01*
Y240545D01*
X30225Y240128D01*
Y238893D01*
X32182Y238227D01*
Y239462D01*
X33417Y239046D01*
Y243418D01*
X32182Y243848D01*
Y245069D01*
X30225Y245736D01*
D02*
G37*
G36*
X26561Y231981D02*
Y230745D01*
X25325Y231175D01*
Y226789D01*
X26561Y226359D01*
Y225124D01*
X32182Y223222D01*
Y224458D01*
X33417Y224041D01*
Y228427D01*
X32182Y228844D01*
Y230079D01*
X26561Y231981D01*
D02*
G37*
G36*
X27782Y216560D02*
Y215338D01*
X26561Y215741D01*
Y214520D01*
X25339Y214936D01*
Y214214D01*
X26561Y213798D01*
Y212576D01*
X27782Y212174D01*
Y210952D01*
X30961Y209870D01*
Y211091D01*
X32182Y210675D01*
Y211896D01*
X33417Y211480D01*
Y212202D01*
X32182Y212618D01*
Y213839D01*
X30961Y214256D01*
Y215477D01*
X27782Y216560D01*
D02*
G37*
G36*
X30225Y185719D02*
Y184483D01*
X29004Y184900D01*
Y180527D01*
X30225Y180111D01*
Y178876D01*
X32182Y178209D01*
Y179445D01*
X33417Y179028D01*
Y183401D01*
X32182Y183831D01*
Y185052D01*
X30225Y185719D01*
D02*
G37*
G36*
X43789Y261086D02*
X42742D01*
Y260736D01*
X42392D01*
Y260387D01*
X42043D01*
Y260038D01*
X42392D01*
Y259689D01*
X42742D01*
Y259340D01*
X43789Y259336D01*
Y259689D01*
X44138D01*
Y260038D01*
X44488D01*
Y260387D01*
X44138D01*
Y260736D01*
X43789D01*
Y261086D01*
D02*
G37*
G36*
X44138Y253054D02*
X43440D01*
Y252705D01*
X43091Y252701D01*
Y251308D01*
X43440D01*
Y250959D01*
X44138D01*
Y251308D01*
X44488D01*
Y252705D01*
X44138Y252701D01*
Y253054D01*
D02*
G37*
G36*
Y227912D02*
X43440D01*
Y227562D01*
X43091Y227559D01*
Y226166D01*
X43440D01*
Y225816D01*
X44138D01*
Y226166D01*
X44488D01*
Y227562D01*
X44138Y227559D01*
Y227912D01*
D02*
G37*
G36*
Y215340D02*
X43440D01*
Y214991D01*
X43091Y214987D01*
Y213595D01*
X43440D01*
Y213245D01*
X44138D01*
Y213595D01*
X44488D01*
Y214991D01*
X44138Y214987D01*
Y215340D01*
D02*
G37*
G36*
Y194388D02*
X43440D01*
Y194039D01*
X43091D01*
Y192293D01*
X44488D01*
Y194039D01*
X44138D01*
Y194388D01*
D02*
G37*
G36*
X42043D02*
X41345D01*
Y194039D01*
X40996D01*
Y192293D01*
X42392D01*
Y194039D01*
X42043D01*
Y194388D01*
D02*
G37*
%LPD*%
D10*
X105423Y330420D02*
X166840D01*
Y391837D01*
X105423D02*
X166840D01*
X105423Y330420D02*
Y391837D01*
X180423Y330420D02*
Y391837D01*
X241840D01*
Y330420D02*
Y391837D01*
X180423Y330420D02*
X241840D01*
X255423D02*
X316840D01*
Y391837D01*
X255423D02*
X316840D01*
X255423Y330420D02*
Y391837D01*
X330423Y330420D02*
Y391837D01*
X391840D01*
Y330420D02*
Y391837D01*
X330423Y330420D02*
X391840D01*
X405416D02*
X466833D01*
Y391837D01*
X405416D02*
X466833D01*
X405416Y330420D02*
Y391837D01*
X480420Y330424D02*
Y391841D01*
X541837D01*
Y330424D02*
Y391841D01*
X480420Y330424D02*
X541837D01*
X630424Y330420D02*
X691841D01*
Y391837D01*
X630424D02*
X691841D01*
X630424Y330420D02*
Y391837D01*
X705424Y330420D02*
Y391837D01*
X766841D01*
Y330420D02*
Y391837D01*
X705424Y330420D02*
X766841D01*
X780424D02*
X841841D01*
Y391837D01*
X780424D02*
X841841D01*
X780424Y330420D02*
Y391837D01*
X855424Y330420D02*
Y391837D01*
X916841D01*
Y330420D02*
Y391837D01*
X855424Y330420D02*
X916841D01*
X930424D02*
X991841D01*
Y391837D01*
X930424D02*
X991841D01*
X930424Y330420D02*
Y391837D01*
X1042924Y330420D02*
Y391837D01*
X1104341D01*
Y330420D02*
Y391837D01*
X1042924Y330420D02*
X1104341D01*
X1155424D02*
X1216841D01*
Y391837D01*
X1155424D02*
X1216841D01*
X1155424Y330420D02*
Y391837D01*
X1230421Y330423D02*
Y391840D01*
X1291838D01*
Y330423D02*
Y391840D01*
X1230421Y330423D02*
X1291838D01*
X1305424Y330420D02*
X1366841D01*
Y391837D01*
X1305424D02*
X1366841D01*
X1305424Y330420D02*
Y391837D01*
X58545Y180417D02*
Y241834D01*
X119962D01*
Y180417D02*
Y241834D01*
X58545Y180417D02*
X119962D01*
X161670Y180417D02*
X223087D01*
Y241834D01*
X161670D02*
X223087D01*
X161670Y180417D02*
Y241834D01*
X236670Y180417D02*
Y241834D01*
X298087D01*
Y180417D02*
Y241834D01*
X236670Y180417D02*
X298087D01*
X311670D02*
X373087D01*
Y241834D01*
X311670D02*
X373087D01*
X311670Y180417D02*
Y241834D01*
X386670Y180418D02*
Y241835D01*
X448088D01*
Y180418D02*
Y241835D01*
X386670Y180418D02*
X448088D01*
X461670Y180418D02*
X523087D01*
Y241835D01*
X461670D02*
X523087D01*
X461670Y180418D02*
Y241835D01*
X536670Y180418D02*
Y241835D01*
X598087D01*
Y180418D02*
Y241835D01*
X536670Y180418D02*
X598087D01*
X611670D02*
X673087D01*
Y241835D01*
X611670D02*
X673087D01*
X611670Y180418D02*
Y241835D01*
X686670Y180418D02*
Y241835D01*
X748087D01*
Y180418D02*
Y241835D01*
X686670Y180418D02*
X748087D01*
X761670D02*
X823087D01*
Y241835D01*
X761670D02*
X823087D01*
X761670Y180418D02*
Y241835D01*
X836670Y180418D02*
Y241835D01*
X898087D01*
Y180418D02*
Y241835D01*
X836670Y180418D02*
X898087D01*
X911670D02*
X973087D01*
Y241835D01*
X911670D02*
X973087D01*
X911670Y180418D02*
Y241835D01*
X1033544Y180418D02*
Y241835D01*
X1094961D01*
Y180418D02*
Y241835D01*
X1033544Y180418D02*
X1094961D01*
X1071044Y30418D02*
X1132461D01*
Y91836D01*
X1071044D02*
X1132461D01*
X1071044Y30418D02*
Y91836D01*
X1155424Y180420D02*
Y241837D01*
X1216841D01*
Y180420D02*
Y241837D01*
X1155424Y180420D02*
X1216841D01*
X1230424D02*
X1291841D01*
Y241837D01*
X1230424D02*
X1291841D01*
X1230424Y180420D02*
Y241837D01*
X1305424Y180420D02*
Y241837D01*
X1366841D01*
Y180420D02*
Y241837D01*
X1305424Y180420D02*
X1366841D01*
X39795Y30417D02*
X101212D01*
Y91835D01*
X39795D02*
X101212D01*
X39795Y30417D02*
Y91835D01*
X133545Y30418D02*
Y91835D01*
X194963D01*
Y30418D02*
Y91835D01*
X133545Y30418D02*
X194963D01*
X227295Y30418D02*
X288712D01*
Y91835D01*
X227295D02*
X288712D01*
X227295Y30418D02*
Y91835D01*
X508544Y30418D02*
Y91836D01*
X569961D01*
Y30418D02*
Y91836D01*
X508544Y30418D02*
X569961D01*
X789796D02*
X851213D01*
Y91836D01*
X789796D02*
X851213D01*
X789796Y30418D02*
Y91836D01*
X883544Y30418D02*
Y91836D01*
X944961D01*
Y30418D02*
Y91836D01*
X883544Y30418D02*
X944961D01*
X977296D02*
X1038713D01*
Y91836D01*
X977296D02*
X1038713D01*
X977296Y30418D02*
Y91836D01*
X1155424Y30420D02*
Y91838D01*
X1216841D01*
Y30420D02*
Y91838D01*
X1155424Y30420D02*
X1216841D01*
X1305424Y30420D02*
X1366841D01*
Y91838D01*
X1305424D02*
X1366841D01*
X1305424Y30420D02*
Y91838D01*
X30420Y330422D02*
Y391840D01*
X91837D01*
Y330422D02*
Y391840D01*
X30420Y330422D02*
X91837D01*
X1230424Y30420D02*
X1291841D01*
Y91838D01*
X1230424D02*
X1291841D01*
X1230424Y30420D02*
Y91838D01*
X555424Y330420D02*
Y391837D01*
X616841D01*
Y330420D02*
Y391837D01*
X555424Y330420D02*
X616841D01*
X142923Y255420D02*
X204340D01*
Y316837D01*
X142923D02*
X204340D01*
X142923Y255420D02*
Y316837D01*
X217923Y255420D02*
X279340D01*
Y316837D01*
X217923D02*
X279340D01*
X217923Y255420D02*
Y316837D01*
X292923Y255420D02*
X354340D01*
Y316837D01*
X292923D02*
X354340D01*
X292923Y255420D02*
Y316837D01*
X367923Y255420D02*
X429341D01*
Y316838D01*
X367923D02*
X429341D01*
X367923Y255420D02*
Y316838D01*
X442924Y255420D02*
X504341D01*
Y316837D01*
X442924D02*
X504341D01*
X442924Y255420D02*
Y316837D01*
X592924Y255420D02*
X654341D01*
Y316837D01*
X592924D02*
X654341D01*
X592924Y255420D02*
Y316837D01*
X667924Y255420D02*
X729341D01*
Y316837D01*
X667924D02*
X729341D01*
X667924Y255420D02*
Y316837D01*
X742924Y255420D02*
X804341D01*
Y316837D01*
X742924D02*
X804341D01*
X742924Y255420D02*
Y316837D01*
X817924Y255420D02*
X879341D01*
Y316837D01*
X817924D02*
X879341D01*
X817924Y255420D02*
Y316837D01*
X892924Y255420D02*
X954341D01*
Y316837D01*
X892924D02*
X954341D01*
X892924Y255420D02*
Y316837D01*
X967924Y255420D02*
X1029341D01*
Y316837D01*
X967924D02*
X1029341D01*
X967924Y255420D02*
Y316837D01*
X1061670Y255418D02*
X1123087D01*
Y316835D01*
X1061670D02*
X1123087D01*
X1061670Y255418D02*
Y316835D01*
X1155424Y255420D02*
X1216841D01*
Y316837D01*
X1155424D02*
X1216841D01*
X1155424Y255420D02*
Y316837D01*
X1230424Y255420D02*
X1291841D01*
Y316837D01*
X1230424D02*
X1291841D01*
X1230424Y255420D02*
Y316837D01*
X1305424Y255420D02*
X1366841D01*
Y316837D01*
X1305424D02*
X1366841D01*
X1305424Y255420D02*
Y316837D01*
X77295Y105417D02*
X138712D01*
Y166834D01*
X77295D02*
X138712D01*
X77295Y105417D02*
Y166834D01*
X199170Y105418D02*
X260587D01*
Y166835D01*
X199170D02*
X260587D01*
X199170Y105418D02*
Y166835D01*
X274170Y105418D02*
X335587D01*
Y166835D01*
X274170D02*
X335587D01*
X274170Y105418D02*
Y166835D01*
X349170Y105418D02*
X410588D01*
Y166835D01*
X349170D02*
X410588D01*
X349170Y105418D02*
Y166835D01*
X424170Y105418D02*
X485587D01*
Y166836D01*
X424170D02*
X485587D01*
X424170Y105418D02*
Y166836D01*
X499170Y105418D02*
X560587D01*
Y166836D01*
X499170D02*
X560587D01*
X499170Y105418D02*
Y166836D01*
X574170Y105418D02*
X635587D01*
Y166836D01*
X574170D02*
X635587D01*
X574170Y105418D02*
Y166836D01*
X649170Y105418D02*
X710587D01*
Y166836D01*
X649170D02*
X710587D01*
X649170Y105418D02*
Y166836D01*
X724170Y105418D02*
X785587D01*
Y166836D01*
X724170D02*
X785587D01*
X724170Y105418D02*
Y166836D01*
X799170Y105418D02*
X860587D01*
Y166836D01*
X799170D02*
X860587D01*
X799170Y105418D02*
Y166836D01*
X874170Y105418D02*
X935587D01*
Y166836D01*
X874170D02*
X935587D01*
X874170Y105418D02*
Y166836D01*
X1014796Y105418D02*
X1076213D01*
Y166836D01*
X1014796D02*
X1076213D01*
X1014796Y105418D02*
Y166836D01*
X1155424Y105420D02*
X1216841D01*
Y166838D01*
X1155424D02*
X1216841D01*
X1155424Y105420D02*
Y166838D01*
X1230424Y105420D02*
X1291841D01*
Y166838D01*
X1230424D02*
X1291841D01*
X1230424Y105420D02*
Y166838D01*
X1305424Y105420D02*
X1366841D01*
Y166838D01*
X1305424D02*
X1366841D01*
X1305424Y105420D02*
Y166838D01*
X49170Y255417D02*
X110587D01*
Y316834D01*
X49170D02*
X110587D01*
X49170Y255417D02*
Y316834D01*
X517924Y255420D02*
X579341D01*
Y316837D01*
X517924D02*
X579341D01*
X517924Y255420D02*
Y316837D01*
D11*
X522659Y320099D02*
X518660D01*
X522659Y324098D01*
Y325098D01*
X521660Y326097D01*
X519660D01*
X518660Y325098D01*
X527658Y320099D02*
Y326097D01*
X524659Y323098D01*
X528657D01*
X49961Y320099D02*
X51960D01*
X50960D01*
Y326097D01*
X49961Y325098D01*
X54959D02*
X55959Y326097D01*
X57958D01*
X58958Y325098D01*
Y324098D01*
X57958Y323098D01*
X58958Y322099D01*
Y321099D01*
X57958Y320099D01*
X55959D01*
X54959Y321099D01*
Y322099D01*
X55959Y323098D01*
X54959Y324098D01*
Y325098D01*
X55959Y323098D02*
X57958D01*
X556072Y399637D02*
X557071Y400637D01*
X559071D01*
X560070Y399637D01*
Y398638D01*
X559071Y397638D01*
X560070Y396638D01*
Y395638D01*
X559071Y394639D01*
X557071D01*
X556072Y395638D01*
Y396638D01*
X557071Y397638D01*
X556072Y398638D01*
Y399637D01*
X557071Y397638D02*
X559071D01*
X1231161Y101097D02*
X1235159D01*
Y100098D01*
X1231161Y96099D01*
Y95099D01*
X1241157Y101097D02*
X1237159D01*
Y98098D01*
X1239158Y99098D01*
X1240158D01*
X1241157Y98098D01*
Y96099D01*
X1240158Y95099D01*
X1238158D01*
X1237159Y96099D01*
X89200Y395019D02*
X91199Y395047D01*
X90200Y395033D01*
X90115Y401030D01*
X89130Y400017D01*
X1306161Y101097D02*
X1310159D01*
Y100098D01*
X1306161Y96099D01*
Y95099D01*
X1316157Y101097D02*
X1314158Y100098D01*
X1312159Y98098D01*
Y96099D01*
X1313158Y95099D01*
X1315158D01*
X1316157Y96099D01*
Y97099D01*
X1315158Y98098D01*
X1312159D01*
X1156161Y101097D02*
X1160159D01*
Y100098D01*
X1156161Y96099D01*
Y95099D01*
X1165158D02*
Y101097D01*
X1162159Y98098D01*
X1166157D01*
X969411Y97881D02*
X973410D01*
Y96881D01*
X969411Y92883D01*
Y91883D01*
X979408D02*
X975409D01*
X979408Y95882D01*
Y96881D01*
X978408Y97881D01*
X976409D01*
X975409Y96881D01*
X884260Y101097D02*
X888259D01*
Y100098D01*
X884260Y96099D01*
Y95099D01*
X890259D02*
X892258D01*
X891258D01*
Y101097D01*
X890259Y100098D01*
X790560Y101097D02*
X794559D01*
Y100098D01*
X790560Y96099D01*
Y95099D01*
X796559Y100098D02*
X797558Y101097D01*
X799558D01*
X800557Y100098D01*
Y96099D01*
X799558Y95099D01*
X797558D01*
X796559Y96099D01*
Y100098D01*
X513259Y101097D02*
X511260Y100098D01*
X509261Y98098D01*
Y96099D01*
X510260Y95099D01*
X512260D01*
X513259Y96099D01*
Y97099D01*
X512260Y98098D01*
X509261D01*
X515259Y96099D02*
X516258Y95099D01*
X518258D01*
X519257Y96099D01*
Y100098D01*
X518258Y101097D01*
X516258D01*
X515259Y100098D01*
Y99098D01*
X516258Y98098D01*
X519257D01*
X232059Y101097D02*
X230060Y100098D01*
X228061Y98098D01*
Y96099D01*
X229060Y95099D01*
X231060D01*
X232059Y96099D01*
Y97099D01*
X231060Y98098D01*
X228061D01*
X234059Y100098D02*
X235058Y101097D01*
X237058D01*
X238057Y100098D01*
Y99098D01*
X237058Y98098D01*
X238057Y97099D01*
Y96099D01*
X237058Y95099D01*
X235058D01*
X234059Y96099D01*
Y97099D01*
X235058Y98098D01*
X234059Y99098D01*
Y100098D01*
X235058Y98098D02*
X237058D01*
X134827Y101818D02*
X132828Y100818D01*
X130828Y98819D01*
Y96820D01*
X131828Y95820D01*
X133827D01*
X134827Y96820D01*
Y97819D01*
X133827Y98819D01*
X130828D01*
X136826Y101818D02*
X140825D01*
Y100818D01*
X136826Y96820D01*
Y95820D01*
X41126Y101424D02*
X39127Y100425D01*
X37128Y98425D01*
Y96426D01*
X38127Y95426D01*
X40127D01*
X41126Y96426D01*
Y97426D01*
X40127Y98425D01*
X37128D01*
X47124Y101424D02*
X45125Y100425D01*
X43126Y98425D01*
Y96426D01*
X44125Y95426D01*
X46125D01*
X47124Y96426D01*
Y97426D01*
X46125Y98425D01*
X43126D01*
X1310159Y176097D02*
X1308160Y175098D01*
X1306161Y173098D01*
Y171099D01*
X1307160Y170099D01*
X1309160D01*
X1310159Y171099D01*
Y172099D01*
X1309160Y173098D01*
X1306161D01*
X1316157Y176097D02*
X1312159D01*
Y173098D01*
X1314158Y174098D01*
X1315158D01*
X1316157Y173098D01*
Y171099D01*
X1315158Y170099D01*
X1313158D01*
X1312159Y171099D01*
X1235159Y176097D02*
X1233160Y175098D01*
X1231161Y173098D01*
Y171099D01*
X1232160Y170099D01*
X1234160D01*
X1235159Y171099D01*
Y172099D01*
X1234160Y173098D01*
X1231161D01*
X1240158Y170099D02*
Y176097D01*
X1237159Y173098D01*
X1241157D01*
X1160159Y176097D02*
X1158160Y175098D01*
X1156161Y173098D01*
Y171099D01*
X1157160Y170099D01*
X1159160D01*
X1160159Y171099D01*
Y172099D01*
X1159160Y173098D01*
X1156161D01*
X1162159Y175098D02*
X1163158Y176097D01*
X1165158D01*
X1166157Y175098D01*
Y174098D01*
X1165158Y173098D01*
X1164158D01*
X1165158D01*
X1166157Y172099D01*
Y171099D01*
X1165158Y170099D01*
X1163158D01*
X1162159Y171099D01*
X1003725Y136857D02*
X1001725Y135858D01*
X999726Y133858D01*
Y131859D01*
X1000726Y130859D01*
X1002725D01*
X1003725Y131859D01*
Y132859D01*
X1002725Y133858D01*
X999726D01*
X1009723Y130859D02*
X1005724D01*
X1009723Y134858D01*
Y135858D01*
X1008723Y136857D01*
X1006724D01*
X1005724Y135858D01*
X878959Y176097D02*
X876960Y175098D01*
X874961Y173098D01*
Y171099D01*
X875960Y170099D01*
X877960D01*
X878959Y171099D01*
Y172099D01*
X877960Y173098D01*
X874961D01*
X880959Y170099D02*
X882958D01*
X881958D01*
Y176097D01*
X880959Y175098D01*
X803959Y176097D02*
X801960Y175098D01*
X799961Y173098D01*
Y171099D01*
X800960Y170099D01*
X802960D01*
X803959Y171099D01*
Y172099D01*
X802960Y173098D01*
X799961D01*
X805959Y175098D02*
X806958Y176097D01*
X808958D01*
X809957Y175098D01*
Y171099D01*
X808958Y170099D01*
X806958D01*
X805959Y171099D01*
Y175098D01*
X728959Y176097D02*
X724961D01*
Y173098D01*
X726960Y174098D01*
X727960D01*
X728959Y173098D01*
Y171099D01*
X727960Y170099D01*
X725960D01*
X724961Y171099D01*
X730959D02*
X731958Y170099D01*
X733958D01*
X734957Y171099D01*
Y175098D01*
X733958Y176097D01*
X731958D01*
X730959Y175098D01*
Y174098D01*
X731958Y173098D01*
X734957D01*
X653959Y176097D02*
X649961D01*
Y173098D01*
X651960Y174098D01*
X652960D01*
X653959Y173098D01*
Y171099D01*
X652960Y170099D01*
X650960D01*
X649961Y171099D01*
X655959Y175098D02*
X656958Y176097D01*
X658958D01*
X659957Y175098D01*
Y174098D01*
X658958Y173098D01*
X659957Y172099D01*
Y171099D01*
X658958Y170099D01*
X656958D01*
X655959Y171099D01*
Y172099D01*
X656958Y173098D01*
X655959Y174098D01*
Y175098D01*
X656958Y173098D02*
X658958D01*
X578959Y176097D02*
X574961D01*
Y173098D01*
X576960Y174098D01*
X577960D01*
X578959Y173098D01*
Y171099D01*
X577960Y170099D01*
X575960D01*
X574961Y171099D01*
X580959Y176097D02*
X584957D01*
Y175098D01*
X580959Y171099D01*
Y170099D01*
X503959Y176097D02*
X499961D01*
Y173098D01*
X501960Y174098D01*
X502960D01*
X503959Y173098D01*
Y171099D01*
X502960Y170099D01*
X500960D01*
X499961Y171099D01*
X509957Y176097D02*
X507958Y175098D01*
X505959Y173098D01*
Y171099D01*
X506958Y170099D01*
X508958D01*
X509957Y171099D01*
Y172099D01*
X508958Y173098D01*
X505959D01*
X428959Y176097D02*
X424961D01*
Y173098D01*
X426960Y174098D01*
X427960D01*
X428959Y173098D01*
Y171099D01*
X427960Y170099D01*
X425960D01*
X424961Y171099D01*
X434957Y176097D02*
X430959D01*
Y173098D01*
X432958Y174098D01*
X433958D01*
X434957Y173098D01*
Y171099D01*
X433958Y170099D01*
X431958D01*
X430959Y171099D01*
X353959Y176097D02*
X349960D01*
Y173098D01*
X351960Y174098D01*
X352960D01*
X353959Y173098D01*
Y171099D01*
X352960Y170099D01*
X350960D01*
X349960Y171099D01*
X358958Y170099D02*
Y176097D01*
X355959Y173098D01*
X359957D01*
X278959Y176097D02*
X274960D01*
Y173098D01*
X276960Y174098D01*
X277960D01*
X278959Y173098D01*
Y171099D01*
X277960Y170099D01*
X275960D01*
X274960Y171099D01*
X280959Y175098D02*
X281958Y176097D01*
X283958D01*
X284957Y175098D01*
Y174098D01*
X283958Y173098D01*
X282958D01*
X283958D01*
X284957Y172099D01*
Y171099D01*
X283958Y170099D01*
X281958D01*
X280959Y171099D01*
X203959Y176097D02*
X199960D01*
Y173098D01*
X201960Y174098D01*
X202960D01*
X203959Y173098D01*
Y171099D01*
X202960Y170099D01*
X200960D01*
X199960Y171099D01*
X209957Y170099D02*
X205959D01*
X209957Y174098D01*
Y175098D01*
X208958Y176097D01*
X206958D01*
X205959Y175098D01*
X82059Y176097D02*
X78061D01*
Y173098D01*
X80060Y174098D01*
X81060D01*
X82059Y173098D01*
Y171099D01*
X81060Y170099D01*
X79060D01*
X78061Y171099D01*
X84059Y170099D02*
X86058D01*
X85058D01*
Y176097D01*
X84059Y175098D01*
X1310159Y251097D02*
X1306161D01*
Y248098D01*
X1308160Y249098D01*
X1309160D01*
X1310159Y248098D01*
Y246099D01*
X1309160Y245099D01*
X1307160D01*
X1306161Y246099D01*
X1312159Y250098D02*
X1313158Y251097D01*
X1315158D01*
X1316157Y250098D01*
Y246099D01*
X1315158Y245099D01*
X1313158D01*
X1312159Y246099D01*
Y250098D01*
X1234160Y245099D02*
Y251097D01*
X1231161Y248098D01*
X1235159D01*
X1237159Y246099D02*
X1238158Y245099D01*
X1240158D01*
X1241157Y246099D01*
Y250098D01*
X1240158Y251097D01*
X1238158D01*
X1237159Y250098D01*
Y249098D01*
X1238158Y248098D01*
X1241157D01*
X1159160Y245099D02*
Y251097D01*
X1156161Y248098D01*
X1160159D01*
X1162159Y250098D02*
X1163158Y251097D01*
X1165158D01*
X1166157Y250098D01*
Y249098D01*
X1165158Y248098D01*
X1166157Y247099D01*
Y246099D01*
X1165158Y245099D01*
X1163158D01*
X1162159Y246099D01*
Y247099D01*
X1163158Y248098D01*
X1162159Y249098D01*
Y250098D01*
X1163158Y248098D02*
X1165158D01*
X1068230Y97093D02*
X1072229D01*
Y96094D01*
X1068230Y92095D01*
Y91096D01*
X1074228Y96094D02*
X1075228Y97093D01*
X1077227D01*
X1078227Y96094D01*
Y95094D01*
X1077227Y94095D01*
X1076227D01*
X1077227D01*
X1078227Y93095D01*
Y92095D01*
X1077227Y91096D01*
X1075228D01*
X1074228Y92095D01*
X1069261Y241489D02*
Y247487D01*
X1066261Y244488D01*
X1070260D01*
X1072260Y247487D02*
X1076258D01*
Y246487D01*
X1072260Y242489D01*
Y241489D01*
X915460Y245099D02*
Y251097D01*
X912461Y248098D01*
X916459D01*
X922457Y251097D02*
X920458Y250098D01*
X918459Y248098D01*
Y246099D01*
X919458Y245099D01*
X921458D01*
X922457Y246099D01*
Y247099D01*
X921458Y248098D01*
X918459D01*
X840460Y245099D02*
Y251097D01*
X837461Y248098D01*
X841459D01*
X847457Y251097D02*
X843459D01*
Y248098D01*
X845458Y249098D01*
X846458D01*
X847457Y248098D01*
Y246099D01*
X846458Y245099D01*
X844458D01*
X843459Y246099D01*
X765460Y245099D02*
Y251097D01*
X762461Y248098D01*
X766459D01*
X771458Y245099D02*
Y251097D01*
X768459Y248098D01*
X772457D01*
X690460Y245099D02*
Y251097D01*
X687461Y248098D01*
X691459D01*
X693459Y250098D02*
X694458Y251097D01*
X696458D01*
X697457Y250098D01*
Y249098D01*
X696458Y248098D01*
X695458D01*
X696458D01*
X697457Y247099D01*
Y246099D01*
X696458Y245099D01*
X694458D01*
X693459Y246099D01*
X615460Y245099D02*
Y251097D01*
X612461Y248098D01*
X616459D01*
X622457Y245099D02*
X618459D01*
X622457Y249098D01*
Y250098D01*
X621458Y251097D01*
X619458D01*
X618459Y250098D01*
X540460Y245099D02*
Y251097D01*
X537461Y248098D01*
X541459D01*
X543459Y245099D02*
X545458D01*
X544458D01*
Y251097D01*
X543459Y250098D01*
X465460Y245099D02*
Y251097D01*
X462461Y248098D01*
X466459D01*
X468459Y250098D02*
X469458Y251097D01*
X471458D01*
X472457Y250098D01*
Y246099D01*
X471458Y245099D01*
X469458D01*
X468459Y246099D01*
Y250098D01*
X387460D02*
X388460Y251097D01*
X390460D01*
X391459Y250098D01*
Y249098D01*
X390460Y248098D01*
X389460D01*
X390460D01*
X391459Y247099D01*
Y246099D01*
X390460Y245099D01*
X388460D01*
X387460Y246099D01*
X393459D02*
X394458Y245099D01*
X396458D01*
X397457Y246099D01*
Y250098D01*
X396458Y251097D01*
X394458D01*
X393459Y250098D01*
Y249098D01*
X394458Y248098D01*
X397457D01*
X312460Y250098D02*
X313460Y251097D01*
X315460D01*
X316459Y250098D01*
Y249098D01*
X315460Y248098D01*
X314460D01*
X315460D01*
X316459Y247099D01*
Y246099D01*
X315460Y245099D01*
X313460D01*
X312460Y246099D01*
X318459Y250098D02*
X319458Y251097D01*
X321458D01*
X322457Y250098D01*
Y249098D01*
X321458Y248098D01*
X322457Y247099D01*
Y246099D01*
X321458Y245099D01*
X319458D01*
X318459Y246099D01*
Y247099D01*
X319458Y248098D01*
X318459Y249098D01*
Y250098D01*
X319458Y248098D02*
X321458D01*
X237460Y250098D02*
X238460Y251097D01*
X240460D01*
X241459Y250098D01*
Y249098D01*
X240460Y248098D01*
X239460D01*
X240460D01*
X241459Y247099D01*
Y246099D01*
X240460Y245099D01*
X238460D01*
X237460Y246099D01*
X243459Y251097D02*
X247457D01*
Y250098D01*
X243459Y246099D01*
Y245099D01*
X162460Y250098D02*
X163460Y251097D01*
X165460D01*
X166459Y250098D01*
Y249098D01*
X165460Y248098D01*
X164460D01*
X165460D01*
X166459Y247099D01*
Y246099D01*
X165460Y245099D01*
X163460D01*
X162460Y246099D01*
X172457Y251097D02*
X170458Y250098D01*
X168459Y248098D01*
Y246099D01*
X169458Y245099D01*
X171458D01*
X172457Y246099D01*
Y247099D01*
X171458Y248098D01*
X168459D01*
X59260Y250098D02*
X60260Y251097D01*
X62260D01*
X63259Y250098D01*
Y249098D01*
X62260Y248098D01*
X61260D01*
X62260D01*
X63259Y247099D01*
Y246099D01*
X62260Y245099D01*
X60260D01*
X59260Y246099D01*
X69257Y251097D02*
X65259D01*
Y248098D01*
X67258Y249098D01*
X68258D01*
X69257Y248098D01*
Y246099D01*
X68258Y245099D01*
X66258D01*
X65259Y246099D01*
X1306161Y325098D02*
X1307160Y326097D01*
X1309160D01*
X1310159Y325098D01*
Y324098D01*
X1309160Y323098D01*
X1308160D01*
X1309160D01*
X1310159Y322099D01*
Y321099D01*
X1309160Y320099D01*
X1307160D01*
X1306161Y321099D01*
X1315158Y320099D02*
Y326097D01*
X1312159Y323098D01*
X1316157D01*
X1231161Y325098D02*
X1232160Y326097D01*
X1234160D01*
X1235159Y325098D01*
Y324098D01*
X1234160Y323098D01*
X1233160D01*
X1234160D01*
X1235159Y322099D01*
Y321099D01*
X1234160Y320099D01*
X1232160D01*
X1231161Y321099D01*
X1237159Y325098D02*
X1238158Y326097D01*
X1240158D01*
X1241157Y325098D01*
Y324098D01*
X1240158Y323098D01*
X1239158D01*
X1240158D01*
X1241157Y322099D01*
Y321099D01*
X1240158Y320099D01*
X1238158D01*
X1237159Y321099D01*
X1156161Y325098D02*
X1157160Y326097D01*
X1159160D01*
X1160159Y325098D01*
Y324098D01*
X1159160Y323098D01*
X1158160D01*
X1159160D01*
X1160159Y322099D01*
Y321099D01*
X1159160Y320099D01*
X1157160D01*
X1156161Y321099D01*
X1166157Y320099D02*
X1162159D01*
X1166157Y324098D01*
Y325098D01*
X1165158Y326097D01*
X1163158D01*
X1162159Y325098D01*
X1077891Y320503D02*
X1078891Y321503D01*
X1080890D01*
X1081890Y320503D01*
Y319504D01*
X1080890Y318504D01*
X1079890D01*
X1080890D01*
X1081890Y317504D01*
Y316505D01*
X1080890Y315505D01*
X1078891D01*
X1077891Y316505D01*
X1083889Y315505D02*
X1085888D01*
X1084889D01*
Y321503D01*
X1083889Y320503D01*
X968661Y325098D02*
X969660Y326097D01*
X971660D01*
X972659Y325098D01*
Y324098D01*
X971660Y323098D01*
X970660D01*
X971660D01*
X972659Y322099D01*
Y321099D01*
X971660Y320099D01*
X969660D01*
X968661Y321099D01*
X974659Y325098D02*
X975658Y326097D01*
X977658D01*
X978657Y325098D01*
Y321099D01*
X977658Y320099D01*
X975658D01*
X974659Y321099D01*
Y325098D01*
X897659Y320099D02*
X893661D01*
X897659Y324098D01*
Y325098D01*
X896660Y326097D01*
X894660D01*
X893661Y325098D01*
X899659Y321099D02*
X900658Y320099D01*
X902658D01*
X903657Y321099D01*
Y325098D01*
X902658Y326097D01*
X900658D01*
X899659Y325098D01*
Y324098D01*
X900658Y323098D01*
X903657D01*
X822659Y320099D02*
X818661D01*
X822659Y324098D01*
Y325098D01*
X821660Y326097D01*
X819660D01*
X818661Y325098D01*
X824659D02*
X825658Y326097D01*
X827658D01*
X828657Y325098D01*
Y324098D01*
X827658Y323098D01*
X828657Y322099D01*
Y321099D01*
X827658Y320099D01*
X825658D01*
X824659Y321099D01*
Y322099D01*
X825658Y323098D01*
X824659Y324098D01*
Y325098D01*
X825658Y323098D02*
X827658D01*
X747659Y320099D02*
X743660D01*
X747659Y324098D01*
Y325098D01*
X746660Y326097D01*
X744660D01*
X743660Y325098D01*
X749659Y326097D02*
X753657D01*
Y325098D01*
X749659Y321099D01*
Y320099D01*
X672659D02*
X668660D01*
X672659Y324098D01*
Y325098D01*
X671660Y326097D01*
X669660D01*
X668660Y325098D01*
X678657Y326097D02*
X676658Y325098D01*
X674659Y323098D01*
Y321099D01*
X675658Y320099D01*
X677658D01*
X678657Y321099D01*
Y322099D01*
X677658Y323098D01*
X674659D01*
X597659Y320099D02*
X593660D01*
X597659Y324098D01*
Y325098D01*
X596660Y326097D01*
X594660D01*
X593660Y325098D01*
X603657Y326097D02*
X599659D01*
Y323098D01*
X601658Y324098D01*
X602658D01*
X603657Y323098D01*
Y321099D01*
X602658Y320099D01*
X600658D01*
X599659Y321099D01*
X447659Y320099D02*
X443660D01*
X447659Y324098D01*
Y325098D01*
X446660Y326097D01*
X444660D01*
X443660Y325098D01*
X449659D02*
X450658Y326097D01*
X452658D01*
X453657Y325098D01*
Y324098D01*
X452658Y323098D01*
X451658D01*
X452658D01*
X453657Y322099D01*
Y321099D01*
X452658Y320099D01*
X450658D01*
X449659Y321099D01*
X372659Y320099D02*
X368660D01*
X372659Y324098D01*
Y325098D01*
X371660Y326097D01*
X369660D01*
X368660Y325098D01*
X378657Y320099D02*
X374659D01*
X378657Y324098D01*
Y325098D01*
X377658Y326097D01*
X375658D01*
X374659Y325098D01*
X297659Y320099D02*
X293660D01*
X297659Y324098D01*
Y325098D01*
X296660Y326097D01*
X294660D01*
X293660Y325098D01*
X299659Y320099D02*
X301658D01*
X300658D01*
Y326097D01*
X299659Y325098D01*
X222659Y320099D02*
X218660D01*
X222659Y324098D01*
Y325098D01*
X221660Y326097D01*
X219660D01*
X218660Y325098D01*
X224659D02*
X225658Y326097D01*
X227658D01*
X228657Y325098D01*
Y321099D01*
X227658Y320099D01*
X225658D01*
X224659Y321099D01*
Y325098D01*
X143660Y320099D02*
X145660D01*
X144660D01*
Y326097D01*
X143660Y325098D01*
X148659Y321099D02*
X149659Y320099D01*
X151658D01*
X152658Y321099D01*
Y325098D01*
X151658Y326097D01*
X149659D01*
X148659Y325098D01*
Y324098D01*
X149659Y323098D01*
X152658D01*
X1306161Y395099D02*
X1308160D01*
X1307160D01*
Y401097D01*
X1306161Y400098D01*
X1311159Y401097D02*
X1315158D01*
Y400098D01*
X1311159Y396099D01*
Y395099D01*
X1231161D02*
X1233160D01*
X1232160D01*
Y401097D01*
X1231161Y400098D01*
X1240158Y401097D02*
X1238158Y400098D01*
X1236159Y398098D01*
Y396099D01*
X1237159Y395099D01*
X1239158D01*
X1240158Y396099D01*
Y397099D01*
X1239158Y398098D01*
X1236159D01*
X1156161Y395099D02*
X1158160D01*
X1157160D01*
Y401097D01*
X1156161Y400098D01*
X1165158Y401097D02*
X1161159D01*
Y398098D01*
X1163158Y399098D01*
X1164158D01*
X1165158Y398098D01*
Y396099D01*
X1164158Y395099D01*
X1162159D01*
X1161159Y396099D01*
X1043661Y395099D02*
X1045660D01*
X1044660D01*
Y401097D01*
X1043661Y400098D01*
X1051658Y395099D02*
Y401097D01*
X1048659Y398098D01*
X1052658D01*
X931161Y395099D02*
X933160D01*
X932160D01*
Y401097D01*
X931161Y400098D01*
X936159D02*
X937159Y401097D01*
X939158D01*
X940158Y400098D01*
Y399098D01*
X939158Y398098D01*
X938158D01*
X939158D01*
X940158Y397099D01*
Y396099D01*
X939158Y395099D01*
X937159D01*
X936159Y396099D01*
X856161Y395099D02*
X858160D01*
X857160D01*
Y401097D01*
X856161Y400098D01*
X865158Y395099D02*
X861159D01*
X865158Y399098D01*
Y400098D01*
X864158Y401097D01*
X862159D01*
X861159Y400098D01*
X781160Y395099D02*
X783160D01*
X782160D01*
Y401097D01*
X781160Y400098D01*
X786159Y395099D02*
X788158D01*
X787159D01*
Y401097D01*
X786159Y400098D01*
X706160Y395099D02*
X708160D01*
X707160D01*
Y401097D01*
X706160Y400098D01*
X711159D02*
X712159Y401097D01*
X714158D01*
X715158Y400098D01*
Y396099D01*
X714158Y395099D01*
X712159D01*
X711159Y396099D01*
Y400098D01*
X630875Y395638D02*
X631874Y394639D01*
X633874D01*
X634873Y395638D01*
Y399637D01*
X633874Y400637D01*
X631874D01*
X630875Y399637D01*
Y398638D01*
X631874Y397638D01*
X634873D01*
X481268Y400637D02*
X485267D01*
Y399637D01*
X481268Y395638D01*
Y394639D01*
X409480Y400637D02*
X407480Y399637D01*
X405481Y397638D01*
Y395638D01*
X406481Y394639D01*
X408480D01*
X409480Y395638D01*
Y396638D01*
X408480Y397638D01*
X405481D01*
X334677Y400637D02*
X330678D01*
Y397638D01*
X332677Y398638D01*
X333677D01*
X334677Y397638D01*
Y395638D01*
X333677Y394639D01*
X331678D01*
X330678Y395638D01*
X258874Y394639D02*
Y400637D01*
X255875Y397638D01*
X259873D01*
X181071Y399637D02*
X182071Y400637D01*
X184071D01*
X185070Y399637D01*
Y398638D01*
X184071Y397638D01*
X183071D01*
X184071D01*
X185070Y396638D01*
Y395638D01*
X184071Y394639D01*
X182071D01*
X181071Y395638D01*
X109283Y394639D02*
X105284D01*
X109283Y398638D01*
Y399637D01*
X108283Y400637D01*
X106284D01*
X105284Y399637D01*
M02*
