G04*
G04 #@! TF.GenerationSoftware,Altium Limited,Altium Designer,21.2.2 (38)*
G04*
G04 Layer_Color=255*
%FSLAX25Y25*%
%MOIN*%
G70*
G04*
G04 #@! TF.SameCoordinates,D2681F19-CCD1-4E4B-9F87-FD34C08DC50C*
G04*
G04*
G04 #@! TF.FilePolarity,Positive*
G04*
G01*
G75*
%ADD13R,0.07087X0.03228*%
%ADD26C,0.12000*%
%ADD27C,0.15700*%
%ADD28R,0.03937X0.03937*%
%ADD29C,0.03937*%
%ADD33R,0.05512X0.04724*%
%ADD34R,0.02520X0.02677*%
%ADD35R,0.02047X0.02205*%
%ADD36R,0.01772X0.02323*%
%ADD37R,0.01772X0.01772*%
%ADD38R,0.02165X0.02165*%
%ADD39O,0.02362X0.08071*%
%ADD40O,0.08071X0.02362*%
%ADD41R,0.02205X0.02047*%
%ADD43C,0.09000*%
D13*
X219047Y113539D02*
D03*
Y119051D02*
D03*
X240700Y113539D02*
D03*
Y119051D02*
D03*
X537803Y263539D02*
D03*
Y269051D02*
D03*
X559457Y263539D02*
D03*
Y269051D02*
D03*
X294047Y113539D02*
D03*
Y119051D02*
D03*
X315700Y113539D02*
D03*
Y119051D02*
D03*
X237802Y263539D02*
D03*
Y269051D02*
D03*
X259456Y263539D02*
D03*
Y269051D02*
D03*
X444047Y113539D02*
D03*
Y119051D02*
D03*
X465701Y113539D02*
D03*
Y119051D02*
D03*
X1250303Y113539D02*
D03*
Y119051D02*
D03*
X1271957Y113539D02*
D03*
Y119051D02*
D03*
X612803Y263539D02*
D03*
Y269051D02*
D03*
X634457Y263539D02*
D03*
Y269051D02*
D03*
X69046Y263539D02*
D03*
Y269051D02*
D03*
X90700Y263539D02*
D03*
Y269051D02*
D03*
X462803Y263539D02*
D03*
Y269051D02*
D03*
X484457Y263539D02*
D03*
Y269051D02*
D03*
X550075Y44050D02*
D03*
Y38539D02*
D03*
X528421Y44050D02*
D03*
Y38539D02*
D03*
X1325303Y113539D02*
D03*
Y119051D02*
D03*
X1346957Y113539D02*
D03*
Y119051D02*
D03*
X1175303Y113539D02*
D03*
Y119051D02*
D03*
X1196957Y113539D02*
D03*
Y119051D02*
D03*
X1346957Y194051D02*
D03*
Y188539D02*
D03*
X1325303Y194051D02*
D03*
Y188539D02*
D03*
X1271957Y194051D02*
D03*
Y188539D02*
D03*
X1250303Y194051D02*
D03*
Y188539D02*
D03*
X1196957Y194051D02*
D03*
Y188539D02*
D03*
X1175303Y194051D02*
D03*
Y188539D02*
D03*
X278200Y194051D02*
D03*
Y188539D02*
D03*
X256547Y194051D02*
D03*
Y188539D02*
D03*
X925075Y44050D02*
D03*
Y38539D02*
D03*
X903421Y44050D02*
D03*
Y38539D02*
D03*
X1034674Y113539D02*
D03*
Y119051D02*
D03*
X1056327Y113539D02*
D03*
Y119051D02*
D03*
X1346957Y44050D02*
D03*
Y38539D02*
D03*
X1325303Y44050D02*
D03*
Y38539D02*
D03*
X1112575Y44050D02*
D03*
Y38539D02*
D03*
X1090921Y44050D02*
D03*
Y38539D02*
D03*
X831327Y44050D02*
D03*
Y38539D02*
D03*
X809674Y44050D02*
D03*
Y38539D02*
D03*
X387803Y263539D02*
D03*
Y269051D02*
D03*
X409457Y263539D02*
D03*
Y269051D02*
D03*
X162802Y263539D02*
D03*
Y269051D02*
D03*
X184456Y263539D02*
D03*
Y269051D02*
D03*
X1346957Y344056D02*
D03*
Y338544D02*
D03*
X1325303Y344056D02*
D03*
Y338544D02*
D03*
Y263539D02*
D03*
Y269051D02*
D03*
X1346957Y263539D02*
D03*
Y269051D02*
D03*
X837803Y263539D02*
D03*
Y269051D02*
D03*
X859457Y263539D02*
D03*
Y269051D02*
D03*
X762803Y263539D02*
D03*
Y269051D02*
D03*
X784457Y263539D02*
D03*
Y269051D02*
D03*
X593969Y113503D02*
D03*
Y119015D02*
D03*
X615623Y113503D02*
D03*
Y119015D02*
D03*
X1018827Y44050D02*
D03*
Y38539D02*
D03*
X997174Y44050D02*
D03*
Y38539D02*
D03*
X669047Y113539D02*
D03*
Y119051D02*
D03*
X690701Y113539D02*
D03*
Y119051D02*
D03*
X175075Y44050D02*
D03*
Y38539D02*
D03*
X153422Y44050D02*
D03*
Y38539D02*
D03*
X97171Y113539D02*
D03*
Y119051D02*
D03*
X118825Y113539D02*
D03*
Y119051D02*
D03*
X1196957Y44050D02*
D03*
Y38539D02*
D03*
X1175303Y44050D02*
D03*
Y38539D02*
D03*
X81325Y44050D02*
D03*
Y38539D02*
D03*
X59671Y44050D02*
D03*
Y38539D02*
D03*
X268825Y44050D02*
D03*
Y38539D02*
D03*
X247172Y44050D02*
D03*
Y38539D02*
D03*
X803201Y194051D02*
D03*
Y188539D02*
D03*
X781547Y194051D02*
D03*
Y188539D02*
D03*
X728201Y194051D02*
D03*
Y188539D02*
D03*
X706547Y194051D02*
D03*
Y188539D02*
D03*
X653201Y194051D02*
D03*
Y188539D02*
D03*
X631547Y194051D02*
D03*
Y188539D02*
D03*
X1196957Y344056D02*
D03*
Y338544D02*
D03*
X1175303Y344056D02*
D03*
Y338544D02*
D03*
X687803Y263539D02*
D03*
Y269051D02*
D03*
X709457Y263539D02*
D03*
Y269051D02*
D03*
X1271957Y344056D02*
D03*
Y338544D02*
D03*
X1250303Y344056D02*
D03*
Y338544D02*
D03*
X578201Y194051D02*
D03*
Y188539D02*
D03*
X556547Y194051D02*
D03*
Y188539D02*
D03*
X503201Y194051D02*
D03*
Y188539D02*
D03*
X481547Y194051D02*
D03*
Y188539D02*
D03*
X428201Y194051D02*
D03*
Y188539D02*
D03*
X406547Y194051D02*
D03*
Y188539D02*
D03*
X71955Y344056D02*
D03*
Y338544D02*
D03*
X50302Y344056D02*
D03*
Y338544D02*
D03*
X1075075Y194051D02*
D03*
Y188539D02*
D03*
X1053421Y194051D02*
D03*
Y188539D02*
D03*
X1250303Y263539D02*
D03*
Y269051D02*
D03*
X1271957Y263539D02*
D03*
Y269051D02*
D03*
X312802Y263539D02*
D03*
Y269051D02*
D03*
X334456Y263539D02*
D03*
Y269051D02*
D03*
X1271957Y44050D02*
D03*
Y38539D02*
D03*
X1250303Y44050D02*
D03*
Y38539D02*
D03*
X1175303Y263539D02*
D03*
Y269051D02*
D03*
X1196957Y263539D02*
D03*
Y269051D02*
D03*
X353200Y194051D02*
D03*
Y188539D02*
D03*
X331547Y194051D02*
D03*
Y188539D02*
D03*
X100075Y194051D02*
D03*
Y188539D02*
D03*
X78421Y194051D02*
D03*
Y188539D02*
D03*
X369047Y113539D02*
D03*
Y119051D02*
D03*
X390701Y113539D02*
D03*
Y119051D02*
D03*
X1084457Y344056D02*
D03*
Y338544D02*
D03*
X1062803Y344056D02*
D03*
Y338544D02*
D03*
X518952Y113503D02*
D03*
Y119015D02*
D03*
X540606Y113503D02*
D03*
Y119015D02*
D03*
X203200Y194051D02*
D03*
Y188539D02*
D03*
X181547Y194051D02*
D03*
Y188539D02*
D03*
X987803Y263539D02*
D03*
Y269051D02*
D03*
X1009457Y263539D02*
D03*
Y269051D02*
D03*
X1081548Y263539D02*
D03*
Y269051D02*
D03*
X1103201Y263539D02*
D03*
Y269051D02*
D03*
X912803Y263539D02*
D03*
Y269051D02*
D03*
X934457Y263539D02*
D03*
Y269051D02*
D03*
X971957Y344056D02*
D03*
Y338544D02*
D03*
X950303Y344056D02*
D03*
Y338544D02*
D03*
X878201Y194051D02*
D03*
Y188539D02*
D03*
X856548Y194051D02*
D03*
Y188539D02*
D03*
X894048Y113539D02*
D03*
Y119051D02*
D03*
X915701Y113539D02*
D03*
Y119051D02*
D03*
X819048Y113539D02*
D03*
Y119051D02*
D03*
X840701Y113539D02*
D03*
Y119051D02*
D03*
X896957Y344056D02*
D03*
Y338544D02*
D03*
X875303Y344056D02*
D03*
Y338544D02*
D03*
X744047Y113539D02*
D03*
Y119051D02*
D03*
X765701Y113539D02*
D03*
Y119051D02*
D03*
X953201Y194051D02*
D03*
Y188539D02*
D03*
X931548Y194051D02*
D03*
Y188539D02*
D03*
X746957Y344056D02*
D03*
Y338544D02*
D03*
X725303Y344056D02*
D03*
Y338544D02*
D03*
X671949Y344056D02*
D03*
Y338544D02*
D03*
X650295Y344056D02*
D03*
Y338544D02*
D03*
X596949Y344056D02*
D03*
Y338544D02*
D03*
X575295Y344056D02*
D03*
Y338544D02*
D03*
X521957Y344056D02*
D03*
Y338544D02*
D03*
X500303Y344056D02*
D03*
Y338544D02*
D03*
X446949Y344056D02*
D03*
Y338544D02*
D03*
X425295Y344056D02*
D03*
Y338544D02*
D03*
X371941Y344056D02*
D03*
Y338544D02*
D03*
X350288Y344056D02*
D03*
Y338544D02*
D03*
X296948Y344056D02*
D03*
Y338544D02*
D03*
X275294Y344056D02*
D03*
Y338544D02*
D03*
X221948Y344056D02*
D03*
Y338544D02*
D03*
X200294Y344056D02*
D03*
Y338544D02*
D03*
X146948Y344056D02*
D03*
Y338544D02*
D03*
X125294Y344056D02*
D03*
Y338544D02*
D03*
X821957Y344056D02*
D03*
Y338544D02*
D03*
X800303Y344056D02*
D03*
Y338544D02*
D03*
D26*
X736123Y88626D02*
D03*
X342373D02*
D03*
X998500Y163626D02*
D03*
X1092500D02*
D03*
X60998D02*
D03*
X154998D02*
D03*
X1017248Y238626D02*
D03*
X1111248D02*
D03*
X1026630Y388632D02*
D03*
X1120630D02*
D03*
D27*
X736123Y28626D02*
D03*
X342373D02*
D03*
X998500Y103626D02*
D03*
X1092500D02*
D03*
X60998D02*
D03*
X154998D02*
D03*
X1017248Y178626D02*
D03*
X1111248D02*
D03*
X1026630Y328631D02*
D03*
X1120630D02*
D03*
D28*
X689600Y54100D02*
D03*
X664800Y16000D02*
D03*
D29*
X689600Y59100D02*
D03*
X664800Y11000D02*
D03*
D33*
X637669Y5054D02*
D03*
Y11746D02*
D03*
X646331D02*
D03*
Y5054D02*
D03*
D34*
X631000Y11532D02*
D03*
Y8068D02*
D03*
X652600Y5000D02*
D03*
Y8465D02*
D03*
D35*
X675400Y53535D02*
D03*
Y50465D02*
D03*
X1385200Y340204D02*
D03*
Y343196D02*
D03*
X1385200Y267791D02*
D03*
Y264798D02*
D03*
X1385228Y193219D02*
D03*
Y190226D02*
D03*
Y118219D02*
D03*
Y115226D02*
D03*
Y43219D02*
D03*
Y40227D02*
D03*
X758029Y11944D02*
D03*
Y8952D02*
D03*
X12224Y78886D02*
D03*
Y81878D02*
D03*
X12428Y155571D02*
D03*
Y158563D02*
D03*
Y230471D02*
D03*
Y233463D02*
D03*
Y305771D02*
D03*
Y308763D02*
D03*
X12162Y380650D02*
D03*
Y383642D02*
D03*
X624269Y81504D02*
D03*
Y84496D02*
D03*
X671300Y46904D02*
D03*
Y49896D02*
D03*
Y65696D02*
D03*
Y62704D02*
D03*
X656000Y84496D02*
D03*
Y81504D02*
D03*
X649400Y81504D02*
D03*
Y84496D02*
D03*
X675415Y59419D02*
D03*
Y62490D02*
D03*
X658000Y10504D02*
D03*
Y13496D02*
D03*
X61500Y272196D02*
D03*
Y269204D02*
D03*
X586423Y122161D02*
D03*
Y119169D02*
D03*
X511406Y122161D02*
D03*
Y119169D02*
D03*
X530257Y272196D02*
D03*
Y269204D02*
D03*
X980257Y272196D02*
D03*
Y269204D02*
D03*
X1074001Y272196D02*
D03*
Y269204D02*
D03*
X905257Y272196D02*
D03*
Y269204D02*
D03*
X211500Y122196D02*
D03*
Y119204D02*
D03*
X286500Y122196D02*
D03*
Y119204D02*
D03*
X230256Y272196D02*
D03*
Y269204D02*
D03*
X436501Y122196D02*
D03*
Y119204D02*
D03*
X1242757Y122196D02*
D03*
Y119204D02*
D03*
X605257Y272196D02*
D03*
Y269204D02*
D03*
X455257Y272196D02*
D03*
Y269204D02*
D03*
X1317757Y122196D02*
D03*
Y119204D02*
D03*
X1167757Y122196D02*
D03*
Y119204D02*
D03*
X1027127Y122196D02*
D03*
Y119204D02*
D03*
X380257Y272196D02*
D03*
Y269204D02*
D03*
X155256Y272196D02*
D03*
Y269204D02*
D03*
X1317757Y272196D02*
D03*
Y269204D02*
D03*
X830257Y272196D02*
D03*
Y269204D02*
D03*
X755257Y272196D02*
D03*
Y269204D02*
D03*
X661501Y122196D02*
D03*
Y119204D02*
D03*
X89625Y122196D02*
D03*
Y119204D02*
D03*
X680257Y272196D02*
D03*
Y269204D02*
D03*
X1242757Y272196D02*
D03*
Y269204D02*
D03*
X305256Y272196D02*
D03*
Y269204D02*
D03*
X1167757Y272196D02*
D03*
Y269204D02*
D03*
X361501Y122196D02*
D03*
Y119204D02*
D03*
X886501Y122196D02*
D03*
Y119204D02*
D03*
X811501Y122196D02*
D03*
Y119204D02*
D03*
X736501Y122196D02*
D03*
Y119204D02*
D03*
D36*
X251745Y161648D02*
D03*
Y153341D02*
D03*
X457994Y386653D02*
D03*
Y378346D02*
D03*
X626668Y153306D02*
D03*
Y161613D02*
D03*
X551650Y153306D02*
D03*
Y161613D02*
D03*
X570502Y303341D02*
D03*
Y311648D02*
D03*
X589246Y228341D02*
D03*
Y236648D02*
D03*
X1020502Y303341D02*
D03*
Y311648D02*
D03*
X1114246Y303341D02*
D03*
Y311648D02*
D03*
X945502Y303341D02*
D03*
Y311648D02*
D03*
X326745Y153341D02*
D03*
Y161648D02*
D03*
X270500Y303341D02*
D03*
Y311648D02*
D03*
X476746Y153341D02*
D03*
Y161648D02*
D03*
X1283002Y153341D02*
D03*
Y161648D02*
D03*
X645502Y303341D02*
D03*
Y311648D02*
D03*
X101744Y303341D02*
D03*
Y311648D02*
D03*
X495502Y303341D02*
D03*
Y311648D02*
D03*
X561120Y78341D02*
D03*
Y86648D02*
D03*
X1358002Y153341D02*
D03*
Y161648D02*
D03*
X1208002Y153341D02*
D03*
Y161648D02*
D03*
X1358002Y228341D02*
D03*
Y236648D02*
D03*
X1283002Y228341D02*
D03*
Y236648D02*
D03*
X1208002Y228341D02*
D03*
Y236648D02*
D03*
X289245Y228341D02*
D03*
Y236648D02*
D03*
X936120Y78341D02*
D03*
Y86648D02*
D03*
X1067372Y153341D02*
D03*
Y161648D02*
D03*
X1358002Y78341D02*
D03*
Y86648D02*
D03*
X1123620Y78341D02*
D03*
Y86648D02*
D03*
X842372Y78341D02*
D03*
Y86648D02*
D03*
X420502Y303341D02*
D03*
Y311648D02*
D03*
X195500Y303341D02*
D03*
Y311648D02*
D03*
X1358002Y378346D02*
D03*
Y386653D02*
D03*
Y303341D02*
D03*
Y311648D02*
D03*
X870502Y303341D02*
D03*
Y311648D02*
D03*
X795502Y303341D02*
D03*
Y311648D02*
D03*
X1029872Y78341D02*
D03*
Y86648D02*
D03*
X701746Y153341D02*
D03*
Y161648D02*
D03*
X186120Y78341D02*
D03*
Y86648D02*
D03*
X129869Y153341D02*
D03*
Y161648D02*
D03*
X1208002Y78341D02*
D03*
Y86648D02*
D03*
X92369Y78341D02*
D03*
Y86648D02*
D03*
X279870Y78341D02*
D03*
Y86648D02*
D03*
X814246Y228341D02*
D03*
Y236648D02*
D03*
X739246Y228341D02*
D03*
Y236648D02*
D03*
X664246Y228341D02*
D03*
Y236648D02*
D03*
X1208002Y378346D02*
D03*
Y386653D02*
D03*
X720502Y303341D02*
D03*
Y311648D02*
D03*
X1283002Y378346D02*
D03*
Y386653D02*
D03*
X514246Y228341D02*
D03*
Y236648D02*
D03*
X439246Y228341D02*
D03*
Y236648D02*
D03*
X83000Y378346D02*
D03*
Y386653D02*
D03*
X1086120Y228341D02*
D03*
Y236648D02*
D03*
X1283002Y303341D02*
D03*
Y311648D02*
D03*
X345500Y303341D02*
D03*
Y311648D02*
D03*
X1283002Y78341D02*
D03*
Y86648D02*
D03*
X1208002Y303341D02*
D03*
Y311648D02*
D03*
X364245Y228341D02*
D03*
Y236648D02*
D03*
X111119Y228341D02*
D03*
Y236648D02*
D03*
X401746Y153341D02*
D03*
Y161648D02*
D03*
X1095502Y378346D02*
D03*
Y386653D02*
D03*
X214245Y228341D02*
D03*
Y236648D02*
D03*
X983002Y378346D02*
D03*
Y386653D02*
D03*
X889246Y228341D02*
D03*
Y236648D02*
D03*
X758002Y378346D02*
D03*
Y386653D02*
D03*
X682994Y378346D02*
D03*
Y386653D02*
D03*
X607994Y378346D02*
D03*
Y386653D02*
D03*
X533002Y378346D02*
D03*
Y386653D02*
D03*
X382986Y378346D02*
D03*
Y386653D02*
D03*
X307993Y378346D02*
D03*
Y386653D02*
D03*
X232993Y378346D02*
D03*
Y386653D02*
D03*
X157992Y378346D02*
D03*
Y386653D02*
D03*
X833002Y378346D02*
D03*
Y386653D02*
D03*
X926746Y153341D02*
D03*
Y161648D02*
D03*
X851746Y153341D02*
D03*
Y161648D02*
D03*
X908002Y378346D02*
D03*
Y386653D02*
D03*
X776746Y153341D02*
D03*
Y161648D02*
D03*
X964246Y228341D02*
D03*
Y236648D02*
D03*
D37*
X679925Y53600D02*
D03*
X683075D02*
D03*
Y59400D02*
D03*
X679925D02*
D03*
D38*
X654328Y18000D02*
D03*
X657872D02*
D03*
D39*
X655748Y72441D02*
D03*
X652598D02*
D03*
X649449D02*
D03*
X646299D02*
D03*
X643150D02*
D03*
X640000D02*
D03*
X636850D02*
D03*
X633701D02*
D03*
X630551D02*
D03*
X627402D02*
D03*
X624252D02*
D03*
Y27559D02*
D03*
X627402D02*
D03*
X630551D02*
D03*
X633701D02*
D03*
X636850D02*
D03*
X640000D02*
D03*
X643150D02*
D03*
X646299D02*
D03*
X649449D02*
D03*
X652598D02*
D03*
X655748D02*
D03*
D40*
X617559Y65748D02*
D03*
Y62598D02*
D03*
Y59449D02*
D03*
Y56299D02*
D03*
Y53150D02*
D03*
Y50000D02*
D03*
Y46850D02*
D03*
Y43701D02*
D03*
Y40551D02*
D03*
Y37402D02*
D03*
Y34252D02*
D03*
X662441D02*
D03*
Y37402D02*
D03*
Y40551D02*
D03*
Y43701D02*
D03*
Y46850D02*
D03*
Y50000D02*
D03*
Y53150D02*
D03*
Y56299D02*
D03*
Y59449D02*
D03*
Y62598D02*
D03*
Y65748D02*
D03*
D41*
X1357163Y410272D02*
D03*
X1354171D02*
D03*
X1315857Y11928D02*
D03*
X1312865D02*
D03*
X1233133Y11972D02*
D03*
X1236125D02*
D03*
X1156438D02*
D03*
X1153446D02*
D03*
X1076383D02*
D03*
X1073391D02*
D03*
X997063D02*
D03*
X994071D02*
D03*
X917375D02*
D03*
X914383D02*
D03*
X837688D02*
D03*
X834696D02*
D03*
X678313D02*
D03*
X675321D02*
D03*
X585813D02*
D03*
X582821D02*
D03*
X507956D02*
D03*
X504964D02*
D03*
X430099D02*
D03*
X427107D02*
D03*
X352241D02*
D03*
X349249D02*
D03*
X274384D02*
D03*
X271392D02*
D03*
X196527D02*
D03*
X193535D02*
D03*
X118670D02*
D03*
X115678D02*
D03*
X40729Y11928D02*
D03*
X37737D02*
D03*
X78971Y410272D02*
D03*
X81963D02*
D03*
X158871D02*
D03*
X161863D02*
D03*
X238771Y410372D02*
D03*
X241763D02*
D03*
X318171Y410172D02*
D03*
X321163D02*
D03*
X398171Y410372D02*
D03*
X401163D02*
D03*
X477671Y409972D02*
D03*
X480663D02*
D03*
X557271Y410272D02*
D03*
X560263D02*
D03*
X636971D02*
D03*
X639963D02*
D03*
X716919Y410305D02*
D03*
X719911D02*
D03*
X796471Y410172D02*
D03*
X799463D02*
D03*
X876250Y410146D02*
D03*
X879243D02*
D03*
X955803Y410138D02*
D03*
X958795D02*
D03*
X1035349Y410166D02*
D03*
X1038341D02*
D03*
X1114971Y410262D02*
D03*
X1117963D02*
D03*
X1194812Y410228D02*
D03*
X1197804D02*
D03*
X1274500D02*
D03*
X1277492D02*
D03*
X454498Y338500D02*
D03*
X457490D02*
D03*
X646404Y18200D02*
D03*
X649396D02*
D03*
X605004Y37400D02*
D03*
X607996D02*
D03*
X588742Y188495D02*
D03*
X585750D02*
D03*
X560616Y38495D02*
D03*
X557624D02*
D03*
X1357498Y188495D02*
D03*
X1354506D02*
D03*
X1282498D02*
D03*
X1279506D02*
D03*
X1207498D02*
D03*
X1204506D02*
D03*
X288741D02*
D03*
X285749D02*
D03*
X935616Y38495D02*
D03*
X932624D02*
D03*
X1357498D02*
D03*
X1354506D02*
D03*
X1123116D02*
D03*
X1120124D02*
D03*
X841868D02*
D03*
X838876D02*
D03*
X1357498Y338500D02*
D03*
X1354506D02*
D03*
X1029368Y38495D02*
D03*
X1026376D02*
D03*
X185616D02*
D03*
X182624D02*
D03*
X1207498D02*
D03*
X1204506D02*
D03*
X91865D02*
D03*
X88873D02*
D03*
X279366D02*
D03*
X276374D02*
D03*
X813742Y188495D02*
D03*
X810750D02*
D03*
X738742D02*
D03*
X735750D02*
D03*
X663742D02*
D03*
X660750D02*
D03*
X1207498Y338500D02*
D03*
X1204506D02*
D03*
X1282498D02*
D03*
X1279506D02*
D03*
X513742Y188495D02*
D03*
X510750D02*
D03*
X438742D02*
D03*
X435750D02*
D03*
X82496Y338500D02*
D03*
X79504D02*
D03*
X1085616Y188495D02*
D03*
X1082624D02*
D03*
X1282498Y38495D02*
D03*
X1279506D02*
D03*
X363741Y188495D02*
D03*
X360749D02*
D03*
X110615D02*
D03*
X107623D02*
D03*
X1094998Y338500D02*
D03*
X1092006D02*
D03*
X213741Y188495D02*
D03*
X210749D02*
D03*
X982498Y338500D02*
D03*
X979506D02*
D03*
X888742Y188495D02*
D03*
X885750D02*
D03*
X757498Y338500D02*
D03*
X754505D02*
D03*
X682490D02*
D03*
X679498D02*
D03*
X607490D02*
D03*
X604498D02*
D03*
X532498D02*
D03*
X529505D02*
D03*
X382482D02*
D03*
X379490D02*
D03*
X307489D02*
D03*
X304497D02*
D03*
X232489D02*
D03*
X229497D02*
D03*
X157489D02*
D03*
X154497D02*
D03*
X832498D02*
D03*
X829506D02*
D03*
X907498D02*
D03*
X904506D02*
D03*
X963742Y188495D02*
D03*
X960750D02*
D03*
D43*
X214873Y146126D02*
D03*
X239873Y156126D02*
D03*
X421122Y371131D02*
D03*
X446122Y381132D02*
D03*
X1321130Y221126D02*
D03*
X1346130Y231126D02*
D03*
X614796Y156091D02*
D03*
X589796Y146091D02*
D03*
X539779Y156091D02*
D03*
X514779Y146091D02*
D03*
X558630Y306126D02*
D03*
X533630Y296126D02*
D03*
X577374Y231126D02*
D03*
X552374Y221126D02*
D03*
X1008630Y306126D02*
D03*
X983630Y296126D02*
D03*
X1102374Y306126D02*
D03*
X1077374Y296126D02*
D03*
X933630Y306126D02*
D03*
X908630Y296126D02*
D03*
X314873Y156126D02*
D03*
X289873Y146126D02*
D03*
X258629Y306126D02*
D03*
X233629Y296126D02*
D03*
X464874Y156126D02*
D03*
X439874Y146126D02*
D03*
X1271130Y156126D02*
D03*
X1246130Y146126D02*
D03*
X633630Y306126D02*
D03*
X608630Y296126D02*
D03*
X89873Y306126D02*
D03*
X64873Y296126D02*
D03*
X483630Y306126D02*
D03*
X458630Y296126D02*
D03*
X549248Y81126D02*
D03*
X524248Y71126D02*
D03*
X1346130Y156126D02*
D03*
X1321130Y146126D02*
D03*
X1196130Y156126D02*
D03*
X1171130Y146126D02*
D03*
X1271130Y231126D02*
D03*
X1246130Y221126D02*
D03*
X1196130Y231126D02*
D03*
X1171130Y221126D02*
D03*
X277373Y231126D02*
D03*
X252373Y221126D02*
D03*
X924248Y81126D02*
D03*
X899248Y71126D02*
D03*
X1055500Y156126D02*
D03*
X1030500Y146126D02*
D03*
X1346130Y81126D02*
D03*
X1321130Y71126D02*
D03*
X1111748Y81126D02*
D03*
X1086748Y71126D02*
D03*
X830500Y81126D02*
D03*
X805500Y71126D02*
D03*
X408630Y306126D02*
D03*
X383630Y296126D02*
D03*
X183629Y306126D02*
D03*
X158629Y296126D02*
D03*
X1346130Y381132D02*
D03*
X1321130Y371131D02*
D03*
X1346130Y306126D02*
D03*
X1321130Y296126D02*
D03*
X858630Y306126D02*
D03*
X833630Y296126D02*
D03*
X783630Y306126D02*
D03*
X758630Y296126D02*
D03*
X1018000Y81126D02*
D03*
X993000Y71126D02*
D03*
X689874Y156126D02*
D03*
X664874Y146126D02*
D03*
X174249Y81126D02*
D03*
X149249Y71126D02*
D03*
X117998Y156126D02*
D03*
X92998Y146126D02*
D03*
X1196130Y81126D02*
D03*
X1171130Y71126D02*
D03*
X80498Y81126D02*
D03*
X55498Y71126D02*
D03*
X267999Y81126D02*
D03*
X242999Y71126D02*
D03*
X802374Y231126D02*
D03*
X777374Y221126D02*
D03*
X727374Y231126D02*
D03*
X702374Y221126D02*
D03*
X652374Y231126D02*
D03*
X627374Y221126D02*
D03*
X1196130Y381132D02*
D03*
X1171130Y371131D02*
D03*
X708630Y306126D02*
D03*
X683630Y296126D02*
D03*
X1271130Y381132D02*
D03*
X1246130Y371131D02*
D03*
X502374Y231126D02*
D03*
X477374Y221126D02*
D03*
X427374Y231126D02*
D03*
X402374Y221126D02*
D03*
X71128Y381132D02*
D03*
X46128Y371131D02*
D03*
X1074248Y231126D02*
D03*
X1049248Y221126D02*
D03*
X1271130Y306126D02*
D03*
X1246130Y296126D02*
D03*
X333629Y306126D02*
D03*
X308629Y296126D02*
D03*
X1271130Y81126D02*
D03*
X1246130Y71126D02*
D03*
X1196130Y306126D02*
D03*
X1171130Y296126D02*
D03*
X352373Y231126D02*
D03*
X327373Y221126D02*
D03*
X99248Y231126D02*
D03*
X74248Y221126D02*
D03*
X389874Y156126D02*
D03*
X364874Y146126D02*
D03*
X1083630Y381132D02*
D03*
X1058630Y371131D02*
D03*
X202373Y231126D02*
D03*
X177373Y221126D02*
D03*
X971130Y381132D02*
D03*
X946130Y371131D02*
D03*
X877374Y231126D02*
D03*
X852374Y221126D02*
D03*
X746130Y381132D02*
D03*
X721130Y371131D02*
D03*
X671122Y381132D02*
D03*
X646122Y371131D02*
D03*
X596122Y381132D02*
D03*
X571122Y371131D02*
D03*
X521130Y381132D02*
D03*
X496130Y371131D02*
D03*
X371114Y381132D02*
D03*
X346114Y371131D02*
D03*
X296121Y381132D02*
D03*
X271121Y371131D02*
D03*
X221121Y381132D02*
D03*
X196121Y371131D02*
D03*
X146121Y381132D02*
D03*
X121121Y371131D02*
D03*
X821130Y381132D02*
D03*
X796130Y371131D02*
D03*
X914874Y156126D02*
D03*
X889874Y146126D02*
D03*
X839874Y156126D02*
D03*
X814874Y146126D02*
D03*
X896130Y381132D02*
D03*
X871130Y371131D02*
D03*
X764874Y156126D02*
D03*
X739874Y146126D02*
D03*
X952374Y231126D02*
D03*
X927374Y221126D02*
D03*
M02*
