G04*
G04 #@! TF.GenerationSoftware,Altium Limited,Altium Designer,20.1.14 (287)*
G04*
G04 Layer_Color=8388736*
%FSLAX25Y25*%
%MOIN*%
G70*
G04*
G04 #@! TF.SameCoordinates,5E7EC535-6302-435E-A40C-08F812187638*
G04*
G04*
G04 #@! TF.FilePolarity,Negative*
G04*
G01*
G75*
%ADD11C,0.00800*%
%ADD12C,0.12800*%
%ADD13C,0.16500*%
%ADD14C,0.07800*%
%ADD15C,0.04737*%
%ADD16R,0.04737X0.04737*%
%ADD17R,0.04737X0.04737*%
%ADD18C,0.04800*%
%ADD19C,0.03200*%
%ADD20C,0.03800*%
D11*
X121131Y371129D02*
D03*
X146131Y381129D02*
D03*
X221131D02*
D03*
X196131Y371129D02*
D03*
X271131D02*
D03*
X296131Y381129D02*
D03*
X371131D02*
D03*
X346131Y371129D02*
D03*
X421125D02*
D03*
X446125Y381129D02*
D03*
X521129Y381132D02*
D03*
X496129Y371132D02*
D03*
X646133Y371129D02*
D03*
X671133Y381129D02*
D03*
X746133D02*
D03*
X721133Y371129D02*
D03*
X796133D02*
D03*
X821133Y381129D02*
D03*
X896133D02*
D03*
X871133Y371129D02*
D03*
X946133D02*
D03*
X971133Y381129D02*
D03*
X1083633D02*
D03*
X1058633Y371129D02*
D03*
X1171133D02*
D03*
X1196133Y381129D02*
D03*
X1271130Y381131D02*
D03*
X1246130Y371131D02*
D03*
X1321133Y371129D02*
D03*
X1346133Y381129D02*
D03*
X99253Y231125D02*
D03*
X74253Y221125D02*
D03*
X177379Y221126D02*
D03*
X202379Y231126D02*
D03*
X277379D02*
D03*
X252379Y221126D02*
D03*
X327379D02*
D03*
X352379Y231126D02*
D03*
X427379Y231126D02*
D03*
X402379Y221126D02*
D03*
X477379Y221127D02*
D03*
X502379Y231126D02*
D03*
X577379D02*
D03*
X552379Y221127D02*
D03*
X627379D02*
D03*
X652379Y231126D02*
D03*
X727379D02*
D03*
X702379Y221127D02*
D03*
X777379D02*
D03*
X802379Y231126D02*
D03*
X877379D02*
D03*
X852379Y221127D02*
D03*
X927379D02*
D03*
X952379Y231126D02*
D03*
X1074253D02*
D03*
X1049253Y221127D02*
D03*
X1086753Y71127D02*
D03*
X1111753Y81127D02*
D03*
X1196133Y231129D02*
D03*
X1171133Y221129D02*
D03*
X1246133D02*
D03*
X1271133Y231129D02*
D03*
X1346133Y231129D02*
D03*
X1321133Y221129D02*
D03*
X55503Y71126D02*
D03*
X80503Y81126D02*
D03*
X174254Y81126D02*
D03*
X149254Y71126D02*
D03*
X243004Y71126D02*
D03*
X268004Y81126D02*
D03*
X549253Y81127D02*
D03*
X524253Y71127D02*
D03*
X805505D02*
D03*
X830505Y81127D02*
D03*
X924253D02*
D03*
X899253Y71127D02*
D03*
X993005D02*
D03*
X1018005Y81127D02*
D03*
X1196133Y81129D02*
D03*
X1171133Y71129D02*
D03*
X1321133Y71129D02*
D03*
X1346133Y81129D02*
D03*
X71128Y381131D02*
D03*
X46128Y371131D02*
D03*
X1246133Y71129D02*
D03*
X1271133Y81129D02*
D03*
X596133Y381129D02*
D03*
X571133Y371129D02*
D03*
X158631Y296129D02*
D03*
X183631Y306129D02*
D03*
X233631Y296129D02*
D03*
X258631Y306129D02*
D03*
X308631Y296129D02*
D03*
X333631Y306129D02*
D03*
X383632Y296129D02*
D03*
X408632Y306129D02*
D03*
X458633Y296129D02*
D03*
X483633Y306129D02*
D03*
X608633Y296129D02*
D03*
X633633Y306129D02*
D03*
X683633Y296129D02*
D03*
X708633Y306129D02*
D03*
X758633Y296129D02*
D03*
X783633Y306129D02*
D03*
X833633Y296129D02*
D03*
X858633Y306129D02*
D03*
X908633Y296129D02*
D03*
X933633Y306129D02*
D03*
X983633Y296129D02*
D03*
X1008633Y306129D02*
D03*
X1077379Y296127D02*
D03*
X1102379Y306126D02*
D03*
X1171133Y296129D02*
D03*
X1196133Y306129D02*
D03*
X1246133Y296129D02*
D03*
X1271133Y306129D02*
D03*
X1321133Y296129D02*
D03*
X1346133Y306129D02*
D03*
X93003Y146126D02*
D03*
X118003Y156126D02*
D03*
X214879Y146126D02*
D03*
X239879Y156126D02*
D03*
X289879Y146126D02*
D03*
X314879Y156126D02*
D03*
X364879Y146126D02*
D03*
X389879Y156126D02*
D03*
X439879Y146127D02*
D03*
X464879Y156127D02*
D03*
X514879Y146127D02*
D03*
X539879Y156127D02*
D03*
X589879Y146127D02*
D03*
X614879Y156127D02*
D03*
X664879Y146127D02*
D03*
X689879Y156127D02*
D03*
X739879Y146127D02*
D03*
X764879Y156127D02*
D03*
X814879Y146127D02*
D03*
X839879Y156127D02*
D03*
X889879Y146127D02*
D03*
X914879Y156127D02*
D03*
X1030505Y146127D02*
D03*
X1055505Y156127D02*
D03*
X1171133Y146129D02*
D03*
X1196133Y156129D02*
D03*
X1246133Y146129D02*
D03*
X1271133Y156129D02*
D03*
X1321133Y146129D02*
D03*
X1346133Y156129D02*
D03*
X64878Y296126D02*
D03*
X89878Y306126D02*
D03*
X533633Y296129D02*
D03*
X558633Y306129D02*
D03*
D12*
X342378Y88627D02*
D03*
X736128D02*
D03*
X61003Y163626D02*
D03*
X155003D02*
D03*
X998505Y163627D02*
D03*
X1092505D02*
D03*
X1017253Y238627D02*
D03*
X1111253D02*
D03*
X1026633Y388629D02*
D03*
X1120633D02*
D03*
D13*
X342378Y28627D02*
D03*
X736128D02*
D03*
X61003Y103626D02*
D03*
X155003D02*
D03*
X998505Y103627D02*
D03*
X1092505D02*
D03*
X1017253Y178627D02*
D03*
X1111253D02*
D03*
X1026633Y328628D02*
D03*
X1120633D02*
D03*
D14*
X618110Y101181D02*
D03*
X602756Y85433D02*
D03*
D15*
X692126Y56968D02*
D03*
X666535Y20079D02*
D03*
D16*
X692126Y51968D02*
D03*
D17*
X661535Y20079D02*
D03*
D18*
X575453Y34455D02*
D03*
X664373Y83003D02*
D03*
X1291778Y34304D02*
D03*
X1216866Y35398D02*
D03*
X1132420Y38118D02*
D03*
X1045024Y36656D02*
D03*
X953242Y35771D02*
D03*
X858304Y36271D02*
D03*
X296000Y36456D02*
D03*
X91568Y334944D02*
D03*
X173183Y333723D02*
D03*
X248835Y333626D02*
D03*
X323315Y333723D02*
D03*
X398185Y333675D02*
D03*
X473056Y333919D02*
D03*
X548073Y333870D02*
D03*
X623237Y333675D02*
D03*
X698156Y333968D02*
D03*
X773026Y333968D02*
D03*
X848385Y333821D02*
D03*
X922767Y334261D02*
D03*
X999787Y341147D02*
D03*
X1054242Y351599D02*
D03*
X1098197Y345884D02*
D03*
X1222493Y333333D02*
D03*
X1298584Y334114D02*
D03*
X1297591Y184163D02*
D03*
X1222987Y183604D02*
D03*
X1088943Y196564D02*
D03*
X984403Y188980D02*
D03*
X905340Y183356D02*
D03*
X830038Y183499D02*
D03*
X754915Y183284D02*
D03*
X680115Y183212D02*
D03*
X604885Y183248D02*
D03*
X519898Y188404D02*
D03*
X454635Y183041D02*
D03*
X379523Y182861D02*
D03*
X303448Y183642D02*
D03*
X228877Y183642D02*
D03*
X128762Y186026D02*
D03*
X106325Y36655D02*
D03*
X202031Y36568D02*
D03*
X1384027Y350892D02*
D03*
X1345236Y409027D02*
D03*
X1265549Y409058D02*
D03*
X1185861Y409027D02*
D03*
X1106174Y409058D02*
D03*
X1051968Y325197D02*
D03*
X1384027Y275892D02*
D03*
X1325984Y269291D02*
D03*
X1250787D02*
D03*
X1384058Y200892D02*
D03*
X1175984Y269291D02*
D03*
X1082283D02*
D03*
X1026486Y409058D02*
D03*
X946502D02*
D03*
X867111Y409027D02*
D03*
X787127Y409058D02*
D03*
X707736Y409027D02*
D03*
X988189Y269291D02*
D03*
X913386D02*
D03*
X1007087Y193307D02*
D03*
X838189Y269291D02*
D03*
X763386D02*
D03*
X688189D02*
D03*
X1384027Y125893D02*
D03*
X1325984Y119291D02*
D03*
X1250787D02*
D03*
X1384058Y50893D02*
D03*
X1139764Y177165D02*
D03*
X1175591Y119291D02*
D03*
X1324764Y10742D02*
D03*
X1035433Y119291D02*
D03*
X894488D02*
D03*
X819685D02*
D03*
X744488D02*
D03*
X669685D02*
D03*
X705118Y90945D02*
D03*
X628049Y409058D02*
D03*
X548361D02*
D03*
X613386Y269291D02*
D03*
X468674Y409027D02*
D03*
X388986D02*
D03*
X538189Y269291D02*
D03*
X527953Y250787D02*
D03*
X463386Y269291D02*
D03*
X388189D02*
D03*
X500000Y250787D02*
D03*
X309002Y409058D02*
D03*
X229611Y409027D02*
D03*
X149924Y409058D02*
D03*
X70236Y409027D02*
D03*
X13973Y371367D02*
D03*
X98032Y325984D02*
D03*
X313386Y269291D02*
D03*
X238583D02*
D03*
X163386D02*
D03*
X13942Y296065D02*
D03*
X69685Y269291D02*
D03*
X13973Y221362D02*
D03*
X594488Y119291D02*
D03*
X519685D02*
D03*
X444488D02*
D03*
X369685D02*
D03*
X294488D02*
D03*
X352756Y48819D02*
D03*
X135039Y175984D02*
D03*
X13942Y146065D02*
D03*
X219685Y119291D02*
D03*
X97638D02*
D03*
X13973Y71362D02*
D03*
X49764Y10742D02*
D03*
X625984Y90551D02*
D03*
X584252Y59842D02*
D03*
Y52756D02*
D03*
D19*
X617323Y5512D02*
D03*
X661417D02*
D03*
X195276Y146063D02*
D03*
X186221Y114961D02*
D03*
X1115354Y116142D02*
D03*
X579921Y120079D02*
D03*
X810236Y38583D02*
D03*
X579921Y105905D02*
D03*
X122441Y259449D02*
D03*
X138976Y242913D02*
D03*
X210630Y257874D02*
D03*
X229528Y242913D02*
D03*
X266142Y107874D02*
D03*
X304523Y242761D02*
D03*
X285625Y257722D02*
D03*
X379528Y242913D02*
D03*
X360630Y257874D02*
D03*
X454521Y242913D02*
D03*
X435623Y257874D02*
D03*
X604529Y242913D02*
D03*
X585631Y257874D02*
D03*
X679529Y242913D02*
D03*
X660631Y257874D02*
D03*
X754529Y242913D02*
D03*
X735631Y257874D02*
D03*
X829529Y242913D02*
D03*
X810631Y257874D02*
D03*
X904529Y242913D02*
D03*
X885631Y257874D02*
D03*
X499606Y93701D02*
D03*
X791339Y109843D02*
D03*
X866535Y109251D02*
D03*
X1145669Y115354D02*
D03*
X1223816Y243310D02*
D03*
X1298819Y243307D02*
D03*
X1222441Y93701D02*
D03*
X1297441D02*
D03*
X981890Y105118D02*
D03*
X957874Y112598D02*
D03*
X959842Y258661D02*
D03*
X991732Y243701D02*
D03*
X1129134Y115748D02*
D03*
Y142913D02*
D03*
Y242913D02*
D03*
X1145669Y129134D02*
D03*
X678740Y83071D02*
D03*
X680709Y86221D02*
D03*
X689370Y94488D02*
D03*
X637008Y107087D02*
D03*
X631496D02*
D03*
X877165Y93701D02*
D03*
X805906Y95276D02*
D03*
X756693Y24409D02*
D03*
X754331Y33465D02*
D03*
X537008Y191339D02*
D03*
X548807Y90945D02*
D03*
X584646Y94488D02*
D03*
X482283Y342126D02*
D03*
X566535Y105905D02*
D03*
X575591D02*
D03*
X571260D02*
D03*
X1115256Y127165D02*
D03*
X1149213Y242913D02*
D03*
Y258268D02*
D03*
X1224016Y257480D02*
D03*
X1222441Y108268D02*
D03*
X1297638Y107874D02*
D03*
X1298819Y257480D02*
D03*
X416929Y107874D02*
D03*
Y92913D02*
D03*
X483071D02*
D03*
Y112205D02*
D03*
X490945Y109449D02*
D03*
X722441Y93307D02*
D03*
X716142Y107087D02*
D03*
X251575Y93307D02*
D03*
X684646Y37008D02*
D03*
X682283Y33858D02*
D03*
X679528Y31102D02*
D03*
X676772Y28346D02*
D03*
X674409Y25197D02*
D03*
X635805Y17244D02*
D03*
X629472Y16402D02*
D03*
X626353Y18809D02*
D03*
X632676Y20079D02*
D03*
X622835Y20472D02*
D03*
X584252Y46457D02*
D03*
X604724Y42913D02*
D03*
X1129134Y260236D02*
D03*
X515354Y275197D02*
D03*
D20*
X650787Y55118D02*
D03*
M02*
