M48
;Layer_Color=9474304
;FILE_FORMAT=2:4
INCH,LZ
;TYPE=PLATED
T1F00S00C0.0120
T2F00S00C0.0150
T3F00S00C0.0220
T4F00S00C0.0236
T5F00S00C0.0350
T6F00S00C0.0590
T7F00S00C0.1200
T8F00S00C0.1570
%
T01
X018622Y011496
X019528Y014606
X026614Y010787
X025157Y009331
X041693Y009291
Y010787
X048307Y01122
X049094Y010945
X048307Y009291
X049961Y00937
X054881Y009094
X056654Y010591
X057126
X057559
X057992
Y012008
X058465Y009449
X058425Y004646
X060472Y004291
X062283Y002047
X061732Y000551
X062635Y001881
X062947Y00164
X063268Y002008
X06358Y001724
X066142Y000551
X067441Y00252
X067677Y002835
X067953Y00311
X068228Y003386
X068465Y003701
X067874Y008307
X068071Y008622
X068937Y009449
X072244Y009331
X071614Y010709
X063701
X06315
X075433Y003346
X075669Y002441
X081024Y003858
X080591Y009528
X079134Y010984
X086654Y010925
X087717Y00937
X095787Y01126
X098189Y010512
X111535Y011614
X111526Y012717
X112913Y011575
X114567Y011535
Y012913
X112913Y014291
X122244Y010827
Y00937
X129744
X129764Y010787
X129882Y024331
Y025748
X122402
X122382Y024331
X114921Y024291
Y025827
X112913Y026024
Y024291
X099173Y02437
X095984Y025866
X090453Y024291
X088563Y025787
X082953Y024291
X081063Y025787
X075453Y024291
X073563Y025787
X067953Y024291
X066063Y025787
X060453Y024291
X058563Y025787
X051535Y02752
X053701Y019134
X045452Y024291
X043562Y025787
X037953Y024291
X036063Y025787
X030452Y024276
X028562Y025772
X022953Y024291
X021063Y025787
X013898Y024291
X012244Y025945
X048228Y034213
T02
X065079Y005512
T03
X004976Y001074
X010633Y003665
X009764Y011929
X001394Y014606
X001397Y007136
X020203Y003657
X0296Y003646
X029449Y011929
X021969
X036969
X044449
X035276Y004882
X058425Y005276
Y005984
X057545Y003445
X059449Y011929
X051968
X062598Y009055
X066437Y0083
X066968Y011929
X070512Y009094
X074449Y011929
X081968
X089449
X08583Y003627
X095324Y003577
X104502Y003666
X103543Y011929
X117559
X113242Y003812
X121687Y00354
X129178Y00343
X132476Y001074
X138406Y005089
X138403Y012589
X132598Y011929
X125079
X129759Y018416
X138406Y020089
X138403Y027589
X132598Y026929
X125079
X117598
X113976Y017717
X122299Y01836
X108894Y019656
X108228Y026929
X098819
X09844Y018898
X100709Y019331
X090534Y018336
X083004Y01835
X083819Y026929
X091339
X076339
X068819
X068011Y018321
X075492Y018328
X060488Y018325
X05199Y01884
X052795Y025079
X05
X053819Y026929
X061339
X046339
X038819
X031339
X037952Y018286
X045464Y018304
X030345Y018364
X022888Y018364
X023858Y026929
X016339
X006969
X001394Y029606
X001397Y022136
X012876Y018603
X013504Y017598
X009803Y032598
X009157Y033494
X007024Y040903
X014992Y040906
X001397Y037137
X017318Y033372
X024884Y033363
X022961Y040903
X0309Y040906
X038899Y040903
X039819Y033367
X032332Y033372
X047306Y033392
X054807Y033387
X062324Y033367
X054836Y040906
X046867Y040903
X062805Y040906
X070774Y040903
X069816Y033397
X077303Y033397
X084839Y033382
X092277Y033426
X086711Y040903
X078713Y040906
X09465
X102649
X105424Y03516
X105197Y03252
X099979Y034115
X10982Y034588
X110617Y040906
X118586Y040903
X122249Y033333
X129858Y033411
X138403Y035089
X134524Y040903
X126555Y040906
T04
X066154Y002008
X066654
X069213Y005197
Y005697
T05
X060276Y008543
X061811Y010118
T06
X00555Y007113
X00805Y008113
X0093Y014613
X014925Y007113
X017425Y008113
X0243Y007113
X0268Y008113
X028988Y014613
X021488
X036488Y014613
X043988Y014613
X051488
X058988
X054925Y008113
X052425Y007113
X066488Y014613
X073988
X081488
X088988
X089925Y007113
X092425Y008113
X08305
X08055Y007113
X0993
X1018Y008113
X10305Y014613
X108675Y007113
X111175Y008113
X117113Y007113
X119613Y008113
X124613Y007113
Y014613
X117113
X132113Y014613
Y007113
X134613Y008113
X127113Y008113
Y015613
Y023113
X132113Y022113
X134613Y023113
Y015613
Y030613
X132113Y029613
X127113Y030613
X124613Y029613
X119613Y030613
X117113Y029613
Y022113
X119613Y023113
X124613Y022113
X119613Y015613
X110238Y030613
X107738Y029613
X107425Y023113
X104925Y022113
X10555Y015613
X095238Y023113
X098363Y029613
X100863Y030613
X093363
X090863Y029613
X085863Y030613
X083363Y029613
X078363Y030613
X080238Y023113
X085238Y022113
X087738Y023113
X092738Y022113
X091488Y015613
X083988
X076488
X068988
X070238Y022113
X072738Y023113
X077738Y022113
X075863Y029613
X070863Y030613
X068363Y029613
X063363Y030613
X062738Y022113
X065238Y023113
X057738
X055238Y022113
X050238Y023113
X047738Y022113
X048363Y030613
X053363Y029613
X055863Y030613
X060863Y029613
X061488Y015613
X053988
X046488
X038988Y015613
X031488Y015613
X032738Y022113
X035238Y023113
X040238Y022113
X042738Y023113
X040863Y030613
X038363Y029613
X033363Y030613
X045863Y029613
X030863
X025863Y030613
X023363Y029613
X018363Y030613
X015863Y029613
X017738Y022113
X020238Y023113
X025238Y022113
X027738Y023113
X023988Y015613
X0118Y015613
X009925Y023113
X007425Y022113
X006488Y029613
X008988Y030613
X007113Y038113
X004613Y037113
X012113Y037113
X014613Y038113
X019613Y037113
X022113Y038113
X027113Y037113
X029613Y038113
X034613Y037113
X037113Y038113
X042112Y037113
X044612Y038113
X049613Y037113
X052113Y038113
X057113Y037113
X059613Y038113
X064613Y037113
X067113Y038113
X072113Y037113
X074613Y038113
X079613Y037113
X082113Y038113
X087113Y037113
X089613Y038113
X094613Y037113
X097113Y038113
X105863Y037113
X108363Y038113
X117113Y037113
X119613Y038113
X124613Y037113
X127113Y038113
X132113Y037113
X134613Y038113
T07
X034238Y008863
X073613
X111125Y023863
X10925Y016363
X09985
X101725Y023863
X0155Y016363
X0061
X102663Y038863
X112063
T08
X0061Y010363
X0155
X034238Y002863
X073613
X09985Y010363
X10925
X111125Y017863
X101725
X102663Y032863
X112063
M30
