G04*
G04 #@! TF.GenerationSoftware,Altium Limited,Altium Designer,20.1.14 (287)*
G04*
G04 Layer_Color=32896*
%FSLAX25Y25*%
%MOIN*%
G70*
G04*
G04 #@! TF.SameCoordinates,5E7EC535-6302-435E-A40C-08F812187638*
G04*
G04*
G04 #@! TF.FilePolarity,Positive*
G04*
G01*
G75*
%ADD10C,0.00500*%
%ADD67C,0.00984*%
%ADD68C,0.02362*%
%ADD69C,0.00787*%
%ADD70C,0.00394*%
%ADD71C,0.00600*%
%ADD72R,0.06248X0.02000*%
D10*
X952251Y14710D02*
Y18647D01*
X1031938Y14710D02*
Y18647D01*
X1111626Y14710D02*
Y18647D01*
X1191313Y14710D02*
Y18647D01*
X1271001Y14710D02*
Y18647D01*
X1350688Y14710D02*
Y18647D01*
X1376153Y76818D02*
X1380090D01*
X1376153Y151817D02*
X1380090D01*
X1376153Y226817D02*
X1380090D01*
X1376153Y301817D02*
X1380090D01*
X75688Y14710D02*
Y18647D01*
X155376Y14710D02*
Y18647D01*
X235064Y14710D02*
Y18647D01*
X314751Y14710D02*
Y18647D01*
X394439Y14710D02*
Y18647D01*
X474126Y14710D02*
Y18647D01*
X553814Y14710D02*
Y18647D01*
X614901Y14710D02*
Y18647D01*
X713189Y14710D02*
Y18647D01*
X792876Y14710D02*
Y18647D01*
X872563Y14710D02*
Y18647D01*
X442749Y401153D02*
Y405090D01*
X363061Y401153D02*
Y405090D01*
X283374Y401153D02*
Y405090D01*
X203686Y401153D02*
Y405090D01*
X123999Y401153D02*
Y405090D01*
X44311Y401153D02*
Y405090D01*
X17910Y345443D02*
X21847D01*
X17910Y270437D02*
X21847D01*
X17910Y195437D02*
X21847D01*
X17910Y120437D02*
X21847D01*
X17910Y45437D02*
X21847D01*
X1319312Y401153D02*
Y405090D01*
X1239624Y401153D02*
Y405090D01*
X1159937Y401153D02*
Y405090D01*
X1080249Y401153D02*
Y405090D01*
X1000562Y401153D02*
Y405090D01*
X920874Y401153D02*
Y405090D01*
X841187Y401153D02*
Y405090D01*
X761499Y401153D02*
Y405090D01*
X681812Y401153D02*
Y405090D01*
X602124Y401153D02*
Y405090D01*
X522437Y401153D02*
Y405090D01*
X1376153Y376817D02*
X1380090D01*
X119996Y342536D02*
Y346473D01*
X194996Y342536D02*
Y346473D01*
X269996Y342536D02*
Y346473D01*
X344996Y342536D02*
Y346473D01*
X419990Y342536D02*
Y346473D01*
X494994Y342540D02*
Y346477D01*
X644998Y342536D02*
Y346473D01*
X719998Y342536D02*
Y346473D01*
X794998Y342536D02*
Y346473D01*
X869998Y342536D02*
Y346473D01*
X944998Y342536D02*
Y346473D01*
X1057498Y342536D02*
Y346473D01*
X1169998Y342536D02*
Y346473D01*
X1244995Y342539D02*
Y346476D01*
X1319998Y342536D02*
Y346473D01*
X73118Y192533D02*
Y196470D01*
X176244Y192533D02*
Y196470D01*
X251244Y192533D02*
Y196470D01*
X326244Y192533D02*
Y196470D01*
X401244Y192534D02*
Y196471D01*
X476244Y192534D02*
Y196471D01*
X551244Y192534D02*
Y196471D01*
X626244Y192534D02*
Y196471D01*
X701244Y192534D02*
Y196471D01*
X776244Y192534D02*
Y196471D01*
X851244Y192534D02*
Y196471D01*
X926244Y192534D02*
Y196471D01*
X1048118Y192534D02*
Y196471D01*
X1085618Y42535D02*
Y46472D01*
X1169998Y192536D02*
Y196473D01*
X1244998Y192536D02*
Y196473D01*
X1319998Y192536D02*
Y196473D01*
X54368Y42533D02*
Y46470D01*
X148119Y42534D02*
Y46471D01*
X241869Y42534D02*
Y46471D01*
X523118Y42535D02*
Y46472D01*
X804370Y42535D02*
Y46472D01*
X898118Y42535D02*
Y46472D01*
X991870Y42535D02*
Y46472D01*
X1169998Y42537D02*
Y46474D01*
X1319998Y42537D02*
Y46474D01*
X44993Y342539D02*
Y346476D01*
X1244998Y42537D02*
Y46474D01*
X569998Y342536D02*
Y346473D01*
X189379Y261522D02*
Y265459D01*
X264379Y261522D02*
Y265459D01*
X339379Y261522D02*
Y265459D01*
X414380Y261523D02*
Y265460D01*
X489381Y261522D02*
Y265459D01*
X639381Y261522D02*
Y265459D01*
X714381Y261522D02*
Y265459D01*
X789381Y261522D02*
Y265459D01*
X864381Y261522D02*
Y265459D01*
X939381Y261522D02*
Y265459D01*
X1014381Y261522D02*
Y265459D01*
X1108127Y261520D02*
Y265457D01*
X1201881Y261522D02*
Y265459D01*
X1276881Y261522D02*
Y265459D01*
X1351881Y261522D02*
Y265459D01*
X123751Y111520D02*
Y115456D01*
X245627Y111520D02*
Y115457D01*
X320627Y111520D02*
Y115457D01*
X395627Y111520D02*
Y115457D01*
X470627Y111521D02*
Y115458D01*
X545627Y111521D02*
Y115458D01*
X620627Y111521D02*
Y115458D01*
X695627Y111521D02*
Y115458D01*
X770627Y111521D02*
Y115458D01*
X845627Y111521D02*
Y115458D01*
X920627Y111521D02*
Y115458D01*
X1061253Y111521D02*
Y115458D01*
X1201881Y111523D02*
Y115460D01*
X1276881Y111523D02*
Y115460D01*
X1351881Y111523D02*
Y115460D01*
X95626Y261519D02*
Y265456D01*
X564381Y261522D02*
Y265459D01*
D67*
X661909Y69095D02*
G03*
X661909Y69095I-492J0D01*
G01*
D68*
X652953Y62795D02*
G03*
X652953Y62795I-1181J0D01*
G01*
D69*
X154687Y383152D02*
X160790D01*
Y378152D02*
Y383152D01*
X154687Y378152D02*
Y383152D01*
X229687Y378152D02*
Y383152D01*
X235790Y378152D02*
Y383152D01*
X229687D02*
X235790D01*
X304687D02*
X310790D01*
Y378152D02*
Y383152D01*
X304687Y378152D02*
Y383152D01*
X379687Y378152D02*
Y383152D01*
X385790Y378152D02*
Y383152D01*
X379687D02*
X385790D01*
X454681D02*
X460783D01*
Y378152D02*
Y383152D01*
X454681Y378152D02*
Y383152D01*
X529685Y378156D02*
Y383156D01*
X535787Y378156D02*
Y383156D01*
X529685D02*
X535787D01*
X679689Y383152D02*
X685791D01*
Y378152D02*
Y383152D01*
X679689Y378152D02*
Y383152D01*
X754689Y378152D02*
Y383152D01*
X760791Y378152D02*
Y383152D01*
X754689D02*
X760791D01*
X829689D02*
X835791D01*
Y378152D02*
Y383152D01*
X829689Y378152D02*
Y383152D01*
X904689Y378152D02*
Y383152D01*
X910791Y378152D02*
Y383152D01*
X904689D02*
X910791D01*
X979689D02*
X985791D01*
Y378152D02*
Y383152D01*
X979689Y378152D02*
Y383152D01*
X1092189Y378152D02*
Y383152D01*
X1098291Y378152D02*
Y383152D01*
X1092189D02*
X1098291D01*
X1204689D02*
X1210791D01*
Y378152D02*
Y383152D01*
X1204689Y378152D02*
Y383152D01*
X1279686Y378155D02*
Y383155D01*
X1285788Y378155D02*
Y383155D01*
X1279686D02*
X1285788D01*
X1354689Y383152D02*
X1360791D01*
Y378152D02*
Y383152D01*
X1354689Y378152D02*
Y383152D01*
X107809Y228149D02*
Y233149D01*
X113912Y228149D02*
Y233149D01*
X107809D02*
X113912D01*
X210935Y233150D02*
X217037D01*
Y228150D02*
Y233150D01*
X210935Y228150D02*
Y233150D01*
X285935Y228150D02*
Y233150D01*
X292037Y228150D02*
Y233150D01*
X285935D02*
X292037D01*
X360935D02*
X367037D01*
Y228150D02*
Y233150D01*
X360935Y228150D02*
Y233150D01*
X435935Y228150D02*
Y233150D01*
X442037Y228150D02*
Y233150D01*
X435935D02*
X442037D01*
X510935Y233150D02*
X517037D01*
Y228150D02*
Y233150D01*
X510935Y228150D02*
Y233150D01*
X585935Y228150D02*
Y233150D01*
X592037Y228150D02*
Y233150D01*
X585935D02*
X592037D01*
X660935D02*
X667037D01*
Y228150D02*
Y233150D01*
X660935Y228150D02*
Y233150D01*
X735935Y228150D02*
Y233150D01*
X742037Y228150D02*
Y233150D01*
X735935D02*
X742037D01*
X810935D02*
X817037D01*
Y228150D02*
Y233150D01*
X810935Y228150D02*
Y233150D01*
X885935Y228150D02*
Y233150D01*
X892037Y228150D02*
Y233150D01*
X885935D02*
X892037D01*
X960935D02*
X967037D01*
Y228150D02*
Y233150D01*
X960935Y228150D02*
Y233150D01*
X1082809Y228150D02*
Y233150D01*
X1088911Y228150D02*
Y233150D01*
X1082809D02*
X1088911D01*
X1120309Y83151D02*
X1126411D01*
Y78151D02*
Y83151D01*
X1120309Y78151D02*
Y83151D01*
X1204689Y228152D02*
Y233152D01*
X1210791Y228152D02*
Y233152D01*
X1204689D02*
X1210791D01*
X1279689D02*
X1285791D01*
Y228152D02*
Y233152D01*
X1279689Y228152D02*
Y233152D01*
X1354689Y228152D02*
Y233152D01*
X1360791Y228152D02*
Y233152D01*
X1354689D02*
X1360791D01*
X89060Y83150D02*
X95162D01*
Y78150D02*
Y83150D01*
X89060Y78150D02*
Y83150D01*
X182810Y78150D02*
Y83150D01*
X188912Y78150D02*
Y83150D01*
X182810D02*
X188912D01*
X276560Y83150D02*
X282662D01*
Y78150D02*
Y83150D01*
X276560Y78150D02*
Y83150D01*
X557809Y78151D02*
Y83151D01*
X563911Y78151D02*
Y83151D01*
X557809D02*
X563911D01*
X839061D02*
X845163D01*
Y78151D02*
Y83151D01*
X839061Y78151D02*
Y83151D01*
X932809Y78151D02*
Y83151D01*
X938911Y78151D02*
Y83151D01*
X932809D02*
X938911D01*
X1026561D02*
X1032663D01*
Y78151D02*
Y83151D01*
X1026561Y78151D02*
Y83151D01*
X1204689Y78153D02*
Y83153D01*
X1210791Y78153D02*
Y83153D01*
X1204689D02*
X1210791D01*
X1354689Y83153D02*
X1360791D01*
Y78153D02*
Y83153D01*
X1354689Y78153D02*
Y83153D01*
X79685Y378155D02*
Y383155D01*
X85787Y378155D02*
Y383155D01*
X79685D02*
X85787D01*
X1279689Y83153D02*
X1285791D01*
Y78153D02*
Y83153D01*
X1279689Y78153D02*
Y83153D01*
X604689Y378152D02*
Y383152D01*
X610791Y378152D02*
Y383152D01*
X604689D02*
X610791D01*
X192187Y308152D02*
X198290D01*
Y303152D02*
Y308152D01*
X192187Y303152D02*
Y308152D01*
X267187D02*
X273290D01*
Y303152D02*
Y308152D01*
X267187Y303152D02*
Y308152D01*
X342187D02*
X348290D01*
Y303152D02*
Y308152D01*
X342187Y303152D02*
Y308152D01*
X417188Y308153D02*
X423290D01*
Y303153D02*
Y308153D01*
X417188Y303153D02*
Y308153D01*
X492189Y308152D02*
X498291D01*
Y303152D02*
Y308152D01*
X492189Y303152D02*
Y308152D01*
X642189D02*
X648291D01*
Y303152D02*
Y308152D01*
X642189Y303152D02*
Y308152D01*
X717189D02*
X723291D01*
Y303152D02*
Y308152D01*
X717189Y303152D02*
Y308152D01*
X792189D02*
X798291D01*
Y303152D02*
Y308152D01*
X792189Y303152D02*
Y308152D01*
X867189D02*
X873291D01*
Y303152D02*
Y308152D01*
X867189Y303152D02*
Y308152D01*
X942189D02*
X948291D01*
Y303152D02*
Y308152D01*
X942189Y303152D02*
Y308152D01*
X1017189D02*
X1023291D01*
Y303152D02*
Y308152D01*
X1017189Y303152D02*
Y308152D01*
X1110935Y308150D02*
X1117037D01*
Y303150D02*
Y308150D01*
X1110935Y303150D02*
Y308150D01*
X1204689Y308152D02*
X1210791D01*
Y303152D02*
Y308152D01*
X1204689Y303152D02*
Y308152D01*
X1279689D02*
X1285791D01*
Y303152D02*
Y308152D01*
X1279689Y303152D02*
Y308152D01*
X1354689Y308152D02*
X1360791D01*
Y303152D02*
Y308152D01*
X1354689Y303152D02*
Y308152D01*
X126559Y158150D02*
X132662D01*
Y153150D02*
Y158150D01*
X126559Y153150D02*
Y158150D01*
X248435Y158150D02*
X254537D01*
Y153150D02*
Y158150D01*
X248435Y153150D02*
Y158150D01*
X323435D02*
X329537D01*
Y153150D02*
Y158150D01*
X323435Y153150D02*
Y158150D01*
X398435Y158150D02*
X404537D01*
Y153150D02*
Y158150D01*
X398435Y153150D02*
Y158150D01*
X473435Y158151D02*
X479537D01*
Y153151D02*
Y158151D01*
X473435Y153151D02*
Y158151D01*
X548435D02*
X554537D01*
Y153151D02*
Y158151D01*
X548435Y153151D02*
Y158151D01*
X623435D02*
X629537D01*
Y153151D02*
Y158151D01*
X623435Y153151D02*
Y158151D01*
X698435D02*
X704537D01*
Y153151D02*
Y158151D01*
X698435Y153151D02*
Y158151D01*
X773435D02*
X779537D01*
Y153151D02*
Y158151D01*
X773435Y153151D02*
Y158151D01*
X848435D02*
X854537D01*
Y153151D02*
Y158151D01*
X848435Y153151D02*
Y158151D01*
X923435D02*
X929537D01*
Y153151D02*
Y158151D01*
X923435Y153151D02*
Y158151D01*
X1064061D02*
X1070163D01*
Y153151D02*
Y158151D01*
X1064061Y153151D02*
Y158151D01*
X1204689Y158153D02*
X1210791D01*
Y153153D02*
Y158153D01*
X1204689Y153153D02*
Y158153D01*
X1279689D02*
X1285791D01*
Y153153D02*
Y158153D01*
X1279689Y153153D02*
Y158153D01*
X1354689Y158153D02*
X1360791D01*
Y153153D02*
Y158153D01*
X1354689Y153153D02*
Y158153D01*
X98435Y308149D02*
X104537D01*
Y303149D02*
Y308149D01*
X98435Y303149D02*
Y308149D01*
X567189Y308152D02*
X573291D01*
Y303152D02*
Y308152D01*
X567189Y303152D02*
Y308152D01*
X688583Y48425D02*
X695669D01*
X688583D02*
Y60512D01*
X695669D01*
Y48425D02*
Y60512D01*
X622244Y33268D02*
Y66732D01*
Y33268D02*
X655709D01*
X622244Y66732D02*
X655709D01*
Y33268D02*
Y66732D01*
X657992Y16535D02*
X670079D01*
X657992D02*
Y23622D01*
X670079D01*
Y16535D02*
Y23622D01*
X670472Y60098D02*
X674409D01*
X670472Y65098D02*
X674409D01*
X620728Y81496D02*
Y85433D01*
X625728Y81496D02*
Y85433D01*
X644089Y16363D02*
Y20300D01*
X649089Y16363D02*
Y20300D01*
X658917Y73228D02*
Y77165D01*
X663917Y73228D02*
Y77165D01*
X602756Y34902D02*
X606693D01*
X602756Y39902D02*
X606693D01*
X670472Y44350D02*
X674409D01*
X670472Y49350D02*
X674409D01*
D70*
X639764Y4528D02*
X641339Y11220D01*
D71*
X700812Y50065D02*
X698146D01*
X697613Y50599D01*
Y51665D01*
X698146Y52198D01*
X700812D01*
X700279Y55397D02*
X700812Y54864D01*
Y53798D01*
X700279Y53264D01*
X699746D01*
X699213Y53798D01*
Y54864D01*
X698679Y55397D01*
X698146D01*
X697613Y54864D01*
Y53798D01*
X698146Y53264D01*
X700812Y56463D02*
X697613D01*
Y58063D01*
X698146Y58596D01*
X698679D01*
X699213Y58063D01*
Y56463D01*
Y58063D01*
X699746Y58596D01*
X700279D01*
X700812Y58063D01*
Y56463D01*
X618274Y28371D02*
Y25705D01*
X617741Y25172D01*
X616675D01*
X616142Y25705D01*
Y28371D01*
X615075Y25172D02*
X614009D01*
X614542D01*
Y28371D01*
X615075Y27838D01*
X657899Y20776D02*
X654700D01*
Y19177D01*
X655233Y18643D01*
X656299D01*
X656832Y19177D01*
Y20776D01*
Y19710D02*
X657899Y18643D01*
X655233Y17577D02*
X654700Y17044D01*
Y15978D01*
X655233Y15444D01*
X655766D01*
X656299Y15978D01*
Y16511D01*
Y15978D01*
X656832Y15444D01*
X657366D01*
X657899Y15978D01*
Y17044D01*
X657366Y17577D01*
X683834Y42610D02*
X687033D01*
Y44209D01*
X686499Y44742D01*
X685433D01*
X684900Y44209D01*
Y42610D01*
Y43676D02*
X683834Y44742D01*
Y47941D02*
Y45809D01*
X685966Y47941D01*
X686499D01*
X687033Y47408D01*
Y46342D01*
X686499Y45809D01*
X683834Y61253D02*
X687033D01*
Y62853D01*
X686499Y63386D01*
X685433D01*
X684900Y62853D01*
Y61253D01*
Y62319D02*
X683834Y63386D01*
Y64452D02*
Y65518D01*
Y64985D01*
X687033D01*
X686499Y64452D01*
X668438Y25172D02*
Y28371D01*
X666839D01*
X666306Y27838D01*
Y26772D01*
X666839Y26239D01*
X668438D01*
X667372D02*
X666306Y25172D01*
X663107Y27838D02*
X663640Y28371D01*
X664706D01*
X665239Y27838D01*
Y27305D01*
X664706Y26772D01*
X663640D01*
X663107Y26239D01*
Y25705D01*
X663640Y25172D01*
X664706D01*
X665239Y25705D01*
X662041Y28371D02*
X659908D01*
X660974D01*
Y25172D01*
X674307Y69570D02*
X674840Y70103D01*
X675907D01*
X676440Y69570D01*
Y67438D01*
X675907Y66904D01*
X674840D01*
X674307Y67438D01*
X673241Y66904D02*
X672174D01*
X672708D01*
Y70103D01*
X673241Y69570D01*
X670575D02*
X670042Y70103D01*
X668975D01*
X668442Y69570D01*
Y67438D01*
X668975Y66904D01*
X670042D01*
X670575Y67438D01*
Y69570D01*
X615863Y84391D02*
X615330Y84925D01*
Y85991D01*
X615863Y86524D01*
X617995D01*
X618529Y85991D01*
Y84925D01*
X617995Y84391D01*
Y83325D02*
X618529Y82792D01*
Y81726D01*
X617995Y81192D01*
X615863D01*
X615330Y81726D01*
Y82792D01*
X615863Y83325D01*
X616396D01*
X616929Y82792D01*
Y81192D01*
X639485Y19837D02*
X638952Y20370D01*
Y21436D01*
X639485Y21970D01*
X641617D01*
X642151Y21436D01*
Y20370D01*
X641617Y19837D01*
X642151Y18770D02*
Y17704D01*
Y18237D01*
X638952D01*
X639485Y18770D01*
X642151Y16105D02*
Y15038D01*
Y15572D01*
X638952D01*
X639485Y16105D01*
X662484Y82144D02*
X663017Y81611D01*
Y80545D01*
X662484Y80011D01*
X660351D01*
X659818Y80545D01*
Y81611D01*
X660351Y82144D01*
X662484Y83210D02*
X663017Y83744D01*
Y84810D01*
X662484Y85343D01*
X661950D01*
X661417Y84810D01*
X660884Y85343D01*
X660351D01*
X659818Y84810D01*
Y83744D01*
X660351Y83210D01*
X660884D01*
X661417Y83744D01*
X661950Y83210D01*
X662484D01*
X661417Y83744D02*
Y84810D01*
X598171Y38468D02*
X598704Y39001D01*
X599770D01*
X600304Y38468D01*
Y36335D01*
X599770Y35802D01*
X598704D01*
X598171Y36335D01*
X597105Y39001D02*
X594972D01*
Y38468D01*
X597105Y36335D01*
Y35802D01*
X671514Y51690D02*
X670981Y51156D01*
X669915D01*
X669381Y51690D01*
Y53822D01*
X669915Y54355D01*
X670981D01*
X671514Y53822D01*
X674713Y51156D02*
X673647Y51690D01*
X672580Y52756D01*
Y53822D01*
X673114Y54355D01*
X674180D01*
X674713Y53822D01*
Y53289D01*
X674180Y52756D01*
X672580D01*
X619546Y3066D02*
X619012Y2532D01*
X617946D01*
X617413Y3066D01*
Y5198D01*
X617946Y5731D01*
X619012D01*
X619546Y5198D01*
X622745Y2532D02*
X620612D01*
Y4132D01*
X621678Y3599D01*
X622211D01*
X622745Y4132D01*
Y5198D01*
X622211Y5731D01*
X621145D01*
X620612Y5198D01*
X657109Y7877D02*
X657643Y7344D01*
Y6277D01*
X657109Y5744D01*
X654977D01*
X654444Y6277D01*
Y7344D01*
X654977Y7877D01*
X654444Y10543D02*
X657643D01*
X656043Y8943D01*
Y11076D01*
X674549Y40436D02*
X675082Y40970D01*
X676148D01*
X676682Y40436D01*
Y38304D01*
X676148Y37771D01*
X675082D01*
X674549Y38304D01*
X673483Y40436D02*
X672949Y40970D01*
X671883D01*
X671350Y40436D01*
Y39903D01*
X671883Y39370D01*
X672416D01*
X671883D01*
X671350Y38837D01*
Y38304D01*
X671883Y37771D01*
X672949D01*
X673483Y38304D01*
X681242Y71933D02*
X681775Y72466D01*
X682841D01*
X683375Y71933D01*
Y69800D01*
X682841Y69267D01*
X681775D01*
X681242Y69800D01*
X678043Y69267D02*
X680175D01*
X678043Y71399D01*
Y71933D01*
X678576Y72466D01*
X679642D01*
X680175Y71933D01*
X651181Y88074D02*
X651714Y88607D01*
X652781D01*
X653314Y88074D01*
Y85941D01*
X652781Y85408D01*
X651714D01*
X651181Y85941D01*
X650115Y85408D02*
X649048D01*
X649582D01*
Y88607D01*
X650115Y88074D01*
D72*
X157863Y382152D02*
D03*
X232863D02*
D03*
X307863D02*
D03*
X382863D02*
D03*
X457856D02*
D03*
X532860Y382156D02*
D03*
X682864Y382152D02*
D03*
X757864D02*
D03*
X832864D02*
D03*
X907864D02*
D03*
X982864D02*
D03*
X1095364D02*
D03*
X1207864D02*
D03*
X1282861Y382155D02*
D03*
X1357864Y382152D02*
D03*
X110985Y232149D02*
D03*
X214110Y232150D02*
D03*
X289110D02*
D03*
X364110D02*
D03*
X439110Y232150D02*
D03*
X514110Y232150D02*
D03*
X589110D02*
D03*
X664110D02*
D03*
X739110D02*
D03*
X814110D02*
D03*
X889110D02*
D03*
X964110D02*
D03*
X1085984D02*
D03*
X1123484Y82151D02*
D03*
X1207864Y232152D02*
D03*
X1282864D02*
D03*
X1357864Y232152D02*
D03*
X92235Y82150D02*
D03*
X185985Y82150D02*
D03*
X279735Y82150D02*
D03*
X560984Y82151D02*
D03*
X842236D02*
D03*
X935984D02*
D03*
X1029736D02*
D03*
X1207864Y82153D02*
D03*
X1357864Y82153D02*
D03*
X82860Y382155D02*
D03*
X1282864Y82153D02*
D03*
X607864Y382152D02*
D03*
X195363Y307152D02*
D03*
X270363D02*
D03*
X345363D02*
D03*
X420363Y307153D02*
D03*
X495364Y307152D02*
D03*
X645364D02*
D03*
X720364D02*
D03*
X795364D02*
D03*
X870364D02*
D03*
X945364D02*
D03*
X1020364D02*
D03*
X1114110Y307150D02*
D03*
X1207864Y307152D02*
D03*
X1282864D02*
D03*
X1357864Y307152D02*
D03*
X129735Y157150D02*
D03*
X251610Y157150D02*
D03*
X326610D02*
D03*
X401610Y157150D02*
D03*
X476610Y157151D02*
D03*
X551610D02*
D03*
X626610D02*
D03*
X701610D02*
D03*
X776610D02*
D03*
X851610D02*
D03*
X926610D02*
D03*
X1067236D02*
D03*
X1207864Y157153D02*
D03*
X1282864D02*
D03*
X1357864D02*
D03*
X101610Y307149D02*
D03*
X570364Y307152D02*
D03*
M02*
